<?xml version="1.0" encoding="utf-8"?>
<!-- Generator: Adobe Illustrator 23.1.0, SVG Export Plug-In . SVG Version: 6.00 Build 0)  -->
<svg version="1.1" xmlns="http://www.w3.org/2000/svg" xmlns:xlink="http://www.w3.org/1999/xlink" x="0px" y="0px"
	 viewBox="0 0 1280 722.94" style="enable-background:new 0 0 1280 722.94;" xml:space="preserve">
<style type="text/css">
	.st0{display:none;}
	.st1{display:inline;fill:#B0B0B0;}
	.st2{fill:url(#SVGID_1_);}
	.st3{fill:url(#SVGID_2_);}
	.st4{fill:url(#SVGID_3_);}
	.st5{fill:url(#SVGID_4_);}
	.st6{fill:url(#SVGID_5_);}
	.st7{fill:url(#SVGID_6_);}
	.st8{fill:url(#SVGID_7_);}
	.st9{fill:url(#SVGID_8_);}
	.st10{fill:#040000;}
	.st11{fill:#FFFFFF;}
	.st12{clip-path:url(#SVGID_10_);}
	.st13{fill:none;}
	.st14{fill:#1A1A1A;}
</style>
<g id="BG" class="st0">
	<rect x="-4120.63" y="-286.84" class="st1" width="5644.36" height="2877.76"/>
</g>
<g id="圖層_1">
	<g>
		<path d="M132.75,165.02c0,0,23.27-64.52,56.03-61.63c32.76,2.89-16.38-51.04-37.07-57.78c-20.69-6.74-53.45-31.78-53.45-31.78
			S99.06,65.41,68.2,132c-5.34-11.98-11.51-23.49-17.2-28.49c-14.19-12.48-36.52,9.3-36.52,9.3s2.54,29.54,17,29.73
			c0,0,11.7,10.88,19.73,21.78C38.11,186.48,21.39,209.56,0,232.43c0,0,42.54,8.57,90.07-25.02c18.96,10.13,40.3,28.57,37.58,59.73
			c0,0-69.15,70.32-92.43,85.09c0,0,76.68-9.85,98.59-35.87c0,0,3.42,98.46-15.75,137.13c0,0-57.96,21.33-73.94,19.46
			c0,0,93.57,55.32,137.38,45.95c0,0,5.48-6.1,5.93-22.5c0,0,36.06-143.46-15.29-239.81c0,0-22.34-41.6-61.44-66.38
			C118.11,183.04,125.51,174.71,132.75,165.02z"/>
		<path d="M397.25,152.2l-44.56-4.47c41.91-63.3-4.8-82.5-4.8-82.5c-51.23-31.99-52.97,7.03-52.97,7.03
			c3.52,8.34-6.05,60.37-6.05,60.37c-21.2,1.51-44.73-24.43-44.73-24.43c-41.43-6.68-23.68,26.28-23.68,26.28
			c9.33,29.97,155.43,49.69,155.43,49.69C413.91,166.94,397.25,152.2,397.25,152.2z"/>
		<path d="M360.5,213.53c0,0-94.38,13.61-100.4,21.55c0,0,27.87,49.6,107.92,2.1C368.02,237.18,387.48,221.92,360.5,213.53z"/>
		<path d="M271.06,316.34c0,0,35.75,42.25,102.56,27.8c0,0,21.31-10.11,12.28-24.19c0,0-76.56-14.81-97.86-28.53
			C288.04,291.42,260.23,291.06,271.06,316.34z"/>
		<path d="M641.04,271.51c0.11,16.57-20.93,61.11-22.86,58.93c-1.93-2.18-42.7-21.05-42.7-21.05c-30.53-35.36-80.2-46.86-80.2-46.86
			l2.21-45.07l37.84-7.82c19.5-7.35,18.56-15.48,18.56-15.48c11.67-7.79-13.26-21.38-13.26-21.38
			c-2.55,0.16-56.23,11.61-56.23,11.61c-0.13-20.26-44.71-82.58-44.71-82.58c-37.32-11.1-50.58,19.31-50.58,19.31
			c11.73,6.81,23.82,72.5,23.82,72.5c-39.66,0.82-37.88,23.68-37.88,23.68c3.65,17.68,19.94,18.01,19.94,18.01s24.1-8.3,26.31-6.54
			c2.21,1.76,9.89,119.28,9.89,119.28l-31.96,30.94c0,0,0.09,0.2,0.25,0.53c-0.65-0.12-1.3-0.24-2.01-0.34
			c0,0-10.39-1.35-17.94,2.55c-2.51-6.63-15.37-21.92-81-14.47l-6.86-2c0,0-1.81-7.03-14.08-8.11c0,0-29.25-2.15-19.86,24.38
			c0,0,11.56,39.17,7.58,53.62c0,0,1.81,89.2,26.72,81.61c0,0,15.17,2.17,19.14-7.58c0,0,37.12,3.24,64.2-43.92
			c1.6,5.77,3.74,10.55,6.58,13.59c0,0,20.58,18.06,31.42-6.5c0,0,5.14-48.79,2.41-72.31c1.07,0.12,2.1-0.2,3.02-1.12
			c7-6.98,89.28-82.11,89.28-82.11c17.81,46.96,110.47,92.11,110.47,92.11c16.6,16.11,32.86,0.22,32.86,0.22
			c17.31-28.65,7.82-108.55,7.82-108.55C647.34,260.99,641.04,271.51,641.04,271.51z M328.34,481.73c0,0-4.11-80.53,0-87.75
			c0,0,31.19-7.13,45.23-6.68c-1.01,1.82-1.65,4.01-1.76,6.68c0,0-2.32,29.22,0.43,54.07C365.35,451.25,334.31,466.34,328.34,481.73
			z"/>
		<path d="M500.46,91.47c0,0,22.75,45.14,44.42,41.53c0,0,18.78-2.53,15.53-23.83c0,0-20.58-79.45-76.56-64.28
			C483.85,44.89,483.13,77.03,500.46,91.47z"/>
		<path d="M802.76,123.33c0,0,13.72,19.5,56.33-9.03c0,0,8.67-11.56-8.3-28.17c-16.97-16.61,0.36,1.95,0.36,1.95
			s-34.67-33.73-48.39-40.95c0,0-22.03-6.5-20.22,17.69C782.54,64.83,815.04,104.19,802.76,123.33z"/>
		<path d="M694.06,160.85c0,0,27.92,23.36,68.19,34.48c-24.05,25.65-52.67,73.38-37.36,147.25c0,0,30.75,48.77,100.12,36.28
			c0,0,3-5.46,4.13-8.58c0,0,19.12-74.91,31.12-83.49c0,0,8.38-15.47,3-22.76c0,0-30.12,11.32-57.12,48.25
			c0,0-42.62-5.98-38.88-42.26c0,0-0.84-38.07,30.95-69.03c8.61,0.3,17.51-0.17,26.59-1.66c0,0,39.41-9.46,41.85-19.24
			c0,0,3.06-26.17-18.94-30.27c0,0-15.27,7.42-24.74,12.54c0,0-56.82,33.51-109.36-29.88c0,0-14.05-17.35-31.77-3.47
			C681.85,129,669.93,145.71,694.06,160.85z"/>
		<path d="M1267.3,638.37c0,0,0.96-24.56-25.04-35.63c0,0-48.15-29.85-111.22-33.71c0,0-11.08-11.07-179.12,30.34
			c0,0,16.85-82.34,19.74-87.15c2.89-4.81,40.92-2.89,95.57-36.11c0,0,19.02-9.63,36.35-2.41c0,0,10.59-5.78-2.89-16.85
			c0,0-9.15-14.93-42.37-3.85c0,0-65.61,11.07-83.36,11.56l23.96-89.64c7.59,1.84,15.64,3.53,24.21,5.05
			c0,0,86.47,16.56,108.17-6.56c0,0,24.98-24.68,23.67-26.87c0,0-0.99-5.48-9.21-4.3c0,0-18.61,3.15-44.63,5.26
			c11.37-39,52.4-181.53,48.43-193.19c0,0,3.62-23.16-15.46-22.2c0,0-82.88-0.32-97.35,4.5c0,0-2.96,20.91,17.43,21.23
			c0,0,38.48,2.21,43.74,3.04c0,0,12.83,8.55-7.56,23.35c0,0-34.53-2.9-38.15-7.72c0,0-18.09-0.64-12.5,7.72
			c0,0,18.42,22.52,46.04,29.6c0,0-2.63,52.76-25.32,67.88c0,0-57.88-0.32-67.42-13.83c0,0-12.17-3.54-11.18,7.72
			c0,0,3.95,32.17,77.94,38.93c0,0-2.59,24.37-13.29,34.7c-39.48-1.02-79.67-7.98-97.32-29.57c0,0,37.15-114.99,39.12-118.74
			c0,0,14.47-39.68-8.88-32.81c0,0-19.07,17.81-20.71,20.62c0,0,3.61,40.62-34.19,105.93c0,0-21.04-8.12-20.06-21.25
			c0,0-26.3-1.25-24,26.25c0,0,13.42,41.07,90.6,67.23c-10.78,13.15-25.3,39.03-41.28,89.96c0,0-65.96,3.37-82.82-25.52
			c0,0-36.72-1.44-36.9,17.82c0,0-2.1,41.41,108.16,48.63c0,0-31.3,94.85-32.74,116.04c0,0-204.15,24.07-212.82,27.93
			c0,0-13.96,36.11,41.89,53.93c0,0,82.82,39.96,236.41-40.44c0,0,137.71-51.52,178.15-48.63c0,0,81.85,18.78,96.3,31.78
			C1225.41,638.37,1274.04,655.7,1267.3,638.37z"/>
	</g>
</g>
</svg>
