<?xml version="1.0" encoding="utf-8"?>
<!-- Generator: Adobe Illustrator 23.1.0, SVG Export Plug-In . SVG Version: 6.00 Build 0)  -->
<svg version="1.1" xmlns="http://www.w3.org/2000/svg" xmlns:xlink="http://www.w3.org/1999/xlink" x="0px" y="0px"
	 viewBox="0 0 1280 659.19" style="enable-background:new 0 0 1280 659.19;" xml:space="preserve">
<style type="text/css">
	.st0{display:none;}
	.st1{display:inline;fill:#B0B0B0;}
	.st2{fill:url(#SVGID_1_);}
	.st3{fill:url(#SVGID_2_);}
	.st4{fill:url(#SVGID_3_);}
	.st5{fill:url(#SVGID_4_);}
	.st6{fill:url(#SVGID_5_);}
	.st7{fill:url(#SVGID_6_);}
	.st8{fill:url(#SVGID_7_);}
	.st9{fill:url(#SVGID_8_);}
	.st10{fill:#040000;}
	.st11{fill:#FFFFFF;}
	.st12{clip-path:url(#SVGID_10_);}
	.st13{fill:none;}
	.st14{fill:#1A1A1A;}
</style>
<g id="BG" class="st0">
	<rect x="-1503.94" y="-1135.2" class="st1" width="5644.36" height="2877.76"/>
</g>
<g id="圖層_1">
	<g>
		<path d="M80.73,614.28c1.03-1.45,2.87-3.16,2.56-3.75c-1.2-2.3-3.18-0.97-4.92-0.28c-0.92,0.37-1.89,0.73-2.86,0.82
			c-0.55,0.05-1.4-0.35-1.63-0.8c-0.21-0.4,0.23-1.15,0.44-1.73c0.07-0.19,0.35-0.3,0.44-0.49c0.66-1.42,1.3-2.85,1.95-4.27
			c-1.6-0.52-3.19-1.04-4.79-1.56c-0.92-0.3-2.18-0.34-2.7-0.98c-2.3-2.83-4.87-4.53-9.2-2.42c0.23-1.69,0.35-2.6,0.48-3.5
			c0.14-0.98,0.7-2.12,0.37-2.9c-2.31-5.46-0.86-11.12-1.05-16.68c-0.06-1.82,0.79-3.66,0.96-5.52c0.12-1.37,0.27-3.06-0.38-4.11
			c-1.78-2.87-1.53-5.16,0.88-7.45c0.6-0.57,1.13-1.51,1.18-2.32c0.46-6.53,0.78-13.07,1.17-19.6c0.15-2.53,0.24-5.07,0.57-7.57
			c0.75-5.81,1.57-11.61,2.48-17.39c0.91-5.81,0.71-12.24,3.29-17.2c2.47-4.75,3.44-8.82,2.92-13.95c-0.24-2.4,1.63-4.96,2.32-7.51
			c1.18-4.35,2.09-8.78,3.28-13.13c1.24-4.57,2.67-9.08,4.02-13.62c0.76-2.55,1.62-5.06,2.31-7.63c1.77-6.6,3.53-13.21,5.17-19.85
			c0.68-2.78,1.04-5.64,1.55-8.46c0.2-1.07,0.45-2.13,0.62-3.21c0.36-2.28,1.12-4.61,0.89-6.83c-0.25-2.49-0.85-4.81,0.96-6.96
			c0.26-0.31,0.39-0.84,0.36-1.26c-0.54-6.92,2.13-13.18,3.89-19.65c0.69-2.53,0.33-5.34,1.04-7.86c1.41-5.01,3.36-9.87,4.86-14.86
			c1.51-5.03,0.71-6.9-3.98-9.5c-3.19-1.77-6.57-3.17-9.79-4.87c-1.04-0.55-1.95-1.45-2.73-2.36c-2.86-3.36-5.59-6.82-8.48-10.15
			c-0.5-0.58-1.53-0.8-2.36-0.97c-4.91-1.01-5.89-2.43-6.48-7.39c-0.41-3.47-1.6-6.85-2.46-10.26c-0.13-0.53-0.51-1.04-0.52-1.56
			c-0.02-3.13-0.27-6.31,0.13-9.39c1.17-9.03,2.72-18.01,3.9-27.03c0.46-3.49,0.41-7.06,0.41-10.6c0-7.69,3.04-13.84,8.84-18.83
			c3.53-3.03,7.41-5.69,7.74-11.34c0.1-1.73,3.41-3.84,5.67-4.75c7.26-2.94,14.69-0.62,22.07-0.05c4.21,0.33,8.44,0.37,12.65,0.75
			c2.52,0.23,5,0.84,7.5,1.32c0.76,0.15,1.58,0.77,2.23,0.61c5.55-1.38,9.19,2.75,13.66,4.48c1.24,0.48,3.15,0.44,4.27-0.2
			c4.73-2.72,9.66-1.18,11.34,3.83c0.91,2.73,3.53,3.69,5.55,1.64c2.86-2.91,5.49-2.33,8.73-0.76c1.55,0.75,3.94,0.85,5.54,0.22
			c3.51-1.4,6.67-2.33,9.96,0.43c0.87,0.73,2.34,1.36,3.38,1.18c4.61-0.83,8.29,2,12.44,2.78c4.2,0.79,8.67,1.65,12.79,1.02
			c4.86-0.75,9,0.22,13.53,1.57c4.76,1.43,9.29,3.25,15.08,2.09c4.74-0.95,11.25-3.03,15.94,2.1c0.43,0.47,1.65,0.79,2.16,0.52
			c3.14-1.68,5.99-0.4,8.84,0.69c1.29,0.49,2.52,1.2,3.67,1.99c3.59,2.46,7.31,4.26,11.85,4.3c3.56,0.03,7.06,0.66,10.02-2.18
			c0.44-0.42,1.85,0.13,2.8,0.26c1.3,0.19,2.63,0.72,3.88,0.56c4.48-0.59,9.65,2.42,11.7,6.55c2.65,5.34,5.69,10.48,8.43,15.77
			c0.62,1.2,0.73,2.67,1.07,4.02c0.54,2.15,0.47,4.8,1.74,6.37c4.56,5.64,4.46,12.2,4.13,18.7c-0.2,4.08-1.59,8.09-2.26,12.16
			c-0.18,1.1,0.01,2.54,0.61,3.43c1.9,2.84,1.46,5.5-0.22,8.11c-1.41,2.18-2.33,4.15-1.83,7.08c0.33,1.95-1.41,4.28-2.31,6.4
			c-1.09,2.54-1.94,5.29-3.54,7.48c-1.13,1.53-3.32,2.31-5.08,3.35c-0.91,0.54-2.51,0.7-2.77,1.4c-2.49,6.86-8.63,7.84-14.49,9.08
			c-2.77,0.59-5.69,0.47-8.54,0.64c-2.59,0.16-4.8-0.45-6.37-2.81c-0.31-0.47-1.5-0.51-2.28-0.49c-1.88,0.06-3.76,0.28-5.65,0.4
			c-0.43,0.03-0.98-0.33-1.29-0.17c-4.36,2.27-8.73-0.17-13.07,0.11c-2.32,0.15-4.69,0.37-6.91,1.02
			c-6.83,1.98-13.6,4.14-20.88,3.27c-0.94-0.11-1.98,0.26-2.92,0.56c-3.54,1.15-7.06,2.37-10.58,3.56
			c-0.31,0.11-0.67,0.27-0.97,0.21c-4.49-0.93-9.13-1.47-13.42-2.99c-3.52-1.25-4.2-1.4-5.61,2.14c-0.32,0.8-1.44,2.04-1.89,1.92
			c-3.92-1.01-8.18,1.82-11.94-1.26c-1.81-1.48-3.32-0.41-4.87,1.13c-1.65,1.64-3.67,3.09-5.79,4.04c-3.14,1.4-4.42,4.18-3.99,7.56
			c0.26,2.08-1.01,4.34-1.48,6.54c-0.37,1.73-0.49,3.5-0.86,5.23c-0.24,1.1-0.67,2.17-1.11,3.22c-0.83,1.99-1.8,3.93-2.56,5.95
			c-0.46,1.23-0.61,2.57-0.93,3.86c-0.29,1.19-1.15,2.52-0.86,3.52c1.99,6.77-2.32,11.54-4.8,17c-0.86,1.89-0.39,4.59,0.03,6.81
			c0.7,3.74,1.15,7.13-1.95,10.23c-0.93,0.94-1.23,3.18-0.87,4.59c0.56,2.21,0.05,3.67-1.58,4.97c-2.16,1.7-2.64,3.72-2.16,6.49
			c0.33,1.94-0.83,4.08-0.91,6.15c-0.2,5.31-0.73,10.4-5.14,14.2c-0.56,0.48-0.54,1.64-0.78,2.49c-0.36,1.28-0.3,3.05-1.14,3.77
			c-4.55,3.94-3.74,9.75-5.39,14.67c-1.68,5.03-2.71,10.28-4.35,15.33c-1.15,3.54-3.1,6.82-4.2,10.37
			c-0.91,2.92-0.81,6.14-1.65,9.08c-1.46,5.08-3.29,10.05-4.99,15.06c-1.1,3.22-2.27,6.42-3.38,9.64
			c-2.94,8.49-5.63,17.08-8.89,25.46c-2.2,5.66-5.16,11.03-7.83,16.5c-1.2,2.46-2.73,4.27-5.98,3.48c-1.8-0.44-2.5,0.57-1.73,2.34
			c1.63,3.79-0.76,7.51-5.02,7.77c-2.58,0.15-5.16,0.22-7.74,0.37c-0.41,0.02-0.85,0.24-1.2,0.48
			C87.34,617.95,85.49,617.93,80.73,614.28"/>
		<path d="M794.07,391.63c-2.12-1.73-3.81-3.17-5.57-4.51c-0.68-0.52-1.53-1.19-2.3-1.19c-4.63,0.05-9.38-0.29-13.86,0.61
			c-4.34,0.87-8.36,1.98-12.52-0.4c-0.73-0.42-2.02-0.34-2.85,0.01c-3.57,1.49-8.35,0.78-11.17-1.8c-0.73-0.67-1.88-1.06-2.3-1.86
			c-0.69-1.32-1.63-3.11-1.23-4.26c1.16-3.29,0.82-5.48-2.55-7.11c-2.55-1.23-3.94-7.01-3.23-9.88c0.43-1.76,0.48-4.06-0.31-5.58
			c-2.35-4.52-0.2-11.11,4.63-12.91c5.08-1.89,7.01-4.06,6.72-9.38c-0.42-7.75-1.53-15.46-2.19-23.2c-0.36-4.2-0.47-8.43-0.56-12.65
			c-0.13-5.89-0.22-11.77-0.17-17.66c0.04-5.09-1.1-7.28-6.22-7.68c-5.89-0.46-8.81-5.08-12.97-7.9c-1.11-0.75-1.66-3.25-1.48-4.83
			c0.7-6.16,1.82-12.26,2.74-18.39c0.27-1.84,0.67-3.72,0.53-5.54c-0.34-4.36,1.26-6.84,5.39-8.41c2.01-0.77,3.73-2.29,5.73-3.08
			c3.48-1.38,7.01-2.88,10.66-3.54c3.85-0.7,7.88-0.44,11.82-0.66c4.2-0.23,8.39-0.52,12.58-0.8c0.55-0.04,1.12-0.25,1.65-0.19
			c10.04,1.07,19.79-1.94,29.72-2.12c4.51-0.08,9.03,0.5,13.55,0.5c4.43,0.01,8.87-0.56,13.29-0.46c4.8,0.11,9.75-0.02,13.91,3.18
			c0.57,0.44,1.4,0.63,2.13,0.75c2.8,0.45,5.26,0.86,4.23,4.9c-0.32,1.24,1.06,2.85,1.44,4.34c0.53,2.1,1.17,4.25,1.16,6.37
			c-0.01,2.22-1.78,4.45,1.44,6.18c0.87,0.47,0.74,3.06,0.83,4.68c0.14,2.59,0.99,5.69-0.1,7.67c-1.37,2.5-4.33,4.18-6.73,6.04
			c-1.03,0.8-2.46,1.05-3.58,1.76c-4.42,2.79-4.47,3.28-2.67,8.19c0.52,1.42,0.58,3.05,0.61,4.59c0.1,5.66,0.1,11.32,0.13,16.99
			c0.01,1.56,0.21,3.15-0.03,4.67c-0.57,3.6,0.1,6.92,0.94,10.46c1.02,4.31,0.99,8.93,0.97,13.41c-0.02,4.01,4.84,8.91,9.28,8.95
			c1.98,0.02,3.96,0.26,5.93,0.5c3.35,0.42,6.43,1.18,6.67,5.49c0.04,0.68,0.72,1.36,1.19,1.97c2.13,2.76,2.48,5.97,0.93,8.82
			c-3.05,5.59-2.38,11.22-1.61,17.13c0.31,2.36-0.41,5.83-2.02,7.27c-4.5,4.02-10.08,6.84-14.54,10.9
			c-3.9,3.56-9.01,3.21-13.27,5.52c-3.6,1.95-8.09,1.56-11.76-0.93c-1.61-1.09-2.76-1.29-4.5-0.36c-3.69,1.96-7.29,4.37-11.94,3.03
			c-0.51-0.15-2.2,1.74-2.36,2.83c-0.3,2.01,0.13,4.13,0.27,6.2c0.02,0.33,0.05,0.83,0.25,0.94c3.9,2.15,2.6,5.91,2.83,9.17
			c0.25,3.43,0.65,6.88,0.54,10.31c-0.25,7.22-0.94,14.43-1.15,21.66c-0.14,4.74,0.45,9.5,0.39,14.24
			c-0.08,6.1-0.89,12.22-0.62,18.3c0.3,6.73,1.39,13.44,2.38,20.12c0.12,0.83,1.7,2.05,2.61,2.05c2.62,0.01,5.24-0.49,7.85-0.82
			c1.52-0.19,3.03-0.49,4.55-0.61c1.21-0.1,2.46,0.17,3.64-0.02c6.64-1.04,13.25-2.27,19.89-3.22c2.61-0.37,5.3-0.36,7.94-0.24
			c3.9,0.18,7.77,4.85,8.82,9.32c0.92,3.92,2.71,7.63,3.94,11.48c0.44,1.4,0.85,3.11,0.44,4.42c-1.26,4.04-4.46,6.59-7.4,9.52
			c-3.52,3.52-7.85,5.31-11.74,7.97c-10.04,6.89-19.69,14.33-29.46,21.61c-3.12,2.32-5.97,5-9.15,7.23
			c-6.74,4.71-13.57,9.3-20.5,13.74c-1.08,0.69-3.01,0.72-4.28,0.29c-4.67-1.58-7.26-0.9-9.97,3.07c-1.19,1.74-2.21,3.64-3.62,5.17
			c-1.23,1.34-2.75,2.75-4.42,3.32c-5.82,1.97-11.76,3.58-17.65,5.33c-0.32,0.09-0.68,0.32-0.96,0.25
			c-6.48-1.55-11.26,3.66-17.18,4.3c-1.42,0.15-2.94,0.57-4.26,0.24c-4.81-1.23-9.55-2.71-14.31-4.13c-0.51-0.15-1.11-0.45-1.4-0.87
			c-2.5-3.71-7-4.59-10.16-7.23c-4.14-3.46-7.73-7.57-11.54-11.42c-0.31-0.31-0.43-0.94-0.76-1.06c-9.11-3.17-7.13-11.22-8.39-18.1
			c-0.91-4.95,1.12-9.16,3.18-12.55c2.8-4.61,5.97-10.59,13.57-9.03c0.93,0.19,2.35-1.09,3.27-1.97c2.93-2.79,6.42-3.46,10.14-2.63
			c1.98,0.44,3.08-0.07,3.57-1.85c0.43-1.58,1-3.3,0.79-4.86c-1.39-10.27-2.67-20.57-4.61-30.74c-1.21-6.36-0.45-12.02,2.87-17.45
			c0.35-0.57,0.88-1.18,0.88-1.77c0.02-5.31,3.59-7.42,7.88-8.88c0.81-0.28,1.76-0.62,2.53-0.44c2.17,0.52,3.77,0.04,5.41-1.55
			c1.77-1.72,3.41-1.58,4.58,1.1c1.42,3.25,3.38,6.1,7,7.49c3.31,1.27,4.97,4.94,3.61,8.24c-1.2,2.9-0.43,4.22,2.39,5.28
			c1.01,0.38,2.2,2.13,2.15,3.21c-0.21,4.94-0.7,9.88-1.34,14.79c-0.34,2.63-1.68,5.19-1.7,7.79c-0.02,2.92,0.85,5.86,1.55,8.74
			c0.1,0.42,1.68,1,2.07,0.74c2.17-1.44,4.19-3.1,6.24-4.71c0.51-0.4,0.92-1.18,1.45-1.27c6.19-1.03,11.54-5.4,18.42-4.08
			c3.26,0.62,6.94-4.41,6.96-7.81c0.07-10.26,0.5-20.52,0.47-30.77c-0.01-4.75-1.09-9.5-1.14-14.25
			c-0.13-12.98,0.02-25.96,0.1-38.95c0.01-0.87,0.04-2.25,0.53-2.52c4.46-2.44,2.69-6.53,2.27-9.79c-0.57-4.43-0.78-8.39,2.81-11.65
			c0.23-0.21,0.33-0.58,0.43-0.89C794.12,391.33,794.07,391.1,794.07,391.63 M825.48,282.45c-0.02,0-0.03,0-0.05,0
			c0-2.45,0.13-4.91-0.02-7.35c-0.4-6.36-4.76-9.04-10.67-6.9c-3.21,1.16-6.52,2.26-9.88,2.72c-5.17,0.71-10.41,0.93-15.63,1.19
			c-7.05,0.35-14.11,0.65-21.17,0.76c-3.34,0.05-5.21,1.63-5.04,5.09c0.1,2,0.67,4,0.57,5.97c-0.89,16.88,2.87,33.15,6.56,49.41
			c0.31,1.35,2.04,3.42,3.06,3.39c4.07-0.1,8.14-0.85,12.19-1.45c1.48-0.22,2.9-0.82,4.38-1.01c1.64-0.21,3.57,0.34,4.94-0.32
			c4.8-2.31,9.9-2.28,14.96-2.36c4.13-0.06,8.57-1.74,12.31,1.06c2.14,1.6,3.65,1,4.04-0.96c0.73-3.62,1.09-7.4,0.99-11.09
			c-0.1-3.41-1.4-6.8-1.48-10.21C825.33,301.09,825.48,291.77,825.48,282.45"/>
		<path d="M349.69,600.63c1.29-7.2,2.53-14.41,3.87-21.6c1.12-6.01,2.84-11.94,3.46-17.99c0.97-9.4,4.11-18.13,7.18-26.91
			c1.71-4.89,3.69-9.69,5.54-14.53c0.2-0.52,0.47-1.04,0.51-1.58c0.87-11.4,5.94-21.82,7.63-33.02c0.4-2.64,0.77-5.29,0.91-7.95
			c0.19-3.65,0.42-7.07,2.11-10.61c1.27-2.66,1.11-6.4,0.54-9.46c-1.48-7.89,0.69-15.41,1.56-23.07c0.22-1.99-0.09-4.14,0.57-5.95
			c1.56-4.26,1.02-8.14,0.14-12.55c-0.87-4.34-0.16-9.29,2.99-13.31c0.76-0.97,1.3-3.01,0.79-3.92c-2.09-3.71-0.7-7.37-0.49-11.08
			c0.1-1.8-0.27-3.63-0.4-5.45c-0.15-2.29-0.85-4.75-0.26-6.84c0.9-3.17,0.28-5.79-0.82-8.7c-1.13-2.98-2.08-6.16-2.32-9.31
			c-0.3-3.89,1.58-7.02,4.97-9.24c1.12-0.73,2.05-1.94,2.71-3.13c0.82-1.5,0.19-2.53-1.6-2.78c-8.04-1.12-12.23-7.13-16.29-13.14
			c-0.91-1.35-0.77-3.42-1.12-5.16c-0.92-4.56-2.42-9.1-2.57-13.68c-0.11-3.58,1.41-7.22,2.34-10.8c0.11-0.41,1.07-0.8,1.66-0.85
			c2.86-0.26,3.44-1.97,3.56-4.55c0.19-4.11,1.84-5.58,6-5.34c3.72,0.22,7.42,0.98,11.13,1.37c0.91,0.1,1.98-0.1,2.79-0.51
			c4.12-2.07,8.15-4.31,12.27-6.37c0.73-0.37,1.86-0.5,2.6-0.21c2.95,1.17,5.6,0.31,8.41-0.62c7.77-2.56,15.43-2.68,22.73,1.73
			c0.67,0.4,1.74,0.55,2.49,0.34c6.42-1.79,12.8-3.72,19.2-5.56c4.02-1.16,8.05-2.3,12.1-3.33c4.32-1.11,8.97-1.45,12.96-3.27
			c6.49-2.97,13.57-2.85,20.2-4.97c9.67-3.08,19.74-4.16,29.92-4.21c8.53-0.05,17.06-0.43,25.58-0.69c0.77-0.02,1.72-0.02,2.26-0.44
			c4.1-3.2,8.09-2.52,12.34-0.21c3.36,1.83,7.47,2.58,10.38,4.89c7.94,6.31,10.89,15.11,10.22,25.03c-0.14,2.16-1.36,4.69-2.89,6.25
			c-5.21,5.28-10.72,10.35-17.55,13.47c-3.81,1.74-7.95,2.75-11.93,4.09c-0.42,0.14-0.93,0.17-1.25,0.43
			c-8,6.76-17.95,8.76-27.65,11.36c-1.27,0.34-2.41,1.22-3.68,1.52c-1.22,0.28-2.83,0.62-3.76,0.07c-3.28-1.95-6.14-1.17-9.09,0.59
			c-2.42,1.45-4.71,3.32-7.92,1.43c-0.83-0.49-2.53,0.23-3.71,0.69c-3.59,1.41-7.01,3.4-10.71,4.35
			c-5.77,1.48-11.71,2.28-17.58,3.35c-0.54,0.1-1.14,0.21-1.65,0.09c-7.59-1.9-14.34,0.85-21.09,3.71c-0.9,0.38-1.91,0.59-2.89,0.69
			c-7.26,0.71-13.94,3.19-20.66,5.94c-4.38,1.8-8.9,3.99-14.06,3.26c-3.28-0.46-4.42,0.99-3.36,4.53c1.25,4.19,1.73,8.06-1.6,11.51
			c-0.85,0.88-1.82,1.63-2.67,2.5c-3.26,3.32-3.58,6.39-1.54,10.57c3.37,6.92,3.45,14.37,2.74,21.79c-0.16,1.64-2.23,3.09-3.4,4.63
			c-1.25,1.64-2.65,3.2-3.68,4.98c-0.86,1.49-1.87,3.28-1.76,4.86c0.38,5.71,1.38,11.38,1.8,17.09c0.24,3.18-0.35,6.42-0.26,9.62
			c0.04,1.43,0.44,3.15,1.32,4.19c1.83,2.18,2.39,4.32,1.64,7.07c-1.14,4.16-1.52,8.59-5.01,11.78c-0.5,0.46-0.84,1.48-0.73,2.14
			c0.78,4.33,1.91,8.6,2.51,12.95c0.51,3.78,0.89,7.67,0.53,11.43c-0.29,3.09-1.06,5.65,0.18,9.1c1.5,4.17,1.15,9.26,0.58,13.82
			c-0.61,4.89-2.44,9.63-3.69,14.44c-0.22,0.84-0.34,1.73-0.32,2.59c0.1,5.54-1.56,10.54-4.51,15.16c-0.29,0.45-0.67,1.13-0.52,1.52
			c1.07,2.85,1.71,6.11,3.58,8.32c1.8,2.14,2.17,3.85,1.47,6.28c-0.96,3.31-1.56,6.73-2.71,9.96c-1.36,3.84-3.19,7.51-4.73,11.28
			c-0.67,1.64-0.9,3.49-1.75,5.01c-1.16,2.07-2.41,4.27-4.16,5.79c-4.28,3.71-7.08,7.7-7.27,13.79c-0.14,4.67-3.67,8.01-7.85,10.05
			c-6.11,2.98-11.77,2.76-17.22-2.12C354.38,614.01,348.68,609.37,349.69,600.63"/>
		<path d="M441.22,188.12c0.01-3.02,2.2-3.66,5.22-4.01c6.05-0.7,7.32-2.34,7.49-8.46c0.18-6.41,0.32-12.83,0.44-19.24
			c0.02-1-0.14-2-0.23-2.99c-0.46-5.5-0.83-11-1.43-16.48c-0.16-1.42-1.09-2.73-1.52-4.14c-0.39-1.29-1-2.73-0.76-3.96
			c1.36-6.85,3.02-13.63,4.41-20.47c0.25-1.23-0.29-2.62-0.44-3.94c-0.23-1.97-0.25-3.75,2.22-4.51c2.31-0.72,3.94,0.34,4.67,2.13
			c1.58,3.9,2.68,7.99,4.09,11.96c0.87,2.46,2.04,4.81,2.88,7.28c0.71,2.08,1.45,4.22,1.64,6.38c0.83,9.84,1.27,19.72,2.26,29.55
			c0.57,5.62,1.69,11.23,3.06,16.71c0.49,1.95,3.26,5.19,3.59,5.03c3.21-1.6,7,1.01,9.2-0.42c3.25-2.11,6.38-2.55,9.92-2.93
			c2.31-0.25,4.46-1.72,6.76-2.36c3.25-0.91,6.54-1.66,9.85-2.3c3.6-0.7,7.23-1.27,10.87-1.73c1.74-0.22,3.54-0.06,5.31-0.07
			c1.69-0.01,3.43,0.22,5.07-0.08c2.62-0.49,4.55-0.43,5.32,2.77c0.37,1.55,1.31,3.12,2.41,4.3c0.89,0.96,2.4,1.35,3.63,2
			c0.37-1.3,1.02-2.59,1.02-3.89c0-1.5-0.58-2.99-0.92-4.49c1.61,0.06,3.29,0.44,4.83,0.13c4.01-0.8,8.02-1.72,11.87-3.04
			c0.75-0.26,1.17-2.53,1.13-3.86c-0.26-7.88-0.73-15.76-1.06-23.64c-0.04-0.97-0.04-2.2,0.48-2.9c3.8-5.13,1.97-10.89,2.03-16.44
			c0.03-2.66-0.16-5.36,0.27-7.96c0.41-2.45,2.05-4.34,4.79-4.29c3.72,0.07,5.63,2.17,6.48,4.98c1.44,4.76,3.46,9.34,5.25,13.99
			c0.78,2.03,1.57,4.06,2.38,6.07c0.36,0.89,0.55,2.19,1.22,2.56c4.77,2.67,5.76,7.24,6.15,12.01c0.64,7.9,0.19,15.73-1.58,23.51
			c-0.44,1.95-0.19,4.21,0.3,6.19c1.14,4.57,1.46,8.94-0.67,13.36c-0.49,1.01-0.42,2.76,0.15,3.74c2.82,4.89,2.85,9.42-0.84,13.86
			c-1.87,2.26-1.94,3.71-0.08,6c2.45,3.01,1.49,6.97-1.86,9c-7.97,4.83-16.12,9.04-25.84,9.07c-2.59,0.01-5.16,1.27-7.75,1.88
			c-7.51,1.75-15.08,3.25-22.52,5.23c-6.33,1.69-12.51,3.97-18.8,5.83c-1.44,0.43-3.09,0.09-4.62,0.3c-1.37,0.19-2.76,0.5-4.03,1.03
			c-2.4,1.01-4.61,2.65-7.08,3.25c-7.15,1.73-14.18,4.17-21.74,3.91c-1.88-0.06-3.79,1.18-5.72,1.72c-4.89,1.38-9.76,2.9-14.73,3.96
			c-2.43,0.51-5.07-0.1-7.58,0.17c-2.72,0.29-5.4,0.95-8.07,1.58c-2.18,0.52-3.88,1.07-4.95-2.02c-0.43-1.24-3.15-2.13-4.92-2.33
			c-1.21-0.13-2.8,0.98-3.81,1.95c-0.99,0.96-1.33,2.58-2.22,3.68c-0.54,0.66-1.61,1.23-2.43,1.21c-0.5-0.01-1.33-1.17-1.4-1.88
			c-0.19-1.94-1-2.45-2.87-2.11c-1.15,0.21-2.42,0.01-3.59-0.22c-1.87-0.36-2.97,0.07-3.32,2.15c-0.16,0.97-0.89,1.84-1.36,2.76
			c-0.84-0.73-1.69-1.45-2.5-2.21c-0.31-0.29-0.52-0.69-0.84-1.12c-2.42,1.46-4.71,2.96-7.1,4.25c-3.27,1.77-6.71,2.22-10.32,0.97
			c-1.02-0.35-2.19-0.55-3.26-0.48c-6.12,0.44-11.84-1.14-17.57-3.03c-1.84-0.61-4.03-0.11-5.9-0.68c-4.88-1.48-9.78-3-14.42-5.07
			c-1.68-0.75-3.1-2.93-3.83-4.78c-1.05-2.65-1.71-5.58-1.91-8.43c-0.57-8.04-0.95-16.11-1.14-24.17
			c-0.12-5.09,0.22-10.19,0.34-15.29c0.01-0.55,0.16-1.15,0-1.65c-4.53-13.41-1.75-26.96-0.85-40.47c0.13-1.88,0.22-3.77,0.09-5.65
			c-0.27-3.88,1.13-6.85,4.25-9.19c1.48-1.11,2.46-2.93,3.99-3.94c1.43-0.94,3.31-1.73,4.96-1.67c2.34,0.08,3.58,1.93,4.02,4.25
			c0.93,4.95,1.82,9.92,2.94,14.83c0.27,1.18,1.23,2.29,2.09,3.24c2.54,2.8,2.73,5.01,1.01,8.29c-0.47,0.89-0.17,2.4,0.2,3.47
			c1.65,4.75,1.15,9.27-0.92,13.78c-0.4,0.87-0.25,2.13-0.02,3.13c0.64,2.81,1.35,5.62,2.26,8.36c0.52,1.58,1.68,4.36,2.2,4.28
			c2.06-0.32,4.6-1.05,5.81-2.56c1.58-1.98,2.58-2.99,5.14-1.78c0.7,0.33,2.38-0.67,3.2-1.47c3.33-3.3,7.02-5.55,11.83-6.11
			c1.86-0.22,3.58-1.66,5.37-2.52c1.74-0.84,3.05-2.04,5.06,0.47c0.99,1.23,4.6,0.76,6.92,0.4c1.94-0.3,3.75-1.53,5.57-2.42
			c1.48-0.73,2.99-1.45,4.33-2.39c1.82-1.29,3.16-1.42,5.37-0.21c3.14,1.73,6.45,4.78,10.64,1.35
			C437.11,187.19,439.35,188.02,441.22,188.12 M554.57,174.19c-0.57,1.05-1.64,2.17-1.58,3.21c0.05,0.82,1.44,1.64,2.36,2.3
			c0.26,0.18,1.02-0.1,1.38-0.4c0.19-0.15,0.1-0.83-0.06-1.18C556.12,176.99,555.48,175.89,554.57,174.19"/>
		<path d="M1038.8,578.12c-0.6-9.84-1.13-19.46-1.84-29.08c-0.08-1.11-0.94-2.66-1.88-3.13c-2.85-1.42-5.82-3.01-8.9-3.45
			c-5.55-0.78-11.09-1.16-16.14-3.95c-0.89-0.49-2.18-0.31-3.28-0.35c-3.34-0.12-6.26-1.03-8.69-3.57c-1.06-1.11-2.7-1.85-4.22-2.33
			c-4.7-1.51-7.5-4.82-9.69-9.06c-1.12-2.18-3.55-3.73-4.49-5.94c-1.85-4.35-5.47-7.56-6.65-12.47c-1-4.15-3.99-7.81-6.01-11.74
			c-0.48-0.94-0.36-2.22-0.91-3.1c-3.83-6.19-1.93-12.45-0.51-18.77c0.53-2.38,0.45-4.89,0.92-7.29c0.27-1.38,1.48-2.6,1.63-3.96
			c1-9.01,4.46-17.45,5.83-26.41c1.15-7.55,3.62-14.91,5.82-22.26c0.4-1.34,2.18-2.67,3.62-3.21c6.09-2.3,12.27-4.34,18.45-6.39
			c4.14-1.38,8.71-1.97,12.42-4.08c5.48-3.12,10.31-0.25,15.37,0.4c5.8,0.75,11.55,1.86,17.29,2.98c2.92,0.57,5.74,1.63,8.66,2.22
			c1.11,0.23,2.35-0.22,3.23-0.32c1.28,0.98,2.37,1.88,3.53,2.68c7.64,5.23,15.29,10.44,22.95,15.65c4.53,3.08,9.15,6.02,13.54,9.28
			c1.01,0.75,1.17,2.59,1.83,3.86c3.11,5.96,6.3,11.87,9.38,17.84c2.05,3.96,3.88,8.04,5.97,11.98c1.23,2.31,2.69,4.53,4.21,6.66
			c2.79,3.9,3.34,7.94,1.98,12.58c-0.72,2.44-0.1,5.24-0.51,7.81c-0.68,4.23-1.34,8.53-2.7,12.57c-1.24,3.68-3.21,7.03-2.46,11.19
			c0.23,1.29-0.51,2.79-0.94,4.15c-3.85,12.25-12.46,19.1-24.84,21.21c-5.34,0.91-9.56,3.98-14.33,5.99
			c-1.07,0.45-2.5,0.1-3.76,0.04c-1.78-0.09-3.79-0.83-5.22-0.2c-0.81,0.36-1,2.92-0.89,4.45c0.49,6.39,1.19,12.77,1.83,19.15
			c0.3,2.96,0.63,5.91,0.95,8.91c5.12,1.45,6.49,4.65,3.5,8.78c-0.61,0.83-2.26,1.79-2.99,1.51c-6.39-2.42-12.83-0.13-19.23-0.47
			c-9.39-0.49-18.8-0.58-28.2-0.73c-2.07-0.03-4.2,0.76-6.22,0.5c-1.34-0.17-3.62-1.62-3.57-2.36c0.12-1.67,1.07-4.27,2.31-4.71
			C1022.53,578.49,1030.35,576.6,1038.8,578.12 M1069.14,440.05c-6.84-1-11.99,2.41-15.02,8.12c-2.51,4.72-3.73,10.18-5.16,15.41
			c-2.38,8.73-0.38,17,3.3,24.99c1.71,3.71,4.38,6.1,8.25,7.84c6.02,2.72,11.26,0.22,16.57-1.52c5.15-1.68,9.32-4.93,13.17-8.99
			c3.71-3.91,4.88-8.34,4.7-13.06c-0.23-6.35-2.08-12.43-5.02-18.2C1085.88,446.65,1080.11,438.59,1069.14,440.05 M984.08,460.75
			c0.44,4.99,1.19,9.79,5.21,13.46c2.5,2.28,4.75,4.83,7.17,7.2c2.75,2.7,5.73,3.91,9.86,2.96c4.1-0.94,7.72-2.3,11.13-4.82
			c5.34-3.95,9.62-8.57,11.86-14.92c3.81-10.8,2.28-21.15-3.08-30.94c-1.28-2.33-3.71-4.6-6.14-5.63
			c-9.43-3.98-17.37,0.94-24.34,6.07C987.11,440.49,984.28,450.22,984.08,460.75 M1061.67,577.91c0.02-0.23,0.11-0.67,0.08-1.1
			c-0.64-9.42-1.25-18.83-2.03-28.24c-0.06-0.71-1.34-1.9-2.01-1.88c-4.07,0.15-8.13,0.66-12.2,0.92c-2.07,0.13-2.63,1.15-2.47,3.04
			c0.74,8.71,1.43,17.42,2.14,26.11C1050.63,577.14,1055.99,577.51,1061.67,577.91"/>
		<path d="M481.05,463.57c4.68-3.15,6.46-6.99,7.98-10.9c1.74-4.45,2.49-9.41,4.86-13.45c5.36-9.12,8.27-19.14,12.03-28.86
			c0.63-1.63,1.65-3.12,2.57-4.62c2.25-3.68,4.63-7.28,6.82-11c3.01-5.11,8.69-6.81,13.01-3.77c2.79,1.97,4.91,7.31,4.05,10.69
			c-2.97,11.61-5.71,23.26-10.99,34.18c-3.09,6.38-5.06,13.29-7.72,19.89c-1.49,3.7-3.63,7.15-5,10.89
			c-1.4,3.83-2.23,7.88-3.3,11.84c-0.67,2.48,0.24,4.02,2.65,4.92c6.44,2.39,12.88,4.81,19.26,7.36c2.57,1.02,5.05,2.29,7.48,3.62
			c8.66,4.75,17.39,9.39,25.86,14.45c5.7,3.4,11.01,7.44,16.51,11.19c0.92,0.62,1.8,1.34,2.79,1.8c6.51,2.98,11.44,7.96,16.47,12.83
			c1.43,1.38,2.91,2.79,4.59,3.84c3.19,2,5.88,4.2,7.05,8.07c0.46,1.53,2.05,2.84,3.37,3.97c5.45,4.68,7.69,10.32,5.63,17.4
			c-0.19,0.64-0.39,1.32-0.34,1.96c0.26,3.59-2.06,4.62-4.95,4.99c-5.19,0.66-6.42,1.98-6.46,7.2c-0.01,0.89,0.1,1.78,0.08,2.67
			c-0.14,5.09-2.93,7.39-7.92,6.53c-4.46-0.77-8.91-1.55-13.36-2.34c-0.65-0.12-1.41-0.19-1.91-0.56
			c-7.34-5.42-16.82-6.64-24.15-11.67c-13.01-8.93-26.09-17.92-36.38-30.26c-2.25-2.7-5.83-4.25-8.7-6.47
			c-1.78-1.38-3.44-2.94-5.02-4.55c-1.06-1.09-1.76-2.54-2.84-3.6c-3.07-3.02-6.32-5.86-9.36-8.9c-2.62-2.62-3.8-2.72-5.37,0.67
			c-2.59,5.62-4.65,11.49-7.16,17.14c-2.29,5.15-5.2,10.03-7.26,15.26c-1.84,4.68-2.67,9.76-4.35,14.52
			c-2.25,6.35-4.7,12.64-7.42,18.79c-1.89,4.27-5.57,6.52-10.26,6.94c-0.99,0.09-2.12-0.32-2.99,0.01
			c-10.09,3.91-12.98-4.66-17.54-10.17c-0.71-0.86-0.7-2.56-0.58-3.82c1.07-11.33,4.9-21.83,9.55-32.12
			c1.91-4.23,2.9-8.88,4.89-13.07c2.98-6.27,6.41-12.32,9.79-18.39c1.14-2.05,3.16-3.7,4-5.84c2.38-6.1,4.05-12.49,6.61-18.5
			c1.63-3.83,4.67-7.03,6.54-10.78c1.95-3.92,3.35-8.13,4.76-12.28c0.56-1.63-0.44-2.54-2.22-2.23c-0.99,0.17-1.96,0.4-2.94,0.62
			c-4.01,0.9-7.3,0.05-10.2-3.17c-7.72-8.54-12.73-18.71-17.87-28.82c-2.86-5.64-5.89-11.2-8.54-16.94
			c-2.23-4.83-4.03-9.87-5.98-14.83c-0.69-1.75-1.14-3.59-1.89-5.31c-3.8-8.73,2.43-16.42,9.91-18.05c1.88-0.41,4.26,1.18,6.33,2.04
			c2.01,0.84,3.93,1.89,5.85,2.91c0.95,0.5,2.29,0.93,2.66,1.75c1.56,3.52,2.76,7.21,4.24,10.77c0.59,1.42,1.54,2.71,2.44,3.97
			c0.44,0.61,1.51,0.92,1.69,1.54c1.72,5.94,6.83,10.68,6.24,17.4c-0.33,3.73,0.42,6.79,3.95,8.81c0.87,0.5,1.68,1.63,1.93,2.62
			c1.74,6.75,3.38,13.53,4.95,20.33C480.11,457.4,480.46,460.16,481.05,463.57"/>
		<path d="M1242.83,493.04c1.24,2.48-0.32,4.94-3.35,5.99c-2.43,0.84-5.23,0.64-8.03,0.91c1.09,2.28-0.7,2.69-2.59,3.41
			c-3.43,1.32-6.66,2.95-10.53,1.29c-0.83-0.36-2.36,0.42-3.35,1.02c-4.76,2.92-7.83,2.73-12.06-0.65c-2.41-1.93-5.06-3.54-7.52-5.4
			c-8.46-6.41-17-12.7-25.26-19.36c-4.73-3.81-9.54-7.79-13.21-12.55c-2.46-3.19-4.83-6.18-8.11-8.47c-0.54-0.37-1.07-0.9-1.67-1.01
			c-4.99-0.87-6.65-4.68-7.68-8.85c-0.68-2.75-2.55-3.55-4.93-4.23c-1.94-0.56-4.09-1.26-5.53-2.58
			c-5.01-4.55-10.15-9.07-14.47-14.24c-2.76-3.3-4.11-7.75-6.21-11.62c-0.77-1.42-1.96-2.62-2.8-4.01c-0.94-1.57-2.1-3.17-2.45-4.9
			c-0.75-3.68-1.4-4.14-5.05-3.6c-1.18,0.18-2.85-0.64-3.79-1.53c-3.85-3.65-7.31-7.73-11.27-11.25
			c-6.16-5.47-11.16-11.89-16.01-18.46c-1.65-2.23-3.3-4.48-4.7-6.87c-1.68-2.87-1.59-5.83-0.24-8.95c1.13-2.61,2.11-5.41,2.44-8.2
			c0.55-4.65,7.43-8.97,11.71-10.3c1.43-0.45,2.94-0.94,4.15-1.79c2.73-1.92,5.67-2.19,8.54-0.93c6.58,2.91,13.21,5.76,19.49,9.22
			c7.16,3.95,14.37,8.02,20.78,13.03c4.52,3.53,10.19,5.11,14.13,9.35c1.8,1.94,3.71,3.78,5.57,5.65c1.79,1.79,3.52,3.65,5.43,5.3
			c0.56,0.48,1.68,0.6,2.49,0.47c4.51-0.68,10.26,2.49,12.26,6.85c0.36,0.78,0.67,1.96,1.28,2.18c2.66,0.97,3.47,2.38,2.08,5.02
			c-0.28,0.53,0.37,1.56,0.6,2.35c0.58-0.19,1.24-0.26,1.72-0.59c2.5-1.75,5.52-1.59,7.71,0.72c2.06,2.17,3.89,4.55,5.9,6.77
			c0.64,0.71,1.55,1.18,2.28,1.82c1.6,1.41,3.14,2.9,4.74,4.3c2.32,2.04,5,3.76,6.94,6.11c4.13,5.01,12.33,6.62,12.55,15
			c0.03,0.97,1.43,2.03,2.39,2.8c1.02,0.82,2.92,1.08,3.32,2.04c2.21,5.29,7.51,7.01,11.38,10.33c7.89,6.76,13.78,14.72,17.74,24.47
			c2.83,6.96,0.68,13.21-0.78,19.6C1248.46,490.33,1245.38,491.29,1242.83,493.04 M1148.74,453.31c0.36-3.35,0.71-6.07,0.91-8.81
			c0.06-0.88-0.28-1.79-0.44-2.69c-0.84,0.37-1.87,0.55-2.5,1.14C1144.79,444.78,1145.63,449.73,1148.74,453.31"/>
		<path d="M1138.51,208.5c-1.37,1.5-2.28,3.44-3.55,3.72c-4.35,0.96-5.79,4.7-6.42,7.8c-1.12,5.53-5.39,8.82-7.74,13.39
			c-1.31,2.55-3.53,4.64-4.76,7.21c-1.89,3.94-4.94,5.2-9,5.74c-2.95,0.4-5.81,1.76-8.6,2.94c-2.78,1.17-2.71,3.16-1.55,5.74
			c2.54,5.67,0.99,12.94-3.31,16.35c-0.79,0.63-2.26,1.39-2.88,1.06c-2.73-1.43-3.39,0.13-3.79,2.25c-0.91,4.8-2.94,8.59-8.23,9.69
			c-0.47,0.1-1.1,0.63-1.22,1.07c-1.01,3.91-4.51,5.1-7.29,7.22c-1.76,1.34-2.59,3.91-3.82,5.93c-1.88,3.09-3.41,6.49-5.73,9.2
			c-3.04,3.56-6.02,7.08-10.79,9.1c-2.95,1.25-6.38,3.65-7.46,7.78c-0.53,2.05-2.1,3.88-3.41,5.65c-2.86,3.89-7.14,6.7-8.55,11.73
			c-0.31,1.12-1.88,1.83-2.7,2.87c-1.57,1.96-3.17,3.93-4.47,6.07c-1.57,2.56-2.43,5.4-3.31,8.32c-0.91,3.05-3.59,5.78-6.01,8.14
			c-3.77,3.68-7.94,6.95-11.98,10.34c-3.02,2.53-5.41,6.01-9.73,6.66c-2.91,5.42-10.01,6.25-12.83,12.19
			c-1.39,2.93-5.21,4.69-7.89,7.03c-0.74,0.64-1.88,1.48-1.86,2.22c0.09,4.87-3.75,7.05-6.48,10.01c-1.21,1.31-2.44,2.6-3.54,4
			c-2.59,3.31-5.37,3.88-9.2,2.23c-0.92-0.4-2.71-0.03-3.47,0.67c-3.53,3.26-7.59,2.06-11.55,1.71c-0.74-0.07-1.4-0.72-2.15-0.87
			c-4.96-1.02-8.11-3.34-7.17-9.08c0.11-0.69-0.75-2.1-1.39-2.26c-2.35-0.56-4.83-0.58-7.19-1.12c-1.58-0.36-3.94-0.9-4.39-2
			c-1.55-3.74-5.12-4.71-7.8-6.9c-2.14-1.76-3.9-4.07-5.48-6.38c-0.47-0.68-0.13-2.63,0.54-3.23c1.98-1.81,1.71-3.71,0.9-5.78
			c-1.98-5.06-1.23-9.33,3.36-12.66c2.5-1.82,4.94-3.72,7.36-5.65c0.76-0.61,1.57-1.32,1.98-2.17c2.43-5.08,6.67-7.72,11.9-9.14
			c0.66-0.18,1.56-0.78,1.7-1.34c0.94-3.77,4.03-4.28,7.01-4.44c2.43-0.13,3.59-1.09,4.3-3.28c0.95-2.93,3.3-3.87,6.21-4.15
			c5.67-0.56,11.12-1.66,15.17-6.36c1.34-1.55,3.44-2.42,5.03-3.79c5.14-4.41,10.21-8.91,15.31-13.36c0.5-0.43,1.04-0.88,1.64-1.11
			c3.24-1.2,6.77-1.89,9.68-3.63c2.31-1.39,3.83-4.07,5.79-6.1c1.49-1.55,2.91-3.88,4.72-4.3c5.16-1.2,8.13-4.34,10.76-8.66
			c1.99-3.27,4.85-6.09,7.66-8.75c4.14-3.92,8.48-7.65,12.94-11.2c2.23-1.78,5.16-2.68,7.34-4.5c6.03-5.03,11.8-10.36,17.73-15.51
			c5.23-4.55,10.49-9.07,15.85-13.46c1.15-0.94,2.74-1.51,4.22-1.82c4.96-1.03,7.47-4.37,9.79-8.62c2.5-4.58,6.21-8.23,12.04-8.82
			c1.4-0.14,3.2-1.18,3.91-2.35c1.4-2.29,2.88-3.76,5.71-3.86c0.92-0.03,1.87-1,2.69-1.69c5.47-4.63,10.81-9.43,16.45-13.86
			c1.06-0.83,3.86-0.89,4.81-0.07C1136.07,203.74,1137.02,206.14,1138.51,208.5 M1085.78,243.89c-0.36,0.01-0.72,0.02-1.09,0.03
			c-0.17,1.32-0.59,2.68-0.37,3.93c0.07,0.39,1.86,0.48,3.65,0.89C1086.96,246.51,1086.37,245.2,1085.78,243.89"/>
		<path d="M271.49,562.16c-0.39,0.68-0.7,1.29-1.07,1.84c-2.56,3.81-3.75,4.47-8.21,3c-6.03-1.99-12.02-0.76-18.04-0.41
			c-0.67,0.04-1.34,0.18-1.99,0.12c-9.06-0.91-18.14-1.65-27.16-2.86c-6.58-0.88-13.12-2.18-19.59-3.69
			c-5.13-1.19-7.35-7.06-5.25-11.87c2.13-4.86,5.31-8.68,9.8-11.37c2.09-1.25,2.7-3.01,2.93-5.22c0.81-8.01-1.15-15.62-2.76-23.38
			c-1.85-8.91-2.36-18.03-0.59-27.11c0.32-1.63,0.62-3.29,0.65-4.95c0.02-0.77-0.39-1.82-0.98-2.29c-3.04-2.44-6.57-4.37-9.22-7.15
			c-6.44-6.74-7.85-15.85,1.04-20.71c8.63-4.71,17.26-9.67,26.43-13.03c6.18-2.26,13.31-1.94,20.02-2.77
			c1.31-0.16,2.82,0.06,3.89-0.52c2.82-1.53,5.61-1.91,8.68-1.01c0.77,0.23,1.95,0.2,2.52-0.24c4.15-3.27,8.93-2.18,13.51-2.01
			c3.25,0.13,6.18-0.47,9.34-1.24c4.39-1.06,9.21-0.51,13.83-0.3c2.29,0.1,4.53,1.08,6.83,1.49c2.59,0.46,4.37,1.78,5.81,4
			c0.79,1.21,2.28,2.05,3.62,2.78c3.49,1.91,7.14,3.52,10.57,5.53c2.71,1.58,4.12,4.16,4.76,7.31c1.26,6.23-1.36,12.2-6.26,16
			c-4.4,3.41-9.2,5.24-14.57,5.97c-2.01,0.28-2.67,1.07-1.96,3.17c0.34,1,0.17,2.48-0.35,3.43c-1.84,3.41-0.97,6.67,0.05,10.01
			c0.67,2.2,1.15,4.47,1.79,6.68c0.98,3.36,2.14,6.67,3.01,10.06c0.52,2.01,0.95,4.15,0.85,6.2c-0.27,5.38,0.71,10.13,4.99,13.89
			c0.97,0.86,1.94,2.66,1.71,3.78c-0.99,4.7,2.37,6.8,5.27,8.63c4.73,2.99,6.32,7.62,7.54,12.45c0.29,1.15-0.92,3.36-2.06,4.08
			c-6.55,4.11-13.12,8.29-20.05,11.68c-4.08,2-8.83,2.7-13.33,3.77c-0.94,0.22-2.09-0.63-3.17-0.74c-1.25-0.13-2.71-0.4-3.76,0.09
			c-4.74,2.21-4.7,2.29-7.52-1.92C272.88,563.08,272.54,562.94,271.49,562.16 M219.89,491.02c0.65,3.42-0.13,6.28-2.34,8.83
			c-0.59,0.68-0.77,1.77-1.01,2.71c-0.53,2.13-0.99,4.28-1.46,6.42c-0.36,1.61-1.08,3.26-0.97,4.84
			c0.58,8.53,5.63,14.66,11.46,20.25c0.67,0.64,2.1,0.74,3.15,0.68c1.88-0.11,3.75-0.47,5.6-0.85c10.09-2.05,20.13-4.1,30.53-4.42
			c5.19-0.16,10.38-2.08,15.43-3.66c1.31-0.41,2.99-2.52,2.95-3.81c-0.1-3.78,0.05-7.92-4.04-10.32c-0.77-0.45-1.59-1.52-1.66-2.37
			c-0.37-4.51-0.15-9.17,2.98-12.62c2.39-2.63,3.42-5.28,3.36-8.68c-0.04-2.33,0.4-4.67,0.32-6.99c-0.09-2.72,0.08-5.69-0.93-8.1
			c-1.89-4.51-6.36-5.26-10.67-5.41c-4.88-0.17-9.79-0.2-14.66,0.15c-10.87,0.8-21.72,1.77-32.56,2.92
			c-2.58,0.27-5.24,1.18-7.54,2.4c-3.4,1.8-4.14,7.79-1.21,10.06C219.45,485.24,220.51,487.77,219.89,491.02"/>
		<path d="M876.56,257.76c1.74-0.56,3.32-1.08,4.91-1.59c-1.49-1.2-2.98-2.4-5.08-4.09c0.62-1.24,1.26-3.44,2.62-5.03
			c1.94-2.27,4.37-4.14,6.66-6.11c1.46-1.25,2.55-2.27,0.17-3.79c-0.78-0.5-1.75-2.15-1.49-2.58c0.71-1.19,2.21-2.98,3.09-2.82
			c3.63,0.66,4.48-1.04,4.63-4.09c0.05-0.92,0.93-1.77,1.2-2.71c0.47-1.68,1.23-3.45,1.05-5.1c-0.52-4.93,2.2-9.53,7-11.57
			c0.93-0.39,1.48-1.71,2.17-2.63c1.27-1.7,2.51-3.42,3.76-5.13c0.89-1.22,2.21-2.35,2.56-3.71c1.29-4.93,4.21-8.44,8.37-11.19
			c2.84-1.87,5.26-4.13,5.24-8c0-0.83,0.39-1.8,0.91-2.46c2.07-2.65,4.35-5.13,6.36-7.82c0.75-1.01,0.8-2.49,1.41-3.64
			c0.99-1.87,1.95-3.81,3.32-5.39c1.43-1.64,3.5-2.72,4.98-4.33c6.9-7.49,12.21-16.14,17.57-24.71c4.61-7.38,11.75-9.29,19.01-4.57
			c2.97,1.93,5.95,3.83,8.86,5.84c3.9,2.69,4.21,5.19,3.57,9.76c-0.97,6.85-0.89,13.85-1.59,20.74c-0.47,4.56-1.49,9.07-2.36,13.58
			c-0.21,1.07-0.86,2.05-1.16,3.11c-2.36,8.44-4.69,16.89-7.03,25.34c-0.09,0.32-0.16,0.76-0.39,0.9
			c-4.15,2.58-3.18,6.96-3.87,10.77c-0.5,2.78-1.38,5.13-4.19,6.77c-2.57,1.51-3.55,4.13-3.02,7.51c0.41,2.6,0.09,5.59-0.83,8.06
			c-1.81,4.87-4.17,9.54-6.45,14.22c-2.99,6.13-5.75,12.42-9.36,18.18c-1.9,3.03-5.4,5.06-8.18,7.55c-1.14,1.02-2.88,1.82-3.32,3.08
			c-2.41,6.96-7.92,11.4-13.01,16.04c-1.49,1.35-4.73,1.15-7.12,1.01c-1.66-0.1-3.34-1.18-4.86-2.07
			c-5.94-3.44-12.47-4.06-19.13-4.78c-6.68-0.72-12.17-3.99-15.15-10.48c-0.42-0.9-1.21-1.71-1.38-2.64
			c-0.27-1.47-0.67-3.24-0.12-4.49c1.03-2.34,1.32-4.32,0.02-6.64c-0.59-1.05-0.59-2.51-0.61-3.79
			C876.28,260.64,876.49,259,876.56,257.76"/>
		<path d="M1021.2,209.1c-0.58,1.58-0.66,2.72-1.24,3.11c-0.92,0.63-2.54,1.41-3.24,1.01c-3.55-2-6.91-4.33-10.31-6.59
			c-2.61-1.73-5.93-3.01-7.59-5.42c-2.25-3.27-5.14-6.74-3.69-11.55c0.92-3.04,1.09-6.31,1.68-9.46c0.18-0.95,0.42-2,0.98-2.75
			c2.82-3.8,5.76-7.48,10.49-9.11c2.11-0.73,3.04-2.23,3.33-4.51c0.16-1.21,1.29-2.36,2.16-3.4c1.28-1.52,2.92-2.78,4.04-4.4
			c1.42-2.07,1.94-5.12,3.79-6.44c3.2-2.29,7.01-3.94,10.78-5.19c3.72-1.23,7.75-1.49,11.58-2.46c1.84-0.46,3.24-0.77,4.85,0.73
			c2.46,2.29,4.39,1.79,4.96-1.42c0.62-3.45,2.55-4.39,5.62-4.17c1.89,0.14,3.85-0.03,5.64,0.45c3.97,1.05,7.55,0.39,11.35-1.01
			c1.97-0.72,4.59-0.18,6.76,0.37c1.13,0.29,2.59,1.79,2.7,2.87c0.11,1-1.15,2.6-2.21,3.18c-2.85,1.54-3.68,3.77-2.88,6.65
			c0.19,0.69,1.84,1.69,1.94,1.6c1.78-1.64,3.38-0.34,5.14-0.09c1.12,0.15,2.83-0.82,3.58-1.82c2.05-2.71,3.37-6.04,7.38-6.57
			c2.1-0.28,3.43,0.39,4.81,2.08c2.9,3.55,5.88,7.15,9.39,10.07c3.83,3.19,5.13,7.06,5.08,11.69c-0.05,4.54,0.2,9.14-0.41,13.61
			c-0.99,7.19-3.24,13.64-8.64,19.33c-3.93,4.14-8.48,3.62-12.78,5.15c-2.41,0.86-4.94,1.99-6.81,3.68
			c-4.15,3.75-8.62,6.53-14.27,7.22c-2.6,0.32-4.06-0.14-3.68-3.31c0.41-3.44-0.16-3.55-3.72-3.02c-2.11,0.32-4.36-0.37-6.54-0.37
			c-1.32,0-3.13-0.02-3.87,0.77c-3.93,4.16-8.31,3.69-13.19,2.24c-3.58-1.06-7.37-1.38-11.07-2.02c-0.11-0.02-0.25-0.03-0.33,0.02
			C1028.87,212.22,1024.99,212.91,1021.2,209.1"/>
		<path d="M908.08,443.22c0.74-0.51,1.23-0.97,1.81-1.21c1.49-0.61,3.03-1.13,4.55-1.68c0.26,1.68,0.88,3.39,0.69,5.02
			c-0.23,1.97-1.21,3.8,1,5.33c0.42,0.29,0.52,1.54,0.31,2.19c-1.37,4.29-2.82,8.55-4.35,12.78c-0.64,1.76-1.59,3.41-2.34,5.14
			c-2.06,4.77-4.97,6.6-10.11,6.57c-4.08-0.02-8.17,0.15-12.25,0.24c-0.78,0.02-1.61,0.25-2.32,0.03
			c-10.01-3.04-20.35-2.86-30.65-3.41c-6.2-0.33-12.58-2.74-16.11-7.54c-4.62-6.28-12.73-11.69-10.34-21.15
			c1.29-5.12,1.23-10.29,2.24-15.36c0.48-2.43,1.82-4.11,4.3-5.07c1.07-0.41,2.1-1.73,2.52-2.87c2.15-5.86,6.15-10.07,11.66-12.64
			c1.95-0.91,4.56-0.81,6.81-0.59c9.52,0.96,19.05,1.88,28.5,3.35c4.07,0.63,7.74,3.08,12.2,2.73c2.44-0.19,11.18,7.97,11.75,10.44
			c0.24,1.04,0.41,2.36-0.02,3.24C905.62,433.48,905.81,438.12,908.08,443.22"/>
		<path d="M587.25,399.01c0.48,7.4-1.51,14.31-4.12,21.11c-1.39,3.63-2.86,7.23-4.16,10.89c-2.68,7.57-8.16,13.38-12.45,19.94
			c-3.34,5.11-14.67,4.1-18.85,0.13c-0.39-0.37-0.79-0.92-0.83-1.41c-0.35-4.31-0.71-8.61-0.84-12.93c-0.03-1,0.53-2.39,1.3-2.97
			c3.08-2.31,2.61-5.3,2.65-8.61c0.04-4.12,0.7-8.4,1.98-12.31c2.53-7.7,5.84-15.13,8.5-22.78c1.78-5.12,2.81-10.51,4.58-15.64
			c0.96-2.79,2.52-5.46,4.24-7.89c3.26-4.58,8.4-3.97,11.12,0.97c1.1,1.99,2.66,3.73,3.93,5.64c0.6,0.9,1.35,1.9,1.42,2.9
			C586.32,383.7,586.76,391.36,587.25,399.01"/>
		<path d="M130.63,62.98c-0.87,2.7-1.53,5.5-2.73,8.05c-0.35,0.75-2.34,1.28-3.34,1.01c-0.87-0.24-1.8-1.65-2.01-2.69
			c-0.34-1.71-0.37-3.58-0.09-5.31c1.4-8.89,1.96-17.8,1.1-26.78c-0.07-0.75,0.17-1.54,0.28-2.31c0.56-3.97,0.11-4.32-3.82-4.36
			c-1.15-0.01-2.98-0.85-3.29-1.73c-0.59-1.66,0.71-2.58,2.28-3.7c5.59-3.98,12.37-2.62,18.4-4.59c2.11-0.69,5.11,1.4,7.72,2.16
			c6.96,2.03,9,7.98,9.48,13.89c0.45,5.58-1.62,10.96-7.38,13.87c-3.25,1.64-3.43,3.63-1.12,6.32c2.22,2.59,4.34,5.3,6.3,8.09
			c1.63,2.33,0.4,4.78-1.45,5.79c-2.13,1.17-4.93,1.57-7.38,1.42c-0.86-0.05-2.02-2.66-2.26-4.22c-0.57-3.73-0.75-7.52-0.92-11.3
			c-0.1-2.19-1.29-3.05-3.2-2.91c-1.87,0.13-3.84,0.3-5.51,1.02c-0.95,0.41-1.76,1.89-2,3.02c-0.34,1.59-0.08,3.31-0.08,4.98
			C129.92,62.79,130.28,62.88,130.63,62.98 M130.83,46.65c1.87-0.47,3.82-1.63,4.98-1.09c2.02,0.93,2.95,0.42,4.19-0.97
			c0.7-0.78,1.76-1.26,2.72-1.78c5.43-2.94,5.4-8.43,0.67-12.31c-3.93-3.22-7.91-1.71-11.69-1.2c-3.62,0.48-4.04,2.51-2.6,6.09
			c0.35,0.87,0.79,2.15,0.41,2.79C127.44,41.69,129.77,44.23,130.83,46.65"/>
		<path d="M139.61,137.28c-8.88,0.21-14.96-4.36-16.92-12.5c-1.06-4.4-2.08-8.83-2.68-13.3c-0.28-2.07,0.48-4.28,0.81-6.42
			c0.07-0.43,0.47-0.85,0.42-1.25c-0.7-6.77,4.8-10.39,7.85-15.19c2.03-3.2,12.42-3.48,15.49-0.79c4.7,4.1,9.17,8.3,10.74,14.78
			c2.42,9.95,2.04,19.27-4.98,27.46c-1.22,1.42-2.21,3.06-3.51,4.4C144.74,136.63,142.29,138.1,139.61,137.28 M137.77,96.91
			c-4.47-0.24-6.45,0.72-8.01,4.82c-1.45,3.81-3.16,7.81-3.27,11.77c-0.1,3.92,0.94,8.28,2.8,11.73c1.89,3.51,9.97,3.84,13.44,1.32
			c1.46-1.07,3.24-2.15,3.98-3.67c1.2-2.45,1.73-5.25,2.43-7.93C151.47,106.1,145.94,97.36,137.77,96.91"/>
		<path d="M181.44,20.25c2.41,1.3,5.26,2.14,7.14,3.99c3.52,3.46,6.94,7.22,9.49,11.41c1.33,2.19,0.95,5.55,0.96,8.38
			c0.01,6.89,0.56,13.83-3.41,20.16c-2.61,4.16-5.32,7.34-10.84,7.18c-3.69-0.11-7.47,1.48-10.87-1.23
			c-5.49-4.37-9.36-9.71-10.41-16.83c-1.13-7.66-0.66-15.27,3.05-22.03c2.98-5.43,6.8-10.79,14.41-10.14
			C181.12,20.83,181.28,20.54,181.44,20.25 M192.63,42.89c-0.16-4.93-3.29-7.76-7.24-10.26c-4.59-2.91-10.27-1.91-12.83,2.93
			c-3.65,6.9-4.38,14.18-1.87,21.62c2.06,6.1,10.25,8,15.08,3.73C191.23,56.09,192.98,49.93,192.63,42.89"/>
		<path d="M250.18,59.17c0.55-8.68,0.97-15.77,1.47-22.85c0.13-1.86-0.31-2.99-2.14-3.97c-1.18-0.63-2.05-2.38-2.43-3.8
			c-0.45-1.65,0.35-3,2.35-3.3c0.45-0.07,1.05-0.57,1.19-1c1.26-3.97,4.2-3.18,7.11-2.64c2.02,0.37,4.17,0.34,6.08,1.02
			c7.54,2.69,12.84,7.69,15.03,15.6c0.57,2.03,1.22,4.05,1.69,6.1c0.22,0.94,0.39,2.07,0.07,2.92c-1.41,3.72-2.48,7.73-4.68,10.95
			c-2.26,3.31-5.48,6.1-8.68,8.61c-2.8,2.2-6.01,4.02-9.29,5.4c-3.49,1.48-5.74,0.04-6.46-3.74
			C250.82,64.89,250.47,61.26,250.18,59.17 M271.83,47.62c1.26-11.14-5.65-17.61-12.37-18.25c-2.38-0.23-2.93,0.62-2.85,2.73
			c0.21,5.54,0.28,11.09,0.47,16.64c0.12,3.53,0.22,7.08,0.58,10.59c0.24,2.32,1.54,3.5,3.91,2.05
			C267.91,57.49,270.79,51.41,271.83,47.62"/>
		<path d="M236.53,69.19c-1.19-2.31-2.82-4.5-3.46-6.94c-0.78-3.02-2.24-3.55-4.72-2.39c-3.39,1.58-6.7,0.92-10.08,0.03
			c-3.85-1-4.37-0.5-5.78,3.23c-0.73,1.94-2.09,3.64-3.17,5.45c-0.31-0.11-0.61-0.23-0.92-0.34c0-1.81-0.4-3.74,0.07-5.42
			c2.29-8.18,4.77-16.32,7.29-24.43c1.54-4.94,3.22-9.85,4.99-14.71c0.38-1.04,1.44-2.58,2.17-2.57c1.02,0.02,2.56,1.05,2.95,2.03
			c2.14,5.35,4.4,10.7,5.85,16.25c2.34,8.99,4.1,18.13,6.06,27.21c0.14,0.67-0.04,1.41-0.08,2.11
			C237.31,68.86,236.92,69.02,236.53,69.19 M228.81,46.29c-0.96-2.93-1.87-6.22-3.12-9.38c-0.8-2.02-2.34-1.61-3.21-0.03
			c-1.32,2.4-2.41,4.94-3.43,7.49c-0.53,1.31-1.42,3.25-0.88,4.03c0.77,1.12,2.89,2.22,4.09,1.93
			C224.55,49.77,227.81,50.19,228.81,46.29"/>
		<path d="M166.12,151.03c3.7,2.51,3.93,5.66,4.04,8.75c0.17,4.89-0.08,9.8,0.27,14.67c0.28,3.91-0.96,8.5,2.18,11.48
			c2.21,2.1,5.54,3.58,8.57,4.05c1.67,0.26,3.92-1.93,5.63-3.35c4.55-3.76,4.79-9.04,4.94-14.43c0.16-5.63,0.59-11.26,1.13-16.87
			c0.11-1.18,1.25-2.25,1.91-3.37c1,0.88,2.69,1.62,2.89,2.66c0.93,4.72,2.26,9.36,0.95,14.39c-0.94,3.59-0.69,7.49-0.96,11.26
			c-0.41,5.69-3.14,10.09-7.68,13.35c-1.09,0.78-2.62,0.95-3.96,1.36c-0.6,0.19-1.33,0.14-1.84,0.46c-4.56,2.82-7.9,2.24-11.26-2.04
			c-0.34-0.43-0.61-1.04-1.06-1.25c-5.22-2.4-6.58-7.08-6.75-12.13c-0.29-8.42-0.24-16.85-0.22-25.27
			C164.91,153.65,165.59,152.57,166.12,151.03"/>
		<path d="M128.98,149.22c3.74,1.6,4.56,3.86,4.41,7.03c-0.43,8.88-0.63,17.78-0.84,26.67c-0.12,5.02,1.9,5.65,6.65,4.63
			c5.53-1.19,11.41-1.25,17.08-0.88c1.73,0.11,3.43,3.18,4.68,5.19c0.19,0.3-2.01,2.78-3.43,3.23c-2.69,0.86-5.62,1.39-8.44,1.34
			c-6.75-0.12-13.52-0.47-20.24-1.1c-4.11-0.38-4.29-1.42-3.03-5.27c0.97-2.97,1.67-6.16,1.77-9.27c0.27-9.12,0.13-18.25,0.27-27.37
			C127.87,152.08,128.55,150.76,128.98,149.22"/>
		<path d="M167.48,120.06c0.33-8.12,0.65-16.23,1.01-24.35c0.09-2.14-0.45-3.71-2.41-5.06c-2.98-2.05-2.31-5.06,0.93-6.66
			c5.4-2.67,11.15-1.1,16.71-1.59c3.28-0.29,6.64,0.33,9.95,0.62c0.87,0.08,1.99,0.17,2.53,0.71c1.25,1.28,2.22,2.83,3.31,4.28
			c-1.45,1.03-2.84,2.85-4.36,2.96c-5.2,0.37-10.44,0.16-15.66,0.14c-5.47-0.02-6.9,1.09-6.96,6.51
			c-0.08,8.12,0.24,16.24,0.29,24.36c0.02,3.45-0.03,6.91-0.38,10.33c-0.13,1.23-1.24,2.35-1.9,3.52c-0.98-1.05-2.73-2.04-2.82-3.16
			c-0.34-4.18-0.14-8.41-0.14-12.62C167.55,120.06,167.52,120.06,167.48,120.06"/>
		<path d="M987.9,261.69c2.22,1.1,4.64,1.92,6.6,3.36c2.38,1.76,4.32,4.1,6.56,6.06c0.79,0.68,1.88,1.16,2.9,1.4
			c2.76,0.64,2.76,2.35,1.63,4.25c-2.75,4.64-7.24,7.35-11.64,10.13c-0.35,0.22-0.84,0.31-1.28,0.33
			c-4.53,0.21-11.63-7.58-11.11-12.06c0.17-1.51,0.04-3.07-0.04-4.61C981.32,266.46,984.38,262.28,987.9,261.69"/>
		<path d="M243.48,195.46c-1.86-1.41-4.01-2.56-5.52-4.27c-6.03-6.81-11.95-13.72-17.72-20.76c-3.93-4.79-7.55-9.82-11.25-14.79
			c-0.58-0.77-1-1.78-1.13-2.73c-0.09-0.66,0.26-1.69,0.76-2.03c0.43-0.29,1.54-0.05,2.04,0.35c1.66,1.31,3.36,2.63,4.71,4.23
			c7.04,8.31,13.97,16.72,20.96,25.07c2.13,2.54,4.61,4.83,6.44,7.57c1.19,1.78,1.5,4.15,2.21,6.26
			C244.48,194.73,243.98,195.1,243.48,195.46"/>
		<path d="M758.5,124.99c-1.43,0.34-2.87,0.56-4.23,1.04c-3.23,1.14-5.92,2.6-5.22,6.94c0.56,3.5,0.71,7.08,0.73,10.63
			c0.01,1.49-0.8,2.99-1.23,4.48c-1.28-1-3.25-1.75-3.72-3.05c-1.42-3.91-2.26-8.03-3.49-12.68c-1.45,0.98-3.03,2.28-4.81,3.19
			c-1.19,0.6-2.66,0.65-4,0.95c0.28-1.68,0.02-3.83,0.97-4.93c1.91-2.21,4.49-3.85,6.87-5.79c0.47-4.49-3.48-9.01-0.63-14.18
			c5.08,2.55,3.43,7.82,5.34,11.25c4.3-1.26,8.5-2.49,13.1-3.83C758.31,121.52,758.41,123.25,758.5,124.99"/>
		<path d="M1140.64,578.14c2.85,0.46,6.06,0.76,9.13,1.58c1.1,0.29,2.62,1.87,2.59,2.8c-0.04,1.06-1.44,2.34-2.56,3.04
			c-4.63,2.89-9.79,2.17-14.71,1.26c-1.68-0.31-3.65-2.46-4.27-4.19c-0.86-2.44,1.36-3.32,3.53-3.61
			C1136.32,578.76,1138.28,578.47,1140.64,578.14"/>
		<path d="M206.53,196.46c0.45-3.21,0.23-5.96,1.28-8.09c1.49-3.01,3.78-5.67,5.98-8.26c1.54-1.82,5.69-1.78,7.31-0.02
			c0.58,0.63,0.93,2.27,0.52,2.86c-2.66,3.93-5.34,7.89-8.5,11.4C212.01,195.6,209.52,195.58,206.53,196.46"/>
		<path d="M1199.44,576.07c-2.21-0.56-4.62-0.75-6.55-1.83c-1.28-0.72-2.49-2.67-2.56-4.12c-0.05-1.19,1.41-2.76,2.59-3.64
			c4.43-3.32,8.8-0.64,13.06,0.64c0.86,0.26,1.99,2.82,1.62,3.34c-1.37,1.95-3.22,3.62-5.12,5.11c-0.62,0.48-1.94,0.08-2.93,0.08
			C1199.52,575.8,1199.48,575.93,1199.44,576.07"/>
		<path d="M230.45,163.58c0.24-6.88,4.58-10.27,8.29-14.01c0.33-0.34,1.93-0.08,2.28,0.4c0.84,1.13,2.18,3.07,1.77,3.77
			c-2.37,4.07-5.1,7.95-7.96,11.71c-0.54,0.71-2.6,1.14-3.25,0.69C230.73,165.56,230.59,163.95,230.45,163.58"/>
		<path d="M183.59,118.26c-1.67-0.67-4.5-1.02-4.78-2.06c-0.62-2.29-0.05-4.94,0.27-7.41c0.06-0.48,1.31-1.29,1.78-1.16
			c2.79,0.8,5.65,1.58,8.2,2.9c0.99,0.52,2.07,2.89,1.67,3.63c-0.78,1.43-2.5,2.45-4.01,3.32c-0.78,0.45-1.95,0.21-2.95,0.27
			C183.71,117.92,183.65,118.09,183.59,118.26"/>
		<path d="M1218.26,568.28c-0.22,3.41-1.59,4.99-3.81,4.65c-1.12-0.17-2.53-1.9-2.85-3.17c-0.61-2.47,1.45-3.84,3.42-3.83
			C1216.25,565.93,1217.48,567.66,1218.26,568.28"/>
		<path d="M1151.86,583.26c2.11-1.79,3.71-3.87,4.41-3.6c1.65,0.63,2.88,2.38,4.28,3.68c-1.41,1.02-2.72,2.54-4.28,2.88
			C1155.33,586.42,1154,584.77,1151.86,583.26"/>
		<path d="M611.3,580.59c-0.31,1.8-0.63,3.61-0.94,5.41c-0.74-0.28-1.96-0.4-2.12-0.88c-0.7-1.99-0.4-3.83,1.7-4.83
			C610.38,580.39,610.84,580.49,611.3,580.59"/>
		<path d="M1083.25,459.15c1.48,7.4-7.37,20-14.54,22.43c-6.85,2.32-13.65-0.56-17.13-6.93c-3.24-5.94-1.46-11.4-0.19-17.17
			c1.1-4.99,4.2-8.61,7.51-12.12c2.48-2.63,10.96-3.5,14.52-2.07C1080.36,446.07,1082.9,451.48,1083.25,459.15 M1061.15,462.23
			c6.5-0.75,13.36-6.01,14.62-11.52c0.67-2.92-1.15-5.43-4.2-5.31c-5.6,0.24-10.63,2.25-14.03,6.78c-1.16,1.54-1.55,4.45-0.95,6.28
			C1057.11,460.05,1059.56,461,1061.15,462.23 M1059.85,472.25c2.89,0.05,5.45-1.73,5.22-3.66c-0.25-2.02-0.7-4.33-3.5-4.46
			c-2.03-0.1-4.39,2.38-4.51,4.5C1056.92,470.97,1058.01,472.14,1059.85,472.25"/>
		<path d="M1010.73,429.54c3,1.18,7.58,1.93,10.6,4.51c2.24,1.91,3.46,6.22,3.36,9.41c-0.28,9.07-4.18,17.11-10.13,23.77
			c-6.31,7.08-15.16,8.83-21.13,1.53c-8.06-9.85-8.18-24.85,4.86-32.58c0.57-0.34,1.53-0.53,1.67-0.99
			C1001.45,430.3,1005.72,430.64,1010.73,429.54 M1016.11,436.76c-0.05-3.28-2.22-4.31-4.42-4.56c-5.32-0.61-14.16,5.9-15.36,11.4
			c-0.35,1.61,0.13,4.15,1.23,5.1c1.15,0.99,4.01,1.37,5.25,0.61c3.8-2.35,7.28-5.25,10.66-8.2
			C1014.68,440.04,1015.24,438.23,1016.11,436.76 M1003.07,453.47c-3.95-0.26-4.81,1.5-4.95,3.84c-0.11,1.81,0.65,2.96,2.7,2.88
			c2.44-0.1,4.13-1.31,4.01-3.74C1004.77,455.23,1003.45,454.07,1003.07,453.47"/>
		<path d="M717.75,78.91c-2.95,0.71-5.93,1.16-8.73,2.15c-6.67,2.36-12.22,5.36-10.78,14.33c1.16,7.22,1.47,14.62,1.51,21.94
			c0.02,3.08-1.64,6.17-2.54,9.25c-2.64-2.06-6.7-3.61-7.67-6.28c-2.93-8.07-4.67-16.58-7.2-26.17c-2.99,2.03-6.26,4.7-9.93,6.58
			c-2.45,1.25-5.48,1.35-8.25,1.96c0.58-3.46,0.03-7.91,2-10.18c3.94-4.57,9.26-7.95,14.17-11.95c0.96-9.27-7.18-18.6-1.31-29.27
			c10.48,5.27,7.09,16.13,11.03,23.22c8.87-2.6,17.55-5.13,27.03-7.91C717.36,71.74,717.55,75.32,717.75,78.91"/>
	</g>
</g>
</svg>
