<?xml version="1.0" encoding="utf-8"?>
<!-- Generator: Adobe Illustrator 23.1.0, SVG Export Plug-In . SVG Version: 6.00 Build 0)  -->
<svg version="1.1" xmlns="http://www.w3.org/2000/svg" xmlns:xlink="http://www.w3.org/1999/xlink" x="0px" y="0px"
	 viewBox="0 0 1280 529.54" style="enable-background:new 0 0 1280 529.54;" xml:space="preserve">
<style type="text/css">
	.st0{display:none;}
	.st1{display:inline;fill:#B0B0B0;}
	.st2{fill:url(#SVGID_1_);}
	.st3{fill:url(#SVGID_2_);}
	.st4{fill:url(#SVGID_3_);}
	.st5{fill:url(#SVGID_4_);}
	.st6{fill:url(#SVGID_5_);}
	.st7{fill:url(#SVGID_6_);}
	.st8{fill:url(#SVGID_7_);}
	.st9{fill:url(#SVGID_8_);}
	.st10{fill:#040000;}
	.st11{fill:#FFFFFF;}
	.st12{clip-path:url(#SVGID_10_);}
	.st13{fill:none;}
	.st14{fill:#1A1A1A;}
</style>
<g id="BG" class="st0">
	<rect x="-2812.29" y="-1225.91" class="st1" width="5644.36" height="2877.76"/>
</g>
<g id="圖層_1">
	<path class="st13" d="M1247.53,116.43c0-60.84-29.44-95.35-47.71-103.62c-40.07-18.13-74.04-26.9-102-27.54
		c-27.95-0.64-49.89,6.86-65.87,21.26s-26.02,35.7-30.19,62.67s29.55,67.86,5.06,96.7c-1.39,1.64-12.46-0.24-27.64-0.44
		c-15.18-0.2-35.25-0.43-56.92-0.66c-21.67-0.22-44.95-0.44-66.56-0.6c-21.61-0.16-41.56-0.26-56.57-0.26
		c-34.12,0-47.01-6.68-50.18-17.51c-3.17-10.83,3.38-25.8,8.13-42.38c4.76-16.58,7.72-34.78-2.62-52.05
		c-10.34-17.27-33.34-36.33-82.43-46.5c-13.18-2.73-27.5-5.26-41.84-8.19c-14.35-2.93-28.85-5.51-42.79-6.12
		C573.46-9.4,560.08-8.03,548-3.05s-15.3,26.85-31.67,27.39c-13.2,0.44-18.89-18.98-31.59-24.72c-12.7-5.73-27.02-8.87-41.29-9.12
		c-14.27-0.25-28.49,2.39-41,8.19c-12.51,5.81-16.81,23.24-30.74,27.22c-25.88,7.4-42.71-20.43-59.43-25.69
		c-16.72-5.26-31.36-7.68-47.01-8.64s-32.3-0.48-53.02,0.07s-45.62,2.99-77.47,0.46c-26.03-2.07-48.9-0.53-68.17,7.54
		S31.84,20.84,21.04,37.45S4.14,74.17,3.66,96.24s13.55,43.6,16.38,70.57c2.42,23.14-10.56,45.86-13.47,68.7S2.94,280.8,6.2,301.82
		c3.26,21.02,10.51,40.6,23.53,57.73s30.21,36.92,58.23,42.98c71.2,15.41,145.21,2.6,217.35,2.74
		c72.13,0.14,144.01-0.32,215.79-0.86c71.78-0.54,143.48-1.17,215.25-1.37c71.77-0.2,168.42-53.19,215.73,1.23
		c39.19,45.08,0.42,101.52,15.9,129.56c15.47,28.04,38.65,41.87,62.13,44.31c23.49,2.45,47.29-6.49,64-23.98
		s21.49-43.17,21.49-75.32c0-57.89-2.03-71.31,11.33-82.21c21.18-17.28,27.93,5.39,66.3,5.39c22.49,0,33.05-7.18,42.33-17.28
		c9.29-10.09,12.15-26.45,15.15-43.53S1247.53,168.57,1247.53,116.43z"/>
	<g>
		<rect x="363.88" y="291.15" class="st13" width="8.62" height="8.44"/>
		<polygon class="st13" points="475.23,236.46 475.23,283.7 516.14,260.08 		"/>
		<rect x="1059.29" y="269.77" class="st13" width="14.4" height="28.89"/>
		<rect x="693.68" y="280.05" class="st13" width="1.02" height="1.84"/>
		<polygon class="st13" points="317.53,274.92 317.53,272.57 315.22,272.57 315.22,273.6 313.11,273.6 313.11,274.92 		"/>
		<rect x="313.11" y="269.15" class="st13" width="4.42" height="0.27"/>
		<rect x="313.11" y="265.74" class="st13" width="4.42" height="0.27"/>
		<rect x="693.68" y="276.64" class="st13" width="1.02" height="1.84"/>
		<rect x="565" y="100.39" class="st14" width="5.69" height="1.31"/>
		<path class="st14" d="M566.57,221.13V331.5c0,1.12-0.12,2.22-0.33,3.28c1.01,1.24,2.53,2.06,4.24,2.06h0.21v-115.7H566.57z"/>
		<rect x="566.57" y="214.32" class="st14" width="4.12" height="0.78"/>
		<rect x="566.57" y="217.72" class="st14" width="4.12" height="0.8"/>
		<path class="st14" d="M637.8,116.2h0.21V73.02c0-3.02,2.47-5.49,5.49-5.49h38.75v-0.21c0-3.02-2.47-5.49-5.49-5.49H637.8
			c-3.02,0-5.49,2.47-5.49,5.49v43.39C632.32,113.73,634.79,116.2,637.8,116.2z"/>
		<path class="st14" d="M643.86,162.32h38.44v-0.21c0-3.02-2.47-5.49-5.49-5.49h-38.64c-3.02,0-5.49,2.47-5.49,5.49v169.28
			c0,3.02,2.47,5.49,5.49,5.49h0.21V167.8C638.38,164.78,640.84,162.32,643.86,162.32z"/>
		<path class="st14" d="M827.58,319.27v-0.12h-1.69v-2.16h4.68v-1.25h-6.41v0.12h0.72v15.57c0,3.02,2.47,5.49,5.49,5.49h0.21v-17.64
			H827.58z"/>
		<path class="st14" d="M830.57,312.32h8.13v-2.16h-8.13v-0.21c0-3.02,2.47-5.49,5.49-5.49h23.11v-0.21c0-3.02-2.47-5.49-5.49-5.49
			h-23.31c-3.02,0-5.49,2.47-5.49,5.49v5.9h-5.82v2.16h5.82v1.25h5.69V312.32z"/>
		<path class="st14" d="M1137.66,166.27V84.05c0-9.09,7.43-16.52,16.52-16.52h19.76c3.09,0,5.98,0.88,8.46,2.37
			c-2.9-4.81-8.16-8.06-14.15-8.06h-19.76c-9.09,0-16.52,7.43-16.52,16.52v82.22h-4.65v5.69H1137.66z"/>
		<path class="st14" d="M1068.83,124.29h-5.69v64.15c0,6,3.25,11.26,8.06,14.15c-1.49-2.48-2.37-5.37-2.37-8.46V124.29z"/>
		<path class="st14" d="M1201.48,166.27c3.09,0,5.98,0.88,8.46,2.37c-2.84-4.72-7.95-7.91-13.79-8.04v5.67H1201.48z"/>
		<path class="st14" d="M1137.66,216.35h-5.69v58.38h1.06v3.42h3.42v3.49h-4.48v38.8c0,6,3.25,11.26,8.06,14.15
			c-1.49-2.48-2.37-5.37-2.37-8.46V216.35z"/>
		<rect x="1008.53" y="301.47" class="st14" width="5.55" height="0.61"/>
		<path class="st14" d="M1008.53,289.92h-16.02v4.71h3.42v-1.3h29.32v-3.42h-11.17v-47.78c0-9.09,7.43-16.52,16.52-16.52h71.78
			c3.09,0,5.98,0.88,8.46,2.37c-2.9-4.81-8.16-8.06-14.15-8.06h-71.78c-9.09,0-16.52,7.43-16.52,16.52v9.3
			c0.08,0.67,0.14,1.35,0.14,2.04V289.92z"/>
		<path class="st14" d="M1014.08,307.77h-5.55v23.85c0,0.69-0.06,1.37-0.14,2.04v159.5c0,6,3.25,11.26,8.06,14.15
			c-1.49-2.48-2.37-5.37-2.37-8.46V307.77z"/>
		<polygon class="st14" points="1073.69,298.66 1059.29,298.66 1059.29,304.35 1079.38,304.35 1079.38,269.77 1073.69,269.77 		"/>
		<rect x="1008.53" y="304.35" class="st14" width="5.55" height="1.15"/>
		<path class="st14" d="M323.22,272.57h-5.69v2.36h1.1v2.1h-1.1v43.14c0,4.54,1.86,8.67,4.85,11.67c0.96,0.96,2.04,1.78,3.21,2.48
			c-1.49-2.48-2.37-5.37-2.37-8.46V272.57z"/>
		<polygon class="st14" points="372.5,299.59 363.88,299.59 363.88,305.28 378.19,305.28 378.19,291.15 372.5,291.15 		"/>
		<rect x="317.53" y="269.15" class="st14" width="5.69" height="0.27"/>
		<path class="st14" d="M796.41,225.47c3.09,0,5.98,0.88,8.46,2.37c-2.9-4.81-8.16-8.06-14.15-8.06h-45.04
			c1.17,1.7,2.03,3.62,2.5,5.69H796.41z"/>
		<rect x="694.7" y="280.05" class="st14" width="5.69" height="1.84"/>
		<path class="st14" d="M700.39,283.47h-5.69v36.81c0,6,3.25,11.26,8.06,14.15c-1.49-2.48-2.37-5.37-2.37-8.46V283.47z"/>
		<path class="st14" d="M770.41,276.28c-0.19-1.81-0.75-3.52-1.57-5.06c-1.3-0.7-2.73-1.18-4.24-1.42c0.04,0.26,0.09,0.52,0.12,0.79
			v49.53c0,6,3.25,11.26,8.06,14.15c-1.49-2.48-2.37-5.37-2.37-8.46V276.28z"/>
		<path class="st14" d="M986.31,225.58c3.09,0,5.98,0.88,8.46,2.37c-2.9-4.81-8.16-8.06-14.15-8.06h-64.46
			c1.17,1.7,2.03,3.62,2.5,5.69H986.31z"/>
		<path class="st14" d="M967.6,269.72h-3.8v58.15c1.42,2.7,3.56,4.95,6.17,6.52c-1.49-2.48-2.37-5.37-2.37-8.46V269.72z"/>
		<path class="st14" d="M922.88,269.72h-3.8v58.15c1.42,2.7,3.56,4.95,6.17,6.52c-1.49-2.48-2.37-5.37-2.37-8.46V269.72z"/>
		<path class="st14" d="M878.16,258.06h-5.69v62.17c0,6,3.25,11.26,8.06,14.15c-1.49-2.48-2.37-5.37-2.37-8.46V258.06z"/>
		<rect x="872.47" y="254.65" class="st14" width="5.69" height="1.21"/>
		<path class="st14" d="M878.16,251.23h5.78v-2.21h-5.78v-25.49c0-9.09,7.43-16.52,16.52-16.52h2.19c3.09,0,5.98,0.88,8.46,2.37
			c-2.9-4.81-8.16-8.06-14.15-8.06h-2.19c-9.09,0-16.52,7.43-16.52,16.52v31.18h-11.03v2.21h11.03v1.21h5.69V251.23z"/>
		<path class="st14" d="M422.96,111.65h-5.69v151.96c1,2.12,1.57,4.48,1.57,6.97v56.5c1.4,2.99,3.67,5.49,6.49,7.18
			c-1.49-2.48-2.37-5.37-2.37-8.46V111.65z"/>
		<polygon class="st14" points="475.23,283.7 475.23,292.67 523.92,264.57 516.14,260.08 		"/>
		<path class="st14" d="M544.36,184.4c3.09,0,5.98,0.88,8.46,2.37c-2.9-4.81-8.16-8.06-14.15-8.06h-57.74v5.69H544.36z"/>
		<polygon class="st14" points="82.03,314.88 100.31,314.88 100.31,313.46 69.42,313.46 69.42,311.73 68.09,311.73 68.09,314.88 
			76.34,314.88 76.34,315.15 82.03,315.15 		"/>
		<polygon class="st14" points="82.03,241.02 87.34,241.02 87.34,239.05 82.03,239.05 82.03,111.65 76.34,111.65 76.34,239.05 
			56.31,239.05 56.31,241.02 76.34,241.02 76.34,242.47 82.03,242.47 		"/>
		<path class="st14" d="M187.19,184.36c0-9.09,7.43-16.52,16.52-16.52h87.19c3.09,0,5.98,0.88,8.46,2.37
			c-2.9-4.81-8.16-8.06-14.15-8.06h-87.19c-9.09,0-16.52,7.43-16.52,16.52v34.93c0,6,3.25,11.26,8.06,14.15
			c-1.49-2.48-2.37-5.37-2.37-8.46V184.36z"/>
		<path class="st14" d="M82.03,321.71h-5.61c0.49,5.36,3.58,9.99,7.98,12.64c-1.49-2.48-2.37-5.37-2.37-8.46V321.71z"/>
		<polygon class="st14" points="257.32,255.5 257.32,241.5 251.63,241.5 251.63,249.81 169.15,249.81 169.15,255.5 		"/>
		<rect x="76.34" y="244.43" class="st14" width="5.69" height="1.45"/>
		<rect x="76.34" y="318.29" class="st14" width="5.69" height="0.27"/>
		<path d="M631.54,124.21V65.42c0-3.02-2.47-5.49-5.49-5.49h-0.21v64.27H631.54z"/>
		<rect x="625.85" y="127.35" width="5.69" height="0.27"/>
		<path d="M693.63,79.16v-0.45c0-3.02-2.47-5.49-5.49-5.49h-0.21v5.94H693.63z"/>
		<path d="M693.68,275.07V173.49c0-3.02-2.47-5.49-5.49-5.49h-0.21v107.06H693.68z"/>
		<rect x="687.99" y="276.64" width="5.69" height="1.84"/>
		<path d="M865.06,310.16h-0.21v26.96c0,3.02-2.47,5.49-5.49,5.49h-23.11v0.21c0,3.02,2.47,5.49,5.49,5.49h23.31
			c3.02,0,5.49-2.47,5.49-5.49v-27.17C870.54,312.62,868.08,310.16,865.06,310.16z"/>
		<polygon points="1121.62,154.54 1118.96,154.54 1118.96,156.31 1121.62,156.31 1121.62,166.27 1127.32,166.27 1127.32,156.31 
			1131.93,156.31 1131.93,154.54 1127.32,154.54 1127.32,152.9 1121.62,152.9 		"/>
		<path d="M1190.46,245.49h-7.65v2.62h7.65v78.01c0,9.09-7.43,16.52-16.52,16.52h-19.76c-3.09,0-5.98-0.88-8.46-2.37
			c2.9,4.81,8.16,8.06,14.15,8.06h19.76c9.09,0,16.52-7.43,16.52-16.52v-83.71h8.92v-2.62h-8.92v-0.8h-5.69V245.49z"/>
		<path d="M1215.63,174.33c1.49,2.48,2.37,5.37,2.37,8.46v11.34c0,9.09-7.43,16.52-16.52,16.52h-11.02v28.01h5.69v-22.31h11.02
			c9.09,0,16.52-7.43,16.52-16.52v-11.34C1223.69,182.49,1220.45,177.23,1215.63,174.33z"/>
		<rect x="1190.46" y="241.28" width="5.69" height="0.8"/>
		<path d="M1121.62,147.71h3.47v1.77h-3.47v1.65h5.69V76.58c0-6-3.25-11.26-8.06-14.15c1.49,2.48,2.37,5.37,2.37,8.46V147.71z"/>
		<polygon points="1190.46,110.61 1186.21,110.61 1186.21,112.7 1190.46,112.7 1190.46,166.27 1196.15,166.27 1196.15,112.7 
			1205.07,112.7 1205.07,110.61 1196.15,110.61 1196.15,109.29 1190.46,109.29 		"/>
		<path d="M1190.46,94.87h4.9v3.42h0.79v-8.54c0-6-3.25-11.26-8.06-14.15c1.49,2.48,2.37,5.37,2.37,8.46V94.87z"/>
		<path d="M1137.66,210.66h-52.31c-3.09,0-5.98-0.88-8.46-2.37c2.9,4.81,8.16,8.06,14.15,8.06h46.62V210.66z"/>
		<polygon points="1053.6,264.07 1053.6,304.35 1059.29,304.35 1059.29,269.77 1079.38,269.77 1079.38,264.07 		"/>
		<path d="M1053.6,427.78h-9.08v1.77h9.08v69.3c0,9.09-7.43,16.52-16.52,16.52h-6.48c-3.09,0-5.98-0.88-8.46-2.37
			c2.9,4.81,8.16,8.06,14.15,8.06h6.48c9.09,0,16.52-7.43,16.52-16.52v-74.99h5.26v-1.77h-5.26v-1.65h-5.69V427.78z"/>
		<path d="M1118.9,271.31h5.69v-23.48c0-6-3.25-11.26-8.06-14.15c1.49,2.48,2.37,5.37,2.37,8.46V271.31z"/>
		<polygon points="363.88,291.15 378.19,291.15 378.19,285.46 358.19,285.46 358.19,305.28 363.88,305.28 		"/>
		<path d="M418.85,270.59c0-2.49-0.57-4.85-1.57-6.97c-1.4-2.99-3.67-5.49-6.49-7.18c1.49,2.48,2.37,5.37,2.37,8.46v60.95
			c0,9.09-7.43,16.52-16.52,16.52h-56.89c-3.09,0-5.98-0.88-8.46-2.37c0.7,1.17,1.53,2.25,2.48,3.21c2.99,2.99,7.12,4.85,11.67,4.85
			h56.89c9.09,0,16.52-7.43,16.52-16.52V270.59z"/>
		<path d="M816.97,240.53c-1.41-2.91-3.64-5.34-6.4-7c1.25,2.09,2.07,4.46,2.29,7H816.97z"/>
		<path d="M812.94,243.94h5.25c-0.1-0.42-0.2-0.84-0.33-1.25h-4.91V243.94z"/>
		<path d="M756.82,263.92C756.82,263.92,756.82,263.92,756.82,263.92l-13.9-0.01v62.05c0,9.09-7.43,16.52-16.52,16.52h-9.48
			c-3.09,0-5.98-0.88-8.46-2.37c2.9,4.81,8.16,8.06,14.15,8.06h9.48c9.09,0,16.52-7.43,16.52-16.52v-62.05h13.9c0,0,0,0.01,0,0.01
			c0.71,0,1.41,0.08,2.09,0.19c1.51,0.24,2.94,0.73,4.24,1.42C766.53,266.92,762.03,263.95,756.82,263.92z"/>
		<path d="M742.91,223.42v2.05h5.27c-0.47-2.07-1.33-3.99-2.5-5.69c-1.35-1.95-3.11-3.59-5.14-4.81
			C742.04,217.44,742.91,220.33,742.91,223.42z"/>
		<path d="M1002.83,289.92h5.69v-42.13c0-0.69-0.06-1.37-0.14-2.04c-0.64-5.14-3.66-9.55-7.92-12.11c1.49,2.48,2.37,5.37,2.37,8.46
			V289.92z"/>
		<path d="M1008.53,307.77h9.4v-2.27h-9.4v-1.15h-5.69v1.15h-11.36v2.27h11.36v18.16c0,9.09-7.43,16.52-16.52,16.52h-2.19
			c-3.09,0-5.98-0.88-8.46-2.37c2.9,4.81,8.16,8.06,14.15,8.06h2.19c8.39,0,15.37-6.35,16.38-14.48c0.08-0.67,0.14-1.35,0.14-2.04
			V307.77z"/>
		<path d="M967.6,269.72v-0.95c0-2.59-2.11-4.7-4.69-4.73c0,0,0-0.01,0-0.01h-4.81v61.9c0,9.09-7.43,16.52-16.52,16.52h-2.19
			c-3.09,0-5.98-0.88-8.46-2.37c2.9,4.81,8.16,8.06,14.15,8.06h2.19c9.09,0,16.52-7.43,16.52-16.52v-61.9H967.6z"/>
		<path d="M922.88,269.72v-0.95c0-2.61-2.14-4.75-4.74-4.75h-4.74v61.9c0,9.09-7.43,16.52-16.52,16.52h-2.19
			c-3.09,0-5.98-0.88-8.46-2.37c2.9,4.81,8.16,8.06,14.15,8.06h2.19c9.09,0,16.52-7.43,16.52-16.52v-61.9H922.88z"/>
		<path d="M913.39,223.53v2.05h5.27c-0.47-2.07-1.33-3.99-2.5-5.69c-1.35-1.95-3.11-3.59-5.14-4.81
			C912.52,217.55,913.39,220.44,913.39,223.53z"/>
		<polygon points="475.24,130.51 462.29,130.51 462.29,131.56 475.24,131.56 475.24,184.4 480.93,184.4 480.93,131.56 
			490.57,131.56 490.57,130.51 480.93,130.51 480.93,128.15 475.24,128.15 		"/>
		<rect x="475.24" y="124.73" width="5.69" height="2.37"/>
		<path d="M560.88,201.21h4.76c-0.19-0.54-0.4-1.06-0.64-1.57c-1.4-2.99-3.67-5.49-6.49-7.18c1.49,2.48,2.37,5.37,2.37,8.46V201.21z
			"/>
		<polygon points="475.24,119.77 469.1,119.77 469.1,122.66 475.24,122.66 475.24,123.68 480.93,123.68 480.93,122.66 
			490.57,122.66 490.57,119.77 480.93,119.77 480.93,119.24 475.24,119.24 		"/>
		<rect x="475.24" y="115.82" width="5.69" height="0.53"/>
		<path d="M475.24,112.94h5.69V75.31c0-6-3.25-11.26-8.06-14.15c1.49,2.48,2.37,5.37,2.37,8.46V112.94z"/>
		<path d="M566.57,221.13h10.96v-2.62h-10.96v-0.8h-5.69v0.8h-15.3v2.62h15.3v104.67c0,9.09-7.43,16.52-16.52,16.52H439.49
			c-3.09,0-5.98-0.88-8.46-2.37c2.9,4.81,8.16,8.06,14.15,8.06h104.87c7.97,0,14.66-5.71,16.19-13.24c0.22-1.06,0.33-2.16,0.33-3.28
			V221.13z"/>
		<polygon points="475.23,236.46 516.14,260.08 523.92,264.57 526,263.36 469.54,230.77 469.54,295.96 475.23,292.67 		"/>
		<rect x="307.42" y="265.74" width="5.69" height="0.27"/>
		<path d="M310.51,68.16c-1.41-2.46-3.44-4.51-5.86-5.97c1.08,1.8,1.83,3.82,2.16,5.97H310.51z"/>
		<path d="M307.42,262.59h5.69v-72.54c0-6-3.25-11.26-8.06-14.15c1.49,2.48,2.37,5.37,2.37,8.46V262.59z"/>
		<path d="M307.02,70.65v0.92H312c-0.11-0.36-0.24-0.71-0.37-1.06h-4.61C307.01,70.56,307.02,70.6,307.02,70.65z"/>
		<path d="M257.32,235.81h-53.61c-3.09,0-5.98-0.88-8.46-2.37c2.9,4.81,8.16,8.06,14.15,8.06h47.91V235.81z"/>
		<path class="st14" d="M131.74,94.71v-3.42H82.03V70.65c0-9.09,7.43-16.52,16.52-16.52h48.39c0,0,0,0,0,0H290.5
			c3.09,0,5.98,0.88,8.46,2.37c-2.9-4.81-8.16-8.06-14.15-8.06H141.25c0,0,0,0,0,0H92.86c-9.09,0-16.52,7.43-16.52,16.52v26.34
			H56.31v13.53h3.42V94.71H131.74z"/>
		<polygon class="st14" points="100.31,111.65 100.31,112.94 103.72,112.94 103.72,112.43 147.45,112.43 147.45,109.02 
			138.57,109.02 138.57,111.65 		"/>
		<rect x="281.03" y="68.16" class="st14" width="42.43" height="2.36"/>
		<polygon class="st14" points="287.86,76.01 259.81,76.01 259.81,85.44 263.23,85.44 263.23,79.43 291.24,79.43 291.24,77.34 
			287.86,77.34 		"/>
		<polygon class="st14" points="295.69,73.93 295.69,74.99 330.29,74.99 330.29,76.02 340.22,76.02 340.22,72.61 326.87,72.61 
			326.87,73.93 		"/>
		<rect x="295.69" y="77.34" class="st14" width="3.42" height="0.5"/>
		<polygon class="st14" points="316.58,178.76 316.58,179.7 334.34,179.7 334.34,181.27 316.58,181.27 316.58,184.3 319.99,184.3 
			319.99,182.18 350.37,182.18 350.37,178.76 		"/>
		<rect x="308.53" y="172.87" class="st14" width="18.99" height="1.57"/>
		<polygon class="st14" points="102.66,302.58 102.66,299.16 82.03,299.16 82.03,247.85 76.34,247.85 76.34,299.16 62.59,299.16 
			62.59,306.63 66.01,306.63 66.01,302.58 		"/>
		<path class="st14" d="M300.93,262.59v3.14h16.6v0.27h5.69v-0.27h7.96v-3.14h-7.78c0.51-3.63,2.19-6.89,4.67-9.37
			c2.99-2.99,7.12-4.85,11.67-4.85h56.89c3.09,0,5.98,0.88,8.46,2.37c-2.9-4.81-8.16-8.06-14.15-8.06h-56.89
			c-4.54,0-8.67,1.86-11.67,4.85c-2.99,2.99-4.85,7.12-4.85,11.67v3.39H300.93z"/>
		<polygon class="st14" points="307.76,269.42 311.8,269.42 311.8,269.15 304.35,269.15 304.35,268.09 293.47,268.09 293.47,270.19 
			307.76,270.19 		"/>
		<path class="st14" d="M438.7,101.47v-3.42h-15.73V69.62c0-9.09,7.43-16.52,16.52-16.52h19.23c3.09,0,5.98,0.88,8.46,2.37
			c-2.9-4.81-8.16-8.06-14.15-8.06h-19.23c-9.09,0-16.52,7.43-16.52,16.52v34.13h-15.24v6.77h3.42v-3.35H438.7z"/>
		<rect x="455.46" y="123.68" class="st14" width="28.29" height="1.05"/>
		<rect x="462.27" y="112.94" class="st14" width="21.48" height="2.88"/>
		<path class="st14" d="M547.65,201.21v6.29h3.42v-2.87h28.01v-3.42h-8.39v-97.93H565v96.37c0.24,0.51,0.45,1.03,0.64,1.57H547.65z"
			/>
		<rect x="538.75" y="211.68" class="st14" width="15.74" height="2.62"/>
		<rect x="607.37" y="124.21" class="st14" width="36.14" height="3.14"/>
		<polygon class="st14" points="576.28,96.44 581.44,96.44 581.44,94.87 572.87,94.87 572.87,96.2 576.28,96.2 		"/>
		<path class="st14" d="M570.69,92.79V59.73c0-3.02,2.47-5.49,5.49-5.49h43.98v-0.21c0-3.02-2.47-5.49-5.49-5.49h-44.19
			c-3.02,0-5.49,2.47-5.49,5.49v35.33h-15.25v4.19h3.42v-0.78H570.69z"/>
		<polygon class="st14" points="668.68,79.16 668.68,82.82 672.09,82.82 672.09,82.57 700.37,82.57 700.37,79.16 		"/>
		<polygon class="st14" points="656.3,96.71 659.72,96.71 659.72,96.45 676.15,96.45 676.15,93.04 656.3,93.04 		"/>
		<path class="st14" d="M674.94,275.07v1.57h19.76v1.84h5.69v-1.84h3.88v-1.57h-3.88v-51.64c0-9.09,7.43-16.52,16.52-16.52h9.48
			c3.09,0,5.98,0.88,8.46,2.37c-2.9-4.81-8.16-8.06-14.15-8.06h-9.48c-9.09,0-16.52,7.43-16.52,16.52v57.34H674.94z"/>
		<polygon class="st14" points="807.74,246.1 807.74,244.96 790.7,244.96 790.7,249.03 794.12,249.03 794.12,248.37 811.15,248.37 
			811.15,247.36 827.15,247.36 827.15,244.96 825.02,244.96 825.02,246.1 		"/>
		<polygon class="st14" points="804.32,240.53 804.32,242.22 811.15,242.22 811.15,242.69 821.61,242.69 821.61,240.53 		"/>
		<rect x="791.75" y="235.39" class="st14" width="12.57" height="1.44"/>
		<rect x="984.65" y="298.67" class="st14" width="14.69" height="2.27"/>
		<polygon class="st14" points="1101.07,271.31 1101.07,274.8 1104.48,274.8 1104.48,274.73 1129.62,274.73 1129.62,271.31 		"/>
		<polygon class="st14" points="1040.83,414.66 1040.83,418.59 1044.24,418.59 1044.24,418.08 1067.15,418.08 1067.15,414.66 		"/>
		<polygon class="st14" points="1044.24,422.01 1044.24,420.95 1037.68,420.95 1037.68,422.72 1047.66,422.72 1047.66,422.01 		"/>
		<rect x="1175.97" y="238.66" class="st14" width="22.26" height="2.62"/>
		<path class="st14" d="M1068.83,117.34v-0.98h-11.03v-1.77h11.03v-1.65h2.06v-1.77h-2.06V70.89c0-9.09,7.43-16.52,16.52-16.52
			h19.76c3.09,0,5.98,0.88,8.46,2.37c-2.9-4.81-8.16-8.06-14.15-8.06h-19.76c-9.09,0-16.52,7.43-16.52,16.52v45.98h-8.75v1.77h8.75
			v0.98h-12.95v3.54h3.42v-0.12H1068.83z"/>
		<rect x="1112.13" y="147.71" class="st14" width="12.96" height="1.77"/>
		<rect x="1179.38" y="103.78" class="st14" width="0.28" height="2.1"/>
		<polygon class="st14" points="1172.83,94.87 1172.83,99.32 1176.25,99.32 1176.25,98.29 1195.36,98.29 1195.36,94.87 		"/>
		<rect x="63.14" y="245.88" width="31.04" height="1.96"/>
		<polygon points="138.57,111.65 138.57,98.12 135.15,98.12 135.15,108.24 63.14,108.24 63.14,111.65 		"/>
		<polygon points="154.28,115.85 150.87,115.85 150.87,116.36 107.14,116.36 107.14,119.77 154.28,119.77 		"/>
		<polygon points="287.86,74.99 287.86,77.34 299.11,77.34 299.11,76.02 330.29,76.02 330.29,74.99 		"/>
		<polygon points="294.65,88.86 266.64,88.86 266.64,92.27 298.07,92.27 298.07,82.84 294.65,82.84 		"/>
		<path d="M302.52,81.26v3.42h4.5v45.54c0,9.09-7.43,16.52-16.52,16.52H163.46V255.5h5.69V152.43h127.04
			c9.09,0,16.52-7.43,16.52-16.52V84.68h34.34v-5.24h-3.42v1.82H302.52z"/>
		<polygon points="323.41,187.71 323.41,191.13 357.2,191.13 357.2,185.6 353.78,185.6 353.78,187.71 		"/>
		<rect x="315.36" y="179.7" width="18.99" height="1.57"/>
		<polygon points="109.49,313.46 109.49,305.99 106.08,305.99 106.08,310.04 69.42,310.04 69.42,313.46 		"/>
		<rect x="74.92" y="318.56" width="32.21" height="3.14"/>
		<polygon points="338.01,272.57 338.01,269.42 313.11,269.42 313.11,269.15 311.8,269.15 311.8,269.42 307.76,269.42 
			307.76,270.19 307.42,270.19 307.42,271.51 315.22,271.51 315.22,272.57 		"/>
		<path d="M318.63,274.92h-5.52v-1.32h-5.69v1.32h-7.12v2.1h7.12v48.87c0,9.09-7.43,16.52-16.52,16.52H98.55
			c-3.09,0-5.98-0.88-8.46-2.37c2.9,4.81,8.16,8.06,14.15,8.06h192.35c9.09,0,16.52-7.43,16.52-16.52v-54.56h5.52V274.92z"/>
		<polygon points="445.53,111.65 445.53,104.89 442.11,104.89 442.11,108.24 408.86,108.24 408.86,111.65 		"/>
		<polygon points="585.91,208.04 582.49,208.04 582.49,210.91 554.48,210.91 554.48,214.32 560.88,214.32 560.88,215.1 
			566.57,215.1 566.57,214.32 585.91,214.32 		"/>
		<path d="M650.34,134.18v-3.14h-18.8v-0.27h-5.69v0.27H614.2v3.14h11.65v202.86c0,3.02-2.47,5.49-5.49,5.49h-43.98v0.21
			c0,3.02,2.47,5.49,5.49,5.49h44.19c3.02,0,5.49-2.47,5.49-5.49V134.18H650.34z"/>
		<rect x="564.29" y="101.7" width="23.97" height="1.57"/>
		<polygon points="576.28,100.39 576.28,99.86 560.88,99.86 560.88,98.29 576.28,98.29 576.28,96.2 572.87,96.2 572.87,96.98 
			556.58,96.98 556.58,100.39 		"/>
		<path d="M675.51,86.24v3.42h12.43v26.75c0,3.02-2.47,5.49-5.49,5.49H643.7v0.21c0,3.02,2.47,5.49,5.49,5.49h38.96
			c3.02,0,5.49-2.47,5.49-5.49V89.65h13.57v-3.67h-3.41v0.25H675.51z"/>
		<polygon points="679.57,100.12 663.13,100.12 663.13,103.54 682.98,103.54 682.98,99.87 679.57,99.87 		"/>
		<path d="M711.1,283.47v-1.57h-17.42v-1.84h-5.69v1.84h-6.22v1.57h6.22v53.61c0,3.02-2.47,5.49-5.49,5.49h-38.44v0.21
			c0,3.02,2.47,5.49,5.49,5.49h38.64c3.02,0,5.49-2.47,5.49-5.49v-59.3H711.1z"/>
		<path d="M833.98,255.86v-4.07h-3.41v0.65h-33.04v3.42h15.4v69.96c0,9.09-7.43,16.52-16.52,16.52h-9.48
			c-3.09,0-5.98-0.88-8.46-2.37c2.9,4.81,8.16,8.06,14.15,8.06h9.48c9.09,0,16.52-7.43,16.52-16.52v-75.65H833.98z"/>
		<rect x="811.15" y="247.36" width="17.29" height="1.02"/>
		<rect x="798.58" y="242.22" width="12.57" height="1.44"/>
		<polygon points="825.89,319.15 827.58,319.15 827.58,317.9 833.47,317.9 833.47,319.15 845.53,319.15 845.53,316.99 
			825.89,316.99 		"/>
		<rect x="830.99" y="321.31" width="5.89" height="1.38"/>
		<rect x="868.27" y="255.86" width="22.51" height="2.21"/>
		<polygon points="1032.07,301.47 1032.07,296.75 1028.66,296.75 1028.66,298.05 999.34,298.05 999.34,301.47 1002.83,301.47 
			1002.83,302.08 1008.53,302.08 1008.53,301.47 		"/>
		<path d="M1136.45,278.14h-3.42v0.08h-25.13v3.42h11v44.64c0,9.09-7.43,16.52-16.52,16.52h-48.78v71.87h5.69v-66.17h48.78
			c9.09,0,16.52-7.43,16.52-16.52v-50.34h11.85V278.14z"/>
		<polygon points="1047.66,422.01 1047.66,424.37 1061.14,424.37 1061.14,425.42 1073.98,425.42 1073.98,421.5 1070.57,421.5 
			1070.57,422.01 		"/>
		<rect x="1071.15" y="118.01" width="6.56" height="1.77"/>
		<polygon points="1074.57,124.29 1074.57,120.76 1071.15,120.76 1071.15,120.88 1057.01,120.88 1057.01,124.29 		"/>
		<polygon points="1179.66,102.74 1179.66,106.15 1190.46,106.15 1190.46,107.19 1196.15,107.19 1196.15,106.15 1202.19,106.15 
			1202.19,101.7 1198.77,101.7 1198.77,102.74 		"/>
	</g>
</g>
</svg>
