<?xml version="1.0" encoding="utf-8"?>
<!-- Generator: Adobe Illustrator 23.1.0, SVG Export Plug-In . SVG Version: 6.00 Build 0)  -->
<svg version="1.1" xmlns="http://www.w3.org/2000/svg" xmlns:xlink="http://www.w3.org/1999/xlink" x="0px" y="0px"
	 viewBox="0 0 882.61 800" style="enable-background:new 0 0 882.61 800;" xml:space="preserve">
<style type="text/css">
	.st0{display:none;}
	.st1{display:inline;fill:#B0B0B0;}
	.st2{fill:url(#SVGID_1_);}
	.st3{fill:url(#SVGID_2_);}
	.st4{fill:url(#SVGID_3_);}
	.st5{fill:url(#SVGID_4_);}
	.st6{fill:url(#SVGID_5_);}
	.st7{fill:url(#SVGID_6_);}
	.st8{fill:url(#SVGID_7_);}
	.st9{fill:url(#SVGID_8_);}
	.st10{fill:#040000;}
	.st11{fill:#FFFFFF;}
	.st12{clip-path:url(#SVGID_10_);}
	.st13{fill:none;}
	.st14{fill:#1A1A1A;}
</style>
<g id="BG" class="st0">
	<rect x="-394.29" y="-1893.14" class="st1" width="5644.36" height="2877.76"/>
</g>
<g id="圖層_1">
	<path class="st10" d="M476.96,326.74c-41.52,0.74-66.41-13.74-71.64-60.95c-5.26-47.21,50.23-59.02,68.39-73.29
		c18.16-14.25,3.25-30.48-16.86-29.81c-5.31,0.18-24.3,4.11-52.32,12.42c16.05,131.93-226.15,175.46-261.5,180.16
		c-38.91,5.18-45.38-16.2-15.57-22.04c147.78-28.9,238.11-96.23,245.22-147.96c-82,27.83-207.82,83.15-308.77,175.18
		c0,0-83.65,70.47-27.88,3.48C70.09,322.98,143,223.12,360.62,148.71c-0.91-0.99-1.9-1.96-2.97-2.9
		c-55.11-49.27-170.56,53.84-178.97,60.95c-21.03,17.8-25.29,11.68-7.77-14.27C271.28,43.83,371.26,90.99,391.35,132.49
		c0.89,1.83,1.73,3.63,2.51,5.43c9.09-2.82,18.41-5.59,27.96-8.3c48-13.61,87.54-3.25,101.15,25.93c6.37,13.64,24,55.77-51.86,77.81
		c-43.45,14.27-41.62,51.22-29.23,62.25c12.37,11.02,47.31,12.62,77.86,5.18C538.39,296.26,550.23,325.44,476.96,326.74"/>
	<path class="st10" d="M333.02,358.33c0,19.71-15.97,35.66-35.68,35.66c-3.83,0-7.52-0.61-10.95-1.73
		c-46.25,62.12-108.11,69.33-136.88,69.33c-29.81,0-26.59-22.05-7.14-22.05c20.34,0,37.97-2.44,53.2-6.4
		c-13.03-14.42-16.13-39.62-14.81-53.89c-8.76,4.37-18.03,10.41-27.38,18.79c-12.29,11.05-26.59,0.66-17.5-14.91
		c9.07-15.57,67.43-30.58,92.72-27.5c25.29,3.1,15.57,12.6,7.14,12.6c-4.52,0-17.04-1.12-33.47,3.02
		c-0.23,11.86,0.63,32.71,6.22,44.95c1.7,3.73,3.15,7.8,4.09,11.58c31.82-11.91,50.82-30.3,61.26-42.64
		c-7.47-6.53-12.16-16.13-12.16-26.82c0-19.71,15.97-35.66,35.66-35.66C317.04,322.68,333.02,338.63,333.02,358.33"/>
	<path class="st10" d="M423.15,433.07c-12.34,11.66-48,12.95-23.36-5.84c24.66-18.79,11.02-33.24-13.61-21.41
		c-0.86,0.41-1.73,0.84-2.56,1.24c7.44,42.41,13.05,110.55,5.82,202.35c-11.02,140.06-157.33,142.24-197.76,98.56
		c-16.23-17.5-4.55-29.18,14.91-16.84c19.45,12.32,138.1,27.22,151.72-106.99c7.87-77.48,4.5-129.11,0.1-164.57
		c-107.91,55.08-187.58,114.16-204.34,123.7c-18.16,10.39-71.34,36.98-90.79-1.29c-19.45-38.25,18.82-72.61,27.25-75.22
		c8.43-2.59,15.54,0,12.95,7.79c-2.59,7.77-16.48,18.01-18.16,31.77c-3.23,26.59,27.88,18.16,68.09-6.48
		c40.2-24.66,149.15-88.84,186.1-105.88c4.7-2.16,9.5-4.26,14.32-6.25c-1.45-9.6-2.51-17.37-2.67-23.82
		c-0.25-11.91,11.05-24.69,20.77-2.08c1.7,3.94,3.66,9.78,5.69,17.45c24.33-7.09,46.17-7.74,56.18,7.11
		C443.01,400.09,435.46,421.39,423.15,433.07"/>
	<path class="st10" d="M264.93,638.6c-0.61,0.05-1.19,0.05-1.78,0.05c9.52,4.77,15.39,11.96,13.36,16.81
		c-1.73,4.09-8.48,5.33-16.61,3.58h-0.03c-2.44-0.53-4.98-1.35-7.57-2.41c-1.02-0.43-1.98-0.86-2.92-1.35c0,0,0-0.02-0.03-0.02
		c-7.69-1.73-16.69-1.83-26.31-0.33c-13.28,2.05-27.83,7.16-41.95,15.31c-15.39,8.89-27.91,20.01-36.42,31.51
		c0.41,2.29-0.25,4.88-1.75,7.44c-1.52,2.62-3.94,5.21-7.01,7.46v0.03c-1.52,1.09-3.2,2.13-5.03,3.05
		c-5.61,2.8-11.38,3.86-15.92,3.25c-2.34,2.95-4.9,5.39-7.44,7.16c0.81,3.63,1.27,7.77,1.27,12.19c0,14.32-4.8,25.95-10.77,25.95
		c-5.94,0-10.77-11.63-10.77-25.95c0-12.22,3.5-22.45,8.23-25.19c1.12-2.26,2.56-4.55,4.29-6.78c0.99-1.3,2.03-2.49,3.1-3.58
		c-2.97,1.57-6.81,2.49-11,2.49c-9.37,0-16.94-4.62-16.94-10.36c0-5.74,7.57-10.39,16.94-10.39c2.49,0,4.88,0.33,6.98,0.94
		c-3.5-19.17,14.04-46.55,43.76-65.77c18.72-12.09,38.4-18.47,54.42-18.74c-1.57-5.05-1.68-10.16-0.43-14.68
		c-5.97,0.2-13.16-0.2-20.8-1.35c-19.89-2.95-35.35-9.57-34.56-14.81c0.76-5.2,17.5-7.06,37.36-4.11c3.94,0.59,7.67,1.3,11.17,2.14
		c-11.38-8.33-18.39-16.61-16.33-19.86c2.44-3.86,16.84,0.91,32.15,10.67c8.25,5.25,15.11,10.89,19.25,15.59
		c0.13,0.12,0.25,0.25,0.36,0.38h0.43h0.03c3.38,0.15,7.06,0.84,10.72,2.16c9.8,3.48,16.86,10.16,18.11,16.46
		c7.39,3.53,10.23,9.27-2.54,16.99c0.36,2.89,0.71,6.02,0.79,8.91c3.1-1.22,6.96-2.08,11.2-2.31c10.54-0.61,19.3,2.82,19.58,7.65
		C283.8,633.6,275.47,637.99,264.93,638.6"/>
	<path class="st10" d="M415.35,663.25c0.13,21.43,5.51,38.25,22.53,36.96c17.02-1.3,18.45-8.17,17.8-46.04
		c0,0,3.68-174.62,130.21-241.21c12.32-6.48,40.2-7.78,47.98,25.29c7.78,33.07-5.19,88.19,20.1,155.62
		c25.29,67.43,163.47,89.37,204.9-39.09c17.51-54.28-35.66-134.04-98.56-96.43c-16.86,9.85,12.73-0.99,34.36,16.86
		c51.87,42.8,27.23,122.55-38.9,125.79c-25.45,1.25-62.9-7.13-74.57-79.1c-11.67-71.97-11.02-157.56-107.64-134.22
		C476.95,411.02,414.71,556.27,415.35,663.25"/>
	<path class="st10" d="M762.16,341.14c0.08,0.81,0.1,1.63,0.1,2.44c0,18.64-15.11,33.73-33.73,33.73s-33.73-15.09-33.73-33.73
		c0-18.62,15.11-33.7,33.73-33.7c12.52,0,23.47,6.83,29.28,16.96c10.51-5.74,19.96-11.76,23.9-16.96
		c25.93-34.36-7.8-40.2-40.2-28.55c-32.43,11.68-101.81,45.05-172.49,77c-70.68,31.95-136.33,32.81-176.25-12.14
		c-20.85-23.52-6.55-35.63,12.55-20.11c12.62,10.29,42.46,44.09,108.59,17.5c66.13-26.56,222.39-105.04,272.32-92.72
		C834.28,262.72,840.91,319.02,762.16,341.14"/>
	<path class="st10" d="M555.89,278.57c-22.04-54.99-28.36-180.08,63.06-227.41c28.59-14.8,55.13-2.08,60.95,9.08
		c7.78,14.91-20.75-3.89-66.14,35.66c-45.39,39.55-37.26,155.94-33.02,179.69C583.99,293.74,567.33,307.11,555.89,278.57"/>
	<path class="st10" d="M602.23,258.25c12.11-29.83,46.55-99.46,106.2-122.81c59.66-23.34,129.16,9.96,102.45,61.6
		c-13.43,25.95-40.2,26.53-22.08,2.92c14.67-19.12,3.64-44.49-32.38-37.28c-12.97,2.59-72.56,20.45-135.52,104.39
		C607.28,285.23,592.87,281.34,602.23,258.25"/>
</g>
</svg>
