<?xml version="1.0" encoding="utf-8"?>
<!-- Generator: Adobe Illustrator 23.1.0, SVG Export Plug-In . SVG Version: 6.00 Build 0)  -->
<svg version="1.1" xmlns="http://www.w3.org/2000/svg" xmlns:xlink="http://www.w3.org/1999/xlink" x="0px" y="0px"
	 viewBox="0 0 1280 492.89" style="enable-background:new 0 0 1280 492.89;" xml:space="preserve">
<style type="text/css">
	.st0{display:none;}
	.st1{display:inline;fill:#B0B0B0;}
	.st2{fill:url(#SVGID_1_);}
	.st3{fill:url(#SVGID_2_);}
	.st4{fill:url(#SVGID_3_);}
	.st5{fill:url(#SVGID_4_);}
	.st6{fill:url(#SVGID_5_);}
	.st7{fill:url(#SVGID_6_);}
	.st8{fill:url(#SVGID_7_);}
	.st9{fill:url(#SVGID_8_);}
	.st10{fill:#040000;}
	.st11{fill:#FFFFFF;}
	.st12{clip-path:url(#SVGID_10_);}
	.st13{fill:none;}
	.st14{fill:#1A1A1A;}
</style>
<g id="BG" class="st0">
	<rect x="-195.6" y="-1218.35" class="st1" width="5644.36" height="2877.76"/>
</g>
<g id="圖層_1">
	<g>
		<defs>
			<rect id="SVGID_9_" y="-95.22" width="1280" height="720"/>
		</defs>
		<clipPath id="SVGID_1_">
			<use xlink:href="#SVGID_9_"  style="overflow:visible;"/>
		</clipPath>
		<path style="clip-path:url(#SVGID_1_);" d="M794,357.95c-3.29,0.38-6.15,0.76-9.02,1.04c-12.39,1.2-24.64,0.58-36.69-2.73
			c-6.41-1.76-12.44-4.38-17.64-8.58c-1.63-1.32-3.26-1.51-5.22-1.38c-26.27,1.68-51.65,7.68-76.53,15.93
			c-22.71,7.53-45.32,15.37-68.02,22.94c-4.24,1.41-8.66,2.35-13.05,3.22c-3.43,0.68-7.25-1.41-8.99-4.46
			c-1.14-2-0.85-4.04-0.03-6.04c2.08-5.13,4.21-10.25,6.3-15.37c0.38-0.93,0.69-1.88,1.24-3.38c-1.44,0.57-2.37,0.91-3.28,1.3
			c-10.04,4.27-20.41,7.06-31.4,5.73c-3.82-0.46-6.57,0.28-9.57,2.76c-7.03,5.8-15.55,8.37-24.43,9.85
			c-19.22,3.2-38.16,1.46-56.84-3.53c-6.55-1.75-12.91-4.16-19.34-6.33c-1.22-0.41-2.27-0.7-3.57-0.08
			c-19.17,9.22-39.19,16.27-59.4,22.72c-41.82,13.34-83.95,25.7-126.85,35.14c-23.57,5.18-47.24,10.06-71.19,13.2
			c-16.26,2.13-32.61,3.79-48.96,5.04c-11.48,0.88-22.96,0.05-34.13-3.32c-4.43-1.34-8.58-3.23-12.53-5.64
			c-12.33-7.51-10.1-23.12-0.5-29.32c6.34-4.09,12.99-7.57,20.27-9.75c11.32-3.39,22.82-6,34.45-8.11
			c11.51-2.09,23.02-4.15,34.52-6.3c2.12-0.4,4.19-1.11,6.96-1.86c-1.37-0.62-2.05-0.96-2.76-1.25c-7.47-3.06-14.65-6.69-21.34-11.2
			c-2.5-1.68-4.89-3.62-7-5.76c-6.56-6.66-7.63-15.79-3.08-23.95c3.54-6.36,9.15-10.19,15.66-12.9c5.4-2.24,10.84-4.36,16.89-6.79
			c-1.48-1.02-2.53-1.79-3.62-2.48c-14.77-9.3-29.56-18.57-44.31-27.9c-4.5-2.85-8.96-5.79-13.33-8.83
			c-4.72-3.29-8.34-7.55-10.68-12.86c-3.52-7.96-1.79-15.61,5.01-21.06c6.48-5.2,13.67-9.19,21.33-12.42
			c8.33-3.51,17.13-5.33,25.85-7.45c5.99-1.45,11.95-3,17.89-4.65c2.6-0.72,5.1-1.83,7.66-2.73c5.03-1.76,10.11-3.38,15.08-5.28
			c5.17-1.97,10.33-4.01,15.32-6.37c4.49-2.12,8.29-5.27,11.04-9.51c2.95-4.54,2.94-5.44-0.43-9.56c-0.97-1.19-2.23-2.2-3.51-3.07
			c-9.75-6.71-20.08-12.39-30.85-17.33c-19.49-8.93-39.28-17.07-59.46-24.31c-16.76-6.01-32.56-14.19-48.24-22.55
			c-10.33-5.5-19.17-13.03-27.11-21.6c-6.14-6.63-9.79-14.42-11.17-23.39c-0.72-4.7,0.72-8.44,3.8-11.71
			c4.71-5.01,10.49-8.19,17.16-9.84c6.94-1.71,13.9-1.33,20.88-0.34c16.36,2.33,31.87,7.62,47.09,13.8
			c8.7,3.54,17.33,7.31,25.82,11.34c22.31,10.58,45.05,20.1,68.82,26.83c14.76,4.18,29.79,7.41,44.7,11.09
			c10.68,2.64,21.52,4.23,32.46,5.25c0.91,0.08,1.83,0.01,3.26,0.01c-0.79-1.42-1.39-2.58-2.05-3.7c-1.11-1.89-2.44-3.68-3.34-5.66
			c-2.4-5.28,0.24-10,6.02-10.23c4.03-0.16,8.12,0.39,12.15,0.88c3.62,0.44,7.19,1.24,10.84,1.89c4.25-4.94,7.94-10.09,10.54-15.97
			c2.21-5,2.87-10.23,2.29-15.64c-0.65-6.04-1.64-12.01-3.74-17.74c-0.47-1.29-1.02-2.58,0.24-3.76c1.27-1.2,2.63-0.99,4.06-0.34
			c1.71,0.78,3.46,1.48,5.15,2.29c24.44,11.72,49.44,22.04,75.36,30.02c2.97,0.92,4.9,2.39,5.95,5.3c0.52,1.45,1.41,2.81,2.34,4.05
			c8.36,11.04,17.69,21.21,28.36,30.04c4.8,3.97,10.19,7.3,15.52,10.58c9.19,5.66,19.14,9.82,28.99,14.16
			c1.09,0.48,2.43,0.61,3.64,0.56c22.32-0.95,43.17,3.95,62.33,15.56c1.59,0.96,2.8,0.78,4.34,0.05
			c14.03-6.71,28.71-11.44,44.03-14.1c10.43-1.81,20.94-2.77,31.53-2.13c7.33,0.45,14.5,1.85,21.56,3.84
			c2.24,0.63,4.4,0.79,6.75,0.65c22.16-1.25,40.56,6.22,54.41,23.94c0.32,0.41,0.64,0.82,0.97,1.23c0.06,0.07,0.18,0.11,0.61,0.35
			c1.01-0.36,2.29-0.75,3.51-1.28c18.11-7.87,36.27-15.64,54.31-23.68c10.72-4.77,20.77-10.85,30.4-17.5
			c7.33-5.07,13.51-11.52,18.82-18.72c4.72-6.4,9.22-12.93,12.26-20.36c0.43-1.05,1.47-2.04,2.48-2.63
			c10.17-5.99,20.35-11.97,30.62-17.79c17-9.64,34.06-19.16,51.1-28.71c1.91-1.07,3.87-2.07,5.86-2.98c0.9-0.41,1.94-0.49,3.34-0.83
			c0,1.22,0.02,2.02,0,2.82c-0.38,12.44-0.49,24.88,1.22,37.25c1.12,8.11,3.09,16.01,6.87,23.35c1.58,3.07,3.37,6.01,6.19,8.57
			c0.93-0.62,1.87-1.23,2.78-1.86c15.67-10.82,30.32-22.98,45.3-34.7c8.23-6.44,16.65-12.63,25.07-18.82
			c2.09-1.54,4.48-2.67,6.76-3.95c2.16-1.21,4.18-1.06,6.53-0.02c11.57,5.09,23.17,10.21,35.53,13.07
			c12.21,2.82,24.51,5.24,36.82,7.57c3.87,0.73,7.9,0.68,11.87,0.89c0.91,0.05,1.88-0.16,2.74-0.49c3.12-1.18,6.28-2.3,9.3-3.72
			c17.61-8.26,35.48-15.85,54.24-21.15c9.07-2.56,18.25-4.43,27.72-4.86c12.1-0.56,22.29,3.43,30.86,11.98
			c7.68,7.66,9.94,18.25,5.77,28.27c-1.71,4.1-4.1,7.75-7.05,11.05c-4.78,5.34-10.35,9.72-16.46,13.43
			c-7.72,4.69-15.88,8.49-24.47,11.17c-23.96,7.48-46.98,17.47-70.45,26.24c-9,3.36-17.93,6.92-26.91,10.35
			c-1.41,0.54-2.5,1.23-3.27,2.66c-7.17,13.47-10.28,27.96-10.85,43.08c-0.03,0.83,0,1.66,0,2.71c1.14,0.4,2.19,0.8,3.25,1.14
			c16.73,5.32,33.71,9.71,50.79,13.76c12.74,3.02,24.42,8.52,34.86,16.54c3.72,2.86,6.38,6.43,6.74,11.2
			c0.17,2.23-0.15,4.6-0.76,6.76c-3.16,11.18-9.93,19.89-18.92,27.02c-17.12,13.58-35.46,25.12-55.86,33.17
			c-0.57,0.23-1.13,0.5-2.11,0.94c0.94,0.42,1.52,0.73,2.12,0.95c6.77,2.47,13.6,4.76,20.27,7.47c3.26,1.32,6.38,3.16,9.26,5.2
			c9.31,6.56,7.62,21.08-0.43,26.15c-2.72,1.71-5.66,3.15-8.66,4.3c-4.39,1.67-8.92,2.97-13.39,4.43c-0.78,0.26-1.55,0.56-2.99,1.08
			c1.93,0.63,3.24,1.12,4.59,1.48c11.81,3.16,23.65,6.18,35.43,9.46c14.91,4.15,29.6,8.95,43.32,16.29c4.98,2.66,9.95,5.3,13.98,9.4
			c5.98,6.08,6.39,13.98,0.91,20.57c-2.24,2.69-4.96,4.81-8.05,6.4c-8.25,4.22-16.85,7.46-26.21,7.88
			c-5.63,0.25-11.28,0.15-16.92-0.06c-17.06-0.64-33.91-3.23-50.7-6.11c-26.37-4.51-52.64-9.52-78.58-16.13
			c-29.16-7.44-58.12-15.63-86.51-25.65c-18.56-6.55-36.34-14.9-53.84-23.85c-2.11-1.08-3.65-1.32-5.62,0.25
			c-1.6,1.28-3.59,2.12-5.5,2.97c-20.76,9.19-42.47,14.51-65.16,15.71c-4.52,0.24-8.97-0.2-13.38-1.24
			c-7.62-1.81-9.53-7.97-8.18-13.2c0.83-3.24,1.6-6.49,2.35-9.75C793.42,361.38,793.64,359.86,794,357.95 M154.56,352.84
			c-0.03,0.31-0.07,0.61-0.1,0.92c0.91,0.64,1.75,1.45,2.75,1.9c2.95,1.3,5.91,2.66,8.98,3.62c3.38,1.06,6.89,1.68,10.34,2.52
			c4.24,1.04,8.06,2.88,11.1,6.1c4.97,5.27,3.99,11.47-2.48,14.65c-2.7,1.33-5.59,2.43-8.51,3.09c-14.36,3.24-28.72,6.44-43.14,9.38
			c-14.22,2.9-28.53,5.36-42.75,8.26c-7.89,1.61-15.62,3.88-22.61,8.09c-1.06,0.64-2.16,1.33-2.99,2.23
			c-2.46,2.66-2.05,6.11,1.04,7.96c1.68,1,3.58,1.7,5.47,2.26c5.54,1.63,11.26,2.29,17.01,2.57c18.02,0.86,35.94-0.48,53.78-2.88
			c11.49-1.55,22.93-3.41,34.38-5.2c22.72-3.56,45.14-8.51,67.19-15.08c29.45-8.78,58.36-19,86.34-31.8
			c12.54-5.74,24.14-12.83,34.67-21.72c7.95-6.72,14.36-14.6,18.3-24.31c1.81-4.44,3.55-8.93,4.98-13.5
			c4.63-14.84,5.7-29.89,2.38-45.18c-1.89-8.69-3.97-17.3-7.78-25.41c-2.49-5.28-4.45-10.84-7.33-15.89
			c-17.47-30.62-41.49-54.86-71.78-72.89c-11.44-6.8-23.27-12.84-35.92-17.03c-15.15-5.02-30.4-9.78-45.71-14.31
			c-17.66-5.23-34.85-11.69-51.52-19.46c-14.1-6.57-27.98-13.62-41.93-20.52c-10.86-5.37-21.77-10.64-33.31-14.43
			c-11.3-3.71-22.84-5.97-34.8-5.4c-4.51,0.22-8.97,0.84-12.99,3.09c-3.88,2.17-5.21,5.27-3.91,9.48c0.61,1.97,1.44,3.99,2.66,5.62
			c1.93,2.57,4.06,5.09,6.49,7.18c7.37,6.34,15.8,10.97,24.96,14.09c23.02,7.84,46.08,15.55,69.16,23.21
			c9.61,3.19,19.52,5.54,28.9,9.27c15.32,6.09,30.35,12.91,45.42,19.6c6.34,2.81,11.98,6.82,17.06,11.55
			c3.08,2.87,5.78,6.05,7.65,9.85c2.52,5.12,3.13,10.38,0.89,15.75c-1.47,3.52-3.66,6.58-6.58,9.04
			c-5.72,4.82-12.22,8.31-19.07,11.26c-17.93,7.72-36.89,12.05-55.64,17.05c-13.72,3.66-27.53,6.98-40.97,11.57
			c-5.22,1.79-10.35,3.93-15.34,6.28c-2.6,1.22-5.03,3.02-7.16,4.98c-3.37,3.1-3.52,6.38-0.67,10.01c1.27,1.62,2.85,3.07,4.52,4.29
			c6.18,4.53,12.73,8.42,20.05,10.81c6.55,2.14,13.07,4.4,19.73,6.12c12.13,3.13,24.38,5.79,36.53,8.85
			c10.03,2.53,19.91,5.6,29.07,10.58c3.7,2.01,7.14,4.35,9.91,7.58c4.55,5.32,5.03,11.37,1.41,17.38c-1.87,3.11-4.49,5.49-7.4,7.56
			c-4.9,3.48-10.3,6.01-16.04,7.67c-13.42,3.89-26.68,8.46-40.57,10.59C157.27,351.92,155.93,352.45,154.56,352.84 M1111.94,349.84
			c-1.04-0.39-1.5-0.59-1.97-0.74c-12.6-4.12-25.19-8.28-37.81-12.35c-6.38-2.06-12.64-4.35-18.25-8.12c-2.97-2-5.66-4.31-7.68-7.3
			c-4.28-6.33-3.83-13.01,1.36-18.62c1.48-1.6,3.15-3.1,4.97-4.28c2.79-1.82,5.7-3.51,8.71-4.93c9.1-4.31,18.76-7.03,28.49-9.44
			c7.9-1.96,15.92-3.5,23.74-5.73c15.93-4.55,30-13.04,44.04-21.51c1.07-0.64,2.07-1.43,2.99-2.28c1.53-1.41,3.09-2.83,4.42-4.43
			c2.41-2.9,2.23-4.86-0.84-7.1c-2.18-1.59-4.53-3.07-7.02-4.08c-6.08-2.48-12.18-5.04-18.46-6.88
			c-13.71-4.03-27.53-7.72-41.34-11.4c-17.14-4.57-34.4-8.75-50.78-15.76c-6.85-2.93-13.43-6.41-18.93-11.48
			c-5.41-4.99-8.5-11.08-7.18-18.75c0.77-4.46,3-8.21,5.85-11.62c4.62-5.53,10.27-9.84,16.55-13.25c4.85-2.63,9.91-4.9,14.95-7.19
			c18.82-8.55,37.93-16.23,57.78-22.24c24.96-7.56,49.57-16.26,74.32-24.53c7.47-2.5,14.39-6.16,20.89-10.59
			c3.99-2.72,7.76-5.74,10.51-9.77c1.4-2.05,2.66-4.29,3.46-6.62c1.45-4.24,0-7.69-3.96-9.75c-1.83-0.95-3.85-1.64-5.87-2.09
			c-8.52-1.92-17.05-1.14-25.54,0.29c-12.46,2.09-24.17,6.53-35.56,11.82c-19.04,8.84-37.61,18.64-55.95,28.84
			c-8.31,4.62-16.76,8.91-25.39,12.91c-11.37,5.27-22.43,11.19-33.78,16.49c-29.36,13.71-59.31,25.96-90.15,35.97
			c-10.82,3.51-21.73,6.77-32.53,10.36c-6.87,2.28-13.42,5.36-19.01,10.05c-2.22,1.86-4.21,4.07-5.97,6.37
			c-1.73,2.26-1.62,4.19,0.37,6.22c1.57,1.61,3.48,3.04,5.49,4.04c2.41,1.19,5.06,1.95,7.67,2.69c10.53,2.97,21.35,3.94,32.22,4.3
			c11.82,0.39,23.59-0.58,35.37-1.59c9.47-0.81,18.98-1.13,28.47-1.75c5.46-0.35,10.88-0.02,16.22,1.04
			c3.59,0.71,7.12,1.79,9.82,4.53c2.76,2.8,3.48,5.97,1.62,9.43c-1.11,2.07-2.69,3.98-4.37,5.65c-2.14,2.13-4.62,3.92-6.91,5.9
			c-4.58,3.96-9.21,7.88-13.69,11.97c-2.52,2.3-4.87,4.84-6.34,8.01c0.27,0.33,0.41,0.66,0.66,0.8c3.56,2.02,5.49,5,5.62,9.14
			c0.04,1.3,0.94,1.99,2.09,2.47c3.56,1.48,7.14,2.92,10.64,4.55c1.96,0.92,4.01,1.9,5.58,3.33c3.22,2.94,3.46,6.9,0.92,10.46
			c-0.84,1.18-1.93,2.19-2.95,3.23c-3.06,3.14-6.17,6.24-9.2,9.42c-0.63,0.66-1.14,1.5-1.48,2.35c-1.86,4.61-4.48,8.67-8.07,12.15
			c-9.47,9.18-21.02,14.63-33.36,18.61c-1.82,0.59-3.91,0.49-5.88,0.44c-4.18-0.1-7.81-3.99-4.34-8.84
			c1.18-1.64,2.15-3.43,3.48-5.58c-15.14,6.87-29.82,7.95-44.6,1.63c-2.01,11.59-4.03,23.17-6.06,34.88
			c6.51,4.8,13.19,9.38,20.6,12.91c41.36,19.72,84.49,34.37,129.14,44.44c22.51,5.08,45.27,9.03,68.26,11.38
			c11.12,1.14,22.25,2.21,33.4,2.87c10.44,0.62,20.92,0.43,31.23-1.69c3.24-0.67,6.49-1.7,9.45-3.15c3.53-1.74,3.83-5.46,1.06-8.31
			c-0.58-0.59-1.25-1.14-1.98-1.52c-2.59-1.35-5.16-2.77-7.85-3.88c-6.39-2.63-13.07-4.37-19.84-5.66
			c-16.72-3.18-33.49-6.08-50.17-9.42c-11.04-2.21-22.01-4.85-32.94-7.58c-3.18-0.8-6.34-2.22-9.14-3.95
			c-3.83-2.36-4.68-6.82-2.44-10.74c0.81-1.42,1.93-2.74,3.13-3.87c2.48-2.32,5.47-3.84,8.75-4.69c3.54-0.91,7.13-1.6,10.65-2.57
			C1104.79,353.2,1108.34,352.28,1111.94,349.84 M407.37,323.9c22.03,15.97,47,24.59,72.7,32.2c0-0.91,0.07-1.52-0.01-2.12
			c-1.59-12.21-3.19-24.43-4.79-36.64c-1.51-11.49-2.82-23-4.59-34.45c-2.95-19.19-6.04-38.35-9.36-57.48
			c-2.32-13.37-5.07-26.66-7.71-39.97c-1.5-7.57-3.2-15.1-4.71-22.67c-0.33-1.63-1.33-2.14-2.71-2.58
			c-9.03-2.94-18.02-6.01-27.09-8.85c-2.07-0.65-3.13-1.69-3.58-3.74c-0.78-3.56-1.65-7.11-2.63-10.63
			c-2.59-9.35-5.31-18.67-7.86-28.04c-0.47-1.71-1.46-2.6-2.9-3.38c-7.18-3.85-14.41-7.62-21.47-11.67
			c-11.79-6.76-23.71-13.23-36.36-18.27c-0.72-0.29-1.45-0.56-2.22-0.86c-0.08,0.44-0.2,0.67-0.14,0.83
			c6.56,17.61,13.14,35.21,19.7,52.82c0.6,1.6,1.03,3.27,1.7,5.43c-16.89-4.76-32.91-10.28-49.7-14.52c0,1.16-0.08,1.88,0.01,2.57
			c0.74,5.69,1.7,11.37,2.19,17.08c0.23,2.69,1.51,3.68,3.79,4.53c14.56,5.45,29.08,11.01,43.61,16.56c3.09,1.18,3.24,1.33,3.1,4.54
			c-0.09,2.29-0.35,4.58-0.67,6.85c-0.26,1.88,0.01,3.37,1.57,4.73c1.72,1.5,3.16,3.33,4.63,5.09c8.72,10.48,15.98,21.94,22.48,33.9
			c0.48,0.88,1.01,1.73,1.91,3.25c1.07-7.99,2.06-15.21,3.01-22.45c0.83-6.31,1.58-12.64,2.43-18.95c0.13-0.96,0.6-1.88,0.99-3.06
			c1.32,0.44,2.3,0.75,3.26,1.09c3.24,1.15,6.48,2.33,9.73,3.48c3.64,1.28,3.61,1.27,3.87,4.98c0.43,6.04,0.87,12.08,1.39,18.11
			c1.16,13.32,2.37,26.63,3.57,39.95c0.96,10.72,1.92,21.43,2.89,32.15c0.63,6.97,1.31,13.93,1.93,20.9
			c0.13,1.52-0.46,2.15-1.99,2.08c-1.35-0.06-2.69-0.33-4.03-0.51c-2.54-0.32-5.08-0.64-7.74-0.98
			C413.93,305.22,412.22,314.77,407.37,323.9 M785,336.71c9.78,0.01,19.33-1.62,28.8-3.88c18.61-4.45,34.84-13.28,48.67-26.46
			c10.76-10.25,18.75-22.36,24.14-36.21c5.71-14.66,6.45-29.49,1.6-44.48c-5.84-18.06-18.26-30.4-34.84-38.8
			c-8.69-4.4-18.03-7.15-27.48-9.51c-6.07-1.52-12.25-1.29-18.4-1.21c-3.53,0.05-7.1,0.37-10.56,1.05
			c-11.18,2.2-21.41,6.93-31.48,12.09c-12.11,6.2-22.98,14.04-32.29,24c-1.16,1.24-1.57,2.39-1.33,4.17
			c1.17,8.37,0.3,16.67-1.41,24.9c-2.75,13.26-8.43,25.31-15.31,36.86c-0.81,1.36-1.02,2.61-0.81,4.14
			c1.51,11.07,5.35,21.24,11.73,30.4c1.11,1.59,2.61,3.02,4.2,4.15c2.8,2,5.79,3.73,8.72,5.53C753.09,332.1,768.38,336.7,785,336.71
			 M539.15,175.36c-3.07-1.71-5.96-3.61-9.07-5.01c-19.64-8.81-39.18-9.24-58.49,1.06c-4.29,2.29-5.47,4.34-4.82,9.1
			c1.03,7.54,2.1,15.09,3.35,22.6c2.19,13.17,4.52,26.32,6.79,39.47c1.29,7.51,2.54,15.03,3.84,22.54
			c3.65,21.08,7.37,42.15,10.93,63.24c0.44,2.6,1.71,4.16,3.91,5.16c8.01,3.64,16.19,6.72,25.03,7.67
			c17.29,1.86,32.8-2.11,45.74-14.16c13.73-12.79,20.4-29.04,22.53-47.35c1.64-14.09,0.24-27.93-3.84-41.52
			c-4.21-14.03-10.18-27.18-19.25-38.78c-2.23-2.86-4.81-5.45-7.24-8.18c-1.97,0.87-3.69,1.62-5.39,2.39
			c-4.87,2.2-9.91,3.95-15.19,4.78c-1.99,0.31-4.23,0.19-6.13-0.42c-3.91-1.25-5.47-4.6-4.01-8.48c0.75-2.01,1.9-3.98,3.28-5.62
			C533.51,180.99,536.24,178.39,539.15,175.36 M881.82,188.92c5.02-9.47,12.77-15.01,21.55-19.31c3.65-1.79,7.41-3.41,11.26-4.72
			c8.69-2.97,17.48-5.68,26.21-8.53c31.12-10.14,61.32-22.6,91.3-35.69c13.08-5.71,25.49-12.52,37.59-19.98
			c1.74-1.07,3.38-2.31,5.44-3.72c-1.49-0.55-2.43-0.93-3.39-1.25c-8.61-2.91-17.17-5.91-25.41-9.83c-4.8-2.28-9.86-3.99-14.76-6.07
			c-3.36-1.42-6.35-1.04-9.53,0.76c-8.43,4.78-15.77,10.96-23.1,17.19c-4.54,3.85-9.06,7.77-13.92,11.19
			c-7.69,5.41-15.8,10.23-23.48,15.65c-14.68,10.35-30.66,18.32-46.81,25.97c-2.91,1.38-6.05,2.28-9.13,3.24
			c-1.74,0.54-3.53,0.32-5.12-0.71c-2.33-1.51-2.92-3.4-2.24-6.91c1.24-6.46,2.7-12.89,3.63-19.4c2.48-17.38,4.95-34.75,8.92-51.87
			c0.15-0.64,0.17-1.3,0.29-2.25c-0.68,0.35-1.06,0.51-1.4,0.73c-19.37,12.57-38.74,25.15-58.13,37.69
			c-1.37,0.88-1.95,2.01-2.29,3.51c-1.11,4.89-2.25,9.77-3.52,14.62c-2.64,10.09-5.39,20.16-8.04,30.25
			c-0.39,1.49-0.52,3.04-0.76,4.49C853.22,170.1,868.7,177,881.82,188.92 M1000.54,281.78c-3.01-1.6-5.66-2.85-8.14-4.35
			c-5.74-3.46-6.13-8.29-1.12-12.68c0.61-0.53,1.32-0.94,2.07-1.47c-2.13-1.8-3.82-3.2-5.48-4.62c-3-2.58-4.22-5.86-3.91-9.78
			c0.27-3.39,1.69-6.27,4.08-8.59c2.55-2.47,5.21-4.83,7.95-7.08c3.06-2.51,5.46-5.45,6.96-9.11c0.25-0.61,0.33-1.3,0.58-2.35
			c-17.78,4.42-35.37,3.13-52.95,1.64c-17.57-1.49-34.88-4.32-51.66-11.37c0.33,0.97,0.43,1.37,0.6,1.75
			c5.05,11.3,6.89,23.15,6.2,35.47c-0.47,8.3-2.06,16.38-4.65,24.24c-2.33,7.06-5.58,13.7-9.64,19.99
			c-4.6,7.13-9.65,13.92-15.42,20.12c-7.15,7.69-15.39,14.12-24.27,19.73c-10.13,6.39-20.86,11.46-32.35,14.9
			c-1.49,0.45-2.47,1.2-2.86,2.9c-0.77,3.35-1.86,6.63-2.75,9.96c-0.31,1.17-0.43,2.39-0.7,3.97c1.51-0.1,2.65-0.03,3.73-0.28
			c4.78-1.09,9.62-2.02,14.3-3.45c16.68-5.07,33.31-10.32,49.97-15.49c1.89-0.59,3.83-1.05,5.69-1.74c1.36-0.51,2.57-1.21,2.95-2.92
			c0.93-4.17,1.94-8.33,3.07-12.45c3.33-12.18,6.98-24.28,9.19-36.74c0.23-1.31,0.53-2.82,2.14-3.17c1.52-0.33,2.14,1.05,2.95,1.95
			c5.5,6.15,11.67,11.5,19.58,14.22c13.7,4.71,26.14,2.76,36.57-7.92c1.38-1.41,2.51-3.07,3.75-4.62c1.3-1.63,2.48-3.38,3.93-4.87
			c2.02-2.08,4.97-2.36,7.16-0.92c2.1,1.38,3,4.01,2.14,6.66c-0.35,1.08-1.1,2.02-1.52,3.08c-0.93,2.37-2.81,4.42-2.55,7.83
			C984.44,296.63,993.78,290.9,1000.54,281.78 M596.77,351.94c4.76-0.4,9.03-0.6,13.26-1.14c12.18-1.55,23.9-4.93,35.4-9.15
			c13.61-5,26.3-11.76,38.4-19.67c4.68-3.06,8.67-6.9,12.2-11.19c2.27-2.75,3.22-6.04,3.19-9.61c-0.03-3.26-2.19-5.17-4.27-7.31
			c-2.53-2.6-4.82-5.49-6.85-8.5c-2.07-3.06-1.38-6.2,0.86-8.99c0.64-0.8,1.53-1.42,2.28-2.14c1.5-1.45,3.16-2.77,4.43-4.39
			c6.36-8.07,10.5-17.2,13.26-27.1c2.08-7.47,2.24-14.7,0.38-22.22c-2.8-11.34-7.06-21.83-15.15-30.52
			c-6.15-6.6-13.39-11.68-21.55-15.35c-3.18-1.43-6.78-1.98-10.2-2.84c-1.91-0.48-3.21,0.4-3.93,2.2c-0.27,0.68-0.62,1.33-0.87,2.01
			c-1.78,4.9-3.62,9.79-5.31,14.72c-6.26,18.28-12.39,36.6-18.71,54.86c-12,34.64-24.09,69.24-36.14,103.86
			C597.24,350.06,597.12,350.67,596.77,351.94 M644.8,159.48c-10.6-1.08-55.53,16.66-66.21,26.09
			c16.96,17.94,24.44,40.49,30.28,63.78c1.82-0.29,2.27-1.66,2.74-2.89c2.87-7.5,5.84-14.96,8.5-22.54
			c7.33-20.87,15.46-41.43,23.92-61.87C644.33,161.3,644.49,160.5,644.8,159.48 M596.72,158.25c-0.1-0.25-0.2-0.5-0.3-0.75
			c-1.74,0-3.55-0.31-5.22,0.05c-15.1,3.21-29.43,8.4-42.27,17.18c-1.11,0.76-2.12,1.68-3.07,2.64c-0.75,0.75-1.34,1.73-0.61,2.8
			c0.75,1.09,1.81,0.77,2.81,0.33c0.38-0.17,0.74-0.38,1.11-0.57c14.3-7.27,28.68-14.36,43.87-19.65
			C594.34,159.81,595.49,158.93,596.72,158.25 M1058.96,197.64c1.63-7.1,3.12-13.58,4.72-20.55c-6.73,3.66-12.15,8.01-17.37,13.38
			C1050.72,192.98,1054.76,195.26,1058.96,197.64 M540.54,183.93c-2.63-1.28-5.2-0.7-6.9,1.51c-1.13,1.46-1.07,3.42,0.14,4.56
			c1.32,1.25,3.39,1.13,4.73-0.42C539.9,187.98,540.89,186.16,540.54,183.93"/>
		<path style="clip-path:url(#SVGID_1_);" d="M613.09,392.69c-1.25-0.06-2.52-0.01-3.75-0.21c-1.9-0.31-3.18-1.61-3.4-3.22
			c-0.22-1.61,0.71-3.05,2.55-3.88c0.57-0.25,1.18-0.41,1.78-0.59c20.79-6.31,41.57-12.66,62.39-18.9c8.1-2.43,16.28-4.62,24.43-6.9
			c1.21-0.34,2.43-0.64,3.67-0.81c2.88-0.4,5.39,0.93,6.48,3.34c1.08,2.39,0.61,5.46-1.6,7.12c-1.62,1.21-3.62,2.08-5.58,2.63
			c-9.06,2.52-18.16,4.9-27.26,7.27c-16.08,4.18-32.15,8.36-48.26,12.41c-3.73,0.94-7.59,1.34-11.4,2
			C613.13,392.85,613.11,392.77,613.09,392.69"/>
		<path style="clip-path:url(#SVGID_1_);" d="M725.12,154.98c-3.54,0.12-6.85-0.75-10.04-2.17c-10.31-4.58-21.17-7.08-32.34-8.3
			c-3.84-0.42-7.71-0.55-11.56-0.85c-2.67-0.21-3.92-1.04-4.38-2.81c-0.47-1.78,0.35-3.92,2.4-4.99c1.62-0.85,3.49-1.35,5.31-1.66
			c5.64-0.94,11.23-0.28,16.81,0.78c7.93,1.52,15.8,3.47,22.98,7.11c7.34,3.72,14.65,3.62,22.24,1.8
			c12.69-3.03,25.47-5.77,37.6-10.75c1.15-0.47,2.37-0.85,3.59-1.08c1.85-0.35,3.21,0.31,3.63,1.64c0.5,1.57-0.25,2.72-1.53,3.41
			c-3.66,2-7.24,4.25-11.11,5.77c-12.55,4.94-25.37,9.02-38.64,11.56C728.46,154.77,726.77,154.81,725.12,154.98"/>
		<path style="clip-path:url(#SVGID_1_);" d="M1163.1,379.08c-3.61-0.7-7.67-1.16-11.54-2.31c-5.5-1.63-9.82-5.05-12.58-10.17
			c-0.73-1.34-1.29-2.9-1.43-4.4c-0.32-3.5,2.07-5.98,5.59-6.11c0.73-0.03,1.47-0.02,2.19,0.1c5.95,1.01,11.93,1.92,17.84,3.15
			c2.83,0.59,5.65,1.57,8.25,2.83c2.01,0.98,3.92,2.45,5.44,4.1c4.07,4.41,2.67,9.49-3.1,11.04
			C1170.47,378.21,1167,378.46,1163.1,379.08 M1146.79,362.35c3.25,6.33,15.21,8.91,22.86,6.99
			C1162.38,365.17,1154.94,363.39,1146.79,362.35"/>
		<path style="clip-path:url(#SVGID_1_);" d="M349.41,45.09c-2.48-0.49-5.21-0.77-7.78-1.57c-6.47-2-12.93-4.09-19.27-6.44
			c-2.7-1-5.28-2.52-7.61-4.22c-3.11-2.26-3.78-5.2-2.42-8.24c1.48-3.29,4.96-5.48,8.29-4.9c1.71,0.3,3.45,0.93,4.96,1.79
			c5.61,3.21,11.11,6.6,16.68,9.87c1.52,0.89,3.17,1.57,4.69,2.45c2.33,1.35,4.69,2.69,6.88,4.24c0.87,0.62,1.52,1.73,1.95,2.76
			c0.73,1.75,0,3.13-1.82,3.58C352.55,44.75,351.08,44.85,349.41,45.09"/>
		<path style="clip-path:url(#SVGID_1_);" d="M950.93,45.01c-1.08-0.16-2.33-0.26-3.55-0.53c-2.01-0.45-2.81-1.8-2.1-3.69
			c0.35-0.94,0.96-1.93,1.73-2.53c1.8-1.4,3.71-2.67,5.68-3.81c2.96-1.72,6.04-3.23,9.01-4.94c4.61-2.64,9.14-5.42,13.78-8.01
			c1.43-0.8,3.05-1.43,4.65-1.73c3.89-0.73,8.11,2.2,8.98,6.06c0.52,2.3,0.09,4.44-1.68,6.03c-1.46,1.31-3.04,2.64-4.8,3.44
			c-9.32,4.24-18.96,7.55-29.06,9.43C952.77,44.87,951.94,44.9,950.93,45.01"/>
		<path style="clip-path:url(#SVGID_1_);" d="M235.34,69.12c2.84,0.39,5.34,0.59,7.78,1.11c6.63,1.41,10.78,5.7,12.94,11.91
			c1.87,5.36-0.99,10.51-6.54,11.8c-2.18,0.51-4.59,0.64-6.79,0.3c-6.15-0.95-11.35-4-15.89-8.18c-1.95-1.8-3.31-4-3.92-6.63
			c-0.96-4.17,0.95-7.91,5.05-9.1C230.43,69.6,233.07,69.47,235.34,69.12 M248.12,85.32c-0.42-3.09-1.88-5.53-3.56-7.71
			c-1.08-1.4-2.74-2.72-4.78-2.59c-2.48,0.17-4.95,0.54-7.4,0.94c-0.62,0.1-1.17,0.66-1.72,0.99
			C232.93,82.34,241.82,86.62,248.12,85.32"/>
		<path style="clip-path:url(#SVGID_1_);" d="M950.89,27.25c-0.34,0.65-0.71,2.26-1.72,3.09c-3.12,2.58-6.46,4.91-9.79,7.21
			c-0.71,0.49-1.78,0.62-2.69,0.65c-3.31,0.11-5.19-2.48-4.14-5.64c0.19-0.59,0.43-1.2,0.8-1.68c2.84-3.7,6.38-6.65,10.57-8.63
			C947.29,20.65,950.82,22.97,950.89,27.25"/>
		<path style="clip-path:url(#SVGID_1_);" d="M368.78,33.26c0.01,3.08-1.36,4.84-3.54,4.87c-1.49,0.02-3.22-0.26-4.45-1.03
			c-2.91-1.82-5.6-3.98-8.34-6.06c-0.57-0.43-1.03-1.05-1.41-1.66c-1.15-1.84-1.25-3.74,0-5.58c1.18-1.73,3.39-2.43,5.57-1.79
			c0.59,0.17,1.23,0.39,1.7,0.77c2.85,2.26,5.79,4.45,8.43,6.94C367.89,30.77,368.38,32.51,368.78,33.26"/>
		<path style="clip-path:url(#SVGID_1_);" d="M729.65,367.73c-1.12-0.17-2.28-0.21-3.35-0.55c-1.61-0.5-2.62-1.67-2.78-3.4
			c-0.15-1.59,0.44-3.01,1.85-3.67c2.43-1.14,4.93-2.21,7.5-2.91c2.2-0.6,4.3,0.68,5.14,2.56c0.89,2,0.27,4.41-1.6,5.84
			C734.43,367.13,732.1,367.56,729.65,367.73"/>
		<path style="clip-path:url(#SVGID_1_);" d="M759.79,264.13c0.56-12.65,5-24.08,14.17-33.48c8.99-9.2,19.87-14.49,32.67-16.43
			c9.17-1.39,17.88-0.55,26.46,2.61c6.36,2.34,11.99,5.91,16.73,10.76c10.53,10.77,14.23,23.77,12.32,38.52
			c-1.42,10.99-6.3,20.43-14.32,27.88c-15.47,14.38-33.62,19.84-54.37,14.27c-15.15-4.07-25.58-13.66-31.19-28.33
			C760.37,274.99,759.96,269.76,759.79,264.13 M827.11,264.54c0.46-0.49,0.9-0.92,1.29-1.39c2.86-3.45,5.89-6.78,8.53-10.38
			c3.3-4.5,1.2-8.77-4.33-9.29c-1.93-0.18-3.72,0.18-5.44,1.05c-4.37,2.2-8.76,4.37-13.28,6.61c-0.8-0.68-1.59-1.34-2.37-2.01
			c-4.55-3.87-9.35-7.38-14.67-10.1c-3.58-1.82-6.7-0.02-7.27,3.95c-0.28,1.96,0.03,3.75,1.17,5.36c2.24,3.14,4.51,6.27,6.76,9.4
			c0.59,0.82,1.15,1.65,1.77,2.53c-0.7,0.57-1.21,0.93-1.66,1.35c-3.44,3.19-6.97,6.28-10.24,9.63c-1.35,1.38-2.36,3.22-3.11,5.02
			c-1.57,3.81,0.54,7.14,4.64,7.18c2.35,0.02,4.86-0.28,7.04-1.11c4.57-1.74,8.97-3.93,13.43-5.95c0.92-0.41,1.81-0.88,2.78-1.36
			c0.8,0.86,1.41,1.57,2.07,2.23c3.6,3.64,7.23,7.24,10.79,10.92c1.67,1.73,3.75,2.65,5.98,3.24c4.16,1.1,7.3-1.28,7.46-5.59
			c0.03-0.82-0.01-1.72-0.3-2.47c-1.03-2.61-1.9-5.33-3.34-7.7C832.5,271.92,829.82,268.43,827.11,264.54"/>
		<path style="clip-path:url(#SVGID_1_);" d="M514.81,257.08c-1.88-1.94-3.65-3.58-5.18-5.4c-1.33-1.59-2.66-3.27-3.53-5.13
			c-1.9-4.05-1.38-8.03,1.53-11.43c2.92-3.43,6.81-4.44,11.08-3.21c2.07,0.6,4.05,1.68,5.88,2.84c2.73,1.73,5.29,3.74,7.93,5.62
			c2.05,1.46,2.03,1.42,4.11,0.06c3.58-2.34,7.11-4.78,10.82-6.89c1.86-1.06,4.05-1.79,6.17-2.1c5.01-0.72,9.54,2.08,11.25,6.61
			c1.34,3.55,0.47,6.9-1.44,9.86c-1.57,2.43-3.73,4.48-5.65,6.68c-0.74,0.85-1.54,1.64-2.96,3.16c0.94,0.53,1.76,0.83,2.38,1.37
			c1.73,1.51,3.44,3.06,5.03,4.71c1.15,1.2,2.27,2.49,3.12,3.91c2.19,3.65,2.66,7.52,0.44,11.31c-2.23,3.8-5.87,5.4-10.11,4.95
			c-2.75-0.3-5.58-1.07-8.06-2.27c-3.65-1.77-7.04-4.07-10.5-6.22c-2.36-1.47-2.31-1.5-4.67,0.12c-3.01,2.07-5.94,4.31-9.12,6.07
			c-2.62,1.45-5.49,2.61-8.38,3.35c-1.93,0.49-4.2,0.39-6.16-0.09c-5.96-1.47-9.13-7.49-6.88-13.21c0.85-2.17,2.32-4.22,3.92-5.95
			C508.55,262.81,511.61,260.13,514.81,257.08 M520.03,267.68c-0.34,0.06-1.18-0.02-1.75,0.34c-3,1.84-6.01,3.68-8.84,5.76
			c-0.79,0.58-1.23,1.93-1.38,3c-0.28,1.89,0.81,2.94,2.72,2.91c0.61-0.01,1.27-0.09,1.83-0.32c3.27-1.34,6.56-2.64,9.76-4.15
			c2.01-0.95,2.8-2.84,2.31-4.62C524.17,268.74,522.63,267.69,520.03,267.68 M551.76,242.05c-0.01-2.66-2.34-4.78-5.18-4.71
			c-2.75,0.07-4.78,2.09-4.77,4.75c0.01,2.66,2.05,4.66,4.8,4.72C549.46,246.87,551.77,244.73,551.76,242.05"/>
		<path style="clip-path:url(#SVGID_1_);" d="M662.24,269.21c-5.72-0.14-9.04-3.53-8.58-9.23c0.21-2.58,0.78-5.17,1.55-7.64
			c3.5-11.17,8.34-21.81,13.23-32.42c0.95-2.07,2.23-4.01,3.49-5.92c1.58-2.42,3.75-3.29,6.49-2.43c1.66,0.52,3.4,1.24,4.74,2.31
			c6.93,5.56,11.45,12.62,12.7,21.56c0.43,3.06,0.02,6.02-1.1,8.9c-5.09,13.1-14.7,20.94-28.19,24.25
			C665.15,268.92,663.68,269,662.24,269.21 M694.38,235.35c0.18-8.59-6.02-13.52-12.22-16.06c-0.29-0.12-0.66-0.31-0.89-0.23
			c-0.92,0.35-2.1,0.58-2.62,1.28c-0.41,0.55-0.24,1.81,0.1,2.57c0.41,0.92,1.15,1.77,1.94,2.42c4.54,3.78,6.38,8.27,4.44,14.15
			c-0.72,2.18,0.31,4.07,1.92,4.8c1.49,0.67,3.29,0.17,4.76-1.42C693.75,240.73,694.42,238.16,694.38,235.35"/>
		<path style="clip-path:url(#SVGID_1_);" d="M641.56,309.94c0.03-0.33-0.02-0.99,0.16-1.57c2.88-9.48,7.46-17.69,16.96-22.05
			c5.95-2.73,11.1-1.94,15.34,2.12c4.58,4.39,5.13,10.94,1.11,15.85c-5.58,6.81-12.81,11.22-21.1,13.98
			c-0.98,0.33-2.04,0.46-3.07,0.58C645.31,319.47,641.44,315.91,641.56,309.94 M673.07,298.76c0.13-3.75-1.69-6.36-4.78-8.21
			c-1.07-0.64-2.25-1.47-3.42-0.39c-1.32,1.22-0.43,2.47,0.26,3.66c0.1,0.18,0.21,0.37,0.33,0.53c1.9,2.43,1.59,4.79-0.16,7.16
			c-0.8,1.09-1.59,2.22-2.16,3.44c-0.76,1.64,0.11,2.99,1.92,2.98c1,0,2.13-0.23,2.97-0.73
			C671.2,305.31,673.02,302.53,673.07,298.76"/>
	</g>
</g>
</svg>
