<?xml version="1.0" encoding="utf-8"?>
<!-- Generator: Adobe Illustrator 23.1.0, SVG Export Plug-In . SVG Version: 6.00 Build 0)  -->
<svg version="1.1" xmlns="http://www.w3.org/2000/svg" xmlns:xlink="http://www.w3.org/1999/xlink" x="0px" y="0px"
	 viewBox="0 0 996.94 800" style="enable-background:new 0 0 996.94 800;" xml:space="preserve">
<style type="text/css">
	.st0{display:none;}
	.st1{display:inline;fill:#B0B0B0;}
	.st2{fill:url(#SVGID_1_);}
	.st3{fill:url(#SVGID_2_);}
	.st4{fill:url(#SVGID_3_);}
	.st5{fill:url(#SVGID_4_);}
	.st6{fill:url(#SVGID_5_);}
	.st7{fill:url(#SVGID_6_);}
	.st8{fill:url(#SVGID_7_);}
	.st9{fill:url(#SVGID_8_);}
	.st10{fill:#040000;}
	.st11{fill:#FFFFFF;}
	.st12{clip-path:url(#SVGID_10_);}
	.st13{fill:none;}
	.st14{fill:#1A1A1A;}
</style>
<g id="BG" class="st0">
	<rect x="-337.12" y="-236.44" class="st1" width="5644.36" height="2877.76"/>
</g>
<g id="圖層_1">
	<g>
		<linearGradient id="SVGID_1_" gradientUnits="userSpaceOnUse" x1="358.4088" y1="479.5354" x2="358.4088" y2="194.3952">
			<stop  offset="0" style="stop-color:#FFFFFF;stop-opacity:0"/>
			<stop  offset="0.0429" style="stop-color:#DBDBDB;stop-opacity:0.1036"/>
			<stop  offset="0.0978" style="stop-color:#B5B4B4;stop-opacity:0.2361"/>
			<stop  offset="0.1547" style="stop-color:#959494;stop-opacity:0.3736"/>
			<stop  offset="0.2134" style="stop-color:#7C7B7B;stop-opacity:0.5151"/>
			<stop  offset="0.2743" style="stop-color:#6B6969;stop-opacity:0.6622"/>
			<stop  offset="0.3391" style="stop-color:#605E5E;stop-opacity:0.8186"/>
			<stop  offset="0.4142" style="stop-color:#5D5B5B"/>
			<stop  offset="0.7426" style="stop-color:#000000"/>
		</linearGradient>
		<path class="st2" d="M287.89,170.54c-5.91,1.49-9.55,5.78-7.19,11.36c3.21,7.57,8.2,14.38,12.42,21.51
			c-2.28,0.28-7.03,0.43-11.57,1.48c-14.37,3.31-28.71,6.79-42.94,10.64c-2.17,0.59-5.08,3.5-5.14,5.42
			c-0.06,1.89,2.78,4.31,4.88,5.7c2.2,1.46,4.96,2.52,7.58,2.79c15.01,1.54,30.02,3.07,45.08,4.02c9.24,0.58,18.55,0.11,29.04,0.11
			c-0.72,5.72-1.43,11.29-2.12,16.87c-1.51,12.29-2.74,24.63-4.74,36.85c-0.41,2.48-3.43,6.03-5.71,6.43
			c-6.74,1.17-13.71,1.02-21.47,1.43c0.66-5.15,1.12-9.57,1.8-13.96c2.7-17.28-8.41-30.35-26.01-30.55
			c-14.58-0.16-20.47,8.76-12.89,21.18c5.53,9.06,13.05,16.9,19.62,25.21c-6.35,1.65-17.51,1.47-26.55,3.24
			c-9.04,1.77-16.13,1.63-16.13,8.26c0,5.06,10.96,5.8,24.88,7.23c14.22,1.46,31.36,1.28,42.36,2.29
			c22.13,2.03,44.39,2.72,67.08,4.02c0.38,7.25,0.28,14.24,1.18,21.09c2.41,18.25,3.87,37.65,8.88,54.21
			c2.86,10.08,6.03,18.83,8.9,26.19c1.67,4.29-2.86,7.41-5.92,11.85c-3.24,4.7-6.75,11.02-10.57,15.77
			c-5.1,6.34-7.88,10.74-12.31,16.53c-4.43,5.78-4.82,6.22-4.34,9.94c0.48,3.72,13.31,4.03,19.34-2.49
			c10-10.83,19.52-22.1,29.45-33.42c2.98,2.08,5.66,4,8.39,5.84c29.89,20.15,61.73,14.8,83.09-13.96
			c8.34-11.22,5.6-18.17-8.22-19.09c-4.77-0.32-10.01,1.62-14.53,3.65c-3.76,1.68-6.78,5.01-10.13,7.59
			c-15.75,12.14-21.85,10.71-31.74-6.35c-3.95-6.81-3.93-11.98,0.31-18.97c6.36-10.5,11.57-21.86,15.9-33.37
			c3.22-8.54-0.85-13.06-9.89-13.94c-10.48-1.02-16.84,5.1-22.27,13c-0.76-0.2-1.52-0.4-2.28-0.61
			c-2.33-15.57-4.66-31.15-7.04-47.09c8.2-1.3,20.33-0.9,29.78-1.98c9.35-1.07,16.07-3.62,15.95-6.59
			c-0.24-5.97-6.92-7.14-11.07-7.89c-9.5-1.73-19.88-1.78-29.52-2.48c-5.43-0.4-8.08-1.93-8.64-7.79
			c-1.2-12.64-2.88-25.26-4.85-37.81c-0.95-6.07-1.26-13.43-10.31-13.46c-8.54-0.03-8.61,7.01-10.16,12.7
			c-0.4,1.45-0.48,2.99-0.73,4.48c-2.05,12.44-4.1,24.88-6.25,37.95c-10.57-0.61-20.7-1.19-32.01-1.84
			c1.68-3.66,2.78-6.37,4.13-8.95c8.51-16.28,15.95-32.53,13.38-51.63c-0.15-1.7,0.93-5.81,4.55-6.05
			c6.29-0.42,19.38-1.08,19.77-8.77c0.39-7.69-33.64-11.8-49.18-14.52c1.07-3.98,3.13-7.43,2.61-10.44
			c-2.11-12.1-18.28-23.37-31.24-23.37C290.95,169.98,289.38,170.16,287.89,170.54"/>
		<linearGradient id="SVGID_2_" gradientUnits="userSpaceOnUse" x1="194.8194" y1="479.5354" x2="194.8194" y2="194.3952">
			<stop  offset="0" style="stop-color:#FFFFFF;stop-opacity:0"/>
			<stop  offset="0.0429" style="stop-color:#DBDBDB;stop-opacity:0.1036"/>
			<stop  offset="0.0978" style="stop-color:#B5B4B4;stop-opacity:0.2361"/>
			<stop  offset="0.1547" style="stop-color:#959494;stop-opacity:0.3736"/>
			<stop  offset="0.2134" style="stop-color:#7C7B7B;stop-opacity:0.5151"/>
			<stop  offset="0.2743" style="stop-color:#6B6969;stop-opacity:0.6622"/>
			<stop  offset="0.3391" style="stop-color:#605E5E;stop-opacity:0.8186"/>
			<stop  offset="0.4142" style="stop-color:#5D5B5B"/>
			<stop  offset="0.7426" style="stop-color:#000000"/>
		</linearGradient>
		<path class="st3" d="M205.82,205.87c-2.85,0.51-15.03,5.33-26.8,14.56c-12.72,9.97-25.17,24.81-30.82,36.95
			c-9.49,20.42-6.91,29.07,12.23,40.4c1.01,0.6,1.92,1.36,3.26,2.32c-5.08,6.66-10.46,12.76-14.76,19.55
			c-9,14.24-4.45,28.14,10.94,34.99c2.95,1.31,5.97,2.49,9.94,4.13c-12.22,31.22-2.19,61.28,2.79,91.54
			c1.09,6.6,4.1,11.07,11.97,10.82c8.38-0.27,8.98-6.03,9-11.9c0.13-29.76,8.4-59.56-1.36-89.54c16.21-4.83,16.21-4.82,25.28,7.38
			c0.72,0.97,1.37,2.03,2.24,2.84c5.56,5.2,11.93,6.34,19.29,4.38c7-1.86,5.89-7.42,6.48-12.35c0.46-3.9,1.39-7.82,1.25-11.7
			c-0.48-13.48-6.77-23.9-18.66-30.05c-15.03-7.78-24.78-1.36-24.42,15.38c0.03,1.51-0.13,3.1,0.27,4.52
			c1.49,5.28-1.46,7.01-5.86,7.96c-9.94,2.15-16.03-3.43-12.41-13.29c4.12-11.23,9.86-22.03,16.14-32.25
			c6.63-10.79,15.03-20.47,22-31.06c2.21-3.36,5.27-9.23,3.4-12.22c-1.88-2.99-10.84-2.12-14.51-0.06
			c-9.41,5.26-17.91,12.2-26.57,18.73c-3.4,2.56-11.15,8.37-11.15,8.37s1.49-9.81,3.22-13.67c5.15-11.5,10.27-22.06,16.92-32.56
			c5.11-8.07,13.07-15.18,18.12-23.29c1.59-2.55,4.11-6.21,3.14-8.67c-0.37-0.95-3.65-2.44-7.72-2.44
			C207.75,205.62,206.79,205.69,205.82,205.87"/>
		<linearGradient id="SVGID_3_" gradientUnits="userSpaceOnUse" x1="301.7088" y1="479.5354" x2="301.7088" y2="194.3952">
			<stop  offset="0" style="stop-color:#FFFFFF;stop-opacity:0"/>
			<stop  offset="0.0429" style="stop-color:#DBDBDB;stop-opacity:0.1036"/>
			<stop  offset="0.0978" style="stop-color:#B5B4B4;stop-opacity:0.2361"/>
			<stop  offset="0.1547" style="stop-color:#959494;stop-opacity:0.3736"/>
			<stop  offset="0.2134" style="stop-color:#7C7B7B;stop-opacity:0.5151"/>
			<stop  offset="0.2743" style="stop-color:#6B6969;stop-opacity:0.6622"/>
			<stop  offset="0.3391" style="stop-color:#605E5E;stop-opacity:0.8186"/>
			<stop  offset="0.4142" style="stop-color:#5D5B5B"/>
			<stop  offset="0.7426" style="stop-color:#000000"/>
		</linearGradient>
		<path class="st4" d="M295.84,406.6c5.51-0.1,11.07-0.19,16.95,0.09c-0.35,7.95,1.37,16.13-1.42,22.59
			c-3.02,6.98-13.07,6.92-20.44,6.53c-7.38-0.39-11.22,0.28-11.41-6.3c-0.23-7.74-0.05-14.04-0.05-22.99
			c2.73,0.13,5.42,0.18,8.09,0.18C290.33,406.7,293.08,406.65,295.84,406.6 M263.67,349.56c-3.42,1.09-10.38,4.42-10.38,7.94
			c0,3.52,9.34,3.27,27.57-1.31c10.89-2.74,22.94-2.75,28,2.9c7.46,8.35,3.61,25.54,3.32,26.37c-11.26,0.84-22.87,1.7-35.1,2.61
			c-1.11-5.84-2.19-11.43-3.23-17.02c-0.87-4.67-1.93-9.02-8.18-8.79c-6.22,0.23-7.05,4.77-7.69,9.37
			c-2.55,18.45-0.58,36.21,8.22,52.91c1.55,2.93,3.98,5.98,4.01,9c0.08,7.07,4.42,10.19,9.95,10.92
			c10.36,1.37,20.89,2.29,31.32,2.13c15.53-0.24,31.56-11.22,34.59-25.79c3.1-14.9,4.59-30.54,3.87-45.71
			c-0.67-14.04-8.87-25.21-23.44-29.18c-8.16-2.22-16.09-3.2-23.92-3.2C289.54,342.71,276.76,345.41,263.67,349.56"/>
		<linearGradient id="SVGID_4_" gradientUnits="userSpaceOnUse" x1="223.7433" y1="479.5354" x2="223.7433" y2="194.3952">
			<stop  offset="0" style="stop-color:#FFFFFF;stop-opacity:0"/>
			<stop  offset="0.0429" style="stop-color:#DBDBDB;stop-opacity:0.1036"/>
			<stop  offset="0.0978" style="stop-color:#B5B4B4;stop-opacity:0.2361"/>
			<stop  offset="0.1547" style="stop-color:#959494;stop-opacity:0.3736"/>
			<stop  offset="0.2134" style="stop-color:#7C7B7B;stop-opacity:0.5151"/>
			<stop  offset="0.2743" style="stop-color:#6B6969;stop-opacity:0.6622"/>
			<stop  offset="0.3391" style="stop-color:#605E5E;stop-opacity:0.8186"/>
			<stop  offset="0.4142" style="stop-color:#5D5B5B"/>
			<stop  offset="0.7426" style="stop-color:#000000"/>
		</linearGradient>
		<path class="st5" d="M202.75,401.04c5.02,11.85,11.86,23.1,19.21,33.72c4.42,6.38,12.22,7.91,19.64,4.42
			c2.2-1.03,4.92-4.51,4.68-6.56c-1.19-10.48-2.23-21.18-5.33-31.18c-3.43-11.06-12.49-16.67-24.13-17.68
			c-0.54-0.03-1.07-0.04-1.58-0.04C203.9,383.72,198.25,390.42,202.75,401.04"/>
		<linearGradient id="SVGID_5_" gradientUnits="userSpaceOnUse" x1="135.5262" y1="479.5354" x2="135.5262" y2="194.3952">
			<stop  offset="0" style="stop-color:#FFFFFF;stop-opacity:0"/>
			<stop  offset="0.0429" style="stop-color:#DBDBDB;stop-opacity:0.1036"/>
			<stop  offset="0.0978" style="stop-color:#B5B4B4;stop-opacity:0.2361"/>
			<stop  offset="0.1547" style="stop-color:#959494;stop-opacity:0.3736"/>
			<stop  offset="0.2134" style="stop-color:#7C7B7B;stop-opacity:0.5151"/>
			<stop  offset="0.2743" style="stop-color:#6B6969;stop-opacity:0.6622"/>
			<stop  offset="0.3391" style="stop-color:#605E5E;stop-opacity:0.8186"/>
			<stop  offset="0.4142" style="stop-color:#5D5B5B"/>
			<stop  offset="0.7426" style="stop-color:#000000"/>
		</linearGradient>
		<path class="st6" d="M130.58,386.65c-2.59,3.19-5,7.05-5.93,10.97c-2.43,10.2-5.13,23.5-5.61,29.27
			c-0.47,5.77,0.49,13.16,2.7,17.79c1.5,3.14,5.56,6.27,10.35,6.24c4.8-0.03,6.91-2.91,7.61-5.36c4.59-16.2,8.82-32.55,12.18-49.05
			c0.84-4.13-0.5-11.39-3.29-13.03c-2.29-1.34-4.85-2.07-7.41-2.07C137.35,381.43,133.51,383.04,130.58,386.65"/>
		<linearGradient id="SVGID_6_" gradientUnits="userSpaceOnUse" x1="418.9305" y1="479.5354" x2="418.9305" y2="194.3952">
			<stop  offset="0" style="stop-color:#FFFFFF;stop-opacity:0"/>
			<stop  offset="0.0429" style="stop-color:#DBDBDB;stop-opacity:0.1036"/>
			<stop  offset="0.0978" style="stop-color:#B5B4B4;stop-opacity:0.2361"/>
			<stop  offset="0.1547" style="stop-color:#959494;stop-opacity:0.3736"/>
			<stop  offset="0.2134" style="stop-color:#7C7B7B;stop-opacity:0.5151"/>
			<stop  offset="0.2743" style="stop-color:#6B6969;stop-opacity:0.6622"/>
			<stop  offset="0.3391" style="stop-color:#605E5E;stop-opacity:0.8186"/>
			<stop  offset="0.4142" style="stop-color:#5D5B5B"/>
			<stop  offset="0.7426" style="stop-color:#000000"/>
		</linearGradient>
		<path class="st7" d="M398.29,235.53c-1.85,1.09-3.09,5.89-2.34,8.27c3.31,10.49,24.67,24.82,35.45,24.75
			c7.38-0.05,11.55-2.86,10.6-10.55c0.79-11.58-6.85-17.26-15.25-21.64c-5.08-2.65-10.42-4.33-15.78-4.33
			C406.71,232.02,402.45,233.07,398.29,235.53"/>
		<linearGradient id="SVGID_7_" gradientUnits="userSpaceOnUse" x1="704.0168" y1="479.5354" x2="704.0168" y2="194.3952">
			<stop  offset="0" style="stop-color:#FFFFFF;stop-opacity:0"/>
			<stop  offset="0.0429" style="stop-color:#DBDBDB;stop-opacity:0.1036"/>
			<stop  offset="0.0978" style="stop-color:#B5B4B4;stop-opacity:0.2361"/>
			<stop  offset="0.1547" style="stop-color:#959494;stop-opacity:0.3736"/>
			<stop  offset="0.2134" style="stop-color:#7C7B7B;stop-opacity:0.5151"/>
			<stop  offset="0.2743" style="stop-color:#6B6969;stop-opacity:0.6622"/>
			<stop  offset="0.3391" style="stop-color:#605E5E;stop-opacity:0.8186"/>
			<stop  offset="0.4142" style="stop-color:#5D5B5B"/>
			<stop  offset="0.7426" style="stop-color:#000000"/>
		</linearGradient>
		<path class="st8" d="M594.83,313.65c-1.68-11.4-2.48-22.94-3.71-35.76c17.46-1.79,32.56-3.34,48.93-5.02
			c-3.91,18.29-0.33,32.17,16.31,40.58c-0.44,0.61-0.87,1.22-1.31,1.83c-17.97,1.32-35.92,2.84-53.91,3.7c-0.03,0-0.06,0-0.1,0
			C598.92,318.98,595.14,315.75,594.83,313.65 M664,272.12h79.38c-7.94,12.13-8.1,24.73,1.81,38.53
			c-24.8,1.03-47.19,1.96-70.48,2.92C678.71,297.99,668.94,286.62,664,272.12 M767.05,311.85c13.41-14.04,11.17-26.73,1.2-41
			c8.71,0.6,15.81,0.81,22.84,1.64c11.71,1.37,23.35,3.3,35.07,4.66c5.54,0.64,7.82,3.7,6.41,8.54
			c-2.92,10.02-6.52,19.85-9.78,29.54C803.94,314.09,786.61,313.04,767.05,311.85 M668.7,239.75c0.61-1.07,2.34-2.13,3.55-2.14
			c25.88-0.12,51.75-0.09,77.8-0.09c0.45,6.31,0.8,11.32,1.23,17.32h-90.44C663.3,250.05,665.85,244.81,668.7,239.75 M761.9,192.38
			c-2.04,3.68-4.05,7.59-4.97,11.64c-1.45,6.34-4.92,7.71-11.04,7.61c-25.13-0.4-50.26-0.39-75.39-0.15
			c-6.16,0.06-9.95-1.35-12.53-7.57c-4.23-10.16-11.37-17.88-22.78-20.31c-9.22-1.97-14.59,1.09-17.09,10.18
			c-1.58,5.75-2.43,11.7-3.54,17.22c-20.41,2.05-40.29,3.66-60.03,6.29c-5.46,0.72-15.75,1.02-15.75,6.85
			c0,5.83,10.96,7.54,16.79,8.19c18.02,2.02,36.2,2.86,54.35,3.42c8.25,0.26,15,1.69,20.89,8.26c4.28,4.78,10.43,7.88,16.73,12.45
			c-1.48,0.38-2.53,0.79-3.62,0.91c-20.72,2.21-41.83,2.48-60.75,13.13c-1.41,0.8-3.52,0.52-5.3,0.49
			c-10.7-0.17-14.76,2.12-15.93,12.72c-0.72,6.46,0.6,14.03,3.51,19.85c9.35,18.69,25.9,25.03,46.16,26.62
			c46.62,3.66,93.25,2.84,139.87,2.02c22.99-0.41,45.98-0.81,68.97-0.68c9.64,0.05,18.34-2.06,26.41-7.39
			c12.14-8.03,16.4-19.83,16.09-33.58c-0.28-12.36-9.08-18.14-19.28-21.36c-10.62-3.35-21.61-5.78-32.6-7.72
			c-12.37-2.18-24.91-3.38-37.57-5.03c7.55-18.99,7.7-19.16,26.13-19.11c18.47,0.04,36.95,0.61,55.4,0.1
			c0.87-0.02,1.87,0.02,2.93,0.06c4.8,0.18,10.83,0.36,11.29-5.31c0.57-6.92-6.79-9.7-11.23-11c-10.32-3.02-21.23-4.27-32-5.39
			c-10.09-1.05-20.29-1.01-30.26-1.45c0-5.63,0.08-9.82-0.02-14.01c-0.2-8.99-4.43-14.89-13.38-16.99
			c-2.19-0.51-4.18-0.78-6.02-0.78C770.08,182.56,765.64,185.62,761.9,192.38"/>
		<linearGradient id="SVGID_8_" gradientUnits="userSpaceOnUse" x1="705.2668" y1="479.5354" x2="705.2668" y2="194.3952">
			<stop  offset="0" style="stop-color:#FFFFFF;stop-opacity:0"/>
			<stop  offset="0.0429" style="stop-color:#DBDBDB;stop-opacity:0.1036"/>
			<stop  offset="0.0978" style="stop-color:#B5B4B4;stop-opacity:0.2361"/>
			<stop  offset="0.1547" style="stop-color:#959494;stop-opacity:0.3736"/>
			<stop  offset="0.2134" style="stop-color:#7C7B7B;stop-opacity:0.5151"/>
			<stop  offset="0.2743" style="stop-color:#6B6969;stop-opacity:0.6622"/>
			<stop  offset="0.3391" style="stop-color:#605E5E;stop-opacity:0.8186"/>
			<stop  offset="0.4142" style="stop-color:#5D5B5B"/>
			<stop  offset="0.7426" style="stop-color:#000000"/>
		</linearGradient>
		<path class="st9" d="M647.75,345.69c-21.6,2.02-43.13,4.84-64.65,7.29c-4.09-11.34-15.9-14.99-24.1-5.98
			c-9.24,10.15-17.6,21.59-23.98,33.71c-7.13,13.55-0.07,22.41,15.31,20.18c5.1-0.74,11.04-4.17,14.13-8.25
			c5.02-6.62,8.46-14.6,11.69-22.37c1.92-4.63,4.25-6.59,9.27-6.58c17.26,0.03,34.51-0.31,51.77-0.43c1.21-0.01,2.43,0.73,4.75,1.47
			c-2.53,2.1-4.22,3.31-5.69,4.75c-15.8,15.33-31.7,30.56-47.15,46.23c-1.94,1.97-3,7.18-1.8,9.49
			c7.41,14.16,37.36,15.83,46.71,2.92c3.32-4.58,6.31-9.39,9.57-14.27c7.92,4.3,14.68,9.34,22.27,11.76
			c9.9,3.16,20.41,4.87,30.78,5.86c3.22,0.31,8.16-3.07,9.8-6.11c0.92-1.72-2.52-7.3-5.32-9.2c-6.21-4.2-13.04-7.69-20-10.5
			c-8.56-3.46-17.52-5.93-26.31-8.83c-0.12-0.74-0.23-1.48-0.35-2.22c2.34-0.87,4.61-2.19,7.02-2.52
			c8.67-1.16,17.36-2.25,26.08-2.87c23.81-1.68,47.62-3.68,71.47-4.4c11.32-0.34,15.57,7.41,9.19,16.74
			c-2.43,3.54-8.63,11.86-18.49,18.05c-10.26,6.44-24.25,10.73-29.23,12.24c-4.88,1.47-19.91,3.73-33.73,8.32
			c-14.91,4.95-28.68,12.32-34.8,15.93c-8.96,5.29-7.91,13.17,2.07,16.55c8.89,3.01,18.83,3.78,28.32,3.87
			c9.31,0.08,18.62-2.13,27.95-3.02c35.24-3.34,62.22-21.87,85.45-46.87c4.18-4.49,6.46-10.84,9.25-16.51
			c4.47-9.07,2.01-17.06-4.58-24.11c-9.06-9.68-20.77-14.2-33.32-17.28c-30.99-7.61-61.94-5.17-92.79,0.44
			c-6.6,1.2-10.95,0.2-15.23-7.44c60.34,1.01,119.37,2,180,3.02c-2.6,6-4.56,10.31-6.36,14.68c-3.81,9.23-1.02,14.37,8.81,16.45
			c13.07,2.76,23.34-2.21,31.94-15.45c7.72-11.88,6.54-20.75-6.42-25.63c-15.09-5.69-31.13-10.06-47.11-11.92
			c-21.21-2.46-42.41-3.45-63.61-3.45C720.12,339.43,683.91,342.32,647.75,345.69"/>
		<path class="st10" d="M535.02,597.03c-9.98-0.98-29.44,3.17-29.44-1.99c0-4.96,31.53-8.71,47.45-11.88
			c-1.15-5.88-0.89-12.48-2.05-18.44c-10.35-1.01-32.02,3.04-32.82-0.28c-0.8-3.33,3.64-4.45,5.85-4.96
			c7.43-1.69,14.72-2.47,22.26-3.63c1.75-0.27,4.86-1.2,4.86-1.2s0.39-1.35,0.44-3.47c0.05-2.11-0.95-5.9,3.77-5.9
			c4.72,0,6.15,1.86,6.91,4.46c0.76,2.6,1,4.76,1,4.76s3.31-0.17,5.3-0.11c6.04,0.18,12.08,0.82,18.08,1.58
			c1.89,0.24,6.02,1.6,5.3,4.45c-0.72,2.84-11.7,1.43-17.57,1.9c-5.57,0.45-10.71,1.35-10.71,1.35s0.14,4.75-0.12,9.3
			c-0.15,2.53-0.59,5.03-1.06,8.79c7.48,0,14.85-0.56,22.09,0.16c6.97,0.69,20.54,4.13,20.54,6.94c0,2.81-13.92,2.41-20.93,3.14
			c-12.66,1.32-25.35,2.37-38.04,3.3c-3.15,0.23-4.91,1.06-5.75,4.37c-1.58,6.2-4.38,12.18-5.31,18.45
			c-0.87,5.87,4.69,7.96,9.95,5.32c6.95-3.49,11.36-6.55,17.79-10.97c14.37-9.89,29.65-4.31,37.17,4.54
			c1.65,1.95,3.83,4.53,2.79,7.68c-1.04,3.15-5.47,2.35-8.11,2.17c-5.69-0.39-10.47-3.01-13.45-8.25c-0.85-1.49-1.92-2.85-3.16-4.66
			c-5.01,3.42-9.6,6.68-14.31,9.76c-8.43,5.52-17.63,7.34-27.51,5.18c-8.61-1.89-11.55-6.82-8.56-15.09
			C529.7,608.2,532.45,602.83,535.02,597.03"/>
		<path class="st10" d="M654.83,564.86c4.77-0.82,9.78-0.72,14.65-0.45c13.22,0.76,21.14,13.36,14.12,24.63
			c-1.95,3.13-4.38,6.48-6.96,9.22c-2.9,3.08-6.25,6.27-9.12,8.67c-2.87,2.4-5.75,4.45-5.75,4.45s9.37,3.21,19.43,5.45
			c5.74,1.28,11.76,2.51,16.2,3.04c4.44,0.53,6.68-0.6,9.95-0.08c1.46,0.23,3.52,1.64,3.82,2.88c0.28,1.14-0.18,3.35-2.76,4.94
			c-2.58,1.6-9.93,2.06-13.77,1.38c-13.22-2.35-24.58-4.58-37.37-8.59c-5.2-1.63-12.89-4.09-20.31-4.5
			c-9.6-0.52-18.51,1.08-18.52-1.35c0-4.31,12.54-4.26,20.27-5.01c4.02-0.4,9.84-1.91,14.33-5.76c3.64-3.12,7.82-7.16,10.07-11.37
			c2.61-4.89,3.51-10.13,2.86-13.88c-0.26-1.49-0.1-3.51-5.11-3.47c-6.59,0.54-13.11,1.94-19.69,2.77
			c-3.65,0.46-10.21,2.08-11.58-1.15C628.22,573.44,645.64,566.45,654.83,564.86"/>
		<path class="st10" d="M672.03,551.27c1.17,0.62,2.12,2.93,1.98,4.34c-0.1,1.02-2.05,2.23-3.4,2.68
			c-5.93,1.98-17.11-4.27-19.52-5.54c-1.81-0.96-3.28-3.98-2.22-5.37c1.06-1.4,5.19-1.78,7.74-1.5
			C659.17,546.15,667.16,548.68,672.03,551.27"/>
		<path class="st10" d="M733.76,589.23c3.98,0.45,7.15,0.03,11.18,0.49c1.26-4.54,2.81-10.24-2.88-12.37
			c-3.67-1.37-11.53,3.55-13.09,0.88c-1.56-2.67,9.48-8.34,17.78-6.66c3.77,0.76,8.15,2.66,10.41,5.5
			c2.12,2.67,1.82,7.27,2.51,10.67c11.31-0.89,23.66-0.59,35.02-1.48c0.57-2.15-0.45-5.86-0.45-5.86s-3.27-0.22-4.79-0.19
			c-6.65,0.13-13.33,0.29-19.96-0.07c-3.17-0.17-8.45,0.24-9.07-3.79c-0.62-4.03,17.32-2.82,25.8-3.96c0.18-4.3,0-9.07,0-9.07
			s-4.15-0.19-7.61-0.38c-3.52-0.19-9.52,0.37-9.78-2.58c-0.25-2.95,6.29-3.06,10.07-3.51c2.06-0.24,6.21-0.7,6.21-0.7
			s-0.23-3.92-0.19-6.03c0.03-1.71-0.97-5.09,2.74-5.09c3.71,0,4.44,2.72,4.7,4.39c0.33,2.1,1.47,6.03,1.47,6.03s4.2,0.12,6.71,0.35
			c3.35,0.31,9.78,1.32,10,4.29c0.22,2.97-7.14,1.97-10.78,2.35c-3.01,0.32-6.18,0.87-6.18,0.87s-0.72,4.34-0.4,8.87
			c8.77,0,24.63,0.82,24.38,4.82c-0.25,3.91-10.85,2.18-16.12,2.8c-0.18,0.02-0.3,0.21-0.23,0.38c0.45,1.29,1.74,6.13,1.74,6.13
			s3.61,0.55,8.62,0.65c2.31,0.04,6.51,0.09,8.92,1.2c2.8,1.29,3.61,3.72,2.94,4.65c-1.26,1.76-18.14,0.04-17.92,0.06
			c-1.01,8.12-0.41,15.81-2.04,23.29c-2.45,11.29-16.06,17.29-26.31,11.9c-1.69-0.89-4.96-2.05-3.79-5.12
			c1.17-3.07,6.58-0.35,8.34,0.12c7.82,2.09,9.51,1.02,11.77-6.8c1.72-5.94,2.42-11.91,2.35-16.03c-0.06-3.85-0.25-7.41-0.25-7.41
			s-11.55-0.81-14.68-0.82c-7.41-0.01-16.01,0.27-22.15,0.27c-1.1,3.7-1.95,7.12-3.76,9.97c-0.6,0.95-3.51,6.41-7.92,8.42
			c-4.92,2.24-11.48,0.89-14.31-0.9c-3-1.9-5.18-5.4-6-8.61c-1.12-4.35-1.28-10.88-1.5-12.29c-0.22-1.41-2.36-6.58,2.2-7.14
			C732.04,581.16,733.42,588.38,733.76,589.23 M734.85,596.56c0,4.25-1.61,10.26,4.4,10.3c6.01,0.04,5.46-5.71,5.46-10.9
			C740.86,595.96,738.44,596.09,734.85,596.56"/>
		<path class="st10" d="M777.93,611.44c-2.73-0.45-8.94-4.5-12.97-7.37c-2.73-1.95-0.7-3.72,1.59-4.58
			c4.19-1.57,13.67,1.94,15.64,5.89C784.1,609.21,780.66,611.9,777.93,611.44"/>
		<path class="st10" d="M327.53,564.38c-2.27-1.36-6.75-0.74-6.97-4.17c-0.08-1.18,4.69-5.01,11.19-5.53
			c4.61-0.37,10.42-0.49,15.36-0.03c8.46,0.77,15.28,1.8,15.23,2.99c-0.12,2.91-5.21,2.33-7.5,2.83c0.57,3.13,0.89,7.19,1.54,10.75
			c1.98,0,5.27,0.86,6.03,1.94c0.76,1.08,1.07,1.25-0.05,2.39c-0.57,0.59-12.13,1.23-23.36,2.13c-10.63,0.86-20.97,1.99-21.29,1.71
			c-0.65-0.59-0.78-1.03-0.63-2.11c0.15-1.08,6.83-2.23,10.43-3.84C327.51,570.87,327.53,567.33,327.53,564.38 M334.8,564
			c2.16,3.44,0.95,6.2,2.33,7.23c2.02,1.5,5.98,1.29,11.25-0.44c0.45-2.39,0.29-5.49,0.89-8.69
			C343.67,562.97,339.98,563.19,334.8,564"/>
		<path class="st10" d="M362.97,593.02c-0.53,5.15-2.71,9.56-8.32,11.1c-6.02,1.65-12.15,2.9-18.27,4.18
			c-4.18,0.87-6.73-1.42-8.99-4.68c-7.35-8.92-7.96-16.98,8.07-20.3c5.77-1.2,12.07-1.69,17.95-0.84
			C358.63,583.24,362.55,586.69,362.97,593.02 M343.33,593.74c1.41,0.79,0.98,2.22,0.24,3.32c-0.74,1.09-12.08,2.19-12.34,3.8
			c-0.25,1.61,2.32,3.16,4.02,3.14c3.57-0.04,7.76-0.75,11.23-1.75c4.15-1.19,6.25-5.64,5.36-10.9c-0.83-4.86-3.97-5.23-7.84-4.89
			c-3.6,0.32-7.27,0.59-10.67,1.67c-1.65,0.52-4.53,1.25-4.14,3.79c0.4,2.67,1.77,2.66,6.78,2.26
			C338.68,593.97,341.92,592.94,343.33,593.74"/>
		<path class="st10" d="M293.52,585.03c-4.32-1.13-11.72,1.2-12.78-2.62c-1.06-3.82,3.91-5.24,5.02-5.65
			c2.87-1.05,6.07-0.48,6.83-2.75c0.58-1.75,0.38-4.06,0.58-7.69c0.04-0.67-0.59-1.93,2.61-2.28c3.21-0.35,3.8,1.16,3.87,1.97
			c0.28,3.26,0.2,6.42,1.97,7.42c1.77,1,5.39-0.16,8.01-0.24c1-0.03,4.08-0.75,4.08,2.17c0,2.92-3.45,4.46-5.14,4.9
			c-2.76,0.73-5.61,0.6-6.71,2.29c-1.33,2.04-0.71,4.67-0.68,7.69c0.03,3.33,0.06,8.8-0.51,9.95c-0.57,1.15-3.31,1.15-4.5,0.34
			C294.98,599.7,294.89,589.8,293.52,585.03"/>
		<path class="st10" d="M371.82,607.83c-0.14-0.51,0.81-2.21,2.3-1.88c1.49,0.34,9.65,3.93,9.31,10.29
			c-0.34,6.23-6.87,7.32-11.78,8.61c-8.11,2.13-16.38,2.48-24.17-1.43c-5.29-2.66-6.72-7.61-3.61-12c0.71-1.01,2.18-2.14,3.23-2.07
			c0.92,0.06,2.13,1.59,2.52,2.71c1.45,7.64,3.64,8.52,12.03,7.02c1.96-0.35,4.76-0.91,6.64-1.59
			C376.34,614.58,371.96,608.34,371.82,607.83"/>
		<path class="st10" d="M313.37,601.96c1.84,3.7-15.98,15.9-28.16,16.25c-3.22,0.09-7.16-0.68-4.81-5.69
			C283.56,605.77,311.52,598.27,313.37,601.96"/>
		<path class="st10" d="M329.09,610.02c5.61-0.11,7.5,2.67,5.21,6.87c-1.93,3.54-3.99,7.02-6.21,10.39
			c-0.66,1.01-2.03,1.97-3.18,2.1c-0.84,0.1-1.93-0.1-2.63-1.84c-0.7-1.74,2.1-10.37,2.83-12.55
			C325.8,612.92,326.36,610.02,329.09,610.02"/>
		<path class="st10" d="M347,551.27c-6.65-0.12-11.82-3.57-11.3-7.05c0.19-1.3,2.72-3.05,4.32-3.21c4.57-0.46,11.22,3.95,10.53,6.87
			C350.16,549.53,347.66,550.69,347,551.27"/>
		<path class="st10" d="M482.67,608.08c-0.4,0.76-4.1,0.17-7.69-1.57c-2.04-0.98-4.01-2.85-5.4-3.76
			c-3.59,3.26-6.96,5.79-10.22,5.66c-4.42-0.18-8.47-4.42-11.01-10.72c-3.14-7.81-3.89-19.28-2.38-28.76
			c1.42-8.93,4.98-16.07,6.38-17.55c2.88-3.05,12.89-4.26,19.59-2.18c6.19,1.92,9.75,6.38,10.2,13.12
			c0.91,13.51-6.53,24.71-20.09,24.95c-1.62,0.03-4.63-0.2-8-0.01c1.17,4.28,0.55,8.19,1.74,11.93c0.19,0.6,1.77,3.64,3.63,4.77
			c1.86,1.13,3.99,0.33,5.3-1.55c1.37-1.97,2.99-5.51,4.31-5.43c3.09,0.2,7.54,1.8,9.58,3.81
			C480.65,602.8,483.29,606.89,482.67,608.08 M454.81,584.22c11.01-0.12,18.23-9.11,18.04-21.58c-0.11-7.65-3.53-11.1-11.07-10.37
			c-2.04,0.2-5.1,1.92-5.59,3.56c-0.57,1.91-0.03,7.33-0.03,7.33s2.24-0.08,4.94,0.28c2.7,0.36,3.41,1.44,3.64,2.95
			c0.42,2.77-1.62,3.22-4.65,3.32c-3.03,0.09-3.83,0.74-4.07,1.85C455.2,575.29,455.2,579.95,454.81,584.22"/>
		<path class="st10" d="M436.56,571.11c1.09,0.59,2.5,3.63,3.61,6.03c1.11,2.4,5.36,13.58,4.65,21.73
			c-1.3,14.82,2.31,22.63,22.26,20.77c5.33-0.5,10.66-1.84,15.99-2.32c2.96-0.27,8.46-0.59,9.03,1.07c0.57,1.67-0.8,2.88-2.49,3.81
			c-1.69,0.93-24.64,5.64-37.53,3.28c-15.96-2.93-20.74-14.9-20.17-21.92c0.57-7.02,1.49-14.92,1.85-19.15
			c0.36-4.19,0.23-11.18,0.08-12.67C433.69,570.23,435.47,570.52,436.56,571.11"/>
		<path class="st10" d="M418.03,592.49c4.34,3,12.39,6.48,12.08,9.11c-0.32,2.63-3.8,1.91-12.27-1.41c0,7.93,0.15,21.62,0.14,23.43
			c-0.01,1.85,0.54,5.33-2.35,5.65c-2.88,0.31-2.97-4.06-3.06-5.61c-0.09-1.51-2.43-14.89-3.6-22.37c-3.94,1.6-7.53,4.25-9.24,4.73
			c-1.53,0.42-2.95-0.27-2.95-1.84c0-1.57,1.72-2.44,2.69-3.57c4.97-5.74,11.01-10.78,15.59-16.8c3.32-4.37,5.28-11.21,5.7-14.36
			c0.42-3.15-0.87-4.96-4.28-3.99c-3.56,1.02-7.01,2.38-10.55,3.47c-1.55,0.48-3.23,0.98-4.8,0.85c-1.04-0.09-2.37-0.47-2.84-2.05
			c-0.47-1.59,1.48-2.53,2.83-3.32c1.35-0.78,17.81-5.45,22.95-2.03c1.73,1.15,3.61,3.98,3.38,5.79c-0.64,5.18-1.93,10.38-3.72,15.3
			C422.58,586.66,419.43,590.34,418.03,592.49"/>
		<path class="st10" d="M418.77,557.91c-6.1-0.11-10.84-3.28-10.37-6.47c0.18-1.19,2.49-2.8,3.96-2.94
			c4.19-0.42,10.29,3.62,9.66,6.3C421.67,556.32,419.37,557.38,418.77,557.91"/>
		<path class="st10" d="M443.35,559.77c0,2.49-2.85,2.89-4.49,2.8c-1.64-0.09-6.28-1.78-6.28-4.27c0-2.48,1.13-2.82,2.74-2.85
			C436.93,555.43,443.35,557.28,443.35,559.77"/>
		<path class="st10" d="M204.47,570.3c-1.69-1.22-3.34-2.06-4.49-3.34c-1.58-1.76-3.39-2.15-5.6-2.22
			c-4.86-0.15-9.74-0.38-14.57-0.92c-1.56-0.17-4.5-0.63-4.5-2.2c0-1.57,2.76-1.64,4.22-1.84c5.29-0.7,10.62-1.14,16.09-1.68
			c0.3-1.48,0.53-3.08,0.95-4.62c0.67-2.43,2.11-3.26,4.58-2.73c3.06,0.65,4.98,2.72,6.11,5.44c0.69,1.67,1.71,2.05,3.36,2.03
			c6.74-0.06,13.47-0.07,20.21,0.04c1.64,0.03,2.57-0.34,2.96-2.04c0.25-1.09,0.79-2.13,1.33-3.12c1.3-2.35,2.91-3.03,5.49-2.43
			c2.4,0.56,3.53,2.15,3.58,4.55c0.02,1.12,0,2.25,0,3.76c2.67,0.11,5.41,0.1,8.11,0.39c2.88,0.3,5.81,0.63,8.58,1.44
			c1.19,0.35,3.16,1.1,3.01,2.95c-0.15,1.85-2.53,1.37-3.81,1.41c-4.95,0.14-9.9-0.01-14.85-0.03c-4.94-0.01-4.98,0.03-7,5.12
			c3.4,0.44,6.76,0.76,10.07,1.35c2.94,0.52,5.89,1.17,8.74,2.07c2.73,0.86,5.09,2.41,5.17,5.73c0.08,3.69-1.06,6.85-4.31,9
			c-2.16,1.43-4.5,2-7.08,1.98c-18.66-0.11-37.32,1.11-55.98-0.36c-5.43-0.43-9.87-2.13-12.37-7.14c-0.78-1.56-1.13-3.59-0.94-5.32
			c0.31-2.84,1.4-3.45,4.27-3.41c0.48,0.01,1.04,0.08,1.42-0.13c5.07-2.85,10.73-2.93,16.28-3.52
			C203.79,570.52,204.07,570.41,204.47,570.3 M211.76,585.62c6.24-0.26,12.24-0.51,18.89-0.78c-2.66-3.7-2.61-7.08-0.49-10.33
			h-21.28C210.21,578.39,212.83,581.44,211.76,585.62 M236.51,585.15c5.24,0.32,9.89,0.6,14.94,0.91c0.87-2.6,1.84-5.23,2.62-7.92
			c0.38-1.3-0.24-2.12-1.72-2.29c-3.14-0.36-6.26-0.88-9.4-1.25c-1.88-0.22-3.79-0.28-6.12-0.44
			C239.51,577.99,240.11,581.39,236.51,585.15 M206.49,586.07c0.12-0.16,0.23-0.33,0.35-0.49c-4.46-2.25-5.42-5.98-4.37-10.88
			c-4.39,0.45-8.44,0.87-13.11,1.35c0.33,3.44,0.55,6.53,0.99,9.59c0.08,0.57,1.13,1.46,1.7,1.43
			C196.86,586.83,201.67,586.43,206.49,586.07 M231.96,565.23c-6.98,0-13.92-0.01-20.86,0.03c-0.33,0-0.79,0.28-0.95,0.57
			c-0.76,1.36-1.45,2.76-2.11,4.04h24.24C232.17,568.26,232.08,566.92,231.96,565.23"/>
		<path class="st10" d="M206.42,607.93c2.35,0.78,4.76,1.44,7.05,2.37c1.87,0.75,3.7,1.69,5.36,2.82c0.75,0.51,1.68,2,1.43,2.47
			c-0.44,0.81-1.76,1.72-2.63,1.64c-2.78-0.26-5.6-0.72-8.25-1.57c-2.04-0.65-3.85-2-5.97-3.15c-0.87,1.31-1.68,2.6-2.57,3.83
			c-2.51,3.46-10.53,3.01-12.52-0.78c-0.32-0.62-0.04-2.02,0.48-2.54c4.14-4.2,8.41-8.28,12.64-12.39c0.4-0.38,0.85-0.71,1.53-1.27
			c-0.62-0.2-0.95-0.4-1.27-0.39c-4.63,0.03-9.25,0.12-13.88,0.11c-1.35,0-1.97,0.52-2.49,1.76c-0.86,2.08-1.78,4.22-3.13,6
			c-0.83,1.09-2.42,2.01-3.79,2.21c-4.12,0.6-6.02-1.78-4.1-5.41c1.71-3.25,3.95-6.31,6.43-9.04c2.2-2.41,5.37-1.44,6.46,1.6
			c5.77-0.66,11.54-1.41,17.33-1.95c15.37-1.43,30.76-2.54,46.16-0.75c4.28,0.5,8.58,1.67,12.63,3.2c3.48,1.31,3.79,3.69,1.72,6.87
			c-2.31,3.55-5.06,4.88-8.56,4.14c-2.64-0.56-3.38-1.93-2.36-4.41c0.48-1.17,1.01-2.33,1.7-3.94c-16.25-0.27-32.08-0.54-48.25-0.81
			c1.15,2.05,2.31,2.31,4.08,1.99c8.27-1.5,16.57-2.16,24.87-0.12c3.37,0.83,6.5,2.04,8.93,4.63c1.76,1.89,2.42,4.03,1.22,6.46
			c-0.75,1.52-1.36,3.22-2.48,4.43c-6.23,6.7-13.46,11.67-22.91,12.56c-2.5,0.24-5,0.83-7.49,0.81c-2.54-0.02-5.21-0.23-7.59-1.04
			c-2.68-0.91-2.96-3.02-0.56-4.44c1.64-0.97,5.33-2.94,9.33-4.27c3.7-1.23,7.73-1.84,9.04-2.23c1.34-0.4,5.09-1.55,7.84-3.28
			c2.64-1.66,4.31-3.89,4.96-4.84c1.71-2.5,0.57-4.58-2.46-4.49c-6.39,0.19-12.77,0.73-19.16,1.18c-2.34,0.17-4.67,0.46-6.99,0.77
			c-0.65,0.09-1.26,0.44-1.88,0.68C206.36,607.54,206.39,607.73,206.42,607.93"/>
	</g>
</g>
</svg>
