<?xml version="1.0" encoding="utf-8"?>
<!-- Generator: Adobe Illustrator 23.1.0, SVG Export Plug-In . SVG Version: 6.00 Build 0)  -->
<svg version="1.1" xmlns="http://www.w3.org/2000/svg" xmlns:xlink="http://www.w3.org/1999/xlink" x="0px" y="0px"
	 viewBox="0 0 724.7 800" style="enable-background:new 0 0 724.7 800;" xml:space="preserve">
<style type="text/css">
	.st0{display:none;}
	.st1{display:inline;fill:#B0B0B0;}
	.st2{fill:url(#SVGID_1_);}
	.st3{fill:url(#SVGID_2_);}
	.st4{fill:url(#SVGID_3_);}
	.st5{fill:url(#SVGID_4_);}
	.st6{fill:url(#SVGID_5_);}
	.st7{fill:url(#SVGID_6_);}
	.st8{fill:url(#SVGID_7_);}
	.st9{fill:url(#SVGID_8_);}
	.st10{fill:#040000;}
	.st11{fill:#FFFFFF;}
	.st12{clip-path:url(#SVGID_10_);}
	.st13{fill:none;}
	.st14{fill:#1A1A1A;}
</style>
<g id="BG" class="st0">
	<rect x="-1781.59" y="-236.44" class="st1" width="5644.36" height="2877.76"/>
</g>
<g id="圖層_1">
	<g>
		<path d="M383.92,606.24c0.18-0.25,0.35-0.51,0.56-0.74c3.81-4.41,6.6-12.75,14.05-8.27c7.35,4.43,4.07,12.01,1.2,18.31
			c-2.68,5.88-5.27,11.79-11.03,15.67c-6.19,4.18-5.02,8.91,0.57,12.39c8.63,5.37,17.38,10.83,27.44,13.08
			c7.48,1.67,10.96,5.13,8.28,12.94c-1.89,2.72-4.76,4.05-7.62,5.39c-7.18,4.43-14.12,3.2-21.53,0.04
			c-6.93-2.96-13.54-7.04-21.3-7.79c-11.92-0.01-20.52,7.94-26.92,15.49c-16.44,19.41-37.81,26.34-61.46,29.09
			c-7.81,0.91-15.43,1.97-22.72,4.97c-3.82,1.57-7.82,1.3-11.82,0.92c-23.51,0.64-45.57-6.87-68.04-12.08
			c-9.75-2.26-18.82-6.11-26.38-12.78c-5.51-4.86-11.71-8.01-18.88-9.14c-5.45-0.86-10.03-3.2-14-6.93
			c-7.49-7.34-12.46-16.58-18.63-24.91c-4.2-5.66-9.26-8.6-16.21-8.54c-6.3,0.05-12.04-1.72-17.17-5.43
			c-8.44-5.12-9.21-13.98-10.91-22.39c-1.03-7.37,0.04-13.44,9.02-14.64c5.71-2.78,9.25,1.02,11.2,5.02
			c4.55,9.32,11.6,15.03,21.37,17.75c10.97,4.41,21.03,9.49,26.29,21.44c2.78,6.32,9.81,8.28,16.44,8.55
			c10.37,0.43,18.99,4.08,26.22,11.57c6.28,6.51,15.08,9.37,22.23,14.68c2.38,1.77,4.7,0.52,7.04-0.05
			c7.43,0.55,14.16,3.53,21.05,5.97c3.52,1.25,7.22,1.12,10.89,0.87c3.35,0.74,6.71,0.58,10.11,0.19c14.07-1.6,28.07-3.81,42.3-4.02
			c4.88-0.07,9.9-1.61,14.04-4.38c11.02-7.36,22.2-14.49,33.02-22.11c6.22-4.38,5.83-9.27-1.1-14.06
			c-8.15-5.63-16.32-11.12-22.89-18.66c-1.22-1.4-2.61-2.64-3.78-4.08c-5.96-7.33-6.13-16.3-0.45-21.82
			c4.67-4.53,15.13-4.16,21.32,0.83c8.42,6.77,16.32,14.21,25.31,20.24c5.76,3.86,11.68,5.91,17.69,0.39
			c2.92-1.37,4.41-3.91,5.5-6.76C375.93,608,379.31,606.16,383.92,606.24z"/>
		<path d="M480.36,602.54c-11.78,5.09-19.77,14.69-27.48,24.26c-5.76,7.15-13.34,11.13-21.31,14.11
			c-6.85,2.56-12.71-1.23-16.47-7.24c-2.19-3.5-2.12-7.93,2.01-9.59c6.45-2.6,9.61-8.56,14.66-12.34
			c12.47-9.35,23.35-20.83,35.54-29.87c11.68-8.66,21.58-17.8,29.84-29.33c0.5-9.86,3.69-18.47,10.62-25.83
			c3.76-3.99,7.2-8.5,9.28-13.74c1.11-2.79,3.1-6.06,0.18-8.55c-2.5-2.13-5.16,0.41-7.71,1.25c-5.72,1.9-8.86,9.03-16.05,7.94
			c-11.4,11.12-25.05,18.85-39.16,25.81c-5.45,2.69-8.11,7.14-10.42,12.34c-5.25,11.82-17.75,15.52-28.27,8.62
			c-6.17-4.04-7.58-10.4-2.38-15.59c9.32-9.3,18.39-19.21,32.17-22.22c2.01-0.44,4.28-1.47,5.61-2.96
			c6.68-7.47,14.51-13.2,23.6-17.42c3.72-1.73,5.49-5.72,7.83-8.95c12.64-9.23,19.95-23.36,31.13-33.94
			c3.41-3.23,5.73-9.53,11.62-6.82c5.94,2.73,9.33,8.26,7.89,15.28c-1.23,5.99,0.22,10.61,4.38,15.17
			c5.17,5.67,5.52,12.87,4.11,20.14c-2.11,10.92-4.23,21.84-6.46,32.73c-2.55,12.46-10.36,21.95-19.7,29.42
			c-6.68,5.34-12.39,10.61-16.4,18.24C494.81,591.51,485.53,595.1,480.36,602.54z"/>
		<path d="M496.75,400.34c8.18-0.32,16.2-0.16,21.71,7.37c4.23,5.77,2.65,9.6-4.43,11.07c-8.33,1.73-16.54,0.39-24.78-0.65
			c-6.06-0.77-9.8-3.99-9.56-10.3c0.26-6.71,5.33-7.43,10.58-7.5C492.44,400.31,494.6,400.33,496.75,400.34z"/>
		<path d="M692.99,41.72c-0.89-7.34-2.88-12.87-10.13-14.58c-7.2-1.69-12.82,1.09-15.1,8.69c-4.27,14.21-8.44,28.44-12.69,42.65
			c-0.7,2.34-0.87,5.53-2.48,6.77c-6.51,5.02-7.95,12.22-9.66,19.45c-1.09,4.59-2.95,8.89-6.52,12.08
			c-18.38,16.38-28.34,39.48-45.9,56.71c-12.15,11.92-22.36,25.77-37.28,34.72c-2.61,1.57-5.62,3.48-6.96,6.01
			c-6.44,12.18-17.37,17.8-29.73,21.65c-14.83,4.63-24.93,17.15-38.64,23.48c-26.37,12.18-54.22,20.48-82.14,28.02
			c-14.61,3.94-26.43,12.89-40.38,17.94c-15,5.43-31,8.65-44.91,16.88c-9.88,5.84-20.87,9.58-30.53,15.49
			c-24.93,15.28-55.12,19.98-77.94,39.34c-1.82,1.55-4.31,2.55-6.65,3.21c-7.32,2.05-13.21,6.44-19.32,10.7
			c-10.14,7.07-18.65,16.28-29.54,22.31c-5.95,2.4-11.61,5.31-16.64,9.35c0,0,0,0,0,0c0,0,0,0,0,0l-0.04,0.03
			c-6.13,1.56-9.45,6.51-13.16,10.97c0,0,0,0,0,0c-17.61,13.91-31.57,30.93-43.56,49.85c-7.67,12.1-15.44,23.79-21.47,37.11
			c-7.16,15.82-17.04,30.08-14.6,48.61c0.58,4.38-0.99,8.58-2.54,12.64c-2.12,5.58-2.64,11.34-3.02,17.26
			c-1.26,19.38,4.74,36.5,11.91,54.42c8.01,20.02,20.27,35.67,34.63,50.67c7.26,7.58,17.31,10.5,25.33,16.1
			c13.44,9.38,28.35,16.28,41.27,26.29c5.97,4.63,12.65,7.9,19.89,9.66c26.66,6.5,53.54,11.74,80.67,16.04
			c11.77,1.86,22.87,1.33,33.77-1.42c9.47-2.39,18.79-2.97,28.37-3.22c15.92-0.41,30.73-3.25,44.28-13.39
			c13.79-10.32,29.26-18.29,46.61-21.96c13.11-2.78,24.53-10.99,32.52-20.32c11.77-13.73,26.8-22.67,40.26-33.78
			c12.34-10.19,26.37-19.17,35.84-31.66c18.44-24.31,33.98-50.8,51.41-75.91c7.91-11.39,10.23-25.21,17.76-36.58
			c11.16-16.86,17.28-36.08,25.61-54.27c3.39-7.4,4.68-15.23,4.99-23.42c0.38-10.01,2.25-19.65,10.63-26.72
			c3.85-3.25,5.77-7.89,7.68-12.53c5.11-12.39,8.4-25.02,8.71-38.6c0.47-20.24,9.94-38.88,11.27-59.1
			c0.71-10.73-0.36-21.87,4.31-31.98c5.6-12.14,5.68-25.21,7.25-38.03c0.6-4.86-0.65-9.45-6.11-11.17
			c-5.62-1.76-10.52-0.23-13.94,4.54c-2.89,4.04-4.96,8.63-5.51,13.65c-2.21,20.06-9.97,39.57-5.56,60.31
			c1.04,4.89-1.06,9.72-2.7,14.44c-8.1,23.25-8.82,48.71-21.19,70.69c-0.42,0.75-0.21,1.83-0.39,2.74
			c-3.71,18.71-7.18,36.89-17.94,53.94c-9.36,14.84-16.74,31.67-22.95,48.32c-11.6,31.12-22.54,62.22-47.6,85.78
			c-2.57,2.42-3.67,6.37-5.6,9.51c-6.25,10.16-6.9,23.35-17.08,31.41c-13.3,10.53-26.42,21.3-39.83,31.69
			c-8.29,6.42-16.65,12.89-25.62,18.27c-8.09,4.86-15.95,9.38-19.69,18.7c-1.31,3.25-4.08,5.44-7.29,6.84
			c-21.94,9.59-43.59,19.97-66.29,27.63c-27.23,9.19-54.68,17.5-84.13,14.7c-25.08-2.39-49.21-6.85-71.69-19.63
			c-17.81-10.13-33.84-23.72-54.17-29.32c-3.12-0.86-6.93-2.83-8.38-5.43c-4.34-7.79-11.85-11.49-18.43-16.52
			c-10.76-8.22-18.73-18.72-24.05-31.21c-2.47-10.95-1.4-23.16-11.16-31.53c-6.87-14.32-6.29-28.58,0.47-42.73
			c2.71-5.66,4.33-11.65,4.74-17.83c1.08-16.19,8.89-29.8,16.98-43.01c12.52-20.43,30.87-36,47.31-53.03
			c8.01-8.29,15.73-17.53,26.66-22.76c16.8-8.04,31.66-18.63,45.38-31.46c8.13-7.6,18.62-13.35,28.98-17.68
			c12.34-5.15,23.82-11.85,35.29-18.31c24.53-13.82,49.59-26.82,76.47-34.44c30.04-8.52,57-25.39,88.01-30.71
			c1.17-0.2,2.28-0.96,3.33-1.59c20.22-12.13,42.15-20.25,64.47-27.45c4.78-1.54,8.6-4.63,12.8-7.21
			c8.24-5.05,11.85-16.3,21.8-18.08c20.28-3.62,33.65-17.93,47.93-30.23c20.75-17.87,37.7-39.64,56.54-59.49
			c6.39-6.73,10.64-15.18,17.69-21.41c8.82-7.8,14.34-17.84,17.32-29.1c2-7.56,4.81-14.81,8.56-21.49
			C688.28,74.72,695.18,59.74,692.99,41.72z"/>
		<path d="M561.81,272.61c-9.04-5.01-18.44-3.53-26.93,2.88c-12.3,9.28-26.26,14.89-41.3,17.86c-8.77,1.73-16.44,5.92-22.58,12.05
			c-7.04,7.03-15.33,12.06-24.44,14.54c-13.42,3.66-24.86,11.46-37.98,16.01c-18,6.25-34.8,14.37-54.55,15.54
			c-22.26,1.31-41.72,14.28-63.49,18.78c-7.92,1.64-14.1,7.64-20.45,12.44c-5.84,4.42-6.55,11.14-3.41,17.63
			c2.95,6.09,8.7,6.34,14.46,5.2c4.3-0.85,8.09-3.01,11.32-6.04c10.21-9.58,22.63-14.41,35.93-18.17
			c21.9-6.19,44.52-9.88,65.75-18.46c2.44-0.99,5.03-2.54,7.6-0.2c-0.01,2.1-1.7,2.53-2.97,3.22
			c-19.15,10.55-36.07,24.24-52.52,38.4c-9.75,8.4-18.26,18.25-27.32,27.45c-6.24,4.7-14.09,7.21-15.78,16.94
			c-4.6,26.54,20.88,58.3,48.96,57.67c13.37-0.3,21.57,4.02,27.63,14.89c0.6,1.07,1.43,2.02,2.17,3c6.4,8.55,13.98,10.81,24.25,7.14
			c2.91-1.04,5.58-2.61,8.27-4.14c13.68-7.78,24.89-19.09,38.88-26.63c7.8-4.2,13.41-11.88,13.76-21.86c0.08-2.22,0.92-4.2,2.4-5.88
			c10.53-4.32,18.63-11.88,25.98-20.2c5.17-5.86,5.25-16.39,0.27-20.32c-6.92-5.45-10.84,1.23-15.8,4.39
			c-10.23,6.52-14.55,19.13-25.75,24.53c-5.01,1.94-8.73,5.1-10.85,10.24c-2.46,5.95-7.04,9.97-12.86,12.63
			c-5.09,2.32-9.58,5.49-13.54,9.45c-1.96,1.96-4.13,3.71-6.8,4.65c-2.46,0.87-4.96,1.11-6.64-1.35c-1.6-2.34-0.87-4.72,0.59-6.89
			c1.23-1.83,3.02-3.05,4.88-4.15c9.26-5.47,18.49-11.01,27.79-16.4c11.4-6.59,12.58-8.51,10.34-22.8
			c-1.91-4.66-8.4-5.02-9.54-10.66c-1.67-8.3-8.13-13.47-13.64-19.18c-2.8-2.91-6.19-3.94-10.05-2.46
			c-8.72,3.36-17.92,3.89-27.06,4.45c-5.94,0.37-10.67,2.38-14,7.39c-1.9,3.36-4.61,5.22-8.52,6.15c-3.84,0.91-7.44,2.23-10.82,3.83
			c3.87-2.66,7.17-6.07,8.37-11.7c10.48-14.21,20.61-28.78,40.64-30.38c3.7-0.3,6.6-3.28,9.19-5.98c4.37-4.54,8.89-4.94,15.06-2.98
			c12.74,4.06,26.97,5.89,39.12,2.13c16.92-5.23,33.08-14.58,42.77-30.69c7.24-12.03,16.46-16.99,30.59-15.85
			c17.64,1.41,23.11-2.63,29.61-18.92c2.97-7.44,4.98-15.29,5.77-23.33C575.69,287.27,571.48,277.97,561.81,272.61z M389.74,448.62
			c6.28-3.81,13.38-6.29,20.18-9.2c2.36-1.01,5.17-1.29,6.4,1.61c1.18,2.77-0.86,4.71-3.01,6.05c-5.37,3.35-11.66,3.88-17.63,5.33
			c-6.25,1.52-10.1,4.7-11.97,11.26c-3.54,12.46-12.33,18.6-26.16,18.8c-1.88-0.03-4.86,0.07-6.01-3.26
			c-1.06-3.08,0.69-5.39,2.73-7.37C364.61,461.85,377.67,455.94,389.74,448.62z M337.14,447.95c1.77-2.93,4.66-4.94,7.86-6.79
			C342.09,443.23,339.45,445.51,337.14,447.95z M535.88,321.25c-11.7-1.83-21.05,3.07-31.05,6.8c0,0,0,0-0.01,0
			c-5.96,4.72-11.02,10.76-18.74,12.92c0,0,0,0,0,0c-6.38,17.86-19.41,25.92-37.99,25.68c-9.64-0.13-12.58-5.34-7.97-13.85
			c1.51-2.78,3.47-5.31,6.36-6.48c11.59-4.7,22.63-11.29,35.73-11.15c1.06-0.52,2.11-0.78,3.15-0.89c5.55-1.9,10.24-5.46,15.13-8.63
			c4.63-4.72,10.47-7.53,16.25-10.48c9.6-4.91,19.72-9.02,27.29-17.17c1.55-1.67,3.2-2.96,5.66-1.96c2.32,0.95,2.91,2.9,3.19,5.19
			C554.11,311.32,545.52,322.76,535.88,321.25z"/>
		<path d="M326.31,543.06c-13.87,7.09-27.23,1.86-40.67-1.67c-7.51-8.81-6.41-12.12,4.47-14.8c8.82-2.17,17.73-2.14,26.68-1.84
			c5.06,0.17,10.94-1.28,13.72,5.01C332.95,535.31,329.24,539.1,326.31,543.06z"/>
		<path d="M305.6,438.91c-1.83-3.94-6.18-3.3-9.85-3.4c-1.54-0.04-3.07-0.07-4.61-0.11c-5.53,1.92-11.06,3.83-16.58,5.75
			c-17.96,4.08-32.41,14.81-47.18,24.95c-20.2,13.87-32.65,34.48-46.84,53.59c-0.45,0.82-0.95,1.61-1.49,2.38
			c-0.49,5.44-3.07,9.6-7.1,13.29c-5.07,4.63-8.71,10.53-12.97,15.88c-5.57,7-7.18,16.17-13.02,22.57
			c-6.63,7.27-9.54,15.95-12.5,24.81c-3.91,8.24-3.58,17.08-1.65,25.43c2.77,11.97,10.82,20.76,22.76,23.16
			c9.51,1.91,19.54,2.72,29.46,2.11c14.79,2.59,23.81-5.52,30.84-16.91c4.38-7.1,5.81-15.04,3.48-23.05
			c-4.06-13.95,1.2-24.52,10.96-33.83c2.45-2.34,5.09-4.44,7.62-6.67c5.56-4.92,10.54-10.32,11.61-18.17
			c7.36-19.02,4.01-31.36-12.27-43.28c-4.03-2.95-3.5-5.33-0.5-8.08c4.5-4.11,6.86-9.34,8.63-15.01c1.95-6.22,6.24-9.15,12.81-10.17
			c18.25-2.85,32.93-12.07,44.04-26.81C303.17,444.79,307.42,442.8,305.6,438.91z M229.04,533.59c-1.06,6.08-5,7.16-10.58,7.86
			c-25.95,3.28-31.36,12.96-36.58,40.84c-0.67,3.58-0.13,7.39-0.15,11.1c2.62,4.78,3.53,10.3,8.35,14.14
			c4.71,3.75,1.43,8.25-1.76,11.07c-6.32,5.59-13.98,9.36-22.11,11.24c-8.75,2.02-16.24-7.81-10.75-15.59
			c8.04-11.4,13.08-24.25,20.53-35.81c0,0,0,0,0,0c7.26-19.62,20.81-35.53,31.42-53.17c4.03-6.71,9.94-2.95,14.9-1.28
			C226.49,525.39,230.01,528.07,229.04,533.59z"/>
		<path d="M254.75,406.66c-7.77-2.36-14.53-0.35-20.63,4.89c-5.36,4.6-10.24,9.96-17.38,12.03c-26.31,7.62-43.89,27.43-62.93,45.21
			c-5.49,7.71-15.52,10.42-20.51,18.68c-5.02,2.57-8.82,6.39-12.52,10.68c-6.84,7.93-11.89,17.69-19.13,24.61
			c-12.66,12.07-18.69,27.97-28.06,41.8c-6.5,9.6-11.02,21.81-2.96,33.85c7.61,5.61,14.54,12.29,23.92,15.05
			c14.59,0.44,26.82-5.11,37.48-14.7c7.89-16.75,18.44-31.97,27.44-48.07c6.12-10.96,16.85-17.94,24.14-27.9
			c3.62-5.12,6.62-10.74,7.38-16.85c0.89-7.12,1.87-15.05-7.29-18.56c-6.82-5.18-8.49-10,0.48-14.87c2.32-1.26,4.27-3.66,5.74-5.95
			c8.48-13.24,21.1-20.06,35.8-24.02c13.12-3.53,24.31-10.55,33.46-20.5C265.26,415.43,263.3,409.27,254.75,406.66z M116.86,570.09
			c2.46,5.15-4.21,9.11-8.61,11.5c-4.47,2.42-9.66,1.65-13.83-1.54c-1.91-1.46-1.12-3.96-0.2-6c4.03-8.95,8.73-17.58,11.94-26.94
			c1.88-5.47,8.58-5.4,12.54-8.9C115.63,548.94,111.37,558.63,116.86,570.09z M153.56,508.43c-5.47-0.1-11.02-1.54-16.13,1.64
			c0,0,0,0,0,0c-2.1,4.66-5.06,8.49-10.74,11.62c0.65-7.59,5.82-10.91,8.74-15.5c4.17-6.19,10.23-9.74,17.29-11.09
			c4.1-0.78,9.55-0.9,9.84,5.15C162.81,505.64,158.93,508.53,153.56,508.43z"/>
		<path d="M302.29,584.06c-12.22,22.92-29.27,42.39-46.47,61.36c-8.12,8.95-21.2,13-33.3,16.64c-2.67,0.73-5.39,1.3-7.99,2.22
			c-3.74,1.33-7.54,2.04-10.09-1.62c-2.78-4-0.43-7.68,2.04-10.96c0.91-1.2,2.12-2.56,3.47-2.98c19.58-6.08,29.85-24.11,45.39-35.37
			c6.9-4.99,11.63-12.08,13.72-20.43c3.52-14.08,15.01-23.18,21.57-35.38c2.85-5.3,9.48-3.51,12,2.7
			C305.86,568.21,302.86,576.12,302.29,584.06z"/>
	</g>
</g>
</svg>
