<?xml version="1.0" encoding="utf-8"?>
<!-- Generator: Adobe Illustrator 23.1.0, SVG Export Plug-In . SVG Version: 6.00 Build 0)  -->
<svg version="1.1" xmlns="http://www.w3.org/2000/svg" xmlns:xlink="http://www.w3.org/1999/xlink" x="0px" y="0px"
	 viewBox="0 0 1280 593.94" style="enable-background:new 0 0 1280 593.94;" xml:space="preserve">
<style type="text/css">
	.st0{display:none;}
	.st1{display:inline;fill:#B0B0B0;}
	.st2{fill:url(#SVGID_1_);}
	.st3{fill:url(#SVGID_2_);}
	.st4{fill:url(#SVGID_3_);}
	.st5{fill:url(#SVGID_4_);}
	.st6{fill:url(#SVGID_5_);}
	.st7{fill:url(#SVGID_6_);}
	.st8{fill:url(#SVGID_7_);}
	.st9{fill:url(#SVGID_8_);}
	.st10{fill:#040000;}
	.st11{fill:#FFFFFF;}
	.st12{clip-path:url(#SVGID_10_);}
	.st13{fill:none;}
	.st14{fill:#1A1A1A;}
</style>
<g id="BG" class="st0">
	<rect x="-2812.29" y="-339.47" class="st1" width="5644.36" height="2877.76"/>
</g>
<g id="圖層_1">
	<g>
		<path d="M111.98,273.3c-2.67-0.7-5.03-1.3-7.37-1.95c-3.12-0.86-6.13-2.55-9.53-1.06c-0.33,0.14-0.86,0.06-1.21-0.1
			c-3.59-1.64-7.25-3.14-10.71-5.02c-5.91-3.2-10.06-8.66-15.4-12.51c-4.32-3.12-7.35-7.17-10.44-11.2
			c-3.79-4.95-7.23-10.19-10.57-15.46c-1.21-1.91-1.95-4.21-2.52-6.42c-1.2-4.63-2.47-9.28-3.08-14c-0.41-3.17,0.26-6.48,0.46-9.73
			c0.26-4.4,1.83-8.55,3.65-12.36c2.49-5.21,4.47-10.97,9.52-14.55c1.43-1.01,3.12-1.68,4.7-2.47c0.85-0.43,2.2-0.55,2.53-1.21
			c1.43-2.84,3.95-2.32,6.08-1.89c2.49,0.5,4.63,0.02,6.75-1.02c4.49-2.19,9.19-0.66,13.79-0.9c3.74,3.43,9.59,3.64,12.58,8.23
			c2.65-0.57,3.8,2.05,5.85,2.73c0.43,0.14,1.01-0.21,1.81-0.4c-0.06,0.87-0.26,1.99-0.12,2.03c3.1,0.99,3.61,4.72,6.11,5.98
			c2.9,1.46,4.81,3.92,7.26,5.79c1.34,1.03,2.28,2.59,3.38,3.92c2.82,3.42,5.63,6.85,8.46,10.25c0.34,0.41,1.05,0.61,1.21,1.05
			c1.57,4.28,5.63,4.7,9.12,5.62c3,0.79,4.1-0.7,3.31-3.68c-0.25-0.93-0.52-1.88-0.98-2.71c-2.09-3.79-4.28-7.54-6.39-11.32
			c-1.71-3.07-2.98-6.48-5.12-9.2c-2.95-3.75-2.63-7.9-3-12.15c-0.28-3.14-1.17-6.42-2.65-9.18c-0.82-1.52-1.32-2.81-1.32-4.44
			c0-7.01-0.17-14.02,0.05-21.02c0.11-3.51-1.32-6.01-3.79-8.1c-2.91-2.47-4.48-5.63-5.21-9.29c-0.11-0.54-0.09-1.17-0.36-1.6
			c-2.35-3.64-1.81-7.18-0.07-10.91c1.72-3.69,4.5-5.73,8.03-7.67c2.32-1.28,4.41-2.1,6.73-1.65c5.45,1.05,10.96,2.23,14.99,6.56
			c0.79,0.85,1.62,2.08,1.66,3.17c0.26,6.02,0.4,12.05,0.35,18.08c-0.02,2.79-1.62,4.87-4.15,6.08c-1.79,0.85-2.76,2.11-2.56,4.16
			c0.05,0.53,0.11,1.22-0.16,1.59c-2.93,4.02-1.59,8.38-1.07,12.66c0.33,2.73,1.02,5.42,1.2,8.15c0.38,5.81,2.69,11.1,4.25,16.59
			c0.52,1.82,1.57,3.48,2.38,5.21c1.09,2.32,2.12,4.66,3.3,6.93c0.62,1.2,1.47,2.28,2.26,3.38c1.18,1.62,2.16,3.5,3.66,4.75
			c2.71,2.25,4.06,5.74,6.88,7.66c2.14,1.46,3.91,2.93,5.37,5.09c0.92,1.37,2.67,2.22,4.12,3.2c2.18,1.47,4.5,2.75,6.62,4.3
			c1.67,1.21,3.54,1.51,4.87,0.23c1.04-1,1.94-3.02,1.68-4.33c-0.47-2.3-1.14-4.76-3.57-6.23c-1.93-1.17-3.9-2.55-5.27-4.29
			c-1.25-1.58-1.78-3.76-2.52-5.71c-1.31-3.44-2.59-6.89-3.8-10.36c-0.3-0.88-0.27-1.87-0.41-2.81c-0.13-0.94-0.07-1.97-0.45-2.79
			c-1.34-2.85-2.76-5.54-2.27-8.96c0.22-1.5-2.06-2.52-1.61-4.71c1.23-6.03,2.07-12.13,3.07-18.2c0.04-0.27,0.26-0.54,0.23-0.79
			c-0.82-6.67,4.55-10.49,7.33-15.45c1.26-2.25,4.35-3.37,4.72-6.43c3.86-0.09,4.57-4.83,8.15-5.51c1.21-0.23,2.17-1.56,3.34-2.23
			c6.02-3.46,11.96-7.08,18.9-8.5c0.53-0.11,1.15-0.22,1.54-0.55c3.81-3.3,8.32-3.69,13.09-3.48c1.88,0.08,3.81-0.79,5.7-0.74
			c5.34,0.14,11.06-0.58,15.9,1.12c5.06,1.78,10.48,3.34,14.91,7.17c3.76,3.25,7.96,6.07,11.34,9.75
			c3.84,4.17,7.35,8.61,10.03,13.68c0.8,1.52,2.32,2.66,3.53,3.99c6.93-0.16,10.03-5.93,6.94-12.41c-1.28-2.68-2.11-5.71-2.48-8.66
			c-0.45-3.6-2.3-6.4-4.03-9.35c-1.84-3.15-3.99-6.07-5.53-9.48c-1.16-2.57-3.98-4.4-6.05-6.57c-1.01-1.07-2.1-2.09-2.97-3.27
			c-3.71-5.05-8.45-8.19-14.91-7.95c-4.95,0.19-9.88,0.72-14.83,0.96c-5.83,0.29-10.98-3.52-12.65-9.1
			c-0.51-1.69-1.34-3.29-1.8-4.99c-0.35-1.3-0.71-2.77-0.44-4.03c0.87-4.06,1.78-8.25,4.56-11.47c1.15-1.33,3.25-1.83,4.93-2.68
			c0.48-0.24,1.1-0.27,1.5-0.6c3.47-2.84,7.57-2.01,11.52-2.05c0.66-0.01,1.47,0.03,1.97,0.38c2.22,1.55,4.47,3.1,6.48,4.91
			c1.25,1.13,2.49,2.48,2.25,4.53c-0.11,0.94,0.26,1.92,0.18,2.87c-0.44,5.14,2.03,8.54,6.28,11.03c3.42,2.01,6.73,4.05,8.86,7.74
			c1.17,2.01,3.37,3.47,5.22,5.04c4.9,4.16,7.98,9.55,10.64,15.26c0.34,0.73,0.77,1.43,1.22,2.1c1.5,2.22,3.29,4.3,4.49,6.68
			c1.14,2.27,1.3,5.07,2.55,7.26c2.27,3.98,2.18,8.32,2.76,12.59c0.21,1.57,0.71,3.21,1.51,4.56c2.86,4.84,2.8,9.64,0.66,14.73
			c-0.65,1.54-0.59,3.51-0.39,5.23c0.44,3.81,1.13,7.53,0.2,11.43c-0.45,1.89-0.25,4.13,1.81,5.53c2.77,1.89,6,1.52,7.56-1.87
			c1.84-4.02,5.89-7.01,5.7-11.97c3.96-9.4,2.01-19.09,1.42-28.71c-0.08-1.37-0.3-2.74-0.51-4.1c-0.16-1.08-0.08-2.37-0.66-3.19
			c-3.18-4.56-3.08-9.83-3.58-14.98c-0.07-0.68-0.02-1.4-0.25-2.02c-1.25-3.28-2.77-6.47-3.78-9.81c-0.47-1.56-0.13-3.42,0.13-5.11
			c0.18-1.19,1.27-2.32,1.21-3.44c-0.21-3.51,1.8-6.29,2.78-9.38c0.81-2.55,2.22-4.78,4.54-6.6c2.78-2.18,4.99-5.09,7.46-7.67
			c0.56-0.59,1.24-1.65,1.75-1.59c4.69,0.58,8.06-3.13,12.37-3.63c4.36-0.51,8.73-0.92,13.1-1.38c3.86-0.41,7.55,0.24,11.28,1.27
			c1.45,0.4,3.22,0.11,4.72-0.3c2.28-0.62,4.21-0.46,6.29,0.79c2.19,1.31,4.72,2.04,6.98,3.24c5.16,2.73,9.35,6.56,12.42,11.56
			c0.35,0.57,0.38,1.54,0.85,1.8c2.99,1.68,4.07,4.4,5.24,7.47c0.85,2.26,2.96,4.13,4,6.53c0.92,2.12,2.19,4.08,3.03,6.23
			c1.14,2.92,2.58,5.8,2.12,9.12c-0.09,0.66-0.05,1.44,0.22,2.04c2.53,5.51,1.65,11.59,2.86,17.33c0.78,3.69,1.18,7.67,0.67,11.37
			c-0.49,3.54,0.59,6.88,0.24,10.3c-0.29,2.85-0.84,5.67-1.23,8.52c-0.28,2.03-0.67,4.07-0.69,6.1c-0.02,2.7-0.58,5.15-2.12,7.38
			c-0.38,0.55-0.81,1.22-0.82,1.84c-0.12,4.44-2.56,8.14-3.86,12.2c-0.9,2.83-2.4,5.49-3.75,8.16c-2.81,5.56-6.59,10.48-10.39,15.39
			c-2.48,3.2-5.7,5.7-7.8,9.31c-1.37,2.37-3.89,4.12-6.07,5.95c-2.7,2.28-4.59,4.86-4.26,8.79c1.72,2.61,4.37,3.53,7.65,3.58
			c4.22,0.06,8.04-0.75,11.85-2.76c4.31-2.27,9.13-3.57,13.52-5.71c6.85-3.33,14.69-4.64,20.57-9.98c0.53-0.48,1.54-0.38,2.25-0.71
			c0.97-0.45,2.01-0.9,2.77-1.62c1.52-1.44,2.87-3.05,4.84-5.19c-0.31-2.54,1.76-4.81,4.06-7.06c2.13-2.09,4.15-4.21,6.75-5.81
			c2.91-1.79,5.84-2.38,8.99-1.3c2.97,1.02,5.85,2.3,8.76,3.49c0.49,0.2,1.11,0.41,1.35,0.81c3.51,5.69,6.55,11.73,5.05,18.54
			c-0.75,3.39-2.76,6.94-5.21,9.41c-3.09,3.11-7.58,4.22-12.06,4.42c-2.62,0.12-5.33,0.44-7.84-0.1c-3.79-0.82-6.72,0.93-10.07,1.95
			c-4.97,1.5-8.98,4.38-13.26,6.98c-1.71,1.04-3.77,1.66-5.75,2.05c-4.87,0.96-8.84,3.97-13.39,5.61c-3.02,1.08-6.06,2.41-8.79,3.8
			c-4.4,2.24-9.63,2.33-13.54,5.61c-0.54,0.45-1.59,0.25-2.37,0.47c-1.81,0.51-3.61,1.07-5.4,1.65c-0.39,0.12-0.71,0.48-1.1,0.57
			c-3.37,0.74-6.74,1.41-10.11,2.15c-0.79,0.17-1.53,0.53-2.3,0.78c-1.51,0.5-3.03,1-4.55,1.47c-3.49,1.07-6.98,2.09-10.46,3.17
			c-3.02,0.94-5.91,2-9.16,2.51c-5.59,0.87-11,3.24-16.33,5.38c-2.57,1.03-2.88,3.84-2.84,6.38c0.02,1.08,0.39,2.15,0.63,3.21
			c1.7,7.34,4.76,8.75,10.94,8.63c3.63-0.07,7.28-0.52,10.78-2.04c2.65-1.14,5.37-2.57,8.5-2.24c0.9,0.09,2.01-0.04,2.75-0.51
			c1.93-1.2,4.38-1.01,6.13-1.91c4.82-2.49,10.58-0.95,15.18-4.01c0.69-0.46,1.86-0.17,2.8-0.26c0.81-0.08,2.02,0.11,2.36-0.35
			c1.82-2.42,4.4-1.81,6.79-1.99c0.41-0.03,0.93,0.08,1.22-0.12c4.21-2.97,9.63-1.22,14.02-3.64c0.9-0.5,2.6-0.27,3.59,0.26
			c2.27,1.22,4.45,0.8,6.8,0.6c2.11-0.19,4.33,0.12,6.41,0.6c2.74,0.63,5.55,0.79,8.19,2.17c2.41,1.26,4.93,2.26,6.4,4.62
			c1.82,2.93,4.9,4.55,6.93,7.36c2.86,3.95,4.53,8.2,6.01,12.78c1.81,5.59,1.35,11.35,2.43,16.91c1.08,5.56,0.91,11.11,1.3,16.65
			c0.21,3.02,0.28,6.06,0.16,9.08c-0.18,4.31-2.98,7.12-7.24,7.93c-7.67,1.45-15.37,2.83-22.97,4.57c-7.85,1.8-15.58,4.07-23.4,6
			c-4.22,1.04-8.52,1.7-12.76,2.68c-2.91,0.67-5.76,1.64-8.66,2.38c-7.82,1.99-15.63,4.02-23.49,5.85
			c-2.36,0.55-3.36,1.89-3.19,4.04c0.2,2.57,0.76,5.11,1.14,7.66c0.17,1.08,0.35,2.15,0.44,3.24c0.45,5.56,3.31,8.96,8.7,10.31
			c0.13,0.03,0.3,0.01,0.4,0.08c5.5,3.89,11.74,1.48,17.63,2.02c0.77,0.07,1.62-0.22,2.37-0.51c3.94-1.47,7.82-3.11,11.8-4.45
			c5.54-1.87,11.15-3.55,16.75-5.24c1.03-0.31,2.17-0.24,3.23-0.5c1.7-0.4,3.37-0.9,5.04-1.42c0.51-0.16,0.96-0.71,1.44-0.71
			c5.61-0.06,10.5-2.76,15.76-4.1c3.3-0.84,6.87-1.16,10.24,1.24c1.92,1.37,4.14,2.14,5.93,4.01c1.57,1.64,2.38,3.22,2.5,5.3
			c0.15,2.47,0.27,4.95,0.26,7.43c-0.03,6.87-0.03,13.74-0.26,20.6c-0.11,3.08-0.19,6.15-0.05,9.23c0.12,2.52-0.4,4.89-1.23,7.4
			c-0.94,2.84-0.2,6.22-0.3,9.37c-0.17,5.62,0.31,11.39-0.82,16.82c-1.61,7.78-1.39,15.55-1.84,23.35
			c-0.25,4.45-1.62,8.84-2.46,13.09c-4.81,2.29-8.75,0.09-12.61-2.38c-4.08-2.61-7.93-5.68-12.25-7.78
			c-2.33-1.13-5.05-1.74-7.37-3.04c-3.81-2.14-7.57-4.38-11.28-6.7c-4.4-2.75-8.99-1.73-13.6-0.94c-2.14,0.37-4.29,0.72-6.42,1.16
			c-2.54,0.53-5.06,1.16-7.59,1.72c-1.2,0.27-2.42,0.41-3.62,0.7c-4.64,1.15-9.27,2.33-13.9,3.52c-0.39,0.1-0.75,0.48-1.12,0.47
			c-4.31-0.08-8.33,0.94-12.46,2.22c-4.67,1.45-9.64,2.1-14.53,2.56c-4.36,0.41-8.96,0.87-13.14-0.08
			c-5.25-1.19-10.47-3.27-13.92-8.02c-1.61-2.22-3.62-4.18-4.96-6.53c-2.47-4.36-2.88-9.39-3.49-14.22
			c-0.65-5.14-0.55-10.31-2.04-15.42c-1.05-3.62-0.58-7.66-1.07-11.48c-0.81-6.23-1.87-12.42-2.8-18.63
			c-0.35-2.31-0.62-4.62-0.94-6.93c-0.72-5.3-1.46-10.59-2.17-15.89c-0.27-1.96-1.21-3.73-3.18-3.74c-1.39,0-3.06,1.01-4.1,2.06
			c-1,1.01-1.55,2.6-1.96,4.03c-1.72,6.01-3.25,12.08-4.99,18.09c-0.71,2.46-1.75,4.83-2.65,7.24c-1.24,3.31-2.76,6.54-3.66,9.94
			c-1.81,6.85-4.97,13.16-7.33,19.78c-1.28,3.58-3.62,6.75-3.79,10.81c-0.08,1.8-1.29,3.55-2.03,5.32c-1.9,4.55-3.9,9.06-5.71,13.65
			c-1.55,3.93-2.78,7.98-4.33,11.92c-2.72,6.91-5.49,13.82-8.42,20.65c-2.19,5.12-4.91,10.02-6.95,15.19
			c-3.57,9.03-8.61,17.28-12.99,25.89c-1.43,2.81-3.94,3.95-6.14,5.63c-1.05,0.8-2.34,1.31-3.59,1.78
			c-0.72,0.27-1.61,0.38-2.35,0.22c-3.02-0.68-6-1.6-9.03-2.24c-6.69-1.43-13.41-2.73-20.1-4.13c-2.11-0.44-4.33-0.74-6.23-1.65
			c-3.94-1.9-8.57-1.62-12.28-4.11c-0.32-0.21-0.8-0.26-1.2-0.24c-4.99,0.3-9.45-2.31-14.34-2.58c-1.05-0.06-2.08-0.61-3.11-0.97
			c-0.78-0.27-1.55-0.85-2.31-0.83c-4.59,0.07-8.52-2.66-13.04-2.96c-1.56-0.1-3.06-1.09-4.6-1.63c-4.06-1.42-8.19-2.65-12.16-4.27
			c-3.05-1.25-5.9-3-8.84-4.52c-0.24-0.13-0.5-0.26-0.76-0.31c-4.7-0.88-8.11-4.1-11.87-6.62c-2.81-1.88-5.53-3.97-7.97-6.3
			c-2.4-2.29-2.11-9,0.25-11.43c3.28-3.38,7.04-5.79,11.77-7.01c4.69-1.21,9.15-3.32,13.73-4.98c1.52-0.55,3.09-0.99,4.66-1.38
			c3.96-0.99,7.94-1.92,11.91-2.89c1.58-0.39,3.16-0.82,4.72-1.29c0.78-0.23,1.68-0.42,2.24-0.95c2.96-2.8,5.83-5.7,8.73-8.57
			c1.05-1.04,2.11-2.06,3.13-3.11c1.7-1.76,3.35-3.55,5.05-5.32c1.66-1.72,3.47-3.32,4.99-5.15c3.43-4.11,6.72-8.33,10.06-12.51
			c0.42-0.53,0.72-1.16,1.19-1.63c5.53-5.57,10.29-11.76,14.85-18.13c2.26-3.16,5.04-5.94,7.43-9.01c1.63-2.08,3.01-4.36,4.43-6.46
			c-1.58-2.35-3.38-1.7-5.06-1.24c-3.55,0.98-7.05,2.14-10.61,3.05c-4.62,1.18-9.3,2.13-13.92,3.3c-2.35,0.6-4.7,1.3-6.93,2.24
			c-4.04,1.69-8.76,0.68-12.57,3.3c-0.46,0.32-1.56-0.15-2.31-0.42c-1.55-0.55-3.07-1.16-4.57-1.84c-0.59-0.27-1.44-0.7-1.55-1.2
			c-0.67-2.88-2.9-5.19-2.67-8.44c0.22-3.13,0.16-6.32-1.46-9.26c-0.43-0.78-0.24-1.88-0.43-2.81c-0.44-2.13-0.94-4.24-1.44-6.36
			c-0.09-0.4-0.53-0.88-0.41-1.13c1.35-2.76-0.62-5.43-0.1-8.28c0.5-2.75-0.24-5.72-0.4-8.59c-0.13-2.33-0.15-4.66-0.33-6.99
			c-0.55-7.1,1.65-13.62,4.13-20.09c0.23-0.6,0.52-1.26,0.97-1.69c2.53-2.44,3.42-6.01,6.11-8.41c3.47-3.09,5.89-7.31,10.91-8.59
			c1.68-0.43,3.13-1.83,4.88-2.6c4.11-1.81,8.23-3.32,12.6-4.36c2.68-0.64,5.12-2.21,7.72-3.21c1.1-0.42,2.57-0.13,3.5-0.73
			c3.24-2.11,7.32-1.21,10.33-2.63c2.99-1.42,5.88-1.46,8.79-2.21c1.83-0.47,3.38-1.86,5.45-2.36c2.51-0.61,4.88-1.71,7.56-1.46
			c2.31-2.75,6.88-0.42,8.91-3.95c0.2-0.35,1.29-0.24,1.97-0.27c1.65-0.06,3.31,0.02,4.47-1.55c0.27-0.37,0.91-0.66,1.38-0.65
			c3.72,0.12,4.55-2.96,5.96-5.35c0.29-0.49,0.17-1.29,0.06-1.92c-0.23-1.32-0.63-2.62-0.87-3.94c-0.59-3.2-2.67-4.94-6-5.1
			c-2.17-0.1-4.34-0.49-6.51-0.43c-2.12,0.06-4.27,0.35-6.34,0.85c-4.22,1.01-8.36,2.34-12.58,3.32c-2.78,0.65-5.63,1.16-8.47,1.32
			c-4.08,0.24-8.01,0.09-12.09,1.62c-3.41,1.28-7.56,0.47-11.36,0.87c-5.58,0.58-11.13,1.49-16.71,2.09
			c-1.88,0.2-3.82-0.13-5.74-0.22c-9.03-0.39-18.04,0.26-27.06,0.41c-9.89,0.16-19.79-0.45-29.69-0.52
			c-5.08-0.04-10.19,0.12-15.23,0.69c-2.63,0.3-5.31,1.33-6.32,4.52c-0.34,1.06-1.48,1.93-2.39,2.74c-2.94,2.61-5.84,5.27-8.95,7.66
			c-1.2,0.92-2.89,1.49-4.41,1.65c-2.58,0.27-5.25,0.35-7.82,0.03c-2.85-0.36-5.58,1.03-8.5,0.01c-5.22-1.82-8.84-5.1-10.85-10.23
			c-1.02-2.61-2.65-5.1-3.08-7.79c-0.9-5.61-1.72-11.4,2.77-16.2c0.92-0.99,1.59-2.2,2.42-3.28c2.46-3.2,5.53-5.52,9.58-6.31
			c3.09-0.6,6.2-1.13,9.31-1.67c2.16-0.37,3.97,0.25,5.68,1.68c3.47,2.91,7.18,5.56,10.59,8.54c2.76,2.42,5.87,3.39,9.44,3.35
			c12.64-0.14,25.29-0.23,37.93-0.39c2.06-0.03,4.13-0.2,6.17-0.52c4.29-0.66,5.88-3.7,4.09-7.67
			C113.23,275.24,112.58,274.33,111.98,273.3"/>
		<path d="M990.24,480.06c0-6.36,0.07-13.23-0.02-20.11c-0.1-8.66-0.36-17.32-0.49-25.99c-0.14-10.31-0.22-20.62-0.31-30.93
			c-0.07-8.45-0.22-16.91-0.15-25.36c0.06-7.82,0.48-15.63,0.53-23.45c0.03-5.46,0.87-10.92-0.32-16.42
			c-0.5-2.31,0.14-4.87,0.25-7.17c2.99-1.24,5.65-2.43,8.37-3.47c3.45-1.32,6.77-2.88,10.41-3.87c4.76-1.29,9.66-2.42,14.16-4.71
			c2.77-1.41,5.82-2.26,8.75-3.37c3.63-1.37,7.4-2.27,10.97-3.88c2.88-1.3,6.31-1.44,9.1-2.87c2.18-1.12,4.54-1.66,6.56-2.73
			c1.99-1.05,3.81-1.18,5.82-1.29c0.27-0.01,0.61,0.06,0.81-0.07c3.4-2.19,7.4-2.56,11.12-3.76c2.3-0.75,4.43-2.16,6.77-2.67
			c4.41-0.96,8.41-2.83,12.47-4.63c0.37-0.17,0.82-0.38,1.19-0.31c4.9,0.87,9.37-1.77,14.18-1.72c4.53,0.05,9.06-0.06,13.59-0.09
			c2.16-0.01,4.33-0.39,6.03,1.7c0.54,0.66,2.01,0.59,3.07,0.78c2.45,0.44,4.6,1.31,5.89,3.65c0.32,0.58,0.88,1.06,1.41,1.48
			c2.37,1.86,3.38,4.14,4.19,7.19c1.06,3.99,0.7,7.87,0.98,11.78c0.34,4.74-2.53,8.51-4.97,12.15c-3.05,4.55-7.43,7.83-12.02,10.87
			c-5.26,3.49-10.22,7.44-15.31,11.19c1.45,4.94,5.61,7.27,9.01,10.28c1.83,1.62,3.56,3.36,5.37,5.01c2.01,1.85,4.07,3.65,6.07,5.51
			c1.38,1.28,2.93,2.44,3.99,3.95c2.43,3.45,6.11,5.37,9.15,8.06c5.14,4.54,10.1,9.27,15.08,13.98c1.65,1.56,1.93,4.93,0.46,6.77
			c-4.59,5.72-4.98,11.99-3.33,18.87c0.92,3.83,1.13,7.82,3.51,11.17c0.73,7.88,6.95,12.03,11.7,17.19
			c4.04,1.11,6.49,5.19,10.99,5.67c1.69,0.18,3.19,1.84,4.85,2.69c1.41,0.71,2.93,1.71,4.4,1.72c3.31,0.02,6.5,0.39,9.77,0.88
			c2.59,0.38,5.74-0.61,8.09-1.95c1.81-1.03,3.47-1.34,5.34-1.49c1.65-0.13,3.31-0.3,4.95-0.23c1.05,0.04,2.15,0.33,3.12,0.76
			c3.25,1.4,5.71,3.98,8.46,6.1c1.22,0.94,1.56,3.03,2.78,3.96c2.91,2.2,4.85,5.12,7.09,7.86c1.94,2.37,4.38,4.46,6.93,6.18
			c3.19,2.15,5.06,5.27,7.11,8.29c1.36,1.99,2.7,4.03,3.75,6.19c1.74,3.6,1.4,7.53,1.02,11.32c-0.65,6.54-5.11,11.06-9.12,15.69
			c-0.93,1.07-3.04,1.01-4.35,1.86c-3.91,2.53-7.77,5.05-12.58,5.51c-1.21,0.11-2.41,0.58-3.6,0.52c-4.38-0.2-8.82-0.15-13.1-0.95
			c-4.37-0.82-9.02-1.78-12.75-4.02c-6.2-3.72-13.15-5.96-19.07-10.24c-2.47-1.79-5.64-2.63-7.9-4.91
			c-2.13-2.16-4.33-4.25-6.49-6.37c-1.97-1.93-3.92-3.86-6.03-5.67c-4.37-3.75-8.14-8.2-12.12-12.39c-0.34-0.36-0.57-0.95-0.62-1.45
			c-0.22-2.39-1.95-3.62-3.52-5.12c-2.59-2.48-4.16-5.58-5.52-8.96c-1.18-2.92-3.57-5.35-5.39-8.02c-1.02-1.5-2-3.04-2.95-4.59
			c-0.36-0.58-0.5-1.31-0.92-1.83c-2.94-3.61-6.28-6.95-8.79-10.84c-2.68-4.15-6.63-7.21-9.23-11.24
			c-4.41-6.84-10.82-11.75-15.84-17.93c-5.56-6.84-12.23-12.46-18.84-18.16c-2.43-2.1-5.34-3.62-7.96-5.52
			c-3.27-2.37-6.57-4.72-9.63-7.34c-2.77-2.38-5.62-2.36-8.76-1.12c-2.08,3.43-0.3,6.28,1.54,9.03c0.4,0.59,1.3,0.89,2.02,1.2
			c0.46,0.2,1.21-0.02,1.51,0.28c3.57,3.46,8.38,5.39,11.52,9.41c1.5,1.92,3.4,3.51,5.04,5.32c2.17,2.4,3.88,5.07,5.16,8.1
			c2.74,6.46,4.18,13.18,4.17,20.13c-0.01,4.02-1.24,7.74-3.74,11.23c-2.35,3.26-4.89,6.29-7.63,9.18
			c-2.96,3.13-7.03,4.69-10.57,6.99c-0.8,0.52-1.91,0.72-2.47,1.41c-2.71,3.3-7.01,3.13-10.4,4.94c-1.76,0.94-4.02,0.92-5.8,1.84
			c-2.66,1.38-5.13,3.09-8.34,2.65c-4.76,2.96-10.34,2.13-15.5,3.05c-5.49,0.98-11.21,0.66-16.84,0.83
			c-2.97,0.09-5.95-0.13-8.91,0.04C995.61,483.42,992.99,482.7,990.24,480.06"/>
		<path d="M822.86,328.63c2.45-2.88,3.19-6.13,3.35-9.65c0.16-3.37,0.57-6.74,0.93-10.1c0.6-5.55,6.42-10.86,12-11.06
			c0.93-0.03,2.25,0.02,2.71-0.53c3.09-3.73,7.37-2.38,11.09-2.46c5.92-0.12,11.65,1.3,16.45,5.13c1.04,0.83,1.94,1.91,2.66,3.03
			c2.13,3.32,4.24,6.62,5.19,10.59c0.75,3.14,1.39,3.47,4.77,3.26c5.15-0.3,10.37,0.39,15.42-1.6c1.65-0.65,3.8-0.02,5.72-0.02
			c3.27-0.01,6.55-0.31,9.79-0.03c8.79,0.76,16.1,4.12,21.77,11.36c3.58,4.58,5.52,9.83,8.16,14.8c0.48,0.9,0.23,2.16,0.45,3.23
			c0.26,1.31,0.37,2.76,1.04,3.85c1.13,1.84,1.18,3.46,0.32,5.4c-1.27,2.86-0.26,7.09,2.01,9.54c0.33,0.35,0.69,0.87,0.69,1.3
			c-0.02,2.74-0.1,5.49-0.25,8.22c-0.13,2.58-1.1,5.37-0.43,7.68c1.7,5.79,1.38,11.7,1.52,17.52c0.35,14.18,0.19,28.37,0.1,42.56
			c-0.02,2.56-0.65,5.13-1.01,7.69c-0.23,1.61-0.63,3.2-0.68,4.81c-0.08,2.38-0.72,3.91-3.22,5.01c-2.43,1.07-4.58,2.24-7.38,1.92
			c-1.28-0.15-2.97,0.11-3.91,0.87c-2.17,1.78-4.58,1.43-7,1.51c-2.02,0.07-4.18-0.46-5.81,1.38c-0.21,0.24-0.75,0.27-1.14,0.26
			c-6.64-0.11-12.95,1.95-19.4,3.04c-1.85,0.31-3.17-0.44-4.46-1.55c-1.11-0.96-2.28-1.86-4.04-3.29
			c0.17-7.18-1.14-15.09,1.15-22.91c0.42-1.43,0.44-2.98,0.72-4.46c0.42-2.27,1.2-4.51,1.29-6.79c0.09-2.07-0.9-4.19-0.77-6.25
			c0.37-5.94,1.38-11.85,1.52-17.79c0.13-5.11,0.43-10.27-1.42-15.34c-0.96-2.62-0.59-5.72-0.82-8.6c-0.4-4.89-5.55-9.36-10.42-9.07
			c-0.69,0.04-1.38-0.07-2.07-0.01c-4.32,0.36-5.53,1.65-5.64,5.91c-0.05,2.03,0.18,4.02-1.39,5.82c-0.7,0.81-0.59,2.36-0.77,3.58
			c-0.47,3.22-0.98,6.44-1.32,9.67c-0.47,4.49-0.7,9.01-1.21,13.5c-0.28,2.53-0.91,5.03-1.38,7.54c-0.2,1.07-0.49,2.13-0.55,3.21
			c-0.15,2.95,0.26,5.86-1.4,8.71c-0.89,1.52-0.68,3.72-0.78,5.63c-0.14,2.97,0.23,5.98-1.45,8.74c-0.46,0.76-0.43,1.85-0.52,2.8
			c-0.34,3.45-0.42,6.94-1.02,10.35c-0.33,1.87-1.74,3.53-2.23,5.39c-0.35,1.33-0.47,3.13,0.16,4.23c0.98,1.69,0.6,3.15,0.29,4.74
			c-0.5,2.55-1.54,5.09-1.49,7.61c0.07,3.65-2.17,6.53-2.61,10.01c-0.22,1.76-2.2,3.33-3.48,4.9c-2.33,2.85-4.25,6.44-7.24,8.26
			c-3.55,2.15-5.79,6.39-10.81,6.5c-2.65,0.06-5.25,1.79-7.9,2.71c-1.5,0.53-3.02,1.04-4.57,1.39c-0.78,0.18-1.75-0.29-2.45-0.01
			c-4.41,1.77-9,2.16-13.69,2.38c-4.09,0.2-8.13,1.11-12.22,1.53c-3.41,0.35-6.85,0.48-10.28,0.65c-4.58,0.22-5.89-1.43-4.84-5.91
			c1.5-6.36,2.99-12.73,4.44-19.11c0.42-1.87,0.72-3.76,1.04-5.65c0.93-5.63,2.75-11.01,4.33-16.47c1.59-5.49,2.64-11.14,4.1-16.67
			c1.95-7.4,4.01-14.78,6.12-22.14c1.31-4.56,2.81-9.07,4.18-13.62c1.58-5.23,3.89-10.4,4.41-15.74c0.46-4.79,3.39-8.97,2.72-13.91
			c-0.11-0.84,0.62-1.78,0.86-2.7c0.38-1.43,0.94-2.89,0.94-4.34c0-2.41,0.24-4.6,1.86-6.56c0.55-0.66,0.64-1.75,0.82-2.67
			c0.16-0.79-0.12-1.78,0.26-2.4c2.01-3.24,1.36-6.88,1.8-10.36c0.12-0.93,0.42-1.83,0.64-2.75c0.43-1.87,1.39-3.79,1.19-5.59
			c-0.5-4.51,1.61-8.03,3.31-11.87C823.05,335.41,825.53,332.26,822.86,328.63"/>
		<path d="M738.13,385.69c2.4,3.91,4.47,7.1,6.35,10.41c1.21,2.12,2.07,4.42,3.2,6.58c3.28,6.25,6.25,12.62,8.95,19.15
			c3.19,7.72,6.58,15.35,10.02,22.96c1.73,3.83,1.81,7.7,0.74,11.6c-0.79,2.89-3.17,4.37-5.87,5.22c-2.08,0.66-4.22,1.21-6.38,1.53
			c-1.48,0.22-3.14-0.26-3.25,2.03c-0.01,0.11-0.17,0.32-0.24,0.31c-2.94-0.3-5.08,1.73-7.62,2.57c-1.11,0.37-2.34-0.01-3.13,1.43
			c-0.3,0.55-1.72,0.54-2.64,0.7c-1.07,0.18-2.59-0.16-3.16,0.44c-2.23,2.36-5,1.61-7.64,1.87c-1.04,0.1-2.01,0.76-3.03,1.14
			c-1.11,0.41-2.25,0.78-3.36,1.21c-1.08,0.41-2.11,0.97-3.22,1.29c-0.99,0.28-2.06,0.41-3.09,0.45c-2.05,0.08-4.17-0.17-5.65,1.73
			c-0.16,0.2-0.43,0.51-0.6,0.48c-4.4-0.8-7.98,2.28-12.14,2.57c-0.27,0.02-0.62-0.09-0.82,0.04c-4.66,2.94-10.18,1.4-15.17,2.88
			c-4.23,1.26-8.65,2.18-13.02,2.78c-4.58,0.63-9.3,0.12-13.96,0.31c-3.83,0.15-7.64,0.74-11.47,0.84
			c-2.53,0.07-5.06-0.26-6.84,1.34c-1.37-0.61-2.38-1.41-3.43-1.48c-5.54-0.35-11.1-0.83-16.63-0.64
			c-4.47,0.15-9.14-0.82-13.45,1.48c-0.7,0.37-1.87-0.2-2.82-0.25c-4.93-0.25-9.87-0.47-14.8-0.71c-1.24-0.06-2.57,0.11-3.68-0.31
			c-1.63-0.62-3.15-0.67-4.78-0.21c-2.79,0.77-5.4,0.24-7.96-1.04c-1.84-0.92-3.33-1.21-5.57,0.25c-1.83,1.2-5.23,1.01-7.53,0.24
			c-3.79-1.28-7.15-1.11-10.65,0.51c-2.03,0.94-3.96,2.08-6.02,2.99c-3.51,1.55-6.53,4.24-9.64,6.61c-1.03,0.79-1.66,2.08-2.02,2.56
			c-2.47,1.42-4.44,2.49-6.35,3.67c-3.3,2.03-7.39,3.58-12.05,0.35c-3.8-2.64-5.34-5.87-5.49-10.23c-0.13-3.7-0.53-7.39-0.76-11.09
			c-0.05-0.81-0.19-1.9,0.25-2.4c2.37-2.7,1.73-5.93,1.89-9.05c0.12-2.38-0.66-4.98,1.6-6.91c0.33-0.28,0.35-1.05,0.32-1.58
			c-0.2-3.89,0.9-7.53,2.03-11.19c0.35-1.15,0.33-2.44,0.39-3.67c0.1-1.97-0.7-4.16,1.55-5.54c0.18-0.11,0.26-0.51,0.25-0.77
			c-0.19-4.32,1.38-8.3,2.21-12.42c0.41-2.03,0.78-3.89,1.83-5.69c1.72-2.94,3.01-6.16,4.94-8.95c1.34-1.95,3.4-3.42,5.22-5.01
			c0.34-0.3,1.09-0.35,1.59-0.23c3.69,0.84,7.35,1.85,11.06,2.59c1.37,0.27,3,0.33,4.24-0.17c1.88-0.76,3.24-0.69,4.95,0.47
			c1.27,0.85,3.02,1.11,4.6,1.34c2.63,0.39,5.16,0.67,7.77,1.65c3.76,1.41,7.95,1.68,11.98,2.31c1.6,0.25,3.14,0.14,4.58,1.39
			c0.9,0.79,2.55,0.91,3.88,0.98c3.03,0.15,6.07-0.02,9.1,0.14c1.87,0.1,3.71,0.67,5.57,0.86c1.62,0.16,3.38,0.49,4.86,0.03
			c3.9-1.2,7.63-1.89,11.32,0.5c0.32,0.21,0.8,0.33,1.18,0.29c5.96-0.58,12.13,1.44,17.91-1.43c0.24-0.12,0.52-0.21,0.79-0.21
			c7.27-0.02,14.38-1.21,21.42-2.88c3.77-0.89,7.49-1.95,11.25-2.87c0.82-0.2,1.76,0.06,2.55-0.18c3.9-1.2,7.77-2.5,11.66-3.75
			c1.24-0.4,2.47-0.79,3.73-1.11c0.52-0.13,1.21,0.11,1.63-0.14c1.95-1.15,4.01-1.54,6.27-1.56c3.36-0.02,6.17-1.53,8.95-3.42
			c1.56-1.06,3.84-1.14,5.83-1.45c2.96-0.47,5.61-0.91,7.82-3.61c1.43-1.74,3.73-3.69,6.71-3.16c0.26,0.05,7.42-2.62,7.67-2.66
			c4.07-0.65,6.43-4.21,9.91-5.84C735.93,386.4,737.21,386.03,738.13,385.69"/>
		<path d="M723.82,326.88c0.07,0.45-0.05,1.26,0.29,1.76c4.01,5.9,2.08,12.56,2.17,18.87c0.04,2.77-1.95,5.52-2.72,8.36
			c-1.17,4.32-4.79,7.35-5.95,11.66c-0.12,0.43-0.75,0.72-1.12,1.1c-3.25,3.28-6.5,6.57-9.76,9.84c-0.31,0.31-0.7,0.54-1.09,0.75
			c-1.15,0.64-2.3,1.26-3.47,1.87c-1.69,0.87-3.38,1.73-5.08,2.58c-2.43,1.22-4.83,2.52-7.3,3.63c-2.91,1.3-5.71,2.77-8.92,3.46
			c-3.22,0.69-6.26,2.21-9.37,3.39c-0.77,0.29-1.46,0.83-2.24,1.02c-4.47,1.04-8.47,3.89-13.32,3.46c-0.26-0.02-0.62,0-0.8,0.15
			c-3.38,2.8-7.9,1.89-11.63,3.62c-1.31,0.61-2.93,0.71-4.42,0.78c-2.33,0.12-4.64-0.07-6.61,1.67c-0.51,0.45-1.58,0.34-2.39,0.35
			c-3.59,0.03-7.19,0.23-10.75-0.05c-3.22-0.26-6.41-1.04-9.6-1.62c-4.43-0.8-8.86-1.56-13.27-2.48c-1.94-0.41-4.02-0.83-5.64-1.87
			c-1.38-0.88-2.39-2.53-3.19-4.04c-0.55-1.03-0.45-2.4-0.64-3.64c0.93-1.15,1.75-2.45,2.84-3.44c1.07-0.97,2.31-1.94,3.66-2.39
			c3.97-1.31,8.12-2.14,12.02-3.61c2.59-0.98,4.85-2.8,7.32-4.13c3.8-2.05,7.72-3.87,10.39-7.52c0.49-0.67,1.71-0.77,2.5-1.29
			c1.62-1.05,3.18-2.21,2.23-4.95c-2.13,0.26-4.26,0.45-6.36,0.78c-3.76,0.59-7.49,1.31-11.24,1.88c-0.77,0.12-1.61-0.28-2.42-0.26
			c-1.78,0.05-3.81-0.3-5.26,0.45c-2.25,1.14-4.47,1.14-6.79,1.14c-5.76-0.01-11.46,0.07-17.16-1.57c-4.81-1.39-9.94-1.61-14.88-2.6
			c-1.77-0.36-3.43-1.36-5.05-2.24c-6.88-3.73-14.39-6.42-20.38-11.62c-4.3-3.73-7.35-8.6-10.68-13.19c-0.8-1.1-1.7-2.17-2.31-3.37
			c-1.41-2.83-2.94-5.65-3.92-8.64c-1.19-3.6-1.86-7.36-2.74-11.05c-0.16-0.67-0.17-1.39-0.42-2.02
			c-2.88-7.43-0.27-14.37,1.62-21.48c1.63-6.14,5.81-9.9,10.63-13.28c0.8-0.56,2.01-0.68,3.05-0.75c3.98-0.26,7.97-0.54,11.96-0.56
			c1.86-0.01,3.72,0.51,5.57,0.87c0.65,0.13,1.38,0.85,1.87,0.69c4.73-1.63,9.13,1.63,13.87,0.81c1.81-0.31,3.86,0.81,5.81,1.22
			c4.89,1.03,9.73,2.24,14.34,4.23c0.62,0.27,1.3,0.47,1.97,0.52c6.15,0.5,11.53,3.5,17.31,5.22c1.41,0.42,2.84,0.75,4.24,1.2
			c4.52,1.45,9.03,2.96,13.56,4.41c0.9,0.29,1.88,0.32,2.8,0.58c1.4,0.39,2.78,0.86,4.16,1.33c0.78,0.26,1.53,0.77,2.31,0.83
			c6.7,0.48,12.69,3.84,19.32,4.7c1.87,0.25,3.93-0.62,5.8,1.27c1.31,1.31,3.72,1.62,5.7,2.17c3.8,1.06,7.67,1.9,11.46,2.99
			c2.3,0.67,4.49,1.71,6.77,2.47c4,1.34,8.03,2.61,12.05,3.88c4.14,1.3,8.3,2.54,12.45,3.81c0.4,0.12,0.79,0.4,1.17,0.38
			c5.14-0.2,8.51,3.19,12.26,5.88C721.31,325.92,722.51,326.27,723.82,326.88"/>
		<path d="M1064.07,218.05c2.63,2.31,5.57,1.52,7.4,0.85c5.37-1.98,11.24-1.49,16.43-3.66c4.98-2.08,10.29-1.26,15.31-2.55
			c7.15-1.83,14.29-3.72,21.46-5.49c1.99-0.49,4.13-0.39,6.09-0.98c7.63-2.28,15.66-2.34,23.32-4.37c2.22-0.59,4.45-1.35,6.72-1.55
			c4.32-0.38,7.73,3.48,7.28,7.93c-0.38,3.79-0.32,7.72-1.36,11.33c-0.94,3.25-1.35,7.01-4.43,9.38c-0.42,0.32-0.87,0.82-0.97,1.31
			c-0.55,2.55-2.85,3.84-4.07,5.84c-4.94,8.08-13.03,12.39-20.41,17.53c-2.82,1.97-5.61,4.35-8.79,5.37
			c-3.47,1.11-6.45,3.93-10.6,3.15c-1.42-0.27-3.08,0.71-4.63,1.1c-0.91,0.23-1.83,0.65-2.73,0.62c-5.74-0.23-10.67,3.26-16.3,3.5
			c-1.03,0.04-2.04,0.79-3.06,0.77c-5.18-0.11-9.74,3.22-15.02,2.6c-0.62-0.07-1.35,0.82-2.05,1.23c-0.55,0.31-1.11,0.76-1.7,0.81
			c-2.66,0.2-5.43-0.56-7.73,1.8c-0.6,0.62-2.38,0.08-3.62,0.09c-1.76,0.02-3.47-0.2-4.89,1.51c-0.61,0.74-2.26,0.92-3.41,0.84
			c-5.98-0.39-10.66,1.26-14.58,6.31c-3.17,4.1-7.6,7.23-11.54,10.71c-0.78,0.69-1.93,0.92-2.82,1.5c-2.84,1.83-5.61,3.78-8.48,5.57
			c-1.15,0.72-2.47,1.17-3.74,1.68c-2.5,1-5.22,1.62-7.46,3.02c-2.05,1.28-4.1,1.78-6.38,2.15c-2.14,0.35-4.19,1.25-6.28,1.92
			c-0.91,0.29-1.87,0.98-2.7,0.84c-3.71-0.63-6.61,1.57-9.76,2.71c-2.91,1.05-5.76,1.22-8.76,1.04c-3.19-0.2-5.55-1.17-7.35-4.15
			c-1.71-2.82-0.56-5.34-0.21-7.95c0.28-2.11,1.24-4.12,1.77-6.2c1.05-4.1,2.1-8.21,2.98-12.35c1.87-8.77,5.47-17.03,7.55-25.69
			c0.77-3.22,3.48-6.02,2.46-9.67c2.82-1.64,1.45-5.39,3.69-7.34c0.29-0.25,0.6-0.75,0.55-1.08c-0.47-3.44,2.37-5.88,2.7-9.12
			c0.17-1.7,1.21-3.31,1.77-4.99c2.25-6.76,4.3-13.6,6.78-20.28c0.91-2.45,1.77-5.15,4.18-6.87c0.96-0.69,1.5-1.93,2.33-2.83
			c1.27-1.37,2.57-2.71,3.94-3.98c2.69-2.51,5.29-5.14,8.17-7.41c2.26-1.78,4.95-2.98,7.32-4.64c2.46-1.72,4.75-3.62,7.76-4.39
			c1.41-0.36,2.69-1.23,4.07-1.76c2.47-0.95,4.85-2.37,7.68-1.82c3.37-2.79,7.4-2.07,11.3-2.21c3.97-0.14,7.92-0.59,11.88-0.9
			c1.1-0.09,2.22-0.01,3.29-0.23c5.67-1.16,9.81,1.94,11.95,7.42c1.69,4.32,0.44,7.45-1.56,10.96c-1.12,1.97-1.77,4.24-2.48,6.42
			c-1.06,3.28-1.89,6.64-2.99,9.91c-0.82,2.42-2,4.72-2.87,7.13C1065.59,212.89,1064.9,215.39,1064.07,218.05"/>
		<path d="M897.85,196.08c0,2.21,0.16,4.43-0.04,6.61c-0.31,3.54,1.26,5.79,4.39,7.11c1.13,0.48,2.32,1.18,3.48,1.19
			c5.22,0.04,10.46,0.13,15.66-0.31c4.98-0.42,9.77-2.07,14.83-2.51c5.66-0.49,11.23-2.08,16.8-3.38c4.11-0.96,9.39,0.93,9.74,6.51
			c0.3,4.72-0.82,8.97-2.57,13.32c-1.42,3.52-4.17,6.47-4.47,10.44c-3.37,3.85-4.37,9.72-9.94,11.72c-0.38,0.14-0.76,0.38-1.04,0.67
			c-3.59,3.79-8.42,5.69-12.66,8.48c-2.24,1.48-4.3,3.1-6.92,3.84c-2.75,0.78-5.63,1.25-8.21,2.41c-2.55,1.14-5,1.98-7.82,1.78
			c-0.58-0.04-1.24,0.48-1.81,0.83c-0.46,0.29-0.87,1.05-1.25,1.02c-3.81-0.38-7.14,1.46-10.71,2.16c-0.27,0.05-0.56-0.05-0.82,0.02
			c-4.29,1.1-8.36,3.26-12.99,2.71c-4.31,3.08-9.24,3.69-14.37,4.01c-2.93,0.18-5.8,1.36-8.71,2.01c-1.72,0.38-3.46,0.71-5.21,0.87
			c-1.89,0.17-3.91-0.32-5.35,1.47c-0.08,0.1-0.22,0.19-0.35,0.22c-4.65,0.9-9.3,1.83-13.96,2.65c-1.73,0.3-3.63-0.1-4.94,1.55
			c-0.24,0.3-0.74,0.65-1.05,0.59c-3.92-0.71-7.16,2.19-11.05,1.95c-1.97-0.12-4,0.71-6.01,1.09c-1.07,0.21-2.15,0.39-3.23,0.58
			c-2.14,0.39-4.29,0.77-6.43,1.18c-0.4,0.08-0.8,0.4-1.18,0.36c-3.84-0.38-7.28,1.21-10.8,2.24c-3.91,1.14-7.33-0.57-10.82-1.53
			c-1.15-0.32-2.03-2.08-2.77-3.34c-4.4-7.54-9.11-14.92-12.14-23.19c-0.61-1.66-1.76-3.1-2.48-4.73
			c-2.28-5.2-4.64-10.38-6.63-15.69c-0.64-1.71-0.51-3.85-0.19-5.7c0.16-0.93,1.38-2.06,2.37-2.41c4.09-1.49,8.21-2.76,12.74-2.28
			c1.63,0.17,3.38-0.78,5.07-1.21c0.79-0.2,1.59-0.51,2.4-0.52c4.14-0.11,8.11-0.86,12.11-2.02c3.39-0.98,7.08-0.89,10.63-1.32
			c6.14-0.75,12.28-1.53,18.41-2.32c2.99-0.38,5.97-0.8,8.96-1.21c4.04-0.56,6.63-4.2,5.89-8.25c-0.92-5.09-2.82-9.86-4.59-14.7
			c-1.83-4.99-3.06-10.2-4.61-15.29c-1.68-5.49-3.33-11-5.23-16.43c-0.76-2.18-0.89-4.15,0.94-5.55c2.63-2.01,4.31-5.24,7.84-6.09
			c1.31-0.31,2.57-0.79,3.86-1.16c3.86-1.12,7.73-2.23,11.6-3.34c1.29-0.37,2.57-1.03,3.86-1.04c4.4-0.03,8.8,0.13,13.2,0.32
			c0.75,0.03,1.48,0.53,2.2,0.84c0.88,0.38,1.75,1.13,2.62,1.13c7.31,0.02,12.57,4.38,17.99,8.36c3.28,2.41,6.69,4.71,8.74,8.46
			c1.04,1.91,1.95,3.77,2.65,5.87c1.07,3.25,1.25,6.93,3.78,9.64c0.31,0.33,0.36,0.98,0.36,1.48c0.03,2.61,0.02,5.22,0.02,7.83
			C897.73,196.09,897.79,196.08,897.85,196.08"/>
		<path d="M605.76,221.43c-0.53-7.45,0.94-15.7,2.55-23.88c0.81-4.13,2.18-8.28,4.1-12.01c1.06-2.07,2.02-3.77,2.13-6.2
			c0.11-2.43,5.98-5.55,8.71-4.56c2.72,0.99,6.08,0.6,8.06,3.38c5.67,1.23,9.41,6.06,14.52,8.01c5.47,2.09,9.44,6.21,14.39,8.78
			c5.73,2.99,10.71,6.83,15.77,10.7c2.37,1.81,5.11,3.2,7.81,4.51c4.85,2.36,7.57,6.59,10.31,10.91c2.47,3.9,3.46,8.1,3.8,12.68
			c0.3,4.1,0.95,8.11-0.07,12.21c-1.93,7.69-4.71,14.71-10.18,20.89c-4.27,4.82-9.2,8.35-14.52,11.6c-1.72,1.05-3.58,1.91-5.45,2.66
			c-2.12,0.85-4.3,1.64-6.52,2.13c-1.57,0.35-3.34,0.52-4.88,0.15c-4.86-1.16-9.64-2.6-14.45-3.94c-0.39-0.11-0.9-0.12-1.14-0.37
			c-3.68-3.91-8.78-5.81-12.88-9.01c-3.38-2.63-5.84-6.43-8.72-9.71c-2.99-3.4-4.7-7.62-7.13-11.28c-3.27-4.91-3.59-10.55-5.89-15.6
			c-0.38-0.82-0.27-1.89-0.28-2.85C605.74,227.92,605.76,225.16,605.76,221.43 M680.8,234.75c0.31-3.27-0.62-4.6-4.79-4.88
			c-6.16-0.41-12.15-1.94-16.6-6.78c-2.21-2.41-4.07-4.99-4.13-8.56c-0.04-2.16-0.67-4.32-1.07-6.47c-0.57-3.02-2.17-5.19-5-6.24
			c-2.65,1.19-3.46,3.27-3.53,5.76c-0.05,1.65-0.12,3.31-0.03,4.95c0.23,4.31-1.7,7.91-4.26,10.99c-2.95,3.56-7.13,4.87-11.78,4.61
			c-1.91-0.11-3.91-0.3-5.73,0.14c-3.3,0.8-4.04,3.69-1.83,6.24c2.35,2.71,5.58,3.34,8.92,3.62c4.37,0.37,8.02,2.36,10.25,5.93
			c1.67,2.67,2.9,5.77,2.49,9.3c-0.32,2.69-0.01,5.48,0.29,8.2c0.21,1.88,1.48,3.3,3.3,3.84c2.04,0.6,3.41-0.54,4.35-2.26
			c0.65-1.18,1.69-2.36,1.79-3.59c0.29-3.8,0.99-7.43,2.03-11.12c1.34-4.73,6.11-9.27,10.99-9.12
			C671.58,239.49,676.66,239.7,680.8,234.75"/>
		<path d="M1181.88,447.41c-3.06-3.68-6.27-7.68-9.66-11.53c-1.03-1.17-2.13-2.1-1.89-3.85c0.07-0.52,0.06-1.2-0.21-1.6
			c-3.36-5.06-1.15-10.66-1.6-16c2.9-6.98,5.35-14.35,13.89-16.63c5.04-3.89,11.34-2.75,16.99-4.19c1-0.25,2.22,0.03,3.26,0.33
			c5.9,1.67,11.55,3.65,16.81,7.17c4,2.67,5.75,6.55,8.02,10.17c2.01,3.2,3.74,6.82,4.52,10.48c0.72,3.45,1.1,7.23-0.99,10.73
			c-1.3,2.18-1.57,4.84-3.21,7.01c-2.95,3.93-6.26,7.07-10.82,9.3c-2.7,1.32-5.08,2.24-8,1.97c-0.39-0.04-0.96-0.01-1.19,0.24
			c-3.92,4.06-8.58,1.75-12.85,1.21c-2.57-0.32-5.45,0.14-7.8-1.83C1185.78,449.24,1184,448.58,1181.88,447.41"/>
		<path d="M1249.37,381.99c3.86,5.23,1.8,5.72-1.29,8.38c-3.58,3.08-7.32,6.04-11.3,8.58c-3.96,2.53-4.42,2.18-6.7-2.1
			c-0.13-0.24-0.34-0.43-0.82-1.03c4.22-3.79,8.55-7.52,12.68-11.44C1244.05,382.4,1246.55,382.21,1249.37,381.99"/>
		<path d="M1202.82,381.4c-0.67-4.1-1.19-7.98-0.52-11.97c0.38-2.27,0.25-4.61,0.56-6.9c0.54-4.03,0.97-4.29,5.45-4.01
			c1.9,2.38,3,4.99,2.68,8.23c-0.43,4.34-0.55,8.71-0.8,13.07c-0.05,0.94-0.1,1.88-0.18,3.39
			C1207.43,382.56,1205.17,381.99,1202.82,381.4"/>
		<path d="M1164.32,368.96c0.54,0.34,1.92,0.81,2.67,1.77c3.43,4.36,6.76,8.81,9.97,13.34c1.47,2.08,1.07,3.49-0.86,4.85
			c-2.09,1.48-3.77,1.35-5.33-0.53c-1.04-1.26-1.86-2.71-2.91-3.96c-1.48-1.76-3.13-3.38-4.64-5.11c-1.22-1.4-2.61-2.74-3.47-4.35
			C1158.21,372.04,1160.23,369.02,1164.32,368.96"/>
		<path d="M1238.3,450.88c0.82-1.06,1.23-1.8,1.83-2.34c1.48-1.33,3.38-1.73,4.79-0.34c4.32,4.25,9.33,7.89,12.42,13.28
			c1.39,2.44,0.28,4.8-2.46,4.96c-1.81,0.1-3.46-0.04-4.95-1.88c-2.68-3.34-6.01-6.15-8.9-9.33
			C1239.9,453.99,1239.21,452.36,1238.3,450.88"/>
		<path d="M1244.23,429.24v-5.89c3.52-0.21,6.87-0.39,10.22-0.64c1.34-0.1,2.71-0.17,3.98-0.55c2.03-0.6,3.54-0.37,5.09,1.31
			c1.23,1.33,1.74,2.7,1.37,4.23c-0.46,1.89-2.23,2.3-3.89,2.23c-3.55-0.13-7.09-0.5-10.64-0.68
			C1248.47,429.15,1246.57,429.24,1244.23,429.24"/>
		<path class="st11" d="M680.8,234.75c-4.15,4.95-9.22,4.74-14.35,4.57c-4.88-0.16-9.64,4.38-10.99,9.12
			c-1.05,3.69-1.74,7.33-2.03,11.12c-0.09,1.24-1.14,2.41-1.79,3.59c-0.94,1.72-2.31,2.86-4.35,2.26c-1.83-0.54-3.1-1.96-3.3-3.84
			c-0.3-2.72-0.61-5.51-0.29-8.2c0.42-3.53-0.82-6.62-2.49-9.3c-2.23-3.58-5.88-5.56-10.25-5.93c-3.33-0.28-6.56-0.91-8.92-3.62
			c-2.21-2.55-1.47-5.44,1.83-6.24c1.82-0.44,3.82-0.25,5.73-0.14c4.66,0.26,8.83-1.05,11.78-4.61c2.55-3.09,4.48-6.68,4.26-10.99
			c-0.09-1.65-0.02-3.3,0.03-4.95c0.07-2.49,0.89-4.57,3.53-5.76c2.83,1.05,4.43,3.22,5,6.24c0.4,2.15,1.03,4.31,1.07,6.47
			c0.06,3.57,1.92,6.15,4.13,8.56c4.44,4.84,10.44,6.37,16.6,6.78C680.18,230.14,681.12,231.48,680.8,234.75"/>
	</g>
</g>
</svg>
