<?xml version="1.0" encoding="utf-8"?>
<!-- Generator: Adobe Illustrator 23.1.0, SVG Export Plug-In . SVG Version: 6.00 Build 0)  -->
<svg version="1.1" xmlns="http://www.w3.org/2000/svg" xmlns:xlink="http://www.w3.org/1999/xlink" x="0px" y="0px"
	 viewBox="0 0 1280 362.67" style="enable-background:new 0 0 1280 362.67;" xml:space="preserve">
<style type="text/css">
	.st0{display:none;}
	.st1{display:inline;fill:#989898;}
	.st2{fill:#060001;}
	.st3{fill:#040000;}
	.st4{clip-path:url(#SVGID_2_);fill:url(#SVGID_3_);}
	.st5{fill:#939494;}
	.st6{fill:none;stroke:#231815;stroke-width:2.254;stroke-linecap:round;stroke-miterlimit:10;}
	.st7{fill:none;stroke:#231815;stroke-width:1.042;stroke-linecap:round;stroke-miterlimit:10;}
	.st8{fill:#C8C9CA;}
</style>
<g id="BG" class="st0">
	<rect x="-2729.46" y="-308.49" class="st1" width="5423.46" height="2640.54"/>
</g>
<g id="圖層_2">
	<g>
		<polygon points="113.4,159.93 166.77,26.97 146.83,26.97 102.19,138.08 57.55,26.97 37.61,26.97 90.99,159.93 		"/>
		<rect x="185.77" y="26.97" width="18.99" height="132.96"/>
		<path d="M276.18,153.09c15.07,6.21,31.72,9.31,49.96,9.31c16.72,0,32.29-2.6,46.73-7.79c14.44-5.19,26.34-12.31,35.71-21.37
			c9.37-9.05,15.2-19.15,17.47-30.3h-16.9c-2.41,7.85-7.73,14.88-15.96,21.08c-8.23,6.21-18.27,11.05-30.11,14.53
			c-11.84,3.49-24.15,5.22-36.94,5.22c-14.44,0-27.89-2.18-40.36-6.55c-12.47-4.37-22.48-10.41-30.01-18.14
			c-7.53-7.72-11.3-16.34-11.3-25.83c0-9.62,3.73-18.3,11.21-26.02c7.47-7.72,17.48-13.77,30.01-18.14
			c12.54-4.37,26.02-6.55,40.46-6.55c12.79,0,25.14,1.74,37.04,5.22c11.9,3.48,21.97,8.39,30.2,14.72
			c8.23,6.33,13.49,13.42,15.77,21.27h16.9c-2.15-11.14-7.95-21.27-17.38-30.39c-9.44-9.12-21.37-16.3-35.81-21.56
			c-14.44-5.25-30.01-7.88-46.73-7.88c-18.23,0-34.89,3.1-49.96,9.31c-15.07,6.2-26.94,14.6-35.62,25.17
			c-8.67,10.57-13.01,22.19-13.01,34.86c0,12.54,4.34,24.09,13.01,34.66C249.24,138.5,261.11,146.89,276.18,153.09"/>
		<polygon points="496.51,159.74 515.51,159.74 515.51,45.01 579.14,45.01 579.14,26.78 432.88,26.78 432.88,45.01 496.51,45.01 		
			"/>
		<path d="M634.03,153.28c15.45,6.2,32.35,9.31,50.72,9.31c18.36,0,35.26-3.1,50.71-9.31c15.45-6.2,27.7-14.59,36.75-25.17
			c9.05-10.57,13.58-22.13,13.58-34.66c0-12.54-4.53-24.12-13.58-34.76c-9.06-10.64-21.31-19.06-36.75-25.26
			c-15.45-6.2-32.36-9.31-50.71-9.31c-18.36,0-35.27,3.1-50.72,9.31c-15.45,6.2-27.7,14.63-36.75,25.26
			c-9.06,10.64-13.58,22.22-13.58,34.76c0,12.54,4.53,24.09,13.58,34.66C606.33,138.69,618.58,147.08,634.03,153.28 M613.52,67.43
			c7.6-7.72,17.73-13.77,30.39-18.14c12.66-4.37,26.27-6.55,40.84-6.55c14.56,0,28.17,2.18,40.84,6.55
			c12.66,4.37,22.79,10.42,30.39,18.14c7.6,7.73,11.4,16.4,11.4,26.02c0,9.62-3.8,18.3-11.4,26.02
			c-7.6,7.73-17.73,13.74-30.39,18.05c-12.66,4.31-26.28,6.46-40.84,6.46c-14.57,0-28.18-2.15-40.84-6.46
			c-12.66-4.3-22.79-10.32-30.39-18.05c-7.6-7.72-11.4-16.4-11.4-26.02C602.12,83.83,605.92,75.15,613.52,67.43"/>
		<path d="M825.31,97.82h88.13c5.44,0.63,10.13,2.88,14.06,6.74c3.92,3.86,5.89,8.26,5.89,13.2v41.98h18.43v-41.98
			c0-5.32-1.2-10.45-3.61-15.38c-2.41-4.94-5.76-9.24-10.07-12.92c4.3-3.29,7.66-7.31,10.07-12.06c2.4-4.75,3.61-9.84,3.61-15.29
			c0-6.58-1.71-12.57-5.13-17.95c-3.42-5.38-8.11-9.65-14.06-12.82c-5.95-3.17-12.47-4.75-19.56-4.75H806.31v132.96h18.99V97.82z
			 M825.31,45.2h87.75c5.44,0,10.16,1.68,14.15,5.03c3.99,3.36,5.98,7.31,5.98,11.87c0,4.69-1.99,8.71-5.98,12.06
			c-3.99,3.36-8.71,5.03-14.15,5.03h-87.75V45.2z"/>
		<polygon points="1041.08,159.74 1060.08,159.74 1060.08,97.82 1130.36,26.78 1103.76,26.78 1050.58,79.96 997.39,26.78 
			970.8,26.78 1041.08,97.82 		"/>
		<rect x="673.38" y="81.99" transform="matrix(0.7071 -0.7071 0.7071 0.7071 134.5481 511.5323)" width="22.73" height="22.73"/>
		<polygon points="55.37,214.73 100.13,329.99 129.07,329.99 173.83,215.26 173.83,329.99 191.59,329.99 191.59,205.67 
			158.38,205.67 114.69,318.09 70.82,205.67 37.61,205.67 37.61,329.99 55.37,329.99 		"/>
		<polygon points="526.36,324.66 442,205.67 409.14,205.67 409.14,329.99 426.9,329.99 426.9,212.77 510.55,329.99 544.12,329.99 
			544.12,205.67 526.36,205.67 		"/>
		<path d="M669.23,304.59c-4.91,3.44-11.63,6.07-20.16,7.9c-8.52,1.84-18.05,2.64-28.59,2.4c-9.12-0.12-17.73-1.63-25.84-4.53
			c-8.11-2.9-15.07-6.6-20.87-11.1l-13.5,12.96c6.98,6.04,16.07,10.86,27.26,14.48c11.19,3.61,23.36,5.42,36.5,5.42
			c12.9,0,24.72-1.6,35.43-4.8c10.71-3.2,19.18-7.75,25.39-13.67c6.22-5.92,9.32-12.67,9.32-20.25c0-11.25-4.11-19.65-12.34-25.22
			c-8.23-5.56-22.17-8.52-41.82-8.88l-4.26-0.18c-13.97-0.47-26.46-1.78-37.47-3.91c-11.01-2.13-16.46-6.33-16.34-12.61
			c0-4.38,2.34-8.29,7.02-11.72c4.68-3.43,11.16-6.07,19.45-7.9c8.29-1.83,17.64-2.63,28.06-2.4c8.64,0.12,16.46,1.45,23.44,3.99
			c6.99,2.55,14.86,6.07,23.62,10.57l9.41-15.63c-8.88-5.33-17.94-9.35-27.17-12.08c-9.24-2.72-20.13-4.08-32.68-4.08
			c-12.91,0-24.63,1.66-35.17,4.97c-10.54,3.32-18.86,7.96-24.95,13.94c-6.1,5.98-9.15,12.82-9.15,20.51
			c0,9.12,3.61,16.16,10.83,21.14c7.22,4.97,16.22,8.32,26.99,10.03c10.77,1.72,23.44,2.75,38.01,3.11
			c8.88,0.24,15.77,0.74,20.69,1.51c4.91,0.77,8.76,2.25,11.54,4.44c2.78,2.19,4.35,5.48,4.71,9.86
			C676.6,297.25,674.14,301.16,669.23,304.59"/>
		<polygon points="700.75,222.72 760.25,222.72 760.25,329.99 778.01,329.99 778.01,222.72 837.5,222.72 837.5,205.67 
			700.75,205.67 		"/>
		<polygon points="847.8,329.99 969.81,329.99 969.81,312.76 865.56,312.76 865.56,277.07 952.58,277.07 952.58,260.02 
			865.56,260.02 865.56,222.9 969.81,222.9 969.81,205.67 847.8,205.67 		"/>
		<path d="M1130.36,329.99v-39.25c0-4.97-1.13-9.77-3.38-14.38c-2.25-4.62-5.39-8.64-9.41-12.08c4.03-3.08,7.16-6.84,9.41-11.28
			c2.25-4.44,3.38-9.2,3.38-14.3c0-6.15-1.6-11.75-4.8-16.78c-3.2-5.03-7.58-9.03-13.14-11.99c-5.57-2.96-11.66-4.44-18.29-4.44
			h-99.81v124.32h17.76v-57.72h82.41c5.09,0.59,9.47,2.69,13.14,6.3c3.67,3.61,5.51,7.73,5.51,12.34v39.25H1130.36z M1107.36,249.98
			c-3.73,3.14-8.14,4.71-13.23,4.71h-82.05V222.9h82.05c5.09,0,9.5,1.57,13.23,4.71c3.73,3.14,5.59,6.84,5.59,11.1
			C1112.95,243.09,1111.09,246.85,1107.36,249.98"/>
		<path d="M384.53,256.52c-5.66-12.6,2.62-37.87,6.33-46.64c0.7-1.67,0.66-3.58-0.09-5.27c-0.71-1.67-2.14-2.95-3.86-3.58
			c-28.93-9.96-73.18,20-85.44,28.9c-0.18,0-0.3,0.04-0.48,0.09c-0.18-0.05-0.3-0.09-0.48-0.09c-12.26-8.9-56.51-38.86-85.44-28.9
			c-1.73,0.62-3.15,1.9-3.86,3.58c-0.75,1.69-0.78,3.59-0.09,5.27c3.72,8.77,11.96,34.04,6.33,46.64
			c-2.12,3.59-16.28,29.3-3.72,51.78c11.25,20.22,40,30.45,85.75,30.45h0.09l1.46-0.09l1.78,0.09c45.39,0,74.16-10.23,85.44-30.45
			C400.81,285.83,386.61,260.12,384.53,256.52 M375.77,301.43c-8.47,15.05-33.59,23.02-72.55,23.08l-1.85-0.14h-0.82l-1.39,0.09
			c-39.27,0-64.5-7.97-72.97-23.06c-9.06-16.14,3.13-36.88,3.67-37.76c0.07-0.13,0.14-0.27,0.21-0.39c0.04-0.09,0.09-0.18,0.18-0.36
			c6.99-14.84,1.58-36.92-2.62-49.59h0.27c22.44,0,55.69,21.69,66.64,30.05c1.41,1.05,4.96,1.16,6.44,1.16
			c1.46,0,5.04-0.11,6.46-1.16c13.57-10.41,44.96-30.07,66.48-30.07h0.41c-4.2,12.69-9.61,34.77-2.65,49.55
			c0.12,0.27,0.27,0.53,0.43,0.8C372.64,264.51,384.83,285.26,375.77,301.43"/>
		<path d="M1157.52,301.07c0,1.91,1.02,2.87,3.06,2.87h44.78c2.04,0,3.06-0.96,3.06-2.87c0-1.98-1.02-2.97-3.06-2.97h-44.78
			C1158.54,298.1,1157.52,299.09,1157.52,301.07"/>
		<path d="M1160.34,250.86c-1.02,1.08-1.53,2.61-1.53,4.59v5.19c0,1.98,0.51,3.51,1.53,4.59c1.02,1.08,2.52,1.62,4.5,1.62h10.29
			c1.91,0,3.38-0.54,4.4-1.62c1.02-1.08,1.53-2.61,1.53-4.59v-5.19c0-1.98-0.51-3.51-1.53-4.59c-1.02-1.08-2.49-1.62-4.4-1.62
			h-10.29C1162.86,249.24,1161.36,249.78,1160.34,250.86 M1166.88,254.81h6.3c1.48,0.12,2.23,0.77,2.23,1.95v2.6
			c-0.06,1.3-0.8,1.94-2.23,1.94h-6.3c-1.54-0.06-2.32-0.71-2.32-1.94v-2.6C1164.56,255.45,1165.34,254.81,1166.88,254.81"/>
		<path d="M1160.76,276.14v12.42c0,4.14,2.01,6.21,6.02,6.21h31.98c3.89,0,5.84-2.07,5.84-6.21v-12.42c0-4.2-2.01-6.3-6.03-6.3
			h-31.8C1162.77,269.83,1160.76,271.93,1160.76,276.14 M1185.52,275.3h10.75c1.48,0.06,2.23,0.77,2.23,2.13v1.95h-12.98V275.3z
			 M1185.52,284.85h12.98v2.59c0,1.24-0.74,1.85-2.23,1.85h-10.75V284.85z M1166.88,277.43c0-1.42,0.74-2.13,2.23-2.13h10.48v4.08
			h-12.7V277.43z M1166.88,284.85h12.7v4.45h-10.48c-1.48-0.12-2.23-0.74-2.23-1.85V284.85z"/>
		<path d="M1168.46,327.39h27.91c2.1,0,3.71-0.57,4.82-1.72c1.11-1.14,1.67-2.8,1.67-4.96v-6.95c0-4.45-2.16-6.68-6.49-6.68h-27.91
			c-4.32,0-6.49,2.23-6.49,6.68v6.95c0,2.16,0.56,3.81,1.67,4.96C1164.75,326.82,1166.36,327.39,1168.46,327.39 M1168.55,315.43
			c0.12-1.42,0.89-2.13,2.32-2.13h23.08c1.54,0.12,2.32,0.83,2.32,2.13v3.62c-0.12,1.36-0.9,2.04-2.32,2.04h-23.08
			c-1.54-0.12-2.32-0.8-2.32-2.04V315.43z"/>
		<path d="M1201.09,249.24h-10.29c-4.02,0-6.03,2.07-6.03,6.21v5.19c0,4.14,2.01,6.21,6.03,6.21h10.29c4.02,0,6.02-2.07,6.02-6.21
			v-5.19C1207.11,251.31,1205.11,249.24,1201.09,249.24 M1201.37,259.35c0,1.3-0.74,1.95-2.23,1.95h-6.4
			c-0.8-0.06-1.38-0.25-1.72-0.56c-0.34-0.31-0.51-0.77-0.51-1.39v-2.6c0-1.3,0.74-1.95,2.22-1.95h6.4
			c1.48,0.06,2.23,0.71,2.23,1.95V259.35z"/>
		<path d="M1206.28,275.85c0,2.41,1.42,3.62,4.27,3.62h7.32c-0.74,19.9-4.88,33.99-12.42,42.27c-1.85,2.04-2.78,3.55-2.78,4.54
			c0,2.47,1.23,3.71,3.71,3.71c2.72,0,5.75-3.28,9.08-9.83c3.46-6.8,5.81-14.77,7.05-23.92c1.79,8.9,4.33,16.66,7.6,23.27
			c3.34,6.67,6.15,10.01,8.44,10.01c2.53,0,3.8-1.42,3.8-4.26c0-0.93-0.65-2.2-1.95-3.8c-8.53-10.32-13.5-23.02-14.93-38.1
			l-0.37-3.89h12.24c2.84,0,4.27-1.21,4.27-3.62c0-2.47-1.42-3.71-4.27-3.71h-12.7c0.31-4.02,0.49-11.25,0.56-21.69
			c0-2.78-1.21-4.17-3.62-4.17c-1.48,0-2.47,0.56-2.97,1.67c-0.37,0.81-0.56,3.8-0.56,8.99l0.09,15.2h-7.6
			C1207.7,272.14,1206.28,273.38,1206.28,275.85"/>
		<rect x="1229.73" y="256.98" transform="matrix(0.7071 -0.7071 0.7071 0.7071 176.6792 949.131)" width="8.62" height="8.62"/>
		<path d="M1161.64,98.34c1.67,0,2.98-1.84,3.94-5.52c0.96-3.68,1.47-9.16,1.53-16.46l0.19-15.39c0-2.78-1.08-4.17-3.25-4.17
			c-2.1,0-3.15,1.24-3.15,3.71l0.09,10.94c0,9.64-0.78,16.44-2.32,20.39c-0.49,1.36-0.74,2.32-0.74,2.87
			C1157.93,97.13,1159.17,98.34,1161.64,98.34"/>
		<path d="M1162.66,49.86h8.71v53.68c0,2.47,1.08,3.71,3.25,3.71s3.24-1.24,3.24-3.71V49.86h9.46c2.78,0,4.17-1.14,4.17-3.43
			c0-2.22-1.39-3.34-4.17-3.34h-24.66c-2.72,0-4.08,1.11-4.08,3.34C1158.58,48.71,1159.94,49.86,1162.66,49.86"/>
		<path d="M1188.62,92.22v-31.7c0-2.47-1.05-3.71-3.15-3.71c-2.16,0-3.25,1.24-3.25,3.71v31.7c0,2.41,1.08,3.62,3.25,3.62
			C1187.57,95.84,1188.62,94.63,1188.62,92.22"/>
		<path d="M1194.09,33.26h43.76c2.72,0,4.08-1.11,4.08-3.34c0-2.22-1.36-3.34-4.08-3.34h-43.76c-2.78,0-4.17,1.11-4.17,3.34
			C1189.92,32.15,1191.31,33.26,1194.09,33.26"/>
		<path d="M1191.86,75.07v21.6c-0.19,2.78,0.37,4.8,1.67,6.07c1.3,1.27,3.4,1.9,6.3,1.9h32.07c2.84,0.19,4.9-0.37,6.16-1.67
			c1.27-1.3,1.9-3.4,1.9-6.3v-21.6c0.18-2.78-0.39-4.8-1.72-6.07c-1.33-1.27-3.45-1.9-6.35-1.9h-32.07
			c-2.78-0.19-4.81,0.37-6.07,1.67C1192.5,70.06,1191.86,72.17,1191.86,75.07 M1198.72,88.7v-2.83v-8.03c0-2.96,1.32-4.43,3.97-4.43
			h12.18h4.24h10.49c2.34,0,3.5,1.53,3.5,4.59V88.7v6.86c0,1.86-1.32,2.78-3.95,2.78H1224h-11.46h-8.9c-3.28,0-4.92-1.16-4.92-3.48
			V88.7z"/>
		<path d="M1229.13,61.35c5.31,0.31,7.97-2.22,7.97-7.6v-7.32c0-2.6-0.66-4.5-1.99-5.7c-1.33-1.2-3.32-1.81-5.98-1.81h-26.51
			c-5.19-0.25-7.79,2.26-7.79,7.51v7.51c0,2.54,0.63,4.4,1.9,5.61c1.27,1.2,3.23,1.81,5.89,1.81H1229.13z M1201.69,52.91v-5.56
			c0-1.54,0.8-2.32,2.41-2.32h23.73c1.55,0,2.32,0.77,2.32,2.32v5.56c0,1.55-0.77,2.32-2.32,2.32h-23.73
			C1202.49,55.23,1201.69,54.46,1201.69,52.91"/>
		<path d="M1164.86,33.74h20.49c2.59,0,3.89-1.2,3.89-3.62c0-2.35-1.3-3.52-3.89-3.52h-20.49c-2.54,0-3.8,1.17-3.8,3.52
			C1161.06,32.53,1162.32,33.74,1164.86,33.74"/>
		<rect x="1210.96" y="80.86" transform="matrix(0.7071 -0.7071 0.7071 0.7071 295.4317 884.9745)" width="10.02" height="10.02"/>
		<path d="M1160.81,211.13c3.96,0,5.93-8.5,5.93-25.49v-10.29c0-3.77-1.08-5.65-3.24-5.65c-2.1,0-3.12,1.42-3.06,4.27l0.09,4.26
			c0,13.78-0.71,22.47-2.13,26.05c-0.62,1.48-0.93,2.66-0.93,3.52C1157.47,210.02,1158.58,211.13,1160.81,211.13"/>
		<path d="M1174.81,219.93c2.16,0,3.24-1.24,3.24-3.71v-53.58h10.01c2.6,0,3.9-1.14,3.9-3.43c0-2.23-1.3-3.34-3.9-3.34h-25.86
			c-2.78,0-4.17,1.11-4.17,3.34c0,2.29,1.39,3.43,4.17,3.43h9.36v53.58C1171.56,218.7,1172.64,219.93,1174.81,219.93"/>
		<path d="M1161.18,142.62c0,2.41,1.27,3.62,3.8,3.62h20.49c2.6,0,3.9-1.21,3.9-3.62c0-2.35-1.3-3.52-3.9-3.52h-20.49
			C1162.45,139.1,1161.18,140.27,1161.18,142.62"/>
		<path d="M1189.27,205.66V173.4c0-2.47-1.08-3.71-3.25-3.71s-3.24,1.24-3.24,3.71v32.26c0,2.47,1.08,3.71,3.24,3.71
			S1189.27,208.13,1189.27,205.66"/>
		<path d="M1189.92,210.66c0,2.29,1.02,3.43,3.06,3.43c1.3,0,4.48-1.92,9.55-5.75c4.7-3.52,7.14-6.09,7.32-7.69
			c0.12-0.99-0.06-1.74-0.56-2.27c-0.5-0.52-1.17-0.79-2.04-0.79c-1.17,0-2.32,0.5-3.43,1.48c-0.68,0.62-2.13,1.7-4.36,3.25
			l-5.93,3.99C1191.12,207.92,1189.92,209.37,1189.92,210.66"/>
		<path d="M1238.59,176.83c2.47,0,3.71-1.08,3.71-3.24c0-2.16-1.24-3.25-3.71-3.25h-7.14l2.97-22.71c0-3.52-2.35-5.28-7.04-5.28
			h-20.67l0.09-0.65l0.83-3.8c0-1.85-1.17-2.78-3.52-2.78c-1.05,0-1.89,0.42-2.5,1.25c-0.62,0.84-1.14,2.12-1.58,3.85l-3.99,15.94
			l-0.19,1.67c0,3.59,2.1,5.38,6.3,5.38h23.18l-0.93,7.14h-29.85c-2.47,0-3.71,1.08-3.71,3.25c0,2.16,1.24,3.24,3.71,3.24h17.8
			v32.08c-0.06,1.11-0.39,1.98-0.98,2.6c-0.59,0.62-1.44,0.93-2.55,0.93h-2.87c-2.54,0-3.8,1.14-3.8,3.43c0,2.22,1.27,3.34,3.8,3.34
			h3.8c6.49,0.43,9.52-2.54,9.08-8.9v-19.01c2.72,5.99,6.18,11.49,10.38,16.5c3.95,4.7,7.04,7.04,9.27,7.04
			c2.59,0,3.89-1.36,3.89-4.08c0-0.68-0.29-1.34-0.88-1.99c-0.59-0.65-1.41-1.34-2.46-2.08c-5.32-3.4-9.36-7.17-12.14-11.31
			l0.46-0.28l4.08-3.15l7.05-5.93c0.74-0.86,1.11-1.73,1.11-2.6c0-2.28-1.11-3.43-3.34-3.43c-0.99,0-1.92,0.43-2.78,1.3l-9.46,10.01
			c-1.92-2.78-3.65-5.84-5.19-9.18v-5.28H1238.59z M1205.68,157.08c-0.62,0-1.1-0.11-1.44-0.32c-0.34-0.22-0.51-0.51-0.51-0.88
			v-0.28l0.74-3.25l0.37-2.04l0.46-1.85h19.1c0.93,0,1.64,0.2,2.13,0.6c0.49,0.4,0.68,1.04,0.56,1.9l-0.93,6.12H1205.68z"/>
		<rect x="1194.89" y="182.02" transform="matrix(0.7072 -0.707 0.707 0.7072 219.1087 903.1173)" width="10.02" height="10.02"/>
	</g>
</g>
</svg>
