<?xml version="1.0" encoding="utf-8"?>
<!-- Generator: Adobe Illustrator 23.1.0, SVG Export Plug-In . SVG Version: 6.00 Build 0)  -->
<svg version="1.1" xmlns="http://www.w3.org/2000/svg" xmlns:xlink="http://www.w3.org/1999/xlink" x="0px" y="0px"
	 viewBox="0 0 1034.23 800" style="enable-background:new 0 0 1034.23 800;" xml:space="preserve">
<style type="text/css">
	.st0{display:none;}
	.st1{display:inline;fill:#989898;}
	.st2{fill:#060001;}
	.st3{fill:#040000;}
	.st4{clip-path:url(#SVGID_2_);fill:url(#SVGID_3_);}
	.st5{fill:#939494;}
	.st6{fill:none;stroke:#231815;stroke-width:2.254;stroke-linecap:round;stroke-miterlimit:10;}
	.st7{fill:none;stroke:#231815;stroke-width:1.042;stroke-linecap:round;stroke-miterlimit:10;}
	.st8{fill:#C8C9CA;}
</style>
<g id="BG" class="st0">
	<rect x="-235.65" y="-918.18" class="st1" width="5423.46" height="2640.54"/>
</g>
<g id="圖層_2">
	<g>
		<g>
			<path d="M165.26,770.02c-1.48,3.72-10.72,4.4-10.72,4.4h-42.48c0.58-2.34,0.36-4.07,0.36-4.07v-39.45c0.02,0,0.03,0,0.05,0
				c0,0,0-2.16,0-2.31c0-0.95,0.37-2.02-0.67-2.86c-0.75-0.61-1.88-1.09-3.02-1.47c-4.38-1.44-8.88-1.15-13.77-1.15
				c-5.47,0-10.94,0-16.4,0c3.31,0.77,6.25,2.07,7.51,3.95c0.21,0.31,0.3,0.65,0.36,0.98v53.12c-1.2,3.59-6.15,6.22-6.15,6.22
				c9.49,0.63,16.12-0.38,20.84-2.14h54.85C171.18,782.54,165.26,770.02,165.26,770.02z"/>
			<path d="M386.11,782.99c-2.2-1.58-4.29-3.22-6.29-4.92c-4.32-3.65-8.26-7.52-12.18-11.38c-0.18-0.18-0.38-0.37-0.67-0.47
				c-0.29-0.1-0.63-0.11-0.95-0.11h0.96c2.96-2.56,5.92-5.11,8.88-7.67c0.16-0.14,0.32-0.28,0.48-0.42
				c1.32-1.14,2.63-2.28,3.95-3.42c1.35-1.17,2.6-2.4,4.13-3.46c0.03-0.02,0.06-0.04,0.09-0.06c0.03-0.02,0.06-0.04,0.1-0.07
				c0.27-0.18,0.53-0.36,0.81-0.53c1.05-0.64,2.33-1.08,3.65-1.39c1.19-0.28,2.41-0.57,3.68-0.63c-7.55-0.14-15.13-0.12-22.69-0.12
				c-1.6,0-3.23-0.03-4.79,0.27c-1.6,0.32-3.07,1-4.34,1.71c-2.25,1.25-6,4.78-9.36,8.19v-27.6c0.02,0,0.03,0,0.05,0
				c0,0,0-2.16,0-2.31c0-0.95,0.37-2.02-0.67-2.86c-0.75-0.61-1.88-1.09-3.02-1.47c-4.38-1.44-8.88-1.15-13.77-1.15
				c-5.47,0-10.94,0-16.4,0c3.31,0.77,6.25,2.07,7.51,3.95c0.21,0.31,0.3,0.65,0.36,0.98v53.12c-1.2,3.59-6.15,6.22-6.15,6.22
				c26.17,1.74,31.12-8.79,31.98-14.1c0.31,0.31,0.61,0.62,0.92,0.92c2.71,2.66,5.51,5.29,8.38,7.88c2.17,1.96,4.57,4,7.98,4.84
				c2.19,0.54,4.59,0.53,6.93,0.51c6.98-0.06,14.05,0.14,21.02-0.18C392.36,787.09,388.93,785.02,386.11,782.99z M351.63,766.11
				c-0.01,0-0.03,0-0.04,0l0,0H351.63z"/>
			<path d="M231.63,750.96h-44.52c-3.32,0-6.01,2.12-6.01,4.72v24.95c0,2.61,2.69,4.72,6.01,4.72h44.52c3.32,0,6.01-2.12,6.01-4.72
				v-24.95C237.64,753.07,234.95,750.96,231.63,750.96z M218.92,777.68c0,1.9-1.96,3.44-4.38,3.44H204.2
				c-2.42,0-4.38-1.54-4.38-3.44v-19.05c0-1.9,1.96-3.44,4.38-3.44h10.34c2.42,0,4.38,1.54,4.38,3.44V777.68z"/>
			<g>
				<path d="M302.75,750.96h-17.17v4.23c2.39-0.05,15.16,0.15,15.67,0.21c2.03,0.21,4.04,0.67,5.44,1.91
					C306.68,757.3,308.75,751.68,302.75,750.96z"/>
				<path d="M302.75,785.36h-17.17v-4.23c2.39,0.05,15.16-0.15,15.67-0.21c2.03-0.21,4.04-0.67,5.44-1.91
					C306.68,779.01,308.75,784.64,302.75,785.36z"/>
				<path d="M277.02,781.12c-2.49,0-4.51-1.54-4.51-3.44v-19.05c0-1.9,2.02-3.44,4.51-3.44h8.56v-4.24h-26.2
					c-3.43,0-6.2,2.12-6.2,4.72v24.95c0,2.61,2.78,4.72,6.2,4.72h26.2v-4.24H277.02z"/>
			</g>
		</g>
		<g>
			<path d="M758.33,770.02c-1.48,3.72-10.72,4.4-10.72,4.4h-42.48c0.58-2.34,0.36-4.07,0.36-4.07v-39.45c0.02,0,0.03,0,0.05,0
				c0,0,0-2.16,0-2.31c0-0.95,0.37-2.02-0.67-2.86c-0.75-0.61-1.88-1.09-3.02-1.47c-4.38-1.44-8.88-1.15-13.77-1.15
				c-5.47,0-10.94,0-16.4,0c3.31,0.77,6.25,2.07,7.51,3.95c0.21,0.31,0.3,0.65,0.36,0.98v53.12c-1.2,3.59-6.15,6.22-6.15,6.22
				c9.49,0.63,16.12-0.38,20.84-2.14h54.85C764.24,782.54,758.33,770.02,758.33,770.02z"/>
			<path d="M979.18,782.99c-2.2-1.58-4.29-3.22-6.29-4.92c-4.32-3.65-8.26-7.52-12.18-11.38c-0.18-0.18-0.38-0.37-0.67-0.47
				c-0.29-0.1-0.63-0.11-0.95-0.11h0.96c2.96-2.56,5.92-5.11,8.88-7.67c0.16-0.14,0.32-0.28,0.48-0.42
				c1.32-1.14,2.63-2.28,3.95-3.42c1.35-1.17,2.6-2.4,4.13-3.46c0.03-0.02,0.06-0.04,0.09-0.06c0.03-0.02,0.06-0.04,0.1-0.07
				c0.27-0.18,0.53-0.36,0.81-0.53c1.05-0.64,2.33-1.08,3.65-1.39c1.19-0.28,2.41-0.57,3.68-0.63c-7.55-0.14-15.13-0.12-22.69-0.12
				c-1.6,0-3.23-0.03-4.79,0.27c-1.6,0.32-3.07,1-4.34,1.71c-2.25,1.25-6,4.78-9.36,8.19v-27.6c0.02,0,0.03,0,0.05,0
				c0,0,0-2.16,0-2.31c0-0.95,0.37-2.02-0.67-2.86c-0.75-0.61-1.88-1.09-3.02-1.47c-4.38-1.44-8.88-1.15-13.77-1.15
				c-5.47,0-10.94,0-16.4,0c3.31,0.77,6.25,2.07,7.51,3.95c0.21,0.31,0.3,0.65,0.36,0.98v53.12c-1.2,3.59-6.15,6.22-6.15,6.22
				c26.17,1.74,31.12-8.79,31.98-14.1c0.31,0.31,0.61,0.62,0.92,0.92c2.71,2.66,5.51,5.29,8.38,7.88c2.17,1.96,4.57,4,7.98,4.84
				c2.19,0.54,4.59,0.53,6.93,0.51c6.98-0.06,14.05,0.14,21.02-0.18C985.43,787.09,982,785.02,979.18,782.99z M944.7,766.11
				c-0.01,0-0.03,0-0.04,0l0,0H944.7z"/>
			<g>
				<path d="M895.82,750.96h-17.17v4.23c2.39-0.05,15.16,0.15,15.67,0.21c2.03,0.21,4.04,0.67,5.44,1.91
					C899.75,757.3,901.82,751.68,895.82,750.96z"/>
				<path d="M895.82,785.36h-17.17v-4.23c2.39,0.05,15.16-0.15,15.67-0.21c2.03-0.21,4.04-0.67,5.44-1.91
					C899.75,779.01,901.82,784.64,895.82,785.36z"/>
				<path d="M870.09,781.12c-2.49,0-4.51-1.54-4.51-3.44v-19.05c0-1.9,2.02-3.44,4.51-3.44h8.56v-4.24h-26.2
					c-3.43,0-6.2,2.12-6.2,4.72v24.95c0,2.61,2.78,4.72,6.2,4.72h26.2v-4.24H870.09z"/>
			</g>
			<path d="M811.99,777.68c0,1.9-1.96,3.44-4.38,3.44h-10.34c-2.42,0-4.38-1.54-4.38-3.44v-26.72h-18.73v29.67
				c0,2.61,2.69,4.72,6.01,4.72h44.52c3.32,0,6.01-2.12,6.01-4.72v-29.67h-18.73V777.68z"/>
		</g>
		<g>
			<path d="M559.93,750.96h-44.52c-3.32,0-6.01,2.12-6.01,4.72v24.95c0,2.61,2.69,4.72,6.01,4.72h44.52c3.32,0,6.01-2.12,6.01-4.72
				v-24.95C565.94,753.07,563.25,750.96,559.93,750.96z M547.22,777.68c0,1.9-1.96,3.44-4.38,3.44H532.5
				c-2.42,0-4.38-1.54-4.38-3.44v-19.05c0-1.9,1.96-3.44,4.38-3.44h10.34c2.42,0,4.38,1.54,4.38,3.44V777.68z"/>
			<path d="M493.96,752.86h-8.5V742.7h0v-10.59c0.06-0.34,0.15-0.67,0.34-0.98c1.2-1.89,10.49-3.19,13.63-3.95
				c-5.2,0-16.89,0-22.1,0c-4.65,0-8.94-0.29-13.1,1.15c-1.09,0.38-2.16,0.86-2.88,1.47c-0.99,0.84-0.64,1.91-0.63,2.86
				c0,0.5,0,1.01,0.02,1.51c0.01,0.27,0.01,0.53,0.02,0.8c0.04,2.18,0,4.36,0,6.54c0,1.38,0.01-2.42,0.01-1.04
				c0,0.07,0.04,1.12,0.07,2.24h-0.08v2.74c0,0,0,0,0,0h0v7.41H449.6c-6,0.71-3.94,6.32-3.94,6.32c1.39-1.21,3.4-1.66,5.44-1.87
				c0.26-0.03,4.87-0.09,9.67-0.14v24.03c-1.14,3.59-5.85,6.22-5.85,6.22c33.08,2.31,30.54-17.04,30.54-17.04v-13.18
				c3.71,0.04,6.79,0.09,7,0.11c2.04,0.21,4.05,0.66,5.44,1.87C497.9,759.17,499.96,753.56,493.96,752.86z"/>
			<path d="M627.97,751.08c-0.89-0.05-2.02-0.11-2.95-0.12c-2.47-0.02-1.81-0.02-4.28-0.02c-4.2,0-9.21-0.29-12.97,1.15
				c-0.65,0.25-1.29,0.55-1.84,0.9c-0.51-0.32-1.09-0.61-1.68-0.84c-3.76-1.51-7.62-1.21-11.82-1.21c-4.69,0-9.39,0-14.08,0
				c2.84,0.81,5.36,2.17,6.44,4.15c0.18,0.33,0.26,0.68,0.31,1.03v29.29c7.43,0,14.86,0,22.29,0c0.14-6.3-0.11-12.66,1.14-18.92
				c0.54-2.69,1.74-5.66,4.5-7.71c2.28-1.7,5.46-2.86,8.83-3.19c2.87-0.28,6.61-0.36,9.28,0.5c0.64,0.21,2.55,0.97,2.62,1.49
				c0.68-1.39,0.69-3.52-0.62-4.79C632.28,751.94,629.58,751.17,627.97,751.08z"/>
		</g>
		<g>
			<path d="M475.64,132.65c0,0-37.61-0.15-91.05-37.94h103.84l-34.74-28.76l-24.7,12.67l-133.56-0.18
				c37.59-38.7,50.05-66.04,50.05-66.04l-110.02,3.46c0,0-5.72,26.13-32.76,62.45L91.4,78.15l9.19,16.56h88.9
				c-3.48,4.04-7.12,8.13-11.13,12.32C130.08,157.49,49.54,192.7,49.54,192.7s69.64,19.65,168.6-49.37
				c24.26-16.92,44.25-33.39,60.63-48.61h49c0,0,66.32,107.9,197.75,106.25C525.53,200.96,476.97,157.01,475.64,132.65z"/>
			<polygon points="309.64,158.79 267.79,137.34 276.25,122.04 318.1,143.49 			"/>
			<polygon points="298.08,179.7 256.23,158.25 264.69,142.95 306.54,164.4 			"/>
			<path d="M397.27,185.12l-23.56,14.42l-87.05-0.31c1.68-2.77,3.4-5.54,5.29-8.39l3.54-5.17l-42.82-19.93l-4.19,6.83
				c-2.25,3.14-5.03,6.99-5.08,6.98c0,0-6.13,7.7-15.94,19.46l-104.36-0.38l5.91,23.71h78.59c-32.04,36.91-77.51,85.56-101.34,93.86
				c0,0,82.89,21.37,113.42-16.99c10.82-13.59,20.57-27.65,30.05-41.78c7.8-11.62,15.33-23.34,22.74-35.09h74.97l-0.6,60.25
				c0,0-9.93,17.34-28.97,13.62l17.8,20.64l36.42,18.99l52.64-41.28v-88.09L397.27,185.12z"/>
		</g>
		<g>
			<path d="M83.07,452.54l46.98,47.5c0,0-44.46,88.35-96.69,91.72C33.35,591.76,82.39,514.97,83.07,452.54z"/>
			<path d="M500.41,447.01v-0.07h-0.07l-24.3-22.21l-21.65,15.58l-54.03-0.57l-51.63-31.42l2.89,24.82v202.83
				c0,0,35.02-7.22,47.26-35.81h55.1c7.68,12.08,25.45,35.81,46.44,35.81V447.82h0.89L500.41,447.01z M449.91,583.54l-47.77-0.51
				V457.1h47.92L449.91,583.54z"/>
			<path d="M317.84,443.22l-21.65,15.58l-24.36-0.21c4.8-42.55,4.01-75.8,4.01-75.8l-59.78,15.63c1.48,21.35,1.5,41.19,0.52,59.68
				l-31.47-0.28l5.15,17.34h25.12c-1.36,14.88-3.37,28.77-5.88,41.62c3.67,6.77,5.48,14.1,4.24,21.88
				c-2.58,16.28-10.04,22.86-16.69,25.43c-17,50.33-38.55,75.36-38.55,75.36c73.19-1.1,100.84-91.17,111.22-164.29h2.07
				l-0.27,119.46c0,0-9.13,18.74-26.62,14.73l16.35,22.31l33.47,20.53l48.37-44.63V466.3L317.84,443.22z"/>
			<path d="M172.43,483.01v-38.85h40.35l-31.92-31.09l-8.43,5.09v-38.85h-71.57v47.15l-35.5-0.19l8.45,17.9h27.06v16.88l36.09,37.14
				c0,0-27.07,46.61-36.09,56.47v76.17c-2.58,15.39-13.2,26.63-13.2,26.63c74.6,9.9,84.77-72.98,84.77-72.98v-24
				c-3.7-2.57-6.52-5.9-7.64-9.55c-1.32-4.28-1.6-9.62-1.92-15.8c-0.78-14.97-1.86-35.48-17.73-62.21l-2.51-4.23l4.58,1.8
				C148.35,470.96,159.53,475.44,172.43,483.01z"/>
			<path d="M154.39,480.45c0,0,59.78,24.34,54.32,56.32s-35,21.39-38.46,9.66C166.77,534.69,173.1,512.84,154.39,480.45z"/>
		</g>
		<g>
			<path d="M954.87,563.99l-16.86,27.45c0,0-4.94,8.32-26.46,7.03h-69.49c0,0-22.07-0.1-22.81-23.95l-0.01-97.37h40.21v50.75
				c0,0-1.61,16.7-22.03,20.49c0,0,82.23,21.57,93.6-15.85v-55.39l-31.92-27.99l-22.69,12.33l-151.41-0.45l8.45,16.11l0.01,129.53
				c0,0-3.42,54.46,98.97,48.86h104.43c0,0,38.67-0.89,39.54-36.94L954.87,563.99z"/>
			<path d="M966.34,422.1l-31.92-27.99l-22.69,12.33l-305.99-0.45l8.31,15.86l-1.25,140.49c0,0-4.08,88.32-64.93,92.21
				c0,0,121.66,32.88,148.37-39.06l0.47-193.39H966.34z"/>
		</g>
		<g>
			<path d="M800.34,199.66v-53.91l-27.65-31.16l-30.5,23.9l-38.83-0.22c32.33-9.5,61.64-43.23,61.64-43.23l-48.55-19.9
				c-0.64,4.57-1.55,8.84-2.61,12.93l-31.86-0.39c12.32-14.47,18.48-26.38,18.48-26.38c-31.81-6.07-54.32-29.59-54.32-29.59
				c4.24,47.04-67.4,106.99-67.4,106.99c5.13,0.05,10.09-0.22,14.9-0.76l4.7,7.82h0.14l0.02,143.07
				c-2.58,14.72-13.2,25.47-13.2,25.47c58.39,7.41,77.31-39.54,82.77-60.3h60.65l0.02,19.67c0,0-9.13,17.93-26.62,14.09l16.35,21.34
				l33.47,19.63l48.37-42.68v-49.64c-6.39,1.49-12.84,2.35-19.24,2.35c-3.88,0-7.74-0.31-11.57-0.99l-3.83-0.67l3.21-2.2
				C769.16,234.73,785.54,223.26,800.34,199.66z M728.67,191.5l-15.97-0.16V154.6h15.92L728.67,191.5z M670.03,207.35h15.16v30.36
				l-15.1-0.15L670.03,207.35z M670,190.91l-0.06-36.3h15.25v36.46L670,190.91z M595.64,137.66c29.58-3.82,52.86-17.98,69.89-33.12
				h44.36c-6.94,20.44-17.31,29.81-23.06,33.65L595.64,137.66z M712.7,237.99v-30.64h15.99l0.04,30.81L712.7,237.99z"/>
			<path d="M846.96,215.46h21.81l-0.05-15.65C862.54,204.75,855.15,210.21,846.96,215.46z"/>
			<path d="M1000.88,262.21l-31.92-29.74l-22.69,13.1l-5.83-0.01l-0.09-30.11h56.77l-31.92-29.74l-22.7,13.1l-2.2-0.01l-0.11-37.11
				h-71.57l0.03,8.97l21.11,10.38l-1.55,1.56c-0.82,0.83-7.5,7.49-17.92,15.95c-0.51,0.41-1.03,0.83-1.55,1.25l0.05,15.65
				l0.09,30.04l-62.12-0.06l8.45,17.12l53.72-0.1l0.18,60.55h71.57l-0.18-60.68L1000.88,262.21z"/>
			<path d="M824.7,156.16l56.01,27.07c0,0-54.15,55.41-100.29,47.62C780.42,230.85,814.66,207.14,824.7,156.16z"/>
			<path d="M952.03,48.57l-21.65,14.9l-122.51-0.93l5,17.42h15.64v48.56c0,0-5.11,24.14-18.2,27.86c0,0,58.7,11.22,68.72-16.08
				V79.96h46.52l-0.12,49.17c0,0-6.61,13.28-19.29,10.43l11.85,15.8l24.25,14.54l35.05-31.61V70.65L952.03,48.57z"/>
		</g>
	</g>
</g>
</svg>
