<?xml version="1.0" encoding="utf-8"?>
<!-- Generator: Adobe Illustrator 23.1.0, SVG Export Plug-In . SVG Version: 6.00 Build 0)  -->
<svg version="1.1" xmlns="http://www.w3.org/2000/svg" xmlns:xlink="http://www.w3.org/1999/xlink" x="0px" y="0px"
	 viewBox="0 0 1141.09 800" style="enable-background:new 0 0 1141.09 800;" xml:space="preserve">
<style type="text/css">
	.st0{display:none;}
	.st1{display:inline;fill:#989898;}
	.st2{fill:#060001;}
	.st3{fill:#040000;}
	.st4{clip-path:url(#SVGID_2_);fill:url(#SVGID_3_);}
	.st5{fill:#939494;}
	.st6{fill:none;stroke:#231815;stroke-width:2.254;stroke-linecap:round;stroke-miterlimit:10;}
	.st7{fill:none;stroke:#231815;stroke-width:1.042;stroke-linecap:round;stroke-miterlimit:10;}
	.st8{fill:#C8C9CA;}
</style>
<g id="BG" class="st0">
	<rect x="-182.22" y="-1746.52" class="st1" width="5423.46" height="2640.54"/>
</g>
<g id="圖層_2">
	<g>
		<path d="M248.5,364.54c-2.34-2.23-4.81-3.07-7.59-3.43c-2.21-0.29-4.37-1-6.54-1.53c-0.44-0.11-0.91-0.49-1.27-0.4
			c-7.01,1.73-14.66-2.02-21.42,2.7c-1.46,1.02-4.05,0.68-6.09,0.5c-1.79-0.15-3.13,0.11-4.53,1.29c-3.97,3.34-8.73,3.49-13.59,3.03
			c-1.34-0.13-2.7-0.52-4.01-0.37c-8.03,0.92-15.02-2.28-21.98-5.5c-2.98-1.38-5.84-3.04-8.65-4.75c-3.44-2.1-6.7-4.48-10.16-6.56
			c-1.91-1.14-3.98-2.15-6.11-2.78c-3.54-1.04-6.79-2.36-9.02-5.5c-0.42-0.59-1-1.28-1.64-1.45c-4.08-1.13-6.25-4.34-8.61-7.45
			c-0.96-1.27-2.61-2.01-3.64-3.24c-1.09-1.31-2.64-2.97-2.55-4.4c0.22-3.68,0.99-7.39,2.02-10.95c0.47-1.61,1.96-3.01,3.21-4.27
			c1.61-1.63,2.37-3.35,1.94-5.67c-0.17-0.93-0.17-2.31,0.38-2.88c1.53-1.56,2.63-3.1,2.78-5.41c0.05-0.78,1.19-1.67,2.03-2.18
			c3.07-1.87,6.23-3.62,9.36-5.4c0.78-0.44,1.81-0.63,2.37-1.26c2.41-2.66,5.33-3.39,8.85-3.52c2.08-0.08,4.24-1.43,6.13-2.59
			c3.29-2.02,6.82-2.68,10.56-3.42c6.44-1.27,12.82-0.67,19.23-0.83c3.17-0.08,6.3-0.41,9.25,1.19c0.62,0.33,1.47,0.41,2.19,0.34
			c5.03-0.53,9.37,1.6,13.85,3.35c2.77,1.08,5.69,1.75,8.5,2.75c1.37,0.49,2.79,1.09,3.9,2c3.71,3.07,7.92,4.32,12.63,5.32
			c4.6,0.97,8.5-0.5,12.69-1.13c3.02-0.45,5.91-0.77,8.73,0.99c1.09,0.68,2.6,0.64,3.9,1.02c4.74,1.38,9.47,2.79,14.21,4.19
			c0.29,0.08,0.63,0.16,0.82,0.36c4.25,4.53,10.32,4.89,15.72,6.12c5.36,1.23,10.7,2.38,16.01,3.9c4.04,1.16,8.17,1.75,11.57,4.45
			c2.98,2.37,6.64,3.04,10.17,3.18c4.11,0.16,7.56,1.8,11.02,3.52c5.08,2.53,10.47,4.1,16.01,3.8c6.41-0.34,12.14,1.29,17.72,3.96
			c2.41,1.16,4.52,1.71,7.25,0.58c2.28-0.95,5.01-0.91,7.55-1.15c0.84-0.08,1.76,0.23,2.59,0.5c3.12,1.01,6.2,2.15,9.34,3.07
			c1.12,0.33,2.57,0.59,3.55,0.15c5.8-2.59,11.24,0.03,16.7,1.12c4.45,0.89,8.74,2.62,13.1,3.98c0.43,0.13,0.95,0.42,1.29,0.28
			c3.67-1.47,6.98,0.4,10.43,1c0.59,0.1,1.4-0.13,1.76,0.19c3.1,2.69,6.87,2.42,10.58,2.69c1.44,0.11,2.94,0.75,4.2,1.5
			c3.25,1.95,7.73,1.26,10.24,4.9c0.33,0.48,1.98,0.15,3,0.05c3.46-0.33,3.7-0.21,4.97,3.01c0.28,0.7,0.45,1.44,0.73,2.13
			c1.21,2.99,1.65,3.33,5.2,4.06c1.31,4.7,2.7,9.38,3.88,14.11c0.53,2.13,0.14,2.58-2.6,5.02c1.15,0.96,2.24,1.9,3.36,2.79
			c1.96,1.54,2.78,3.46,2.18,5.95c-0.24,0.99-0.73,2.21-0.38,3.01c1.71,3.83,0.04,7.29-0.72,10.91c-0.45,2.15-0.24,4.42-0.43,6.63
			c-0.48,5.53-0.55,11,0.52,16.51c0.75,3.85,0.56,7.8-1.65,11.34c-0.23,0.37-0.59,0.99-0.45,1.23c2.43,4.01-0.45,8.96,2.5,13.03
			c1.09,1.5,1.03,4.03,1.02,6.09c-0.04,5.81-0.81,11.66-0.32,17.42c0.3,3.48,0.52,7.14,2.63,10.59c1.33,2.17,0.33,5.78,0.29,8.75
			c-0.01,0.73-0.24,1.51-0.56,2.17c-2.22,4.61-1.61,9.53-1.68,14.39c-0.01,0.94-0.41,2.12-1.05,2.77c-3.85,3.9-7,8.45-12.22,11.02
			c-3.52,1.73-7.01,2.56-10.78,2.5c-2.7-0.04-5.39-0.6-8.08-0.57c-2.04,0.02-4.12,0.47-6.11,0.99c-3.12,0.81-6.12,2.23-9.27,2.69
			c-5.02,0.73-10.13,0.87-15.2,1.29c-7.45,0.63-14.89,1.42-22.35,1.89c-5.64,0.36-11.3,0.26-16.95,0.47
			c-10.48,0.4-20.96,0.91-31.4-0.81c-3.57-0.59-7.09-1.15-10.23-3.21c-1.22-0.8-2.79-1.04-4.17-1.62c-1.24-0.52-2.72-0.89-3.57-1.81
			c-1.85-2-3.74-3.55-6.39-4.66c-2.17-0.91-3.65-3.46-3.84-6.21c-0.24-3.55-0.65-7.01-1.82-10.47c-1.12-3.32-1.06-6.87,2.54-9.21
			c0.68-0.44,1.63-1.36,1.56-1.95c-0.43-3.63,2.58-5.92,3.31-9.08c0.48-2.08,1.84-2.87,4.09-2.25c1.57,0.44,3.27,0.41,4.96,0.6
			c5.06-4.59,11.43-4.85,17.59-4.06c6.85,0.87,13.56,1.8,20.49,0.84c7.03-0.98,14.13-1.43,21.69-2.15c0.32-1.5,1.01-3.22,0.99-4.93
			c-0.05-4.15-0.46-8.3-0.67-12.45c-0.05-0.87-0.2-1.98,0.23-2.6c2.64-3.79,1.09-7.83,0.86-11.77c-0.16-2.64-0.89-5.25-0.9-7.88
			c-0.01-1.33,0.95-2.7,1.58-4c0.32-0.65,1.29-1.15,1.32-1.75c0.24-5.32,3.83-9.16,5.82-13.7c0.51-1.16,0.56-2.61,0.53-3.92
			c-0.06-2.63-0.31-5.25-0.54-8.68c-0.84-0.98-2.27-2.68-3.74-4.36c-0.39-0.45-0.94-1.24-1.3-1.18c-4.26,0.75-6.8-3.65-10.81-3.52
			c-1.45,0.05-2.9,0.13-4.34,0.29c-2.68,0.3-5.14,0.58-6.87-2.42c-0.7-1.22-2.55-2.05-4.04-2.47c-1.84-0.52-3.87-0.39-5.8-0.62
			c-3.99-0.47-8-0.88-11.95-1.58c-1.03-0.18-1.91-1.34-2.84-2.06c-1.89-1.47-3.64-3.07-6.4-2.63c-0.92,0.15-2.02-0.42-2.95-0.84
			c-4.21-1.87-8.38-3.84-12.6-5.7c-0.93-0.41-2.02-0.45-3.02-0.73c-2.42-0.68-4.98-1.1-7.23-2.15c-6.84-3.19-13.01-1.06-16.06,5.83
			c-0.17,0.4-0.38,0.92-0.27,1.29c0.95,3.18-0.6,5.43-2.46,7.77c-0.73,0.92-0.7,2.49-0.9,3.78c-0.28,1.82-0.49,3.82-2.45,4.5
			c-5.63,1.96-6.89,7.03-8.61,11.76c-0.88,2.42-1.55,4.84-3.75,6.51c-0.62,0.48-0.77,1.56-1.17,2.35c-1.15,2.25-2.37,4.46-3.45,6.73
			c-1.01,2.14-1.86,4.36-2.81,6.53c-0.83,1.89-1.32,4.1-2.65,5.54c-1.78,1.94-2.72,4.01-2.59,6.47c0.2,3.84-1.54,6.39-4.32,8.89
			c-2.15,1.94-3.77,4.63-5.08,7.26c-1.23,2.47-0.65,3.74,2.1,4.28c3.74,0.74,6.01,2.92,8.08,5.83c0.9,1.27,2.51,2.06,3.82,3.03
			c2.14,1.59,4.31,3.14,6.44,4.74c0.59,0.45,0.99,1.31,1.63,1.51c4.06,1.28,5.06,4.46,5.76,8.18c0.37,1.95,1.71,3.74,2.75,5.52
			c1.21,2.05,2.72,3.93,3.81,6.03c0.47,0.91,0.49,2.26,0.24,3.29c-0.83,3.44-3.46,6.27-3.4,10.03c-3.37,3.1-4.41,8.28-9.13,10.17
			c-0.28,0.11-0.75,0.14-0.82,0.32c-1.34,3.81-5.67,4.04-7.99,6.67c-0.48,0.55-1.08,1.14-1.75,1.37c-3.96,1.32-7.88,3.07-11.96,3.6
			c-2.37,0.31-5.03-1.32-7.51-2.22c-0.95-0.34-1.73-1.48-2.64-1.55c-4.1-0.32-6.18-3.38-8.35-6.09c-2.64-3.3-5.02-6.7-9.34-8.06
			c-0.88-0.28-1.87-1.19-2.21-2.05c-0.84-2.13-2.78-2.37-4.39-3.38c-4.4-2.78-8.04-0.57-11.83,1.06c-2.46,1.06-4.89,2.21-7.21,3.53
			c-4.95,2.82-9.91,5.64-14.67,8.77c-1.35,0.89-2.11,2.79-2.93,4.33c-1.12,2.11-1.86,4.44-3.1,6.46c-2.02,3.3-4.93,5.2-9.03,4.65
			c-0.59-0.08-1.32-0.26-1.78-0.02c-6.42,3.39-13.98,3.01-20.44,6.24c-1.46,0.73-3.06,1.42-4.66,1.62c-3.96,0.48-7.58,1.73-11,3.75
			c-2.52,1.48-5.22,1.91-8.22,1.6c-2.94-0.3-5.96,0.29-8.94,0.21c-2.69-0.07-5.43-0.22-8.02-0.84c-3.28-0.79-6.42-0.87-9.79-0.53
			c-6.06,0.62-12.08,2.47-18.31,0.87c-1.83-0.47-3.89-0.13-5.83-0.05c-2.73,0.12-5.42,0.33-7.53-2c-0.43-0.48-1.33-0.78-2-0.76
			c-4.28,0.17-8.58,0.31-12.84,0.73c-4.92,0.48-9.21-0.99-13.88-2.5c-6.77-2.2-11.77-7.19-18.29-9.55c-3.03-1.1-4.47-3.93-4.71-7.15
			c-0.37-5.2-1.45-10.41,0.11-15.6c0.21-0.69,0.42-1.72,0.08-2.2c-2.54-3.6-0.88-7.91-2.11-11.71c-0.65-2-0.11-3.99,1.38-5.42
			c1.93-1.86,3.95-3.73,6.22-5.11c2.55-1.55,4.55-3.33,5.54-6.21c0.94-2.75,2.07-5.33,5.49-5.94c0.91-0.16,1.82-1.08,2.45-1.86
			c4.5-5.59,5.9-5.99,12.11-3.17c2.5-1.16,5.13-2.24,7.61-3.59c1.12-0.61,2.04-1.66,2.92-2.63c2.26-2.49,5.4-3.65,8.13-2.31
			c3.91,1.92,7.85,1.32,11.79,1.75c1.93,0.21,4.18,0.1,5.68,1.07c5.04,3.23,10.11,1.76,15.27,0.85c1.89-0.33,3.83-0.53,5.75-0.5
			c5.88,0.08,11.3-1.4,16.01-4.9c2.02-1.5,3.72-2.89,6.48-1.98c1.01,0.33,2.44,0.05,3.45-0.43c3.32-1.58,6.76-2.4,10.43-2.56
			c1.98-0.08,3.66-0.87,4.97-2.65c0.81-1.09,2.44-1.54,3.59-2.43c0.75-0.58,1.92-1.61,1.78-2.11c-0.32-1.13-1.14-2.55-2.13-2.98
			c-2.17-0.94-4.54-1.58-6.89-1.89c-3.19-0.41-4.9-2.47-5.6-5.11c-0.54-2.01-1.57-3.08-3.23-3.96c-3.28-1.74-6.8-3.1-9.34-6.06
			c-0.62-0.72-1.82-0.97-2.77-1.4c-4.51-2.02-9.03-4.03-13.57-6.05c-0.26-3.59-1.67-5.77-4.78-7.68c-4.31-2.65-7.61-6.67-7.55-12.35
			c0-0.3-0.15-0.66-0.02-0.88c2.68-4.71,3.31-10.37,8.56-13.93c4.13-2.8,8.06-5.68,12.83-7.17c1.64-0.51,3.46-0.57,5.21-0.63
			c2.24-0.07,4.5-0.04,6.74,0.15c1.61,0.14,3.47,0.19,4.73,1.02c3.99,2.63,8.52,2.82,12.93,2.94c4.31,0.12,7.2,2.35,10.13,4.93
			c1.67,1.46,3.31,3,5.16,4.2c2.36,1.53,4.84,2.93,7.41,4.06c1.26,0.55,2.88,0.61,4.29,0.46c2.52-0.28,4.47,0.08,6.54,1.94
			c2.61,2.35,5.49,4.39,9.02,5.68c3.44,1.25,6.36,3.91,8.13,7.39c1.52,2.98,4.13,3.49,6.17,0.89c1.28-1.63,2.67-3.56,2.94-5.51
			c0.56-3.98,3.55-5.77,6.2-7.7c2.03-1.48,3.57-2.94,4.59-5.28c0.6-1.37,2.13-2.42,3.41-3.39c2.77-2.11,5.05-3.94,4.85-8.3
			c-0.17-3.58,0.71-7.68,4.46-10.23C245.88,368.31,246.97,366.34,248.5,364.54"/>
		<path d="M868.76,602.91c0.02-0.15,0.05-0.3,0.08-0.44c0.26-1.02,3.92-4.25,3.55-5.08c-0.62-1.37-0.81-2.86-1.65-3.47
			c-3.37-2.45-3.95-5.8-4.27-9.65c-0.26-3.1-1.46-6.13-4.71-7.78c-0.79-0.4-1.24-1.58-1.7-2.48c-1.43-2.77-2.86-5.56-4.15-8.4
			c-0.4-0.86-0.45-1.91-0.51-2.89c-0.12-1.93,0.03-3.88-0.25-5.78c-0.32-2.15-2.86-2.15-3.82-3.75c-0.73-1.23,0.09-2.75-0.34-4.07
			c-0.56-1.72-1.74-1.98-3.03-3.16c-2.51-2.31-3.64-5.68-5.81-8.26c-0.09-0.11-0.13-0.28-0.24-0.38c-3.8-3.61-5.99-8.06-7.2-13.13
			c-0.23-0.96-1.46-1.88-2.44-2.43c-4.65-2.64-8.5-5.72-10.64-11.02c-1.71-4.23-4.53-8.05-7.13-11.87
			c-1.05-1.55-2.65-2.93-4.31-3.83c-2.51-1.37-4.05-3.39-5.38-5.78c-2.32-4.19-4.31-8.66-7.25-12.38c-2.45-3.1-4.63-6.02-5.61-9.92
			c-0.35-1.42-1.95-2.58-3.1-3.75c-1.66-1.69-1.93-3.5-1.23-5.74c0.67-2.12,1-4.35,1.36-6.55c0.71-4.29,3.54-6.59,7.88-6.61
			c2.81-0.02,5.62-0.4,8.42-0.59c0.74-0.05,1.76-0.31,2.19,0.07c2.71,2.31,6.75,1.95,9.21,4.77c0.75,0.86,1.92,1.41,2.97,1.96
			c2.62,1.39,4.97,2.8,6.77,5.51c1.83,2.76,4.89,4.69,7.39,7.01c1.16,1.08,2.25,2.24,3.42,3.31c1.09,1.01,2.2,2.02,3.39,2.9
			c2.98,2.22,6.01,4.38,9.02,6.56c0.59,0.43,1.6,0.81,1.69,1.34c0.68,3.93,4.3,5.26,6.69,7.62c1.21,1.19,3.03,2.04,4.72,2.4
			c2.04,0.44,3.51,1.27,4.85,2.88c2.89,3.47,6.51,6.13,10.48,8.26c2.13,1.14,3.23,2.78,3.94,5.13c1.37,4.57,4.57,7.73,9.08,9.25
			c2.25,0.76,4.01,1.87,5.41,3.77c1.9,2.58,4.27,4.62,7.37,5.73c2.06,0.74,3.37,2.19,4.47,4.17c1.43,2.59,3.55,4.79,5.12,7.32
			c1.09,1.75,2.2,3.7,2.5,5.68c0.76,5.05,2.82,8.86,7.33,11.7c2.94,1.84,5.12,4.88,7.63,7.4c3.28,3.28,6.94,6.23,8.86,10.65
			c0.24,0.54,0.59,1.17,1.06,1.43c3.43,1.91,5.25,5.19,7.23,8.34c1.1,1.74,2.17,3.5,3.27,5.24c1.43,2.25,2.97,4.44,4.3,6.75
			c0.88,1.54,1.49,3.25,2.19,4.89c1.16,2.73,2.31,5.47,3.45,8.21c0.17,0.4,0.48,0.84,0.43,1.23c-0.54,3.81,1.28,6.93,2.9,10.1
			c1,1.95,2.23,3.77,3.22,5.72c1.2,2.35,2.29,4.75,3.38,7.15c0.62,1.35,1.16,2.74,1.72,4.12c0.17,0.41,0.53,1.05,0.39,1.22
			c-2.35,2.72,0.02,4.96,0.57,7.43c0.31,1.38,0,2.91-0.08,4.37c-0.17,2.82-0.24,5.65-0.59,8.45c-0.48,3.84-1.09,7.67-1.83,11.47
			c-0.38,1.93-1.78,2.99-3.82,3.29c-0.93,0.14-2.4,0.64-2.55,1.26c-1,3.9-4.13,7-4.09,11.28c0.02,2.33-1.25,3.83-2.89,5.63
			c-2.58,2.83-5.01,5.42-8.74,6.62c-0.44,0.14-0.94,0.91-0.96,1.41c-0.14,4.71-4.6,6.74-6.44,10.43c-0.82,1.65-2.77,2.76-5.05,2.01
			c-0.52-0.17-1.59-0.15-1.69,0.07c-1.59,3.92-6.55,3.51-8.64,6.96c-1.96,3.23-3.29,3.59-7.22,3.93c-1.35,1.43-2.42,2.89-3.8,3.95
			c-2.94,2.28-6,4.42-9.1,6.49c-0.96,0.64-2.2,1.25-3.3,1.22c-3.16-0.08-5.83,1.17-8.56,2.44c-1.89,0.88-3.88,1.55-5.83,2.31
			c-0.56,0.22-1.29,0.27-1.66,0.66c-2.44,2.57-5.2,4.46-8.86,4.72c-4.71,4.19-10.6,3.36-16.19,3.9c-2.04,0.19-4.05,0.74-6.07,1.12
			c-1.31,0.25-2.63,0.7-3.94,0.69c-2.49-0.02-4.58,0.88-6.83,1.85c-3.11,1.34-6.52,2.1-9.87,2.75c-5.29,1.01-10.63,1.73-15.95,2.55
			c-1.47,0.23-2.95,0.4-4.43,0.61c-0.88,0.13-2.08-0.04-2.59,0.47c-3.08,3.06-7.24,2.49-10.93,3.4c-3.58,0.89-7.29,1.3-10.85,2.26
			c-1.33,0.36-2.5,1.56-3.56,2.57c-1.76,1.67-3.58,2.16-6.11,1.93c-4.06-0.37-8.42-1.29-11.87,2.25c-0.55,0.56-1.62,0.85-2.46,0.87
			c-3.73,0.11-7.47,0.05-11.21,0.09c-3.86,0.04-7.54,0.11-11.37,1.73c-3.87,1.65-8.44,1.67-12.7,2.4c-1.03,0.18-2.06,0.37-3.1,0.5
			c-1.89,0.24-3.78,0.46-5.68,0.63c-2.23,0.21-4.69-0.17-6.64,0.67c-3.99,1.73-8.12,2.87-12.27,4.02c-0.58,0.16-1.22,0.61-1.72,0.48
			c-4.51-1.21-8.89,0.53-13.35,0.57c-3.26,0.03-6.5,1.01-9.77,1.31c-8.73,0.82-16.65-1.32-23.42-7.03
			c-1.23-1.04-2.12-2.49-3.13-3.77c-1.48-1.87-2.94-3.76-4.4-5.65c-0.43-0.56-1.1-1.12-1.18-1.74c-0.37-2.78-0.5-5.58-0.87-8.36
			c-0.17-1.32-0.55-2.64-1.04-3.88c-0.95-2.38-3.48-3.99-2.99-7.18c0.12-0.78-2.08-1.87-3.13-2.9c-1.03-1-2.33-1.96-2.84-3.21
			c-1.24-3.08-3.39-5.32-6.01-7.09c-1.53-1.03-2.33-2.06-2.42-3.94c-0.17-3.43-0.69-6.84-0.89-10.27c-0.07-1.12,0.03-2.81,0.72-3.31
			c2.72-1.97,4.45-4.76,6.7-7.11c1.64-1.71,3.68-2.77,6.32-3c2.85-0.25,5.22-1.62,6.45-4.79c1.09-2.78,3.31-4.31,6.62-5.22
			c7.72-2.12,15.36-1.23,23.07-0.94c1,0.04,2.04-0.36,3.03-0.63c1.7-0.47,3.42-0.91,5.07-1.54c1.06-0.41,2.09-1.02,2.97-1.74
			c2.53-2.08,5.03-3.67,8.53-2.09c1.32,0.6,2.99,0.36,4.41,0.8c2.23,0.69,4.17,0.51,5.73-1.32c1.25-1.46,2.57-1.61,4.41-1.03
			c1.83,0.57,3.84,0.56,5.78,0.71c0.72,0.06,1.82,0.14,2.13-0.26c2.16-2.8,5.23-2.28,8.16-2.75c2.46-0.4,4.72-1.88,7.14-2.69
			c1.65-0.55,3.39-0.83,5.11-1.13c1.03-0.18,2.2,0.12,3.12-0.25c5.33-2.18,10.86-2.58,16.51-2.25c1.01,0.06,2.09-0.31,3.05-0.08
			c2.04,0.48,3.8,0.11,5.61-0.89c2.13-1.17,4.34-1.61,6.92-1.09c2.29,0.46,4.82,0.26,7.15-0.14c2.35-0.41,4.56-1.28,7.03-0.41
			c0.68,0.24,1.7-0.32,2.53-0.62c4.31-1.61,8.61-3.27,12.91-4.9c6.55-2.47,13.38-3.63,20.29-4.53c1.71-0.23,3.32-1.15,5.01-1.64
			c1.57-0.46,3.22-1.18,4.76-1.05c3.83,0.33,6.89-0.99,10.04-3c4.14-2.63,8.56-4.85,12.99-6.97c1.94-0.93,3.67-1.69,4.72-3.79
			c0.71-1.42,2.16-2.45,3.22-3.7c1.06-1.25,2.43-2.4,3-3.86c0.97-2.47,2.06-4.56,4.64-5.69c0.67-0.29,1.23-1.29,1.45-2.08
			c0.68-2.4,1.01-4.9,1.77-7.27c0.6-1.89,0.1-3.46-1.31-4.38c-1.96-1.28-2.09-3.02-2.34-5.02
			C871.49,609.78,868.36,605.96,868.76,602.91"/>
		<path d="M289.94,233.84c-0.35-0.25-0.48-0.43-0.58-0.41c-5.45,0.99-7.06-0.69-5.36-6.06c0.69-2.19,1.25-4.19,0.94-6.53
			c-0.14-1.04-0.09-1.95,0.52-2.83c0.37-0.54,0.89-1,1.37-1.45c1.26-1.18,2.92-1.55,4.31-2.65c1.34-1.07,0.72-1.87,1.29-3.14
			c0.32-0.71,0.8-1.36,1.3-1.95c1.26-1.5,2.82-2.77,4.39-3.94c2.68-2,5.58-3.85,8.61-5.28c1.62-0.77,3.1-1.9,4.77-2.51
			c4.8-1.72,7.47-5.41,9.09-9.89c0.87-2.42,2.31-3.58,4.65-4.34c1.92-0.62,3.78-1.68,5.41-2.9c2.27-1.69,4.59-2.74,7.48-2.5
			c1.16,0.09,2.37-0.08,3.51-0.34c3.64-0.83,7.28-1.66,10.87-2.68c1.56-0.44,3.2-1.09,4.43-2.1c3.24-2.64,6.44-5.37,9.33-8.37
			c1.65-1.72,3.26-2.81,5.65-3.26c1.96-0.37,3.85-1.46,5.59-2.53c1.78-1.09,3.31-2.59,5-3.84c2.09-1.54,4.42-2.2,7.05-2.63
			c4.57-0.75,9.06-2.11,13.5-3.47c1.13-0.35,2.16-1.54,2.86-2.59c1.19-1.79,2.71-2.94,4.81-2.8c7.29,0.47,12.18-3.36,16.23-8.78
			c1.7-2.28,3.35-4.61,5.1-6.85c0.73-0.94,1.52-1.97,2.53-2.53c5.85-3.29,11.58-6.9,17.73-9.52c4.92-2.1,10.33-3.15,15.61-4.3
			c4.66-1.02,8.95-2.08,11.33-6.96c0.66-1.35,2.82-2.73,4.33-2.78c6-0.18,9.85-4.06,13.97-7.46c1.64-1.35,2.97-2.96,5.36-2.87
			c0.57,0.02,1.28-0.12,1.72-0.45c6.31-4.82,14.22-5.31,21.32-7.97c2.49-0.93,4.84-2.27,7.21-3.51c1.05-0.55,1.91-1.55,3-1.93
			c4.23-1.47,6.88-4.74,9.42-8.09c1.43-1.89,2.99-3.37,5.34-3.81c4.86-0.92,9.71-1.95,14.6-2.64c2.56-0.36,4.42-1.32,6.1-3.3
			c1.72-2.04,3.89-3.69,5.89-5.48c0.89-0.8,2.03-1.38,2.74-2.31c2.32-3.01,5.28-4.81,9.04-5.37c2.66-0.4,4.34-2.02,5.08-4.53
			c1.12-3.78,3.37-6.12,7.36-7.07c1.59-0.38,3.02-1.86,4.26-3.1c2.59-2.59,5.08-5.18,9.2-4.9c0.67,0.05,1.37-0.5,2.07-0.73
			c4.98-1.64,9.95-3.28,14.95-4.88c0.69-0.22,1.48-0.3,2.2-0.22c7.25,0.79,14.62-1.44,21.78,0.81c3.56,1.12,7.16,1.18,10.7,0.65
			c4.96-0.74,9.27,0.86,13.23,3.29c4.59,2.82,8.84,6.18,13.22,9.34c3.97,2.87,4.21,7.75,6.22,11.68c0.07,0.13,0.13,0.33,0.07,0.43
			c-2.7,4.25-0.08,9.92-3.72,13.93c-0.3,0.33-0.2,1.03-0.34,1.54c-0.84,3-1.16,6.37-5.64,6.22c-0.89-0.03-2.02,0.79-2.68,1.54
			c-4.27,4.84-10.52,6.09-15.9,8.89c-3.46,1.8-7.11,3.22-10.6,4.96c-0.86,0.43-1.77,1.28-2.1,2.15c-1,2.67-2.99,3.98-5.54,4.85
			c-2.78,0.96-4.7,3.01-6.86,5.59c4.45,1.22,8.45,2.25,12.39,3.43c1.37,0.41,2.73,1.07,3.91,1.88c1.95,1.33,3.67,2.99,5.62,4.3
			c3.11,2.09,6.23,4.21,9.53,5.96c3.69,1.96,7.73,3.26,11.34,5.32c4.4,2.5,8.47,5.57,12.78,8.23c1.47,0.91,3.19,1.74,4.87,1.91
			c4.22,0.42,7.58,2.22,10.75,4.94c2.24,1.92,4.79,3.82,7.54,4.72c4.03,1.32,6.78,4.34,10.26,6.34c0.91,0.52,1.74,1.24,2.7,1.6
			c2.52,0.93,3.8,2.82,4.44,5.28c0.73,2.81,1.89,5.31,4.14,7.32c0.75,0.68,1.12,2.08,1.18,3.19c0.34,5.82,0.63,11.66,0.68,17.48
			c0.01,1.14-0.86,2.64-1.8,3.36c-4.38,3.34-7.94,7.7-13.04,10.19c-4.87,2.38-9.54,4.88-15.29,3.65c-1.7-0.37-3.59,0-5.37,0.21
			c-4.67,0.54-9.26,0.45-13.84-0.8c-6.19-1.69-12.47-3.06-18.62-4.88c-1.53-0.45-3.18-1.81-3.98-3.21
			c-1.68-2.92-3.49-5.55-6.54-7.19c-0.77-0.41-1.52-1.06-2-1.78c-1.86-2.78-4.52-4.27-7.63-5.24c-1.24-0.39-2.63-1.04-3.4-2.01
			c-2.34-2.91-4.43-6.02-6.57-9.09c-1.9-2.72-3.85-5.3-7.4-6.09c-0.9-0.2-1.92-1-2.39-1.81c-1.45-2.48-3.52-4.02-6.17-4.97
			c-0.67-0.24-1.46-0.7-1.79-1.28c-3.72-6.51-10.23-9.5-16.59-12.11c-3.33-1.36-6.26-2-6.89-6c-0.06-0.38-0.55-0.7-0.87-1.01
			c-2.43-2.36-4.86-4.72-7.09-6.88c-3.22,0.52-6.41,1.04-9.6,1.56c-0.44,0.07-0.96,0-1.33,0.2c-4.72,2.57-9.94,4.56-13.99,7.94
			c-3.84,3.2-7.22,6.44-12.35,7.55c-5.39,1.17-10.63,3.02-15.94,4.6c-0.56,0.17-1.11,0.42-1.61,0.72c-2.69,1.59-5.38,3.17-8.02,4.83
			c-2.01,1.26-3.95,2.63-5.93,3.94c-1.12,0.74-2.2,1.61-3.41,2.15c-6.78,3.07-13.64,5.95-20.37,9.11c-3.23,1.52-6.33,3.37-9.34,5.3
			c-3.56,2.29-7.2,4.08-11.43,5c-3.91,0.85-7.56,2.83-11.39,4.12c-3.55,1.2-7.26,2.01-9.93,4.96c-0.19,0.21-0.5,0.45-0.76,0.45
			c-5.83,0.17-9.75,4.28-14.3,7.03c-2.79,1.69-5.51,3.63-7.87,5.87c-1.72,1.64-3.47,2.25-5.66,2.05c-3.27-0.3-6.12,0.85-9.06,2.15
			c-2.98,1.32-6.2,2.2-9.39,2.94c-4.39,1.01-8.47,2.44-12.58,4.49c-3.61,1.8-7,4.38-11.24,5.14c-3.33,0.59-5.78,3.01-8.05,5.49
			c-1.31,1.43-2.64,2.93-4.24,3.96c-2.29,1.47-4.46,2.89-5.95,5.29c-0.57,0.92-1.85,1.71-2.93,1.94c-4.23,0.88-7.88,2.97-11.32,5.35
			c-4.36,3.02-9.34,3.79-14.33,4.74c-1.26,0.24-3.08,0.3-3.62,1.12c-1.45,2.17-3.7,2.31-5.73,3.08c-3.08,1.16-6.21,2.23-9.27,3.45
			c-2.42,0.97-10.52,1.79-13.12,1.66c-2.66-0.14-5.36,0.2-8.02,0.48c-4.72,0.5-9.29,0.74-12.6-3.67c-0.37-0.5-1.33-0.6-2.04-0.79
			c-5-1.34-6.8-5.27-4.7-10.21C289.91,234.86,289.88,234.26,289.94,233.84"/>
		<path d="M184.94,640.38c0.88-2.15,1.63-4.37,2.69-6.43c1.29-2.5,2.38-4.72,0.08-7.36c-1.19-1.38-0.66-3.23-0.22-5.11
			c1.36-5.8,2.32-11.7,3.27-17.59c0.15-0.91-0.5-1.98-0.86-2.94c-0.57-1.52-1.2-3.02-1.82-4.55c1.15-1.32,2.19-2.38,3.07-3.57
			c1.63-2.2,2.9-4.4,2.02-7.45c-0.47-1.62-0.28-3.64,0.22-5.3c1.56-5.15,3.29-10.26,5.19-15.29c1.15-3.05,2.41-5.81,2.07-9.36
			c-0.39-4.09,1.61-5.56,5.99-6.84c3.41-1,6.44-3.06,10.14-3.38c2.96-0.25,5.87-1.07,8.82-1.47c6.11-0.83,11.06,1.68,15.5,5.57
			c1.2,4.79,4.82,8.96,3.74,14.33c-0.53,2.63,0.31,4.73,1.41,7.18c2.14,4.78,4.77,9.57,2.44,15.46c-1.14,2.88-0.61,6.53-0.37,9.79
			c0.16,2.15,0.06,3.71-1.92,5.01c-0.84,0.55-1.72,1.95-1.62,2.87c0.25,2.51,0.81,5.04,1.68,7.4c0.3,0.81,1.85,1.56,2.88,1.63
			c6.12,0.37,12.29,1.29,18.28-1.06c1.09-0.43,2.48-0.9,3.49-0.59c3.71,1.17,7.13,0.13,10.61-0.82c0.58-0.16,1.18-0.3,1.77-0.3
			c5.23,0.01,10.47,0.13,15.7,0.07c9.34-0.1,18.43,2.05,27.65,2.97c5.94,0.59,11.93,0.68,17.9,1c4.49,0.24,9.01,0.24,13.46,0.8
			c2.32,0.3,4.6,1.4,6.72,2.48c1.86,0.94,3.6,1.23,5.62,0.79c3.13-0.68,6.24-0.62,9.28,0.65c1.09,0.46,2.47,1.05,3.47,0.75
			c5.45-1.6,10.74,0.61,16.1,0.44c0.6-0.02,1.25-0.12,1.8,0.06c7.1,2.28,14.56,0.88,21.7,2.12c7.69,1.34,15.85,0,23.12,3.92
			c0.99,0.53,2.34,0.46,3.53,0.56c3.72,0.31,7.44,0.57,11.17,0.83c4.78,0.33,9.56,0.6,14.34,0.99c4.49,0.37,8.97,0.85,13.45,1.31
			c2.53,0.26,5.06,0.56,7.59,0.85c2.54,0.29,4.96,0.57,6.68,3c1.16,1.64,3.12,2.12,5.25,1.94c8.81-0.78,16.57,1.43,22.85,8.03
			c4.02,4.23,8.32,8.19,12.33,12.43c1.29,1.37,2.53,3.12,2.96,4.91c1.54,6.44,10.87,8.56,5.7,15.71c-1.8,2.48-2.3,4.83-0.67,7.86
			c2.38,4.44,0.29,8.8-1.49,12.93c-0.36,0.82-1.96,1.45-3.05,1.55c-3.73,0.36-6.97,1.76-9.86,4.03c-3.79,2.98-8.35,2.09-12.6,2.33
			c-3.06,0.17-5.87,0.81-8.76,1.69c-2.05,0.63-4.38,0.4-6.59,0.5c-2.06,0.09-4.13,0.12-6.2,0.17c-2.69,0.06-5.38,0.09-8.06,0.17
			c-3.1,0.09-6.2,0.22-9.3,0.33c-0.99,0.03-2.04,0.26-2.97,0.03c-8.29-2.04-16.53-2.36-24.87-0.05c-4.96,1.38-9.85,1.23-14.92-0.54
			c-3.24-1.13-7.09-0.94-10.61-0.64c-2.6,0.22-4.98,0.11-7.52-0.42c-4.08-0.86-8.26-1.43-12.42-1.69c-4.47-0.28-8.56-1.51-12.4-3.68
			c-2.13-1.2-4.29-1.66-6.75-1.98c-4.25-0.56-8.37-2.09-12.53-3.28c-0.85-0.24-1.56-0.99-2.41-1.18
			c-10.93-2.44-21.35-7.29-32.87-6.96c-1.18,0.03-2.37-0.34-3.56-0.5c-3.55-0.47-7.1-0.92-10.65-1.39c-2.23-0.3-4.45-0.7-6.69-0.9
			c-4.16-0.39-8.34-0.62-12.51-1.01c-1.76-0.16-3.62-0.24-5.23-0.87c-3.91-1.54-7.71-1.98-11.87-0.91
			c-2.21,0.57-4.72,0.18-7.06-0.06c-5.06-0.49-10.21-0.72-15.13-1.88c-5.28-1.25-10.98,0.02-15.97-3.55
			c-2.75-1.96-6.68-2.25-10.07-3.33c-0.99-0.31-1.95-0.71-2.91-1.11c-0.96-0.4-1.91-1.25-2.86-1.23c-6.94,0.13-12.94-3.56-19.58-4.7
			c-3.94-0.68-7.82-2-11.58-3.43c-6.12-2.34-11.35-6.02-15.43-11.26c-2.09-2.68-4.95-4.79-5.66-8.45c-0.21-1.07-1.22-1.99-1.87-2.98
			C185.89,640.41,185.41,640.39,184.94,640.38"/>
		<path d="M937.74,329.95c-0.92,0-1.66-0.07-2.38,0.01c-6.77,0.79-12.81-1.21-19-3.88c-3.42-1.47-7.53-2.28-11.69-2.03
			c-5.77,0.34-11.55,1.54-17.4,0.12c-2.12-0.51-4.46-0.14-6.7-0.07c-4.84,0.14-9.68,0.41-14.52,0.51c-2.21,0.05-4.44-0.33-6.66-0.27
			c-2.37,0.06-4.63,0.15-7.06-0.36c-2.1-0.45-4.64,0.59-6.85,1.38c-1.56,0.55-2.74,1.26-4.62,0.58c-1.53-0.56-3.53-0.15-5.26,0.19
			c-2.73,0.53-5.23,0.33-7.95-0.47c-5.05-1.48-10.11-2.17-15.39,0.14c-2.34,1.02-5.63,0.63-8.26-0.02
			c-4.23-1.03-8.13-2.33-12.75-1.42c-3.52,0.69-7.39-0.44-11.1-0.72c-4.89-0.36-9.82-1.13-14.32,1.82
			c-0.57,0.37-1.47,0.42-2.19,0.36c-5.89-0.54-11.97,0-17.48-2.8c-2.2-1.12-4.47-1.05-6.83-1.34c-5.88-0.72-11.59,0.11-17.37,0.36
			c-2.15,0.09-4.33-1.09-6.53-1.28c-2.05-0.18-4.16,0.27-6.24,0.28c-2.54,0.01-5.09-0.24-7.63-0.2c-3.09,0.06-6.28-0.16-9.22,0.58
			c-4.1,1.04-8.04,2.39-12.36,1.64c-0.99-0.17-2.09,0.14-3.11,0.35c-5.86,1.21-10.24-3.06-9.12-8.93c1.23-6.49,3.06-7.8,9.82-7.39
			c1.6,0.1,3.51,0.09,4.8-0.68c2.42-1.44,4.89-1.1,7.41-1.23c2.82-0.14,5.63-0.39,8.43-0.71c2.89-0.33,5.48-1.94,8.66-1.47
			c1.7,0.25,3.71-0.81,5.41-1.63c2.73-1.32,5.36-0.61,7.88,0.21c2.4,0.78,4.61,1.19,6.92-0.09c0.51-0.29,1.23-0.63,1.71-0.49
			c5,1.51,9.59-1.15,14.42-1.48c6-0.41,12.34-1.38,17.72-3.87c5.64-2.6,11.16-1.68,16.6-1.56c3.16,0.07,5.89-0.86,8.63-1.48
			c5.52-1.26,10.39,0.66,15.36,1.96c3.52,0.92,6.42,1.18,9.74-0.87c2.16-1.33,5.16-1.27,7.76-1.91c1.99-0.48,4.18-0.69,5.88-1.7
			c4.67-2.78,9.43-3.34,14.61-1.89c3.89,1.09,7.68,0.37,11.33-1.22c0.54-0.24,1.07-0.62,1.63-0.68c7.06-0.72,14.12-1.89,21.18-1.95
			c7.56-0.06,15.27-0.38,22.59,2.59c1.57,0.64,3.56,0.44,5.33,0.3c4.69-0.4,9.28-0.05,13.83,1.23c1.13,0.32,2.43,0.53,3.54,0.29
			c5.76-1.24,11.34,0.12,16.96,0.94c0.74,0.11,1.47,0.52,2.19,0.47c4.35-0.31,8.62,0.02,12.82,1.31c2.98,0.92,5.5-0.91,8.19-1.66
			c1.85-0.51,3.69-1.4,5.56-1.48c5.69-0.26,11.39-0.3,17.08-0.22c1.9,0.03,3.84,0.59,5.68,1.15c2.15,0.66,4.16,1.85,6.34,2.34
			c3.99,0.89,7.24,2.46,9.34,6.26c0.69,1.26,2.56,2.59,3.92,2.62c4.51,0.08,6.74,2.99,8.66,6.26c1.6,2.73,3.01,5.45,5.81,7.29
			c0.91,0.6,1.34,2.28,1.51,3.53c0.18,1.3-0.09,2.71-0.37,4.02c-0.63,2.87-0.42,5.3,2.4,7.05c0.8,0.49,1.55,1.64,1.67,2.56
			c0.65,5.16,1.68,10.19,0.19,15.57c-1.27,4.61-0.25,9.73-1.64,14.5c-0.18,0.63,0.35,1.44,0.48,2.18c0.7,4.23,0.96,8.36-2.18,11.93
			c-0.88,1-1.38,2.33-2.2,3.4c-1.13,1.47-1.48,2.98-0.32,4.5c1.69,2.21,1.2,4.45,0.54,6.84c-0.75,2.74-0.97,5.63-1.89,8.3
			c-1.39,4.06-3.06,8.04-4.86,11.95c-0.43,0.94-1.74,1.66-2.8,2.1c-3,1.25-4.16,3.63-4.6,6.61c-0.89,6-4.28,9.49-10.21,11.07
			c-3.43,0.91-6.72,2.6-9.83,4.36c-2.57,1.45-4.95,1.76-7.72,0.85c-2.82-0.92-5.66-1.41-8.72-0.52c-2.84,0.83-5.6-0.22-8.25-1.46
			c-1.73-0.81-3.64-1.29-5.49-1.83c-2.43-0.71-4.98-1.12-7.32-2.07c-3.73-1.51-7.45-3.15-10.94-5.15c-2.02-1.16-3.67-3.06-5.32-4.79
			c-1.89-1.98-3.77-3.71-6.64-4.35c-2.82-0.63-4.05-2.8-4.04-5.71c0-1.92-0.47-3.9-0.13-5.75c0.38-2.13,1.14-4.31,2.24-6.16
			c1.17-1.97,2.05-3.65,0.51-5.76c-0.33-0.46-0.76-1.28-0.57-1.61c2.47-4.42-1-9.99,2.77-14.14c0.25-0.27,0.38-0.95,0.22-1.26
			c-1.92-3.67-0.4-7.5-0.02-11.08c0.35-3.33,2.56-6.48,4.06-9.66c0.62-1.31,1.71-2.41,2.23-3.74c1.03-2.66,1.64-5.48,2.75-8.1
			C938.65,338.33,939.19,334.46,937.74,329.95"/>
		<path d="M669.93,467.02c3.12,0.94,5.34-0.8,7.54-2.71c1.13-0.97,2.31-1.97,3.65-2.57c1.71-0.76,3.12-1.54,3.9-3.41
			c0.77-1.82,2.35-2.62,4.42-2.34c3.11,0.43,5.14-0.85,7.25-3.32c2.73-3.2,6.19-5.87,9.67-8.29c1.99-1.38,4.65-1.78,6.99-2.66
			c0.52-0.2,0.99-0.56,1.81-1.04c-1.88-2.57-4.45-2.44-6.89-2.52c-4.78-0.15-9.32-1.21-13.62-3.3c-0.94-0.45-1.96-0.74-2.94-1.09
			c-5.08-1.83-8.42-5.68-11.13-10.05c-0.76-1.23-0.02-3.33-0.65-4.72c-2.09-4.59,0.21-8.24,1.86-12.23
			c1.18-2.85,1.45-6.06,2.23-9.09c0.32-1.25,0.57-2.72,1.39-3.59c3.17-3.37,6.54-6.55,9.86-9.78c0.42-0.41,0.96-0.68,1.52-1.07
			c4.64,2.4,8.98,1.51,13.13-1.15c3.75-2.4,7.48-2.98,11.1,0.18c2,1.75,4.42,1.35,6.38,0.64c2.75-0.99,5.24-1.64,8.26-1.16
			c2.41,0.38,5.18,0.08,7.49-0.75c3.93-1.41,7.87-1.64,11.83-1.02c3.93,0.62,6.85-1.53,10.08-2.92c0.95-0.41,1.83-1,2.62-1.44
			c0.47,0.08,0.88,0.02,1.04,0.18c3.56,3.69,7.05,2.69,10.81,0.18c2.31-1.54,4.97-2.58,7.52-3.74c0.47-0.22,1.17-0.01,1.75,0.08
			c3.26,0.47,6.52,0.89,9.76,1.46c1.92,0.34,3.53,0.02,5.02-1.27c1.6-1.4,3.27-2.67,5.67-1.74c0.48,0.19,1.26,0.01,1.73-0.28
			c3.9-2.43,8.39-1.48,12.59-2.18c0.85-0.14,2.31,0.39,2.71,1.07c0.99,1.68,2.53,1.8,4.09,2.18c3.48,0.84,6.93,1.71,9.46,4.61
			c0.76,0.87,1.89,1.85,2.94,1.95c4.15,0.4,7.05,3.21,10.37,5.11c4.04,2.32,6.01,7.85,4.38,12.18c-1.87,4.98-5.11,9.13-9.14,12.58
			c-0.74,0.64-1.91,0.77-2.88,1.13c-1.39,0.52-2.76,1.09-4.17,1.55c-1.24,0.4-2.52,0.67-3.77,1.03c-1.82,0.51-3.62,1.08-5.45,1.55
			c-1.25,0.32-2.57,0.83-3.78,0.67c-3.05-0.39-5.21,0.58-6.74,3.26c-1.9,3.34-4.66,5.82-8,7.71c-3.22,1.83-6.82,3.26-7.33,7.78
			c-0.08,0.68-1.45,1.39-2.36,1.75c-2.64,1.05-5.16,2.12-7.26,4.23c-1.31,1.32-3.31,1.96-5.03,2.85c-1.86,0.96-3.34,2.36-4.94,3.63
			c-2.57,2.05-5.91,3.52-9.14,4.22c-2.9,0.63-4.95,1.78-6.65,4.05c-0.98,1.31-2.14,2.5-3.32,3.63c-4.5,4.32-8.95,8.72-13.63,12.84
			c-2.18,1.91-4.76,3.45-7.34,4.8c-2.02,1.06-3.69,2.17-5.18,4.03c-2.02,2.51-4.44,5.19-7.28,6.43c-4.65,2.02-7.75,5.43-10.83,9.08
			c-0.68,0.8-1.37,1.59-2.15,2.29c-5.54,4.98-10.99,10.07-16.71,14.83c-2.01,1.67-4.58,3.09-7.1,3.62c-2.56,0.53-4.8,1.39-7.08,2.58
			c-5.66,2.96-11.19,1.79-16.67-0.8c-1.58-0.75-3.34-1.2-5.06-1.54c-4.36-0.85-8.89-1.14-13.09-2.46c-3.29-1.03-5.36-4.14-5.35-7.65
			c0-2.63-0.96-4.12-2.8-5.7c-0.99-0.85-1.7-2.4-1.9-3.73c-0.31-2.03-0.14-4.14-0.01-6.2c0.04-0.67,0.44-1.48,0.94-1.92
			c2.24-1.96,4.54-3.86,6.89-5.7c1.28-1,3.2-1.54,3.93-2.81c1.99-3.45,4.74-5.51,8.56-6.27c1.51-0.3,2.2-1.23,2.57-2.71
			C668.47,469.07,669.22,468.23,669.93,467.02"/>
		<path d="M990.28,502.15c3.21,2.56,5.86,5.25,9.45,6.89c4.13,1.89,8.17,3.3,12.81,3.44c3.38,0.1,6.77,1.17,10.06,2.12
			c2.87,0.83,5.6,1.88,8.71,1.76c2.03-0.08,4.08,0.74,6.14,1.09c5.96,1.03,11.27,3.92,16.92,5.82c4.96,1.66,10.11,2.73,15.17,4.07
			c0.72,0.19,1.53,0.33,2.12,0.73c4.45,3.01,9.61,4.02,14.63,5.55c2.92,0.89,5.43,3.09,8.16,4.64c1.56,0.89,3.12,2.13,4.81,2.39
			c3.19,0.5,4.95,2.57,6.73,4.82c0.75,0.94,1.44,1.96,2.33,2.75c4.67,4.11,5.1,9.15,3.31,14.68c-1.33,4.11-2.56,8.19-5.83,11.42
			c-1.38,1.36-1.79,3.68-2.72,5.53c-2.32,4.59-4.16,9.58-9.8,11.36c-0.9,0.28-1.72,1-2.43,1.67c-2.4,2.23-5.09,2.95-8.26,2
			c-1.1-0.33-2.43-0.8-3.4-0.47c-4.84,1.64-9.49,0.68-14.12-0.66c-4.32-1.25-8.74-2.26-12.49-4.98c-0.59-0.42-1.37-0.74-2.08-0.79
			c-2.29-0.17-3.92-1.18-5.17-3.12c-0.53-0.83-1.47-1.73-2.37-1.92c-3.03-0.62-6.11-1.19-9.19-1.31c-7.75-0.29-14.5-2.94-20.64-7.59
			c-1.58-1.2-3.68-1.84-5.63-2.43c-7.58-2.28-15.53-3.54-22.27-8.14c-0.99-0.67-2.46-1.21-2.81-2.14c-1.9-5.11-6.77-5.78-10.85-6.83
			c-4.89-1.26-9.38-2.76-13.29-6.04c-1.7-1.42-3.84-2.31-5.64-3.63c-2.46-1.79-5.08-3.13-6.62-6.3c-1.72-3.54-5.04-6.28-7.18-9.66
			c-1.38-2.18-1.87-4.91-2.81-7.37c-0.85-2.23-1.49-4.6-2.71-6.62c-2.63-4.34-1.89-8.58-0.04-12.79c0.49-1.11,1.71-1.9,2.27-2.49
			c0.98-4.57,1.23-9.16,2.99-13.09c2.02-4.5,5.42-8.37,8.1-12.58c0.69-1.09,1.05-2.42,1.4-3.68c0.82-2.99,2.03-5.15,5.42-6.42
			c7.32-2.75,14.58-2.82,21.99-1.1c2.71,0.63,5.35,1.69,7.97,2.58c5.2,1.77,6.58,6.28,9.13,10.01c0.5,0.73,0.2,2.02,0.23,3.05
			c0.15,5.23-1.39,10.23-2.02,15.35C990.45,496.43,990.45,499.2,990.28,502.15"/>
		<path d="M101.56,697.07c-0.04-3.59-1.57-6.01-4.54-7.83c-1.27-0.78-2.31-2.56-2.67-4.07c-0.91-3.73-2.96-7.07-3.18-11.09
			c-0.19-3.39-1.51-6.7-2.15-10.07c-0.27-1.42-0.6-3.21,0.01-4.33c1.48-2.7,1.7-5.62,2.42-8.46c0.92-3.59,0.44-6.85-1.31-9.93
			c-1.2-2.12-1.9-3.93-0.3-6.22c0.56-0.81,0.4-2.27,0.25-3.39c-0.41-2.97-1.07-5.91-1.48-8.88c-0.42-3.1,0.24-6.02,2.29-8.45
			c1.41-1.68,2.19-3.46,2.34-5.69c0.1-1.44,0.5-3.14,1.39-4.18c3.22-3.77,4.02-8.23,4.47-12.91c0.13-1.31,0.35-2.86,1.13-3.8
			c1.49-1.8,2.44-3.7,2.93-5.96c0.17-0.8,0.82-1.69,1.51-2.14c3.05-2.02,4.33-5.28,6.09-8.22c0.75-1.24,1.59-2.78,2.78-3.32
			c4.35-1.96,8.83-3.65,13.34-5.23c1.03-0.36,2.35,0.08,3.53,0.16c6.28,0.43,11.29,3.48,15.75,7.65c1.52,1.42,3.21,2.01,5.33,1.84
			c1.11-0.09,2.48,0.12,3.38,0.73c2.84,1.92,5.8,3.81,8.15,6.26c1.55,1.61,2.17,4.12,3.12,6.27c0.72,1.61,1.23,3.3,1.96,4.9
			c1.01,2.18,1.83,4.13,0.94,6.81c-0.57,1.69,0.56,3.96,0.95,5.96c0.25,1.26,0.81,2.52,0.78,3.77c-0.04,1.94-0.39,3.88-0.73,5.8
			c-0.55,3.13-0.99,6.1,0.96,9.08c1.23,1.89,1.12,4.13,0.11,6.45c-1.51,3.47-1.91,7.17-0.97,10.99c0.42,1.7,0.09,3.58,0.22,5.37
			c0.21,2.83,0.05,5.81,0.88,8.45c1.5,4.74,0.37,9.31-0.68,13.7c-0.65,2.74-0.72,5.23-0.54,7.9c0.11,1.6,0.16,3.33-0.32,4.82
			c-1.04,3.26-2.62,6.34-3.63,9.6c-1.64,5.31-5.72,7.94-10.38,9.91c-5.35,2.26-10.48,5.1-16.57,5.29c-1.97,0.06-3.84,1.79-5.86,2.1
			c-7.94,1.22-15.06-1.67-22.09-4.82c-0.51-0.23-0.86-0.82-1.28-1.24C106.58,697.32,106.58,697.32,101.56,697.07"/>
		<path d="M614.57,591.63c-1.96,5.97-3.67,11.14-5.34,16.32c-1.19,3.68-2.21,7.43-5.6,9.87c-0.43,0.31-0.72,0.98-0.85,1.53
			c-1.71,6.95-6.9,11.04-12.84,13.54c-4.39,1.85-9.43,2.21-13.87-1.73c-3.54-3.14-6.11-6.43-6.93-11.16
			c-0.32-1.83-1.41-3.57-2.37-5.22c-1.12-1.92-2.34-3.83-3.79-5.51c-1.25-1.45-2.81-2.66-4.34-3.83c-2.52-1.92-4.26-4.05-3.8-7.54
			c0.31-2.38-3.77-7.78-6.09-8.45c-4.45-1.28-8.94-2.42-13.38-3.73c-4.41-1.3-8.79-2.74-13.18-4.12c-0.29-0.09-0.59-0.32-0.84-0.28
			c-4.83,0.87-7.39-3.34-11.08-4.98c-0.59-0.26-1.1-1.02-1.35-1.66c-1.03-2.61-1.98-5.26-2.89-7.91c-0.94-2.73-0.32-3.79,2.56-5.02
			c0.91-0.39,2.2-0.93,2.44-1.67c1.29-4.03,4.79-4.04,7.95-4.67c4.99-0.99,10.03-1.73,14.98-2.87c1.82-0.42,3.39-1.79,5.18-2.46
			c2.32-0.86,4.71-1.64,7.14-2.12c4.96-0.97,8.2-3.9,10.22-8.37c0.24-0.54,0.56-1.21,0.44-1.72c-1.36-5.41,2.31-8.99,4.63-13.08
			c0.87-1.54,1.42-3.26,2.3-4.79c0.86-1.51,1.88-2.96,2.96-4.32c1.01-1.26,2.75-2.19,3.22-3.59c1.28-3.78,4.51-5.65,7.15-8.06
			c2.54-2.31,5.75-2.35,8.94-1.66c4.95,1.07,9.39,2.78,11.86,7.83c0.94,1.93,2.95,3.32,4.33,5.07c4.25,5.37,8.44,10.78,12.62,16.21
			c0.35,0.46,0.63,1.07,0.7,1.64c0.61,5.02,4.08,8.01,7.38,11.37c2.59,2.63,6.25,2.01,8.83,4.12c0.55,0.44,1.54,0.33,2.08,0.78
			c5.81,4.82,12.9,7.43,19.3,11.22c0.71,0.42,1.21,1.28,1.66,2.03c1.51,2.54,2.95,5.11,4.42,7.68c1.21,2.12-0.07,5.58-2.69,6.75
			c-2.98,1.33-6.06,2.46-9.09,3.67c-0.69,0.28-1.56,0.38-2.06,0.86c-4.68,4.51-11.21,4.61-16.77,6.99
			c-1.98,0.84-4.42,0.52-6.59,0.99C619.24,590.22,616.44,591.11,614.57,591.63 M584.35,577.09c2.81,0.07,4.25-1.32,5.21-3.34
			c2.44-5.12-1.16-14.43-6.5-16.36c-3.7-1.34-5.42-0.53-6.79,2.82c-1.83,4.47-1.26,8.45,1.19,12.71
			C579.27,576.07,581.91,576.42,584.35,577.09"/>
		<path d="M739.96,644.66c-3.39-0.37-6.97-0.92-10.42-2.49c-2.39-1.08-4.95-1.98-7.52-2.42c-3.02-0.52-5.73-1.42-8-3.53
			c-2.51-2.34-5.09-4.61-7.56-7c-3.48-3.36-3.86-7.67-3.07-12.05c0.26-1.43,2.08-2.52,2.58-3.97c0.95-2.74,2.75-4.5,5.14-5.91
			c2.3-1.35,4.49-2.88,6.81-4.18c2.7-1.52,5.93-2.27,7.37-5.5c0.23-0.51,0.82-1.19,1.27-1.21c3.69-0.18,5.66-4.31,9.53-4.1
			c0.61,0.03,1.35-0.51,1.87-0.97c5.97-5.3,12.6-9.41,20.39-11.53c3.73-1.01,6.45-3.46,8.46-6.73c0.99-1.61,2.07-2.89,4.29-2.59
			c0.81,0.11,1.76-0.26,2.54-0.64c3.07-1.48,5.97-3.52,9.19-4.44c3.16-0.9,5.79-2.23,8.1-4.47c0.84-0.81,1.96-1.63,3.06-1.81
			c3.63-0.59,6.28-2.84,8.84-5.07c1.78-1.56,3.68-2.39,5.9-2.97c2.12-0.56,4.19-1.39,6.2-2.3c4.71-2.12,9.16-1.07,13.04,2.59
			c2.43,2.3,4.46,4.77,5.98,7.71c0.41,0.8,0.91,1.58,1.14,2.44c0.84,3.14,1.54,6.31,2.37,9.46c1.91,7.3-1.48,12.61-6.8,16.85
			c-5.12,4.08-10.64,7.65-15.94,11.5c-1.2,0.88-2.43,1.86-3.28,3.06c-2.88,4.09-7.12,5.83-11.67,6.99c-3.6,0.91-6.81,2.12-8.65,5.77
			c-0.62,1.23-2.18,1.98-3.24,3.01c-1.14,1.1-2.53,2.11-3.23,3.47c-1.09,2.12-2.67,3.43-4.88,3.42c-5.52,0-9.24,3.81-13.69,6.07
			c-0.26,0.13-0.65,0.33-0.69,0.55c-0.56,3.45-3.64,4.87-5.58,7.23c-1.58,1.93-3.17,2.78-5.62,3.04c-3.2,0.34-6.32,1.38-9.49,2.04
			C743.26,644.26,741.78,644.4,739.96,644.66"/>
		<path d="M771.9,282.83c-1.55-1.09-2.74-1.95-3.95-2.77c-0.49-0.33-1.42-0.53-1.48-0.9c-0.76-4.84-5.98-5.44-8.32-8.78
			c-0.59-0.85-1.91-1.5-2.98-1.66c-2.81-0.42-5.67-0.44-8.49-0.76c-1.47-0.17-2.98-0.44-4.33-0.99c-3.81-1.55-6.43-3.98-7.09-8.45
			c-0.33-2.25-1.94-4.32-3-6.47c-0.71-1.44-1.01-2.66,0.4-4.04c0.71-0.7,1.14-2.16,0.98-3.17c-0.98-6.41,0.37-10.58,5.46-14.09
			c3.83-2.64,6.11-6.22,6.89-10.55c0.9-4.92,3.7-7.54,8.22-8.96c4.37-1.37,8.63-3.1,13.03-4.37c4.44-1.29,8.99-2.23,13.49-3.3
			c0.43-0.1,0.95,0.07,1.34-0.1c8.25-3.61,14.21,1.47,20.37,5.48c0.89,0.58,1.4,2.23,1.5,3.43c0.21,2.58,1.5,4.38,3.11,6.26
			c2.1,2.47,4.15,5.11,5.56,7.99c1.16,2.37,2.16,4.2,4.76,5.48c2.9,1.43,5.41,3.78,4.63,7.89c-0.19,1.02,0.6,2.59,1.45,3.36
			c1.8,1.66,2.61,3.46,2.62,5.91c0.01,2.38,0.63,4.75,0.74,7.13c0.07,1.45-0.04,3.03-0.56,4.36c-0.98,2.49-2.64,4.73-3.45,7.25
			c-1.8,5.65-6.58,8.55-10.89,11.53c-3.33,2.3-7.62,3.53-11.67,4.35c-2.61,0.53-5.71-0.06-8.3-0.97
			C785.9,280.79,777.78,280.52,771.9,282.83"/>
		<path d="M571.11,375.38c1.1-3.83,2.24-7.8,3.41-11.76c0.25-0.86,0.56-1.73,1-2.5c2.64-4.62,5.33-9.22,8.01-13.82
			c0.98-1.68,1.93-3.38,2.92-5.06c0.46-0.77,0.84-1.68,1.51-2.21c2.54-2.05,4.4-4.49,6.24-7.26c1.98-2.97,3.26-5.95,4.12-9.24
			c0.59-2.27,1.57-4.01,3.55-5.48c2.61-1.94,4.91-4.33,7.24-6.62c2.38-2.34,4.89-4.11,8.39-4.73c2.7-0.48,5.25-2.02,7.79-3.24
			c3.77-1.81,7.92-1.77,11.41-0.43c4.77,1.83,8.32,5.48,8.67,11.22c0.14,2.23,0.36,4.49,0.86,6.67c0.65,2.82,1.41,5.56-0.15,8.3
			c-0.07,0.12-0.11,0.3-0.09,0.44c0.95,7.48-2.39,14.3-3.5,21.46c-0.65,4.15-3.1,8.02-4.73,12.02c-1.81,4.42-3.73,8.8-4.07,13.66
			c-0.23,3.36-1.4,6.32-3.47,9.04c-0.8,1.05-1.04,2.7-1.12,4.1c-0.18,3.08-0.66,5.93-3.07,8.17c-0.63,0.59-1.31,1.42-1.43,2.22
			c-0.85,5.9-5.52,7.26-10.13,8.7c-0.71,0.22-1.52,0.14-2.21,0.39c-8.42,3.03-15.04-0.73-21.46-5.53c-2.62-1.96-5.37-3.62-7.08-6.63
			c-0.7-1.23-2.32-1.93-1.81-3.75c0.04-0.13,0.04-0.35-0.05-0.43c-3.55-3.48-3.36-8.86-6.41-12.59
			C574.12,378.89,572.77,377.35,571.11,375.38"/>
		<path d="M333.68,548.81c1.58-3.48,3.23-7.11,5.03-11.06c2.91,0.63,5.77-0.22,8.55-1.81c1.1-0.63,2.61-0.62,3.94-0.72
			c3.42-0.27,6.88-0.84,10.26-0.56c8.79,0.74,16.9,2.56,22.62,10.7c2.9,4.13,4.81,7.66,3.4,12.6c-0.23,0.81-0.01,1.81,0.23,2.66
			c0.55,1.96-0.2,3.4-1.35,4.95c-1.6,2.14-2.75,4.61-4.34,6.75c-1.03,1.39-2.33,2.74-3.8,3.62c-3.94,2.38-8,4.59-12.09,6.7
			c-1.64,0.85-2.47,1.88-2.71,3.76c-0.18,1.4-0.81,2.89-1.66,4.02c-3.66,4.84-7.74,9.27-14.23,10.07c-2.5,0.31-5.07,0.4-7.57,0.19
			c-2.06-0.17-4.09-0.85-6.1-1.43c-1.28-0.37-2.95-0.64-3.65-1.56c-1.39-1.83-2.73-3.44-5.12-3.8c-1.96-4.02-6-5.99-9.52-7.53
			c-4.39-1.92-6.15-7.12-11.12-7.83c-0.26-0.04-0.62-0.26-0.72-0.49c-1.51-3.72-5.08-5.19-7.76-7.65c-2.6-2.39-5.93-5.01-6.56-9.23
			c-0.29-1.96-0.65-3.71,0.14-5.69c0.58-1.45,0.38-3.2,0.5-4.83c0.08-1.18-0.14-2.44,0.21-3.52c0.63-1.94,1.1-4.72,2.52-5.46
			c3.64-1.88,7.33-3.79,11.78-3.9c5.98-0.15,11.47,1.63,16.98,3.29c2.61,0.78,5.02,2.55,6.58,5.1
			C329.28,548.05,331,549,333.68,548.81"/>
		<path d="M743.56,567.55c-4,0.44-7.15-1.2-10.19-3.16c-2.14-1.38-4.33-2.69-6.41-4.15c-4.66-3.28-7.7-7.94-10.31-12.83
			c-0.77-1.43-1.05-3.69-0.48-5.15c1.17-3.01,3.01-5.78,4.69-8.58c1.67-2.79,3.4-5.57,6.87-6.51c0.57-0.15,1.1-0.75,1.62-0.72
			c6.37,0.37,9.71-5.09,14.62-7.52c1.21-0.59,2.43-1.16,3.66-1.69c2.44-1.06,4.9-2.08,7.35-3.13c0.27-0.12,0.5-0.42,0.77-0.45
			c4.43-0.5,6.95-4.23,10.51-6.2c1.92-1.07,3.44-2.92,6.09-2.27c0.63,0.16,1.87-0.56,2.25-1.21c1.93-3.23,5.32-3.48,8.39-4.43
			c0.14-0.04,0.33,0.02,0.44-0.05c5.64-3.56,9.88,0.28,14.36,2.74c1.55,0.85,2.97,1.94,4.53,2.77c2.53,1.33,4.22,3.03,4.47,6.16
			c0.23,2.94,1.09,5.84,1.62,8.76c0.78,4.28-1.15,8.83-4.93,11.08c-5.5,3.27-10.53,7.14-15.19,11.51c-0.4,0.38-1.02,0.58-1.56,0.76
			c-3.83,1.29-6.92,3.71-9.9,6.33c-4.13,3.62-8.07,7.49-12.48,10.74c-2.43,1.79-6.18,1.93-8.38,3.89
			C752.13,567.66,747.8,567.4,743.56,567.55"/>
	</g>
</g>
</svg>
