<?xml version="1.0" encoding="utf-8"?>
<!-- Generator: Adobe Illustrator 23.1.0, SVG Export Plug-In . SVG Version: 6.00 Build 0)  -->
<svg version="1.1" xmlns="http://www.w3.org/2000/svg" xmlns:xlink="http://www.w3.org/1999/xlink" x="0px" y="0px"
	 viewBox="0 0 1107.17 800" style="enable-background:new 0 0 1107.17 800;" xml:space="preserve">
<style type="text/css">
	.st0{display:none;}
	.st1{display:inline;fill:#989898;}
	.st2{fill:#060001;}
	.st3{fill:#040000;}
	.st4{clip-path:url(#SVGID_2_);fill:url(#SVGID_3_);}
	.st5{fill:#939494;}
	.st6{fill:none;stroke:#231815;stroke-width:2.254;stroke-linecap:round;stroke-miterlimit:10;}
	.st7{fill:none;stroke:#231815;stroke-width:1.042;stroke-linecap:round;stroke-miterlimit:10;}
	.st8{fill:#C8C9CA;}
</style>
<g id="BG" class="st0">
	<rect x="-2815.87" y="-918.18" class="st1" width="5423.46" height="2640.54"/>
</g>
<g id="圖層_2">
	<g>
		<g>
			<path d="M384.09,321.78c-10.45,0.1-20.88,0.2-31.32,0.3c-12.93,0.12-14.48,20.15-1.56,20.02c10.43-0.1,20.88-0.2,31.32-0.3
				C395.45,341.68,397.02,321.66,384.09,321.78z"/>
			<path d="M391.19,230.55c-10.44,0.1-20.88,0.2-31.32,0.3c-12.92,0.13-14.48,20.14-1.56,20.02c10.44-0.1,20.88-0.2,31.32-0.3
				C402.56,250.45,404.11,230.43,391.19,230.55z"/>
			<path d="M157.27,230.55c-10.45,0.1-20.88,0.2-31.32,0.3c-12.93,0.13-14.48,20.14-1.55,20.02c10.44-0.1,20.88-0.2,31.32-0.3
				C168.63,250.45,170.19,230.43,157.27,230.55z"/>
			<path d="M610.42,495.42c-0.51-0.72-1.22-1.36-2.25-1.84c-25.74-12.04-47.15-30.5-57.92-57.3c-10.29-25.6-8.5-54.23-1.95-80.48
				c8.09-32.41,15.76-63.25,16.52-96.91c0.75-33.14-4.98-66.49-17.34-97.25c-21.37-53.28-65.86-94.61-117.85-117.58
				C390.69,26.85,344.08,20.99,302,24.43c-42.07,3.44-84.41,14.09-121.76,34.03c-42.66,22.78-83.7,53.39-112.02,93.06
				c-27.16,38.01-41.5,84.39-45.58,130.62c-1.27,14.36-1.55,28.79-1.22,43.2c0.48,21.71,0.64,42.36,6.86,63.39
				c5.91,19.94,14.37,39.57,25.99,56.88c6.24,9.32,13.5,18.34,21.41,26.33c45.15,45.62,120.17,50.91,179.93,40.23
				c32.88-5.88,63.51-19.41,95.93-26.82c33.41-7.65,69.68-8.59,103.75-5.66c35.76,3.08,67.25,15.26,100.63,27.11
				c12.23,4.34,58.53,19,58.79-5.68C614.72,498.43,612.86,496.15,610.42,495.42z M208.22,240.07c-1.54,19.58-13.39,36.76-29.8,46.28
				c14.95,9.22,24.15,26.2,22.63,45.78c-2.31,29.65-28.23,53.9-57.89,54.19c0,0-47,0.75-49.96,0.24v-0.02
				c-16.57-1.77-28.45-15.55-27.14-32.44l10.4-133.44c1.29-16.56,14.83-30.36,31.27-32.87l0.01-0.04c0.42-0.08,1.5-0.19,1.58-0.2
				c2.69-0.3,49.37-0.64,49.37-0.64C188.35,186.63,210.52,210.43,208.22,240.07z M267.03,363.5c-0.91,11.8-11.24,21.47-23.06,21.58
				c-11.82,0.12-20.65-9.37-19.73-21.18c0.92-11.8,11.24-21.47,23.06-21.59C259.11,342.21,267.96,351.69,267.03,363.5z
				 M276.44,259.09l-3.37,43.28c-0.98,12.51-11.92,22.74-24.44,22.87c-12.53,0.12-21.89-9.92-20.91-22.44l3.37-43.27
				c0.98-12.51,11.92-22.75,24.44-22.87C268.05,236.54,277.42,246.58,276.44,259.09z M442.14,240.07
				c-1.53,19.58-13.39,36.76-29.81,46.28c14.94,9.22,24.15,26.2,22.63,45.78c-2.31,29.65-28.22,53.9-57.89,54.19
				c0,0-46.99,0.75-49.96,0.24l0.01-0.02c-16.57-1.77-28.45-15.55-27.15-32.44l10.4-133.44c1.3-16.56,14.84-30.36,31.27-32.87
				l0.01-0.04c0.42-0.08,1.5-0.19,1.59-0.2c2.69-0.3,49.38-0.64,49.38-0.64C422.28,186.63,444.44,210.43,442.14,240.07z
				 M500.96,363.5c-0.91,11.8-11.25,21.47-23.07,21.58c-11.81,0.12-20.65-9.37-19.73-21.18c0.92-11.8,11.25-21.47,23.07-21.59
				C493.04,342.21,501.87,351.69,500.96,363.5z M510.37,259.09l-3.37,43.28c-0.98,12.51-11.92,22.74-24.43,22.87
				c-12.53,0.12-21.9-9.92-20.92-22.44l3.37-43.27c0.98-12.51,11.92-22.75,24.45-22.87C501.98,236.54,511.33,246.58,510.37,259.09z"
				/>
			<path d="M150.17,321.78c-10.44,0.1-20.88,0.2-31.33,0.3c-12.92,0.12-14.47,20.15-1.55,20.02c10.44-0.1,20.88-0.2,31.32-0.3
				C161.53,341.68,163.09,321.66,150.17,321.78z"/>
		</g>
		<g>
			<path d="M826.7,337.99c-0.13,0-0.21,0.02-0.34,0.02c-0.1,0-0.21-0.02-0.32-0.02H665.91c-0.34,0-0.67,0.03-1,0.05
				c-0.33-0.02-0.65-0.05-0.99-0.05c-9.08,0-17.09,7.64-17.91,17.05l-2.36,26.86c-0.81,9.43,5.86,17.06,14.92,17.06
				c9.08,0,17.09-7.63,17.93-17.06l0.79-9.13h129.96l-0.8,9.13c-0.83,9.43,5.85,17.06,14.92,17.06c9.06,0,17.08-7.63,17.9-17.06
				l2.36-26.86C842.44,345.62,835.77,337.99,826.7,337.99z"/>
			<path d="M671.44,329.1c5.4,5.94,15.05,5.94,21.52,0l0.45-0.41l0.38,0.41c5.43,5.94,15.05,5.94,21.52,0
				c6.45-5.95,7.31-15.57,1.87-21.53l-5.19-5.69l0.76-8.83l0.11-1.14l1.13-12.82l0.04-0.39l1.22-13.96c0.06-0.7,0.06-1.37,0.02-2.05
				l1.57-17.93h-30.63l-4.83,55.4l-8.07,7.41C666.86,313.52,666.01,323.15,671.44,329.1z"/>
			<path d="M660.7,297.46c7.5,0,14.12-6.08,14.79-13.58l0.9-10.42c0.65-7.51-4.89-13.58-12.4-13.58s-14.11,6.08-14.77,13.58
				l-0.91,10.42C647.64,291.38,653.2,297.46,660.7,297.46z"/>
			<path d="M735.49,297.46c7.5,0,14.12-6.08,14.78-13.58l0.9-10.42c0.67-7.51-4.88-13.58-12.4-13.58c-7.5,0-14.11,6.08-14.77,13.58
				l-0.91,10.42C722.43,291.38,727.99,297.46,735.49,297.46z"/>
			<path d="M781.42,329.1c5.42,5.94,15.06,5.94,21.52,0l0.46-0.41l0.36,0.41c5.43,5.94,15.06,5.94,21.53,0
				c6.46-5.95,7.3-15.57,1.9-21.53l-5.21-5.69l0.34-3.94l0.45-4.88l0.05-0.67l4.17-47.62h-31.09l-4.86,55.7l-7.72,7.1
				C776.84,313.52,776,323.15,781.42,329.1z"/>
			<path d="M770.68,297.46c7.5,0,14.12-6.08,14.79-13.58l0.89-10.42c0.67-7.51-4.87-13.58-12.38-13.58
				c-7.52,0-14.13,6.08-14.79,13.58l-0.91,10.42C757.63,291.38,763.18,297.46,770.68,297.46z"/>
			<path d="M848.78,259.87c-7.51,0-14.14,6.08-14.79,13.58l-0.91,10.42c-0.65,7.51,4.92,13.58,12.41,13.58
				c7.5,0,14.11-6.08,14.77-13.58l0.91-10.42C861.83,265.94,856.27,259.87,848.78,259.87z"/>
			<path d="M776.03,379.37h-68.69c-13.9,0-26.06,10.12-27.15,22.62c-1.09,12.49,9.28,22.62,23.19,22.62h16.73
				c-0.19,0.67-0.33,1.34-0.39,2.04l-1.04,11.94c-0.05,0.45-0.05,0.89-0.03,1.34h-16.6c-13.91,0-26.06,10.12-27.15,22.62
				c-1.09,12.49,9.29,22.62,23.2,22.62h68.7c13.88,0,26.04-10.13,27.13-22.62c1.09-12.5-9.29-22.62-23.19-22.62h-16.61
				c0.09-0.45,0.16-0.89,0.2-1.34l1.06-11.94c0.05-0.7,0.03-1.38-0.03-2.04h16.71c13.92,0,26.06-10.13,27.15-22.62
				C800.31,389.49,789.92,379.37,776.03,379.37z M767.41,456.96c2.71,0,4.74,2.2,4.5,4.93c-0.24,2.72-2.63,4.93-5.36,4.93h-64.21
				c-2.71,0-4.73-2.21-4.49-4.93c0.23-2.73,2.64-4.93,5.36-4.93H767.41z M771.74,407.44h-64.2c-2.71,0-4.73-2.21-4.5-4.93
				c0.24-2.73,2.65-4.93,5.37-4.93h64.21c2.71,0,4.72,2.2,4.49,4.93C776.88,405.23,774.46,407.44,771.74,407.44z"/>
			<path d="M1066.55,321.33c8.39,0,15.67-5.73,16.27-12.8c0.62-7.08-5.66-12.81-14.04-12.81H997.7l0.74-8.46
				c0.01-0.15,0-0.29,0-0.43h71.12c8.38,0,15.68-5.74,16.28-12.8c0.63-7.07-5.66-12.81-14.04-12.81h-45.83l0.63-7.18
				c0.72-8.4-5.46-15.21-13.88-15.21c-8.4,0-15.81,6.82-16.54,15.21l-0.64,7.18h-29.11l0.63-7.18c0.74-8.4-5.47-15.21-13.88-15.21
				c-8.4,0-15.82,6.82-16.56,15.21l-0.63,7.18h-45.81c-8.38,0-15.68,5.74-16.3,12.81c-0.62,7.07,5.68,12.8,14.05,12.8h70.64
				c-0.01,0.15-0.06,0.29-0.07,0.43l-0.74,8.46h-70.61c-8.37,0-15.67,5.73-16.29,12.81c-0.61,7.08,5.68,12.8,14.05,12.8h70.62
				l-0.79,8.89h-70.61c-8.37,0-15.67,5.74-16.29,12.81c-0.62,7.08,5.68,12.81,14.04,12.81h34.65l-39.04,28.42
				c-7.88,5.72-8.69,15-1.84,20.72c6.87,5.72,18.81,5.72,26.68,0l25.99-18.93c28.73,0,57.44,0,86.17,0l22.68,18.93
				c6.88,5.72,18.8,5.72,26.66,0c7.88-5.73,8.68-15,1.82-20.72l-34.09-28.42h31.96c8.38,0,15.67-5.72,16.28-12.81
				c0.6-7.07-5.67-12.81-14.05-12.81h-71.07l0.78-8.89H1066.55z M954.69,366.88l15.15-11.03h8.42l13.23,11.03
				C979.23,366.88,966.96,366.88,954.69,366.88z"/>
			<path d="M1017.49,410.98c0.9-10.98-7.63-19.9-19.05-19.9h-56.43c-11.42,0-21.4,8.92-22.3,19.9c-0.06,0.75-0.07,1.47-0.05,2.19
				c-0.01,0.1-0.04,0.18-0.04,0.28l-4.62,52.66c-1.2,2.83-1.44,6.02-0.77,8.9l-0.03,0.32h0.1c1.36,5.26,5.82,9.35,13.02,8.1
				c19.07-3.3,38.12-6.59,57.19-9.89c1.35,2.16,2.67,4.32,4.02,6.49c7.6,12.32,26.13,0.18,22.99-12.27
				c10.38-6.71,7.03-25.68-7.42-23.18c-1.85,0.32-3.68,0.64-5.54,0.97c-3-4.89-6.02-9.77-9.03-14.66h5.67
				C1006.61,430.88,1016.59,421.97,1017.49,410.98z M949.39,401.1h43.28c1.88,0,3.28,1.63,3.1,3.65c-0.16,2.01-1.81,3.64-3.7,3.64
				H948.8c-1.88,0-3.27-1.63-3.1-3.64C945.86,402.73,947.52,401.1,949.39,401.1z M949.95,453.94l2.01-23.06h6.29
				c1.22,1.98,2.44,3.96,3.67,5.94c0.16,0.33,0.33,0.67,0.54,0.99c2.59,4.2,5.18,8.41,7.78,12.62
				C963.49,451.59,956.71,452.76,949.95,453.94z M991.04,420.87h-43.26c-1.89,0-3.27-1.64-3.1-3.65c0.15-2.01,1.82-3.66,3.69-3.66
				h43.27c1.9,0,3.28,1.65,3.12,3.66C994.6,419.23,992.95,420.87,991.04,420.87z"/>
		</g>
		<path d="M743.64,638.06c-2.77-2.77-5.54-5.53-8.32-8.31c0.32-0.84,0.65-1.69,0.93-2.54c1.01-2.18,1.64-4.71,1.73-7.6
			c0.39-2.72,0.23-5.11-0.32-7.21c-2.3-18.87-16.25-31.92-36.37-33.01c-22.56-1.22-40.81,19.35-43.76,40.22
			c-3.21,22.66,15.93,39.12,36.7,40.25c5.02,0.27,9.81-0.58,14.29-2.22c2.2,2.2,4.43,4.4,6.64,6.61c6.84,6.83,18.18,7.37,26.2,0
			C748.88,657.34,750.5,644.89,743.64,638.06z M695.69,636.02c-9.21,0-16.02-7.46-15.21-16.67c0.8-9.21,8.92-16.68,18.12-16.68
			c9.22,0,16.04,7.47,15.22,16.68C713.01,628.55,704.9,636.02,695.69,636.02z"/>
		<g>
			<path d="M270.75,724.97c-10.33,0-19.42,8.11-20.3,18.12l-1.33,15.31c-0.88,10,6.79,18.11,17.13,18.11
				c10.34,0,19.45-8.12,20.3-18.11l1.35-15.31C288.78,733.07,281.1,724.97,270.75,724.97z"/>
			<path d="M798.13,556.56c0.95-10.92-8.47-19.75-21.04-19.75c-0.16,0-0.31,0.01-0.46,0.01c-0.15,0-0.3-0.01-0.46-0.01h-89.88
				l0.72-8.4c0.87-9.74-6.34-17.64-16.09-17.64c-0.58,0-1.14,0.02-1.73,0.09c-0.56-0.07-1.14-0.09-1.71-0.09
				c-0.34,0-0.66,0.02-0.99,0.05c-0.32-0.03-0.65-0.05-1-0.05c-0.58,0-1.15,0.02-1.74,0.09c-0.57-0.07-1.12-0.09-1.72-0.09
				c-9.74,0-18.32,7.9-19.17,17.64l-0.74,8.4h-88.05c-0.47,0-0.93,0.03-1.38,0.06c-0.47-0.03-0.91-0.06-1.38-0.06
				c-12.57,0-23.54,8.83-24.5,19.75l-2.72,31.13c-0.95,10.91,8.46,19.77,21.04,19.77c12.58,0,23.53-8.85,24.5-19.77l0.92-10.57
				h180.24l-0.93,10.57c-0.96,10.91,8.46,19.77,21.02,19.77c12.59,0,23.57-8.85,24.52-19.77L798.13,556.56z"/>
			<path d="M593.83,739.46l-9.2,8.46c-6.01,5.53-6.8,14.5-1.75,20.04c5.05,5.51,14,5.51,20.01,0l9.21-8.47
				c6.03-5.53,6.8-14.5,1.74-20.03C608.81,733.94,599.85,733.94,593.83,739.46z"/>
			<path d="M701,739.46c-5.05-5.52-14.02-5.52-20.03,0c-6.01,5.53-6.8,14.5-1.76,20.03l7.72,8.47c5.05,5.51,14.01,5.51,20.03,0
				c6-5.54,6.8-14.51,1.74-20.04L701,739.46z"/>
			<path d="M603.12,678.92c-0.74,8.45,5.51,15.33,13.97,15.33h66.84c8.45,0,15.91-6.88,16.66-15.33
				c0.74-8.46-5.54-15.32-13.97-15.32h-66.84C611.3,663.6,603.84,670.46,603.12,678.92z"/>
			<path d="M697.28,715.91c0.75-8.45-5.53-15.31-13.99-15.31h-66.84c-8.45,0-15.89,6.86-16.65,15.31
				c-0.73,8.46,5.53,15.34,13.98,15.34h18.1l-1.92,21.99l-0.61,6.92c-0.79,9.02,5.43,16.36,13.91,16.36
				c8.45,0,15.94-7.34,16.74-16.36l0.6-6.92l1.93-21.99h18.09C689.07,731.25,696.52,724.37,697.28,715.91z"/>
			<path d="M594.98,661.96l45.62-33.06c10.77-7.81,13.91-22.34,6.99-32.44c-6.95-10.1-21.31-11.97-32.08-4.14l-45.64,33.07
				c-10.78,7.8-13.9,22.33-6.98,32.45C569.82,667.91,584.19,669.79,594.98,661.96z M610.78,603.73c3.93-2.2,7.84-0.64,9.92,2.64
				c3.19,5.04,6.4,10.12,9.57,15.16c2.09,3.29-0.14,8.25-3.54,10.15c-3.93,2.18-7.83,0.6-9.92-2.67
				c-3.18-5.05-6.39-10.11-9.58-15.16C605.17,610.59,607.39,605.62,610.78,603.73z M588.74,618.88c3.94-2.18,7.84-0.6,9.91,2.66
				c3.19,5.05,6.39,10.11,9.6,15.17c2.07,3.27-0.16,8.25-3.55,10.13c-3.93,2.19-7.84,0.6-9.91-2.67c-3.2-5.05-6.39-10.11-9.58-15.15
				C583.12,625.73,585.32,620.77,588.74,618.88z"/>
			<path d="M368.56,660.21c-7,0-13.33,4.18-16.28,10.1h-37.02l1.26-2.48l1.74-3.48l2.92-5.8l7.01-13.93l4.66-9.26
				c0.32-0.65,0.6-1.3,0.86-1.95h9.2c12.09,0,22.72-9.49,23.75-21.19c1.03-11.7-7.94-21.16-20.03-21.16h-39.99l1.55-3.09l1.74-3.46
				l2.92-5.8l7.01-13.93l4.66-9.27c5.38-10.73,1.11-23.14-9.59-27.75c-10.67-4.6-23.7,0.35-29.08,11.07l-4.66,9.27l-7.01,13.93
				l-2.92,5.8l-1.74,3.45l-2.91,5.8l-7.01,13.93l-4.66,9.26c-1.6,3.19-2.33,6.54-2.31,9.78c-0.13,0.71-0.24,1.44-0.3,2.16
				c-1.03,11.7,7.95,21.19,20.04,21.19h14.4l-4.25,8.45l-2.92,5.8l-1.74,3.46l-2.92,5.81l-6.99,13.93l-4.67,9.26
				c-0.09,0.17-0.15,0.35-0.23,0.52c-2.25,3.17-3.72,6.87-4.07,10.84c-1.02,11.69,7.95,21.18,20.03,21.18h70.28
				c2.31,5.12,7.53,8.63,13.91,8.63c9.14,0,17.19-7.17,17.95-16.01l2.55-29.08C384.46,667.37,377.68,660.21,368.56,660.21z"/>
			<path d="M315.55,724.97c-10.33,0-19.43,8.11-20.31,18.12l-1.33,15.31c-0.87,10,6.81,18.11,17.13,18.11
				c10.35,0,19.43-8.12,20.33-18.11l1.33-15.31C333.57,733.07,325.9,724.97,315.55,724.97z"/>
			<path d="M360.37,724.97c-10.35,0-19.44,8.11-20.33,18.12l-1.33,15.31c-0.86,10,6.8,18.11,17.14,18.11
				c10.34,0,19.44-8.12,20.31-18.11l1.35-15.31C378.39,733.07,370.71,724.97,360.37,724.97z"/>
			<path d="M490.17,539.55c-11.99,0-22.53,9.41-23.57,21.03l-0.85,10.03l-1.33,15.07l-0.56,6.28l-0.34,3.76l-0.53,6.28l-1.32,15.07
				l-0.4,4.49h-38.41l3.97-45.51c1.01-11.63-7.88-21.02-19.87-21.02c-12.01,0-22.56,9.4-23.57,21.02l-5.83,66.54
				c-1.01,11.62,7.88,21.01,19.89,21.01h60.15l-0.27,3.15l-0.34,3.75l-0.53,6.29l-1.04,11.94c-0.01,0.07-0.01,0.15-0.03,0.23
				l-0.46,5.5l-0.68,7.44c-0.01,0.13,0,0.26-0.01,0.38l-1.05,11.79l-0.55,6.3l-0.32,3.74l-0.55,6.28l-1.33,15.08l-0.87,10.03
				c-1.01,11.61,7.9,21.02,19.89,21.02c12,0,22.55-9.42,23.56-21.02l0.88-10.03l1.32-15.08l0.55-6.28l0.34-3.74l0.54-6.3l1.33-15.08
				l0.87-10.03c0-0.01,0-0.03,0-0.05l1.07-12.12l0.54-6.29l0.33-3.75l0.56-6.28l1.31-15.07l0.87-10.03c0.13-1.43,0.1-2.82-0.06-4.15
				c0.39-1.33,0.66-2.71,0.78-4.11l0.89-10.04l1.32-15.07l0.55-6.28l0.33-3.76l0.56-6.28l1.31-15.07l0.88-10.03
				C511.09,548.97,502.18,539.55,490.17,539.55z"/>
			<path d="M1039.52,714.34l0.13-0.11l-8.12-9.55l-0.12,0.1l-15.27-17.93c1.44-9.9,2.07-19.81,1.9-29.62l14.15-8.45
				c0.76-0.45,1.43-0.95,2.11-1.47l12.23-7.28c8.71-5.19,12.13-16.07,7.68-24.32c-4.47-8.25-15.12-10.73-23.83-5.56l-5.65,3.38
				c-0.29,0.14-0.57,0.29-0.85,0.45l-10.56,6.3c-3.28-13.42-8.26-26.3-15-38.29h26.74c10.4,0,19.56-8.43,20.48-18.83
				c0.91-10.4-6.79-18.83-17.19-18.83h-4.17l0.8-9.19c0.73-8.33-5.43-15.09-13.78-15.09c-8.33,0-15.68,6.76-16.4,15.09l-0.8,9.19
				h-18.04l0.8-9.19c0.73-8.33-5.44-15.09-13.76-15.09c-8.34,0-15.69,6.76-16.42,15.09l-0.8,9.19h-5.75
				c-10.4,0-19.56,8.43-20.46,18.83c-0.91,10.4,6.78,18.83,17.16,18.83h13.56c0.63,1.21,1.41,2.4,2.42,3.55
				c1.1,1.24,2.12,2.53,3.14,3.83c-11.33,6.71-28.11,16.2-39.28,22.84c-17.05,10.14-4.43,35.78,12.71,25.6
				c13.56-8.06,27.12-16.12,40.68-24.18c1.9,4.32,3.67,8.85,5.36,13.6c-17.21,10.23-34.44,20.45-51.65,30.68
				c-17.03,10.13-4.4,35.78,12.73,25.59c15.08-8.95,30.14-17.9,45.2-26.85c0.32,4.35,0.41,8.7,0.25,13.06
				c-0.77,0.32-1.55,0.69-2.34,1.16c-17.39,10.34-34.77,20.66-52.17,31.01c-17.04,10.11-4.42,35.76,12.73,25.6
				c11.66-6.93,23.31-13.85,34.96-20.79c-2.84,8.7-6.51,17.22-10.88,25.49h-11.42c-11.89,0-22.39,9.64-23.42,21.54
				c-1.04,11.9,7.77,21.54,19.66,21.54h18.21c2.42,0,4.76-0.42,6.98-1.15c4.62-0.85,9.18-3.71,12.69-9.18
				c8.05-12.55,14.57-25.79,19.54-39.38l17.9,21.04c5.34,6.26,15.16,6.57,21.95,0.69c6.78-5.88,7.93-15.74,2.61-21.99
				L1039.52,714.34z"/>
			<path d="M869.76,537.77c-5.6,0-11.04,1.17-16.07,3.25c-0.03-7.72-7.95-13.83-18.35-13.83c-10.86,0-20.22,6.65-20.95,14.85
				l-5.59,63.91l-0.67,7.81l-1.75,19.94l-3.85,43.97l-1.07,12.26l-1.34,15.49l-4.92,56.23c-0.72,8.21,7.49,14.86,18.34,14.86
				c10.84,0,20.22-6.65,20.93-14.86l4.92-56.23l1.35-15.49l0.14-1.62c4.64,2.07,9.86,3.22,15.45,3.22
				c22.13,0,41.63-17.94,43.56-40.06c1.46-16.52-7.29-30.68-21-36.82c14.79-6.15,26.02-20.31,27.46-36.81
				C908.27,555.72,891.9,537.77,869.76,537.77z M858.68,664.68c-7.3,0-12.72-5.92-12.08-13.21c0.65-7.31,7.09-13.23,14.39-13.23
				c7.3,0,12.7,5.93,12.05,13.23C872.41,658.76,865.98,664.68,858.68,664.68z M865.12,591.07c-7.31,0-12.71-5.92-12.08-13.23
				c0.65-7.3,7.09-13.21,14.38-13.21c7.3,0,12.7,5.91,12.06,13.21C878.85,585.15,872.41,591.07,865.12,591.07z"/>
		</g>
	</g>
</g>
</svg>
