<?xml version="1.0" encoding="utf-8"?>
<!-- Generator: Adobe Illustrator 23.1.0, SVG Export Plug-In . SVG Version: 6.00 Build 0)  -->
<svg version="1.1" xmlns="http://www.w3.org/2000/svg" xmlns:xlink="http://www.w3.org/1999/xlink" x="0px" y="0px"
	 viewBox="0 0 1078.68 800" style="enable-background:new 0 0 1078.68 800;" xml:space="preserve">
<style type="text/css">
	.st0{display:none;}
	.st1{display:inline;fill:#989898;}
	.st2{fill:#060001;}
	.st3{fill:#040000;}
	.st4{clip-path:url(#SVGID_2_);fill:url(#SVGID_3_);}
	.st5{fill:#939494;}
	.st6{fill:none;stroke:#231815;stroke-width:2.254;stroke-linecap:round;stroke-miterlimit:10;}
	.st7{fill:none;stroke:#231815;stroke-width:1.042;stroke-linecap:round;stroke-miterlimit:10;}
	.st8{fill:#C8C9CA;}
</style>
<g id="BG" class="st0">
	<rect x="-1521.77" y="-89.83" class="st1" width="5423.46" height="2640.54"/>
</g>
<g id="圖層_2">
	<g>
		<path d="M29.09,217.93c5.58-7.77,14.09-12.44,22.56-16.62c11.26-5.57,27.68-7.65,36.37-15.71c11.73-10.89,15.93-22.66,33.34-27.18
			c13.61-3.53,27.97-1.29,41.85,0.97c12.4,2.02,15.16,1.57,19.85-10.62c6.61-16.84,27.66-72.78,34.28-83.6
			c6.62-10.82,23.46-36.08,60.15-28.87c48.27,9.5,56.97,65.66,44.5,106.46c-6.61,21.65-25.26,38.49-24.66,44.5
			c0.6,6.02-1.8,10.23,4.21,17.44c6.01,7.22,28.27,55.33,6.61,78.19c-21.65,22.85-36.09,13.83-52.93,7.82c0,0-7.22-3-9.02,6.92
			c-1.8,9.92-27.07,124.2-30.68,132.61c-3.6,8.42-21.05,39.09-50.52,34.88c-29.47-4.21-45.11-49.69-45.11-67.36
			c0-8.42-9.02-51.12,18.64-109.46c0,0,3.61-6.01-3.61-6.01c-7.22,0-19.85-12.03-29.47-9.63c-9.63,2.41-31.28,16.84-58.34,8.42
			C20.07,272.66,12.25,241.39,29.09,217.93"/>
		<path d="M563.17,66.96c-9.02-9.02-19.85-21.65-58.34-17.44c-38.49,4.21-92.62-6.61-131.12-4.21
			c-38.49,2.4-37.89,49.32-37.89,49.32c-3.61,39.09,0.6,49.92,13.83,66.16c13.23,16.24,60.74,20.45,86.61,15.04
			c25.86-5.41,102.25,0,102.25,0c31.88-5.41,37.29-43.9,37.89-57.14C577,105.46,572.19,75.98,563.17,66.96 M403.58,84.2
			c0,0,0.61-5.81,21.66-3.4c21.05,2.4,38.09-1.47,42.3-2.24c4.21-0.77,14.77,0.27,16.73,7.45c2.51,9.22-0.23,19.63-13.39,17.35
			c-12.14-2.11-45.75-2.59-59.28-1.71C403.12,102.2,395.77,92.43,403.58,84.2 M486.46,144c-8.42-0.24-34.12-6.36-49.32-0.77
			c-8.52,3.13-21.73,5.31-26.47-5.03c-3.27-7.13,0.08-14.07,6.94-15.91c10.98-2.94,29.61,2.04,34.38,1.61
			c10.98-0.99,21.87-2.95,32.65-5.22c12.6-2.66,32.54,2.11,31.55,15.92C515.22,148.41,494.88,144.24,486.46,144"/>
		<path d="M567.38,201.69c-13.63-17.24-38.9-16.04-38.9-16.04s-123.09,0.4-144.35,0c-21.25-0.4-28.47-10.43-36.49-14.84
			c-8.02-4.41-14.43-8.02-23.26-5.61c-8.82,2.4-15.24,20.45-15.24,20.45s-10.34,14.96,6.02,26.06c16.35,11.1,8.82,48.92,8.82,48.92
			c-7.42,22.55,11.33,31.17,26.56,21.95c15.24-9.22,32.19-7.7,32.19-7.7c39.68-1.3,131.3,2.19,166.19-1.83
			C583.82,269.05,581.01,218.93,567.38,201.69 M394.12,242.07c-1.3,12.01-15.95,19.05-22.81,6.71c0,0-2.11-13.71-7.22-19.42
			s0-14.44,0-14.44s6.01-7.22,17.74,0C390.29,220.12,395.15,232.43,394.12,242.07 M459.09,232.52c-0.71,5.27,1.28,13.48-2.94,17.02
			c-4.68,3.93-12.32,5.63-17.29,1.4c-8.2-6.97-5.23-24.76-5.21-24.86c1.61-9.63,7.69-14.33,17.5-13.15c4.1,0.49,8.25,3.17,9.35,7.38
			C461.54,224.25,459.61,228.61,459.09,232.52 M526.88,224.34c-5.41,5.01-10.83,4.21-12.23,15.04c-1.4,10.82-6.01,14.23-11.23,14.03
			c-5.21-0.2-16.84-3.98-13.03-19.93c0,0,5.41-19.57,18.85-23.98C522.67,205.09,532.3,219.33,526.88,224.34"/>
		<path d="M601.46,333.6c-10.43-4.41-42.11,0-44.51,0c-2.41,0-6.82-1.2,2.8-18.04c9.63-16.84-4.81-32.48-12.83-32.46
			c-8.02,0.02-38.49,4.4-52.93,3.13c-14.44-1.27-90.22-6.35-119.69,0c-29.47,6.35-47.22,3.27-47.22,3.27
			c-47.82,1.2-39.99,45.71-39.99,45.71s-4.81,7.22-24.46,20.05c-19.65,12.83-54.53,51.32-28.47,85.8
			c26.06,34.48,66.16,8.82,66.16,8.82s61.75-28.47,82.19-37.29c20.45-8.82,40.9-1.61,50.59,0c9.69,1.6,7.55,12.43,46.04,39.29
			c38.49,26.86,68.96,14.44,68.96,14.44s59.74-30.87,77.39-74.58C643.16,348.04,611.88,338.01,601.46,333.6 M464.83,343.93
			c-8.75,5.61-19.11,14.5-30.03,14.07c-10.32-0.41-28.02-14.98-28.02-26.4c0-3.01,6.32-4.21,6.32-4.21s36.69-2.71,49.32,0
			C475.05,330.09,472.35,339.12,464.83,343.93"/>
		<path d="M489.81,527.54c5.27-7.34,13.32-11.75,21.31-15.71c10.65-5.26,26.17-7.23,34.37-14.85c11.09-10.29,15.05-21.41,31.5-25.68
			c12.86-3.34,26.44-1.22,39.55,0.91c11.72,1.91,14.33,1.49,18.76-10.04c6.25-15.91,26.14-68.77,32.4-79
			c6.25-10.23,22.17-34.11,56.84-27.28c45.62,8.98,53.84,62.05,42.06,100.6c-6.25,20.46-23.87,36.38-23.3,42.06
			c0.57,5.69-1.71,9.66,3.98,16.48c5.68,6.82,26.71,52.29,6.25,73.89c-20.46,21.6-34.11,13.07-50.02,7.39c0,0-6.82-2.83-8.52,6.54
			c-1.71,9.37-25.58,117.36-28.99,125.32c-3.41,7.96-19.89,36.94-47.74,32.97c-27.85-3.98-42.63-46.96-42.63-63.66
			c0-7.96-8.53-48.31,17.62-103.44c0,0,3.41-5.69-3.41-5.69c-6.82,0-18.76-11.36-27.85-9.09c-9.09,2.28-29.55,15.91-55.13,7.96
			C481.29,579.26,473.9,549.71,489.81,527.54"/>
		<path d="M994.53,384.88c-8.53-8.53-18.76-20.46-55.13-16.49c-36.38,3.98-87.53-6.25-123.91-3.98
			c-36.38,2.27-35.81,46.6-35.81,46.6c-3.41,36.95,0.57,47.17,13.07,62.52c12.5,15.35,57.4,19.33,81.85,14.21
			c24.44-5.11,96.62,0,96.62,0c30.12-5.11,35.24-41.49,35.81-53.99C1007.6,421.25,1003.05,393.4,994.53,384.88 M843.71,401.16
			c0,0,0.58-5.49,20.47-3.22c19.9,2.28,36-1.39,39.98-2.11c3.98-0.73,13.96,0.25,15.81,7.04c2.38,8.72-0.22,18.55-12.65,16.39
			c-11.48-1.99-43.23-2.45-56.02-1.62C843.28,418.18,836.33,408.94,843.71,401.16 M922.04,457.68c-7.95-0.22-32.24-6.02-46.6-0.73
			c-8.05,2.96-20.54,5.02-25.02-4.75c-3.09-6.73,0.08-13.29,6.57-15.03c10.37-2.78,27.98,1.93,32.49,1.52
			c10.37-0.94,20.66-2.78,30.85-4.93c11.91-2.51,30.75,1.99,29.82,15.05C949.21,461.85,929.99,457.9,922.04,457.68"/>
		<path d="M998.51,512.19c-12.89-16.29-36.75-15.16-36.75-15.16s-116.33,0.38-136.41,0c-20.08-0.38-26.9-9.85-34.48-14.02
			c-7.58-4.17-13.64-7.58-21.97-5.3c-8.34,2.28-14.4,19.33-14.4,19.33s-9.77,14.13,5.68,24.63c15.45,10.49,8.33,46.23,8.33,46.23
			c-7.01,21.31,10.7,29.46,25.11,20.74c14.4-8.72,30.42-7.27,30.42-7.27c37.5-1.22,124.08,2.06,157.04-1.72
			C1014.04,575.85,1011.39,528.48,998.51,512.19 M834.77,550.35c-1.22,11.35-15.07,18-21.55,6.34c0,0-1.99-12.96-6.82-18.36
			c-4.83-5.4,0-13.64,0-13.64s5.68-6.82,16.77,0C831.15,529.61,835.75,541.25,834.77,550.35 M896.17,541.34
			c-0.66,4.98,1.21,12.74-2.77,16.08c-4.42,3.72-11.64,5.32-16.34,1.32c-7.75-6.59-4.94-23.41-4.92-23.5
			c1.53-9.1,7.26-13.54,16.54-12.43c3.88,0.46,7.8,2.99,8.84,6.98C898.49,533.51,896.67,537.64,896.17,541.34 M960.24,533.6
			c-5.12,4.73-10.23,3.98-11.56,14.21c-1.33,10.23-5.68,13.45-10.61,13.26c-4.92-0.19-15.91-3.76-12.32-18.84
			c0,0,5.12-18.49,17.81-22.66C956.25,515.41,965.35,528.86,960.24,533.6"/>
		<path d="M1030.71,636.85c-9.85-4.16-39.79,0-42.06,0c-2.28,0-6.45-1.14,2.65-17.05c9.1-15.92-4.55-30.69-12.12-30.68
			c-7.58,0.02-36.38,4.15-50.02,2.95c-13.64-1.2-85.26-6-113.11,0c-27.85,6-44.62,3.09-44.62,3.09
			c-45.19,1.14-37.79,43.2-37.79,43.2s-4.55,6.82-23.11,18.94c-18.57,12.13-51.53,48.5-26.91,81.09
			c24.63,32.58,62.52,8.33,62.52,8.33s58.35-26.9,77.68-35.24c19.33-8.33,38.65-1.51,47.81,0c9.15,1.52,7.14,11.75,43.51,37.13
			c36.38,25.39,65.17,13.64,65.17,13.64s56.46-29.17,73.13-70.48C1070.12,650.5,1040.57,641.02,1030.71,636.85 M901.6,646.61
			c-8.27,5.3-18.06,13.71-28.38,13.3c-9.75-0.39-26.47-14.15-26.47-24.95c0-2.84,5.97-3.98,5.97-3.98s34.67-2.56,46.6,0
			C911.26,633.54,908.7,642.06,901.6,646.61"/>
		<path d="M36.9,565.56c0,0,1.2-20.45,39.09-24.06c37.89-3.61,43.3-9.02,55.93-27.07c12.63-18.04,34.75-16.24,41.73-9.02
			c6.99,7.22,0.97,15.04,6.38,15.64c5.41,0.6,10.83-1.2,20.45-12.03c9.63-10.83,22.85-12.63,26.67-12.23
			c3.81,0.4,25.26,0.4,25.66,20.45c0.4,20.05-7.02,32.07-1.8,40.7c1.65,4.26,3.54,8.46,5.65,12.52c1.47,2.84,3.02,5.87,5.11,8.32
			c3.28,3.84,4.79,7.84,3.89,12.87c-2.5,14.03-12.88,26.93-28.38,24.35c-14.08-2.34-26.77-14.79-32.59-27.38
			c-2.41-5.22-7.22-2.81-8.22-0.81c-1,2.01-5.01,12.03-22.05,10.83c-17.04-1.2-17.64-10.62-18.44-11.63c-0.81-1-7.02-2.81-9.83,0.2
			c-2.8,3.01-24.25,29.27-51.32,28.07C67.78,614.08,29.08,608.26,36.9,565.56"/>
		<path d="M352.84,510.76c-0.31-3.7,0.41-7.41,3.18-11.14c8.25-11.12,27.95-8.33,38.4-2.1c10.48,6.25,15.66,17.5,22.69,26.94
			c9.84,13.23,10.26,11.63,13.13,5.21c2.87-6.41,3.28-30.18,15.59-37.34c12.31-7.17,31.58-7.97,37.33,7.27
			c5.55,14.72-9.87,26.65-13.75,39.67c-2.1,7.03-0.45,15.23-0.05,22.48c0.33,6.02-0.34,15.89,3.95,20.84
			c4.51,5.22-2.46,38.89-36.51,28.07c-15.53-4.94-23.08-23.86-30.01-36.47c-0.91-1.66-1.87-3.37-3.35-4.58
			c-1.48-1.22-3.64-1.84-5.39-1.04c-4.94,2.26-4.33,12.81-4.95,17.18c-1.09,7.63-2.94,15.34-8.82,20.9
			c-12.31,11.63-42.17,8.07-45.13-6.82c-1.48-7.44,2.27-11.84,7.3-16.75c6.01-5.88,8.81-10.55,10.12-18.99
			c1.53-9.93,3.02-20.03,2.41-30.1C358.49,526.04,353.48,518.4,352.84,510.76"/>
		<path d="M350.29,529.36c-2.05-16.26-9.71-32.65-27.03-37.67c-12.71-3.68-27.29-2.57-39.27,2.97c-14.73,6.83-23.21,17.13-25.24,31
			c-1.82,12.48-1.12,25.37,1.31,37.29c1.69,8.33,7.3,20.41,13.07,27.03c7.79,8.93,22.81,10.89,34.13,9.41
			c12.96-1.7,28.87-7.71,35.94-19.1C351.81,566.41,352.27,545.02,350.29,529.36 M308.76,559.75c-4.81,0-10.89,0.79-14.97-2.36
			c-4.71-3.62-5.84-14.64-2.27-19.83c3.02-4.37,10.98-10.77,16.03-12.57C323.24,519.4,324.44,559.74,308.76,559.75"/>
		<path d="M21.26,694.5c0,0,1.2-20.45,39.09-24.06c37.89-3.61,43.3-9.02,55.93-27.07c12.63-18.04,34.75-16.24,41.73-9.02
			c6.99,7.22,0.97,15.04,6.38,15.64c5.41,0.6,10.83-1.2,20.45-12.03c9.63-10.83,22.85-12.63,26.67-12.23
			c3.81,0.4,25.26,0.4,25.66,20.45c0.4,20.05-7.02,32.07-1.8,40.7c1.65,4.26,3.54,8.46,5.65,12.52c1.47,2.84,3.02,5.87,5.11,8.32
			c3.28,3.84,4.79,7.84,3.89,12.87c-2.5,14.03-12.88,26.93-28.38,24.35c-14.08-2.34-26.77-14.79-32.59-27.38
			c-2.41-5.22-7.22-2.81-8.22-0.81c-1,2.01-5.01,12.03-22.05,10.83c-17.04-1.2-17.64-10.62-18.44-11.63c-0.81-1-7.02-2.81-9.83,0.2
			c-2.8,3.01-24.25,29.27-51.32,28.07S13.43,737.21,21.26,694.5"/>
		<path d="M337.19,639.7c-0.31-3.7,0.41-7.41,3.18-11.14c8.25-11.12,27.95-8.33,38.4-2.1c10.48,6.25,15.66,17.5,22.69,26.94
			c9.84,13.23,10.26,11.63,13.13,5.21c2.87-6.42,3.28-30.18,15.59-37.34c12.31-7.17,31.58-7.97,37.33,7.27
			c5.55,14.72-9.87,26.65-13.75,39.67c-2.1,7.03-0.45,15.23-0.05,22.49c0.33,6.02-0.34,15.89,3.95,20.84
			c4.51,5.22-2.46,38.89-36.51,28.07c-15.53-4.94-23.08-23.86-30.01-36.47c-0.91-1.66-1.87-3.37-3.35-4.58
			c-1.48-1.22-3.64-1.84-5.39-1.04c-4.94,2.26-4.33,12.81-4.95,17.18c-1.09,7.63-2.94,15.34-8.82,20.9
			c-12.31,11.63-42.17,8.07-45.13-6.82c-1.48-7.44,2.27-11.84,7.3-16.75c6.01-5.88,8.81-10.55,10.12-18.99
			c1.53-9.93,3.02-20.03,2.41-30.1C342.84,654.98,337.83,647.34,337.19,639.7"/>
		<path d="M334.65,658.3c-2.05-16.26-9.71-32.65-27.03-37.67c-12.71-3.68-27.29-2.57-39.27,2.97c-14.73,6.83-23.21,17.13-25.24,31
			c-1.82,12.48-1.12,25.37,1.31,37.29c1.69,8.33,7.3,20.41,13.07,27.03c7.79,8.93,22.81,10.89,34.13,9.41
			c12.96-1.7,28.87-7.71,35.94-19.1C336.16,695.35,336.62,673.97,334.65,658.3 M293.11,688.69c-4.81,0-10.89,0.79-14.97-2.36
			c-4.71-3.62-5.84-14.64-2.27-19.83c3.02-4.37,10.98-10.77,16.03-12.57C307.59,648.34,308.79,688.68,293.11,688.69"/>
		<path d="M29.09,217.93c5.58-7.77,14.09-12.44,22.56-16.62c11.26-5.57,27.68-7.65,36.37-15.71c11.73-10.89,15.93-22.66,33.34-27.18
			c13.61-3.53,27.97-1.29,41.85,0.97c12.4,2.02,15.16,1.57,19.85-10.62c6.61-16.84,27.66-72.78,34.28-83.6
			c6.62-10.82,23.46-36.08,60.15-28.87c48.27,9.5,56.97,65.66,44.5,106.46c-6.61,21.65-25.26,38.49-24.66,44.5
			c0.6,6.02-1.8,10.23,4.21,17.44c6.01,7.22,28.27,55.33,6.61,78.19c-21.65,22.85-36.09,13.83-52.93,7.82c0,0-7.22-3-9.02,6.92
			c-1.8,9.92-27.07,124.2-30.68,132.61c-3.6,8.42-21.05,39.09-50.52,34.88c-29.47-4.21-45.11-49.69-45.11-67.36
			c0-8.42-9.02-51.12,18.64-109.46c0,0,3.61-6.01-3.61-6.01c-7.22,0-19.85-12.03-29.47-9.63c-9.63,2.41-31.28,16.84-58.34,8.42
			C20.07,272.66,12.25,241.39,29.09,217.93"/>
		<path d="M563.17,66.96c-9.02-9.02-19.85-21.65-58.34-17.44c-38.49,4.21-92.62-6.61-131.12-4.21
			c-38.49,2.4-37.89,49.32-37.89,49.32c-3.61,39.09,0.6,49.92,13.83,66.16c13.23,16.24,60.74,20.45,86.61,15.04
			c25.86-5.41,102.25,0,102.25,0c31.88-5.41,37.29-43.9,37.89-57.14C577,105.46,572.19,75.98,563.17,66.96 M403.58,84.2
			c0,0,0.61-5.81,21.66-3.4c21.05,2.4,38.09-1.47,42.3-2.24c4.21-0.77,14.77,0.27,16.73,7.45c2.51,9.22-0.23,19.63-13.39,17.35
			c-12.14-2.11-45.75-2.59-59.28-1.71C403.12,102.2,395.77,92.43,403.58,84.2 M486.46,144c-8.42-0.24-34.12-6.36-49.32-0.77
			c-8.52,3.13-21.73,5.31-26.47-5.03c-3.27-7.13,0.08-14.07,6.94-15.91c10.98-2.94,29.61,2.04,34.38,1.61
			c10.98-0.99,21.87-2.95,32.65-5.22c12.6-2.66,32.54,2.11,31.55,15.92C515.22,148.41,494.88,144.24,486.46,144"/>
		<path d="M567.38,201.69c-13.63-17.24-38.9-16.04-38.9-16.04s-123.09,0.4-144.35,0c-21.25-0.4-28.47-10.43-36.49-14.84
			c-8.02-4.41-14.43-8.02-23.26-5.61c-8.82,2.4-15.24,20.45-15.24,20.45s-10.34,14.96,6.02,26.06c16.35,11.1,8.82,48.92,8.82,48.92
			c-7.42,22.55,11.33,31.17,26.56,21.95c15.24-9.22,32.19-7.7,32.19-7.7c39.68-1.3,131.3,2.19,166.19-1.83
			C583.82,269.05,581.01,218.93,567.38,201.69 M394.12,242.07c-1.3,12.01-15.95,19.05-22.81,6.71c0,0-2.11-13.71-7.22-19.42
			s0-14.44,0-14.44s6.01-7.22,17.74,0C390.29,220.12,395.15,232.43,394.12,242.07 M459.09,232.52c-0.71,5.27,1.28,13.48-2.94,17.02
			c-4.68,3.93-12.32,5.63-17.29,1.4c-8.2-6.97-5.23-24.76-5.21-24.86c1.61-9.63,7.69-14.33,17.5-13.15c4.1,0.49,8.25,3.17,9.35,7.38
			C461.54,224.25,459.61,228.61,459.09,232.52 M526.88,224.34c-5.41,5.01-10.83,4.21-12.23,15.04c-1.4,10.82-6.01,14.23-11.23,14.03
			c-5.21-0.2-16.84-3.98-13.03-19.93c0,0,5.41-19.57,18.85-23.98C522.67,205.09,532.3,219.33,526.88,224.34"/>
		<path d="M601.46,333.6c-10.43-4.41-42.11,0-44.51,0c-2.41,0-6.82-1.2,2.8-18.04c9.63-16.84-4.81-32.48-12.83-32.46
			c-8.02,0.02-38.49,4.4-52.93,3.13c-14.44-1.27-90.22-6.35-119.69,0c-29.47,6.35-47.22,3.27-47.22,3.27
			c-47.82,1.2-39.99,45.71-39.99,45.71s-4.81,7.22-24.46,20.05c-19.65,12.83-54.53,51.32-28.47,85.8
			c26.06,34.48,66.16,8.82,66.16,8.82s61.75-28.47,82.19-37.29c20.45-8.82,40.9-1.61,50.59,0c9.69,1.6,7.55,12.43,46.04,39.29
			c38.49,26.86,68.96,14.44,68.96,14.44s59.74-30.87,77.39-74.58C643.16,348.04,611.88,338.01,601.46,333.6 M464.83,343.93
			c-8.75,5.61-19.11,14.5-30.03,14.07c-10.32-0.41-28.02-14.98-28.02-26.4c0-3.01,6.32-4.21,6.32-4.21s36.69-2.71,49.32,0
			C475.05,330.09,472.35,339.12,464.83,343.93"/>
		<path d="M489.81,527.54c5.27-7.34,13.32-11.75,21.31-15.71c10.65-5.26,26.17-7.23,34.37-14.85c11.09-10.29,15.05-21.41,31.5-25.68
			c12.86-3.34,26.44-1.22,39.55,0.91c11.72,1.91,14.33,1.49,18.76-10.04c6.25-15.91,26.14-68.77,32.4-79
			c6.25-10.23,22.17-34.11,56.84-27.28c45.62,8.98,53.84,62.05,42.06,100.6c-6.25,20.46-23.87,36.38-23.3,42.06
			c0.57,5.69-1.71,9.66,3.98,16.48c5.68,6.82,26.71,52.29,6.25,73.89c-20.46,21.6-34.11,13.07-50.02,7.39c0,0-6.82-2.83-8.52,6.54
			c-1.71,9.37-25.58,117.36-28.99,125.32c-3.41,7.96-19.89,36.94-47.74,32.97c-27.85-3.98-42.63-46.96-42.63-63.66
			c0-7.96-8.53-48.31,17.62-103.44c0,0,3.41-5.69-3.41-5.69c-6.82,0-18.76-11.36-27.85-9.09c-9.09,2.28-29.55,15.91-55.13,7.96
			C481.29,579.26,473.9,549.71,489.81,527.54"/>
		<path d="M994.53,384.88c-8.53-8.53-18.76-20.46-55.13-16.49c-36.38,3.98-87.53-6.25-123.91-3.98
			c-36.38,2.27-35.81,46.6-35.81,46.6c-3.41,36.95,0.57,47.17,13.07,62.52c12.5,15.35,57.4,19.33,81.85,14.21
			c24.44-5.11,96.62,0,96.62,0c30.12-5.11,35.24-41.49,35.81-53.99C1007.6,421.25,1003.05,393.4,994.53,384.88 M843.71,401.16
			c0,0,0.58-5.49,20.47-3.22c19.9,2.28,36-1.39,39.98-2.11c3.98-0.73,13.96,0.25,15.81,7.04c2.38,8.72-0.22,18.55-12.65,16.39
			c-11.48-1.99-43.23-2.45-56.02-1.62C843.28,418.18,836.33,408.94,843.71,401.16 M922.04,457.68c-7.95-0.22-32.24-6.02-46.6-0.73
			c-8.05,2.96-20.54,5.02-25.02-4.75c-3.09-6.73,0.08-13.29,6.57-15.03c10.37-2.78,27.98,1.93,32.49,1.52
			c10.37-0.94,20.66-2.78,30.85-4.93c11.91-2.51,30.75,1.99,29.82,15.05C949.21,461.85,929.99,457.9,922.04,457.68"/>
		<path d="M998.51,512.19c-12.89-16.29-36.75-15.16-36.75-15.16s-116.33,0.38-136.41,0c-20.08-0.38-26.9-9.85-34.48-14.02
			c-7.58-4.17-13.64-7.58-21.97-5.3c-8.34,2.28-14.4,19.33-14.4,19.33s-9.77,14.13,5.68,24.63c15.45,10.49,8.33,46.23,8.33,46.23
			c-7.01,21.31,10.7,29.46,25.11,20.74c14.4-8.72,30.42-7.27,30.42-7.27c37.5-1.22,124.08,2.06,157.04-1.72
			C1014.04,575.85,1011.39,528.48,998.51,512.19 M834.77,550.35c-1.22,11.35-15.07,18-21.55,6.34c0,0-1.99-12.96-6.82-18.36
			c-4.83-5.4,0-13.64,0-13.64s5.68-6.82,16.77,0C831.15,529.61,835.75,541.25,834.77,550.35 M896.17,541.34
			c-0.66,4.98,1.21,12.74-2.77,16.08c-4.42,3.72-11.64,5.32-16.34,1.32c-7.75-6.59-4.94-23.41-4.92-23.5
			c1.53-9.1,7.26-13.54,16.54-12.43c3.88,0.46,7.8,2.99,8.84,6.98C898.49,533.51,896.67,537.64,896.17,541.34 M960.24,533.6
			c-5.12,4.73-10.23,3.98-11.56,14.21c-1.33,10.23-5.68,13.45-10.61,13.26c-4.92-0.19-15.91-3.76-12.32-18.84
			c0,0,5.12-18.49,17.81-22.66C956.25,515.41,965.35,528.86,960.24,533.6"/>
		<path d="M1030.71,636.85c-9.85-4.16-39.79,0-42.06,0c-2.28,0-6.45-1.14,2.65-17.05c9.1-15.92-4.55-30.69-12.12-30.68
			c-7.58,0.02-36.38,4.15-50.02,2.95c-13.64-1.2-85.26-6-113.11,0c-27.85,6-44.62,3.09-44.62,3.09
			c-45.19,1.14-37.79,43.2-37.79,43.2s-4.55,6.82-23.11,18.94c-18.57,12.13-51.53,48.5-26.91,81.09
			c24.63,32.58,62.52,8.33,62.52,8.33s58.35-26.9,77.68-35.24c19.33-8.33,38.65-1.51,47.81,0c9.15,1.52,7.14,11.75,43.51,37.13
			c36.38,25.39,65.17,13.64,65.17,13.64s56.46-29.17,73.13-70.48C1070.12,650.5,1040.57,641.02,1030.71,636.85 M901.6,646.61
			c-8.27,5.3-18.06,13.71-28.38,13.3c-9.75-0.39-26.47-14.15-26.47-24.95c0-2.84,5.97-3.98,5.97-3.98s34.67-2.56,46.6,0
			C911.26,633.54,908.7,642.06,901.6,646.61"/>
		<path d="M36.9,565.56c0,0,1.2-20.45,39.09-24.06c37.89-3.61,43.3-9.02,55.93-27.07c12.63-18.04,34.75-16.24,41.73-9.02
			c6.99,7.22,0.97,15.04,6.38,15.64c5.41,0.6,10.83-1.2,20.45-12.03c9.63-10.83,22.85-12.63,26.67-12.23
			c3.81,0.4,25.26,0.4,25.66,20.45c0.4,20.05-7.02,32.07-1.8,40.7c1.65,4.26,3.54,8.46,5.65,12.52c1.47,2.84,3.02,5.87,5.11,8.32
			c3.28,3.84,4.79,7.84,3.89,12.87c-2.5,14.03-12.88,26.93-28.38,24.35c-14.08-2.34-26.77-14.79-32.59-27.38
			c-2.41-5.22-7.22-2.81-8.22-0.81c-1,2.01-5.01,12.03-22.05,10.83c-17.04-1.2-17.64-10.62-18.44-11.63c-0.81-1-7.02-2.81-9.83,0.2
			c-2.8,3.01-24.25,29.27-51.32,28.07C67.78,614.08,29.08,608.26,36.9,565.56"/>
		<path d="M352.84,510.76c-0.31-3.7,0.41-7.41,3.18-11.14c8.25-11.12,27.95-8.33,38.4-2.1c10.48,6.25,15.66,17.5,22.69,26.94
			c9.84,13.23,10.26,11.63,13.13,5.21c2.87-6.41,3.28-30.18,15.59-37.34c12.31-7.17,31.58-7.97,37.33,7.27
			c5.55,14.72-9.87,26.65-13.75,39.67c-2.1,7.03-0.45,15.23-0.05,22.48c0.33,6.02-0.34,15.89,3.95,20.84
			c4.51,5.22-2.46,38.89-36.51,28.07c-15.53-4.94-23.08-23.86-30.01-36.47c-0.91-1.66-1.87-3.37-3.35-4.58
			c-1.48-1.22-3.64-1.84-5.39-1.04c-4.94,2.26-4.33,12.81-4.95,17.18c-1.09,7.63-2.94,15.34-8.82,20.9
			c-12.31,11.63-42.17,8.07-45.13-6.82c-1.48-7.44,2.27-11.84,7.3-16.75c6.01-5.88,8.81-10.55,10.12-18.99
			c1.53-9.93,3.02-20.03,2.41-30.1C358.49,526.04,353.48,518.4,352.84,510.76"/>
		<path d="M350.29,529.36c-2.05-16.26-9.71-32.65-27.03-37.67c-12.71-3.68-27.29-2.57-39.27,2.97c-14.73,6.83-23.21,17.13-25.24,31
			c-1.82,12.48-1.12,25.37,1.31,37.29c1.69,8.33,7.3,20.41,13.07,27.03c7.79,8.93,22.81,10.89,34.13,9.41
			c12.96-1.7,28.87-7.71,35.94-19.1C351.81,566.41,352.27,545.02,350.29,529.36 M308.76,559.75c-4.81,0-10.89,0.79-14.97-2.36
			c-4.71-3.62-5.84-14.64-2.27-19.83c3.02-4.37,10.98-10.77,16.03-12.57C323.24,519.4,324.44,559.74,308.76,559.75"/>
		<path d="M21.26,694.5c0,0,1.2-20.45,39.09-24.06c37.89-3.61,43.3-9.02,55.93-27.07c12.63-18.04,34.75-16.24,41.73-9.02
			c6.99,7.22,0.97,15.04,6.38,15.64c5.41,0.6,10.83-1.2,20.45-12.03c9.63-10.83,22.85-12.63,26.67-12.23
			c3.81,0.4,25.26,0.4,25.66,20.45c0.4,20.05-7.02,32.07-1.8,40.7c1.65,4.26,3.54,8.46,5.65,12.52c1.47,2.84,3.02,5.87,5.11,8.32
			c3.28,3.84,4.79,7.84,3.89,12.87c-2.5,14.03-12.88,26.93-28.38,24.35c-14.08-2.34-26.77-14.79-32.59-27.38
			c-2.41-5.22-7.22-2.81-8.22-0.81c-1,2.01-5.01,12.03-22.05,10.83c-17.04-1.2-17.64-10.62-18.44-11.63c-0.81-1-7.02-2.81-9.83,0.2
			c-2.8,3.01-24.25,29.27-51.32,28.07S13.43,737.21,21.26,694.5"/>
		<path d="M337.19,639.7c-0.31-3.7,0.41-7.41,3.18-11.14c8.25-11.12,27.95-8.33,38.4-2.1c10.48,6.25,15.66,17.5,22.69,26.94
			c9.84,13.23,10.26,11.63,13.13,5.21c2.87-6.42,3.28-30.18,15.59-37.34c12.31-7.17,31.58-7.97,37.33,7.27
			c5.55,14.72-9.87,26.65-13.75,39.67c-2.1,7.03-0.45,15.23-0.05,22.49c0.33,6.02-0.34,15.89,3.95,20.84
			c4.51,5.22-2.46,38.89-36.51,28.07c-15.53-4.94-23.08-23.86-30.01-36.47c-0.91-1.66-1.87-3.37-3.35-4.58
			c-1.48-1.22-3.64-1.84-5.39-1.04c-4.94,2.26-4.33,12.81-4.95,17.18c-1.09,7.63-2.94,15.34-8.82,20.9
			c-12.31,11.63-42.17,8.07-45.13-6.82c-1.48-7.44,2.27-11.84,7.3-16.75c6.01-5.88,8.81-10.55,10.12-18.99
			c1.53-9.93,3.02-20.03,2.41-30.1C342.84,654.98,337.83,647.34,337.19,639.7"/>
		<path d="M334.65,658.3c-2.05-16.26-9.71-32.65-27.03-37.67c-12.71-3.68-27.29-2.57-39.27,2.97c-14.73,6.83-23.21,17.13-25.24,31
			c-1.82,12.48-1.12,25.37,1.31,37.29c1.69,8.33,7.3,20.41,13.07,27.03c7.79,8.93,22.81,10.89,34.13,9.41
			c12.96-1.7,28.87-7.71,35.94-19.1C336.16,695.35,336.62,673.97,334.65,658.3 M293.11,688.69c-4.81,0-10.89,0.79-14.97-2.36
			c-4.71-3.62-5.84-14.64-2.27-19.83c3.02-4.37,10.98-10.77,16.03-12.57C307.59,648.34,308.79,688.68,293.11,688.69"/>
	</g>
</g>
</svg>
