<?xml version="1.0" encoding="utf-8"?>
<!-- Generator: Adobe Illustrator 23.1.0, SVG Export Plug-In . SVG Version: 6.00 Build 0)  -->
<svg version="1.1" xmlns="http://www.w3.org/2000/svg" xmlns:xlink="http://www.w3.org/1999/xlink" x="0px" y="0px"
	 viewBox="0 0 1280 490.79" style="enable-background:new 0 0 1280 490.79;" xml:space="preserve">
<style type="text/css">
	.st0{display:none;}
	.st1{display:inline;fill:#989898;}
	.st2{fill:#060001;}
	.st3{fill:#040000;}
	.st4{clip-path:url(#SVGID_2_);fill:url(#SVGID_3_);}
	.st5{fill:#939494;}
	.st6{fill:none;stroke:#231815;stroke-width:2.254;stroke-linecap:round;stroke-miterlimit:10;}
	.st7{fill:none;stroke:#231815;stroke-width:1.042;stroke-linecap:round;stroke-miterlimit:10;}
	.st8{fill:#C8C9CA;}
</style>
<g id="BG" class="st0">
	<rect x="-1421.11" y="-1072.78" class="st1" width="5423.46" height="2640.54"/>
</g>
<g id="圖層_2">
	<g>
		<path class="st3" d="M724.64,403.86c0.12-0.14,0.35-0.3,0.34-0.43c-0.04-0.34-0.37-0.36-0.65-0.38
			C724.26,403.38,724.26,403.69,724.64,403.86"/>
		<path class="st3" d="M152.2,179.72c-0.41-6.88-1.1-13.68-2.35-20.44c-1.32-7.09-3.26-13.98-6.28-20.55
			c-0.27-1.59-1.36-2.81-1.94-4.26c-2.64-6.58-6.89-12-12.57-16.14c-8.69-6.34-18.26-8.86-28.88-5.54
			c-0.21,0.13-0.42,0.25-0.64,0.38l-0.12-0.04c-6.65,1.8-12.01,5.69-16.87,10.4c-0.58,0.31-1.31,1.22-1.28-0.44
			c0.04-2.86,0.04-5.72-0.03-8.57c-0.02-1.08,0.07-2.56-1.45-2.62c-3.57-0.15-7.17-0.31-10.67,0.73c-1.86,0.5-3.75,0.89-5.57,1.51
			c-7.37,2.54-13.43,6.99-18.82,12.58c-6.18,6.41-10.55,14-14.39,21.86c-2.45,5.01-3.93,10.49-5.05,16.01
			c-0.72,3.55-2.06,6.95-2.04,10.7c0.01,2.76-0.74,5.54-1.14,8.3v163.43c0.44,0.14,0.54,0.53,0.56,0.89
			c0.3,5.01,1.65,9.74,3.32,14.45c2.39,6.74,5.58,13,10.28,18.39c5.66,6.49,12.47,10.81,21.5,10.54c5.97-0.17,11.57-1.81,16.89-4.37
			c12.02-5.78,21.03-15.1,29.13-25.38c9.43-11.96,16.25-25.46,22.47-39.26c5.59-12.42,9.89-25.31,13.76-38.35
			c4.82-16.21,7.95-32.76,10.39-49.46c1.53-10.42,2.08-20.91,2.5-31.41C153.24,195.27,152.66,187.5,152.2,179.72 M84.05,309.09
			c-1.34-1.62-1.93-3.46-1.92-5.58c0.06-9.93,0.06-19.85,0.07-29.78c0-1.21,0.12-2.39,0.42-3.57c0.89-3.46,2.47-4.74,6.03-4.8
			c6.14-0.1,9.19,1.49,10.78,5.8c0.7,1.9,1.19,3.88,1.22,5.93c0.14,10.7-2.08,20.71-8.75,29.37c-0.89,1.16-0.96,2.92-2.58,3.53
			C87.37,310.85,85.61,310.53,84.05,309.09"/>
		<path class="st3" d="M549.2,210.99c0.57-8.69,0.94-17.33,0.51-26.06c-0.39-7.83-1.08-15.58-2.36-23.31
			c-1.49-9.02-4.17-17.61-8.62-25.62c0.05-0.07,0.06-0.15,0.01-0.23c-0.16-0.23-0.31-0.45-0.47-0.68c0.06-0.07,0.06-0.14,0.02-0.22
			c-0.16-0.36-0.31-0.72-0.47-1.08c-2.33-4.9-5.72-9.03-9.78-12.52c-5.9-5.07-12.71-8.17-20.68-8.14c-0.66-0.51-1.43-0.36-2.17-0.36
			c-9.93,0.06-18.26,4.02-25.56,10.51c-0.8,0.71-1.35,1.91-2.76,1.55c-1.48-1.57-2.87-3.24-4.47-4.68c-5-4.5-10.81-7.05-17.64-6.98
			c-4.92-0.01-9.64,0.55-13.99,3.26c-8.87,5.54-14.35,13.71-18.07,23.14c-3.57,9.06-4.92,18.71-6.25,28.28
			c-1.19,8.51-1.72,17.14-1.77,25.76c-0.19,31.37-0.05,62.73,0.65,94.1c0.35,15.71,0.38,31.42,1.95,47.08
			c1.09,10.84,2.08,21.71,5,32.25c2.33,8.43,5.77,16.3,13.13,21.81c6.01,4.5,12.65,6.27,20.1,5.65c7.6-0.64,14.34-3.5,20.41-7.86
			c11.01-7.9,19.43-18.27,27.09-29.3c4.85-6.99,8.84-14.46,12.68-22.06c5.11-10.12,9.51-20.49,13.21-31.19
			c6.06-17.53,11.33-35.29,14.77-53.54c1.32-6.99,2.58-14,3.68-21.03C548.3,223.39,548.78,217.2,549.2,210.99 M482.78,308.19
			c-3.87-0.33-4.82-3.34-5.81-6.32c0.06-12.47,0.06-24.93,0.23-37.4c0.04-2.94,0.76-6.12,3.94-7.15c3.73-1.21,7.56-1.13,10.9,1.57
			c2.52,2.05,3.39,4.9,3.75,7.88c1.58,13-1.97,24.97-7.72,36.41C486.98,305.36,485.09,307.1,482.78,308.19"/>
		<path class="st3" d="M568.26,176.51c52.51,0,105.02,0.17,157.54-0.11c15.53-0.08,27.15-7.73,34.23-21.64
			c5.34-10.48,4.96-21.59,2.26-32.64c-1.48-6.07-4.9-11.28-9.32-15.73c-7.82-7.88-17.21-12.63-28.23-14.29
			c-12.34-1.86-23.69,0.64-34.33,7.02c-7.58,4.55-12.11,11.73-16.63,18.93c-0.57,0.91-1.04,1.88-2.07,2.68
			c-0.04-0.46-0.13-0.69-0.07-0.87c2.9-8.24,6.86-15.83,13.34-21.9c0.58-0.55,1.25-1,1.46-1.92c1.06-4.55,1.37-9.11,0.91-13.79
			c-1.22-12.24-6.66-22.23-16.15-29.88c-10.28-8.29-21.91-12.2-35.37-10.86c-7.2,0.71-13.95,2.27-20.23,5.78
			c-8.71,4.87-15.5,11.62-19.69,20.79c-1.97,4.32-3.31,8.86-3.9,13.56c-0.63,5.02-0.73,10.12-1.52,15.11
			c-1.53,9.65-3.69,19.19-6.71,28.49c-4.81,14.83-11.15,28.95-20.53,41.54c-1.58,2.12-2.14,4.3-0.86,6.7
			C563.62,175.78,565.77,176.51,568.26,176.51"/>
		<path class="st3" d="M370.51,295.07c-14.24,0.04-28.49,0.04-42.73,0.05c-6.32-0.11-12.65,0.21-18.97-0.21
			c-0.04-0.66-0.08-1.32-0.13-1.98c0-2.25,0.23-4.54-0.06-6.75c-0.27-2.05,0.44-2.32,2.25-2.31c16.01,0.06,32.02,0.04,48.03,0.01
			c4.43-0.01,6.74-2.25,6.74-6.64c0.01-21.87-0.04-43.74-0.06-65.61c0.23-3.64-1.38-5.14-5.33-4.96
			c-16.55-0.01-33.1-0.03-49.64-0.04c-1.23,0.04-1.95-0.36-1.81-1.78c0.08-0.87-0.05-1.76-0.09-2.63c0.01-1.28,0.14-2.57,0-3.83
			c-0.25-2.12,0.61-2.6,2.65-2.59c17.06,0.08,34.13,0.05,51.2,0.05c3.64,0,5.01-1.3,5.01-4.97c0-23.98-0.02-47.96-0.06-71.94
			c0-0.88,0.16-1.82-0.42-2.62c-0.24-1.08-0.63-2.02-1.88-2.25c-2.96-0.74-5.96-0.27-8.94-0.34c-4.07-0.09-4.07-0.02-2.42-3.57
			c0.16-0.34,0.32-0.68,0.46-1.03c3.89-9.54,4.83-19.53,3.94-29.65c-0.55-6.25-1.85-12.44-5.6-17.78c0.01,0.01,0.02,0.01,0.02,0.02
			c-0.37-1.95-1.37-3.56-2.72-4.96c0,0,0,0,0,0c-0.08-0.62-0.36-1.11-0.94-1.4c-0.04-0.15-0.08-0.31-0.12-0.46
			c-0.26-0.28-0.52-0.56-0.79-0.85c-0.15-0.14-0.29-0.28-0.44-0.41l-0.04-0.04c-0.14-0.14-0.27-0.28-0.41-0.41l-0.04-0.04
			c-0.14-0.14-0.27-0.28-0.41-0.41c0,0-0.04-0.04-0.04-0.04c-0.14-0.14-0.27-0.27-0.41-0.41l-0.04-0.04
			c-0.14-0.14-0.27-0.27-0.41-0.41c0,0-0.05-0.05-0.05-0.05c-0.13-0.13-0.27-0.27-0.4-0.4l-0.06-0.06c-0.13-0.13-0.26-0.26-0.4-0.38
			c-0.96-1.61-2.61-2.44-4.06-3.44c-4.62-3.18-9.66-5.37-15.27-6.09c-0.55-0.48-1.25-0.35-1.89-0.44c-0.23-0.01-0.46-0.01-0.69-0.02
			c-7.62-1.89-15.09-0.9-22.31,1.68c-11.61,4.15-20.13,12.26-27.29,22.02c-3.61,4.91-6.41,10.3-9.35,15.6
			c-2.29-2.24-3.78-5.03-5.23-7.82c-2.99-5.73-5.61-11.62-7.15-17.94c-0.39-1.61-0.93-3.34-2.94-3.58
			c-6.32-0.77-12.64-1.39-18.95-2.22c-9.58-1.26-19.08-2.94-28.54-4.86c-9.4-1.91-18.67-4.34-27.92-6.88
			c-0.3-0.03-0.59-0.05-0.89-0.08c0.01,0.01,0.01,0.01,0.02,0.02c-3.36-1.44-5.69-0.05-5.53,3.61c0.18,4.39,0.71,8.77,1.66,13.07
			c1.76,7.98,4.09,15.79,7.39,23.28c5.12,11.62,11.33,22.49,21.26,30.79c4.45,3.72,9.17,7.06,14.25,9.88
			c3.05,1.69,6.44,2.59,9.6,4.08c-0.52,0.14-1,0.14-1.49,0.14c-3.93,0.07-7.66-1.12-11.47-1.8c-0.31-0.59-0.84-0.51-1.36-0.45
			c-0.29-0.62-0.84-0.49-1.35-0.45c-0.13-0.46-0.61-0.44-0.92-0.65c-1.12-0.53-2.24-1.06-3.36-1.58c-0.38-0.15-0.76-0.31-1.13-0.47
			c-0.15-0.15-0.3-0.29-0.45-0.44c-0.02,0-0.04-0.01-0.07-0.01c0.02,0,0.05,0.01,0.07,0.01c0,0,0,0,0.01,0l-0.03-0.02
			c0.01,0,0.01,0.01,0.01,0.01c-0.21-0.33-0.52-0.45-0.89-0.45c-0.17-0.43-0.5-0.52-0.92-0.47c-0.15-0.14-0.29-0.29-0.44-0.43
			c0,0,0,0,0.01,0l-0.02-0.02c0,0,0.01,0.01,0.01,0.01c-0.18-0.4-0.49-0.53-0.91-0.46c0,0,0,0,0.01,0.01
			c-2.19-0.99-4.25-0.12-6.33,0.46c0,0,0.01-0.01,0.01-0.01c-1.03-0.12-1.91,0.33-2.79,0.75c-15.25,7.25-20.64,20.91-22.35,36.23
			c-1.06,9.51-0.22,19.23-0.22,28.86c0,3.68-0.04,7.37,0.08,11.06c0.11,3.17,1.53,4.44,4.66,4.45c6.69,0.01,13.39,0,20.09,0
			c9.18,0,18.36,0.05,27.53-0.04c1.81-0.02,2.37,0.52,2.25,2.3c-0.15,2.25-0.05,4.51-0.03,6.77c0.01,0.91-0.05,1.61-1.28,1.61
			c-3.21,0.01-6.42,0.06-9.62,0.2c-6.69,0.28-13.35-0.65-20.1,0.69c-4.9,0.97-8.88,3.22-12.02,6.5c-9,9.43-13.45,20.9-13.54,33.99
			c-0.07,9.17-0.1,18.35-0.14,27.52c-0.04,7.35,1.12,8.52,8.46,8.53c15.42,0.02,30.84,0.06,46.26,0.01
			c1.64-0.01,2.06,0.47,1.98,2.02c-0.12,2.1-0.15,4.22,0.02,6.31c0.18,2.18-0.6,2.83-2.78,2.82c-11.66-0.07-23.32,0-34.98,0.02
			c-5.62,0.01-10.35,2.39-14.55,5.8c-6.69,5.43-10.41,12.84-13.06,20.83c-1.47,4.41-1.65,9.09-2.2,13.69
			c-0.51,0.35-0.5,0.74-0.06,1.15c0,11.81-0.03,23.62,0.01,35.43c0.01,4.06,1.29,5.21,5.47,5.21c18.96,0.02,37.92-0.01,56.87,0.1
			c2.09,0.01,3.02-0.92,3.17-2.61c0.24-2.65,1.94-4.97,1.54-7.78c-0.13-0.93,0.45-1.95,0.76-3.15c0.65,1.08,0.48,2,0.42,2.86
			c-0.28,3.79-0.81,7.57-0.93,11.36c-0.2,6.36-1.16,12.62-2.25,18.86c-0.8,4.57-2.49,8.89-4.02,13.26
			c-2.27,6.49-5.41,12.5-9.26,18.17c-3.62,5.33-8.09,9.87-12.97,14.03c1.17,0.41,2.21,0.34,3.18,0.07
			c-0.97,0.27-2.01,0.34-3.18-0.07c-1.88,1.07-3.64,2.31-5.28,3.71v0c-1.73,1.35-1.19,3.05-0.69,4.71c0.48,1.58,1.81,1.52,3.13,1.52
			c23.25-0.02,46.5-0.02,69.75-0.01c2.41,0,4.81-0.18,7.16-0.69c11.15-2.46,19.59-8.89,26.61-17.7c5.63-7.06,9.65-14.93,12.56-23.33
			c1.22-3.53,2.06-7.28,2.58-11.1c0.92-6.66,2.23-13.26,2.37-19.99c0.04-1.85,0.63-2.23,2.33-2.22c10.53,0.05,21.07,0.04,31.6-0.03
			c4.75-0.03,9.27-1.09,13.23-3.84c7.1-4.93,11.58-11.88,14.67-19.77c2.46-6.28,3.49-12.92,3.6-19.62
			c0.17-10.98,0.05-21.97,0.04-32.95c0-0.96,0.14-1.98-0.73-2.72C373.31,296.37,372.71,295.07,370.51,295.07 M151.89,336.16
			c0.06-0.16,0.05-0.32-0.02-0.48C151.94,335.84,151.95,336,151.89,336.16 M190.66,448.68c0.31-0.13,0.71-0.15,0.94-0.37
			c0.55-0.51,1.14-0.94,1.75-1.35c-0.6,0.41-1.2,0.84-1.74,1.35C191.37,448.52,190.97,448.54,190.66,448.68 M200.58,442.22
			c0.62-0.56,1.01-1.18,0.15-2.13c-0.71-0.79-1.38-1.09-2.15-0.83c0.78-0.26,1.44,0.04,2.15,0.83
			C201.59,441.04,201.2,441.66,200.58,442.22 M288.45,113.54c0.19-0.06,0.37-0.12,0.56-0.17c1.41-0.12,2.84-0.06,4.22-0.59
			c-1.38,0.52-2.8,0.47-4.22,0.59C288.82,113.42,288.63,113.48,288.45,113.54 M198.67,115.42c0.07,0.23,0.2,0.35,0.36,0.41
			C198.87,115.77,198.74,115.65,198.67,115.42 M196.77,114.48c-0.16-0.06-0.28-0.19-0.36-0.42
			C196.49,114.29,196.61,114.41,196.77,114.48"/>
		<path class="st3" d="M770.42,312.21c-2.04-8.8-7.26-15.72-14.82-21.08c-7.05-4.99-15.25-6.94-23.99-7.03
			c-6.5-0.06-13.01-0.02-19.51-0.02c-0.9,0-1.84,0.15-2.5-0.65c0.6-2.73,0.43-5.5,0.29-8.24c-0.11-2.18,0.61-2.73,2.89-2.67
			c7.23,0.18,14.47,0.24,21.57-1.45c19.01-4.54,26.78-18.44,28.37-33.44c0.36-3.39-0.22-6.73-0.95-10.04
			c-0.38-1.58-0.55-3.23-1.18-4.71c-5.92-13.88-19.51-22.3-34.91-22.87c-6.36-0.23-12.73-0.07-19.09-0.03
			c-1.41,0.01-2.34-0.34-3.19-1.51c-4.6-6.33-10.51-11.3-18.03-14.43c-3.85-1.6-7.74-3.21-12.15-2.8c-0.96-0.63-2.13-0.4-3.18-0.69
			c-1.69-0.27-3.39-0.22-5.09-0.06c-0.44,0-0.88,0-1.32,0c-0.63,0.01-1.26,0.01-1.88,0.02c-4.11,0.32-8.23,0.74-12.15,1.96
			c-8.06,2.5-14.83,6.82-20.14,13.08c-0.65,0.77-1.32,1.6-2.61,1.17c-0.46-0.63-0.79-1.42-1.4-1.88
			c-6.94-5.21-14.81-7.74-23.77-7.07c-5.7,0.23-11.02,1.65-15.9,4.43c-10.7,6.09-16.78,15.49-20.81,26.16
			c-3.4,9.01-4.19,18.53-5.09,27.97c-0.65,6.7-0.18,13.45-0.48,20.16c-0.21,4.81,1.97,6.18,6.51,6.15
			c16.82-0.12,33.65-0.02,50.47-0.09c1.91-0.01,2.48,0.48,2.34,2.26c-0.19,2.32-0.94,4.6-0.65,6.94c0.23,1.86-0.52,2.39-2.53,2.37
			c-12.35-0.08-24.7-0.02-37.06-0.03c-1.91,0-3.76,0.24-5.6,0.7c-7.35,1.83-12.73,6.11-16.94,11.87
			c-4.98,6.81-8.24,14.34-8.66,22.52c-0.54,10.45-0.19,20.95-0.21,31.43c-0.01,4.21,2.04,6.09,6.63,6.1
			c12.96,0,25.92,0.01,38.87-0.01c4.85-0.01,9.7,0.11,14.54-0.25c0.98-0.07,1.89-0.21,2.27-1.09c0.75-1.74,1.86-3.31,2.51-5.11
			c0.86-2.38,0.67-4.96,1.71-7.48c0.64,0.84,0.44,1.56,0.39,2.22c-0.26,2.93-0.75,5.86-0.86,8.79c-0.23,6.13-1.41,12.15-2.45,18.17
			c-1.52,8.78-2.61,17.56-2.55,26.47c0.09,11.44,3.41,21.88,10.5,31.22c11.03,14.54,26,22.82,45.04,24.53h0
			c-0.01,0.1-0.03,0.2-0.07,0.31h9.55c-0.03-0.1-0.05-0.2-0.06-0.3c-3.14,0-6.27,0-9.41-0.01c3.13,0,6.27,0,9.41,0.01
			c4.95-0.41,9.73-1.43,14.41-3.05c7.66-2.64,14.43-6.61,20.67-11.43c4.83-3.73,8.43-8.49,11.45-13.5
			c4.14-6.88,6.95-14.29,7.27-22.33c0.96-0.15,0.84-0.69,0.55-1.3c-0.37,0.11-0.54,0.3-0.6,0.53c0.06-0.23,0.23-0.42,0.6-0.53
			c0.17-3.26,0.46-6.52-0.28-9.75c-0.38-0.16-0.38-0.45-0.32-0.77c-0.3-3.08-0.62-6.14-1.51-9.15c-1.44-4.88-3.83-9.36-6.32-13.82
			c-1.84-3.31-3.16-6.78-4.13-10.42c-0.55-2.09,0.37-2,1.93-2c5.9-0.01,11.81,0.25,17.7-0.32c7.47-0.73,14.7-2.24,20.84-6.52
			c11.87-8.27,16.39-19.7,15.9-33.18c-0.02-0.66-0.16-1.27-0.76-1.69C770.48,314.04,770.63,313.09,770.42,312.21"/>
		<path class="st3" d="M1133.41,296.72c6.75,0,12.23-3.11,16.45-9.33c4.22-6.22,6.34-14.3,6.34-24.22c0-9.96-2.11-18.07-6.34-24.33
			c-4.23-6.26-9.71-9.39-16.45-9.39c-6.7,0-12.15,3.13-16.37,9.39c-4.21,6.26-6.32,14.37-6.32,24.33c0,9.96,2.13,18.04,6.4,24.25
			C1121.4,293.61,1126.83,296.72,1133.41,296.72 M1130.05,257.14c0.86-1.38,1.99-2.08,3.36-2.08c1.41,0,2.54,0.68,3.42,2.05
			c0.88,1.37,1.31,3.16,1.31,5.4c0,2.19-0.44,3.98-1.31,5.34c-0.87,1.37-2.01,2.05-3.42,2.05c-1.38,0-2.5-0.68-3.36-2.05
			c-0.86-1.36-1.29-3.15-1.29-5.34C1128.75,260.32,1129.18,258.53,1130.05,257.14"/>
		<path class="st3" d="M1188.11,271.9v-7.77h11.01c0.59,0,1.08-0.75,1.08-1.68v-10.34c0-0.93-0.48-1.68-1.08-1.68h-11.01
			c0-2.73,0.47-4.93,1.41-6.58c0.94-1.65,2.26-2.48,3.94-2.48c1.69,0,3.3,0.96,4.82,2.88c0.77,0.97,1.91,0.12,1.91-1.42v-17.84
			c0-7.09-3.67-12.83-8.21-12.84l-2.39-0.01c-7.11,0-12.7,3.37-16.76,10.11c-4.06,6.74-6.09,16.14-6.09,28.19h-0.64
			c-2.18,0-3.95,2.77-3.95,6.18v5.84c0,0.93,0.48,1.68,1.08,1.68h3.52v13.2c-0.4,5.47-1.48,12.62-4.36,16.61
			c-0.52,0.72-0.09,1.81,0.73,1.81h3.64h0.2h5.91C1181.28,295.74,1188.11,285.07,1188.11,271.9"/>
		<path class="st3" d="M930.98,277.4c-2.37,0-4.48-0.94-6.32-2.81c-1.84-1.87-3.15-4.46-3.94-7.77h12.91
			c5.37,0,9.15-8.24,7.42-16.18c-0.96-4.42-2.47-8.31-4.52-11.65c-2.05-3.34-4.48-5.88-7.29-7.61c-2.81-1.73-5.86-2.59-9.15-2.59
			c-6.45,0-11.69,3.07-15.73,9.22c-4.04,6.15-6.06,14.1-6.06,23.84c0,10.25,2.2,18.51,6.6,24.79c4.39,6.28,10.21,9.41,17.44,9.41
			c3.84,0,7.29-0.92,10.34-2.75c6.01-3.61,9.83-12.93,9.83-22.98C939.62,275.05,935.77,277.4,930.98,277.4 M920.9,247.76
			c0.97-1.74,2.11-2.62,3.42-2.62c1.5,0,2.71,0.91,3.64,2.72c1.56,3.06,0.16,7.58-2.34,7.58h-2.46
			C920.62,255.45,919.24,250.78,920.9,247.76"/>
		<path class="st3" d="M1058.79,228.8c-6.7,0-12.16,3.13-16.37,9.39c-4.21,6.26-6.32,14.37-6.32,24.33c0,9.96,2.14,18.04,6.41,24.25
			c4.27,6.2,9.7,9.3,16.28,9.3c6.74,0,12.23-3.11,16.45-9.33c4.22-6.22,6.34-14.3,6.34-24.22c0-9.96-2.11-18.07-6.34-24.33
			C1071.02,231.93,1065.53,228.8,1058.79,228.8 M1062.21,267.21c-0.88,1.37-2.01,2.05-3.42,2.05c-1.38,0-2.51-0.68-3.37-2.05
			c-0.86-1.36-1.29-3.15-1.29-5.34c0-2.19,0.43-3.98,1.29-5.37c0.86-1.38,1.99-2.08,3.37-2.08c1.4,0,2.54,0.68,3.42,2.05
			c0.88,1.37,1.31,3.16,1.31,5.4C1063.52,264.06,1063.08,265.84,1062.21,267.21"/>
		<path class="st3" d="M874.28,212.77c-5.03,0-9.81,3.4-13.1,9.32l-4.37,7.84l-5.6-10.08c-2.5-4.49-6.12-7.07-9.92-7.07h-1.61
			c-8.31,0-15.05,10.53-15.05,23.51v23.62v4.01c-0.1,7.05-0.78,21.59-4.57,28.71c-0.52,0.99-0.09,2.46,0.73,2.46h3.84h6.97
			c9.04,0,16.37-11.46,16.37-25.58v-15.63l6.14,11.04c1.43,2.57,3.98,2.57,5.41,0l6.14-11.04v38.56c0,1.47,0.76,2.66,1.7,2.66h9.49
			c6.71,0,12.15-8.5,12.15-18.98v-40.37C888.99,223.06,882.41,212.77,874.28,212.77"/>
		<path class="st3" d="M1013.51,229.62c-2.99,0-5.68,0.9-8.06,2.7c-2.39,1.8-4.76,4.64-7.13,8.52c-2.9-7.48-7.38-11.22-13.43-11.22
			c-5.09,0-9.36,2.89-12.81,8.68v-3.7c0-2.45-1.27-4.44-2.84-4.44h-6.3c-6.73,0-12.19,8.53-12.19,19.05v25.88
			c-0.33,5.66-1.39,13.81-4.74,18.2c-0.56,0.73-0.1,1.83,0.78,1.83h3.96h0.14h8.37c7.09,0,12.83-8.97,12.83-20.04v-23.81
			c1.34-1.48,2.63-2.21,3.9-2.21c1.22,0,2.18,0.65,2.88,1.94c0.7,1.3,1.05,3.08,1.05,5.34v35.26c0,1.95,1.01,3.52,2.26,3.52h7.28
			c5.87,0,10.63-7.43,10.63-16.6v-27.36c1.29-1.4,2.59-2.1,3.9-2.1c1.17,0,2.12,0.64,2.85,1.91c0.73,1.28,1.09,3.07,1.09,5.37v35.26
			c0,1.95,1.01,3.52,2.26,3.52h7.28c5.87,0,10.63-7.43,10.63-16.6v-24.18c0-7.84-1.3-13.92-3.9-18.23
			C1021.58,231.78,1018.03,229.62,1013.51,229.62"/>
		<path class="st3" d="M950.72,270.56v2.8C950.76,271.65,950.72,270.56,950.72,270.56"/>
		<path class="st3" d="M1256.2,379.6c-1.12-2.88-2.61-5.03-4.49-6.47c-1.87-1.44-4.25-2.71-7.13-3.83
			c-2.83-1.12-4.57-2.16-5.23-3.13c-0.66-0.97-0.99-2.12-0.99-3.45c0-1.12,0.32-2.03,0.97-2.75c0.64-0.72,1.48-1.08,2.52-1.08
			c2.85,0,5.8,1.95,8.84,5.86c0.46,0.59,1.15,0.39,1.41-0.45l1.3-4.22c1.9-6.14-0.45-13.35-4.72-14.71
			c-3.22-1.02-6.73-1.53-10.52-1.53c-6.42,0-11.41,1.79-14.97,5.37c-3.55,3.58-5.33,8.6-5.33,15.08c0,3.35,0.58,6.44,1.74,9.28
			c1.16,2.84,2.62,4.99,4.37,6.45c1.75,1.46,3.99,2.8,6.73,4.02c2.71,1.22,4.39,2.33,5.02,3.32c0.63,0.99,0.95,2.15,0.95,3.48
			c0,1.37-0.38,2.48-1.12,3.35c-0.75,0.86-1.74,1.29-2.99,1.29c-2,0-4.04-0.87-6.11-2.62c-1.65-1.39-3.1-3.2-4.38-5.44
			c-0.45-0.79-1.28-0.52-1.54,0.46l-2.22,8.48c-1.08,4.13,0.29,8.91,3.01,10.26c6.06,3,12.03,4.5,17.9,4.5
			c5.5,0,9.99-1.93,13.45-5.8c3.47-3.87,5.2-9.14,5.2-15.83C1257.87,385.77,1257.32,382.48,1256.2,379.6"/>
		<path class="st3" d="M1200.03,392.44c-2.37,0-4.48-0.94-6.32-2.81c-1.84-1.87-3.15-4.46-3.94-7.77h12.91
			c5.37,0,9.15-8.24,7.43-16.18c-0.96-4.42-2.47-8.31-4.52-11.65c-2.05-3.34-4.48-5.88-7.29-7.61c-2.81-1.73-5.86-2.59-9.15-2.59
			c-6.45,0-11.69,3.07-15.73,9.22c-4.04,6.15-6.06,14.1-6.06,23.84c0,10.25,2.2,18.51,6.6,24.79c4.39,6.28,10.21,9.41,17.43,9.41
			c3.84,0,7.29-0.92,10.34-2.75c6.01-3.61,9.82-12.93,9.82-22.98C1208.66,390.08,1204.82,392.44,1200.03,392.44 M1189.95,362.8
			c0.97-1.74,2.11-2.62,3.42-2.62c1.49,0,2.71,0.91,3.64,2.72c1.56,3.06,0.16,7.58-2.34,7.58h-2.46
			C1189.66,370.48,1188.29,365.81,1189.95,362.8"/>
		<path class="st3" d="M1123.16,345.61c-5.16,0-9.09,4.93-11.81,14.78v-10.25c0-2.2-1.14-3.99-2.55-3.99h-6.04
			c-7.04,0-12.74,8.91-12.74,19.91v28.17c-0.46,5.1-1.62,11.52-4.57,15.16c-0.55,0.69-0.09,1.72,0.78,1.72h3.8h0.27h9
			c6.67,0,12.07-8.44,12.07-18.85v-5.37c0-7.62,1.06-12.84,3.18-15.64c2.39,3.96,5.27,5.94,8.63,5.94c2.95,0,5.34-1.47,7.17-4.4
			c1.83-2.93,2.74-6.77,2.74-11.52c0-4.53-0.93-8.27-2.79-11.22C1128.41,347.09,1126.03,345.61,1123.16,345.61"/>
		<path class="st3" d="M1089.99,386.57v2.8C1090.03,387.66,1089.99,386.57,1089.99,386.57"/>
		<path class="st3" d="M1148.74,344.64c-0.04,0-0.08,0-0.12,0h-0.14c-5.95-0.02-10.81,8.1-10.81,18.04v29.87
			c-0.39,5.21-1.47,12.06-4.37,15.87c-0.53,0.69-0.09,1.72,0.73,1.72h3.64h0.2h7.73c7.4,0,13.41-10.03,13.41-22.4v-26.4
			C1159,351.92,1154.36,344.6,1148.74,344.64"/>
		<path class="st3" d="M930.98,392.44c-2.37,0-4.48-0.94-6.32-2.81c-1.84-1.87-3.15-4.46-3.94-7.77h12.91
			c5.37,0,9.15-8.24,7.42-16.18c-0.96-4.42-2.47-8.31-4.52-11.65c-2.05-3.35-4.48-5.88-7.29-7.61c-2.81-1.73-5.86-2.59-9.15-2.59
			c-6.45,0-11.69,3.07-15.73,9.22c-4.04,6.15-6.06,14.1-6.06,23.84c0,10.25,2.2,18.51,6.6,24.79c4.39,6.28,10.21,9.41,17.44,9.41
			c3.84,0,7.29-0.92,10.34-2.75c6.01-3.61,9.83-12.93,9.83-22.98C939.62,390.08,935.77,392.44,930.98,392.44 M920.9,362.79
			c0.97-1.74,2.11-2.62,3.42-2.62c1.5,0,2.71,0.91,3.64,2.72c1.56,3.06,0.16,7.58-2.34,7.58h-2.46
			C920.62,370.48,919.24,365.81,920.9,362.79"/>
		<path class="st3" d="M1058.79,343.83c-6.7,0-12.16,3.13-16.37,9.39c-4.21,6.26-6.32,14.37-6.32,24.33
			c0,9.96,2.14,18.04,6.41,24.25c4.27,6.2,9.7,9.31,16.28,9.31c6.74,0,12.23-3.11,16.45-9.33c4.22-6.22,6.34-14.3,6.34-24.22
			c0-9.96-2.11-18.07-6.34-24.33C1071.02,346.96,1065.53,343.83,1058.79,343.83 M1062.21,382.24c-0.88,1.37-2.01,2.05-3.42,2.05
			c-1.38,0-2.51-0.68-3.37-2.05c-0.86-1.36-1.29-3.15-1.29-5.34c0-2.19,0.43-3.98,1.29-5.37c0.86-1.38,1.99-2.08,3.37-2.08
			c1.4,0,2.54,0.68,3.42,2.05c0.88,1.37,1.31,3.16,1.31,5.39C1063.52,379.1,1063.08,380.88,1062.21,382.24"/>
		<path class="st3" d="M874.28,327.81c-5.03,0-9.81,3.4-13.1,9.32l-4.37,7.84l-5.6-10.08c-2.5-4.49-6.12-7.07-9.92-7.07h-1.61
			c-8.31,0-15.05,10.53-15.05,23.51v23.62v4.01c-0.1,7.05-0.78,21.59-4.57,28.71c-0.52,0.99-0.09,2.46,0.73,2.46h3.84h6.97
			c9.04,0,16.37-11.46,16.37-25.59v-15.63l6.14,11.04c1.43,2.57,3.98,2.57,5.41,0l6.14-11.04v38.56c0,1.47,0.76,2.66,1.7,2.66h9.49
			c6.71,0,12.15-8.5,12.15-18.98v-40.37C888.99,338.1,882.41,327.81,874.28,327.81"/>
		<path class="st3" d="M1013.51,344.64c-2.99,0-5.68,0.9-8.06,2.7c-2.39,1.8-4.76,4.64-7.13,8.52c-2.9-7.48-7.38-11.22-13.43-11.22
			c-5.09,0-9.36,2.89-12.81,8.69v-3.71c0-2.45-1.27-4.44-2.84-4.44h-6.3c-6.73,0-12.19,8.53-12.19,19.05v24.96
			c-0.27,5.69-1.29,14.48-4.81,19.1c-0.57,0.74-0.1,1.84,0.78,1.84h4.03h0.08h8.43c7.09,0,12.83-8.97,12.83-20.04v-23.81
			c1.34-1.48,2.63-2.21,3.9-2.21c1.22,0,2.18,0.65,2.88,1.94c0.7,1.3,1.05,3.08,1.05,5.34v35.26c0,1.95,1.01,3.52,2.26,3.52h7.28
			c5.87,0,10.63-7.43,10.63-16.6v-27.36c1.29-1.4,2.59-2.1,3.9-2.1c1.17,0,2.12,0.64,2.85,1.91c0.73,1.28,1.09,3.07,1.09,5.37v35.26
			c0,1.95,1.01,3.52,2.26,3.52h7.28c5.87,0,10.63-7.43,10.63-16.6v-24.18c0-7.84-1.3-13.92-3.9-18.23
			C1021.58,346.8,1018.03,344.64,1013.51,344.64"/>
		<path class="st3" d="M950.72,388.39c0.03-1.71,0-2.8,0-2.8V388.39z"/>
		<path class="st3" d="M1052.22,336.52c-0.44,0.3-0.43,0.63-0.06,0.98C1052.52,337.2,1052.54,336.87,1052.22,336.52"/>
	</g>
</g>
</svg>
