<?xml version="1.0" encoding="utf-8"?>
<!-- Generator: Adobe Illustrator 23.1.0, SVG Export Plug-In . SVG Version: 6.00 Build 0)  -->
<svg version="1.1" xmlns="http://www.w3.org/2000/svg" xmlns:xlink="http://www.w3.org/1999/xlink" x="0px" y="0px"
	 viewBox="0 0 1280 800" style="enable-background:new 0 0 1280 800;" xml:space="preserve">
<style type="text/css">
	.st0{display:none;}
	.st1{display:inline;fill:#989898;}
	.st2{fill:#060001;}
	.st3{fill:#040000;}
	.st4{clip-path:url(#SVGID_2_);fill:url(#SVGID_3_);}
	.st5{fill:#939494;}
	.st6{fill:none;stroke:#231815;stroke-width:2.254;stroke-linecap:round;stroke-miterlimit:10;}
	.st7{fill:none;stroke:#231815;stroke-width:1.042;stroke-linecap:round;stroke-miterlimit:10;}
	.st8{fill:#C8C9CA;}
</style>
<g id="BG" class="st0">
	<rect x="-2729.46" y="-1746.52" class="st1" width="5423.46" height="2640.54"/>
</g>
<g id="圖層_2">
	<g>
		<polygon points="1023.85,423.68 1091.98,524.44 1058.97,566.52 985.87,462.99 		"/>
		<polygon points="894.11,133.76 841.94,133.76 840.2,139.18 839.88,133.76 665.89,132.51 651.52,186.86 584.87,438.72 
			635.85,438.82 702.1,189.21 827.9,189.21 761.87,438.72 815.66,438.82 881.92,189.21 878.97,189.21 		"/>
		<polygon points="403.79,106.03 174.56,104.46 165.54,140.36 165.36,140.38 86.41,438.72 140.21,438.82 213.82,161.48 
			335.71,161.48 262.35,438.72 314.48,438.82 388.09,161.48 388.65,161.48 		"/>
		<g>
			<defs>
				<path id="SVGID_1_" d="M428.53,22.86l-16.7,55.45h115.25l-95.02,359.1l-4.29,15.54c-2.2,7.97-9.45,13.49-17.71,13.49H150.78
					c-126.82,0-117.56,109.44-117.56,109.44c0,112.35,99.62,112.35,99.62,112.35h244.42c2.16,23.16-34.45,76.43-34.45,76.43
					c58.13-64.59,180.87-102.26,180.87-102.26c-78.05-20.47-186.79-98.14-186.79-98.14c38.21,36.99,40.92,68.51,40.92,68.51H150.03
					c-59.29,0-53.48-49.4-53.48-49.4c0-63.93,56.38-61.49,56.38-61.49h293.98c9.34,0,17.52-6.26,19.96-15.27l6.04-22.33
					L580.35,78.31h103.76l8.91-29.93V22.86H428.53z"/>
			</defs>
			<clipPath id="SVGID_2_">
				<use xlink:href="#SVGID_1_"  style="overflow:visible;"/>
			</clipPath>
			
				<linearGradient id="SVGID_3_" gradientUnits="userSpaceOnUse" x1="-243.6734" y1="-290.4052" x2="-239.8672" y2="-290.4052" gradientTransform="matrix(0 -126.8694 126.8694 0 37202.0078 -29908.1895)">
				<stop  offset="0" style="stop-color:#939494"/>
				<stop  offset="0.7426" style="stop-color:#939494"/>
				<stop  offset="0.7796" style="stop-color:#8E8F8F"/>
				<stop  offset="0.823" style="stop-color:#808181"/>
				<stop  offset="0.8694" style="stop-color:#696969"/>
				<stop  offset="0.9181" style="stop-color:#484949"/>
				<stop  offset="0.968" style="stop-color:#1F1F1F"/>
				<stop  offset="1" style="stop-color:#000000"/>
			</linearGradient>
			<rect x="23.96" y="22.86" class="st4" width="669.06" height="741.8"/>
		</g>
		<path class="st5" d="M376.72,688.23c2.16,23.15-34.45,76.44-34.45,76.44c58.13-64.59,180.87-102.28,180.87-102.28
			c-78.05-20.45-186.79-98.12-186.79-98.12c38.22,36.99,40.91,68.52,40.91,68.52H256.53v55.45H376.72z"/>
		<path d="M1032.98,76.76l27.1-55.3l-55.76,1.94L890.46,244.65l62.65-0.58l16.77-34.23l54.55,84.31L906.76,416.86
			c-30.41,31.71-72.09,49.58-115.61,49.58H580.85l-14.95,55.45h237.06c45.39,0,88.89-18.37,120.97-51.05l100.73-102.63l29.36-32.82
			l84.8,131.05h53.53l-108.97-168.63l144.92-162.02c3.01-3.38,5.22-7.46,6.4-11.87l12.23-45.61L1032.98,76.76z M1057.53,253.61
			l-63.14-97.71l13.6-27.75l-1.47,5.61h165.94L1057.53,253.61z"/>
		<path d="M164.11,313.29c0,0,37.96-84.85,118.88-114.9c0,0-40.62-28.94-38.37-105.82c0,0-44.05,66.95-120.11,96.25
			C124.51,188.82,172.54,220.58,164.11,313.29"/>
		<path class="st6" d="M164.11,313.29c0,0,37.96-84.85,118.88-114.9c0,0-40.62-28.94-38.37-105.82c0,0-44.05,66.95-120.11,96.25
			C124.51,188.82,172.54,220.58,164.11,313.29z"/>
		<path d="M281.06,180.94c0,0,17.26-39.35,54.56-53.52c0,0-18.88-13.23-18.11-48.78c0,0-20.13,31.1-55.18,44.91
			C262.34,123.55,284.64,138.07,281.06,180.94"/>
		<path class="st7" d="M281.06,180.94c0,0,17.26-39.35,54.56-53.52c0,0-18.88-13.23-18.11-48.78c0,0-20.13,31.1-55.18,44.91
			C262.34,123.55,284.64,138.07,281.06,180.94z"/>
		<path class="st8" d="M284,164.2c0,0,13.25-28.67,40.86-38.54c0,0-13.68-9.99-12.58-36.09c0,0-15.25,22.55-41.21,32.19
			C271.07,121.75,287.24,132.75,284,164.2"/>
		<path d="M735.56,597.54c0,0-65.29-60.01-134.86,28.69c0,0-53.42,72.87,8.23,122.33c0,0,50.79,41.54,122.01-2.63
			c0,0,43.53-32.33,17.15-66.29c0,0-21.43-24.4-59.02,4.95c0,0-26.71,7.25-11.88-14.83c0,0,9.9-18.46,26.71-6.27
			c0,0,22.1,12.53,39.58-20.44C743.48,643.05,751.06,612.38,735.56,597.54"/>
		<path d="M818.34,638.24c-0.02,0-55.88-8.82-24.7,108.23c2.58,9.71,9.01,21.29,16.62,27.81c11.46,9.8,25.57,1.08,32.39-9.73
			c8.4-13.29,5.95-30.99,6.02-45.96c0.08-22.22,1.22-60.69-18.74-75.96C826.32,639.87,822.7,638.93,818.34,638.24"/>
		<path d="M1118.48,626.52c0,0-32.46-48.68-58.76-32.65c0,0-45.04,26.08,25.42,75.3c0,0-19.26,28.22-52.61,50.03
			c0,0-41.7,24.38-3.85,50.04c0,0,38.48,22.61,87.04-31.19c0,0,112.98-121.33,60.51-181.13c0,0-38.49-25.66-48.75,37.21
			C1127.48,594.13,1124.59,613.44,1118.48,626.52"/>
		<path d="M852.65,621.01c-9.02,14.25-31.29,16.34-49.71,4.69c-18.42-11.67-26.03-32.69-17.01-46.94
			c9.04-14.26,31.29-16.36,49.71-4.69C854.07,585.74,861.68,606.75,852.65,621.01"/>
		<path d="M974.29,605.78c0,0-17.31-71.54-53.88-54.05c0,0-19.73,11.23-3.86,37.69c0,0,12.04,21.65,11.06,28.86
			c0,0-60.13,7.71-52.91,40.91c0,0,4.81,38,67.83,26.94v69.77c0,0-2.4,17.88,19.26,22.65c0,0,26.53,0.44,27.93-27.46
			c0,0,1.01-61.59,0-71.21c0,0,38.94-14.43,33.16-50.51C1022.88,629.36,1019.04,602.42,974.29,605.78"/>
		<path class="st8" d="M239.97,106.91c0,0-35.1,57.29-100.72,80.72c0,0,32.17,28.83,36.19,93.14c0,0,45.9-68.64,92.82-85.21
			C268.26,195.55,233.07,177.27,239.97,106.91"/>
		<path class="st5" d="M694.32,641.25c0.54,0.21,1.1,0.4,1.65,0.58c8.69,2.81,18.56,0.53,25.67-5.03c9.84-7.72,9-16.76,3.45-27.27
			c-3.15-5.95-7.95-11.02-13.68-14.54c-10.73-6.57-24.09-7.93-36.44-5.61s-23.83,8.05-34.39,14.89
			c-14.82,9.58-28.31,21.57-38.02,36.31c-9.7,14.75-15.48,32.37-14.52,50c0.97,17.62,9.06,35.1,23.05,45.87
			c18.44,14.21,43.97,15.18,66.89,11.09c21.75-3.88,43.5-12.26,58.63-28.35c5.53-5.88,8.98-12.46,10.15-20.45
			c1.18-7.99-1.47-15-8.32-19.28c-7.57-4.73-16.47-3.91-24.31-0.65c-13.03,5.39-22.07,14.19-36.6,18.62
			c-6.97,2.12-13.1,2.61-19.93,3.28c-6.82,0.68-14.82-4.13-17.31-10.52c-1.44-3.69-0.93-7.84-0.04-11.71
			c3.38-14.81,12.05-28.35,24.07-37.64c3.45-2.68,7.37-5.07,11.73-5.42C682.46,634.91,688.23,638.91,694.32,641.25"/>
		<path class="st5" d="M846.29,606.5c-4.16,10.71-19.57,14.71-34.42,8.94c-14.86-5.78-23.51-19.14-19.35-29.84
			c4.17-10.71,19.57-14.72,34.43-8.94C841.8,582.42,850.45,595.79,846.29,606.5"/>
		<path class="st5" d="M795.77,705.33c0,0-11.21-47.45,12.59-57.36c0,0,26.38-9.95,26.88,43.84l0.72,39.34
			c0,0-2.19,23.45-15.54,25.68c0,0-13.46,6.78-21.84-28.19L795.77,705.33z"/>
		<path class="st5" d="M899.25,673.68c0,0-36.29-10.19-11.84-35.24c0,0,23.23-15.47,92.26-23.9c0,0,24.22-1.47,30.64,17.5
			c0,0,2.15,21.46-30.18,30.11C980.13,662.16,938.78,672.67,899.25,673.68"/>
		<path class="st5" d="M1119.41,639.58l-31.26-31.3c0,0-14.84-13.53-26.63-1.75c0,0-16.59,19.13,8.29,36.63l21.83,21
			c0,0,9.29,18.08-52.72,62.61c0,0-28.65,12.67-10.76,30.9c2.73,2.79,10.91,4.09,14.21,3.81c19.21-1.66,34.79-15.19,48.81-27.17
			c17.94-15.32,33.17-36.23,47.31-55.13c10.6-14.16,20.32-29.57,26.93-46.04c0.02,0,28.99-72.04-6.38-73.79
			c0,0-15.4,1.86-21.55,31.01C1137.5,590.38,1129.45,634.34,1119.41,639.58"/>
	</g>
</g>
</svg>
