<?xml version="1.0" encoding="utf-8"?>
<!-- Generator: Adobe Illustrator 23.1.0, SVG Export Plug-In . SVG Version: 6.00 Build 0)  -->
<svg version="1.1" xmlns="http://www.w3.org/2000/svg" xmlns:xlink="http://www.w3.org/1999/xlink" x="0px" y="0px"
	 viewBox="0 0 1006.84 800" style="enable-background:new 0 0 1006.84 800;" xml:space="preserve">
<style type="text/css">
	.st0{display:none;}
	.st1{display:inline;fill:#989898;}
	.st2{fill:#060001;}
	.st3{fill:#040000;}
	.st4{clip-path:url(#SVGID_2_);fill:url(#SVGID_3_);}
	.st5{fill:#939494;}
	.st6{fill:none;stroke:#231815;stroke-width:2.254;stroke-linecap:round;stroke-miterlimit:10;}
	.st7{fill:none;stroke:#231815;stroke-width:1.042;stroke-linecap:round;stroke-miterlimit:10;}
	.st8{fill:#C8C9CA;}
</style>
<g id="BG" class="st0">
	<rect x="-4174.38" y="-89.83" class="st1" width="5423.46" height="2640.54"/>
</g>
<g id="圖層_2">
	<g>
		<path d="M484.58,382.04c3.87-33.06,2.07-73.57-15.49-115.29c-0.03-0.08-0.06-0.15-0.09-0.23c-0.09-0.26-0.37-1.03-0.82-2.18
			c-20.88-47.09-59.82-43.72-59.82-43.72h-46.41c-12.05,1.21-3.06-6.88-3.06-6.88l22.51-22.5l37.24-47.99
			c1.66-2.41,2.69-6.4,2.69-6.4l0.01,0.01c2.76-10.73,0.39-19,0.39-19c-3.78-13.95-19.34-16.5-27.22-16.88h-4.62h-77.63
			c-0.21,0-0.41,0.02-0.61,0.04c-2.27,0.3-17.01,1.91-12.37-7.38c0,0,4.62-10.85,5.02-28.73c0,0,1.61-42.49-42.44-52.2
			c-0.11-0.02-0.22-0.05-0.33-0.06c-2.95-0.47-41.14-6.01-56.31,22.23c-0.11,0.2-0.2,0.4-0.28,0.61
			c-1.78,4.65-23.63,60.8-52.13,83.42c-0.12,0.1-0.24,0.2-0.35,0.31c-1.83,1.82-18.73,18.59-28.75,24.39
			c-0.52,0.3-1.09,0.47-1.68,0.56c-3.96,0.54-20.26,3.73-20.44,19.79c0,0-0.81,32.35,28.52,35.76c0,0,41.04,3.99,71.74-18
			c0.24-0.17,0.46-0.37,0.67-0.58c1.5-1.56,8.75-8.6,15.72-7.06c0.35,0.08,0.7,0.13,1.06,0.13h78.13c0.09,0,0.17,0,0.25-0.01
			c0.98-0.05,8.01-0.31,8.57,3.23l0.06,0c0,0-0.02,0.04-0.02,0.06c-0.01,0.02-0.01,0.02-0.03,0.06c0.06,0.52-0.01,1.11-0.25,1.79
			c0,0-1.08,1.88-3.05,4.74c0.54-0.93,1-1.79,1.41-2.56l-15.59,20.67l-8.74,11.61h-0.01l-2.45,3.25c-0.13,0.17-0.28,0.34-0.43,0.49
			l-2.37,2.37c-0.75,0.75-1.74,1.23-2.8,1.35c-17.92,1.96-37.71,3.44-58.89,3.99c0,0-27.13,1.78-41.08,0.43
			c-0.2-0.02-0.39-0.05-0.58-0.09c-2.22-0.5-17.13-3.57-27.85,0.46c0,0-35.17,9.59-30.97,48.71c0.02,0.2,0.05,0.39,0.1,0.58
			c0.72,3.14,7.09,33.09-1.27,68.44c0,0-17.84,87.62-58.74,110.03c-0.08,0.04-0.15,0.08-0.23,0.12
			c-2.47,1.24-45.17,23.45-27.13,73.95c0.08,0.22,0.17,0.44,0.29,0.65c2.09,3.92,23.56,41.79,68.54,33.03
			c0,0,45.73-8.02,67.45-51.32c0.03-0.08,0.07-0.14,0.1-0.21c0.93-2.05,15.44-33.88,22.74-39.95c0.17-0.14,0.31-0.31,0.46-0.47
			c2.73-2.64,18.16-15.62,56.61-14.99c1.36-0.04,9.67-0.48,19.11-5.23v0.02c11.88-5.39,36.11-12.05,64.23,4.61
			c0,0,8.29,3.31,13.11,10.7c0,0,3.32,4.07,7.53-0.9c0,0,3.17-4.82,7.99-3.31c0,0,6.33,1,4.37,8.04l0.81-0.01l-0.86,0.15
			c0.06,0.12-0.09,0.38-0.1,0.55c-3.02,9.8-9.36,10.93-13.78,10.37c-14.44-7.83-24.72-16.52-24.72-16.52
			c-20.89-13.26-43.39-6.83-43.39-6.83c-36.56,6.43-44.4,38.87-44.4,38.87l0.03,0.01c-11.34,28.13,18.85,50.92,18.85,50.92
			c50.63,40.99,129.18,23.91,129.18,23.91c43.61-15.91,69.43-57.79,84.57-98h-0.02c17.36-46.11,20.69-90.02,20.69-90.02
			L484.58,382.04z M243.48,395.01c-2.45,8.74-17.19,7.33-17.19,7.33h-40.46c-4.14-0.6-6.09-2.36-6.09-2.36
			c-3.51-2.91-2.01-5.53-2.01-5.53c1.76-8.94,6.77-28.73,6.77-28.73c1.51-7.63,12.05-7.03,12.05-7.03l23.84,0.2l13.42,0.05
			c11.29,0.3,12.8,8.44,12.8,8.44C249.06,373.72,243.48,395.01,243.48,395.01 M247.19,319.62c-2.38,8.74-16.74,7.33-16.74,7.33
			h-39.4c-4.03-0.6-5.93-2.36-5.93-2.36c-3.42-2.91-1.95-5.53-1.95-5.53c1.71-8.94,6.6-28.73,6.6-28.73
			c1.47-7.63,11.73-7.03,11.73-7.03l23.21,0.2l13.07,0.05c10.99,0.3,12.46,8.44,12.46,8.44
			C252.63,298.33,247.19,319.62,247.19,319.62 M362.81,395.01c-2.45,8.74-17.19,7.33-17.19,7.33h-40.46
			c-4.14-0.6-6.09-2.36-6.09-2.36c-3.51-2.91-2.01-5.53-2.01-5.53c1.76-8.94,6.77-28.73,6.77-28.73c1.51-7.63,12.05-7.03,12.05-7.03
			l23.84,0.2l13.43,0.05c11.29,0.3,12.8,8.44,12.8,8.44C368.4,373.72,362.81,395.01,362.81,395.01 M366.53,319.62
			c-2.38,8.74-16.74,7.33-16.74,7.33h-39.4c-4.03-0.6-5.93-2.36-5.93-2.36c-3.42-2.91-1.96-5.53-1.96-5.53
			c1.71-8.94,6.6-28.73,6.6-28.73c1.47-7.63,11.73-7.03,11.73-7.03l23.21,0.2l13.07,0.05c10.99,0.3,12.46,8.44,12.46,8.44
			C371.97,298.33,366.53,319.62,366.53,319.62"/>
		<path d="M986.04,382.04c3.87-33.06,2.07-73.57-15.49-115.29c-0.03-0.08-0.06-0.15-0.09-0.23c-0.09-0.26-0.37-1.03-0.82-2.18
			c-20.88-47.09-59.82-43.72-59.82-43.72h-46.41c-12.05,1.21-3.06-6.88-3.06-6.88l22.51-22.5l37.24-47.99
			c1.66-2.41,2.69-6.4,2.69-6.4s0.01,0.01,0.01,0.01c2.76-10.73,0.39-19,0.39-19c-3.78-13.95-19.34-16.5-27.22-16.88h-4.62h-77.63
			c-0.21,0-0.41,0.02-0.61,0.04c-2.27,0.3-17.01,1.91-12.37-7.38c0,0,4.62-10.85,5.02-28.73c0,0,1.61-42.49-42.44-52.2
			c-0.11-0.02-0.22-0.05-0.33-0.06c-2.95-0.47-41.14-6.01-56.31,22.23c-0.11,0.2-0.2,0.4-0.28,0.61
			c-1.78,4.65-23.63,60.8-52.13,83.42c-0.12,0.1-0.24,0.2-0.35,0.31c-1.83,1.82-18.73,18.59-28.75,24.39
			c-0.52,0.3-1.09,0.47-1.68,0.56c-3.96,0.54-20.26,3.73-20.44,19.79c0,0-0.81,32.35,28.52,35.76c0,0,41.04,3.99,71.74-18
			c0.24-0.17,0.46-0.37,0.67-0.58c1.5-1.56,8.75-8.6,15.72-7.06c0.35,0.08,0.7,0.13,1.06,0.13h78.13c0.09,0,0.17,0,0.25-0.01
			c0.98-0.05,8.01-0.31,8.57,3.23l0.06,0c0,0-0.02,0.04-0.02,0.06c-0.01,0.02-0.01,0.02-0.03,0.06c0.06,0.52-0.01,1.11-0.25,1.79
			c0,0-1.08,1.88-3.05,4.74c0.54-0.93,1-1.79,1.41-2.56l-15.59,20.67l-8.74,11.61h-0.01l-2.45,3.25c-0.13,0.17-0.28,0.34-0.43,0.49
			l-2.37,2.37c-0.75,0.75-1.74,1.23-2.8,1.35c-17.92,1.96-37.71,3.44-58.89,3.99c0,0-27.13,1.78-41.08,0.43
			c-0.2-0.02-0.39-0.05-0.58-0.09c-2.22-0.5-17.13-3.57-27.85,0.46c0,0-35.17,9.59-30.97,48.71c0.02,0.2,0.05,0.39,0.1,0.58
			c0.72,3.14,7.09,33.09-1.27,68.44c0,0-17.84,87.62-58.74,110.03c-0.08,0.04-0.15,0.08-0.23,0.12
			c-2.47,1.24-45.17,23.45-27.13,73.95c0.08,0.22,0.17,0.44,0.29,0.65c2.09,3.92,23.56,41.79,68.54,33.03
			c0,0,45.73-8.02,67.45-51.32c0.03-0.08,0.07-0.14,0.1-0.21c0.93-2.05,15.44-33.88,22.74-39.95c0.17-0.14,0.31-0.31,0.46-0.47
			c2.73-2.64,18.16-15.62,56.61-14.99c1.36-0.04,9.67-0.48,19.11-5.23v0.02c11.88-5.39,36.11-12.05,64.23,4.61
			c0,0,8.29,3.31,13.11,10.7c0,0,3.32,4.07,7.53-0.9c0,0,3.17-4.82,7.99-3.31c0,0,6.33,1,4.37,8.04l0.81-0.01l-0.86,0.15
			c0.06,0.12-0.09,0.38-0.1,0.55c-3.02,9.8-9.36,10.93-13.78,10.37c-14.44-7.83-24.72-16.52-24.72-16.52
			c-20.89-13.26-43.39-6.83-43.39-6.83c-36.56,6.43-44.4,38.87-44.4,38.87l0.03,0.01c-11.34,28.13,18.85,50.92,18.85,50.92
			c50.63,40.99,129.18,23.91,129.18,23.91c43.61-15.91,69.43-57.79,84.57-98h-0.02c17.36-46.11,20.69-90.02,20.69-90.02
			L986.04,382.04z M744.94,395.01c-2.45,8.74-17.19,7.33-17.19,7.33h-40.46c-4.14-0.6-6.08-2.36-6.08-2.36
			c-3.51-2.91-2.01-5.53-2.01-5.53c1.76-8.94,6.77-28.73,6.77-28.73c1.51-7.63,12.05-7.03,12.05-7.03l23.84,0.2l13.42,0.05
			c11.29,0.3,12.8,8.44,12.8,8.44C750.52,373.72,744.94,395.01,744.94,395.01 M748.65,319.62c-2.38,8.74-16.74,7.33-16.74,7.33
			h-39.4c-4.03-0.6-5.93-2.36-5.93-2.36c-3.42-2.91-1.95-5.53-1.95-5.53c1.71-8.94,6.6-28.73,6.6-28.73
			c1.47-7.63,11.73-7.03,11.73-7.03l23.21,0.2l13.07,0.05c10.99,0.3,12.46,8.44,12.46,8.44
			C754.09,298.33,748.65,319.62,748.65,319.62 M864.27,395.01c-2.45,8.74-17.19,7.33-17.19,7.33h-40.46
			c-4.14-0.6-6.09-2.36-6.09-2.36c-3.51-2.91-2.01-5.53-2.01-5.53c1.76-8.94,6.77-28.73,6.77-28.73c1.51-7.63,12.05-7.03,12.05-7.03
			l23.84,0.2l13.43,0.05c11.29,0.3,12.8,8.44,12.8,8.44C869.86,373.72,864.27,395.01,864.27,395.01 M867.99,319.62
			c-2.38,8.74-16.74,7.33-16.74,7.33h-39.4c-4.03-0.6-5.93-2.36-5.93-2.36c-3.42-2.91-1.96-5.53-1.96-5.53
			c1.71-8.94,6.6-28.73,6.6-28.73c1.47-7.63,11.73-7.03,11.73-7.03l23.21,0.2l13.07,0.05c10.99,0.3,12.46,8.44,12.46,8.44
			C873.43,298.33,867.99,319.62,867.99,319.62"/>
		<path d="M454.58,710.75c-2.87-12.53-10.82-24.2-22.3-29.42c-17.94-8.17-39.1-1.09-54.91,12.86
			c-18.48,16.3-29.66,41.97-19.88,63.62c2.22,4.9,5.3,9.41,9.17,13.08c13.09,12.41,31.89,18.25,51.22,12.91
			c12.66-3.51,22.61-15.53,29.53-26.84C455.49,743.71,458.05,725.93,454.58,710.75 M418.21,737.55
			c-4.76,8.25-13.72,11.99-20.02,8.35s-7.53-13.26-2.77-21.51c4.76-8.25,13.72-11.99,20.02-8.35
			C421.73,719.67,422.97,729.3,418.21,737.55"/>
		<path d="M248,725.55h0.02l-0.01-0.02C248.01,725.54,248.01,725.54,248,725.55"/>
		<path d="M271.92,750.89c0.08,0.03,0.13,0.07,0.21,0.07l-0.05-0.02C272.08,750.94,271.99,750.92,271.92,750.89"/>
		<path d="M271.92,750.89c0.08,0.03,0.13,0.07,0.21,0.07l-0.05-0.02C272.08,750.94,271.99,750.92,271.92,750.89"/>
		<path d="M271.92,750.89c0.08,0.03,0.13,0.07,0.21,0.07l-0.05-0.02C272.08,750.94,271.99,750.92,271.92,750.89"/>
		<path d="M200.81,660.61c11.04,0,19.98-6.28,19.98-14.01c0-7.74-8.94-14.01-19.98-14.01c-11.04,0-19.98,6.28-19.98,14.01
			C180.83,654.33,189.77,660.61,200.81,660.61"/>
		<path d="M224.99,768.94c-0.68-2.16-2.29-3.71-3.55-5.5c-3.15-4.46-4.16-10.5-3.9-16.24c0.26-5.74,1.68-11.31,2.87-16.89
			c1.56-7.26,2.77-14.63,3.62-22.05c0.91-7.9,1.26-16.58-2.66-23.16c-3.45-5.77-9.74-8.74-15.83-8.72
			c-6.09,0.03-11.98,2.73-17.16,6.4c-2.55,1.81-4.99,3.88-7.05,6.38c-3.05,3.71-5.24,8.35-6.27,13.31
			c-1.01,4.84-0.77,10.43,2.1,14.16c0.68,0.89,1.53,1.52,2.46,1.94c1.44,0.57,4.9,1.24,8.71-3.2c0,0,6.35-7.38,9.42-10.56
			c0.8-0.83,3.34-3.3,5.21-2.34c0.97,0.5,0.77,2.36-0.72,3.62c-4.11,3.49-9.09,7-15.07,15.09c-4.17,6.46-7.03,11.75-9.83,20.15
			c-2.22,6.67-4.2,13.58-4.35,20.71c-0.15,7.13,1.74,14.61,6.26,19.5c4.52,4.88,11.09,6.59,17.29,6.14c6.19-0.44,12.14-2.8,18-5.13
			c2.79-1.11,5.66-2.27,7.87-4.52S226,772.12,224.99,768.94"/>
		<path d="M271.92,750.89c0.08,0.03,0.13,0.07,0.21,0.07l-0.05-0.02C272.08,750.94,271.99,750.92,271.92,750.89"/>
		<path d="M343.08,760.27c-10.47-19.61-3.39-45.34-14.67-64.49c-11.59-19.68-39.54-24.69-60.77-16.27
			c-13.33,5.29-24.55,15.31-26.15,29.56c-0.91,8.05,4.24,15.26,4.24,15.26c10.68-14.76,29.12-22.77,43.98-21.16
			c5.83,0.63,11.28,3.07,15.79,6.73c2.57,2.09,2.63,3.43,1.7,3.99c-1.9,1.16-4.74-1.98-8.9-3.85c-20.5-9.19-40.73,6.16-48.1,16.02
			c-13.39,17.9-6.26,44.36,4.61,52.66c6.15,4.7,11.87,6.58,17.96,7.75c10.08,1.93,20.98,0.45,29.65-5.04
			c4.75-3,8.69-7.29,11.38-12.21c0.08-0.15,0.15-0.29,0.23-0.44l0.15,1.96c0.16,4.63,4,8.74,8.45,10.34
			c4.86,1.75,10.22,1.18,15.33,0.42c3.03-0.45,6.31-1.1,8.32-3.41C350.51,773.22,346.13,765.98,343.08,760.27 M284.87,757.63
			c-8.57-3.84-10.05-13.52-6.71-18.85c6.95-11.07,18.15-7.37,21.91-2.94c7.52,8.86,3.03,16.74-0.26,19.34
			C295.33,758.71,288.99,759.47,284.87,757.63"/>
		<path d="M117.47,767.41c0,0.01,0.02,0,0.02,0.01l-0.08-0.12C117.43,767.34,117.45,767.37,117.47,767.41"/>
		<path d="M156.66,702.42c-0.35-5.39-0.94-10.99-3.75-15.6c-2.37-3.88-6.15-6.74-10.21-8.79c-12.52-6.32-31.32-5.8-41.19-2.8
			c-6.54,1.98-13.7,3.63-23.41,14.08c-5.19,5.6-8.43,14.56-2.36,20.93c1.46,1.53,3.34,2.61,5.32,3.34
			c7.97,2.94,16.72,1.32,24.46-1.86c6.97-2.86,13.36-6.2,20.08-10.34c0,0,11.71-8.29,18.54-9.47c0.4-0.07,2.38-0.4,2.65,0.71
			c0.35,1.45-1.43,1.93-1.85,1.98c-3.48,0.42-8.93,2.62-16.93,9.09c2.77,4,7.44,15.67,4.36,26.67c-3.93,14.08-20.9,20.53-20.9,20.53
			s4.52,8.4,7.35,15.86c0.15,0.38,0.54,1.64-0.06,1.9c-0.79,0.33-1.27-0.26-2.03-1.33c-1.13-1.6-4.13-13.87-15.62-25.07
			c-3.99-3.89-13.58-13.11-31.97-18.34c-11.59-3.29-24.65-2.86-34.91,3.44c-10.27,6.31-16.95,18.82-14.67,30.65
			c1.79,9.33,8.72,17.1,17.02,21.72c9.86,5.48,21.5,7.01,32.63,7.61c17.32,0.93,34.63-0.55,51.76-3.28
			c8.27-1.32,18.31-1.58,24.97-7.43c5.98-5.25,7.76-13.72,8.85-21.6C157.18,737.59,157.81,719.95,156.66,702.42"/>
		<path d="M957.56,711.08c-2.87-12.53-10.83-24.2-22.3-29.42c-17.94-8.17-39.1-1.09-54.91,12.86
			c-18.48,16.3-29.66,41.97-19.88,63.62c2.22,4.9,5.3,9.41,9.17,13.08c13.09,12.41,31.89,18.25,51.22,12.91
			c12.66-3.51,22.61-15.53,29.53-26.84C958.47,744.03,961.03,726.25,957.56,711.08 M921.19,737.87
			c-4.76,8.25-13.72,11.99-20.02,8.35s-7.53-13.26-2.77-21.51c4.76-8.25,13.72-11.99,20.02-8.35
			C924.7,719.99,925.95,729.62,921.19,737.87"/>
		<path d="M750.98,725.87h0.02l-0.01-0.02C750.99,725.86,750.99,725.87,750.98,725.87"/>
		<path d="M774.9,751.21c0.08,0.03,0.13,0.07,0.21,0.07l-0.05-0.02C775.06,751.26,774.97,751.24,774.9,751.21"/>
		<path d="M774.9,751.21c0.08,0.03,0.13,0.07,0.21,0.07l-0.05-0.02C775.06,751.26,774.97,751.24,774.9,751.21"/>
		<path d="M774.9,751.21c0.08,0.03,0.13,0.07,0.21,0.07l-0.05-0.02C775.06,751.26,774.97,751.24,774.9,751.21"/>
		<path d="M703.79,660.93c11.04,0,19.98-6.28,19.98-14.01s-8.94-14.01-19.98-14.01c-11.04,0-19.98,6.28-19.98,14.01
			S692.75,660.93,703.79,660.93"/>
		<path d="M727.97,769.26c-0.68-2.16-2.29-3.71-3.55-5.5c-3.15-4.46-4.16-10.5-3.9-16.24c0.26-5.74,1.68-11.31,2.87-16.89
			c1.56-7.26,2.77-14.63,3.62-22.05c0.91-7.9,1.26-16.58-2.66-23.16c-3.45-5.77-9.74-8.74-15.83-8.72
			c-6.09,0.03-11.98,2.73-17.16,6.4c-2.55,1.81-4.99,3.88-7.05,6.38c-3.05,3.71-5.24,8.35-6.27,13.31
			c-1.01,4.84-0.77,10.43,2.1,14.16c0.68,0.89,1.53,1.52,2.46,1.94c1.44,0.57,4.9,1.24,8.71-3.2c0,0,6.35-7.38,9.42-10.56
			c0.8-0.83,3.34-3.3,5.21-2.34c0.97,0.5,0.77,2.36-0.72,3.62c-4.11,3.49-9.09,7-15.07,15.09c-4.17,6.46-7.03,11.75-9.83,20.15
			c-2.22,6.67-4.2,13.58-4.35,20.71s1.74,14.61,6.26,19.5c4.52,4.88,11.09,6.59,17.29,6.14c6.19-0.44,12.14-2.8,18-5.13
			c2.79-1.11,5.66-2.27,7.87-4.52C727.59,776.11,728.97,772.44,727.97,769.26"/>
		<path d="M774.9,751.21c0.08,0.03,0.13,0.07,0.21,0.07l-0.05-0.02C775.06,751.26,774.97,751.24,774.9,751.21"/>
		<path d="M846.06,760.6c-10.47-19.61-3.39-45.34-14.67-64.49c-11.59-19.68-39.54-24.69-60.77-16.27
			c-13.33,5.29-24.55,15.31-26.15,29.56c-0.91,8.05,4.24,15.26,4.24,15.26c10.68-14.76,29.12-22.77,43.98-21.16
			c5.83,0.63,11.28,3.07,15.79,6.73c2.57,2.09,2.63,3.43,1.7,3.99c-1.9,1.16-4.74-1.98-8.9-3.85c-20.5-9.19-40.73,6.16-48.1,16.02
			c-13.39,17.9-6.26,44.36,4.61,52.66c6.15,4.7,11.87,6.58,17.96,7.75c10.08,1.93,20.98,0.45,29.65-5.04
			c4.75-3,8.69-7.29,11.38-12.21c0.08-0.15,0.15-0.29,0.23-0.44l0.15,1.96c0.16,4.63,4,8.74,8.45,10.34
			c4.86,1.75,10.22,1.18,15.33,0.42c3.03-0.45,6.31-1.1,8.32-3.41C853.49,773.54,849.1,766.3,846.06,760.6 M787.85,757.95
			c-8.57-3.84-10.05-13.52-6.71-18.85c6.95-11.07,18.15-7.37,21.91-2.94c7.52,8.86,3.03,16.74-0.26,19.34
			C798.31,759.03,791.96,759.79,787.85,757.95"/>
		<path d="M620.44,767.73c0,0.01,0.02,0,0.02,0.01l-0.08-0.12C620.41,767.66,620.43,767.7,620.44,767.73"/>
		<path d="M659.64,702.74c-0.35-5.39-0.94-10.99-3.75-15.6c-2.37-3.88-6.15-6.74-10.21-8.79c-12.52-6.32-31.32-5.8-41.19-2.8
			c-6.54,1.98-13.7,3.63-23.41,14.08c-5.19,5.6-8.43,14.56-2.36,20.93c1.46,1.53,3.34,2.61,5.32,3.34
			c7.97,2.94,16.72,1.32,24.46-1.86c6.97-2.86,13.36-6.2,20.08-10.34c0,0,11.71-8.29,18.54-9.47c0.4-0.07,2.38-0.4,2.65,0.71
			c0.35,1.45-1.43,1.93-1.85,1.98c-3.48,0.42-8.93,2.62-16.93,9.09c2.77,4,7.44,15.67,4.36,26.67c-3.93,14.09-20.9,20.54-20.9,20.54
			s4.52,8.4,7.35,15.86c0.15,0.38,0.54,1.64-0.06,1.9c-0.79,0.33-1.27-0.26-2.03-1.33c-1.13-1.6-4.13-13.87-15.62-25.07
			c-3.99-3.89-13.58-13.11-31.97-18.34c-11.59-3.29-24.65-2.86-34.91,3.44c-10.27,6.31-16.95,18.82-14.67,30.65
			c1.79,9.33,8.72,17.1,17.02,21.72c9.86,5.48,21.5,7.01,32.63,7.61c17.32,0.93,34.63-0.55,51.76-3.28
			c8.27-1.32,18.31-1.58,24.97-7.43c5.98-5.25,7.76-13.72,8.85-21.6C660.15,737.91,660.79,720.27,659.64,702.74"/>
	</g>
</g>
</svg>
