<?xml version="1.0" encoding="utf-8"?>
<!-- Generator: Adobe Illustrator 23.1.0, SVG Export Plug-In . SVG Version: 6.00 Build 0)  -->
<svg version="1.1" xmlns="http://www.w3.org/2000/svg" xmlns:xlink="http://www.w3.org/1999/xlink" x="0px" y="0px"
	 viewBox="0 0 1097.21 800" style="enable-background:new 0 0 1097.21 800;" xml:space="preserve">
<style type="text/css">
	.st0{display:none;}
	.st1{display:inline;fill:#989898;}
	.st2{fill:#060001;}
	.st3{fill:#040000;}
	.st4{clip-path:url(#SVGID_2_);fill:url(#SVGID_3_);}
	.st5{fill:#939494;}
	.st6{fill:none;stroke:#231815;stroke-width:2.254;stroke-linecap:round;stroke-miterlimit:10;}
	.st7{fill:none;stroke:#231815;stroke-width:1.042;stroke-linecap:round;stroke-miterlimit:10;}
	.st8{fill:#C8C9CA;}
</style>
<g id="BG" class="st0">
	<rect x="-1512.51" y="-1746.52" class="st1" width="5423.46" height="2640.54"/>
</g>
<g id="圖層_2">
	<g>
		<rect x="417.67" y="95.83" width="48.38" height="219.04"/>
		<path d="M349.27,81.61v14.22V33.25h-48.38v48c-0.01,14.58-14.22,14.58-14.22,14.58h-53.81h-7.2h-41.18v219.03h48.38h170.31v-12.1
			H247.15c-10.72,0-13.55-7.68-14.3-11.75v-26.28c0-14.59,14.22-14.59,14.22-14.59h156.08v-12.1h-156
			c-10.72,0-13.55-7.67-14.31-11.74v-32.69c0-14.59,14.22-14.59,14.22-14.59h156.08v-12.1H247.43c-14.58,0-14.58-14.22-14.58-14.22
			v-30.21c0-14.59,14.22-14.59,14.22-14.59h156.08V95.83h-39.3C349.27,95.83,349.27,81.61,349.27,81.61"/>
		<path d="M863.85,434.34h-17.67c-14.59,0-14.59-14.22-14.59-14.22v-36.98h-36.29v36.62c0,14.59-14.22,14.59-14.22,14.59H746v12.1
			h70.23c0,0,10.6,0.66,6.36,11.35l7.59-11.35l-94.59,141.51h36.29l100.52-153.61H863.85z"/>
		<polygon points="795.32,664.75 831.6,664.75 831.6,513.99 795.32,568.18 		"/>
		<path d="M944.66,496.56c0,14.59-14.22,14.59-14.22,14.59h-36.52v12.1h50.74v115.55c0,14.59-14.22,14.59-14.22,14.59h-61.51v12.1
			h112.02v-0.72V383.14h-36.29V496.56z"/>
		<rect x="993.04" y="511.15" width="38.65" height="12.1"/>
		<rect x="993.04" y="653.37" width="63.63" height="12.1"/>
		<polygon points="849.81,517.19 849.63,565.19 888.67,565.19 		"/>
		<path d="M830.71,95.83h-6.75c-0.98-0.01-2.17-0.02-3.54,0h-9.88v0.4c-17.69,1.18-46.87,5.57-74.8,20.64l0.08-83.62h-36.28v177.61
			c-4.33,1.88-8.74,3.9-13.21,6.09v-70.89h-15.88v68.72c-32.86-14.99-66.29-17.86-82.6-18.28v-78.26
			c0.6-4.27,3.16-10.01,12.54-10.46c18.36,1.65,46.95,6.85,72.79,22.7l5.85-9.55c-35.62-21.83-75.12-24.84-91.19-25.08v-0.01h-0.72
			c-1.25-0.01-2.34-0.01-3.26,0h-16.23c-8.89,0-16.1,7.19-16.12,16.08l-0.55,190.86h-0.03v12.1h295.84v-8.53l0.04-194.38
			C846.83,103.05,839.61,95.83,830.71,95.83 M810.44,285.82l0.1,0.03v0C810.51,285.85,810.48,285.83,810.44,285.82 M810.55,274.93
			l-0.12-0.25c0,0-0.08,8.79-8.48,8.89c-28.54-6.33-52.01,0.06-66.37,6.31l0.07-80.25c35.49-10.6,62.89-11.11,74.89-10.63V274.93z
			 M823.24,302.77h-89.05C748.19,295.21,781.35,282.69,823.24,302.77 M735.73,129.76c18.67-11.16,38.69-16.88,55.19-19.78
			c19.01-1.32,19.46,18.6,19.46,18.6l0.16-0.4v59.56c-12.83-0.55-39.83,0-74.88,10.11L735.73,129.76z M699.54,223.13v79.64h-13.21
			v-73.31C690.79,227.19,695.2,225.08,699.54,223.13 M657.28,302.77h-89.05C582.23,295.21,615.39,282.69,657.28,302.77
			 M670.45,227.68v69.33c-30.3-17.02-57.39-18.04-77.79-14.19c-4.75-2.14-4.81-8.14-4.81-8.14v-66.5
			C604.09,208.69,638.44,211.79,670.45,227.68"/>
		<path d="M98.39,511.04c-1.87,11.45-13.95,11.48-13.95,11.48h-37.6v12.1h32.15c0,0,7.1-0.09,4.85,6.71l2.01-6.71L50.3,653.38h27.01
			l21.08-84.95v96.33h36.29v-184.9H98.39V511.04z"/>
		<polygon points="192.26,479.85 192.26,664.75 228.55,664.75 226.66,451.41 		"/>
		<polygon points="193.36,468.4 226.67,440.74 226.67,425.85 192.53,453.58 		"/>
		<path d="M263.38,431.13c0,14.59-14.22,14.59-14.22,14.59h-17.42v12.1h31.64v41.59c0,14.59-14.22,14.59-14.22,14.59h-17.42v12.1
			h31.64v41.59c0,14.59-14.22,14.59-14.22,14.59h-17.42v12.1h31.64v44.43c0,14.59-14.22,14.59-14.22,14.59h-17.42v12.1h67.64v-0.72
			h0.29V383.14h-36.29V431.13z"/>
		<path d="M192.53,434.34h-43.27c-14.59,0-14.59-14.22-14.59-14.22v-36.98H98.39v36.62c0,14.59-14.22,14.59-14.22,14.59H40.53v12.1
			h152V434.34z"/>
		<rect x="311.28" y="445.72" width="26.32" height="12.1"/>
		<rect x="311.28" y="513.99" width="26.32" height="12.1"/>
		<rect x="311.28" y="582.26" width="26.32" height="12.1"/>
		<rect x="311.28" y="653.37" width="26.32" height="12.1"/>
		<rect x="146.77" y="522.52" width="39.45" height="12.1"/>
		<polygon points="149.71,602.17 181.19,602.17 149.86,556.66 		"/>
		<path d="M95.81,462.79H69.24c-1.23,24.18-17.64,36.49-20.31,37.92c-1.9,1.02-1.66,1.39-1.03,1.51c0.54,0.1,1.36,0.03,1.36,0.03
			c10.53-1.88,19.01-6.4,25.7-11.73l-0.03,9.46H88.2l-8.3-13.84C91.15,475.1,95.81,462.79,95.81,462.79"/>
		<path d="M139.97,500.71c-1.9,1.02-1.66,1.39-1.03,1.51c0.53,0.1,1.36,0.03,1.36,0.03c10.53-1.88,19.01-6.4,25.7-11.73l-0.03,9.45
			h13.26l-8.3-13.84c11.25-11.03,15.91-23.35,15.91-23.35h-26.57C159.04,486.96,142.63,499.27,139.97,500.71"/>
		<path d="M531.04,434.34h-43.27c-14.59,0-14.59-14.22-14.59-14.22v-36.98H436.9v36.62c0,14.59-14.22,14.59-14.22,14.59h-43.63v12.1
			h152V434.34z"/>
		<path d="M604.73,482.38c-0.03,14.47-14.08,14.54-14.21,14.54h-20.58v12.09h71.08v-12.09h0v-50.49h0v-12.1h0v-51.2h-36.29v36.66
			c-0.03,14.54-14.22,14.54-14.22,14.54h-43.63v12.1h57.85V482.38z"/>
		<rect x="402.11" y="467.27" width="105.86" height="14.51"/>
		<rect x="402.11" y="504.25" width="105.86" height="14.51"/>
		<rect x="653.11" y="434.34" width="45.76" height="12.1"/>
		<rect x="653.11" y="496.92" width="22.7" height="12.1"/>
		<polygon points="627.56,611.24 663.9,611.24 627.73,572.03 		"/>
		<polygon points="529.46,622.44 556.8,622.44 556.67,587.95 		"/>
		<polygon points="684.08,615.13 719.66,610.28 679.63,581.29 		"/>
		<path d="M455.04,537.1c-35.45,0-64.18,28.74-64.18,64.18c0,35.45,28.74,64.18,64.18,64.18c35.45,0,64.19-28.74,64.19-64.18
			C519.22,565.84,490.49,537.1,455.04,537.1 M460.19,647.6c-28.43,0-51.47-23.04-51.47-51.47s23.04-51.47,51.47-51.47
			c28.43,0,51.47,23.04,51.47,51.47S488.62,647.6,460.19,647.6"/>
		<path d="M604.73,639.15V546h-36.29v107.38v12.1h36.29h94.14v-12.1h-79.55C604.73,653.37,604.73,639.15,604.73,639.15"/>
		<path d="M463.1,603.59c0-3.52-2.01-6.53-4.93-8.06v-24.65h-8.4v24.65c-2.92,1.53-4.93,4.54-4.93,8.06c0,5.04,4.09,9.13,9.13,9.13
			c0.75,0,1.47-0.12,2.17-0.29l10.4,12.99l6.56-5.25l-10.63-13.28C462.86,605.87,463.1,604.76,463.1,603.59"/>
		<path d="M124.58,737.67c0,1.52,0.01,2.85,0.03,3.97c0.02,1.13,0.05,2.17,0.09,3.11c0.04,0.95,0.09,1.84,0.15,2.68
			c0.06,0.84,0.13,1.71,0.22,2.62c-0.49-0.09-1.01-0.17-1.54-0.25c-0.53-0.08-1.23-0.13-2.1-0.13c-0.82,0-1.47,0.04-1.94,0.13
			c-0.47,0.08-0.95,0.16-1.45,0.25c0.2-3.16,0.37-6.43,0.49-9.8c0.12-3.37,0.18-7.07,0.18-11.09c0-1.48-0.01-3.16-0.03-5.06
			c-0.02-1.89-0.05-3.82-0.09-5.79c-0.04-1.98-0.09-3.9-0.16-5.79c-0.06-1.89-0.13-3.58-0.22-5.05c0.87,0.08,1.64,0.15,2.34,0.21
			c0.7,0.06,1.42,0.1,2.16,0.12c0.74,0.02,1.54,0.03,2.4,0.03h3.02c2.05,0,3.77-0.01,5.15-0.03c1.38-0.02,2.53-0.04,3.45-0.06
			c0.93-0.02,1.69-0.05,2.31-0.09c0.62-0.04,1.21-0.1,1.79-0.18c-0.08,0.33-0.14,0.66-0.18,0.98c-0.04,0.33-0.06,0.72-0.06,1.17
			c0,0.45,0.02,0.83,0.06,1.14c0.04,0.31,0.1,0.63,0.18,0.96c-1.32-0.21-3.04-0.4-5.18-0.59c-2.14-0.18-4.48-0.28-7.02-0.28h-1.91
			c-0.66,0-1.33,0.02-2.03,0.06c-0.04,0.62-0.07,1.16-0.09,1.63c-0.02,0.47-0.03,0.96-0.03,1.48v1.73v2.31v2.47v1.82
			c0,0.55,0.01,1.11,0.03,1.66c0.02,0.55,0.03,1.24,0.03,2.06h3.92c1.34,0,2.65-0.01,3.94-0.03c1.29-0.02,2.55-0.07,3.76-0.15
			c1.21-0.08,2.31-0.19,3.3-0.31c-0.08,0.33-0.15,0.66-0.19,0.98c-0.04,0.33-0.06,0.72-0.06,1.18c0,0.45,0.02,0.81,0.06,1.08
			c0.04,0.27,0.1,0.57,0.19,0.89c-1.81-0.28-3.61-0.47-5.39-0.55c-1.79-0.08-3.34-0.12-4.65-0.12c-0.91,0-1.75,0.01-2.53,0.03
			c-0.78,0.02-1.56,0.05-2.34,0.09L124.58,737.67z"/>
		<path d="M186.76,725.83c-0.41-0.21-0.84-0.39-1.29-0.55c-0.45-0.16-1.09-0.25-1.91-0.25c-0.86,0-1.64,0.12-2.34,0.37
			c-0.7,0.25-1.29,0.56-1.79,0.93c-0.49,0.37-0.89,0.76-1.2,1.17c-0.31,0.41-0.54,0.76-0.71,1.05c-0.21,0.5-0.38,0.98-0.53,1.45
			c-0.14,0.47-0.25,1.09-0.31,1.85c-0.06,0.76-0.1,1.73-0.12,2.93c-0.02,1.19-0.03,2.73-0.03,4.62v1.75c0,0.84,0.02,1.6,0.06,2.25
			c0.04,1.07,0.08,1.93,0.12,2.59c0.04,0.66,0.07,1.2,0.09,1.64c0.02,0.43,0.04,0.82,0.06,1.17c0.02,0.35,0.03,0.77,0.03,1.27
			c-0.45-0.13-0.91-0.22-1.38-0.28c-0.47-0.06-1.12-0.09-1.94-0.09c-0.74,0-1.32,0.03-1.75,0.09c-0.43,0.06-0.87,0.16-1.32,0.28
			c0.12-0.99,0.22-1.91,0.3-2.78c0.08-0.86,0.16-1.85,0.22-2.96c0.06-1.11,0.1-2.45,0.12-4.01c0.02-1.56,0.03-3.55,0.03-5.98
			c0-1.73-0.01-3.25-0.03-4.59c-0.02-1.33-0.06-2.56-0.12-3.67c-0.06-1.11-0.12-2.16-0.19-3.14c-0.06-0.99-0.11-1.97-0.15-2.96
			c0.45,0.12,0.91,0.22,1.39,0.28c0.47,0.06,1.06,0.09,1.76,0.09c0.7,0,1.27-0.03,1.73-0.09c0.45-0.06,0.93-0.15,1.42-0.28
			c-0.25,1.73-0.39,3.17-0.43,4.35c-0.04,1.17-0.06,2.04-0.06,2.62c0.25-0.62,0.63-1.37,1.17-2.25c0.53-0.88,1.23-1.71,2.09-2.49
			c0.86-0.78,1.94-1.42,3.23-1.91c1.3-0.5,2.84-0.66,4.65-0.5c-0.12,0.45-0.25,1-0.37,1.63c-0.12,0.64-0.18,1.43-0.18,2.37v0.64
			c0,0.23,0.04,0.59,0.12,1.08L186.76,725.83z"/>
		<path d="M218.92,735.08c0,0.45,0.01,0.99,0.03,1.6c0.02,0.61,0.08,1.28,0.19,2c0.1,0.72,0.27,1.47,0.49,2.25
			c0.22,0.78,0.54,1.52,0.95,2.22c0.7,1.15,1.46,2.06,2.28,2.71s1.63,1.14,2.43,1.45c0.8,0.31,1.54,0.49,2.22,0.56
			c0.68,0.06,1.24,0.09,1.69,0.09c1.52,0,2.83-0.2,3.94-0.59c1.11-0.39,2.06-0.86,2.87-1.42c0.8-0.56,1.44-1.11,1.91-1.67
			c0.47-0.55,0.83-1,1.08-1.32l0.74,0.18c-0.21,0.86-0.32,1.57-0.34,2.13c-0.02,0.55-0.05,1.08-0.09,1.57
			c-1.35,1.32-2.98,2.31-4.87,2.99c-1.89,0.68-4.09,1.02-6.59,1.02c-2.34,0-4.45-0.36-6.31-1.08c-1.87-0.71-3.45-1.75-4.75-3.08
			c-1.29-1.34-2.29-2.95-2.99-4.84c-0.7-1.89-1.05-4.02-1.05-6.4c0-2.14,0.3-4.15,0.89-6.04c0.59-1.89,1.5-3.55,2.71-4.96
			c1.21-1.41,2.74-2.55,4.59-3.39c1.85-0.84,4.05-1.26,6.6-1.26c2.3,0,4.23,0.3,5.79,0.89c1.56,0.6,2.84,1.37,3.85,2.31
			c1.01,0.94,1.77,2,2.28,3.17c0.51,1.17,0.89,2.32,1.14,3.45c0.25,1.13,0.38,2.19,0.4,3.17c0.02,0.98,0.03,1.74,0.03,2.28H218.92z
			 M234.88,732.49c0-0.49-0.04-1.3-0.12-2.43c-0.08-1.13-0.35-2.27-0.8-3.42c-0.45-1.15-1.18-2.17-2.19-3.05
			c-1.01-0.88-2.44-1.32-4.28-1.32c-2.71,0-4.74,0.93-6.07,2.8c-1.34,1.87-2.15,4.35-2.43,7.42H234.88z"/>
		<path d="M274.13,735.08c0,0.45,0.01,0.99,0.03,1.6c0.02,0.61,0.08,1.28,0.19,2c0.1,0.72,0.27,1.47,0.49,2.25
			c0.22,0.78,0.55,1.52,0.96,2.22c0.7,1.15,1.46,2.06,2.28,2.71c0.82,0.66,1.63,1.14,2.43,1.45c0.8,0.31,1.54,0.49,2.22,0.56
			c0.68,0.06,1.24,0.09,1.7,0.09c1.52,0,2.83-0.2,3.94-0.59c1.11-0.39,2.06-0.86,2.86-1.42c0.8-0.56,1.44-1.11,1.91-1.67
			c0.47-0.55,0.83-1,1.08-1.32l0.74,0.18c-0.21,0.86-0.32,1.57-0.34,2.13c-0.02,0.55-0.05,1.08-0.09,1.57
			c-1.35,1.32-2.98,2.31-4.86,2.99c-1.89,0.68-4.09,1.02-6.59,1.02c-2.34,0-4.45-0.36-6.31-1.08c-1.87-0.71-3.45-1.75-4.75-3.08
			c-1.29-1.34-2.29-2.95-2.99-4.84c-0.7-1.89-1.05-4.02-1.05-6.4c0-2.14,0.3-4.15,0.89-6.04c0.59-1.89,1.5-3.55,2.71-4.96
			c1.21-1.41,2.74-2.55,4.59-3.39c1.85-0.84,4.05-1.26,6.59-1.26c2.3,0,4.23,0.3,5.79,0.89c1.56,0.6,2.85,1.37,3.85,2.31
			c1.01,0.94,1.77,2,2.28,3.17c0.51,1.17,0.89,2.32,1.14,3.45c0.25,1.13,0.38,2.19,0.4,3.17c0.02,0.98,0.03,1.74,0.03,2.28H274.13z
			 M290.09,732.49c0-0.49-0.04-1.3-0.12-2.43c-0.08-1.13-0.35-2.27-0.8-3.42c-0.46-1.15-1.18-2.17-2.19-3.05
			c-1.01-0.88-2.44-1.32-4.29-1.32c-2.71,0-4.73,0.93-6.07,2.8c-1.34,1.87-2.15,4.35-2.43,7.42H290.09z"/>
		<path d="M322.87,735.45c0-2.42,0.35-4.61,1.05-6.56c0.7-1.95,1.67-3.62,2.92-4.99c1.25-1.38,2.73-2.43,4.45-3.17
			c1.72-0.74,3.59-1.11,5.6-1.11c1.43,0,2.71,0.18,3.84,0.55c1.13,0.37,2.11,0.83,2.95,1.39c0.84,0.55,1.53,1.17,2.06,1.85
			c0.53,0.68,0.92,1.33,1.17,1.94c0.04-3.49,0.05-7.08,0.03-10.75c-0.02-3.68-0.11-7.02-0.28-10.01c0.46,0.08,0.9,0.16,1.34,0.25
			c0.44,0.08,1.03,0.12,1.78,0.12c0.75,0,1.38-0.04,1.9-0.12c0.52-0.08,1.02-0.16,1.52-0.25c-0.2,4.35-0.36,8.68-0.46,12.97
			c-0.1,4.29-0.15,8.62-0.15,12.97c0,3.21,0.01,6.46,0.03,9.77c0.02,3.31,0.07,6.56,0.15,9.77c-0.46-0.09-0.88-0.17-1.27-0.25
			c-0.4-0.08-0.95-0.13-1.65-0.13c-0.71,0-1.28,0.04-1.71,0.13c-0.43,0.08-0.88,0.16-1.34,0.25c0.08-1.15,0.13-2.16,0.15-3.02
			c0.02-0.86,0.03-1.52,0.03-1.97c-1.03,1.89-2.48,3.34-4.36,4.34c-1.89,1.01-3.91,1.51-6.08,1.51c-1.56,0-3.14-0.3-4.76-0.9
			c-1.62-0.59-3.08-1.52-4.39-2.77c-1.31-1.25-2.39-2.86-3.23-4.81C323.29,740.49,322.87,738.16,322.87,735.45 M337.63,747.77
			c1.72,0,3.13-0.3,4.24-0.89c1.1-0.6,2-1.37,2.7-2.31c0.29-0.37,0.57-0.8,0.86-1.29c0.29-0.49,0.55-1.12,0.8-1.87
			c0.25-0.76,0.45-1.67,0.62-2.74c0.16-1.07,0.25-2.36,0.25-3.87c0-1.23-0.08-2.46-0.25-3.69c-0.16-1.23-0.53-2.39-1.1-3.5
			c-1.03-1.92-2.23-3.22-3.62-3.87c-1.39-0.65-2.76-0.98-4.12-0.98c-1.47,0-2.71,0.25-3.72,0.77c-1,0.51-1.83,1.17-2.49,1.97
			c-0.65,0.8-1.16,1.69-1.5,2.67c-0.35,0.98-0.6,1.94-0.77,2.86c-0.16,0.93-0.26,1.75-0.28,2.49c-0.02,0.74-0.03,1.27-0.03,1.6
			c0,2.33,0.25,4.3,0.77,5.9c0.51,1.6,1.17,2.9,1.97,3.9c0.8,1,1.7,1.73,2.7,2.18C335.65,747.54,336.65,747.77,337.63,747.77"/>
		<path d="M397.37,719.73c2.92,0,5.4,0.44,7.46,1.32c2.05,0.88,3.73,2.05,5.02,3.48c1.29,1.44,2.23,3.06,2.8,4.87
			c0.58,1.81,0.86,3.66,0.86,5.54c0,2.46-0.4,4.67-1.2,6.63c-0.8,1.95-1.92,3.63-3.36,5.02c-1.44,1.4-3.14,2.46-5.11,3.21
			c-1.97,0.74-4.13,1.11-6.47,1.11c-1.64,0-3.38-0.22-5.2-0.65c-1.83-0.43-3.51-1.23-5.05-2.4c-1.54-1.17-2.83-2.76-3.85-4.78
			c-1.03-2.01-1.54-4.6-1.54-7.77c0-2.38,0.38-4.54,1.14-6.47c0.76-1.93,1.83-3.58,3.21-4.93c1.37-1.35,3.03-2.39,4.96-3.11
			C392.95,720.09,395.07,719.73,397.37,719.73 M397.74,722.2c-1.64,0-3.02,0.28-4.13,0.83c-1.11,0.55-2.02,1.26-2.74,2.12
			c-0.72,0.86-1.27,1.81-1.67,2.84c-0.39,1.02-0.68,2.02-0.86,2.99c-0.18,0.96-0.29,1.83-0.31,2.59c-0.02,0.76-0.03,1.28-0.03,1.57
			c0,4.31,0.86,7.61,2.59,9.89c1.73,2.28,4.01,3.42,6.84,3.42c1.48,0,2.82-0.31,4.04-0.93c1.21-0.62,2.24-1.5,3.08-2.65
			c0.84-1.15,1.5-2.53,1.97-4.16c0.47-1.62,0.71-3.46,0.71-5.51c0-1.19-0.12-2.54-0.37-4.04c-0.25-1.5-0.71-2.92-1.39-4.25
			c-0.68-1.33-1.63-2.45-2.87-3.36C401.37,722.65,399.75,722.2,397.74,722.2"/>
		<path d="M455.47,723.43c-1.07,0-2.07,0.21-3.02,0.65c-0.94,0.43-1.79,1.22-2.53,2.37c-0.37,0.58-0.67,1.2-0.89,1.88
			c-0.23,0.68-0.4,1.46-0.52,2.34c-0.12,0.88-0.2,1.91-0.21,3.08c-0.02,1.17-0.04,2.54-0.04,4.1c0,1.56,0.04,3.4,0.09,5.52
			c0.06,2.12,0.22,4.35,0.46,6.69c-0.62-0.12-1.17-0.22-1.66-0.28c-0.49-0.06-1.01-0.09-1.54-0.09c-0.54,0-1.04,0.03-1.51,0.09
			c-0.47,0.06-1.04,0.16-1.69,0.28c0.08-2.26,0.14-4.09,0.18-5.49c0.04-1.4,0.08-2.58,0.12-3.55c0.04-0.96,0.06-1.83,0.06-2.58
			v-2.68c0-1.11-0.01-2.08-0.03-2.93c-0.02-0.84-0.04-1.78-0.06-2.83c-0.02-1.05-0.06-2.34-0.12-3.88
			c-0.06-1.54-0.13-3.59-0.22-6.13c0.45,0.08,0.91,0.16,1.39,0.25c0.47,0.08,1.02,0.12,1.63,0.12c0.57,0,1.13-0.04,1.66-0.12
			c0.53-0.08,1.03-0.16,1.48-0.25c-0.08,0.41-0.17,1.1-0.25,2.07c-0.08,0.97-0.12,2.06-0.12,3.3c1.4-2.22,2.94-3.7,4.62-4.44
			c1.68-0.74,3.31-1.11,4.87-1.11c2.1,0,3.95,0.43,5.55,1.3c1.6,0.86,2.81,2.28,3.63,4.25c0.62-1.03,1.33-1.89,2.13-2.59
			c0.8-0.7,1.65-1.27,2.56-1.69c0.9-0.43,1.83-0.75,2.77-0.96c0.94-0.2,1.85-0.31,2.71-0.31c0.45,0,1,0.04,1.66,0.12
			c0.66,0.09,1.35,0.24,2.09,0.46c0.74,0.23,1.48,0.55,2.22,0.96c0.74,0.41,1.39,0.96,1.97,1.66c0.82,1.02,1.33,2.08,1.54,3.17
			c0.21,1.09,0.31,2.06,0.31,2.93c0,0.16-0.01,0.72-0.03,1.66c-0.02,0.94-0.03,2-0.03,3.14c0,1.15-0.01,2.26-0.03,3.33
			c-0.02,1.07-0.03,1.81-0.03,2.22c0,1.81,0.04,3.58,0.12,5.33c0.08,1.75,0.16,3.5,0.25,5.27c-0.66-0.12-1.23-0.22-1.73-0.28
			c-0.49-0.06-1.01-0.09-1.54-0.09c-1.07,0-2.12,0.12-3.14,0.37c0.12-1.48,0.23-2.82,0.31-4.01c0.08-1.19,0.14-2.3,0.19-3.32
			c0.04-1.03,0.06-2.01,0.06-2.96v-2.89c0-2.01-0.02-3.64-0.06-4.87c-0.04-1.23-0.1-2.22-0.19-2.96c-0.08-0.74-0.2-1.33-0.37-1.76
			c-0.16-0.43-0.37-0.85-0.61-1.26c-0.66-1.07-1.46-1.77-2.41-2.1c-0.94-0.33-1.83-0.49-2.65-0.49c-1.81,0-3.2,0.4-4.19,1.2
			c-0.99,0.8-1.73,1.79-2.22,2.96c-0.49,1.17-0.79,2.41-0.89,3.7c-0.1,1.29-0.15,2.43-0.15,3.42c0,2.34,0.05,4.87,0.15,7.58
			c0.1,2.71,0.22,5.3,0.34,7.77c-0.49-0.12-0.95-0.22-1.39-0.28c-0.43-0.06-1.08-0.09-1.94-0.09c-0.82,0-1.44,0.03-1.85,0.09
			c-0.41,0.06-0.82,0.16-1.23,0.28c0.21-1.98,0.34-4.12,0.4-6.44c0.06-2.32,0.09-4.57,0.09-6.74c0-0.58-0.01-1.35-0.03-2.31
			c-0.02-0.96-0.07-1.96-0.15-2.99c-0.09-1.03-0.19-2.01-0.31-2.96c-0.12-0.94-0.31-1.66-0.56-2.16c-0.33-0.62-0.71-1.13-1.14-1.54
			c-0.43-0.41-0.89-0.71-1.38-0.92c-0.49-0.21-1-0.35-1.51-0.43C456.4,723.47,455.92,723.43,455.47,723.43"/>
		<path d="M596.82,750.05c0-1.11-0.07-2.62-0.21-4.53c-0.14-1.91-0.31-3.99-0.49-6.22c-0.19-2.24-0.39-4.54-0.62-6.91
			c-0.23-2.36-0.43-4.53-0.62-6.5c-0.18-1.97-0.35-3.63-0.49-4.99c-0.14-1.36-0.23-2.18-0.28-2.46c-2.22,4.03-4.39,8.05-6.5,12.08
			c-2.12,4.03-4.2,8.09-6.25,12.2c-0.49,0.98-0.89,1.83-1.2,2.53c-0.3,0.7-0.58,1.32-0.83,1.88c-0.25,0.55-0.46,1.05-0.65,1.51
			c-0.19,0.45-0.36,0.92-0.53,1.42c-0.41-0.09-0.7-0.12-0.86-0.12c-0.12,0-0.25,0.01-0.37,0.03c-0.13,0.02-0.27,0.05-0.43,0.09
			c-0.58-1.28-1.06-2.36-1.45-3.27c-0.39-0.91-0.87-1.89-1.45-2.96c-1.07-2.1-2.18-4.23-3.33-6.41c-1.15-2.17-2.29-4.33-3.42-6.47
			c-1.13-2.14-2.25-4.22-3.36-6.25c-1.11-2.03-2.18-3.93-3.2-5.7c-0.25,1.56-0.48,3.28-0.71,5.15c-0.23,1.87-0.43,3.8-0.62,5.79
			c-0.18,1.99-0.36,3.99-0.52,5.98c-0.16,2-0.3,3.88-0.4,5.67c-0.1,1.78-0.17,3.42-0.22,4.9c-0.04,1.48-0.06,2.67-0.06,3.58
			c-0.49-0.12-0.9-0.22-1.23-0.28c-0.33-0.06-0.7-0.09-1.11-0.09c-0.61,0-1.18,0.04-1.69,0.13c-0.52,0.08-0.94,0.16-1.26,0.25
			c0.08-0.5,0.28-1.58,0.58-3.27c0.31-1.69,0.66-3.74,1.05-6.16c0.39-2.42,0.81-5.1,1.26-8.04c0.45-2.94,0.89-5.91,1.32-8.94
			c0.43-3.02,0.83-5.95,1.2-8.81c0.37-2.86,0.68-5.41,0.92-7.67c0.41,0.08,0.76,0.12,1.05,0.12c0.16,0,0.36-0.01,0.58-0.03
			c0.23-0.02,0.44-0.05,0.65-0.09c0.29,0.7,0.84,1.85,1.66,3.45c0.82,1.6,1.78,3.45,2.87,5.54c1.09,2.09,2.27,4.34,3.54,6.75
			c1.27,2.41,2.53,4.72,3.76,6.97c1.23,2.24,2.37,4.28,3.42,6.13c1.05,1.85,1.9,3.31,2.56,4.38c1.64-3.08,3.07-5.73,4.28-7.95
			c1.21-2.22,2.26-4.15,3.14-5.79c0.88-1.64,1.64-3.06,2.28-4.25c0.63-1.19,1.22-2.29,1.76-3.3c0.53-1.01,1.05-1.98,1.54-2.92
			c0.49-0.94,1.05-1.99,1.66-3.14c0.37-0.74,0.68-1.34,0.93-1.82c0.25-0.47,0.46-0.91,0.65-1.32c0.18-0.41,0.37-0.82,0.58-1.23
			c0.21-0.41,0.43-0.9,0.68-1.48c0.2,0.04,0.39,0.07,0.55,0.09c0.16,0.02,0.35,0.03,0.55,0.03c0.16,0,0.34-0.01,0.52-0.03
			c0.19-0.02,0.4-0.05,0.65-0.09c0.37,3.24,0.76,6.76,1.17,10.53c0.41,3.78,0.84,7.53,1.29,11.25s0.89,7.27,1.32,10.66
			c0.43,3.39,0.86,6.31,1.27,8.78c0.04,0.21,0.08,0.43,0.12,0.68c0.04,0.25,0.13,0.58,0.25,0.99c-0.82-0.12-1.46-0.22-1.91-0.28
			c-0.45-0.06-0.96-0.09-1.54-0.09c-0.91,0-1.63,0.04-2.19,0.13C597.9,749.88,597.35,749.97,596.82,750.05"/>
		<path d="M633.3,727.44l0.25-4.01c0.49-0.37,1.05-0.78,1.66-1.22c0.62-0.44,1.34-0.85,2.16-1.21c0.82-0.36,1.73-0.66,2.74-0.91
			c1.01-0.24,2.15-0.36,3.42-0.36c1.19,0,2.56,0.18,4.1,0.52c1.54,0.35,2.93,1.1,4.16,2.25c0.7,0.69,1.29,1.55,1.78,2.56
			c0.49,1.01,0.74,2.45,0.74,4.34c0,0.45-0.01,1.21-0.03,2.28c-0.02,1.07-0.05,2.19-0.09,3.36c-0.04,1.17-0.07,2.27-0.09,3.3
			c-0.02,1.03-0.03,1.75-0.03,2.16c0,1.35,0.01,2.5,0.03,3.42c0.02,0.93,0.11,1.66,0.25,2.22c0.14,0.56,0.37,0.96,0.68,1.2
			c0.31,0.25,0.75,0.37,1.33,0.37c0.37,0,0.68-0.03,0.93-0.09c0.25-0.06,0.45-0.14,0.61-0.22l0.06,1.73
			c-0.7,0.33-1.39,0.64-2.1,0.93c-0.7,0.29-1.48,0.43-2.34,0.43c-1.03,0-1.98-0.32-2.87-0.96c-0.88-0.64-1.49-1.65-1.82-3.05
			c-0.49,0.49-1.02,1-1.6,1.51c-0.57,0.51-1.23,0.98-1.97,1.39c-0.74,0.41-1.58,0.75-2.53,1.02c-0.95,0.27-2.01,0.4-3.21,0.4
			c-1.6,0-2.94-0.27-4.01-0.8c-1.07-0.53-1.94-1.21-2.62-2.04c-0.68-0.82-1.16-1.71-1.45-2.65c-0.29-0.95-0.43-1.85-0.43-2.72
			c0-1.65,0.3-2.97,0.89-3.98c0.6-1.01,1.37-1.83,2.34-2.47c0.96-0.64,2.06-1.12,3.3-1.45c1.23-0.33,2.46-0.64,3.69-0.93l5.36-1.18
			c0.86-0.21,1.46-0.53,1.78-0.99c0.33-0.45,0.5-1.11,0.5-1.98c0-2.1-0.65-3.75-1.94-4.94c-1.29-1.19-2.95-1.79-4.96-1.79
			c-1.27,0-2.33,0.18-3.17,0.52c-0.84,0.35-1.53,0.77-2.06,1.26c-0.54,0.49-0.93,1-1.2,1.51c-0.27,0.51-0.46,0.93-0.59,1.26H633.3z
			 M648.77,734.64c-2.67,0.41-4.78,0.87-6.32,1.39c-1.54,0.51-2.73,1.08-3.55,1.69c-0.82,0.62-1.34,1.29-1.57,2.03
			c-0.23,0.74-0.34,1.52-0.34,2.34c0,0.99,0.18,1.82,0.52,2.49c0.35,0.68,0.78,1.21,1.3,1.6c0.51,0.39,1.08,0.67,1.69,0.83
			c0.62,0.17,1.19,0.25,1.73,0.25c0.78,0,1.56-0.14,2.34-0.43c0.78-0.28,1.48-0.69,2.1-1.23c0.62-0.53,1.12-1.15,1.51-1.85
			c0.39-0.7,0.59-1.48,0.59-2.34V734.64z"/>
		<path d="M684.38,729.71c0-1.64,0.32-3.09,0.96-4.34c0.63-1.25,1.5-2.3,2.58-3.14c1.09-0.84,2.36-1.48,3.82-1.91
			c1.46-0.43,3.01-0.65,4.65-0.65c0.7,0,1.39,0.02,2.06,0.06c0.68,0.04,1.37,0.12,2.07,0.25c0.82,0.12,1.5,0.23,2.03,0.31
			c0.53,0.08,1.03,0.14,1.48,0.18c0.45,0.04,0.89,0.07,1.32,0.09c0.43,0.02,0.95,0.03,1.57,0.03h1.29c0.37,0,0.75-0.01,1.14-0.03
			c0.39-0.02,0.84-0.04,1.33-0.06c0.49-0.02,1.11-0.07,1.85-0.15c-0.04,0.25-0.09,0.5-0.12,0.77c-0.04,0.27-0.06,0.52-0.06,0.77
			c0,0.29,0.02,0.55,0.06,0.8c0.04,0.25,0.08,0.51,0.12,0.8c-0.82-0.08-1.76-0.12-2.8-0.12h-2.87c0.74,0.66,1.35,1.48,1.85,2.46
			c0.49,0.99,0.74,2.14,0.74,3.45c0,1.64-0.32,3.09-0.96,4.34c-0.64,1.25-1.51,2.31-2.62,3.17c-1.11,0.87-2.42,1.51-3.91,1.94
			c-1.5,0.43-3.13,0.65-4.9,0.65c-0.16,0-0.47-0.01-0.93-0.03c-0.45-0.02-0.92-0.05-1.42-0.09c-0.49-0.04-0.94-0.07-1.32-0.09
			c-0.39-0.02-0.61-0.03-0.65-0.03c-0.9,0-1.58,0.31-2.03,0.93c-0.45,0.61-0.68,1.29-0.68,2.03c0,0.41,0.06,0.81,0.18,1.2
			c0.13,0.39,0.42,0.74,0.89,1.05c0.47,0.3,1.19,0.56,2.16,0.74c0.96,0.19,2.29,0.28,3.97,0.28h0.89c0.43,0,0.87-0.01,1.33-0.04
			c0.45-0.02,0.88-0.03,1.3-0.03h0.86c1.32,0.04,2.42,0.14,3.33,0.28c0.9,0.15,1.68,0.32,2.34,0.53c0.66,0.2,1.19,0.45,1.6,0.74
			c0.41,0.29,0.78,0.58,1.11,0.87c0.78,0.7,1.38,1.54,1.82,2.52c0.43,0.99,0.65,2.08,0.65,3.27c0,1.11-0.24,2.42-0.71,3.94
			c-0.47,1.52-1.32,2.97-2.56,4.35c-1.23,1.37-2.9,2.55-4.99,3.51c-2.1,0.97-4.77,1.45-8.01,1.45c-2.46,0-4.54-0.29-6.23-0.87
			c-1.69-0.57-3.03-1.3-4.03-2.18c-1.01-0.89-1.73-1.87-2.16-2.96c-0.43-1.09-0.64-2.15-0.64-3.17c0-1.4,0.29-2.59,0.86-3.57
			c0.57-0.98,1.25-1.79,2.04-2.4c0.78-0.62,1.54-1.09,2.28-1.42c0.74-0.33,1.27-0.55,1.6-0.68c-0.99-0.28-1.79-0.64-2.4-1.05
			c-0.61-0.41-1.08-0.84-1.39-1.29c-0.31-0.45-0.52-0.93-0.62-1.42c-0.1-0.5-0.15-0.95-0.15-1.36c0-1.02,0.22-1.91,0.64-2.65
			c0.43-0.74,0.93-1.34,1.48-1.82c0.56-0.47,1.11-0.83,1.66-1.08c0.55-0.25,0.96-0.41,1.2-0.5c-2.14-0.82-3.67-1.99-4.59-3.51
			C684.84,733.31,684.38,731.6,684.38,729.71 M697.51,764.22c1.6,0,3.02-0.21,4.25-0.65c1.23-0.43,2.26-1,3.08-1.69
			c0.82-0.7,1.45-1.52,1.88-2.46c0.43-0.95,0.65-1.93,0.65-2.96c0-1.44-0.34-2.59-1.02-3.45c-0.68-0.86-1.52-1.53-2.53-2
			c-1.01-0.48-2.09-0.79-3.23-0.96c-1.15-0.17-2.22-0.25-3.2-0.25c-0.37,0-1.08,0.04-2.13,0.12c-1.05,0.08-2.13,0.34-3.23,0.77
			c-1.11,0.43-2.1,1.13-2.96,2.1c-0.86,0.97-1.3,2.33-1.3,4.1c0,2.3,0.89,4.1,2.68,5.39C692.24,763.57,694.59,764.22,697.51,764.22
			 M696.64,737.29c1.4,0,2.55-0.27,3.45-0.8c0.9-0.53,1.61-1.2,2.13-2c0.51-0.8,0.87-1.67,1.08-2.62c0.21-0.94,0.31-1.85,0.31-2.71
			c0-1.36-0.19-2.5-0.59-3.42c-0.39-0.92-0.9-1.68-1.54-2.28c-0.64-0.6-1.36-1.02-2.16-1.29c-0.8-0.27-1.59-0.4-2.37-0.4
			c-1.56,0-2.78,0.32-3.67,0.96c-0.89,0.64-1.55,1.39-2,2.25c-0.45,0.86-0.74,1.76-0.86,2.68c-0.12,0.92-0.19,1.67-0.19,2.25
			c0,2.59,0.63,4.47,1.88,5.64C693.37,736.71,694.87,737.29,696.64,737.29"/>
		<path d="M740.27,727.44l0.25-4.01c0.49-0.37,1.05-0.78,1.66-1.22c0.62-0.44,1.34-0.85,2.16-1.21c0.82-0.36,1.73-0.66,2.74-0.91
			c1.01-0.24,2.15-0.36,3.42-0.36c1.19,0,2.56,0.18,4.1,0.52c1.54,0.35,2.93,1.1,4.16,2.25c0.7,0.69,1.29,1.55,1.78,2.56
			c0.49,1.01,0.74,2.45,0.74,4.34c0,0.45-0.01,1.21-0.03,2.28c-0.02,1.07-0.05,2.19-0.09,3.36c-0.04,1.17-0.07,2.27-0.09,3.3
			c-0.02,1.03-0.03,1.75-0.03,2.16c0,1.35,0.01,2.5,0.03,3.42c0.02,0.93,0.11,1.66,0.25,2.22c0.14,0.56,0.37,0.96,0.68,1.2
			c0.31,0.25,0.75,0.37,1.33,0.37c0.37,0,0.68-0.03,0.92-0.09c0.25-0.06,0.45-0.14,0.62-0.22l0.06,1.73c-0.7,0.33-1.4,0.64-2.1,0.93
			c-0.7,0.29-1.48,0.43-2.34,0.43c-1.03,0-1.98-0.32-2.87-0.96c-0.88-0.64-1.49-1.65-1.82-3.05c-0.49,0.49-1.03,1-1.6,1.51
			c-0.57,0.51-1.23,0.98-1.97,1.39c-0.74,0.41-1.58,0.75-2.53,1.02c-0.95,0.27-2.01,0.4-3.21,0.4c-1.6,0-2.94-0.27-4-0.8
			c-1.07-0.53-1.94-1.21-2.62-2.04c-0.68-0.82-1.16-1.71-1.45-2.65c-0.29-0.95-0.43-1.85-0.43-2.72c0-1.65,0.3-2.97,0.89-3.98
			c0.6-1.01,1.37-1.83,2.34-2.47c0.96-0.64,2.06-1.12,3.3-1.45c1.23-0.33,2.46-0.64,3.69-0.93l5.36-1.18
			c0.86-0.21,1.46-0.53,1.78-0.99c0.33-0.45,0.5-1.11,0.5-1.98c0-2.1-0.65-3.75-1.94-4.94c-1.29-1.19-2.95-1.79-4.96-1.79
			c-1.28,0-2.33,0.18-3.17,0.52c-0.84,0.35-1.53,0.77-2.06,1.26c-0.54,0.49-0.94,1-1.2,1.51c-0.27,0.51-0.46,0.93-0.59,1.26H740.27z
			 M755.74,734.64c-2.67,0.41-4.78,0.87-6.32,1.39c-1.54,0.51-2.73,1.08-3.54,1.69c-0.82,0.62-1.35,1.29-1.57,2.03
			c-0.23,0.74-0.34,1.52-0.34,2.34c0,0.99,0.18,1.82,0.52,2.49c0.35,0.68,0.78,1.21,1.3,1.6c0.51,0.39,1.08,0.67,1.69,0.83
			c0.62,0.17,1.19,0.25,1.73,0.25c0.78,0,1.56-0.14,2.34-0.43c0.78-0.28,1.48-0.69,2.1-1.23c0.61-0.53,1.12-1.15,1.51-1.85
			c0.39-0.7,0.59-1.48,0.59-2.34V734.64z"/>
		<path d="M788.58,748.45c1.76-2.18,3.51-4.34,5.24-6.5c1.73-2.15,3.45-4.34,5.18-6.56c0.37-0.45,0.96-1.24,1.78-2.37
			c0.82-1.13,1.7-2.32,2.62-3.58c0.92-1.25,1.78-2.43,2.58-3.54c0.8-1.11,1.37-1.87,1.69-2.28c-0.74-0.08-1.41-0.13-2-0.15
			c-0.6-0.02-1.34-0.03-2.25-0.03c-0.21,0-0.8,0.01-1.79,0.03c-0.98,0.02-2.12,0.06-3.42,0.12c-1.29,0.06-2.62,0.15-3.97,0.28
			c-1.35,0.13-2.53,0.29-3.51,0.49c0.08-0.37,0.14-0.71,0.19-1.02c0.04-0.31,0.06-0.67,0.06-1.08c0-0.45-0.02-0.84-0.06-1.17
			c-0.04-0.33-0.1-0.66-0.19-0.99c0.66,0.08,1.27,0.15,1.85,0.22c0.58,0.06,1.15,0.13,1.73,0.22c1.32,0.16,2.57,0.27,3.76,0.3
			c1.19,0.04,2.53,0.06,4,0.06c2.42,0,4.84-0.02,7.24-0.06c2.4-0.04,4.82-0.14,7.24-0.3v1.1c-0.45,0.45-0.84,0.87-1.17,1.23
			c-0.33,0.37-0.72,0.81-1.17,1.32c-0.45,0.52-0.98,1.15-1.6,1.91c-0.61,0.76-1.41,1.76-2.37,3.02c-0.97,1.26-2.16,2.78-3.57,4.59
			c-1.42,1.81-3.14,4.03-5.15,6.65c-0.16,0.21-0.43,0.54-0.8,1.02c-0.37,0.47-0.77,1.02-1.2,1.63c-0.43,0.62-0.86,1.27-1.3,1.94
			c-0.43,0.68-0.79,1.32-1.08,1.94h3.63c1.4,0,2.93-0.02,4.59-0.06c1.67-0.04,3.41-0.12,5.24-0.25c1.83-0.12,3.69-0.29,5.58-0.49
			c-0.08,0.29-0.15,0.56-0.18,0.8c-0.05,0.25-0.06,0.53-0.06,0.86c0,0.33,0.02,0.69,0.06,1.08c0.04,0.39,0.1,0.79,0.18,1.2
			c-0.37-0.04-1.01-0.09-1.91-0.12c-0.91-0.04-1.99-0.08-3.27-0.12c-1.27-0.04-2.68-0.07-4.22-0.09c-1.54-0.02-3.11-0.03-4.72-0.03
			c-3.08,0-5.77,0.03-8.07,0.09c-2.3,0.06-4.11,0.16-5.42,0.28V748.45z"/>
		<path d="M851.19,710.12c0,0.94-0.33,1.74-0.99,2.37c-0.66,0.64-1.46,0.95-2.4,0.95c-0.9,0-1.69-0.32-2.34-0.95
			c-0.66-0.64-0.98-1.43-0.98-2.37c0-0.94,0.33-1.75,0.98-2.4c0.66-0.66,1.44-0.99,2.34-0.99c0.94,0,1.75,0.33,2.4,0.99
			C850.85,708.37,851.19,709.17,851.19,710.12 M845.02,734.4c0-3.49-0.05-6.33-0.16-8.5c-0.1-2.18-0.21-4.07-0.34-5.67
			c0.45,0.12,0.9,0.22,1.33,0.28c0.43,0.06,1,0.09,1.69,0.09c0.7,0,1.29-0.03,1.79-0.09c0.49-0.06,0.96-0.15,1.42-0.28
			c-0.04,0.86-0.08,1.71-0.12,2.56c-0.04,0.84-0.09,1.86-0.13,3.05c-0.04,1.19-0.07,2.63-0.09,4.31c-0.02,1.68-0.03,3.78-0.03,6.29
			v1.94c0,0.59,0.02,1.35,0.06,2.28c0.04,0.92,0.09,2.12,0.15,3.57c0.06,1.46,0.14,3.4,0.22,5.83c-0.41-0.13-0.81-0.22-1.2-0.28
			c-0.39-0.06-1-0.09-1.82-0.09c-0.86,0-1.5,0.03-1.91,0.09c-0.41,0.06-0.84,0.16-1.29,0.28c0.04-1.15,0.09-2.39,0.15-3.73
			c0.06-1.33,0.11-2.68,0.16-4.03c0.04-1.36,0.07-2.71,0.09-4.07C845.01,736.86,845.02,735.59,845.02,734.4"/>
		<path d="M882.79,733.1c0-2.05-0.03-4.21-0.09-6.47c-0.06-2.26-0.14-4.48-0.22-6.66c0.58,0.08,1.09,0.16,1.54,0.25
			c0.45,0.08,0.96,0.12,1.54,0.12c0.57,0,1.09-0.04,1.54-0.12c0.45-0.08,0.94-0.16,1.48-0.25c0,0.25-0.02,0.65-0.06,1.2
			c-0.04,0.55-0.07,1.14-0.09,1.75c-0.02,0.62-0.05,1.2-0.09,1.76c-0.04,0.56-0.06,0.94-0.06,1.14c0.41-0.74,0.93-1.47,1.54-2.19
			c0.62-0.72,1.38-1.37,2.28-1.94c0.9-0.57,1.93-1.04,3.08-1.39c1.15-0.35,2.46-0.53,3.94-0.53c2.51,0,4.48,0.39,5.92,1.17
			c1.44,0.78,2.49,1.74,3.17,2.87c0.68,1.13,1.1,2.31,1.26,3.54c0.16,1.23,0.25,2.28,0.25,3.14c0,0.13-0.01,0.47-0.03,1.05
			c-0.02,0.58-0.04,1.29-0.04,2.16c0,0.86-0.02,1.8-0.06,2.8c-0.04,1.01-0.06,1.98-0.06,2.93c0,0.94-0.01,1.8-0.03,2.56
			c-0.02,0.76-0.03,1.3-0.03,1.63V745c0,0.62,0.01,1.26,0.03,1.94c0.02,0.68,0.04,1.3,0.06,1.88c0.02,0.58,0.05,0.99,0.09,1.23
			c-0.45-0.12-0.89-0.21-1.32-0.28c-0.43-0.06-1.04-0.09-1.82-0.09c-0.82,0-1.46,0.03-1.91,0.09c-0.45,0.06-0.91,0.16-1.36,0.28
			c0.12-1.64,0.23-3.28,0.31-4.9c0.08-1.62,0.14-3.09,0.18-4.41c0.04-1.31,0.06-2.43,0.06-3.36v-1.82c0-1.52-0.05-3.01-0.15-4.47
			c-0.11-1.46-0.39-2.74-0.87-3.85c-0.47-1.11-1.18-2-2.12-2.68c-0.94-0.68-2.28-1.01-4.01-1.01c-3.37,0-5.81,1.42-7.33,4.25
			c-0.28,0.53-0.5,1.33-0.65,2.37c-0.14,1.05-0.25,2.17-0.31,3.36c-0.06,1.19-0.1,2.35-0.12,3.48c-0.02,1.13-0.03,2.07-0.03,2.8
			c0,2.42,0.06,4.45,0.18,6.07c0.12,1.62,0.22,3.01,0.31,4.16c-0.45-0.09-0.94-0.17-1.45-0.25c-0.52-0.08-1.12-0.12-1.82-0.12
			c-0.7,0-1.3,0.04-1.82,0.12c-0.52,0.08-1,0.16-1.45,0.25c0.08-0.94,0.15-1.92,0.21-2.92c0.06-1.01,0.12-2.17,0.18-3.48
			c0.07-1.32,0.11-2.82,0.16-4.53C882.77,737.41,882.79,735.41,882.79,733.1"/>
		<path d="M944.97,735.08c0,0.45,0.01,0.99,0.03,1.6c0.02,0.61,0.08,1.28,0.19,2c0.1,0.72,0.27,1.47,0.49,2.25
			c0.22,0.78,0.55,1.52,0.95,2.22c0.7,1.15,1.46,2.06,2.28,2.71c0.82,0.66,1.63,1.14,2.43,1.45c0.8,0.31,1.54,0.49,2.22,0.56
			c0.68,0.06,1.24,0.09,1.7,0.09c1.52,0,2.83-0.2,3.94-0.59c1.11-0.39,2.06-0.86,2.86-1.42c0.8-0.56,1.44-1.11,1.91-1.67
			c0.47-0.55,0.83-1,1.08-1.32l0.74,0.18c-0.21,0.86-0.32,1.57-0.34,2.13c-0.02,0.55-0.05,1.08-0.09,1.57
			c-1.35,1.32-2.98,2.31-4.86,2.99c-1.89,0.68-4.09,1.02-6.59,1.02c-2.34,0-4.45-0.36-6.32-1.08c-1.87-0.71-3.45-1.75-4.75-3.08
			c-1.29-1.34-2.29-2.95-2.99-4.84c-0.7-1.89-1.05-4.02-1.05-6.4c0-2.14,0.3-4.15,0.89-6.04c0.59-1.89,1.5-3.55,2.71-4.96
			c1.21-1.41,2.74-2.55,4.59-3.39c1.85-0.84,4.04-1.26,6.59-1.26c2.3,0,4.23,0.3,5.79,0.89c1.56,0.6,2.85,1.37,3.85,2.31
			c1.01,0.94,1.76,2,2.28,3.17c0.51,1.17,0.89,2.32,1.14,3.45c0.25,1.13,0.38,2.19,0.4,3.17c0.02,0.98,0.03,1.74,0.03,2.28H944.97z
			 M960.93,732.49c0-0.49-0.04-1.3-0.12-2.43c-0.08-1.13-0.35-2.27-0.8-3.42c-0.45-1.15-1.18-2.17-2.19-3.05
			c-1.01-0.88-2.43-1.32-4.28-1.32c-2.71,0-4.73,0.93-6.07,2.8c-1.33,1.87-2.14,4.35-2.43,7.42H960.93z"/>
		<rect x="40.53" y="732.39" width="44.11" height="5.6"/>
		<rect x="1012.57" y="732.39" width="44.11" height="5.6"/>
	</g>
</g>
</svg>
