<?xml version="1.0" encoding="utf-8"?>
<!-- Generator: Adobe Illustrator 23.1.0, SVG Export Plug-In . SVG Version: 6.00 Build 0)  -->
<svg version="1.1" xmlns="http://www.w3.org/2000/svg" xmlns:xlink="http://www.w3.org/1999/xlink" x="0px" y="0px"
	 viewBox="0 0 1280 576.98" style="enable-background:new 0 0 1280 576.98;" xml:space="preserve">
<style type="text/css">
	.st0{display:none;}
	.st1{display:inline;fill:#989898;}
	.st2{fill:#060001;}
	.st3{fill:#040000;}
	.st4{clip-path:url(#SVGID_2_);fill:url(#SVGID_3_);}
	.st5{fill:#939494;}
	.st6{fill:none;stroke:#231815;stroke-width:2.254;stroke-linecap:round;stroke-miterlimit:10;}
	.st7{fill:none;stroke:#231815;stroke-width:1.042;stroke-linecap:round;stroke-miterlimit:10;}
	.st8{fill:#C8C9CA;}
</style>
<g id="BG" class="st0">
	<rect x="-112.76" y="-201.34" class="st1" width="5423.46" height="2640.54"/>
</g>
<g id="圖層_2">
	<g>
		<path class="st2" d="M403.54,257.59c0,0-2.65-8.63-4.89-15.21c-0.05-0.15-0.1-0.29-0.15-0.43c-0.49-1.42-0.95-2.74-1.36-3.82
			c0,0-0.01,0.04-0.01,0.06c-1.39-3.4-3.14-6.63-5.24-9.59c-5.66-7.96-13.71-14.08-23.1-17.38c-4.94-1.73-10.22-2.72-15.75-2.72
			c-0.62,0-1.23,0.03-1.84,0.06l-0.02-0.02c0,0-9.18,0.13-24.7,2.59l0.26,0.03c-1.2,0.15-2.42,0.26-3.61,0.44
			c-2.28,0.34-4.54,0.75-6.79,1.19c-0.22,0.04-0.43,0.07-0.65,0.11c-0.86,0.15-1.57,0.3-2.19,0.46c-9.27,1.98-18.23,4.76-26.84,8.25
			l0-0.01c-2.71,1.06-3.31-2.81-3.43-5.36v-4.68c0.14-7.19,4.16-9.42,6.17-10.09l1.13-0.27l42.08-10.17l36.64-8.48l10.73-2.42
			l2.77-0.62l0.97-0.22l-0.15-0.01c19.61-5.45,34.02-23.31,34.02-44.64c0-4.76-0.72-9.34-2.05-13.67
			c-5.84-19-23.54-32.82-44.47-32.82c-4.72,0-9.26,0.74-13.54,2.05l0-0.01l-61.39,15.7l-7.12,1.77l-0.68,0.16
			c-1.79,0.37-6.52,0.96-6.99-3.22l-1.38-18.07c-0.02-0.32-0.05-0.62-0.07-0.94l-0.12-1.51l-0.01,0
			c-1.52-15.77-9.31-29.71-20.87-39.29c-9.99-9.24-23.35-14.89-38.04-14.89c-2.59,0-5.13,0.19-7.63,0.53
			c-19.55,2.66-35.87,15.39-43.6,32.79c-1.84,3.59-3.32,7.39-4.39,11.37c-1.3,4.84-2,9.92-2,15.16l0.79,40.58
			c-0.02,0.2-0.03,0.4-0.05,0.6c-0.63,5.9-5.17,8.07-7.5,8.78l-1.36,0.33L54.43,163.89l0.01,0.02
			c-23.21,3.52-41.01,23.47-41.01,47.64c0,10.69,3.52,20.54,9.41,28.54c8.8,11.95,22.92,19.74,38.91,19.74
			c10.83,0,18.58-3.99,28.52-7.89l36.48-11.16l4.51-1.09c1.36-0.18,2.3-0.03,1.47,1c-10.8,8.72-23.06,15.71-36.39,20.47
			c-2.41,0.86-4.87,1.64-7.35,2.35C75.99,268.17,64,274.91,53.4,283.32C42.55,291.93,33.18,302.3,25.69,314
			c-2.79,3.89-5.18,8.09-7.07,12.56c-0.62,1.26-1.19,2.55-1.77,3.84c0,0-1.77,3.69-2.85,13.53c-0.16,1.48-0.31,3.1-0.43,4.86
			c-0.05,0.72-0.1,1.45-0.14,2.23l0.05-0.09c-0.01,0.42-0.05,0.82-0.05,1.24c0,36.25,29.41,65.64,65.69,65.64h56.99
			c0.14,0,0.28-0.01,0.43-0.01l-0.04,0.01l5.04-0.1l0,0c2.86-0.01,9.88-0.22,18.04-1.76l-0.01,0.01c0,0,0.33-0.06,0.87-0.17
			c0.47-0.1,1.09-0.23,1.85-0.39c3.46-0.74,9.37-2.07,12.56-3.2l-0.01,0c6.53-2.11,16.69-6.29,28.83-14.23
			c0.57-0.37,1.15-0.77,1.72-1.15c1.58-1.05,3.12-2.14,4.65-3.26c0.57-0.42,1.14-0.81,1.72-1.24c0.12-0.09,0.23-0.17,0.35-0.26
			l-0.03-0.01c2.09-1.61,4.15-3.25,6.14-4.98c12.51-10.9,22.78-24.26,30.16-39.31l0.04,0.01l0.43-0.98c0.5-1.03,1.02-2.05,1.49-3.1
			c0.92-2.07,1.78-4.17,2.59-6.3l6.37-14.68l-0.06,0.09c7.48-16.49,13.35-33.86,17.41-51.92l0.01,0.04c0,0,0-0.03,0-0.08
			c0.2-0.89,0.38-1.78,0.57-2.68l0.01,0.16c0,0,0.4-3.59,2.09-4.21c0.5-0.16,1.09-0.19,1.78-0.04c5.03,1.25,9.97,2.72,14.8,4.43
			c0.76,0.38,2.09,1.45,1.37,4.18l0.04-0.04c-5.3,19.4-8.31,39.74-8.74,60.71l-0.04-0.1l-0.01,2.53c-0.01,0.9-0.05,1.8-0.05,2.71
			c0,0.58,0.03,1.15,0.04,1.72l-0.03,13.01c0,0.03,0,0.07,0,0.1c0,0.04,0,0.08,0,0.12l0,0.41l0.01-0.05
			c0.04,5.02,0.65,9.9,1.77,14.59c6.79,28.35,32.31,49.44,62.77,49.44c19.55,0,37.05-8.69,48.89-22.41
			c7.84-9.08,13.18-20.35,14.99-32.78c0.29-4.16,0.5-8.35,0.6-12.56c0.05-2.16,0.08-4.32,0.08-6.49c0-30.07-4.97-58.98-14.07-85.99
			C403.52,257.58,403.54,257.59,403.54,257.59"/>
		<path class="st2" d="M836.87,140.53c0.15-1.59,0.24-3.2,0.24-4.83c0-28.47-23-51.56-51.44-51.78c-0.14,0-0.27-0.02-0.41-0.02
			c-1.01,0-2,0.05-2.99,0.12l0-0.01c-4.67-0.56-5.7-2.92-5.7-2.92l-0.03,0.06c-16.85-29.29-48.42-49.05-84.66-49.05
			c-23.75,0-43.69,15.98-49.83,37.74l-0.03-0.02c-0.06,0.27-0.13,0.5-0.2,0.74c0,0.01-0.01,0.02-0.01,0.04
			c-1.46,4.66-6.06,3.89-6.06,3.89l0.04,0.05c-7.61-0.86-15.27-1.59-22.98-2.12c-12.03-0.83-24.17-1.28-36.42-1.28
			c-11.64,0-23.19,0.42-34.65,1.17c-14.14,0.92-28.1,2.47-41.91,4.5c-8.1,1.19-16.16,2.5-24.14,4.05c-0.73,0.14-1.46,0.27-2.19,0.42
			c-23.21,5.14-40.58,25.8-40.58,50.54c0,19.41,10.71,36.31,26.52,45.18c7.7,4.17,16.52,6.54,25.89,6.54c4.31,0,8.49-0.52,12.5-1.46
			c0.95-0.25,1.9-0.51,2.86-0.75c4.39-1.1,8.83-2.09,13.3-2.96c15.59-3.03,31.68-4.63,48.16-4.63c15.26,0,30.2,1.36,44.7,3.97
			c12.74,2.29,25.12,5.6,37.12,9.74c2.07,0.99,5.64,3.65,4.9,9.79c-1.02,6.07-2.67,11.92-4.95,17.45
			c-4.11,9.95-10.12,18.92-17.6,26.43c-2.64,2.65-5.47,5.1-8.45,7.37c-3.47,2.07-4.72-0.12-5.17-1.76
			c-0.08-0.47-0.15-0.95-0.25-1.42v0v0c-3.01-14.59-12.23-26.89-24.8-34.03c-5.17-2.94-10.91-4.97-17.01-5.95
			c-8.27-2.1-16.92-3.22-25.85-3.22c-8.57,0-16.9,1.05-24.87,3c-5.88,1.43-11.53,3.41-16.96,5.79l-0.01-0.06
			c-7.45,2.84-10.05,5-10.78,5.73c-0.5,0.44-1.13,1.07-1.88,1.91c-0.01,0.02-0.03,0.03-0.05,0.05l0,0
			c-1.13,1.28-2.49,3.06-3.97,5.45c-0.01,0.01-0.01,0.02-0.02,0.03c-0.04,0.07-0.08,0.11-0.12,0.18l0.01,0
			c-3.23,4.97-5.11,10.88-5.11,17.24c0,9.39,4.09,17.79,10.55,23.62c4.09,3.69,9.14,6.3,14.73,7.48l0.02,0.03c0,0,5.12,0.77,0,2.12
			l0.42-0.08c-17.21,5.77-32.51,15.67-44.64,28.62c-7.74,8.26-14.19,17.73-19.05,28.09c0.01,0.05,0.02,0.1,0.04,0.16
			c-0.21,0.38-0.42,0.75-0.62,1.13c-2.13,4.71-3.93,9.6-5.38,14.64c-0.89,4.03-1.37,8.22-1.37,12.52c0,31.8,25.59,57.62,57.32,58.04
			h57.58c3.95-0.44,7.84-1.12,11.61-2.09c4.66-1.19,9.15-2.78,13.46-4.71c0.71-0.32,1.43-0.63,2.13-0.96
			c7.03-3.37,13.5-7.7,19.29-12.79c5.37-4.72,10.13-10.12,14.17-16.05c5.17-7.6,9.13-16.09,11.61-25.19
			c0.01-0.04,0.03-0.06,0.04-0.1c1.06-3.58,2.17-9.73,2.17-9.73c2.16-11.09,7.3-21.11,14.5-29.26c0.63-0.56,1.83-1.3,3.35-0.53
			c6.32,3.12,26.39,14,34.54,29.58c0.61,1.38,3.74,8.81,3.39,15.24c0,1.04,0.03,2.07,0.09,3.09c0.59,10.93,4.29,21.04,10.23,29.45
			c6.08,8.63,14.53,15.46,24.38,19.62c6.75,2.84,14.16,4.44,21.95,4.44l26.52-0.11l25.14,0.11c1.62,0,3.22-0.1,4.8-0.24
			c0,0,5.68-0.57,13.1-5.71c0.01-0.01,0.03-0.02,0.04-0.03c0.6-0.42,1.21-0.86,1.82-1.33c0.34-0.27,0.68-0.54,1.02-0.82
			c0.2-0.17,0.4-0.32,0.61-0.49l-0.04,0c6.82-5.94,11.24-14.56,11.55-24.24c0.01-0.37,0.06-0.72,0.06-1.09
			c0-7.03-1.44-13.75-4.09-19.5c-0.66-1.76-1.52-3.45-2.47-5.11c-3.98-7.72-7.29-11.7-7.29-11.7c-3.63-4.53-7.55-8.81-11.74-12.82
			c-4.96-4.75-10.31-9.08-15.97-12.99h0c-5.01-3.76-10.23-6.95-13.64-8.92c-1.04-0.63-2.1-1.22-3.18-1.78
			c-0.38-0.2-0.61-0.33-0.61-0.33l0.01,0.03c-0.37-0.19-0.73-0.38-1.1-0.56h0.01c0,0-0.05-0.02-0.13-0.06
			c-2.13-1.02-4.34-1.89-6.6-2.64c-4.76-1.76-11.6-4.03-19.17-5.68l0.05,0.03c-7.11-1.68-14.43-2.79-21.93-3.27l0,0
			c-5.41-0.46,0-2.35,0-2.35l-0.03-0.01c6.89-2.75,13.53-5.99,19.86-9.71c8.78-5.16,17-11.18,24.49-17.99
			c22.88-20.8,39.11-48.72,45.31-80.25c0,0,0.02,0.01,0.02,0.01s0.02-0.23,0.08-0.56c0.02-0.1,0.04-0.2,0.06-0.31
			c0.29-1.42,1.17-4.2,3.83-5.13h0C823.85,174.51,835.16,158.92,836.87,140.53"/>
		<path class="st2" d="M915.88,418.05l0.2-0.03c-0.09,0-0.19-0.01-0.28-0.01L915.88,418.05z"/>
		<path class="st2" d="M1257.22,328.32c-0.46-1.12-0.91-2.25-1.42-3.33c-0.04-0.09-0.07-0.17-0.11-0.25l-0.01,0.02
			c-1.6-3.32-3.43-6.47-5.46-9.45c-0.01-0.02-0.02-0.04-0.03-0.05v0.01c-29.82-43.9-102.01-52.43-102.01-52.43
			c-1.6-0.36,0.01-0.26,0.02-0.26l27.01,3.57l9.06,1.37l1.3,0.24c0,0-0.04-0.02-0.05-0.03c3.67,0.71,7.44,1.17,11.35,1.22
			c0.29,0,0.58,0.04,0.87,0.04c8.4,0,16.37-1.57,23.59-4.35c3.12-1.2,6.11-2.61,8.92-4.25c15.61-9.11,25.89-24.59,25.89-42.16
			c0-22.95-17.53-42.32-41.58-48.6c-5.33-1.39-10.97-2.16-16.82-2.16c0,0-6.29,0.06-14.22,0.46c0,0,0.03,0.02,0.03,0.02
			c-29.54,0.87-57.02,8.75-80.32,21.81c-0.09,0.05-0.17,0.1-0.25,0.15l0.03-0.02l-2.28,1.31v0.04c0,0,0,0-0.01,0l0.01-0.05
			c-2.98,1.69-3.57,0.3-3.67-0.54c0.01-13.88,1.42-23.83,2.78-30.13c0.52-1.99,1.1-3.97,1.68-5.95c0.7-1.93,2.52-2.58,3.48-2.78
			c9.88-1.1,19.93-1.72,30.16-1.72c13.09,0,25.92,0.95,38.45,2.71c4.84,0.68,9.62,1.52,14.36,2.45c0.26,0.05,0.52,0.09,0.78,0.14
			c0,0,0.25,0.08,1.37,0.25c0.48,0.1,1.12,0.19,1.91,0.25c0.05,0.01,0.08,0.01,0.13,0.02l-0.01-0.01c2.26,0.18,5.81,0.14,11.18-0.66
			c2.22-0.29,4.67-0.71,7.36-1.32l-0.18-0.02c1.67-0.32,3.32-0.71,4.93-1.15c0.44-0.11,0.84-0.2,1.29-0.32l-0.23,0.02
			c2.16-0.63,4.28-1.34,6.31-2.18c16.62-6.89,28.9-20.43,32.32-36.65c0.63-2.99,1-6.05,1-9.19c0-22.85-17.38-42.17-41.27-48.53
			c-5.42-1.44-11.17-2.23-17.13-2.23c0,0-6.49,0.03-16.19,0.03c-0.53,0-1.05-0.03-1.58-0.03c-0.57,0-1.13,0.03-1.7,0.03
			c-0.78,0-1.58,0-2.39,0l0.28,0.04c-5.6,0.09-11.15,0.32-16.64,0.74c-0.51,0.04-1.02,0.09-1.53,0.13
			c-3.49,0.28-6.98,0.6-10.42,1.01c-8.53,1.01-16.91,2.42-25.13,4.18l0.01-0.03c-4.88,1-7.47-2.76-7.47-2.76l-0.01,0.03
			c-1.23-1.59-2.53-3.14-3.92-4.63c-12.96-13.88-32.71-22.77-54.88-22.77c-29.67,0-55.05,15.89-65.55,38.4
			c-1.35,2.9-2.44,5.91-3.27,9.01l-0.02-0.02c-1.77,5.4-7.37,5.08-7.37,5.08l0.09,0.06c-23.22,1.15-45.54,5.15-66.51,11.66
			l0.02-0.06c-1.83,0.6-3.62,1.19-5.37,1.77c-1.24,0.41-2.47,0.82-3.7,1.25c-5,1.7-9.43,3.27-12.8,4.48
			c-2.08,0.65-4.11,1.37-6.07,2.21c-0.42,0.16-0.66,0.24-0.66,0.24l0.03,0c-3.5,1.54-6.8,3.35-9.85,5.44
			c-8.32,5.68-14.84,13.26-18.7,21.98c-2.53,5.7-3.93,11.88-3.93,18.35c0,28.34,26.43,51.3,59.03,51.3c4.92,0,9.68-0.58,14.25-1.57
			c2.45-0.53,4.81-1.25,7.12-2.04l0.01,0.04l15-4.93c8.18-2.51,17.09-5.18,24.13-7.12c1.13-0.18,2.58-0.03,2.5,1.96l0.02-0.03
			c0.13,4.57,0.53,9.08,1.18,13.52c-0.01-0.01-0.03-0.04-0.03-0.04s0.93,4.16-4.3,3.57c0,0,0.02,0.03,0.03,0.04
			c-2.99-0.17-5.97-0.32-8.98-0.41c-2.15-0.06-4.29-0.13-6.46-0.13c-1.85,0-3.68,0.09-5.52,0.12c-15.01,0.3-29.69,1.76-43.89,4.35
			c0,0-22.09,2.86-35.54,15.7l0.02,0c-5.75,4.96-10.34,10.94-13.33,17.63c-2.54,5.7-3.99,11.87-3.99,18.34
			c0,24.33,19.74,44.56,46.04,49.5l2.3,0.43c0.18,0.03,0.26,0.05,0.31,0.06c0.04,0,0.14,0.01,0.36,0.05
			c1.41,0.2,2.82,0.38,4.26,0.49c1.69,0.13,3.4,0.23,5.13,0.23c6.04,0,11.83-0.88,17.3-2.37c0.73-0.2,1.48-0.37,2.2-0.59
			c1.57-0.48,3.09-1.04,4.59-1.63l14.77-5.25c11.09-3.51,26.06-7.58,42.58-10.26c2.02-0.25,4.68-0.29,2.64,1.67
			c-13.42,10.13-29.49,17.67-47.24,21.62c-3.43,0.76-6.92,1.38-10.46,1.87c-3.26,0.45-6.56,0.77-9.9,0.98
			c-2.83,0.18-5.68,0.3-8.57,0.3c-1.11,0-2.2-0.05-3.3-0.07c0,0-5.03-0.72-15.99,0.99c-1.88,0.31-3.73,0.72-5.54,1.19
			c-9.32,2.39-17.66,6.76-24.37,12.55c-10.55,9.1-17.1,21.71-17.1,35.66c0,13.08,5.78,24.94,15.19,33.88
			c4.85,4.6,10.68,8.4,17.18,11.19l-0.07,0.01c0,0,4.63,2.95,15.11,4.62c0,0,0,0,0,0.01c0.03,0,0.05,0,0.08,0
			c1.42,0.23,2.98,0.41,4.61,0.58h77.08c3.34-0.51,8.53-1.48,15.77-3.32c0.1-0.03,0.2-0.05,0.3-0.08c0.17-0.04,0.34-0.08,0.51-0.13
			l-0.04,0c14.2-3.69,26.83-10.52,36.82-19.59l0.03,0.03c0,0,13.94-9.34,38.62-49.3l-0.1,0.06c6.62-10.42,12.26-21.37,16.77-32.8
			c0.1-0.25,0.19-0.5,0.27-0.75c0.34-0.72,0.99-1.46,1.91,0.28c1.49,2.69,4.07,7.86,6.32,14.68c1.85,9.2,3.39,20.63,2.99,32.06
			l0.12,0.01c-0.03,1.29-0.03,2.71,0.01,4.24c-0.07,0.99-0.13,1.98-0.13,2.99c0,6.25,1.28,12.24,3.62,17.79
			c0.75,2.17,1.63,4.31,2.71,6.38c0.18,0.36,0.37,0.7,0.56,1.05h0c0,0,0.28,0.56,0.81,1.45c13.33,23.02,41.26,25.02,47.91,25.01
			h0.02h0l15.86-0.03h4.73l19.32,0.25c0,0,0.36-0.01,0.95-0.03h0c0,0,8.06-0.18,15.23-0.99c0.09-0.01,0.18-0.02,0.27-0.03
			c0.21-0.02,0.42-0.05,0.63-0.07l-0.02,0c8.97-1.07,20.61-3.53,29.68-9.07l-0.05,0.06c0,0,9.99-4.38,15.74-17.87l-0.04,0.04
			C1267.24,377.38,1270.87,357.17,1257.22,328.32"/>
		<path class="st2" d="M575.49,470.08c-0.05-0.01-0.06-0.08-0.01-0.1c6.25-2.31,10.36-6.21,10.36-10.62
			c0-7.1-10.62-12.85-23.71-12.85c-13.1,0-23.72,5.76-23.72,12.85c0,4.41,4.1,8.3,10.36,10.62c0.05,0.02,0.04,0.09-0.01,0.1
			c-10.54,2.4-17.84,7.53-17.84,13.49v32.06c0-12.62-10.44-22.8-23.16-22.38c-12.16,0.41-21.62,10.79-21.62,22.97v13.6
			c0,9.67,7.84,17.51,17.51,17.51h72.17c9.67,0,17.51-7.84,17.51-17.51v-14.19v-32.06C593.33,477.62,586.03,472.48,575.49,470.08"/>
		<path class="st2" d="M649.28,469.21c-22.93,0-41.53,19.99-41.53,44.66c0,10.86,3.61,20.81,9.6,28.55
			c2.42,3.12,6.18,4.92,10.13,4.92h43.58c3.95,0,7.71-1.79,10.13-4.92c5.99-7.74,9.6-17.69,9.6-28.55
			C690.81,489.21,672.22,469.21,649.28,469.21 M651.17,532.79h-3.77c-5.21,0-9.73-4.08-9.77-9.28c0-0.04,0-0.07,0-0.11
			c0-6.93,5.22-12.54,11.66-12.54c6.44,0,11.66,5.61,11.66,12.54c0,0.04,0,0.07,0,0.11C660.9,528.72,656.38,532.79,651.17,532.79"/>
		<path class="st2" d="M796.78,480.3c0-7.24-7-13.11-15.64-13.11c-8.64,0-15.64,5.87-15.64,13.11l0.25,25.7
			c0,5.18-4.65,9.37-10.38,9.37c-5.73,0-10.38-4.2-10.38-9.37v-25.62c0-0.02,0-0.03,0-0.05c-0.03-7.22-7.02-13.06-15.64-13.06
			c-8.64,0-15.64,5.87-15.64,13.11v51.82c0,0.05,0.02,0.1,0.02,0.16c0,0.12-0.02,0.24-0.02,0.37c0,8.03,6.58,14.6,14.61,14.6h29.52
			c4.68,0,8.85-2.24,11.53-5.68c1.97,3.37,5.6,5.68,9.78,5.68h6.01c6.25,0,11.36-5.11,11.36-11.35v-5.19L796.78,480.3z"/>
		<path class="st2" d="M1169.4,480c0-7.24-7-13.11-15.64-13.11c-8.64,0-15.64,5.87-15.64,13.11l0.25,25.7
			c0,5.18-4.65,9.37-10.38,9.37c-5.73,0-10.38-4.2-10.38-9.37v-25.62c0-0.02,0-0.03,0-0.05c-0.03-7.22-7.02-13.06-15.64-13.06
			c-8.64,0-15.64,5.87-15.64,13.11v51.82c0,0.05,0.02,0.1,0.02,0.16c0,0.12-0.02,0.24-0.02,0.37c0,8.03,6.58,14.6,14.61,14.6h29.52
			c4.68,0,8.85-2.24,11.53-5.68c1.97,3.37,5.6,5.68,9.78,5.68h6.01c6.25,0,11.36-5.11,11.36-11.35v-5.19L1169.4,480z"/>
		<path class="st2" d="M1051.46,488.65c-2.5-1.51-2.87-4.97-0.79-7.02c3.4-3.36,5.33-7.18,5.33-11.25
			c0-13.24-20.43-23.97-45.64-23.97c-25.21,0-45.64,10.73-45.64,23.97v11.72v49.17c0,8.87,7.19,16.06,16.06,16.06h61.6
			c0,0,6.03,0,6.03,0c2.77-0.09,5.5-0.86,7.72-2.5c0.66-0.48,1.29-0.97,1.91-1.47c8.7-7.01,13.85-15.67,13.85-25.05
			C1071.91,506.74,1064.1,496.27,1051.46,488.65 M1000.34,521.63c-8.67,0-15.7-3.75-15.7-8.37c0-4.62,7.03-8.37,15.7-8.37
			c8.67,0,15.7,3.75,15.7,8.37C1016.05,517.89,1009.02,521.63,1000.34,521.63 M1000.34,486.47c-8.67,0-15.7-3.75-15.7-8.37
			c0-4.62,7.03-8.37,15.7-8.37c8.67,0,15.7,3.75,15.7,8.37C1016.05,482.73,1009.02,486.47,1000.34,486.47"/>
		<path class="st2" d="M149,458.05c0,0-14.15-11.64-36.55-11.64c0,0-5.17-0.32-12.36,1.09c-17.1,3.35-30.36,17.67-30.62,35.09
			c-0.01,0.74,0,1.48,0.03,2.24v52.86c0,5.32,4.32,9.64,9.64,9.64h67.28c11.49,0,21.9-6.95,26.1-17.64c0.07-0.17,0.14-0.35,0.2-0.53
			c4.36-11.45,4.73-24.1,1.21-35.83C170.71,482.59,163.79,469.07,149,458.05 M121.73,528.38c-0.03,0.07-0.05,0.13-0.07,0.19
			c-1.35,3.43-4.68,5.67-8.37,5.67H98.04c-5.32,0-9.64-4.32-9.64-9.64v-10.54c-0.01-0.18-0.01-0.36-0.01-0.54
			c0-5.51,4-10.21,9.39-11.41c2.58-0.57,4.49-0.46,4.49-0.46c7.23,0,11.8,3.76,11.8,3.76c4.78,3.56,7.01,7.92,8.05,11.39
			C123.25,520.6,123.13,524.68,121.73,528.38"/>
		<path class="st2" d="M356.27,491.05c6.22-2.29,10.19-5.76,10.19-9.64c0-6.89-12.49-12.48-27.89-12.48
			c-15.4,0-27.89,5.59-27.89,12.48c0,3.89,3.97,7.35,10.19,9.64c-14.11,1.82-23.88,5.74-23.88,10.29v35.57
			c0,5.75,4.66,10.42,10.42,10.42h62.31c5.75,0,10.42-4.66,10.42-10.42v-35.57C380.15,496.79,370.38,492.87,356.27,491.05"/>
		<path class="st2" d="M273.96,513.14v-11.32c0,0,2.06-28.25-35.42-32.37c-3.77-0.42-7.59-0.39-11.38-0.05
			c-6.69,0.61-14.47,0.96-22.87,5.8c-8.18,4.72-3.6,15.89,6.16,14.9c2.36-0.24,5.02-0.61,8.01-1.07c2.91-0.38,4.16-0.35,4.16-0.35
			c-0.56,0.08-2.78,0.5-4.09,0.7c-2.86,0.55-6.76,1.42-10.27,2.64c-9.37,3.24-15.74,10.71-17.15,19.22c-0.18,0.67-0.3,1.36-0.3,2.08
			v1.52v5.31v1.32v5.56v11.42c0,4.89,4.43,8.88,9.84,8.88h37.85c4.5,0,8.28-2.78,9.44-6.52c1.16,3.74,4.94,6.52,9.44,6.52h6.75
			c5.41,0,9.84-4,9.84-8.88v-25.13C273.98,513.26,273.96,513.2,273.96,513.14 M248.5,524.07c-0.04,0.93-0.33,1.8-0.79,2.59
			c-1.24,2.1-3.81,3.52-6.69,3.52h-2.78h-14.44c-3.97,0-7.36-2.67-7.49-6.11c0-0.11-0.01-0.22-0.01-0.34c0-3.61,2.16-6.84,5.56-9.03
			c2.83-1.82,6.5-2.93,10.54-2.93c3.27,0,6.31,0.73,8.85,1.97c3.03,1.48,5.32,3.71,6.46,6.32c0.2,0.47,0.39,0.95,0.51,1.45
			c0.18,0.72,0.29,1.46,0.29,2.22C248.5,523.85,248.5,523.96,248.5,524.07"/>
	</g>
</g>
</svg>
