<?xml version="1.0" encoding="utf-8"?>
<!-- Generator: Adobe Illustrator 23.1.0, SVG Export Plug-In . SVG Version: 6.00 Build 0)  -->
<svg version="1.1" xmlns="http://www.w3.org/2000/svg" xmlns:xlink="http://www.w3.org/1999/xlink" x="0px" y="0px"
	 viewBox="0 0 1280 540.42" style="enable-background:new 0 0 1280 540.42;" xml:space="preserve">
<style type="text/css">
	.st0{display:none;}
	.st1{display:inline;fill:#989898;}
	.st2{fill:#060001;}
	.st3{fill:#040000;}
	.st4{clip-path:url(#SVGID_2_);fill:url(#SVGID_3_);}
	.st5{fill:#939494;}
	.st6{fill:none;stroke:#231815;stroke-width:2.254;stroke-linecap:round;stroke-miterlimit:10;}
	.st7{fill:none;stroke:#231815;stroke-width:1.042;stroke-linecap:round;stroke-miterlimit:10;}
	.st8{fill:#C8C9CA;}
</style>
<g id="BG" class="st0">
	<rect x="-4037.8" y="-1876.32" class="st1" width="5423.46" height="2640.54"/>
</g>
<g id="圖層_2">
	<g>
		<path d="M506.26,432.05c0,0.49,0.25,0.74,0.74,0.74h25.23c0.93,0,1.73,0.33,2.39,0.99c0.66,0.66,0.99,1.46,0.99,2.39
			c0,0.94-0.33,1.73-0.99,2.39c-0.66,0.66-1.46,0.99-2.39,0.99h-53.01c-0.55,0-0.82,0.27-0.82,0.82v19.46
			c0,17.75-3.24,31.16-9.73,40.23c-0.6,0.77-1.4,1.18-2.39,1.24h-0.08c-0.99,0-1.81-0.36-2.47-1.07c-0.77-0.71-1.21-1.59-1.32-2.64
			v-0.41c0-0.88,0.25-1.68,0.74-2.39c3.68-5.17,6.1-11.9,7.26-20.2c0-0.16-0.07-0.29-0.21-0.37c-0.14-0.08-0.26-0.07-0.37,0.04
			c-1.92,1.15-3.87,2.31-5.85,3.46c-0.5,0.27-0.99,0.41-1.49,0.41c-0.33,0-0.69-0.08-1.07-0.25c-0.88-0.33-1.49-0.93-1.81-1.81
			c-0.16-0.44-0.25-0.88-0.25-1.32c0-0.55,0.11-1.1,0.33-1.65c0.44-0.99,1.13-1.7,2.06-2.15c2.53-1.26,5.39-2.75,8.57-4.45
			c0.5-0.27,0.77-0.69,0.82-1.24v-5.44v-19.87c0-1.98,0.7-3.67,2.1-5.07c1.4-1.4,3.09-2.1,5.07-2.1h19.04c0.5,0,0.74-0.25,0.74-0.74
			v-2.31c0-1.15,0.4-2.13,1.19-2.93c0.8-0.8,1.76-1.19,2.89-1.19c1.13,0,2.09,0.4,2.89,1.19c0.8,0.8,1.19,1.77,1.19,2.93V432.05z"/>
		<path d="M473.41,453.79c0.28,0.1,0.54,0.27,0.78,0.49c0.45,0.41,0.79,0.94,1.01,1.59c0.32,0.96,0.33,1.89,0.02,2.8
			c-0.27,0.79-0.81,1.32-1.61,1.6c-0.8,0.27-1.58,0.21-2.34-0.18c-3.01-1.76-6.27-3.31-9.8-4.65c-0.83-0.31-1.43-0.85-1.8-1.63
			c-0.37-0.78-0.42-1.56-0.15-2.36c0.31-0.83,0.86-1.44,1.66-1.83c0.8-0.39,1.61-0.43,2.45-0.12
			C467.27,450.79,470.53,452.22,473.41,453.79"/>
		<path d="M503.56,464.73c-1.41-1.41-3.1-2.11-5.07-2.11h-9.64c-1.97,0-3.66,0.7-5.07,2.11c-1.41,1.41-2.11,3.1-2.11,5.07v2.18
			c0,1.97,0.7,3.66,2.11,5.07c1.41,1.41,3.1,2.11,5.07,2.11h9.64c1.97,0,3.66-0.7,5.07-2.11c1.41-1.41,2.11-3.1,2.11-5.07v-2.18
			C505.67,467.83,504.97,466.14,503.56,464.73 M499.55,473.1c0,0.56-0.21,0.84-0.77,0.84h-10.34c-0.56,0-0.77-0.28-0.77-0.84v-4.36
			c0-0.56,0.21-0.84,0.77-0.84h10.34c0.56,0,0.77,0.28,0.77,0.84V473.1z"/>
		<path d="M533.53,486.8v9.29c0,2.25-1.83,4.08-4.08,4.08h-43.2c-2.25,0-4.08-1.83-4.08-4.08v-9.29c0-1.06,0.42-1.97,1.12-2.67
			c0.77-0.7,1.62-1.06,2.6-1.06c0.98,0,1.83,0.35,2.6,1.06c0.7,0.7,1.13,1.62,1.13,2.67v5.98c0,0.56,0.28,0.84,0.77,0.84h12.73
			c0.56,0,0.85-0.28,0.85-0.84v-8.16c0-0.99,0.35-1.9,1.06-2.6c0.7-0.7,1.55-1.06,2.6-1.06c0.99,0,1.9,0.35,2.6,1.06
			c0.77,0.7,1.13,1.62,1.13,2.6v8.16c0,0.56,0.28,0.84,0.84,0.84h13.15c0.56,0,0.84-0.28,0.84-0.84v-5.98
			c0-1.06,0.35-1.97,1.06-2.67c0.7-0.7,1.62-1.06,2.6-1.06c1.06,0,1.9,0.35,2.6,1.06C533.17,484.83,533.53,485.75,533.53,486.8"/>
		<path d="M522.63,445.53c-1.41-1.41-3.1-2.11-5.07-2.11H499.2c-2.04,0-3.73,0.7-5.07,2.11c-1.41,1.41-2.11,3.1-2.11,5.07v2.04
			c0,1.97,0.7,3.73,2.11,5.07c1.34,1.41,3.02,2.11,5.07,2.11h18.36c1.97,0,3.66-0.7,5.07-2.11c1.41-1.34,2.11-3.1,2.11-5.07v-2.04
			C524.74,448.62,524.04,446.93,522.63,445.53 M517.77,453.76c0,0.49-0.21,0.77-0.77,0.77h-17.59c-0.56,0-0.84-0.28-0.84-0.77v-4.43
			c0-0.49,0.28-0.77,0.84-0.77H517c0.56,0,0.77,0.28,0.77,0.77V453.76z"/>
		<path d="M532.69,464.73c-1.41-1.41-3.1-2.11-5.07-2.11h-10.41c-1.97,0-3.66,0.7-5.07,2.11c-1.41,1.41-2.11,3.1-2.11,5.07v2.18
			c0,1.97,0.7,3.66,2.11,5.07c1.41,1.41,3.1,2.11,5.07,2.11h10.41c1.97,0,3.66-0.7,5.07-2.11c1.41-1.41,2.11-3.1,2.11-5.07v-2.18
			C534.8,467.83,534.1,466.14,532.69,464.73 M528.68,473.1c0,0.56-0.28,0.84-0.84,0.84h-10.91c-0.56,0-0.84-0.28-0.84-0.84v-4.36
			c0-0.56,0.28-0.84,0.84-0.84h10.91c0.56,0,0.84,0.28,0.84,0.84V473.1z"/>
		<path d="M595.01,446.23c0.6-0.88,1.4-1.51,2.39-1.9c0.49-0.16,1.02-0.25,1.57-0.25c0.44,0,0.91,0.08,1.4,0.25
			c0.93,0.33,1.57,0.93,1.9,1.81c0.11,0.33,0.16,0.69,0.16,1.07c0,0.49-0.14,0.99-0.41,1.48c-1.32,2.09-2.83,4.32-4.53,6.68
			c-0.33,0.5-0.49,1.02-0.49,1.57v42.63c0,1.04-0.36,1.92-1.07,2.64c-0.71,0.71-1.58,1.07-2.6,1.07s-1.88-0.36-2.6-1.07
			c-0.71-0.71-1.07-1.59-1.07-2.64v-33.88c0-0.16-0.07-0.27-0.21-0.33c-0.14-0.05-0.26-0.03-0.37,0.08
			c-1.54,1.7-3.05,3.22-4.53,4.53c-0.6,0.55-1.29,0.82-2.06,0.82h-0.66c-1.1-0.22-1.92-0.8-2.47-1.73
			c-0.44-0.77-0.66-1.57-0.66-2.39c0-0.27,0.03-0.55,0.08-0.82c0.16-1.15,0.71-2.12,1.65-2.89
			C586.14,458.13,591,452.55,595.01,446.23"/>
		<path d="M592.87,428.75c0.71-0.88,1.59-1.51,2.64-1.9c0.49-0.11,0.99-0.16,1.48-0.16c0.55,0,1.1,0.08,1.65,0.25
			c0.88,0.33,1.46,0.96,1.73,1.9c0.11,0.27,0.16,0.55,0.16,0.82c0,0.61-0.22,1.18-0.66,1.73c-4.45,5.72-9.43,10.72-14.92,15
			c-0.55,0.44-1.18,0.66-1.9,0.66c-0.22,0-0.44-0.03-0.66-0.08c-0.93-0.16-1.67-0.63-2.22-1.4c-0.5-0.6-0.74-1.29-0.74-2.06
			c0-0.16,0.03-0.33,0.08-0.5c0.11-0.93,0.52-1.7,1.24-2.31C585.64,436.91,589.68,432.92,592.87,428.75"/>
		<path d="M628.07,463.71c0.27-0.5,0.69-0.74,1.24-0.74c4.18-0.11,9.92-0.3,17.23-0.58c0.5-0.05,0.85,0.14,1.07,0.58
			c0.44,0.71,0.82,1.37,1.15,1.98c0.55,0.88,1.29,1.46,2.23,1.73c0.38,0.11,0.74,0.17,1.07,0.17c0.6,0,1.18-0.17,1.73-0.5
			c0.94-0.55,1.54-1.32,1.81-2.31c0.11-0.39,0.16-0.74,0.16-1.07c0-0.66-0.16-1.26-0.49-1.81c-2.25-3.74-5.33-7.86-9.23-12.37
			c-0.66-0.77-1.51-1.24-2.56-1.4c-0.27-0.05-0.55-0.08-0.82-0.08c-0.71,0-1.4,0.19-2.06,0.58c-0.77,0.39-1.24,1.02-1.4,1.9
			s0.03,1.67,0.58,2.39c0.99,1.15,1.87,2.25,2.64,3.3c0.11,0.11,0.12,0.25,0.04,0.41c-0.08,0.16-0.21,0.25-0.37,0.25
			c-3.96,0.11-9.81,0.19-17.56,0.25c-0.17,0.05-0.26,0.01-0.29-0.12c-0.03-0.14,0.01-0.26,0.12-0.37
			c5.88-4.95,12.04-10.72,18.47-17.31c0.6-0.6,0.91-1.29,0.91-2.06c0-0.16-0.03-0.36-0.08-0.58c-0.11-0.99-0.6-1.73-1.48-2.22
			c-0.77-0.39-1.54-0.58-2.31-0.58c-0.33,0-0.63,0.03-0.91,0.08c-1.15,0.22-2.12,0.77-2.89,1.65c-3.13,3.68-6.87,7.64-11.21,11.87
			c-0.39,0.39-0.77,0.39-1.15,0c-1.49-1.37-3.22-2.83-5.19-4.37c-0.44-0.39-0.47-0.74-0.08-1.07c2.42-2.42,5.28-5.55,8.57-9.4
			c0.49-0.55,0.74-1.18,0.74-1.9c0-0.22-0.03-0.44-0.08-0.66c-0.17-0.94-0.69-1.65-1.57-2.14c-0.61-0.33-1.26-0.5-1.98-0.5
			c-0.33,0-0.69,0.06-1.07,0.17c-1.04,0.27-1.9,0.85-2.56,1.73c-2.31,3.24-4.73,6.24-7.26,8.99c-0.27,0.27-0.58,0.3-0.91,0.08
			c-0.44-0.27-0.94-0.61-1.49-0.99c-0.71-0.44-1.46-0.66-2.22-0.66c-0.16,0-0.36,0.03-0.58,0.08c-0.99,0.11-1.81,0.52-2.47,1.24
			c-0.66,0.66-0.93,1.44-0.82,2.35c0.11,0.91,0.55,1.63,1.32,2.18c4.78,3.41,8.79,6.73,12.04,9.98c0.39,0.39,0.39,0.77,0,1.15
			c-1.04,0.94-2.22,1.95-3.54,3.05c-0.44,0.38-0.94,0.58-1.49,0.58c-4.12,0.05-7.01,0.08-8.66,0.08c-0.93,0.06-1.73,0.44-2.39,1.15
			c-0.55,0.61-0.82,1.32-0.82,2.15c0,1.1,0.44,2.03,1.32,2.8c0.71,0.6,1.54,0.91,2.47,0.91h0.16c3.79-0.11,8.41-0.22,13.85-0.33
			c0.16,0,0.29,0.07,0.37,0.21c0.08,0.14,0.07,0.29-0.04,0.45c-4.12,5.61-9.48,10.42-16.08,14.43c-0.82,0.5-1.29,1.21-1.4,2.14
			c-0.05,0.17-0.08,0.33-0.08,0.5c0,0.77,0.27,1.46,0.82,2.06c0.77,0.82,1.68,1.35,2.72,1.57c0.27,0.06,0.55,0.08,0.82,0.08
			c0.77,0,1.51-0.25,2.23-0.74c1.81-1.21,3.46-2.47,4.95-3.79c0.44-0.39,0.82-0.36,1.15,0.08c2.25,3.08,4.7,5.74,7.34,8
			c0.17,0.16,0.23,0.34,0.21,0.54c-0.03,0.19-0.12,0.34-0.29,0.45c-5.5,2.86-11.57,5.06-18.22,6.59c-0.88,0.16-1.49,0.67-1.81,1.53
			c-0.33,0.85-0.27,1.66,0.16,2.43c0.55,0.99,1.32,1.73,2.31,2.23c0.66,0.33,1.32,0.49,1.98,0.49c0.39,0,0.74-0.05,1.07-0.16
			c7.75-2.03,14.65-4.86,20.69-8.49c0.44-0.27,0.91-0.25,1.4,0.08c5.66,3.57,12.01,6.32,19.05,8.24c0.44,0.11,0.88,0.16,1.32,0.16
			c0.71,0,1.4-0.14,2.06-0.41c1.15-0.49,2.09-1.26,2.8-2.31c0.55-0.77,0.66-1.58,0.33-2.43c-0.33-0.85-0.94-1.39-1.81-1.61
			c-6.43-1.43-12.23-3.49-17.4-6.18c-0.16-0.11-0.26-0.26-0.29-0.45c-0.03-0.19,0.04-0.34,0.21-0.45c5.22-4.4,9.21-9.48,11.95-15.25
			c0.33-0.66,0.36-1.33,0.08-2.02c-0.28-0.69-0.74-1.19-1.4-1.52l-1.32-0.58c-0.71-0.33-1.49-0.41-2.31-0.25h-0.33h-17.07
			c-0.16,0-0.29-0.07-0.37-0.21c-0.08-0.14-0.07-0.29,0.04-0.45C625.9,467,626.97,465.46,628.07,463.71 M637.39,475
			c0.16,0,0.29,0.08,0.37,0.25c0.08,0.16,0.07,0.3-0.04,0.41c-2.2,3.3-5.06,6.27-8.57,8.9c-0.44,0.33-0.88,0.33-1.32,0
			c-3.63-2.86-6.54-5.91-8.74-9.15c-0.11-0.11-0.12-0.21-0.04-0.29c0.08-0.08,0.15-0.12,0.21-0.12H637.39z"/>
		<path d="M882.08,427.92c1.98,0,3.67,0.7,5.07,2.1c1.4,1.4,2.1,3.09,2.1,5.07v55.49c0,2.53-0.37,4.47-1.11,5.81
			c-0.74,1.35-1.97,2.32-3.67,2.93c-2.31,0.93-6.82,1.46-13.52,1.57h-0.16c-1.21,0-2.34-0.39-3.38-1.15
			c-1.04-0.77-1.81-1.79-2.31-3.05c-0.16-0.39-0.25-0.77-0.25-1.15c0-0.49,0.14-0.99,0.41-1.48c0.49-0.82,1.21-1.24,2.14-1.24h0.16
			c2.42,0.11,4.62,0.16,6.59,0.16c1.54,0,2.97-0.03,4.29-0.08c0.93,0,1.58-0.18,1.94-0.53c0.36-0.36,0.54-1,0.54-1.94v-13.93
			c0-0.55-0.28-0.82-0.82-0.82H843.5c-0.55,0-0.88,0.27-0.99,0.82c-2.25,9.02-6.02,16.32-11.29,21.93
			c-0.77,0.77-1.65,1.15-2.64,1.15c-0.05,0-0.14-0.03-0.25-0.08c-1.1-0.06-2.06-0.5-2.89-1.32c-0.82-0.77-1.24-1.73-1.24-2.89
			c0-0.99,0.33-1.87,0.99-2.64c1.87-1.92,3.46-4.01,4.78-6.27c2.09-3.35,3.57-6.97,4.45-10.84c0.88-3.88,1.47-7.37,1.77-10.47
			c0.3-3.11,0.45-6.64,0.45-10.6V435.1c0-1.98,0.7-3.67,2.1-5.07c1.4-1.4,3.09-2.1,5.07-2.1H882.08z M843.99,467.17
			c0,0.22,0.07,0.41,0.21,0.58c0.14,0.16,0.32,0.25,0.54,0.25h35.37c0.55,0,0.82-0.27,0.82-0.82v-10.8c0-0.55-0.28-0.82-0.82-0.82
			h-34.63c-0.55,0-0.82,0.27-0.82,0.82C844.6,459.78,844.38,463.38,843.99,467.17 M880.93,436.33c0-0.55-0.28-0.82-0.82-0.82h-34.63
			c-0.55,0-0.82,0.27-0.82,0.82v10.88c0,0.55,0.28,0.82,0.82,0.82h34.63c0.55,0,0.82-0.27,0.82-0.82V436.33z"/>
		<path d="M960.53,463.05c0.88-0.27,1.72-0.15,2.52,0.37c0.8,0.52,1.25,1.25,1.36,2.18c0.06,0.16,0.08,0.36,0.08,0.58
			c0,0.77-0.25,1.51-0.74,2.23c-0.55,0.82-1.29,1.4-2.23,1.73c-2.03,0.6-3.38,1.02-4.04,1.24c-0.55,0.16-0.82,0.52-0.82,1.07v21.44
			c0,2.09-0.23,3.72-0.7,4.9c-0.47,1.18-1.31,2.08-2.52,2.68c-1.59,0.88-4.15,1.37-7.67,1.48h-0.16c-1.04,0-1.98-0.33-2.8-0.99
			c-0.88-0.71-1.51-1.65-1.9-2.8c-0.05-0.33-0.08-0.63-0.08-0.91c0-0.55,0.17-1.1,0.5-1.65c0.55-0.77,1.29-1.13,2.23-1.07h4.12
			c0.55,0,0.93-0.12,1.15-0.37c0.22-0.25,0.33-0.67,0.33-1.28v-19.13c0-0.22-0.08-0.4-0.25-0.53c-0.16-0.14-0.33-0.18-0.49-0.12
			l-6.02,1.73c-0.39,0.11-0.74,0.16-1.07,0.16c-0.6,0-1.21-0.16-1.81-0.5c-0.93-0.55-1.51-1.35-1.73-2.39
			c-0.05-0.33-0.08-0.63-0.08-0.91c0-0.71,0.19-1.4,0.58-2.06c0.6-0.94,1.43-1.54,2.47-1.81c2.14-0.55,4.7-1.21,7.67-1.98
			c0.49-0.16,0.74-0.52,0.74-1.07V450.1c0-0.55-0.27-0.82-0.82-0.82h-6.27c-0.99,0-1.84-0.36-2.56-1.07s-1.07-1.58-1.07-2.6
			c0-1.02,0.36-1.87,1.07-2.56c0.71-0.69,1.57-1.03,2.56-1.03h6.27c0.55,0,0.82-0.27,0.82-0.82v-11.79c0-0.99,0.37-1.85,1.11-2.6
			c0.74-0.74,1.63-1.11,2.68-1.11c1.04,0,1.92,0.37,2.64,1.11c0.71,0.74,1.07,1.61,1.07,2.6v11.79c0,0.55,0.28,0.82,0.82,0.82h2.89
			c1.04,0,1.91,0.34,2.6,1.03c0.69,0.69,1.03,1.54,1.03,2.56c0,1.02-0.34,1.88-1.03,2.6c-0.69,0.71-1.55,1.07-2.6,1.07h-2.89
			c-0.55,0-0.82,0.25-0.82,0.74v13.28c0,0.22,0.08,0.38,0.25,0.49c0.17,0.11,0.33,0.14,0.5,0.08L960.53,463.05z"/>
		<path d="M1014.22,494.92c-0.63-0.7-1.48-1.06-2.46-1.06h-13.37c-0.56,0-0.84-0.28-0.84-0.84v-10.86c0-0.56,0.28-0.84,0.84-0.84
			h10.06c0.84,0,1.62-0.28,2.32-0.99c0.63-0.63,0.98-1.41,0.98-2.32c0-0.91-0.35-1.69-0.98-2.32c-0.7-0.7-1.48-0.98-2.32-0.98
			h-10.06c-0.56,0-0.84-0.28-0.84-0.84v-8.37c0-0.49,0.28-0.77,0.84-0.77h9.99c0.92,0,1.69-0.35,2.39-0.99
			c0.63-0.7,0.98-1.48,0.98-2.39c0-0.99-0.35-1.76-0.98-2.39c-0.7-0.7-1.48-0.99-2.39-0.99h-9.99c-0.56,0-0.84-0.28-0.84-0.84v-8.16
			c0-0.56,0.28-0.84,0.84-0.84h11.89c0.99,0,1.76-0.35,2.46-0.99c0.7-0.7,1.06-1.55,1.06-2.53c0-0.91-0.35-1.76-1.06-2.46
			c-0.7-0.7-1.48-0.99-2.46-0.99h-11.33c-0.14,0-0.28-0.14-0.42-0.28c-0.07-0.14-0.14-0.35-0.07-0.49c1.2-2.46,2.53-5.42,3.94-8.86
			c0.21-0.49,0.35-0.91,0.35-1.41c0-0.56-0.14-1.13-0.42-1.62c-0.56-0.99-1.34-1.55-2.39-1.76c-0.35-0.14-0.63-0.21-0.99-0.21
			c-0.84,0-1.62,0.21-2.32,0.7c-0.98,0.56-1.69,1.48-2.04,2.6c-1.19,3.65-2.46,7.16-3.86,10.53c-0.44,0.29-0.77,0.51-1.2,0.79h-9.64
			c-0.21,0-0.35-0.14-0.49-0.28c-0.07-0.14-0.07-0.35,0-0.49c1.34-2.95,2.53-6.05,3.59-9.29c0.14-0.42,0.21-0.77,0.21-1.19
			c0-0.56-0.14-1.13-0.49-1.69c-0.56-0.98-1.34-1.55-2.32-1.76c-0.35-0.14-0.7-0.14-1.06-0.14c-0.63,0-1.27,0.14-1.9,0.49
			c-0.91,0.56-1.55,1.34-1.9,2.39c-3.1,9.36-7.11,17.24-12.17,23.57c-0.84,0.99-1.27,2.11-1.27,3.31c0,1.13,0.35,2.18,1.06,3.1
			c0.7,0.91,1.55,1.34,2.67,1.41h0.14c0.98,0,1.83-0.35,2.46-1.12c0.63-0.77,1.2-1.55,1.76-2.39c0.14-0.14,0.21-0.14,0.35-0.14
			c0.07,0,0.14,0.14,0.14,0.28v38.99c0,2.65,2.15,4.8,4.8,4.8h36.28c0.99,0,1.83-0.35,2.46-1.06c0.7-0.77,1.06-1.62,1.06-2.53
			C1015.27,496.4,1014.92,495.55,1014.22,494.92 M990.23,493.02c0,0.56-0.28,0.84-0.84,0.84h-10.27c-0.56,0-0.84-0.28-0.84-0.84
			v-10.86c0-0.56,0.28-0.84,0.84-0.84h10.27c0.56,0,0.84,0.28,0.84,0.84V493.02z M990.23,473.86c0,0.56-0.28,0.84-0.84,0.84h-10.27
			c-0.56,0-0.84-0.28-0.84-0.84v-8.37c0-0.49,0.28-0.77,0.84-0.77h10.27c0.56,0,0.84,0.28,0.84,0.77V473.86z M990.23,457.11
			c0,0.56-0.28,0.84-0.84,0.84h-10.27c-0.56,0-0.84-0.28-0.84-0.84v-8.16c0-0.56,0.28-0.84,0.84-0.84h10.27
			c0.56,0,0.84,0.28,0.84,0.84V457.11z"/>
		<path d="M1248.66,451.62c-1.34-1.41-3.02-2.11-5.07-2.11h-14.4c-1.97,0-3.66,0.7-5.07,2.11c-1.41,1.41-2.11,3.1-2.11,5.07v42
			c0,0.98,0.35,1.9,1.12,2.6c0.7,0.7,1.55,1.06,2.6,1.06c0.98,0,1.83-0.35,2.53-1.06c0.77-0.7,1.13-1.62,1.13-2.6v-41.23
			c0-0.56,0.28-0.84,0.77-0.84h12.22c0.56,0,0.84,0.28,0.84,0.84v27.16c0,0.49-0.14,0.84-0.35,1.06c-0.21,0.21-0.7,0.35-1.34,0.35
			h-6.26c-0.85,0-1.55,0.35-2.04,1.12c-0.49,0.7-0.63,1.48-0.35,2.39c0.35,1.06,0.91,1.97,1.83,2.6c0.84,0.7,1.76,1.06,2.88,1.06
			h0.07c4.5-0.07,7.67-0.42,9.5-1.2c1.34-0.63,2.32-1.48,2.81-2.6c0.56-1.13,0.77-2.67,0.77-4.64v-28.07
			C1250.77,454.72,1250.07,453.03,1248.66,451.62"/>
		<path d="M1252.53,433.54c-0.63-0.56-1.34-0.84-2.18-0.84h-22.37c-0.14,0-0.21-0.07-0.28-0.21c-0.14-0.14-0.14-0.28-0.07-0.35
			c0.28-0.49,0.56-1.06,0.84-1.69c0.14-0.42,0.21-0.84,0.21-1.27c0-0.49-0.07-0.91-0.28-1.41c-0.49-0.99-1.19-1.55-2.25-1.76
			c-0.35-0.07-0.63-0.14-0.99-0.14c-0.7,0-1.41,0.21-2.04,0.56c-0.98,0.49-1.69,1.27-2.18,2.25c-1.62,3.38-3.59,6.54-5.98,9.43
			c0,0.07-0.07,0.07-0.21,0.07c-0.07,0-0.14-0.07-0.14-0.21c0-1.41-0.56-2.67-1.55-3.73c-1.06-0.98-2.32-1.55-3.8-1.55h-14.7
			c-0.14,0-0.28-0.07-0.35-0.21c-0.07-0.14-0.14-0.28-0.07-0.35c0.28-0.49,0.56-1.06,0.77-1.55c0.21-0.49,0.35-0.91,0.35-1.34
			c0-0.49-0.14-0.99-0.35-1.41c-0.49-0.91-1.27-1.55-2.25-1.83c-0.35-0.07-0.7-0.07-1.06-0.07c-0.63,0-1.27,0.14-1.9,0.49
			c-0.98,0.49-1.69,1.27-2.11,2.25c-2.32,5-5.07,9.29-8.3,12.8c-0.49,0.63-0.77,1.34-0.77,2.18c0,1.13,0.42,2.04,1.41,2.6
			c0.7,0.56,1.62,0.84,2.53,0.84c0.14,0,0.35,0,0.49-0.07c1.13-0.14,1.97-0.56,2.74-1.41c1.48-1.83,3.03-3.94,4.5-6.26
			c0.28-0.42,0.7-0.63,1.27-0.63h0.49c0.56,0,0.99,0.21,1.2,0.7c1.06,2.04,1.97,4.08,2.74,6.05c0.35,0.84,0.91,1.48,1.83,1.9
			c0.42,0.21,0.91,0.28,1.41,0.28c0.35,0,0.77-0.07,1.2-0.21c0.91-0.42,1.62-1.06,1.97-1.97c0.21-0.49,0.35-0.91,0.35-1.41
			c0-0.42-0.07-0.91-0.28-1.34c-0.49-1.13-0.99-2.25-1.62-3.38c-0.07-0.14-0.07-0.28,0.07-0.42c0.07-0.14,0.21-0.21,0.42-0.21h12.45
			c0.14,0,0.28,0.07,0.35,0.21v0.35c-0.7,0.77-1.34,1.48-2.11,2.11c-0.49,0.64-0.77,1.34-0.77,2.11c0,1.06,0.42,1.9,1.2,2.53
			c0.84,0.63,1.76,0.91,2.81,0.91h0.28c1.12-0.07,2.11-0.49,2.89-1.34c1.76-1.9,3.45-4.01,4.99-6.26c0.28-0.42,0.7-0.63,1.27-0.63
			h3.17c0.56,0,0.99,0.21,1.34,0.63c1.62,2.18,2.95,4.29,4.15,6.33c0.49,0.99,1.2,1.62,2.11,1.97c0.49,0.21,0.99,0.35,1.48,0.35
			c0.49,0,0.91-0.07,1.34-0.21c0.91-0.42,1.55-1.06,1.9-1.9c0.14-0.42,0.28-0.77,0.28-1.2c0-0.56-0.14-1.06-0.42-1.55
			c-0.7-1.2-1.55-2.46-2.46-3.8c-0.14-0.14-0.14-0.28-0.07-0.42c0.07-0.14,0.21-0.21,0.35-0.21h12.59c0.84,0,1.55-0.35,2.18-0.91
			c0.63-0.64,0.91-1.34,0.91-2.18C1253.44,434.88,1253.16,434.18,1252.53,433.54"/>
		<path d="M1218.31,494.19c-2.18-4.08-5.49-8.5-8.86-12.58c-0.63-0.77-0.92-0.93-1.9-1.14c-0.28-0.07-0.64-0.14-0.84-0.14
			c-0.7,0-1.34,0.21-1.9,0.49c-0.77,0.42-1.27,1.06-1.41,1.83c-0.21,0.84,0,1.62,0.49,2.25c0.77,0.98,1.62,2.11,2.53,3.45
			c0.14,0.14,0.14,0.35,0.07,0.49c-0.14,0.14-0.21,0.28-0.42,0.28c-1.2,0.14-5.46,0.42-8.27,0.91c-2.74,0.42-4.85,0.7-6.26,0.84
			c-0.21,0.07-0.42,0-0.56-0.14c-0.21-0.14-0.28-0.35-0.28-0.56v-11.05c0-0.47,0.38-0.84,0.84-0.84h17.42c2.04,0,3.8-0.7,5.14-2.11
			c1.41-1.41,2.04-3.1,2.04-5.07v-14.42c0-1.97-0.63-3.66-2.04-5.07c-1.34-1.41-3.1-2.11-5.14-2.11h-18.33
			c-1.97,0-3.66,0.7-5.07,2.11c-1.41,1.41-2.11,3.1-2.11,5.07v37.39c0,2.68,2.42,4.72,5.06,4.3c7.59-1.21,16.28-2.28,21.44-3.21
			c0.49,0,0.77,0.14,1.06,0.49c0.28,0.63,0.63,1.27,0.99,1.9c0.42,0.91,1.06,1.48,1.97,1.83c0.35,0.14,0.77,0.14,1.13,0.14
			c0.56,0,1.06-0.07,1.55-0.28c0.98-0.49,1.62-1.27,1.9-2.25c0.14-0.35,0.21-0.77,0.21-1.12
			C1218.73,495.31,1218.59,494.75,1218.31,494.19 M1190.69,456.34c0-0.49,0.28-0.77,0.84-0.77h16.44c0.56,0,0.84,0.28,0.84,0.77
			v3.73c0,0.56-0.28,0.84-0.84,0.84h-16.44c-0.56,0-0.84-0.28-0.84-0.84V456.34z M1190.69,467.52c0-0.56,0.28-0.84,0.84-0.84h16.44
			c0.56,0,0.84,0.28,0.84,0.84v3.94c0,0.56-0.28,0.84-0.84,0.84h-16.44c-0.56,0-0.84-0.28-0.84-0.84V467.52z"/>
		<path d="M709.61,437.9c-0.55,0-0.82,0.27-0.82,0.82v4.04c0,1.05-0.38,1.95-1.15,2.72c-0.77,0.77-1.69,1.15-2.76,1.15
			c-1.07,0-1.98-0.38-2.72-1.15c-0.74-0.77-1.11-1.67-1.11-2.72v-3.96c0-1.98,0.7-3.67,2.1-5.07c1.4-1.4,3.09-2.1,5.07-2.1h23.74
			c0.44,0,0.66-0.22,0.66-0.66v-1.32c0-1.15,0.38-2.12,1.15-2.89c0.77-0.77,1.72-1.15,2.84-1.15s2.07,0.38,2.84,1.15
			c0.77,0.77,1.15,1.73,1.15,2.89v1.32c0,0.44,0.22,0.66,0.66,0.66h24.24c1.98,0,3.67,0.7,5.07,2.1c1.4,1.4,2.1,3.09,2.1,5.07v3.79
			c0,1.1-0.38,2.05-1.15,2.84c-0.77,0.8-1.72,1.19-2.84,1.19c-1.13,0-2.07-0.4-2.84-1.19c-0.77-0.8-1.15-1.74-1.15-2.84v-3.87
			c0-0.55-0.27-0.82-0.82-0.82h-30.17c-0.11,0-0.18,0.05-0.21,0.16c-0.03,0.11,0.01,0.19,0.12,0.25c1.98,0.93,3.71,1.84,5.19,2.72
			c0.77,0.44,1.18,1.1,1.24,1.98c0.05,0.88-0.22,1.59-0.82,2.14c-0.66,0.66-1.48,1.02-2.47,1.07h-0.25c-0.82,0-1.59-0.22-2.31-0.66
			c-1.81-1.21-3.82-2.36-6.02-3.46c-0.77-0.39-1.21-0.99-1.32-1.81c-0.11-0.82,0.14-1.51,0.74-2.06c0.06-0.05,0.06-0.12,0-0.21
			c-0.05-0.08-0.11-0.12-0.16-0.12H709.61z"/>
		<path d="M763.65,469.78c-1.41-1.41-3.1-2.11-5.07-2.11h-17.73c-0.28,0-0.42-0.14-0.42-0.42c0-0.99-0.35-1.83-1.06-2.53
			c-0.63-0.63-1.48-0.99-2.46-0.99h-0.7c-0.98,0-1.83,0.35-2.46,0.99c-0.7,0.7-1.06,1.55-1.06,2.53c0,0.28-0.14,0.42-0.42,0.42H713
			c-0.07,0-0.07-0.07-0.14-0.14c0-0.07,0-0.14,0.07-0.14c4.78-1.62,9.15-3.31,13.09-5.06c0.49-0.21,0.99-0.35,1.55-0.28
			c1.27,0.14,2.74,0.21,4.5,0.21h15.9c2.82,0,4.93-0.49,6.26-1.34c1.34-0.92,2.18-2.53,2.67-4.93c0.28-0.84,0.07-1.62-0.49-2.39
			c-0.49-0.77-1.27-1.34-2.11-1.62c-0.7-0.21-1.41-0.14-2.04,0.28c-0.7,0.35-1.13,0.91-1.27,1.62c-0.14,1.13-0.49,1.83-1.06,2.18
			c-0.56,0.35-1.48,0.56-2.74,0.56h-9.22c-0.14,0-0.21-0.07-0.21-0.14c0-0.14,0-0.21,0.14-0.28c6.12-3.59,11.26-7.67,15.55-12.03
			c0.7-0.63,0.92-1.34,0.7-2.18c-0.21-0.84-0.63-1.48-1.41-1.76c-0.7-0.35-1.34-0.49-1.97-0.49c-0.35,0-0.7,0-0.99,0.07
			c-1.06,0.21-1.9,0.7-2.6,1.41c-4.86,4.78-11.26,9.15-19.14,13.09c-0.14,0.07-0.28,0.07-0.49,0c-0.14-0.14-0.21-0.28-0.21-0.49
			v-5.91c0-0.99-0.35-1.76-0.99-2.46c-0.7-0.7-1.48-1.06-2.39-1.06c-0.98,0-1.76,0.35-2.46,1.06c-0.7,0.7-0.98,1.48-0.98,2.46v6.4
			c0,0.92,0,1.76,0.14,2.39c0.07,0.56-0.07,0.91-0.56,1.19c-5.49,2.11-11.12,3.94-16.96,5.49c-0.77,0.21-1.34,0.7-1.55,1.48
			c-0.07,0.28-0.14,0.56-0.14,0.77c0,0.49,0.21,1.06,0.56,1.48c0.7,0.84,1.62,1.48,2.67,1.9c0.49,0.14,1.13,0.21,1.69,0.21
			c0.49,0,0.98-0.07,1.48-0.14c0.14-0.07,0.35-0.14,0.7-0.28c0.28-0.07,0.49,0,0.49,0.35v10.48c0,1.97,0.7,3.66,2.11,5.07
			c1.34,1.41,3.03,2.11,5.07,2.11h15.62c0.56,0,0.84,0.28,0.84,0.84v3.45h7.74v-3.45c0-0.56,0.28-0.84,0.84-0.84h17.8
			c1.9,0,3.45-0.63,4.71-1.97c1.34-1.27,1.97-2.89,1.97-4.71v-5.28C765.76,472.87,765.06,471.18,763.65,469.78 M732.7,480.12
			c0,0.56-0.28,0.84-0.84,0.84H717.5c-0.49,0-0.77-0.28-0.77-0.84v-5.77c0-0.56,0.28-0.84,0.77-0.84h14.35
			c0.56,0,0.84,0.28,0.84,0.84V480.12z M757.6,480.12c0,0.56-0.28,0.84-0.84,0.84h-15.48c-0.56,0-0.84-0.28-0.84-0.84v-5.77
			c0-0.56,0.28-0.84,0.84-0.84h15.48c0.56,0,0.84,0.28,0.84,0.84V480.12z"/>
		<path d="M710.52,446.06c0.39-0.82,0.98-1.44,1.77-1.85c0.8-0.41,1.62-0.48,2.47-0.21c0.85,0.27,1.47,0.8,1.85,1.57
			c0.39,0.77,0.41,1.57,0.08,2.39c-1.81,4.56-4.4,8.11-7.75,10.64c-0.77,0.5-1.57,0.74-2.39,0.74h-0.41
			c-0.99-0.05-1.87-0.41-2.64-1.07c-0.66-0.55-0.95-1.22-0.87-2.02c0.08-0.8,0.45-1.44,1.11-1.94
			C706.61,452.22,708.87,449.47,710.52,446.06"/>
		<path d="M756.77,450.27c-0.66-0.49-0.98-1.15-0.95-1.98c0.03-0.82,0.37-1.48,1.03-1.98c0.82-0.55,1.73-0.82,2.72-0.82
			c1.04,0,1.95,0.3,2.72,0.91c3.85,2.97,7.12,5.99,9.81,9.07c0.55,0.66,0.82,1.37,0.82,2.14v0.58c-0.17,0.99-0.66,1.79-1.49,2.39
			c-0.6,0.5-1.29,0.74-2.06,0.74h-0.58c-0.99-0.17-1.79-0.63-2.39-1.4C763.72,456.62,760.5,453.4,756.77,450.27"/>
		<path d="M767.52,485.89c-2.11,0-3.87,1.69-3.87,3.87v4.15h-23.22v-4.46c0-2.14-1.73-3.87-3.87-3.87c-2.14,0-3.87,1.73-3.87,3.87
			v4.46h-26.03c-1.76,0-3.1,1.41-3.1,3.1v0.91c0,1.69,1.34,3.03,3.1,3.03h26.03v0.03h2.84c0.05,0,0.09-0.03,0.14-0.03h30.87
			c2.67,0,4.85-2.18,4.85-4.85v-6.33C771.39,487.58,769.7,485.89,767.52,485.89"/>
		<path d="M763.65,492.78v1.13h-1.13C763.16,493.91,763.65,493.42,763.65,492.78"/>
		<path d="M1089.14,492.97c0.99-0.39,1.92-0.58,2.8-0.58c1.26,0,2.47,0.41,3.63,1.24c0.66,0.44,0.96,1.08,0.91,1.94
			c-0.06,0.85-0.47,1.44-1.24,1.77c-4.89,2.09-10.11,3.79-15.66,5.11c-0.44,0.11-0.91,0.16-1.4,0.16c-1.54,0-2.97-0.66-4.29-1.98
			c-0.39-0.39-0.58-0.8-0.58-1.24c0-0.22,0.03-0.41,0.08-0.58c0.22-0.71,0.69-1.15,1.4-1.32
			C1080.02,496.3,1084.8,494.79,1089.14,492.97"/>
		<path d="M1120.14,438.97h10.31c0.93,0,1.73-0.33,2.39-0.99c0.66-0.66,0.99-1.46,0.99-2.39c0-0.94-0.33-1.73-0.99-2.39
			c-0.66-0.66-1.46-0.99-2.39-0.99h-27.04c-0.44,0-0.66-0.22-0.66-0.66v-1.98c0-1.1-0.39-2.03-1.15-2.8
			c-0.77-0.77-1.7-1.15-2.8-1.15c-1.1,0-2.05,0.38-2.84,1.15c-0.8,0.77-1.19,1.7-1.19,2.8v1.98c0,0.44-0.22,0.66-0.66,0.66h-21.85
			c-1.98,0-3.67,0.7-5.07,2.1s-2.1,3.09-2.1,5.07v17.4c0,7.47-0.4,14.41-1.19,20.82c-0.8,6.4-2.43,12.24-4.91,17.52
			c-0.22,0.55-0.33,1.1-0.33,1.65c0,0.38,0.05,0.8,0.16,1.24c0.28,0.99,0.85,1.76,1.73,2.31c0.66,0.38,1.32,0.58,1.98,0.58
			c0.27,0,0.55-0.06,0.82-0.17c1.04-0.22,1.76-0.77,2.14-1.65c4.67-9.73,7.01-23.83,7.01-42.29V439.8c0-0.55,0.28-0.82,0.82-0.82
			h12.7c0.55,0,0.82,0.27,0.82,0.82v3.38c0,0.55-0.27,0.82-0.82,0.82h-10.47c-0.66,0-1.24,0.23-1.73,0.7
			c-0.5,0.47-0.74,1.04-0.74,1.73c0,0.69,0.25,1.26,0.74,1.73c0.49,0.47,1.07,0.7,1.73,0.7h10.47c0.55,0,0.82,0.27,0.82,0.82v1.4
			c0,1.98,0.7,3.67,2.1,5.07s3.09,2.1,5.07,2.1h18.14c2.03,0,3.74-0.7,5.11-2.1c1.37-1.4,2.06-3.09,2.06-5.07v-1.4
			c0-0.55,0.28-0.82,0.82-0.82h9.98c0.66,0,1.22-0.23,1.69-0.7c0.47-0.47,0.7-1.04,0.7-1.73c0-0.69-0.23-1.26-0.7-1.73
			c-0.47-0.47-1.03-0.7-1.69-0.7h-9.98c-0.55,0-0.82-0.27-0.82-0.82v-3.38C1119.32,439.25,1119.59,438.97,1120.14,438.97
			 M1111.57,452.82c0,0.55-0.28,0.82-0.82,0.82h-15.66c-0.55,0-0.82-0.27-0.82-0.82v-3.13c0-0.55,0.27-0.82,0.82-0.82h15.66
			c0.55,0,0.82,0.27,0.82,0.82V452.82z M1111.57,443.18c0,0.55-0.28,0.82-0.82,0.82h-15.66c-0.55,0-0.82-0.27-0.82-0.82v-3.38
			c0-0.55,0.27-0.82,0.82-0.82h15.66c0.55,0,0.82,0.27,0.82,0.82V443.18z"/>
		<path d="M1110.66,497.1c-0.71-0.22-1.13-0.69-1.24-1.4c-0.05-0.16-0.08-0.3-0.08-0.41c0-0.55,0.22-1.02,0.66-1.4
			c1.26-1.04,2.64-1.57,4.12-1.57c0.61,0,1.24,0.11,1.9,0.33c5.44,1.54,10.39,3.11,14.84,4.7c0.93,0.27,1.4,0.93,1.4,1.98
			c0,0.71-0.33,1.29-0.99,1.73c-1.37,0.82-2.8,1.24-4.29,1.24c-1.05,0-2.14-0.22-3.3-0.66
			C1119.62,499.98,1115.28,498.47,1110.66,497.1"/>
		<path d="M1132.87,461.97c-0.49-0.56-1.2-0.84-1.9-0.84h-55.16c-0.77,0-1.48,0.28-1.97,0.84c-0.49,0.49-0.77,1.12-0.77,1.83
			c0,0.77,0.28,1.41,0.77,1.9c0.49,0.49,1.19,0.7,1.97,0.7h22.37c0.56,0,0.84,0.28,0.84,0.84v1.9c0,0.56-0.28,0.84-0.84,0.84h-13.15
			c-1.97,0-3.66,0.7-5.07,2.11c-1.41,1.41-2.11,3.09-2.11,5.07v6.75c0,2.04,0.7,3.73,2.11,5.07c1.41,1.41,3.09,2.11,5.07,2.11h36.58
			c1.97,0,3.66-0.7,5.07-2.11c1.41-1.34,2.11-3.02,2.11-5.07v-6.75c0-1.97-0.7-3.66-2.11-5.07c-1.41-1.41-3.1-2.11-5.07-2.11h-14.35
			c-0.56,0-0.84-0.28-0.84-0.84v-1.9c0-0.56,0.28-0.84,0.84-0.84h23.71c0.7,0,1.41-0.21,1.9-0.7c0.49-0.49,0.77-1.13,0.77-1.9
			C1133.65,463.09,1133.37,462.46,1132.87,461.97 M1099.08,484.52c0,0.94-0.77,1.71-1.71,1.71h-11.09c-0.95,0-1.71-0.77-1.71-1.71
			v-0.59c0-0.95,0.77-1.71,1.71-1.71h11.09c0.94,0,1.71,0.77,1.71,1.71V484.52z M1099.08,477.24c0,0.95-0.77,1.71-1.71,1.71h-11.09
			c-0.95,0-1.71-0.77-1.71-1.71v-0.59c0-0.95,0.77-1.71,1.71-1.71h11.09c0.94,0,1.71,0.77,1.71,1.71V477.24z M1120.83,484.52
			c0,0.94-0.77,1.71-1.71,1.71h-11.09c-0.95,0-1.71-0.77-1.71-1.71v-0.59c0-0.95,0.77-1.71,1.71-1.71h11.09
			c0.95,0,1.71,0.77,1.71,1.71V484.52z M1108.03,474.93h11.09c0.95,0,1.71,0.77,1.71,1.71v0.59c0,0.95-0.77,1.71-1.71,1.71h-11.09
			c-0.95,0-1.71-0.77-1.71-1.71v-0.59C1106.31,475.7,1107.08,474.93,1108.03,474.93"/>
		<path d="M198.59,429.26c-8.81,0-17.67-0.49-26.54-1.47c-44.33-4.91-78.97-18.97-102.96-41.79
			c-25.78-24.53-41.26-62.17-42.46-103.26c-1.49-50.67,19.21-101.5,55.35-135.96c18.02-17.18,40.14-30.83,63.98-39.48
			c29.19-10.59,55.36-9.65,82.37,2.97c17.11,7.99,28.5,12.83,45.98,11.62c11.46-0.79,21.95-5.96,33.05-11.43
			c4.51-2.22,9.17-4.52,14-6.57c52.67-22.36,127.77-13.83,163.21,45.98c8.81,14.86,21.93,44.26,10.87,74.13
			c-1.92,5.2-7.7,7.87-12.91,5.93c-5.2-1.93-7.86-7.7-5.93-12.91c5.97-16.12,2.57-36.86-9.31-56.92
			c-28.55-48.18-92.62-57.02-138.08-37.73c-4.31,1.83-8.52,3.9-12.97,6.09c-12.36,6.09-25.15,12.39-40.56,13.45
			c-21.89,1.49-36.35-4.35-55.86-13.46c-22.17-10.36-42.84-11.06-67.02-2.29c-21.25,7.71-40.95,19.86-56.97,35.13
			c-32.08,30.6-50.45,75.77-49.13,120.84c1.05,35.83,14.25,68.38,36.23,89.29c20.73,19.72,51.45,31.96,91.32,36.38
			c36.47,4.05,72.77-1.04,104.97-14.68c23.38-9.91,99.2-47.03,93.03-108.6c-2.45-24.48-17.58-45.46-38.53-53.44
			c-22.91-8.72-49.28-10.02-72.32-3.57c-1.26,0.35-2.51,0.73-3.75,1.13c5.37,10.48,5.19,23.94-0.64,37.57
			c-3.96,9.28-9.43,16.66-16.24,21.93c-8.49,6.57-18.96,9.5-28.68,8.01c-8.78-1.34-15.41-6.17-18.66-13.6
			c-5.11-11.67-0.52-27.22,5.91-36.72c3.79-5.6,8.55-10.84,14.11-15.6c-8.05,1.7-15.39,5.22-20.09,8.38
			c-15.66,10.49-23.83,27.93-20.82,44.44c1,5.46-2.62,10.69-8.08,11.69c-5.47,1-10.69-2.62-11.69-8.08
			c-4.45-24.39,7.09-49.8,29.4-64.75c10.31-6.9,23.65-11.61,35.67-12.6c8.97-0.73,17.04,0.6,23.79,3.84
			c4.6-1.92,9.39-3.59,14.35-4.98c27.49-7.71,57.65-6.24,84.89,4.14c28.01,10.66,48.17,38.23,51.38,70.22
			c7.53,75.23-78.61,117.83-105.19,129.1C259.57,423.29,229.41,429.26,198.59,429.26 M239.16,236.75
			c-9.83,5.59-17.94,12.63-23.16,20.35c-3.74,5.53-5.72,13.83-4.15,17.41c0.21,0.49,0.61,1.39,3.28,1.79
			c4.27,0.66,9.26-0.86,13.36-4.03c4.07-3.15,7.45-7.84,10.06-13.94C242.18,249.84,242.4,241.79,239.16,236.75"/>
		<path d="M313.99,49.36c-4.98-0.88-10.08-0.42-14.96-1.93c-4.72-1.46-9.16-3.82-13.4-6.32c-7.71-4.54-17.5-5.05-25.87-2.24
			c-11.6,3.88-20.1,14.6-21.26,26.77c-1.99,20.98,15.56,37.28,35.3,35.06c4.5-0.51,8.66-1.93,12.34-4.06
			c4.37-2.53,9-4.68,13.88-6.04c8.58-2.38,17.49-0.43,24.39-7.19c5.5-5.39,7.36-13.54,4.95-20.82
			C327.11,55.78,321.05,50.61,313.99,49.36"/>
		<path d="M803.18,248.32h-54.48c-4.39,0-7.96,3.56-7.96,7.96v109.69c0,4.39,3.56,7.96,7.96,7.96h54.48
			c33.96,0,61.99-27.47,62.48-61.22l0.01-1.58l-0.02-1.67C865.1,275.74,837.08,248.32,803.18,248.32 M849.75,312.45
			c-0.37,25.12-21.26,45.56-46.57,45.56h-46.52v-93.78h46.52c25.26,0,46.15,20.41,46.57,45.54l0.01,1.35L849.75,312.45z"/>
		<path d="M919.29,284.46c-14.83,0-26.24,4.42-33.91,13.15c-9.94,11.31-9.89,26.11-9.58,30.9c-0.17,2-1.21,19.29,10.39,32.07
			c7.88,8.69,19.39,13.09,34.2,13.09c25.13,0,35.7-12.62,40.14-23.2c1.7-4.05-0.21-8.71-4.26-10.41c-4.06-1.69-8.71,0.21-10.42,4.26
			c-3.79,9.05-12.12,13.45-25.47,13.45c-10.07,0-17.59-2.62-22.33-7.79c-3.64-3.97-5.25-8.94-5.94-12.95h61.46h0.09
			c3.91,0,7.24-2.84,7.86-6.71c0.12-0.78,2.89-19.2-8.6-32.67C945.45,288.89,934.14,284.46,919.29,284.46 M891.91,321.1
			c0.53-4.04,1.95-9.09,5.5-13.08c4.52-5.08,11.88-7.66,21.88-7.66c9.93,0,17.15,2.53,21.46,7.53c3.47,4.02,4.71,9.16,5.1,13.21
			H891.91z"/>
		<path d="M1123.54,298.76c-12.14,0-21.41,3.48-28.27,8.22v-14.32c0-4.39-3.56-7.96-7.95-7.96c-4.4,0-7.96,3.56-7.96,7.96v73.04
			c0,4.39,3.56,7.96,7.96,7.96c4.39,0,7.95-3.56,7.95-7.96v-34.63c1.43-3.75,7.78-16.41,28.27-16.41c4.39,0,7.96-3.56,7.96-7.96
			C1131.5,302.32,1127.93,298.76,1123.54,298.76"/>
		<path d="M582.71,373.22c-4.46,0-8.07-3.61-8.07-8.07v-87.9l-37.79,40.99c-1.54,1.67-3.69,2.57-5.98,2.6
			c-2.27-0.01-4.43-0.98-5.95-2.67l-36.44-40.52v87.52c0,4.46-3.61,8.07-8.07,8.07c-4.46,0-8.07-3.61-8.07-8.07V256.59
			c0-3.34,2.06-6.34,5.18-7.53c3.12-1.2,6.65-0.35,8.89,2.14L531,300.78l45.78-49.66c2.25-2.44,5.77-3.25,8.87-2.05
			c3.1,1.21,5.13,4.19,5.13,7.52v108.56C590.78,369.6,587.17,373.22,582.71,373.22"/>
		<path d="M699.6,295.95l-18.57,46.39l-0.82,2.11c-0.04,0.04-0.04,0.09-0.09,0.17c-0.77,1.59-2.54,5.07-5.29,9.59l-0.04,0.04
			c-7.91,12.85-24.12,33.92-48.92,42.56c-0.95,0.3-1.89,0.47-2.84,0.47c-3.57,0-6.88-2.24-8.13-5.8c-1.55-4.47,0.82-9.37,5.33-10.92
			c9.93-3.48,18.27-9.67,24.98-16.34c-8.17-2.66-15.05-9.46-18.79-18.96l-19.3-49.39c-1.72-4.43,0.47-9.42,4.9-11.14
			c4.43-1.72,9.37,0.43,11.13,4.86l19.3,49.39c2.28,5.8,6.23,9.29,10.66,9.29h0.04c2.71,0,5.25-1.29,7.35-3.66l0.04-0.04
			c1.24-1.46,2.32-3.27,3.18-5.42l0.34-0.9c0-0.04,0.04-0.09,0.09-0.13l19.47-48.58c1.76-4.43,6.75-6.58,11.18-4.77
			C699.25,286.53,701.36,291.52,699.6,295.95"/>
		<path d="M680.12,344.61l-0.39,0.95c-1.29,3.22-2.97,6.15-4.9,8.64C677.58,349.69,679.35,346.2,680.12,344.61"/>
		<path d="M660.56,344.57c1.63-2.71,2.84-4.94,3.53-6.32l-0.34,0.9C662.88,341.3,661.81,343.11,660.56,344.57"/>
		<path d="M681.02,342.33c-0.13,0.47-0.26,0.94-0.47,1.37c-0.04,0.09-0.17,0.34-0.34,0.73L681.02,342.33z"/>
		<path d="M1019.45,285.86h-1.81h-1.81c-24.21,0-43.9,19.7-43.9,43.9c0,24.21,19.7,43.9,43.9,43.9h1.81h1.81
			c10.63,0,20.39-3.8,27.99-10.11v2.16c0,4.39,3.56,7.96,7.96,7.96c4.39,0,7.96-3.56,7.96-7.96v-35.95
			C1063.36,305.55,1043.66,285.86,1019.45,285.86 M1019.45,357.75h-3.62c-15.43,0-27.99-12.56-27.99-27.99
			c0-15.43,12.56-27.99,27.99-27.99h3.62c15.43,0,27.99,12.56,27.99,27.99C1047.44,345.19,1034.89,357.75,1019.45,357.75"/>
	</g>
</g>
</svg>
