<?xml version="1.0" encoding="utf-8"?>
<!-- Generator: Adobe Illustrator 23.1.0, SVG Export Plug-In . SVG Version: 6.00 Build 0)  -->
<svg version="1.1" xmlns="http://www.w3.org/2000/svg" xmlns:xlink="http://www.w3.org/1999/xlink" x="0px" y="0px"
	 viewBox="0 0 1280 410.02" style="enable-background:new 0 0 1280 410.02;" xml:space="preserve">
<style type="text/css">
	.st0{display:none;}
	.st1{display:inline;fill:#989898;}
	.st2{fill:none;}
	.st3{fill:none;stroke:#231815;stroke-width:2;stroke-miterlimit:10;}
	.st4{fill:#FFFFFF;}
	.st5{fill:#040000;}
	.st6{fill-rule:evenodd;clip-rule:evenodd;}
	.st7{fill:#F7F7F7;}
</style>
<g id="BG" class="st0">
	<rect x="-112.76" y="-1113.17" class="st1" width="5423.46" height="2640.54"/>
</g>
<g id="圖層_2">
	<g>
		<rect x="438.1" y="175.15" transform="matrix(0.7806 -0.6251 0.6251 0.7806 -44.7917 325.2434)" width="5.47" height="102.53"/>
		<rect x="456.17" y="163.56" transform="matrix(0.7805 -0.6251 0.6251 0.7805 -12.0249 326.4592)" width="5.47" height="33.58"/>
		<rect x="404.86" y="239" transform="matrix(0.8049 -0.5933 0.5933 0.8049 -57.6931 307.981)" width="69.45" height="5.47"/>
		<rect x="438.1" y="56.59" transform="matrix(0.7806 -0.6251 0.6251 0.7806 29.3147 299.2278)" width="5.47" height="102.53"/>
		<rect x="446.07" y="48.37" transform="matrix(0.7805 -0.6252 0.6252 0.7805 57.7792 294.8795)" width="5.47" height="33.58"/>
		<rect x="404.86" y="120.45" transform="matrix(0.8049 -0.5935 0.5935 0.8049 12.6767 284.9219)" width="69.45" height="5.47"/>
		<path d="M216.39,111.62h-5.47V87.57c0-7.12-5.49-12.91-12.24-12.91H40.4v36.96h-5.47v-39.7l2.74-2.74h161.01
			c9.77,0,17.72,8.25,17.72,18.38V111.62z"/>
		<rect x="124.8" y="44.13" width="5.47" height="20.54"/>
		<path d="M1240.64,111.62h-5.47V87.57c0-7.12-5.38-12.91-11.99-12.91h-155.6v36.96h-5.47v-39.7l2.74-2.74h158.33
			c9.63,0,17.46,8.25,17.46,18.38V111.62z"/>
		<rect x="1148.63" y="44.13" width="5.47" height="20.54"/>
		<path d="M985.13,111.62h-5.47V87.57c0-7.12-5.46-12.91-12.17-12.91H809.97v36.96h-5.47v-39.7l2.74-2.74h160.26
			c9.73,0,17.65,8.25,17.65,18.38V111.62z"/>
		<rect x="898.4" y="44.13" width="5.47" height="20.54"/>
		<polygon points="965.6,143.97 920.9,143.97 918.17,141.24 918.17,94.68 923.64,94.68 923.64,138.5 965.6,138.5 		"/>
		<rect x="331.16" y="106.44" width="20.54" height="5.47"/>
		<rect x="1098.02" y="102.72" width="101.5" height="5.47"/>
		<rect x="1107.55" y="217.29" width="87.64" height="5.47"/>
		<rect x="1057.67" y="262.28" width="187.4" height="5.47"/>
		<rect x="1148.63" y="194.16" width="5.47" height="71.63"/>
		<rect x="124.19" y="161.5" width="5.47" height="102.73"/>
		<polygon points="191.38,147.25 76.08,147.25 73.34,144.52 73.34,121.6 52.8,144.54 48.73,140.89 74.04,112.62 78.81,114.44 
			78.81,141.78 191.38,141.78 		"/>
		<path d="M178.17,218.67H61.93l-2.74-2.74v-31.04l2.74-2.74h116.37l2.2,1.11l11.4,15.46l0,3.25l-11.53,15.58L178.17,218.67z
			 M64.66,213.2h112.12l9.51-12.85l-9.38-12.72H64.66V213.2z"/>
		<polygon points="88.91,162.53 85.7,158.09 170.08,96.97 173.72,97.36 199.94,126.71 195.86,130.36 171.29,102.85 		"/>
		<path d="M825.55,146.93l-0.88-5.4l2.7-0.44c20.76-3.39,37.61-20.27,41.92-42l0.53-2.68l5.37,1.06l-0.53,2.68
			c-4.75,23.96-23.41,42.58-46.41,46.33L825.55,146.93z"/>
		<path d="M203.05,281.71l-18.9-21.48c-14.02,0.97-133.89,9.43-135.17,9.52l-2.73,0.19l-0.39-5.46l2.73-0.19
			c5.51-0.39,135.08-9.53,136.56-9.61l2.21,0.92l19.79,22.49L203.05,281.71z"/>
		<polygon points="294.98,109.39 290.64,106.06 331.43,53.03 335.64,52.87 361.86,82.21 357.78,85.86 333.76,58.98 		"/>
		<rect x="115.12" y="87.64" transform="matrix(0.7458 -0.6662 0.6662 0.7458 -39.2667 104.9328)" width="5.47" height="32.55"/>
		<polygon points="378.75,267.87 341.47,233.76 307.91,266.3 303.27,264.32 303.81,170.99 309.28,171.02 308.78,257.83 
			339.51,228.04 343.26,227.98 382.45,263.83 		"/>
		<rect x="303.8" y="135.15" width="5.47" height="41.33"/>
		<polygon points="309.27,140.62 303.79,140.62 303.79,135.15 309.26,135.15 		"/>
		<polygon points="350.03,176.48 303.79,176.48 303.79,171.01 348.45,171.01 356.88,156.43 347.73,140.62 303.79,140.62 
			303.79,135.15 349.31,135.15 351.68,136.51 362.41,155.06 362.41,157.8 352.4,175.11 		"/>
		<polygon points="309.27,176.48 303.79,176.48 303.79,171.01 309.26,171.01 		"/>
		<rect x="1193.52" y="154.29" transform="matrix(0.8658 -0.5004 0.5004 0.8658 75.0861 621.5643)" width="5.47" height="33.04"/>
		<polygon points="1199.9,176.43 1117.4,176.43 1115.07,175.13 1102.71,155.17 1102.99,151.92 1146.58,102.4 1150.69,106.02 
			1108.44,154.01 1118.92,170.95 1199.9,170.95 		"/>
		<rect x="791.63" y="212" transform="matrix(0.6461 -0.7633 0.7633 0.6461 140.515 732.5043)" width="136.98" height="5.47"/>
		<path d="M976.74,267.67h-64.65l-2.19-1.1c-0.12-0.16-0.27-0.35-10.33-17.68l0.24-3.1c10.49-12.98,29.3-36.24,34.15-42.26
			l-5.66-9.7h-93.44v-5.47h95.01l2.36,1.36l7.4,12.68l-0.21,3.07c-0.6,0.77-28,34.66-34.18,42.31c3.02,5.2,6.81,11.71,8.41,14.43
			H974c0-6.59,0-22.98,0-22.98v-2.74h5.47v2.74c0,5.97,0,25.48-0.01,25.77L976.74,267.67z"/>
		<rect x="639.38" y="51.45" width="5.47" height="65.97"/>
		<rect x="563.61" y="59.74" width="5.47" height="59.82"/>
		<polygon points="708.36,117.43 578.9,117.43 578.9,111.95 705.63,111.95 705.63,59.74 711.1,59.74 711.1,114.69 		"/>
		<rect x="547.45" y="150.99" width="184.51" height="5.47"/>
		<rect x="535.81" y="199.38" transform="matrix(0.6674 -0.7447 0.7447 0.6674 42.927 500.3436)" width="91.63" height="5.47"/>
		<polygon points="690.75,265.16 608.54,265.16 606.25,263.93 592.41,242.9 596.98,239.89 610.01,259.69 689.28,259.69 
			710.89,226.86 689.28,194.04 633.79,194.04 633.79,188.57 690.75,188.57 693.04,189.8 716.45,225.36 716.45,228.37 693.04,263.93 
					"/>
		<polygon points="275.47,354.88 273.31,354.88 273.94,356.42 274.45,356.42 280.61,371.92 269.13,371.92 268.52,373.47 
			281.23,373.47 285.48,384.17 287.1,384.17 		"/>
		<polygon points="273.34,358.2 272.53,356.14 261.38,384.22 263,384.22 273.33,358.23 		"/>
		<rect x="1226.65" y="356.39" width="17.84" height="1.52"/>
		<rect x="1226.65" y="369.15" width="17.84" height="1.52"/>
		<rect x="1226.65" y="383.27" width="17.84" height="1.52"/>
		<rect x="1222.99" y="356.39" width="1.41" height="29.43"/>
		<rect x="153.63" y="356.39" width="17.84" height="1.52"/>
		<rect x="153.63" y="369.15" width="17.84" height="1.52"/>
		<rect x="153.63" y="383.27" width="17.84" height="1.52"/>
		<rect x="149.97" y="356.39" width="1.42" height="29.43"/>
		<polygon points="394.43,371.29 392.39,371.29 402.7,384.41 403.76,384.41 403.76,383.3 		"/>
		<rect x="379.49" y="354.85" width="1.34" height="29.4"/>
		<polygon points="403.09,362.53 396.32,354.86 381.99,354.86 381.99,356.31 395.79,356.31 401.28,362.53 395.6,368.96 
			381.99,368.96 381.99,370.4 396.14,370.4 		"/>
		<polygon points="517.43,356.44 517.43,354.92 500.2,354.92 492.63,369.62 500.22,384.34 517.43,384.34 517.43,382.82 
			501.15,382.82 494.33,369.61 501.12,356.44 		"/>
		<polygon points="630.67,354.93 630.67,368.11 611.87,368.11 611.87,369.69 630.67,369.69 630.67,384.34 632.24,384.34 
			632.24,354.93 		"/>
		<rect x="607.72" y="354.93" width="1.58" height="29.41"/>
		<polygon points="896.68,355.23 873.19,355.23 873.19,356.69 884.18,356.69 884.18,384.6 885.68,384.6 885.68,356.69 
			896.68,356.69 		"/>
		<path d="M1008.01,355.21l-14.73,0l-7.33,14.68l-0.02,0.03l7.34,14.7l14.73,0l7.33-14.67l0.02-0.03L1008.01,355.21z M994.11,383
			l-6.53-13.08l6.54-13.08h13.06l6.54,13.08l-6.54,13.08H994.11z"/>
		<rect x="1105.43" y="355.2" width="1.55" height="29.44"/>
		<polygon points="1127.92,355.2 1127.92,382.6 1109.64,355.2 1107.74,355.2 1127.41,384.63 1129.46,384.63 1129.46,355.2 		"/>
		<rect x="765.39" y="355.55" width="14.69" height="1.51"/>
		<polygon points="764.22,369.39 764.22,366.94 760.63,362.43 764.22,357.93 764.22,355.45 758.66,362.43 		"/>
		<polygon points="783.19,376.64 775.89,368.52 765.39,368.52 765.39,370 775.23,370 781.19,376.64 775.23,383.28 760.58,383.28 
			760.58,384.76 775.89,384.76 		"/>
		<rect x="41.91" y="355.55" width="14.69" height="1.51"/>
		<polygon points="40.73,369.39 40.73,366.94 37.14,362.43 40.73,357.93 40.73,355.45 35.17,362.43 		"/>
		<polygon points="59.7,376.64 52.4,368.52 41.91,368.52 41.91,370 51.74,370 57.71,376.64 51.74,383.28 37.09,383.28 37.09,384.76 
			52.41,384.76 		"/>
	</g>
</g>
</svg>
