<?xml version="1.0" encoding="utf-8"?>
<!-- Generator: Adobe Illustrator 23.1.0, SVG Export Plug-In . SVG Version: 6.00 Build 0)  -->
<svg version="1.1" xmlns="http://www.w3.org/2000/svg" xmlns:xlink="http://www.w3.org/1999/xlink" x="0px" y="0px"
	 viewBox="0 0 1280 507.14" style="enable-background:new 0 0 1280 507.14;" xml:space="preserve">
<style type="text/css">
	.st0{display:none;}
	.st1{display:inline;fill:#989898;}
	.st2{fill:none;}
	.st3{fill:none;stroke:#231815;stroke-width:2;stroke-miterlimit:10;}
	.st4{fill:#FFFFFF;}
	.st5{fill:#040000;}
	.st6{fill-rule:evenodd;clip-rule:evenodd;}
	.st7{fill:#F7F7F7;}
</style>
<g id="BG" class="st0">
	<rect x="-1421.11" y="-1892.95" class="st1" width="5423.46" height="2640.54"/>
</g>
<g id="圖層_2">
	<g>
		<path class="st2" d="M198.8,387.81c-7.14-2.2-11.17-0.92-11.17-0.92s-11.17-2.01-11.53,7.87c-0.37,9.88,10.62,28.92,16.84,23.43
			c6.22-5.49,9.15-16.66,10.07-19.77C203.93,395.31,205.94,390,198.8,387.81z"/>
		<path class="st2" d="M114.6,322.83c-13.73-1.1-20.13,3.84-24.89,11.71c-4.76,7.87,2.93,18.85,8.42,26.54
			c5.49,7.69,10.98,0.73,10.98,0.73c2.74-2.21,10.8-13.36,13.36-19.22C125.03,336.74,128.33,323.93,114.6,322.83z"/>
		<path class="st2" d="M364.09,180.27c15.85-4.73,27.92-6.06,37.27-5.22c-5.07-7.71-14.05-10.03-30.65-8.45
			c0,0-17.93-0.45-27.15,17.81C353.95,181.62,364.09,180.27,364.09,180.27z"/>
		<path class="st2" d="M373.93,237.02c26.45-6.08,33.35-15.37,33.9-29.12c-15.03,2.85-38.52,4.37-59.21,3.55
			c-3.75-0.15-7.09-0.42-10.06-0.81C339.77,227.63,349.91,242.55,373.93,237.02z"/>
		<path class="st2" d="M650.46,237.02c0,0-33.65,4.21-38.46,43.37c-2.25,18.33,1.82,31.42,6.79,40.15
			c0.07,0.1,7.99,11.96,23.24,1.71c0,0,0.01-0.01,0.01-0.01c4.21-3.55,9.92-7.53,17.63-11.51c23.24-12.02,22.66-30.34,22.66-30.34
			S689.14,237.19,650.46,237.02z"/>
		<path class="st2" d="M670.29,134.26c3.11-2.85,4.99-7.64,2.73-9.34c-2.26-1.69-4.42-2.07-4.42-2.07s-7.53-1.04-6.59,3.29
			C662.95,130.47,667.19,137.1,670.29,134.26z"/>
		<path class="st2" d="M1138.12,167.2c2.4-9.35,7.61-14.15,7.61-14.15s4.81-7.08-7.61-2.8c0,0-12.95,5.74-11.08,13.89
			C1128.9,172.27,1135.71,176.54,1138.12,167.2z"/>
		<path class="st2" d="M1116.3,135.74c3.54-6.5,6.35-13.66,6.35-13.66s5.83-10.93-7.38-2.44c0,0-11.22,4.87-9.52,11.74
			C1107.44,138.25,1112.76,142.24,1116.3,135.74z"/>
		<path class="st2" d="M936.98,171.49c-10.87,15.21-6.91,23.51-12.05,30.22c-5.14,6.72-7.9,12.84-1.98,18.37
			c5.93,5.53,17.78,12.25,31.41-4.35c13.63-16.59,3.95-29.04,1.38-37.34C955.75,178.4,947.85,156.28,936.98,171.49z"/>
		<path class="st2" d="M1079.31,114.48c0,0,6.35-10.56,7.68-12.4c1.33-1.85,2.44-5.54-3.84-5.24c-6.28,0.3-13.44,5.46-13.36,11
			C1069.86,113.38,1076.51,120.61,1079.31,114.48z"/>
		<path class="st2" d="M132.36,367.31c0,0-10.07,1.46-12.08,11.71c-2.01,10.25,14.28,26.72,19.59,18.3
			c5.31-8.42,8.79-12.81,8.79-19.4C148.65,371.33,150.66,365.29,132.36,367.31z"/>
		<path class="st2" d="M621.55,154.28c2.45-2.54,6.25-9.5-1.35-9.5c0,0-5.15-1.13-4.3,4.14
			C616.75,154.18,619.1,156.82,621.55,154.28z"/>
		<path class="st2" d="M859.15,240.83c-5.73-0.4-6.7,6.96-8.89,9.68c0,0-5.53,8.69-12.45,6.72c-6.91-1.98-2.77,9.29,8.69,11.85
			c11.46,2.57,17.38-5.33,19.36-11.85C867.84,250.71,864.88,241.23,859.15,240.83z"/>
		<path class="st2" d="M648.27,148.72c2.26-1.32,6.96-8-1.69-9.79c0,0-4.33,0-4.33,2.82C642.25,144.58,646.02,150.04,648.27,148.72z
			"/>
		<path d="M461.83,211.68c1.23-38.11-32.55-87.36-87.9-94.34c0,0-35.07-6.32-60.69,23.38c-2.16-7.91-9.19-19.53-23.63-31.56
			c-21.71-18.09-49.75-25.33-76.43-30.3c0,0-22.16-4.98-70.55,6.33S38.6,130.87,31.81,169.32s22.16,53.82,54.72,42.51
			c32.56-11.31,102.21-88.64,102.21-88.64s19,13.57,42.97,21.26c19.04,6.11,57.18,8.79,73.66,7.14c-2.02,3.32-3.94,6.94-5.71,10.91
			c-24.19,54.18-8.06,92.71,50.93,110.41C409.58,290.61,460.6,249.79,461.83,211.68z M370.71,166.6c16.6-1.58,25.59,0.74,30.65,8.45
			c-9.34-0.85-21.42,0.49-37.27,5.22c0,0-10.14,1.35-20.54,4.14C352.78,166.14,370.71,166.6,370.71,166.6z M338.55,210.65
			c2.97,0.38,6.31,0.66,10.06,0.81c20.7,0.81,44.19-0.7,59.21-3.55c-0.55,13.75-7.45,23.03-33.9,29.12
			C349.91,242.55,339.77,227.63,338.55,210.65z"/>
		<path d="M652.33,164.76c17.3-2.66,30.61-14.64,36.2-28.48c5.59-13.84,6.18-30.61-5.69-32.74c-11.87-2.13-27.84,10.91-43.81,22.09
			c0,0-11.44,11.08-35.4,6.6c-23.95-4.47-31.94,11.5-23.69,18.15C588.19,157.05,635.03,167.43,652.33,164.76z M668.6,122.85
			c0,0,2.16,0.38,4.42,2.07c2.26,1.69,0.38,6.49-2.73,9.34c-3.11,2.85-7.34-3.79-8.28-8.12C661.07,121.81,668.6,122.85,668.6,122.85
			z M646.58,138.94c8.66,1.79,3.95,8.47,1.69,9.79c-2.26,1.32-6.02-4.14-6.02-6.96C642.25,138.94,646.58,138.94,646.58,138.94z
			 M620.2,144.77c7.59,0,3.79,6.96,1.35,9.5c-2.45,2.54-4.8-0.09-5.65-5.36C615.06,143.64,620.2,144.77,620.2,144.77z"/>
		<path d="M1003.42,381.11c-12.81,7.87-19.76,15.52-27.66,19.84c0.21-6.87,0.42-14.32,0.55-21.9c31.68-2.92,48.77-35.07,47.96-42.96
			c-0.9-8.74-6.33-16.58-30.76-8.14c-7.06,2.44-12.91,4.43-18.14,5.78c0-0.03-0.01-0.07-0.01-0.1c-0.41-4.32-0.8-9.37-1.17-14.73
			c3.55-0.28,6.83-1.05,9.66-2.41c22.01-10.55,28.95-34.36,28.95-34.36s11.16-34.99-32.87-15.69c0,0-3.49,1.8-8.72,3.03
			c-0.12-1.47-0.23-2.59-0.33-3.25c-0.91-5.84-0.6-15.48-9.41-13.41c-4.97,1.16-7.68,4.84-9.53,16.18
			c-1.84-0.63-3.68-1.46-5.47-2.55c-15.38-9.35-41.01-4.79-36.79,15.69c2.49,12.06,20.13,25.48,38.71,32.33
			c-0.28,6-0.49,11.92-0.62,17.71c-2.29-1.05-4.66-2.33-7.2-3.93c0,0-10.69-12.66-24.26-4.52c-11.34,6.8,3.66,37.61,31.42,50.18
			c0.21,11.23,0.52,20.77,0.69,27.81c-9.82-4.26-15.36-11.86-15.36-11.86s-18.9-24.15-37.8-14.35c-18.9,9.8,16.03,45.27,37.8,52.15
			c6.97,2.2,14,4.57,21.31,6.19c1.31,0.74,2.9,1.19,4.84,1.25c0.87,0.03,1.69,0.05,2.48,0.07c13.45,1.83,27.99,0.29,44.87-9.96
			c29.4-17.85,41.3-33.6,37.8-43.05C1040.87,372.71,1023.37,368.86,1003.42,381.11z"/>
		<path d="M431.77,311.27c-12.98-14.45-18.36-23.79-27.14-19.83c-8.78,3.97,12.46,32.58,12.46,32.58s-31.16,49.54-35.41,56.5
			c-4.25,6.95-16.15,26.22-18.41,16.02c-2.27-10.2-6.8-47.59-4.53-84.41c0,0,1.7-25.21-10.48-26.34
			c-12.18-1.13-17.28,9.06-24.93,36.83c-7.65,27.76-22.1,73.65,0,103.68c22.1,30.03,45.89,29.74,68.55,8.78
			c22.66-20.96,47.31-75.63,47.31-75.63s58.64,83.56,71.38,95.18c12.75,11.61,24.36,26.91,38.52,18.13
			c14.16-8.78-28.04-54.1-40.79-69.12C495.56,388.61,444.75,325.72,431.77,311.27z"/>
		<path d="M450.17,280.46c-5.69,5.92-16.17,24.82,5.01,34.84c21.18,10.02,33.02-5.01,33.93-5.92c0.91-0.91,9.34-19.36-17.76-28.92
			C471.34,280.46,455.86,274.54,450.17,280.46z"/>
		<path d="M287.36,248.58c-12.62-6.92-26.37,2.99-42.37,18.54c-2.24,2.17-4.57,4.18-6.96,6c-1.62-13.65-3.47-27.8-5.5-41.51
			c7.12-1.63,14.52-4.85,22.23-10.02c30.48-20.43,22.86-46.41,17.66-50.57c-5.2-4.16-28.75-16.86-43.64,14.25
			c-1.22,1.52-2.4,2.88-3.55,4.11c-1.07-5.19-2.18-10.09-3.31-14.59c0,0-5.43-27.19-14.47-28.18c-5.05-0.55-6.05,20.85-5.37,48.71
			c-5.24-4.13-9.08-11.97-12.05-19.1c0,0-5.45-11.08-17.64-7.97c-12.19,3.12-18.88,27.71,3.69,45.72
			c8.65,6.9,17.75,12.63,27.4,15.92c0.65,12.25,1.42,24.56,2.15,35.93c0.33,5.15,0.63,10.32,0.89,15.45
			c-4.94-1.6-9.71-4.85-14.11-10.16c0,0-8.31-6.58-12.12-14.2c-3.81-7.62-14.18-13.23-20.04-1.96
			c-5.42,10.43,17.53,50.36,47.6,61.26c0.8,30.16,0.59,53.07,0.59,53.08c-8.49-1.21-16.36-3.25-22.42-6.86
			c-19-11.31-32.11-33.02-37.99-49.75c-5.88-16.73-1.36-30.3-28.94-42.97c0,0-31.66-13.57-48.84,9.95
			c-17.19,23.52-12.21,75.08,13.12,108.09c25.33,33.02,62.87,54.72,122.11,57.44c59.25,2.71,72.36-32.11,71.91-42.06
			c-0.45-9.95,1.36-27.14-17.19-30.3c-4.34-0.74-9.67-1.08-15.54-1.32c1.78-4.46,1.16-9.95,1.16-15.17c0-3.41-1.07-18.16-3-38.42
			c21.67-4.56,39.54-18.49,49.03-32.23C305.16,266.44,299.98,255.5,287.36,248.58z M109.11,361.82c0,0-5.49,6.96-10.98-0.73
			c-5.49-7.69-13.18-18.67-8.42-26.54c4.76-7.87,11.17-12.81,24.89-11.71c13.73,1.1,10.43,13.91,7.87,19.77
			C119.91,348.45,111.85,359.61,109.11,361.82z M148.65,377.92c0,6.59-3.48,10.98-8.79,19.4c-5.31,8.42-21.6-8.05-19.59-18.3
			c2.01-10.25,12.08-11.71,12.08-11.71C150.66,365.29,148.65,371.33,148.65,377.92z M203.01,398.42
			c-0.92,3.11-3.84,14.28-10.07,19.77c-6.22,5.49-17.21-13.55-16.84-23.43c0.37-9.88,11.53-7.87,11.53-7.87s4.03-1.28,11.17,0.92
			C205.94,390,203.93,395.31,203.01,398.42z"/>
		<path d="M697.73,23.1c-39.66-7.21-74.91,0-74.91,0s-11.22,6.01-25.64,1.6c-14.42-4.41-57.69,10.42-95.34,44.47
			c-37.66,34.05-42.41,57.69-10.79,68.1c31.62,10.42,96.52-14.82,131.77-69.3c0,0,33.65,29.64,88.13,23.64
			c54.48-6.01,62.09-24.04,58.49-31.65C765.84,52.34,737.4,30.31,697.73,23.1z"/>
		<path d="M823.04,156.97c0,0-1.36,37.9,14.3,45.84c15.66,7.94,32,9.3,33.36,0c1.36-9.3-7.26-57.18,0.68-100.53
			c0,0,7.03-24.51-6.58-28.14c-13.62-3.63-23.6,5.45-32.9,28.14c-9.3,22.69-8.17,29.05-8.17,29.05s-18.15-3.18-24.28-7.26
			c-6.13-4.08-15.66-8.62-20.88-3.86c-5.22,4.77,1.82,20.2,20.2,29.27C817.14,158.56,823.04,156.97,823.04,156.97z"/>
		<path d="M904.42,129.52c16.65,7.26,21.19-4.77,20.74-9.76c-0.45-4.99-6.58-18.83-5.22-24.51c0,0,41.98,6.13,53.78-3.63
			c11.8-9.76,3.86-21.56-7.94-23.83c-11.8-2.27-39.48,12.48-46.97,9.98c0,0,3.18-15.66,0-22.47c-3.18-6.81-10.21-9.53-16.57-1.13
			c-6.35,8.4-12.48,20.88-13.62,38.58S887.77,122.25,904.42,129.52z"/>
		<path d="M891.94,245.57c-4.15-8.49-10.07-14.82-19.75-19.16c0,0-17.38-6.52-36.15,0c-18.77,6.52-26.27,35.56-19.75,46.62
			c6.52,11.06,42.67,27.66,58.28,15.8C890.17,276.98,896.09,254.07,891.94,245.57z M865.87,257.23c-1.98,6.52-7.9,14.42-19.36,11.85
			c-11.46-2.57-15.61-13.83-8.69-11.85c6.91,1.98,12.45-6.72,12.45-6.72c2.19-2.72,3.16-10.08,8.89-9.68
			S867.84,250.71,865.87,257.23z"/>
		<path d="M942.71,144.23c0,0-26.08-4.15-40.1,22.92c-14.03,27.06-15.21,60.81,11.66,73.67c26.87,12.86,58.87,4.16,71.12-18.95
			c12.25-23.11-0.59-47.61-8.3-58.87C969.38,151.74,960.69,144.43,942.71,144.23z M954.37,215.74
			c-13.63,16.59-25.48,9.88-31.41,4.35c-5.93-5.53-3.16-11.66,1.98-18.37c5.14-6.72,1.19-15.01,12.05-30.22s18.77,6.91,18.77,6.91
			C958.32,186.7,968,199.15,954.37,215.74z"/>
		<path d="M803.17,337.23c-19.89,21.33-24.79,25.65,0,35.16c21.43,8.22,25.84-1.43,26.64-4.19c-1.32,5.66-10.08,44.76-0.99,47.43
			c9.8,2.88,36.03,9.51,33.43-15.56c-2.59-25.08-5.02-61.85-5.02-61.85s16.01-14.55,18.56-15.97c0,0,6.45-5.59,0-11.82
			C868.3,302.93,823.05,315.9,803.17,337.23z"/>
		<path d="M1229.82,308.29c-18.83,0.09-137.41-18.4-153.1-28.16c0,0-12.99-67.07-20.27-83.93c0,0-4.02-15.98-14.07-14.55
			c-10.05,1.44-4.02,44.59-4.02,44.59s17.09,129.92,20.58,142.47c3.49,12.56,7.67,28.25,26.16,25.81
			c18.48-2.44,9.42-27.4,4.88-50.67c-4.53-23.27-9.77-41.4-9.77-41.4s50.57,26.16,89.28,36.97c38.71,10.81,44.64,18.63,66.96,4.43
			C1258.77,329.65,1248.65,308.2,1229.82,308.29z"/>
		<path d="M993.37,137.83c20.23,10.11,39.76-5.58,44.99-20.93c0,0,49.52,16.39,56.85,35.22c7.32,18.83-3.84,42.55,26.16,49.87
			c29.99,7.32,41.85,2.09,52.66-32.78c10.81-34.88-5.58-70.1-46.73-84.75c-41.15-14.65-64.87-4.74-64.87-4.74
			s11.51-16.89,6.28-25.96c-5.23-9.07-47.43,9.77-71.49,33.48C973.14,110.98,973.14,127.72,993.37,137.83z M1138.12,150.24
			c12.42-4.27,7.61,2.8,7.61,2.8s-5.21,4.81-7.61,14.15c-2.4,9.35-9.21,5.07-11.08-3.07
			C1125.16,155.98,1138.12,150.24,1138.12,150.24z M1115.27,119.65c13.21-8.49,7.38,2.44,7.38,2.44s-2.81,7.16-6.35,13.66
			c-3.54,6.5-8.86,2.51-10.56-4.36C1104.05,124.52,1115.27,119.65,1115.27,119.65z M1083.15,96.84c6.28-0.3,5.17,3.4,3.84,5.24
			c-1.33,1.85-7.68,12.4-7.68,12.4c-2.81,6.13-9.45-1.11-9.52-6.64C1069.72,102.3,1076.88,97.13,1083.15,96.84z"/>
		<path d="M657.27,200.97c0,0-68.9-12.82-91.74,45.67C542.7,305.13,581.56,352,638.04,360.01c56.49,8.01,99.35-33.65,98.15-76.52
			C734.99,240.63,706.15,210.58,657.27,200.97z M659.68,310.74c-7.7,3.99-13.42,7.97-17.63,11.51c0,0-0.01,0.01-0.01,0.01
			c-15.25,10.25-23.18-1.61-23.24-1.71c-4.97-8.73-9.04-21.82-6.79-40.15c4.81-39.16,38.46-43.37,38.46-43.37
			c38.68,0.17,31.88,43.37,31.88,43.37S682.91,298.72,659.68,310.74z"/>
	</g>
</g>
</svg>
