<?xml version="1.0" encoding="utf-8"?>
<!-- Generator: Adobe Illustrator 23.1.0, SVG Export Plug-In . SVG Version: 6.00 Build 0)  -->
<svg version="1.1" xmlns="http://www.w3.org/2000/svg" xmlns:xlink="http://www.w3.org/1999/xlink" x="0px" y="0px"
	 viewBox="0 0 1280 800" style="enable-background:new 0 0 1280 800;" xml:space="preserve">
<style type="text/css">
	.st0{display:none;}
	.st1{display:inline;fill:#989898;}
	.st2{fill:none;}
	.st3{fill:none;stroke:#231815;stroke-width:2;stroke-miterlimit:10;}
	.st4{fill:#FFFFFF;}
	.st5{fill:#040000;}
	.st6{fill-rule:evenodd;clip-rule:evenodd;}
	.st7{fill:#F7F7F7;}
</style>
<g id="BG" class="st0">
	<rect x="-4037.8" y="-89.83" class="st1" width="5423.46" height="2640.54"/>
</g>
<g id="圖層_2">
	<rect x="-1315.43" y="7.72" class="st2" width="1320.56" height="792.28"/>
	<rect x="-1315.43" y="7.73" class="st2" width="1320.56" height="792.27"/>
	<g>
		<path d="M545.67,112.74h22.75c3.42,0,5.51,2.77,4.68,6.19l-23.94,97.92c-5.73,23.42-19.13,35.13-40.2,35.13h-59.72
			c-21.08,0-28.75-11.71-23.03-35.13l23.94-97.92c0.84-3.42,4.28-6.19,7.7-6.19h22.75c3.42,0,5.51,2.77,4.68,6.19l-23.94,97.92
			c-2.86,11.71,5.44,17.57,14.8,17.57h14.5c9.37,0,20.53-5.85,23.39-17.57l23.94-97.92C538.8,115.51,542.25,112.74,545.67,112.74"/>
		<path d="M586.62,245.79l43.35-177.32c0.83-3.42,4.28-6.19,7.7-6.19h17.95c2.42,0,4.27,1.41,4.74,3.6l16.27,75.32
			c2.19,10.14,18.2,6.81,20.93-4.35l16.72-68.38c0.84-3.42,4.28-6.19,7.7-6.19h22.75c3.42,0,5.51,2.77,4.68,6.19l-43.35,177.32
			c-0.84,3.42-4.28,6.19-7.7,6.19h-17.95c-2.42,0-4.27-1.41-4.74-3.6l-15.4-71.3c-2.4-11.09-19.9-7.45-22.89,4.76l-15.63,63.95
			c-0.84,3.42-4.28,6.19-7.7,6.19H591.3C587.88,251.98,585.79,249.2,586.62,245.79"/>
		<path d="M560.32,45.17L560.32,45.17c7.64-6.14,17.61-6.14,22.25,0c4.64,6.14,2.21,16.11-5.44,22.25s-17.61,6.14-22.25,0
			C550.24,61.27,552.67,51.31,560.32,45.17 M476.74,45.17L476.74,45.17c7.64-6.14,17.61-6.14,22.25,0
			c4.64,6.14,2.21,16.11-5.44,22.25s-17.61,6.14-22.25,0C466.66,61.27,469.09,51.31,476.74,45.17"/>
		<path d="M779.85,140.15L779.85,140.15c-4.64-6.14-2.21-16.1,5.44-22.25c7.65-6.15,17.61-6.15,22.25,0
			c4.64,6.14,2.21,16.11-5.44,22.25C794.46,146.3,784.5,146.29,779.85,140.15 M754.61,243.42L754.61,243.42
			c-4.64-6.14-2.21-16.1,5.44-22.25c7.65-6.15,17.61-6.15,22.25,0c4.64,6.14,2.21,16.1-5.44,22.25
			C769.21,249.56,759.25,249.56,754.61,243.42"/>
		<path d="M888.44,251.98h-56.36c-11.55,0-18.63-9.37-15.8-20.92L852.43,83.2c2.82-11.55,14.48-20.92,26.03-20.92h56.36
			c21.08,0,23.82,31.89,18.1,55.31l-19.33,79.08C927.86,220.08,909.52,251.98,888.44,251.98 M875.18,234.41
			c9.37,0,36.65-26.04,39.51-37.75l19.33-79.08c2.86-11.71-11.69-37.75-21.05-37.75h-18.4c-3.42,0-6.87,2.77-7.7,6.19L852.1,228.22
			c-0.84,3.42,1.26,6.19,4.68,6.19H875.18z"/>
		<path d="M957,245.79l43.35-177.32c0.83-3.42,4.28-6.19,7.7-6.19h82.61c3.42,0,5.51,2.77,4.68,6.19l-1.27,5.18
			c-0.83,3.42-4.28,6.19-7.7,6.19h-35.21c-10.2,0-20.49,8.27-22.98,18.47l-10.29,42.09c-0.84,3.42,1.26,6.19,4.68,6.19h26.66
			c3.42,0,5.51,2.77,4.68,6.19l-1.27,5.19c-0.84,3.42-4.28,6.19-7.7,6.19h-26.66c-3.42,0-6.87,2.77-7.7,6.19l-11.15,45.6
			c-2.49,10.2,3.75,18.47,13.95,18.47h42.09c3.42,0,5.51,2.77,4.68,6.19l-1.27,5.19c-0.84,3.42-4.28,6.19-7.7,6.19h-89.5
			C958.26,251.98,956.17,249.2,957,245.79"/>
		<path d="M1209.17,62.28c21.08,0,28.75,11.71,23.03,35.13l-7.73,31.62c-5.01,20.49-15.9,32.02-32.66,34.58
			c-3.91,0.6-7.07,4.67-6.65,8.26l8.3,71.82c0.47,4.03-3.56,8.29-7.85,8.29h-21.97c-2.61,0-4.54-1.64-4.82-4.09l-9.2-79.64
			c-0.28-2.46-2.21-4.09-4.82-4.09c-3.42,0-6.87,2.77-7.7,6.19l-18.44,75.44c-0.84,3.42-4.28,6.19-7.7,6.19h-22.75
			c-3.42,0-5.51-2.77-4.68-6.19l43.35-177.32c0.84-3.42,4.28-6.19,7.7-6.19H1209.17z M1170.99,146.59c9.37,0,15.48-5.86,18.34-17.57
			l7.73-31.62c2.86-11.71-0.39-17.57-9.76-17.57h-21.91c-3.42,0-6.87,2.77-7.7,6.19l-13.29,54.37c-0.84,3.42,1.26,6.19,4.68,6.19
			H1170.99z"/>
		<path d="M873.09,712.49l92.08-376.64c6.34-25.93,32.5-46.95,58.43-46.95h163.96c12.03,0,19.39,9.75,16.45,21.78v0
			c-2.94,12.03-15.08,21.78-27.1,21.78h-71.54c-28.85,0-57.96,23.39-65.01,52.24l-22.38,91.55c-2.94,12.03,4.43,21.78,16.45,21.78
			h53.28c12.03,0,19.4,9.75,16.45,21.78l0,0.01c-2.94,12.03-15.08,21.78-27.1,21.78h-53.28c-12.03,0-24.16,9.75-27.1,21.78
			l-24.51,100.25c-7.05,28.85,10.62,52.24,39.47,52.24h91.55c12.03,0,19.39,9.75,16.45,21.78l0,0.01
			c-2.94,12.03-15.08,21.78-27.1,21.78H908.56C882.63,759.44,866.75,738.42,873.09,712.49"/>
		<path d="M404.26,315.04l2.13-8.71c2.35-9.62,12.06-17.43,21.69-17.43h121.99c9.62,0,15.52,7.8,13.17,17.43l-2.13,8.71
			c-2.35,9.62-12.06,17.43-21.69,17.43s-19.33,7.8-21.69,17.43l-85.21,348.55c-2.35,9.62,3.54,17.43,13.17,17.43
			s15.52,7.8,13.17,17.43l-2.13,8.72c-2.35,9.62-12.06,17.43-21.69,17.43H313.04c-9.62,0-15.52-7.8-13.17-17.43l2.13-8.72
			c2.35-9.62,12.06-17.43,21.69-17.43s19.33-7.8,21.69-17.43l85.21-348.55c2.35-9.62-3.54-17.43-13.17-17.43
			S401.91,324.66,404.26,315.04"/>
		<path d="M709.31,759.44H571.86c-25.15,0-40.55-20.39-34.4-45.54l92.77-379.47c6.15-25.15,31.52-45.54,56.67-45.54h137.45
			c52.28,0,71.32,29.05,57.12,87.13l-19.17,78.43c-4.73,19.36-11.58,35.5-20.55,48.4c-7.42,10.68-10.48,23.21-8.29,33.89
			c2.65,12.91,1.61,29.04-3.12,48.41l-21.3,87.13C794.84,730.39,761.59,759.44,709.31,759.44 M729.66,498.03
			c23.23,0,38.4-14.53,45.5-43.57l19.18-78.43c7.1-29.04-0.97-43.57-24.2-43.57h-6.74c-25.15,0-50.52,20.39-56.67,45.54
			l-18.21,74.49c-6.15,25.15,9.26,45.54,34.4,45.54H729.66z M676.4,715.86c23.23,0,38.4-14.51,45.51-43.57l21.3-87.13
			c5.13-20.97-0.95-34.84-18.22-41.62c-3.84-1.51-8.26-1.95-12.73-1.95c-25.15,0-50.52,20.39-56.67,45.54l-20.34,83.19
			c-6.15,25.15,9.26,45.54,34.4,45.54H676.4z"/>
		<polyline class="st3" points="137.71,646.07 116.12,646.07 117.45,71.59 140.52,71.59 140.11,258.31 139.23,622.67 139.19,645.42 
			139.19,646.07 137.85,646.07 		"/>
		<polygon class="st3" points="148.69,646.11 148.69,646.44 137.85,646.07 137.71,646.07 126.96,645.7 140.11,258.31 146.25,77.26 
			146.43,71.22 168.16,71.96 160.46,298.64 148.83,642.84 148.74,645.05 		"/>
		<polygon class="st3" points="158.19,646.07 158.15,646.76 148.69,646.11 139.19,645.42 137.76,645.33 139.23,622.67 
			160.46,298.64 174.9,78.69 175.4,70.9 195.8,72.28 178.27,339.7 		"/>
		<polygon class="st3" points="167.7,645.97 167.61,647.04 158.19,646.07 148.74,645.05 148.6,645.05 148.83,642.84 178.27,339.7 
			203.55,79.66 204.43,70.57 223.44,72.6 193.63,379.2 		"/>
		<polygon class="st3" points="177.25,645.88 177.07,647.31 167.7,645.97 159.44,644.82 193.63,379.2 232.02,81.09 233.4,70.34 
			251.03,72.83 206.27,420.31 		"/>
		<polygon class="st3" points="186.8,645.7 186.52,647.5 177.25,645.88 170.33,644.64 206.27,420.31 260.48,82.2 262.42,70.16 
			278.66,73.02 216.65,459.71 		"/>
		<polygon class="st3" points="196.4,645.47 195.98,647.64 186.8,645.7 181.17,644.5 216.65,459.71 288.95,83.12 291.44,70.02 
			306.26,73.16 224.45,499.44 		"/>
		<polygon class="st3" points="317.28,84.09 320.47,69.93 333.89,73.25 205.44,647.68 196.4,645.47 192.02,644.41 224.45,499.44 		
			"/>
		<line class="st3" x1="140.52" y1="71.59" x2="146.2" y2="77.26"/>
		<polyline class="st3" points="168.16,71.96 174.9,78.69 175.31,79.11 		"/>
		<line class="st3" x1="195.8" y1="72.28" x2="203.09" y2="79.62"/>
		<line class="st3" x1="223.44" y1="72.6" x2="231.92" y2="81.09"/>
		<line class="st3" x1="251.03" y1="72.83" x2="260.39" y2="82.2"/>
		<line class="st3" x1="278.66" y1="73.02" x2="288.72" y2="83.08"/>
		<line class="st3" x1="306.26" y1="73.16" x2="317.19" y2="84.04"/>
		<path d="M216.99,759.44H83.88c-20.94,0-37.91-16.97-37.91-37.91V62.39c0-12.06,9.77-21.83,21.83-21.83h27.82
			c12.06,0,21.83,9.77,21.83,21.83v556.26c0,13.48,10.93,24.4,24.4,24.4h33.81c11.24,0,21.03-7.68,23.71-18.61L338.07,57.21
			c2.39-9.77,11.15-16.65,21.21-16.65h33.15c14.16,0,24.57,13.27,21.21,27.02L251.01,732.74
			C247.17,748.41,233.13,759.44,216.99,759.44"/>
	</g>
</g>
</svg>
