<?xml version="1.0" encoding="utf-8"?>
<!-- Generator: Adobe Illustrator 23.1.0, SVG Export Plug-In . SVG Version: 6.00 Build 0)  -->
<svg version="1.1" xmlns="http://www.w3.org/2000/svg" xmlns:xlink="http://www.w3.org/1999/xlink" x="0px" y="0px"
	 viewBox="0 0 1280 417.03" style="enable-background:new 0 0 1280 417.03;" xml:space="preserve">
<style type="text/css">
	.st0{display:none;}
	.st1{display:inline;fill:#989898;}
	.st2{fill:none;}
	.st3{fill:none;stroke:#231815;stroke-width:2;stroke-miterlimit:10;}
	.st4{fill:#FFFFFF;}
	.st5{fill:#040000;}
	.st6{fill-rule:evenodd;clip-rule:evenodd;}
	.st7{fill:#F7F7F7;}
</style>
<g id="BG" class="st0">
	<rect x="-4037.8" y="-1950.27" class="st1" width="5423.46" height="2640.54"/>
</g>
<g id="圖層_2">
	<g>
		<path d="M1108.66,160c0.45-2.99,0.49-27.6,0.06-30.85c-1.11-0.59-2.39-0.29-3.59-0.32c-11.8-0.34-23.6-0.58-35.4-0.99
			c-7.14-0.25-14.29-0.66-21.42-1.17c-11.88-0.85-23.76-1.83-35.49-4.05c-4-0.76-7.93-1.88-11.86-2.97
			c-1.41-0.39-2.75-1.06-4.04-1.76c-0.99-0.53-1.95-1.2-2.74-1.98c-2.35-2.32-2.34-5.21,0.11-7.47c1.06-0.98,2.35-1.83,3.67-2.41
			c2.17-0.95,4.43-1.74,6.72-2.39c5.91-1.67,11.96-2.69,18.04-3.37c8.91-1,17.83-1.88,26.76-2.57c7.35-0.57,14.73-0.86,22.1-1.12
			c11.34-0.4,22.69-0.66,34.03-0.99c1-0.03,2-0.12,3.19-0.19c0.08-1.14,0.2-2.12,0.2-3.11c0.02-7.49,0.02-36.32,0-43.81
			c-0.01-3.33,0.57-6.55,1.79-9.64c2.8-7.1,8.36-10.97,15.99-11.03c1.69-0.01,3.4,0.16,5.06,0.49c5.14,1.01,8.78,4.05,11.13,8.66
			c1.84,3.6,2.61,7.47,2.61,11.51c0,7.15,0,35.64,0,42.79c0,1.24,0,2.48,0,3.62c1.15,0.93,2.32,0.67,3.42,0.7
			c9.64,0.24,19.3,0.31,28.93,0.73c11.9,0.51,23.81,1.14,35.69,2.01c10.29,0.76,20.57,1.83,30.69,3.98c3.32,0.7,6.58,1.71,9.84,2.67
			c1.19,0.35,2.33,0.91,3.42,1.49c0.89,0.48,1.76,1.06,2.51,1.73c2.72,2.43,2.79,5.53,0.1,7.96c-1.08,0.97-2.37,1.82-3.71,2.36
			c-2.62,1.05-5.3,2.02-8.04,2.72c-6.71,1.73-13.56,2.79-20.45,3.46c-9.82,0.96-19.66,1.85-29.51,2.49
			c-8.6,0.56-17.23,0.81-25.85,1.08c-8.39,0.27-16.79,0.39-25.19,0.59c-0.44,0.01-0.88,0.08-1.51,0.14
			c-0.11,0.54-0.32,1.07-0.32,1.59c-0.02,9.31-0.02,18.62-0.01,27.92c0,0.43,0.11,0.87,0.2,1.48c0.61,0.08,1.14,0.18,1.68,0.22
			c9.05,0.68,18.12,1.16,27.15,2.08c12.99,1.32,25.88,3.27,38.36,7.32c0.65,0.21,1.29,0.44,1.93,0.65
			c15.58,5.03,25.57,15.86,31.61,30.69c2.59,6.36,3.76,13.06,4.06,19.91c0.4,9.39-0.9,18.57-3.52,27.57
			c-3.52,12.1-14.95,22.32-27.28,24.46c-4.66,0.81-9.3,0.32-13.86-0.7c-2.64-0.59-5.29-1.36-7.76-2.45
			c-4.53-1.98-5.27-4.92-2.49-8.95c0.77-1.12,1.71-2.12,2.55-3.19c1.12-1.43,2.31-2.81,3.31-4.32c3.42-5.2,5.8-15.91,3.08-21.44
			c-1.53-3.11-5.59-7.97-8.3-10.09c-4.28-3.36-9.54-6.29-14.89-7.19c-4.58-0.77-9.19-1.5-13.81-1.96c-6.1-0.6-12.22-0.94-18.33-1.35
			c-1.1-0.08-2.21-0.01-3.43-0.01c-0.11,0.61-0.24,1.04-0.25,1.46c-0.03,1.25-0.03,10.83-0.03,12.08c0,55.96-0.01,89.65,0.01,145.61
			c0,3.43-0.27,6.82-1.35,10.07c-1.79,5.36-5.09,9.33-10.65,11.08c-3.77,1.19-7.59,1.38-11.4,0.24c-3.49-1.04-6.3-3.07-8.42-6.04
			c-2.99-4.18-4.4-8.91-4.76-13.99c-0.08-1.13-0.02-2.27-0.02-3.4c0-55.51,0-98.73-0.01-154.24c0-1.45,0.15-2.91-0.24-4.49
			c-1.48,0-2.82-0.09-4.14,0.01c-7.47,0.59-14.94,1.11-22.38,1.89c-3.94,0.41-7.87,1.11-11.72,2.01c-5.53,1.29-10.3,4.09-14.33,8.11
			c-2.03,2.02-3.63,4.35-4.68,7.04c-1.89,4.87-1.6,19.59,1.18,24.01c1.26,2.01,2.89,3.78,4.32,5.68c0.95,1.27,2.02,2.48,2.75,3.87
			c1.47,2.78,0.82,5.08-1.86,6.69c-1.35,0.81-2.83,1.45-4.33,1.95c-4.22,1.41-8.57,2.13-13.02,2.32
			c-5.23,0.22-10.16-0.92-14.75-3.38c-9.45-5.07-15.96-12.56-18.77-23.06c-2.43-9.06-3.57-18.26-2.94-27.63
			c0.99-14.58,6.27-27.29,16.75-37.69c3.91-3.89,8.37-6.92,13.43-9.12c7.32-3.18,14.99-5.17,22.79-6.72
			c10.58-2.1,21.28-3.43,32.03-4.21C1095.56,160.92,1102.01,160.47,1108.66,160"/>
		<path d="M98.84,294.73c-1.49-0.55-2.56-0.95-3.63-1.34c-4.52-1.66-9.12-3.13-13.55-5c-22.17-9.38-38.23-25.26-49.04-46.6
			c-3.92-7.74-6.13-16.01-6.57-24.7c-0.23-4.49,0.37-8.91,1.38-13.28c3.54-15.4,9.78-29.65,18.36-42.89
			c0.64-0.99,1.27-1.98,1.89-2.97c0.12-0.19,0.17-0.43,0.34-0.9c-0.66-0.63-1.37-1.37-2.14-2.03c-6.73-5.73-12.96-11.95-18.74-18.64
			c-5.69-6.59-8.36-14.35-9.13-22.85c-0.36-3.99-0.27-7.99,0.64-11.93c0.64-2.77,1.53-5.44,2.98-7.88
			c2.99-5.01,6.76-9.32,11.53-12.71c2.8-1.99,5.85-3.46,9.2-4.32c5.49-1.4,10.74-0.58,15.81,1.72c3.24,1.47,6.12,3.48,8.81,5.8
			c2.95,2.54,5.48,5.48,8.04,8.41c2.47,2.83,5.11,5.52,7.7,8.24c0.47,0.5,1.07,0.88,1.55,1.27c1.14-0.26,1.23-1.17,1.55-1.87
			c4.18-9.24,7.3-18.84,9.79-28.65c1.04-4.1,1.9-8.24,2.94-12.35c0.57-2.27,1.17-4.57,2.07-6.72c0.67-1.59,1.66-3.14,2.82-4.42
			c2.11-2.32,5.26-2.67,8.07-1.21c2.04,1.06,3.53,2.71,4.85,4.54c2.44,3.37,4.06,7.14,5.34,11.07c2.82,8.67,3.2,17.52,1.83,26.49
			c-1.4,9.1-3.91,17.9-7.15,26.5c-0.45,1.2-0.88,2.42-1.4,3.86c0.88,0.41,1.67,0.85,2.51,1.15c7.97,2.86,16.17,4.95,24.38,7
			c6.5,1.61,13,3.21,19.47,4.94c4.56,1.22,8.87,3.1,12.9,5.57c2.82,1.73,5.42,3.74,7.67,6.18c2.09,2.27,3.79,4.78,4.86,7.7
			c1.96,5.36,1.3,10.4-1.86,15.12c-1.93,2.89-4.53,5.07-7.44,6.91c-6.74,4.25-14.08,6.98-21.85,8.61c-1.83,0.38-3.69,0.69-5.69,1.06
			c-0.14,0.52-0.43,1.08-0.39,1.61c0.47,6.95-0.25,13.87-0.52,20.79c-0.21,5.29-0.77,10.56-1,15.84
			c-0.85,19.58-4.22,38.77-9.1,57.71c-3.8,14.71-8.59,29.07-14.99,42.87c-3.82,8.23-8.22,16.13-13.71,23.38
			c-4.43,5.85-9.53,11.03-15.54,15.27c-5.74,4.05-11.97,7.02-18.94,8.17c-6.72,1.11-13.38,0.82-19.76-1.79
			c-1.83-0.75-3.64-1.7-5.25-2.85c-4.09-2.92-5.47-7.81-3.71-12.53c0.79-2.12,2-4.03,3.58-5.61c2.41-2.41,4.85-4.8,7.46-6.98
			c4.78-4,9.72-7.8,14.55-11.75c7.04-5.76,13.5-12.08,18.54-19.72c1.81-2.74,3.49-5.58,5.16-8.41
			C97.13,298.14,97.83,296.65,98.84,294.73 M85.58,178.22c-0.23,0.6-0.45,1.01-0.56,1.45c-1.22,4.8-1.96,9.66-2.16,14.61
			c-0.32,7.9,0.16,15.74,1.56,23.52c1.57,8.72,4.21,17.09,8.38,24.95c3.84,7.23,8.74,13.64,14.89,19.06
			c0.56,0.5,1.04,1.34,2.26,0.96c0.16-0.55,0.38-1.2,0.55-1.86c3.05-12.46,4.61-25.17,6.29-37.86c0.91-6.87,1.75-13.75,2.58-20.63
			c0.58-4.78,1.11-9.57,1.62-14.36c0.13-1.25,0.12-2.52,0.19-3.96c-4.17-0.53-8.12-0.98-12.05-1.54c-3.95-0.56-7.9-1.16-11.83-1.89
			C93.39,179.96,89.52,179.06,85.58,178.22"/>
		<path d="M233.11,222.53c-1.83,0-3.34-0.04-4.85,0.01c-5.88,0.21-11.77,0.27-17.61-0.51c-1.85-0.25-3.7-0.66-5.5-1.18
			c-4.33-1.26-6.55-4.39-7.18-8.7c-0.67-4.59,0.68-8.6,3.85-11.99c2.65-2.82,5.93-4.66,9.62-5.64c4.08-1.08,8.23-1.94,12.36-2.84
			c4.47-0.97,8.97-1.86,13.52-2.79c0.72-1.46,0.7-2.99,0.8-4.49c1.5-21.37,1.81-42.77,1.49-64.18c-0.04-2.69-0.1-5.39-0.14-7.93
			c-1.2-0.73-2.03-0.16-2.9,0.15c-6.32,2.23-12.71,4.24-19.3,5.51c-3.7,0.71-7.43,1.27-11.21,1.02c-1.51-0.1-3.06-0.29-4.51-0.72
			c-5.8-1.71-8.89-7.62-7.07-13.38c0.65-2.05,1.68-3.92,3.12-5.48c1.75-1.9,3.56-3.77,5.57-5.38c2.1-1.69,4.37-3.2,6.7-4.55
			c10.7-6.23,20.68-13.47,30.3-21.24c8.53-6.89,15.42-15.13,20.78-24.68c1.33-2.36,2.64-4.72,4.06-7.02
			c1.8-2.92,3.95-5.56,6.73-7.63c3.19-2.37,6.72-3.29,10.65-2.36c1.97,0.47,3.72,1.44,5.36,2.6c3.24,2.3,5.68,5.31,7.4,8.84
			c6.57,13.5,6.3,26.77-1.68,39.65c-3.33,5.38-7.82,9.7-13.04,13.23c-3.11,2.1-6.41,3.93-9.64,5.86c-1.11,0.66-2.25,1.27-3.56,2.02
			c0.78,5.54,1.63,11.1,2.33,16.66c0.69,5.48,1.28,10.98,1.8,16.48c0.53,5.62,0.98,11.24,1.37,16.88
			c0.38,5.51,0.64,11.03,0.93,16.55c0.29,5.62,0.55,11.24,0.82,16.95c2.32,0.18,4.36-0.41,6.41-0.74c9.53-1.52,19.09-2.72,28.75-2.9
			c4.35-0.08,8.72,0.06,12.97,1.12c2.03,0.51,4.09,1.16,5.95,2.12c5.87,3.05,7.91,9.27,5.21,15.32c-1.03,2.3-2.59,4.19-4.49,5.82
			c-2.43,2.08-5.17,3.67-8.05,5.02c-6.21,2.91-12.77,4.72-19.42,6.25c-8.26,1.89-16.63,3.12-25.02,4.23
			c-0.57,0.08-1.14,0.19-1.63,0.27c-0.81,1.15-0.7,2.35-0.74,3.51c-0.35,9.65-1.39,19.23-3.03,28.74
			c-3.43,19.85-9.34,38.88-19.83,56.21c-14.2,23.48-33.76,41.12-58.68,52.72c-6.85,3.19-14.03,5.39-21.52,6.5
			c-4.91,0.73-9.85,0.75-14.78,0.23c-5.03-0.53-10.05-1.22-14.88-2.75c-2.34-0.74-4.66-1.63-6.86-2.73
			c-1.55-0.78-3.03-1.85-4.26-3.08c-3.74-3.76-2.74-7.82-0.21-10.74c0.91-1.05,2.05-1.95,3.22-2.72c2.16-1.41,4.37-2.79,6.66-3.97
			c5.21-2.7,10.43-5.43,15.76-7.89c12.02-5.54,22.41-13.3,31.65-22.68c9.89-10.03,18.12-21.31,25.06-33.54
			c7.68-13.55,13.92-27.73,18.07-42.77c0.91-3.28,1.57-6.63,2.32-9.96C233.17,223.52,233.11,223.15,233.11,222.53"/>
		<path d="M315.89,293.88c14.81-0.33,28.72,11.78,28.81,28.58c0.09,16.66-13.63,28.96-28.9,28.91
			c-14.53-0.05-28.66-11.63-28.62-28.82C287.21,305.09,301.7,293.55,315.89,293.88"/>
		<path d="M474.73,268.32c-1.16-0.05-2.2-0.14-3.24-0.14c-3.06-0.01-6.12-0.07-9.17,0.03c-3.19,0.11-5.38-1.41-6.98-3.96
			c-1.66-2.63-2.49-5.59-2.86-8.64c-0.45-3.72-0.66-7.48-0.98-11.24c-1.23-1.28-2.5-2.67-3.85-3.98
			c-9.07-8.77-17.4-18.17-24.35-28.75c-6.04-9.2-10.74-19.02-13.71-29.64c-4.44-15.84-3.28-31.41,2.23-46.77
			c4.29-11.97,10.87-22.64,18.72-32.58c5.11-6.47,10.72-12.5,16.65-18.22c0.84-0.81,1.76-1.55,2.67-2.33
			c-0.25-1.16-0.4-2.07-0.65-2.95c-1.16-4.16-1.43-8.34-0.34-12.54c0.38-1.47,0.85-2.95,1.55-4.29c4.77-9.19,9.93-18.16,16.16-26.46
			c2.69-3.58,5.61-6.95,8.84-10.06c5.52-5.32,11.89-9.21,19.3-11.23c2.01-0.55,4.18-0.83,6.25-0.71c4.9,0.27,7.67,3.73,6.99,8.62
			c-0.27,1.96-0.82,3.93-1.6,5.75c-1.02,2.36-2.34,4.61-3.62,6.84c-3.28,5.71-6.63,11.38-9.9,17.08c-0.44,0.77-1.2,1.52-0.69,2.82
			c0.84,0,1.77,0,2.69,0c15.29-0.06,30.58-0.13,45.87-0.19c2.59-0.01,5.18-0.07,7.76-0.01c5.79,0.14,9.16,3.12,9.97,8.87
			c0.21,1.5,0.15,3.04,0.19,4.56c0.01,0.35-0.12,0.71-0.08,1.05c0.49,4.73-0.11,9.38-1.06,13.92c0.52,1.39,1.64,2.11,2.54,3.01
			c6.69,6.64,12.97,13.63,18.54,21.25c7.27,9.94,13.16,20.59,16.75,32.43c2.93,9.67,4.19,19.53,3.22,29.61
			c-0.78,8.13-2.94,15.93-6.01,23.49c-4.92,12.1-11.96,22.91-20.43,32.79c-4.05,4.73-8.45,9.16-12.72,13.7
			c-0.72,0.76-1.56,1.42-2.26,2.04c1.04,6.16,0.55,11.97-0.89,17.71c-0.52,2.07-1.3,4.03-2.58,5.76c-1.56,2.11-3.56,3.33-6.29,3.26
			c-2.57-0.07-5.15-0.01-7.84-0.01c0,2.51,0.72,4.63,1.16,6.78c2.32,11.4,4.56,22.82,7.78,34.01c1.2,4.17,2.55,8.32,4.15,12.35
			c1.07,2.71,2.54,5.31,4.12,7.76c3.38,5.24,8.17,8.74,14.2,10.37c2.83,0.77,5.73,1.32,8.63,1.73c8.5,1.21,17.04,2.06,25.63,2.38
			c8.86,0.33,17.63-0.62,26.29-2.35c8.64-1.72,17.21-3.78,25.83-5.61c2.64-0.56,5.33-0.88,8-1.27c0.69-0.1,1.41-0.09,2.11-0.06
			c5.49,0.18,8.7,2.76,10.09,8.1c0.06,0.23,0.1,0.46,0.14,0.69c1.15,6.67,1.1,13.36-0.12,19.99c-0.73,3.97-3.04,7.08-6.31,9.46
			c-2.8,2.03-5.95,3.3-9.22,4.31c-4.28,1.32-8.68,2.12-13.11,2.68c-12.73,1.59-25.51,2.56-38.34,2.63
			c-10.95,0.06-21.85-0.76-32.7-2.24c-6.64-0.9-13.28-1.84-19.72-3.75c-3.48-1.03-6.95-2.22-10.27-3.67
			c-8.54-3.71-15.27-9.6-20.3-17.44c-2.48-3.87-4.55-7.96-6.36-12.18c-7.6-17.68-13.21-35.94-15.88-55.05
			c-0.05-0.34-0.16-0.68-0.27-1.01c-0.03-0.08-0.16-0.12-0.26-0.2c-0.82,0.08-0.71,0.79-0.82,1.31
			c-2.8,13.04-6.98,25.61-12.81,37.62c-3.71,7.63-8,14.91-13.27,21.6c-3.59,4.55-7.68,8.56-12.35,12.02
			c-14.31,10.59-30.13,17.73-47.65,20.99c-6.25,1.16-12.54,1.99-18.92,1.83c-5.11-0.12-10.05-1-14.74-3.07
			c-4.51-1.99-8.29-4.9-10.99-9.08c-1.9-2.93-2.94-6.1-2.9-9.64c0.04-3.14,1.11-6.21,5.48-7.76c2.3-0.82,4.77-1.27,7.2-1.63
			c7.56-1.12,15.11-2.24,22.49-4.29c12.7-3.54,24.53-8.9,34.87-17.17c15.22-12.18,25.9-27.45,31.04-46.39
			c1.11-4.08,2.02-8.21,3-12.33C474.55,269.93,474.6,269.23,474.73,268.32 M469.31,84.88c-3.02,0.28-5.56,0.45-8.08,0.79
			c-0.62,0.08-1.24,0.62-1.72,1.08c-0.5,0.48-0.84,1.13-1.23,1.71c-12.45,18.54-20.53,38.73-23.01,61.04
			c-1.32,11.88-0.97,23.7,1.19,35.45c3.38,18.29,10.69,34.96,21.04,50.35c0.45,0.66,1.02,1.24,1.43,1.73
			c2.68,0.26,5.13,0.53,7.59,0.73c0.51,0.04,1.18,0.3,1.57-0.62c-0.59-1.02-1.21-2.13-1.88-3.22c-6.02-9.85-11.1-20.15-14.89-31.08
			c-5.54-15.98-7.76-32.41-6.53-49.26c0.93-12.86,3.98-25.26,8.62-37.28c3.78-9.78,8.52-19.08,13.99-28.02
			C467.99,87.32,468.51,86.3,469.31,84.88 M514.2,82.5c11.1,52.61,11.14,104.86,0.31,157.28c1.05,0.07,1.85,0.18,2.65,0.17
			c1.16-0.02,2.32-0.13,3.53-0.21c0.49-1.49,0.97-2.82,1.36-4.16c6.37-22.28,9.44-45.05,9.9-68.18c0.28-14-0.61-27.95-2.47-41.84
			c-1.81-13.42-4.6-26.61-8.57-39.56c-0.34-1.1-0.78-2.16-1.18-3.25C517.94,82.53,516.35,82.25,514.2,82.5 M489.6,82.66
			c-0.3,0.77-0.5,1.19-0.64,1.63c-0.66,2.13-1.35,4.26-1.95,6.4c-4.4,15.53-7.25,31.34-8.62,47.42c-0.78,9.14-1.29,18.29-1.15,27.46
			c0.21,13.41,1.23,26.75,3.32,40.01c1.7,10.81,4.02,21.47,7.14,31.95c0.22,0.75,0.62,1.45,0.99,2.28c1.38-0.14,2.65,0.46,3.98-0.32
			c-1.15-6.49-2.43-12.93-3.41-19.42c-0.98-6.5-1.8-13.04-2.46-19.58c-0.67-6.54-1.21-13.11-1.53-19.67
			c-0.32-6.57-0.41-13.16-0.38-19.74c0.03-6.58,0.21-13.16,0.56-19.73c0.35-6.57,0.87-13.13,1.57-19.67
			c0.7-6.54,1.61-13.06,2.63-19.55c1.01-6.45,2.27-12.87,3.46-19.48H489.6z M540,85.1c0.67,1.18,1.22,2.2,1.82,3.18
			c7.77,12.69,14.07,26.03,18.22,40.35c4.27,14.73,5.76,29.74,4.47,45c-1.04,12.25-4.06,24.07-8.59,35.5
			c-3.56,8.98-8.01,17.52-13.06,25.75c-0.52,0.85-1.36,1.61-1.16,2.92c1.09-0.05,2.13-0.12,3.18-0.14c1.67-0.03,2.76-0.82,3.7-2.23
			c11.56-17.39,19.28-36.22,21.9-57.06c1.59-12.59,1.19-25.11-1.14-37.55c-3.6-19.23-11.26-36.77-22.31-52.87
			c-0.59-0.86-1.22-1.7-1.83-2.54C543.48,85.35,541.93,84.69,540,85.1"/>
		<path d="M375.07,163.72c0.09-17.37,4.76-31.95,13.54-45.23c6.9-10.43,15.66-19.04,25.83-26.27c6.44-4.58,13.31-8.41,20.51-11.65
			c0.96-0.43,1.96-0.83,2.98-1.05c0.84-0.18,1.62,0.17,2.1,0.97c0.48,0.8,0.44,1.63-0.16,2.29c-0.78,0.87-1.67,1.65-2.54,2.43
			c-8.6,7.75-16.33,16.26-22.74,25.92c-7.91,11.92-13.22,24.86-15.53,39.01c-2.27,13.88-0.83,27.4,3.63,40.68
			c4.91,14.61,12.88,27.39,23.06,38.86c2.42,2.72,5.03,5.28,7.55,7.92c0.57,0.59,1.19,1.15,1.69,1.79c0.55,0.7,0.61,1.51,0.13,2.3
			c-0.52,0.85-1.46,1.24-2.43,0.96c-0.45-0.13-0.88-0.33-1.3-0.54c-16.68-8.13-30.89-19.26-41.61-34.55
			c-7.49-10.67-12.26-22.46-14.01-35.4C375.31,168.92,375.21,165.61,375.07,163.72"/>
		<path d="M629.72,161.33c-0.01,16.77-5.2,31.88-14.72,45.58c-8.26,11.87-18.86,21.24-31.14,28.76c-2.81,1.72-5.73,3.24-8.62,4.81
			c-0.72,0.39-1.48,0.72-2.26,0.96c-1.04,0.33-2.02-0.03-2.48-0.8c-0.47-0.77-0.41-1.84,0.25-2.63c0.61-0.72,1.3-1.36,1.97-2.02
			c4.53-4.47,8.74-9.22,12.6-14.28c8.65-11.35,15.03-23.82,18.76-37.64c4.8-17.78,3.26-35.19-2.99-52.3
			c-4.45-12.18-11.28-22.97-19.66-32.81c-4.58-5.39-9.55-10.39-14.86-15.06c-0.79-0.7-1.6-1.39-2.3-2.18
			c-0.63-0.7-0.59-1.91-0.03-2.62c0.57-0.72,1.34-0.95,2.2-0.73c0.56,0.14,1.11,0.38,1.65,0.61c16.01,6.89,30.07,16.51,41.44,29.81
			c8.85,10.35,15.14,22.06,18.25,35.39C629.05,149.69,629.7,155.22,629.72,161.33"/>
		<path d="M635.44,297.89c0.3,15.2-12.14,28.78-28.52,28.87c-16.91,0.1-28.82-13.88-28.98-28.48
			c-0.16-14.24,11.16-29.02,28.77-29.04C623.89,269.23,635.69,283.45,635.44,297.89"/>
		<path d="M875.39,320.92c-4.24-2.19-8.09-4.18-11.94-6.16c-1.36,0.67-1.79,1.96-2.45,3.02c-8.21,13.17-16.39,26.36-24.57,39.55
			c-1.43,2.31-2.95,4.56-5.06,6.29c-1.35,1.11-2.82,2.16-4.39,2.87c-2.85,1.29-5.74,1.07-8.42-0.62c-2.34-1.48-3.75-3.6-3.73-6.41
			c0.01-1.62,0.26-3.28,0.64-4.86c0.64-2.65,2-5.01,3.44-7.31c6.74-10.76,13.49-21.52,20.23-32.27c1.5-2.39,2.99-4.79,4.47-7.19
			c0.42-0.69,0.79-1.42,1.25-2.25c-0.88-1.14-2.15-1.51-3.25-2.08c-9.72-5-19.45-9.97-29.17-14.97c-1.25-0.64-2.52-1.31-3.63-2.15
			c-4.67-3.52-4.52-8.07,0.44-11.07c1.68-1.02,3.6-1.72,5.5-2.28c4.94-1.47,9.98-1.64,14.99-0.45c1.92,0.45,3.79,1.26,5.6,2.08
			c6.53,2.95,13.03,5.98,19.55,8.96c0.85,0.39,1.73,0.69,2.56,1.01c1.37-0.67,1.79-1.97,2.45-3.04
			c12.61-20.26,25.19-40.55,37.78-60.82c6.7-10.79,13.38-21.58,20.13-32.34c1.18-1.88,2.57-3.65,3.98-5.37
			c0.82-0.99,1.83-1.83,2.86-2.61c2.47-1.89,5.22-2.91,8.19-1.39c3.2,1.64,5.38,4.15,5.64,7.95c0.16,2.4-0.23,4.72-1.27,6.86
			c-1.28,2.64-2.59,5.28-4.13,7.77c-12.36,20-24.79,39.97-37.19,59.94c-5.83,9.39-11.67,18.77-17.49,28.17
			c-0.61,0.98-1.17,2-1.74,2.98c2,1.55,8.67,4.61,12.69,5.82c0.6-0.88,1.27-1.82,1.87-2.79c17.62-28.36,35.24-56.73,52.85-85.09
			c1.86-3,3.68-6.02,5.6-8.98c1.02-1.57,2.17-3.07,3.38-4.51c0.83-0.98,1.79-1.88,2.8-2.67c2.52-1.96,5.25-3.35,8.45-1.71
			c3.47,1.78,5.67,4.54,5.81,8.6c0.09,2.53-0.62,4.91-1.72,7.14c-1.3,2.63-2.71,5.22-4.25,7.71c-11.01,17.8-22.07,35.57-33.11,53.35
			c-7.07,11.39-14.15,22.77-21.21,34.16c-0.6,0.97-1.14,1.98-1.66,2.88c0.95,1.2,2.08,0.98,3.11,1.04
			c6.93,0.36,13.83,1.03,20.68,2.16c6.16,1.02,12.2,2.52,17.95,4.99c8.09,3.47,14.59,8.81,19.75,15.98
			c10.04,13.97,3.79,33.56-13.53,38.95c-7.68,2.39-15.31,2.02-22.78-1.04c-4.27-1.75-8.18-4.13-11.85-6.91
			c-6.7-5.07-12.56-11.01-17.82-17.53c-3.02-3.75-5.81-7.69-8.71-11.54c-0.47-0.62-0.97-1.23-1.65-2.09
			c-0.82,1.19-1.51,2.1-2.11,3.07c-7.7,12.38-15.4,24.76-23.07,37.16c-1.56,2.52-3.28,4.87-5.5,6.85c-1.61,1.43-3.41,2.49-5.48,3.1
			c-4.6,1.35-11.65-1.91-10.81-9.37c0.43-3.84,2.12-7.19,4.13-10.4c3.75-5.97,7.56-11.91,11.3-17.89
			c4.06-6.48,8.08-12.98,12.1-19.47C874.34,322.92,874.74,322.1,875.39,320.92 M923.68,330.21c-0.81,0-1.4-0.02-1.98,0.01
			c-1.05,0.05-1.77,0.62-2.14,1.57c-0.41,1.06-0.34,2.09,0.53,2.92c0.42,0.4,0.91,0.74,1.41,1.04c5.42,3.3,10.9,6.49,16.76,8.96
			c2.05,0.86,4.19,1.51,6.32,2.16c0.77,0.23,1.62,0.24,2.43,0.25c0.73,0,1.28-0.72,1.18-1.46c-0.06-0.46-0.17-0.92-0.31-1.37
			c-1.32-4.43-4.25-7.5-8.21-9.67C934.61,331.86,929.1,330.78,923.68,330.21"/>
		<path d="M761.5,229c0.8,10.96,1.6,21.63,2.35,32.3c0.59,8.45,1.13,16.9,1.68,25.34c0.61,9.27,1.29,18.54,1.78,27.81
			c0.65,12.1,1.29,24.2,0.87,36.32c-0.19,5.64-0.62,11.28-2.01,16.78c-0.4,1.59-0.92,3.16-1.52,4.69c-0.43,1.09-1,2.14-1.65,3.11
			c-2.36,3.54-5.85,5.52-11.39,3.87c-2.8-0.83-5-2.55-6.88-4.73c-2.02-2.34-3.48-5.01-4.7-7.83c-2.01-4.67-3.27-9.55-4.21-14.54
			c-1.6-8.58-2.24-17.25-2.29-25.97c-0.1-18.35-0.19-36.7-0.24-55.05c-0.01-5.41,0.14-10.82,0.2-16.23c0.01-0.9-0.1-1.81-0.14-2.58
			c-1.01-0.54-1.57,0-2.14,0.34c-7.6,4.44-15.79,7.19-24.4,8.86c-14.2,2.74-28.09,1.68-41.66-3.27c-2.41-0.88-4.75-2.07-6.94-3.42
			c-1.47-0.9-2.83-2.16-3.85-3.55c-2.22-3.01-1.18-6.42,2.31-7.7c1.4-0.52,2.97-0.68,4.48-0.79c11.33-0.87,22.3-3.23,32.84-7.58
			c10.65-4.39,20.3-10.38,28.91-18c9.73-8.62,18.28-18.31,25.55-29.09c3.82-5.67,7.22-11.58,9.44-18.09
			c0.87-2.55,1.44-5.2,2.09-7.82c0.48-1.94,0.7-3.95,1.32-5.84c0.66-2,1.48-3.98,2.52-5.8c5.04-8.82,17.05-9.94,23.66-3.36
			c7.63,7.6,10.96,16.57,8.3,27.29c-1.22,4.92-3.14,9.6-5.34,14.17c-6.42,13.35-14.61,25.48-24.92,36.16
			C764.22,226.17,762.92,227.52,761.5,229"/>
		<path d="M821.61,95.21c16.69,0.31,33.39,0.45,50.08,0.99c12.81,0.42,25.6,1.19,38.39,2.08c9.49,0.66,18.97,1.69,28.35,3.35
			c4.74,0.84,9.48,1.75,14.01,3.45c1.64,0.61,3.25,1.36,4.79,2.2c0.91,0.5,1.76,1.2,2.46,1.97c1.94,2.14,2.02,4.95-0.01,6.98
			c-1.22,1.22-2.75,2.21-4.29,3c-3.37,1.72-7.04,2.63-10.72,3.42c-8.28,1.79-16.66,2.95-25.1,3.69c-7.38,0.65-14.76,1.33-22.15,1.78
			c-8.57,0.51-17.15,0.83-25.72,1.15c-29.16,1.11-58.32,0.9-87.48,0.42c-13.75-0.23-27.51-0.7-41.23-1.81
			c-9.02-0.73-18.05-1.4-27.05-2.37c-7.59-0.81-15.15-1.97-22.51-4.13c-2.14-0.63-4.27-1.36-6.27-2.32
			c-1.45-0.7-2.86-1.68-3.99-2.83c-2.06-2.1-1.97-4.76-0.03-6.98c1.35-1.54,3.08-2.59,4.96-3.27c2.98-1.07,5.99-2.1,9.06-2.85
			c7.32-1.77,14.78-2.79,22.26-3.57c7.48-0.78,14.98-1.45,22.49-1.95c8.09-0.54,16.2-0.94,24.31-1.17c15.4-0.43,30.8-0.7,46.2-1.02
			c3.06-0.06,6.11-0.01,9.17-0.01L821.61,95.21z"/>
		<path d="M780.9,34.44c0.11-6.45,1.05-12.23,2.93-17.85c0.97-2.92,2.27-5.68,4.12-8.15c4.32-5.77,10.03-8.74,17.31-8.41
			c2.61,0.12,5.1,0.85,7.47,1.92c9.42,4.28,15.22,11.54,17.66,21.54c0.96,3.92,0.86,7.94,1.25,11.91c0.21,2.1,0.34,4.23,0.79,6.28
			c1,4.6,3.65,8.09,7.66,10.54c1.1,0.67,2.28,1.22,3.4,1.87c1.12,0.64,2.29,1.23,3.3,2.02c3.86,2.99,4.37,7.25,1.39,11.15
			c-1.53,2-3.51,3.47-5.71,4.63c-4.35,2.28-9.04,3.35-13.89,3.58c-15.52,0.74-28.2-5.29-38.38-16.71
			C783.92,51.75,780.78,43.39,780.9,34.44"/>
		<path d="M803.7,220.03c0.13-15.54,12.14-28.5,28.43-28.5c15.96,0.01,28.24,12.6,28.32,28.2c0.08,15.87-12.41,28.53-28.38,28.5
			C815.9,248.19,803.99,235.45,803.7,220.03"/>
	</g>
</g>
</svg>
