<?xml version="1.0" encoding="utf-8"?>
<!-- Generator: Adobe Illustrator 23.1.0, SVG Export Plug-In . SVG Version: 6.00 Build 0)  -->
<svg version="1.1" xmlns="http://www.w3.org/2000/svg" xmlns:xlink="http://www.w3.org/1999/xlink" x="0px" y="0px"
	 viewBox="0 0 872.03 800" style="enable-background:new 0 0 872.03 800;" xml:space="preserve">
<style type="text/css">
	.st0{display:none;}
	.st1{display:inline;fill:#989898;}
	.st2{fill:none;}
	.st3{fill:none;stroke:#231815;stroke-width:2;stroke-miterlimit:10;}
	.st4{fill:#FFFFFF;}
	.st5{fill:#040000;}
	.st6{fill-rule:evenodd;clip-rule:evenodd;}
	.st7{fill:#F7F7F7;}
</style>
<g id="BG" class="st0">
	<rect x="-1625.1" y="-918.18" class="st1" width="5423.46" height="2640.54"/>
</g>
<g id="圖層_2">
	<g>
		<path class="st4" d="M435.88,20.25C228.38,19.89,57.11,185.71,56.24,399.13c-0.84,207.11,164.45,380.29,379.22,380.62
			c213.59,0.33,379.89-170.99,380.33-379.54C816.24,190.08,646.01,20.23,435.88,20.25z"/>
		<path d="M413.79,140.97c-1.63-0.88-4.28-1.43-4.69-2.7c-1.02-3.18-2.55-8.27-1.08-9.69c2.26-2.19,7.65-3.63,10.33-2.39
			c6.01,2.78,11.18,7.39,17.3,11.69c4.32-3.88,8.7-8.06,13.35-11.91c4.78-3.95,10.44-7.06,15.34-1.05
			c4.54,5.56,0.76,10.24-3.81,14.12c-1.06,0.9-1.86,2.1-3.31,3.76c9.72,2.45,18.64,4.36,27.35,6.98
			c14.91,4.48,28.61,11.01,38.57,23.79c1.65,2.12,5.07,3.17,7.88,4.03c41.07,12.57,64.32,63.32,46.61,102.47
			c-8.4,18.56-22.75,29.33-43.42,30.96c-2.41,0.19-4.82,0.46-8.05,0.77c-1.13,18.27-1.73,36.34-3.55,54.29
			c-1.14,11.21-3.32,22.47-6.48,33.29c-4.95,16.91-19.37,25.57-33.08,34.42c-9.29,5.99-13.05,14.1-11.3,26.33c3.97,0,7.85,0,11.73,0
			c64.22,0.02,128.45,0.03,192.67,0.05c17.37,0,18.75,1.42,18.75,18.79c0,7.37,0.36,14.75,0.22,22.12
			c-0.1,5.61-0.35,12.12-7.95,12.23c-7.65,0.11-7.98-6.23-8.09-11.96c-0.08-4.3-0.43-8.67,0.15-12.89
			c1.17-8.45-2.54-10.17-10.39-10.16c-138.28,0.25-276.56,0.24-414.83,0.24c-27.66,0-55.32,0.15-82.96-0.52
			c-8.42-0.2-10.76,2.41-10.1,10.39c0.6,7.31,0.22,14.75-0.24,22.1c-0.32,5.18-2.16,10.14-8.54,9.98c-6.39-0.16-7.78-5.15-7.99-10.4
			c-0.49-12.58-0.76-25.17-1.25-37.75c-0.32-8.4,5.11-10.54,11.84-10.78c15.66-0.57,31.33-1.12,47-1.18
			c55.62-0.19,111.24-0.09,166.85-0.35c4.72-0.02,11.59-0.38,13.7-3.3c4.25-5.9,0.3-20.13-5.05-24.5c-2.37-1.93-5.03-3.52-7.62-5.17
			c-22.22-14.13-32.04-34.77-31.9-60.65c0.1-17.82,0.12-35.64,0.45-53.46c0.09-4.94-1.53-6.84-6.57-7.68
			c-28.4-4.72-44.95-25.6-44.13-55.35c1.19-43.19,35.33-78.56,70.72-81.03c2.34-0.16,5.4-0.6,6.8-2.13
			c12.74-13.89,29.53-19.36,47.24-23.07C412.77,142.77,413.28,141.87,413.79,140.97z M449.12,459.65
			c-1.47-22.93,9.58-37.58,27.81-47.9c2.12-1.2,3.92-2.98,6-4.27c9.3-5.78,14.86-14.66,15.49-24.97
			c2.71-44.69,4.56-89.44,6.69-134.16c0.3-6.32-2.1-9.18-9.19-9.09c-42.37,0.49-84.74,0.65-127.11,0.61
			c-7.67-0.01-10.49,3.14-10.39,10.41c0.28,19.96,0.53,39.92,0.39,59.87c-0.04,5.95,2.44,7.26,7.75,7.03
			c8.27-0.35,16.57-0.25,24.85-0.07c4.81,0.1,10.4,1.18,9.28,7.23c-0.51,2.73-5.65,6.07-9.03,6.51c-7.54,0.99-15.32,0.67-22.97,0.23
			c-6.53-0.37-10.5,0.46-9.88,8.65c0.5,6.51-0.32,12.13,9.34,11.25c8.2-0.75,16.63-0.35,24.81,0.69c3,0.38,5.57,4.07,8.34,6.25
			c-2.92,2.03-5.65,5.37-8.8,5.83c-6.62,0.97-13.47,0.45-20.22,0.51c-4.16,0.04-8.33,0.01-12.22,0.01
			c-0.56,2.36-0.92,3.24-0.95,4.13c-0.68,17.56,6.6,31.47,21.49,40.09c17.69,10.24,26.06,24.4,23.86,44.78
			c-0.21,1.97,0.43,4.03,0.72,6.41C419.72,459.65,433.73,459.65,449.12,459.65z M502.61,175.87
			c-31.04-23.76-102.02-19.27-116.54-1.34c17.77,10.87,25.03,27.62,24.93,48.77c15.81,0,30.8-0.4,45.75,0.17
			c7.23,0.28,9.3-2.15,11.46-9.05c2.74-8.77,7.66-17.52,13.77-24.39C487.39,183.94,495.71,180.43,502.61,175.87z M526.37,292.26
			c15.81,2.24,29.15-5.84,35.77-20.9c12.25-27.87-5.44-67.01-34.47-76.25c-21.5-6.85-43.31,6.17-46.02,27.49
			c7.2,2.04,12.56,1.68,15.48-7.18c1.07-3.25,6.58-6.46,10.48-7.1c15.71-2.56,31.82,11.31,33.26,28.3
			c0.84,9.84-0.29,19.2-11.39,23.66c-1.35,0.54-2.96,2.53-2.99,3.89C526.24,273.59,526.37,283.01,526.37,292.26z M338.33,287.32
			c0-8.5,0.12-16.44-0.1-24.37c-0.04-1.58-0.96-3.58-2.15-4.62c-11.22-9.84-13.55-19.12-7.98-32.91
			c5.06-12.54,14.69-19.27,27.52-19.49c11.71-0.2,18.31,5.52,19.28,16.81c7.36,0,13.74,0,20.07,0
			c1.21-23.07-18.21-39.88-40.04-35.21c-27.81,5.95-52.17,39.27-49.47,67.67C307.32,274.86,319.18,287.09,338.33,287.32z"/>
		<path d="M405.81,603.36c6.88-8.34,14.43-4.77,21.34-0.57c6.95,4.22,4.08,10.54,2.15,16.49c-3.18,9.8-1.78,12.23,8.33,15.27
			c14.43,4.33,28.75,2.78,42.55-2.12c13.54-4.81,16.4-15.39,6.34-25.64c-6.5-6.62-15.19-11.24-23.27-16.13
			c-6.02-3.64-12.75-6.08-18.98-9.39c-19.14-10.16-22.32-30.66-7.81-46.97c13.93-15.66,32.35-20.76,52.01-22.28
			c26.37-2.03,51.22,2.93,73.66,17.98c12.23,8.21,15.74,19.71,14.91,33.45c-0.11,1.83-0.14,3.66-0.16,5.49
			c0,0.25,0.29,0.49,1.55,2.53c6.13,0,13.42-0.35,20.67,0.09c9.75,0.58,16.53,6.16,16.51,12.82c-0.03,7.48-6.77,13.57-16.48,14.12
			c-6.73,0.38-13.53-0.48-20.24,0.03c-2.23,0.17-5.87,2.67-6.11,4.48c-1.14,8.5-1.94,17.14-1.67,25.69
			c0.25,8.23,5.68,10.66,12.64,6.02c4.31-2.87,7.6-7.46,12.11-9.79c3.86-1.99,10.5-4,12.88-2.14c3.22,2.53,5.67,9.22,4.77,13.3
			c-4.37,19.75-36.4,36.05-55.19,28.67c-12.12-4.76-18.63-14.18-18.81-26.97c-0.14-9.45,1.46-18.93,2.37-28.39
			c0.35-3.59,0.95-7.16,1.55-11.6c-4.36-0.49-7.91-0.97-11.49-1.26c-7.14-0.58-10.68-5.19-10.82-11.54
			c-0.15-6.73,3.43-11.68,10.73-12.79c1.51-0.23,3.12,0.02,4.59-0.34c4.58-1.1,10.98,2.92,13.35-4.45
			c2.49-7.72-0.58-16.95-8.01-20.74c-18.14-9.26-37.27-12.11-57.11-6.22c-4.94,1.47-10.03,3.35-14.23,6.24
			c-7.36,5.06-7.29,12.99-0.04,18.32c3.91,2.87,8.55,4.79,12.98,6.88c25.33,11.97,39.49,37.66,34.6,62.96
			c-3.67,18.99-16,32.06-38.19,34.08c-18.99,1.72-38.87,1.21-57.49-2.57c-28.14-5.72-36.82-43.12-16.16-63.33
			C406.14,603.02,405.81,603.36,405.81,603.36z"/>
		<path d="M405.81,603.36c0,0,0.33-0.34,0.33-0.34c-8.69,3.69-17.51,7.13-26,11.24c-2.48,1.2-4.3,4.14-5.93,6.61
			c-7.09,10.74-13.43,22.01-21.08,32.33c-13.89,18.74-28.89,18.53-42.15-0.39c-8.6-12.27-16.42-25.08-25.5-39.05
			c-6.76,11.08-12.95,21.4-19.33,31.6c-3.57,5.72-7.13,11.5-11.29,16.78c-6.15,7.82-14.95,8.83-22.47,2.17
			c-3.99-3.53-7.93-8.13-9.67-13.03c-13.08-36.72-25.78-73.57-38.21-110.51c-4.57-13.58-0.78-20.27,11.05-21.57
			c9.28-1.02,13.14,4.97,15.6,12.5c8.67,26.52,17.26,53.07,25.99,79.58c1.19,3.62,3.05,7.03,5.69,13.01
			c7.76-12.26,14.46-22.38,20.69-32.77c14.31-23.85,19.83-24.18,36.24-2.06c7.86,10.59,15.78,21.15,24.14,31.34
			c2.88,3.5,7.34,8.76,11.88,2.41c3.68-5.14,12.72-9.4,4.74-18.34c-16.35-18.34-22.78-39.31-13.35-63
			c13.46-33.82,55.36-43.46,78.88-17.76c5.8,6.34,9.52,15.78,11.21,24.38c2.61,13.25-3.7,19.52-17.22,19.98
			c-13.81,0.47-27.62,0.69-41.44,1.08c-2.11,0.06-4.21,0.44-6.37,0.68c3.92,13.3,19.28,19.64,32.7,13.47
			c3.53-1.63,6.72-4.27,9.64-6.92c4.4-3.99,8.82-5.37,14.08-1.83c5.49,3.7,6.54,8.67,3.97,14.47
			C410.55,594.13,408.11,598.71,405.81,603.36z M395.21,548.18c-3.35-9.69-13.11-15.18-22.97-14.11c-10,1.09-16.95,6.53-18.07,14.11
			C367.54,548.18,380.91,548.18,395.21,548.18z"/>
		<path d="M200.59,300.85c6.24-0.31,9.27-0.7,12.26-0.56c13.6,0.65,22.68,9.72,20.02,22.88c-2.05,10.12-6.15,20.9-12.52,28.82
			c-11.46,14.25-25.95,13.15-38.96-1.41c-9.49,13.35-16.16,27.55-18.1,43.57c-1.18,9.72-1.2,19.6-1.4,29.42
			c-0.13,6.47-1.51,12.14-8.98,12.65c-7.38,0.5-10.55-5.03-10.91-11.23c-1.07-18.46-1.48-37.32,6.59-54.31
			c7.73-16.27,17.88-31.39,26.81-47.09c1.77-3.11,3.35-6.49,4.19-9.95c3.12-12.8,4.33-26.28,9.05-38.42
			c25.11-64.61,64.04-118.73,123.6-156.05c10.24-6.42,22.16-10.32,33.61-14.55c2.37-0.87,6.1,1.96,9.2,3.08
			c-1.66,2.61-2.7,6.52-5.06,7.63c-31.47,14.88-56.84,37.48-79.58,63.15c-21.26,24-39.6,50.09-52,79.96
			C212.8,271.95,207.08,285.43,200.59,300.85z M202.03,340.92c9.4-3.3,13.71-10.98,12.3-21.92
			C201.12,319.75,196.9,327.26,202.03,340.92z"/>
		<path d="M650.83,559.09c-14.48,0-27.39,0.78-40.12-0.37c-5.31-0.48-11.87-3.89-14.99-8.09c-5.43-7.32-0.54-18.18,8.46-18.79
			c22.26-1.52,44.61-2.48,66.91-2.21c11.73,0.14,16.38,6.64,15.13,18.37c-0.87,8.17-2.95,16.3-5.26,24.22
			c-7.12,24.41-14.38,48.79-22.11,73.02c-1.92,6.02-5.24,11.8-8.92,16.98c-3.93,5.53-9.93,7.1-16.39,4.18
			c-6.26-2.82-8.34-8.25-6.89-14.49c3.53-15.23,7.46-30.37,11.41-45.49C642,591.34,646.17,576.32,650.83,559.09z"/>
		<path d="M579.77,126.35c3.52-2.47,6.36-4.48,9.21-6.48c2.12,3.04,4.77,5.84,6.26,9.17c4.95,11.06,9.45,22.32,14.19,33.48
			c2.27,5.34,5.58,10.44,6.67,15.99c0.57,2.92-1.83,7.75-4.4,9.46c-1.57,1.05-6-2.16-9.13-3.49c-0.24-0.1-0.43-0.47-0.51-0.75
			c-4.81-17.17-18.56-21.88-33.9-24.85c-4.38-0.85-8.69-2.98-12.51-5.36c-1.55-0.97-2.77-4.51-2.2-6.26
			c0.52-1.63,3.6-3.38,5.58-3.41c4.82-0.07,9.66,0.82,16.9,1.58c-6.47-6.63-12.19-11.51-16.59-17.38
			c-2.31-3.09-4.45-9.28-2.92-11.66c3.49-5.44,8.6-2.02,12.59,1.1C573.07,120.64,576.97,124.03,579.77,126.35z"/>
		<path d="M673.31,360.31c-1.27-5.31-3.29-11.66-4.15-18.17c-0.4-3.08,1.43-6.45,2.25-9.69c3.27,1.57,7.72,2.31,9.53,4.9
			c3.07,4.39,4.46,9.94,6.86,15.73c1.46-1.04,2.69-2.58,4.13-2.82c3.07-0.5,7.21-1.57,9.11-0.09c1.97,1.53,3.11,6.22,2.29,8.78
			c-1.55,4.84-4.23,9.58-7.44,13.55c-4.63,5.74-5.56,11.77-4.84,18.83c0.67,6.65,1.01,13.58-0.2,20.08
			c-0.6,3.24-4.99,5.78-7.67,8.64c-2.44-2.97-7.3-6.32-6.91-8.86c2.23-14.36-4.68-25.1-12.17-35.86c-0.52-0.75-1.17-1.52-1.39-2.37
			c-1.15-4.49-2.17-9.02-3.24-13.53C663.82,359.71,668.17,359.98,673.31,360.31z"/>
		<path d="M625.26,258.74c-3.69-7.71-6.92-13.57-9.28-19.75c-1.13-2.96-0.61-6.55-0.83-9.85c3.6,0.56,7.96,0.06,10.62,1.95
			c3.8,2.72,6.36,7.18,8.6,9.88c3.93-1.52,7.42-2.86,10.91-4.21c1.47,4.02,4.72,8.36,4.08,12.02c-2.36,13.55-2.88,26.52,3.82,39.13
			c1.21,2.27,1.73,5.63,1.01,8.02c-0.76,2.52-3.09,5.86-5.27,6.31c-2.23,0.46-6.98-1.71-7.38-3.46
			c-3.47-15.37-18.13-20.45-27.12-30.65c-2.63-2.98-4.56-6.59-6.81-9.9c4.2-0.11,8.4-0.26,12.6-0.32
			C621.07,257.89,621.94,258.17,625.26,258.74z"/>
	</g>
</g>
</svg>
