<?xml version="1.0" encoding="utf-8"?>
<!-- Generator: Adobe Illustrator 23.1.0, SVG Export Plug-In . SVG Version: 6.00 Build 0)  -->
<svg version="1.1" xmlns="http://www.w3.org/2000/svg" xmlns:xlink="http://www.w3.org/1999/xlink" x="0px" y="0px"
	 viewBox="0 0 1280 649.36" style="enable-background:new 0 0 1280 649.36;" xml:space="preserve">
<style type="text/css">
	.st0{display:none;}
	.st1{display:inline;fill:#989898;}
	.st2{fill:none;}
	.st3{fill:none;stroke:#231815;stroke-width:2;stroke-miterlimit:10;}
	.st4{fill:#FFFFFF;}
	.st5{fill:#040000;}
	.st6{fill-rule:evenodd;clip-rule:evenodd;}
	.st7{fill:#F7F7F7;}
</style>
<g id="BG" class="st0">
	<rect x="-2729.46" y="-1821.84" class="st1" width="5423.46" height="2640.54"/>
</g>
<g id="圖層_2">
	<g>
		<path class="st6" d="M241.94,577.84c-9.45-6.75-19.6-14.33-27.02-24.78c3.73-5.28,7.49-10.37,10.98-15.65
			c2.05-3.1,3.81-6.43,5.46-9.78c4.34-8.86,7.51-18.11,8.3-28.02c0.46-5.84-0.9-11.45-3.51-16.61c-2.18-4.3-9.62-6.87-14.87-5.78
			c-11.21,2.34-19.72,12.55-21.98,23.59c-2.95,14.38-0.47,28.06,3.45,41.7c0.86,3.01,2.68,5.77,4.16,8.58
			c0.87,1.65,1.41,2.48-0.63,4.26c-4.66,4.07-8.56,8.99-12.91,13.43c-1.36,1.39-3.13,2.38-4.76,3.49c-3.3,2.24-6.4,4.99-10.01,6.49
			c-4.58,1.91-9.57,2.85-14.41,4.11c-5.13,1.33-10.25,2.69-15.44,3.75c-5.4,1.1-10.85,2.27-16.33,2.65
			c-4.67,0.33-9.41-0.37-14.11-0.72c-4.98-0.37-10.02-0.49-14.91-1.4c-11.12-2.08-22.19-4.71-32.23-10.06
			c-4.3-2.29-7.92-6.02-11.51-9.46c-3.64-3.48-7.18-7.17-10.2-11.2c-5.34-7.1-10.41-14.4-13.07-23.09c-0.72-2.34-2.7-4.29-3.48-6.62
			c-2.01-5.94-3.47-12.06-5.51-17.99c-3.36-9.72-3.18-19.91-3.64-29.89c-0.5-10.89,0.34-21.87,1.12-32.77
			c0.95-13.15,3.36-26.07,6.71-38.85c1.99-7.6,2.9-15.47,4.81-23.09c2.57-10.29,6.05-20.36,8.37-30.7
			c2.05-9.15,5.61-17.64,9.05-26.26c3.19-7.99,5.7-16.25,8.4-24.42c4.62-13.94,7.79-28.25,9.63-42.78
			c1.3-10.32,1.92-20.74,2.44-31.13c0.36-7.22,0.46-14.51-0.13-21.71c-0.79-9.53-1.46-19.13-6.74-27.72
			c-3.05-4.96-4.39-10.58-2.49-16.54c1.14-3.54,4.6-4.47,6.99-6.59c0.56-0.5,1.35-0.73,1.16-0.63c0.4-4.65,0.64-8.68,1.12-12.68
			c0.38-3.16,3.24-3.88,5.58-4.88c1.6-0.68,2.71-1.25,3.16-3.25c0.33-1.47,1.68-3.07,3.01-3.88c2.73-1.66,5.77-2.81,8.67-4.19
			c0.64-0.3,1.45-0.58,1.78-1.12c2.69-4.29,6.48-5.8,11.45-5.19c0.91,0.11,2.54-1.03,2.93-1.96c2.13-5.15,7.73-8.14,13.09-6.52
			c10.02,3.02,17.33,9.39,21.54,18.88c4.1,9.23,8.27,18.52,11.18,28.16c2.82,9.31,4.24,19.06,5.95,28.68
			c0.92,5.19,1.74,10.52,1.58,15.76c-0.34,10.97-0.9,21.98-2.22,32.87c-1.35,11.17-3.59,22.23-5.65,33.3
			c-1.46,7.81-3.35,15.54-4.89,23.33c-0.94,4.77-1.73,9.57-2.31,14.4c-0.67,5.54-1.53,11.11-1.42,16.66
			c0.2,9.43,0.89,18.86,1.76,28.26c0.62,6.71,4.17,12.09,9.43,16.19c2.59,2.02,5.53,3.03,9.06,3.54c6.92,0.99,13.69,0,20.52-0.05
			c1.93-0.02,4.03-1.26,5.75-2.39c3.43-2.26,7.41-3.63,9.86-7.49c3.19-5.01,7.13-9.55,10.57-14.41c1.24-1.75,2.18-3.81,2.8-5.86
			c0.26-0.85-0.38-2.34-1.1-3.06c-2.17-2.17-5.11-3.74-6.76-6.21c-3.11-4.68-6.58-9.53-8-14.82c-2.81-10.47-3.26-21.29,0.34-31.84
			c0.95-2.78,2.43-5.37,3.69-8.1c-3.46-1.32-6.92-2.86-10.52-3.95c-6.47-1.97-9.94-6.97-13.14-12.35c-1-1.68-1.95-3.4-3.02-5.03
			c-6.28-9.62-7.02-20.1-5.61-31.21c1.05-8.31,2.94-16.34,6.06-24.02c2.03-4.98,4.35-9.92,8.75-13.58c3.28-2.73,5.96-6.17,9.19-8.96
			c2.1-1.81,4.57-3.34,7.11-4.46c5.47-2.39,10.75-5.42,16.97-5.66c2.18-0.08,4.36-0.49,6.12-0.69c0.44-6.86,0.66-13.63,1.42-20.35
			c0.3-2.71,1.82-5.27,2.67-7.93c0.26-0.81,0.53-2.17,0.12-2.55c-2.54-2.4-5.1-4.87-8.01-6.77c-2.26-1.48-5-2.28-7.61-3.14
			c-2.08-0.68-4.75-0.9-4.51-3.73c0.28-3.17,3.41-3.4,5.69-3.64c6.82-0.72,12.65,1.58,17.36,6.63c0.53,0.56,1.17,1.02,1.64,1.43
			c1.59-1.41,3.12-2.77,5.45-4.83c-5.2-3.21-9.88-6.14-14.61-9c-0.94-0.57-2.06-0.82-3.04-1.34c-2.51-1.32-2.56-2.79-0.26-4.42
			c3.92-2.78,7.77-2.23,11.72-0.01c3.31,1.86,6.75,3.47,10.07,5.31c1.39,0.77,2.62,1.85,3.94,2.8c2.2-0.59,4.69-1.3,7.2-1.92
			c1.87-0.46,2.32-1.72,0.98-2.81c-4.91-3.97-7.77-10.16-14.06-12.69c-1.7-0.69-2.96-2.47-4.68-3.97
			c6.15-3.15,11.03-2.23,15.61,1.28c2.81,2.16,5.81,4.15,8.34,6.61c2.01,1.96,3.43,4.51,5.49,7.33c4.71-0.33,10.1-1.12,15.45-0.92
			c3.55,0.13,7.33,0.08,10.62,2.57c1.9,1.43,4.72,1.6,7.05,2.54c7.79,3.12,14.44,7.51,18.18,15.51c1.86,3.97,4.42,7.62,6.67,11.41
			c0.23,0.38,0.63,0.69,0.74,1.09c0.4,1.53,0.56,4.34,1.1,4.41c2.34,0.31,4.79-0.18,7.21-0.37c6.06-0.47,12.13-1.29,18.19-1.27
			c3.86,0.01,8.05,0.54,11.49,2.14c5.74,2.65,10.9,6.55,16.51,9.54c5.73,3.06,7.5,8.89,10.31,13.92c2.4,4.31,4.09,9.03,5.96,13.62
			c2.65,6.52,2.22,13.43,1.75,20.17c-0.63,8.95-2.33,17.84-7.29,25.56c-1.9,2.97-4.8,5.3-6.98,7.64c3.09,2.79,6.51,5.54,9.53,8.67
			c6.73,6.98,9.82,15.69,10.03,25.16c0.18,7.96-0.61,15.95-1.22,23.91c-0.15,2.01-1.16,3.99-1.95,5.91
			c-2.81,6.79-4.72,13.99-10.46,19.3c-6.3,5.83-13.1,10.94-20.59,15.03c-2.88,1.57-6.39,1.95-9.55,3.07
			c-1.84,0.65-3.55,1.67-5.53,2.64c3.6,6.37,8.45,11.17,15.1,13.98c3.09,1.3,6.22,2.61,9.46,3.41c3.04,0.75,6.4,1.56,9.35,1
			c2.94-0.56,5.68-2.62,8.31-4.34c10.24-6.71,18.55-15.51,26.2-24.94c9.97-12.28,19.24-25.06,26.94-38.95
			c3.42-6.17,7.7-11.87,10.99-18.1c5.14-9.72,10.84-19.18,14.04-29.85c1.64-5.45,3.55-10.83,5.66-16.12
			c1.48-3.74,4.03-6.42,8.6-6.31c4,0.1,8.14-0.64,12.04,2.73c1.1-2.6,1.99-5.16,3.23-7.53c4.1-7.83,8.03-12.1,17.27-9.61
			c0.7,0.19,1.71,0.01,2.31-0.39c3.37-2.26,8.73-2.27,12.36-0.19c0.84,0.48,2.54,0.43,3.31-0.11c2.93-2.06,5.53-0.62,8.28,0.23
			c0.91,0.28,2.14,0.46,2.91,0.08c4.39-2.2,12.43-0.02,14.33,4.45c1.9,4.47,3.02,9.15,2.23,14.22c-2.26,14.48-7.6,28.04-12.35,41.75
			c-4.52,13.03-9.07,26.06-14.18,38.86c-4.68,11.74-9.83,23.31-15.29,34.7c-7.2,15-14.87,29.78-22.42,44.61
			c-6.05,11.88-12.19,23.71-18.37,35.52c-4.37,8.35-8.72,16.72-13.34,24.93c-4.85,8.61-9.93,17.1-15.11,25.52
			c-3.29,5.34-6.71,10.63-10.5,15.62c-7.47,9.86-15.12,19.59-22.91,29.2c-5.45,6.73-11.12,13.28-16.93,19.7
			c-2.96,3.26-6.5,5.98-9.68,9.05c-1.23,1.19-2.15,2.68-3.23,4.02c-0.82,1.02-1.51,2.23-2.53,3c-4.95,3.72-10.04,7.25-14.99,10.98
			c-5.32,4.02-10.4,8.37-15.83,12.23c-7.21,5.12-15.08,9.1-23.55,11.72c-4.43,1.37-8.93,2.59-13.48,3.45
			c-5.42,1.02-10.93,1.61-16.41,2.32c-3.17,0.41-6.35,0.88-9.53,0.96c-2.52,0.06-5.05-0.54-7.58-0.69
			c-5.09-0.31-10.22-0.18-15.25-0.86c-3.97-0.54-7.84-1.93-11.71-3.1c-3.99-1.21-7.96-2.53-11.88-3.96
			c-2.57-0.93-5.12-2.01-7.53-3.3C243.16,580.87,242.9,579.59,241.94,577.84z M389.07,199.79c0-1.55,0.16-3.12-0.03-4.65
			c-0.77-6.44-3.18-12.32-6.47-17.86c-2.13-3.59-3.63-7.99-6.67-10.52c-7.11-5.91-14.63-11.18-24.42-12.67
			c-4.82-0.73-9.4-1.49-14.22-0.73c-1.73,0.27-3.51,0.33-5.27,0.36c-3.15,0.07-6.49-0.62-9.39,0.24c-3.12,0.93-4.47-0.28-4.81-2.62
			c-0.71-4.87-2.86-8.81-6.01-12.49c-1.77-2.06-2.48-5.08-4.37-6.95c-2.77-2.73-6-5.11-9.37-7.07c-3.34-1.95-6.96-3.8-10.69-4.6
			c-4.76-1.02-9.75-1.12-14.66-1.31c-6.75-0.25-12.9,1.91-18.53,5.53c-2.09,1.34-4.05,2.91-6.02,4.43
			c-3.27,2.53-6.38,5.26-7.65,9.39c-1.49,4.83-3.24,9.65-4.08,14.6c-0.83,4.94-1.05,10.06-0.82,15.07c0.21,4.63-1.27,6.57-5.91,6.54
			c-5.65-0.03-11.16,0.75-16.1,3.88c-1.29,0.82-2.85,1.19-4.2,1.92c-1.53,0.82-3.19,1.57-4.39,2.77c-2.72,2.72-5.14,5.73-7.75,8.56
			c-5.4,5.85-8.45,13.02-10.57,20.45c-1.59,5.58-2.11,11.5-2.83,17.3c-0.36,2.91-0.41,5.93-0.1,8.85c0.7,6.72,4.34,12.3,7.86,17.79
			c1.6,2.51,3.87,4.99,6.44,6.38c3.83,2.07,8.13,3.42,12.36,4.57c2.41,0.65,5.14,0.01,7.63,0.49c1.23,0.24,2.86,1.53,3.15,2.65
			c0.29,1.09-0.69,2.72-1.51,3.82c-0.81,1.11-2.59,1.66-3.11,2.83c-3.28,7.31-7.47,14.4-7.12,22.82
			c0.48,11.33,1.98,22.04,12.68,29.2c6.44,4.31,13.12,7.9,20.34,10.55c1.8,0.66,3.72,1.28,5.61,1.39c4.74,0.28,9.55,0.72,14.25,0.25
			c5.5-0.55,10.98-1.73,16.33-3.16c2.52-0.67,4.86-2.36,7.02-3.94c2.73-2,5.61-4.02,7.7-6.63c3.56-4.43,5.62-10.03,11.47-12.55
			c2.33-1,3.98-1.08,5.7,0.56c2.27,2.16,4.22,4.74,6.73,6.54c3.35,2.4,6.93,4.69,10.75,6.18c5.13,2,10.64,2.46,16.21,2.78
			c5.94,0.34,11.81,0.86,17.64-0.64c6.45-1.66,11.77-5.11,16.69-9.62c4.13-3.79,8.28-7.5,10.34-12.72
			c2.36-5.99,4.41-12.16,5.95-18.4c0.8-3.25,0.17-6.84,0.25-10.28c0.19-8.3-0.91-16.3-5.38-23.51c-3.48-5.61-7.78-10.55-13.96-13.16
			c-2.1-0.89-3.32-1.64-3.46-3.92c-0.14-2.32,0.95-3.44,3-4.54c2.69-1.43,6.05-3.07,7.27-5.54
			C387,219.49,389.2,209.85,389.07,199.79z M122.19,227.18c-0.62-3.23-1.2-6.9-2.08-10.5c-0.26-1.07-1.37-1.94-2.09-2.9
			c-0.51,1.06-1.04,2.12-1.5,3.2c-0.12,0.28-0.05,0.65-0.02,0.97c0.28,4.15,0.5,8.3,0.91,12.44c0.09,0.95,0.82,1.83,1.25,2.75
			c0.91-0.67,2.1-1.17,2.65-2.06C121.89,230.14,121.86,228.82,122.19,227.18z M127.64,203.86c1.57-2.04,3.32-3.31,3.19-4.34
			c-0.53-4.12-1.56-8.18-2.64-12.2c-0.18-0.68-1.56-1.04-2.38-1.56c-0.32,0.88-0.99,1.8-0.91,2.64c0.38,3.95,0.93,7.89,1.5,11.82
			C126.53,201.12,126.98,201.96,127.64,203.86z M519.91,283.34c-3.45,0.69-8.04,10.86-7.06,15.14c3.1-0.28,5.1-1.66,5.48-4.02
			C518.91,290.85,519.36,287.22,519.91,283.34z M500.16,273.83c-1.02,1.01-1.7,1.44-2.04,2.05c-1.53,2.74-3.06,5.49-4.37,8.33
			c-0.37,0.8-0.01,1.93,0.01,2.9c0.99-0.16,2.42,0.04,2.9-0.55C499.42,283.2,501.36,279.47,500.16,273.83z M105.29,208.66
			c-0.71-2.55,1.86-5.55-2.52-6.19c2.63-1.74,1.84-5.81-1.09-7.39C99.71,200.33,101.05,206.19,105.29,208.66z M517.6,265.68
			c0.51-1.92,1.18-3.57,1.31-5.26c0.1-1.43-0.43-2.9-0.68-4.36c-0.79,0.96-1.63,1.89-2.36,2.9c-0.64,0.88-1.33,1.79-1.7,2.79
			c-0.49,1.35-0.7,2.79-1.14,4.64C515.11,266.07,516.45,265.86,517.6,265.68z"/>
		<path class="st6" d="M1060.99,573.6c4.6-4.74,9.53-9.33,13.87-14.42c5.17-6.05,11.84-10.2,18.05-14.84
			c4.78-3.58,10.48-5.98,15.94-8.55c6.74-3.17,13.55-6.23,20.51-8.88c7.31-2.79,14.74-5.33,22.68-5.84c2.58-0.17,5.13-1.09,7.7-1.14
			c4.45-0.08,6.79,3.21,4.96,7.36c-2.93,6.64-6.28,13.09-9.58,19.55c-1.65,3.23-3.34,6.5-5.48,9.41c-3.02,4.11-6.23,8.15-9.83,11.74
			c-3.88,3.85-8.11,7.43-12.56,10.6c-4.25,3.04-8.92,5.53-13.52,8.03c-4.58,2.5-9.15,5.25-14.06,6.82c-2.4,0.77-3.87,3.22-5.96,3.18
			c-4.19-0.1-6.38,3.71-10.35,4.28c-3.57,0.51-6.86,2.99-10.27,4.61c-2.69,1.28-5.31,3.42-8.09,3.66
			c-4.32,0.36-7.62,2.98-11.61,3.88c-2.73,0.62-5.37,1.68-8.11,2.21c-2.4,0.46-4.9,0.41-7.34,0.66c-1.01,0.1-1.99,0.48-3,0.58
			c-5.07,0.51-8.17-2.97-10.71-6.3c-2.39-3.13-4-7.05-5.21-10.86c-2.91-9.19-5.82-18.43-7.9-27.84c-1.91-8.62-3.3-17.45-3.89-26.25
			c-0.52-7.94-0.05-16.02,0.77-23.95c0.51-4.99,2.27-9.89,3.84-14.72c0.89-2.75,2.32-5.38,3.89-7.83c1.01-1.58,2.56-2.9,4.1-4.03
			c3.19-2.35,4.05-1.82,6.01,1.66c2.71,4.81,5.89,9.36,8.77,14.08c1.19,1.95,2.28,3.98,3.17,6.08c3.58,8.45,7.6,16.78,10.44,25.49
			c2.48,7.59,3.59,15.62,5.32,23.5c0.03-0.02,0.71-0.16,0.89-0.54c2.89-5.89,5.96-11.71,8.5-17.76c3.32-7.88,6.3-15.92,9.23-23.95
			c2.25-6.16,4.16-12.44,6.29-18.65c3.11-9.04,6.42-18.02,9.39-27.1c2.2-6.77,4.03-13.67,5.96-20.52c1.04-3.69,1.98-7.41,2.91-11.14
			c0.2-0.81,0.2-1.67,0.37-3.23c-3.72,2.24-6.85,4.11-9.96,6.01c-0.27,0.16-0.39,0.62-0.66,0.71c-5.23,1.76-10.52,3.34-15.68,5.28
			c-2.25,0.85-4.21,2.46-6.33,3.67c-2.1,1.2-4.12,2.66-6.38,3.41c-2.74,0.92-5.71,1.1-8.53,1.82c-2.31,0.59-4.54,1.51-6.83,2.23
			c-0.89,0.28-1.84,0.37-2.76,0.6c-4.13,1.02-8.21,2.34-12.4,3c-4.64,0.74-9.38,0.83-14.07,1.32c-3.31,0.34-6.64,0.69-9.87,1.41
			c-1.24,0.28-2.68,1.37-3.27,2.5c-5.14,9.71-9.73,19.72-15.23,29.21c-4.91,8.47-10.52,16.58-16.29,24.5
			c-5.03,6.9-10.35,13.68-16.23,19.86c-5.92,6.22-12.7,11.62-19.07,17.4c-2.03,1.84-3.78,4.06-6,5.6c-4.17,2.89-8.45,5.69-12.96,8
			c-5.35,2.75-11.47,4.26-16.34,7.64c-3.27,2.27-6.49,2.72-9.87,3.1c-6.51,0.75-13.07,1.4-19.61,1.34
			c-4.91-0.04-9.81-1.25-14.71-1.94c-0.32-0.04-0.67-0.19-0.97-0.13c-7.5,1.55-14.41-0.61-21.3-3.24c-1.92-0.73-4.27-0.33-6.2-1.05
			c-8.44-3.12-16.92-6.29-24.12-11.86c-3.63-2.81-7.15-5.88-10.17-9.33c-3.76-4.3-7.08-9.01-10.36-13.7
			c-4.15-5.93-7.66-12.24-9.18-19.4c-3.22-15.18-3.63-30.44-1.02-45.79c2.15-12.69,3.82-25.47,6.2-38.12
			c1.75-9.29,4.3-18.43,6.5-27.64c1.12-4.67,2.14-9.38,3.43-14c1.32-4.71,2.97-9.33,4.42-14.01c1.45-4.66,2.72-9.37,4.29-13.99
			c2.83-8.28,5.67-16.56,8.8-24.74c2.3-6.02,5.13-11.84,7.59-17.8c1.9-4.61,3.28-9.46,5.49-13.91c3.32-6.69,7.24-13.07,10.75-19.67
			c2.62-4.93,4.83-10.07,7.51-14.97c2.29-4.19,4.98-8.17,7.49-12.25c1.78-2.9,3.49-5.85,5.37-8.68c3.48-5.22,6.73-10.64,10.72-15.44
			c2.63-3.17,6.42-5.37,9.63-8.08c3.4-2.87,6.61-5.99,10.12-8.72c4.57-3.56,9.14-7.21,14.12-10.12c3.63-2.11,7.95-3.04,11.94-4.56
			c3.71-1.41,7.32-3.07,11.08-4.3c4.33-1.42,8.79-2.41,13.14-3.76c1.65-0.51,3.08-1.96,4.72-2.18c6.68-0.9,13.2-2.84,20.12-2.39
			c4.27,0.28,8.69-1.36,12.94-0.96c8.26,0.78,16.66,0.87,24.54,4.46c6.6,3,13.91,4.54,20.31,7.88c5.67,2.96,10.66,7.31,15.67,11.39
			c4.6,3.73,9.06,7.7,13.17,11.96c5.48,5.69,9.04,12.43,10.3,20.43c0.69,4.39,2.98,8.56,3.51,12.95c0.88,7.23,2.15,14.42,0.97,21.9
			c-1.28,8.04-0.97,16.33-2.15,24.4c-1.3,8.93-3.35,17.75-5.35,26.56c-1.48,6.53-3.4,12.96-5.38,20.37
			c2.79-0.65,4.66-0.99,6.46-1.52c6.11-1.79,12.2-3.6,18.28-5.5c4.19-1.3,8.53-2.33,12.44-4.24c5.78-2.83,11.92-4.83,17.19-8.94
			c5.65-4.42,10.27-9.8,15.51-14.47c3.87-3.45,9.17-7.71,16.39-4.41c2.59-12.1,5.08-23.73,7.66-35.76
			c-6.92,0.08-12.54,3.92-19.1,3.24c-2.68,0.71-5.74,1.51-8.79,2.33c-3.28,0.87-6.54,1.82-9.84,2.6c-5.57,1.3-11.16,2.5-16.75,3.72
			c-1.37,0.3-2.75,0.6-4.15,0.71c-0.94,0.08-1.91-0.16-2.99-0.27c-1.12,0.34-3.21,1.49-3.64,1.04c-1.31-1.38-1.99-3.36-3.03-5.33
			c5.88-2.02,10.81-3.98,15.89-5.4c4.89-1.36,9.98-2,14.91-3.27c7.07-1.82,14.05-3.96,21.09-5.86c1.75-0.47,3.63-0.44,5.4-0.82
			c3.24-0.71,6.52-1.37,9.64-2.45c0.92-0.32,1.82-1.92,1.96-3.04c1.42-11.27,2.68-22.57,3.98-33.86c0.26-2.28-0.47-2.89-3.01-2.85
			c-8.95,0.14-18.05,0.72-26.52-3.08c-16.11-7.23-26.88-18.5-28.64-37.06c-0.94-9.91-0.9-19.67,1.55-29.28
			c1.09-4.26,3.2-8.26,4.85-12.37c0.9-2.23,2.4-4.41,2.6-6.71c0.45-5.13,4.06-8.29,6.53-12.21c2.79-4.43,4.63-9.41,9.12-12.75
			c4.42-3.29,8.02-7.76,12.63-10.7c4.36-2.78,9.56-4.22,14.37-6.29c5.15-2.21,10.62-3.37,16.12-3.15c6.01,0.24,12.6,0.11,17.82,2.54
			c7.97,3.73,16.42,7.61,21.18,16.04c2.08,3.68,5.51,6.79,6.86,10.66c2.85,8.21,4.8,16.73,4.45,25.41
			c-5.3,1.11-10.29,2.31-15.34,3.16c-5.07,0.86-10.25,1.14-15.3,2.08c-8.66,1.61-17.24,3.68-25.89,5.31
			c-10.21,1.92-20.53,3.3-30.7,5.43c-7.59,1.59-15.02,3.95-22.51,6.04c-0.99,0.28-1.88,0.95-2.95,1.51c2.01,3.13,4.6,1.31,6.47,0.96
			c7.54-1.43,14.95-3.49,22.46-5.06c7.4-1.54,14.86-2.82,22.32-4.12c6.33-1.1,12.71-1.92,19.02-3.11
			c5.64-1.07,11.18-2.68,16.82-3.68c7-1.24,14.06-2.09,21.09-3.15c1.39-0.21,2.76-0.61,4.63-1.04c0,3.98,0.27,7.79-0.07,11.55
			c-0.42,4.65-0.61,9.53-2.22,13.82c-2.55,6.79-5.77,13.43-9.52,19.64c-2.33,3.86-5.9,7.11-9.38,10.08
			c-3.87,3.29-8.28,5.94-12.45,8.88c-1.78,1.25-3.41,2.8-5.34,3.74c-2.64,1.28-5.6,1.91-8.23,3.2c-1.06,0.52-2.07,1.96-2.35,3.15
			c-1.07,4.67-1.9,9.39-2.68,14.12c-0.21,1.26,0.21,2.6,0.11,3.89c-0.41,5.35-0.91,10.69-1.35,16.03c-0.08,0.98-0.01,1.98-0.01,3.93
			c1.75-0.48,3.14-0.95,4.57-1.23c3.52-0.69,7.07-1.27,10.59-1.94c5.59-1.06,11.15-2.27,16.76-3.18c2.73-0.44,5.58-0.15,8.31-0.56
			c2.77-0.42,5.46-1.38,8.21-1.94c5.59-1.15,11.17-2.33,16.79-3.26c5.04-0.83,10.12-1.49,15.2-1.93c2.87-0.25,4.99,1.77,5.52,4.21
			c0.23,1.07-2.07,2.79-3.39,4.06c-1.21,1.17-2.63,2.11-3.72,2.97c-4.96,0.74-9.88,1.5-14.81,2.22c-4.96,0.72-9.95,1.28-14.89,2.13
			c-5.27,0.9-10.47,2.18-15.74,3.06c-3.86,0.65-7.8,0.83-11.68,1.39c-3.59,0.52-7.17,1.22-10.73,1.93
			c-1.92,0.39-3.78,1.17-5.71,1.41c-1.95,0.25-3.96,0.05-6.24,0.05c-0.74,4.14-1.3,8.24-2.22,12.26c-2.13,9.3-4.1,18.65-6.78,27.79
			c-2.29,7.77-5.29,15.36-8.35,22.88c-1.8,4.43-1.79,5.32,1.85,8.5c4.98,4.34,7.95,9.76,8.6,16.47c0.3,3.15,1.16,6.25,1.78,9.36
			c1.41,7.01-1.6,13.09-3.98,19.31c-2.53,6.63-7.42,11.56-12.32,16.29c-4.46,4.31-9.76,7.73-14.44,11.83
			c-1.26,1.1-1.9,3.17-2.34,4.91c-1.34,5.32-2.27,10.74-3.7,16.03c-1.5,5.54-3.38,10.98-5.1,16.46c-2.4,7.67-4.78,15.34-7.22,22.99
			c-2.28,7.15-4.54,14.31-6.95,21.43c-1.94,5.74-3.97,11.45-6.17,17.09c-2.7,6.9-5.44,13.8-8.51,20.54
			c-2.58,5.67-5.68,11.09-8.5,16.65C1061.8,571.28,1061.39,572.6,1060.99,573.6z M782.72,532.51c13.47-9.5,29.73-5.47,33.89,6.61
			c2.1-0.12,4.18-0.39,6.25-0.32c5.96,0.19,10.49,2.65,13.11,8.29c0.34,0.73,1.9,1.46,2.72,1.3c7.4-1.44,9.75,1.7,12.73,5.33
			c5.78-1.42,11.24,0.13,15.4,3.7c7.53,6.46,9.75,15.34,8.7,25.04c3.81-0.41,7.44-0.35,10.79-1.27c4.28-1.17,8.36-3.1,12.51-4.75
			c1.16-0.46,2.25-1.09,3.38-1.64c2.34-1.05,4.5-2.48,6.8-3.64c5.86-2.97,11.28-6.5,16.06-11.07c2.83-2.7,6.17-4.86,9.12-7.46
			c0.55-0.48,0.67-2,0.38-2.8c-2.72-7.3-5.08-14.8-8.51-21.78c-7.14-14.56-17.14-27.05-29.2-37.93
			c-8.19-7.39-17.28-13.22-27.34-17.77c-7.92-3.59-15.7-7.34-24.36-8.91c-6.43-1.17-12.73-3.19-19.2-3.98
			c-5.38-0.66-10.92-0.07-16.39-0.03c-2.5,0.01-5.04-0.25-7.5,0.08c-5.1,0.7-10.27,0.93-15.18,2.97c-2.1,0.87-3.33,1.79-3.64,3.98
			c-0.75,5.24-1.25,10.53-2.36,15.7c-1.84,8.54-1.87,17.14-1.52,25.76c0.21,5.3,0.9,10.59,1.57,15.85
			C781.31,526.61,782.08,529.39,782.72,532.51z M1099.58,378.07c0.05,0.51,0.1,1.01,0.15,1.52c3.76,0.48,7.53,0.96,11.31,1.44
			c-0.15,1.54-0.24,2.5-0.38,3.94c-2.65,0.54-5.39,0.9-7.98,1.72c-1.1,0.35-1.88,1.69-2.81,2.58c0.14,0.39,0.28,0.78,0.42,1.17
			c3.02,0.37,6.04,0.81,9.07,1.09c2.45,0.22,3.18,1.5,1.43,3.09c-1.57,1.44-3.78,2.2-5.76,3.15c-0.77,0.37-1.69,0.44-2.55,0.64
			c0.74,0.84,1.38,2.28,2.25,2.43c2.88,0.5,5.85,0.43,8.75,0.81c2.3,0.3,5.11-1.19,7.04,1.83c-1.83,2.09-3.29,4.55-6.53,4.46
			c-3.7-0.1-7.45,0.01-11.09-0.54c-3.6-0.55-5.8-4.11-5.76-7.82c0.02-1.3-0.16-2.94-0.93-3.83c-3.31-3.8-3.55-6.23-0.47-10.54
			c-3.56-3.42-2.97-7.16-0.72-10.56c-0.97-1.82-2.14-3.23-2.49-4.83c-0.88-3.98,0.5-6.45,4.26-8.98c4.83-3.25,9.44-5.64,15.31-5.52
			c1.09,0.02,2.61-0.87,3.25-1.81c2.28-3.31,3.99-7.04,6.47-10.19c1.88-2.38,2.27-4.62,1.5-8.22c-2.73,1.89-5.27,3.23-7.3,5.12
			c-6.44,5.99-12.26,12.65-20.58,16.33c-7.29,3.22-13.52,8.58-22.15,9.11c-4.53,0.28-8.92,2.8-13.36,4.36
			c-4.89,1.72-9.7,3.51-15.1,3.03c-1.52-0.13-4.18,0.92-4.61,2.07c-3.77,10.08-7.04,20.34-10.67,30.47
			c-3.81,10.63-7.6,21.28-11.87,31.72c-3.28,8.01-7.32,15.71-11.19,23.92c1.69,0,2.88,0.14,4.03-0.03
			c3.97-0.58,7.92-1.27,11.88-1.92c1.75-0.29,3.51-0.54,5.25-0.88c1.84-0.35,3.66-0.88,5.51-1.15c4.63-0.66,9.35-0.82,13.87-1.89
			c5.42-1.28,10.76-3.05,15.97-5.06c6.2-2.38,12.37-4.93,18.27-7.95c6.69-3.42,13.13-7.35,19.56-11.26c2.98-1.81,5.74-4,8.49-6.16
			c4.58-3.58,9.56-6.82,13.48-11.04c3.2-3.44,5.47-7.91,7.46-12.24c1.71-3.71,3.91-7.51,2.83-12c-0.53-2.21-0.98-4.47-1.23-6.73
			c-0.81-7.22-4.03-13.25-9.1-18.27c-1.76-1.74-3.21-4.34-6.55-3.57c-2.37,0.55-4.83,0.9-7.25,0.97c-2.74,0.08-7.29,2.78-8.83,6.17
			c1.8,0.42,3.46,0.92,5.15,1.16c1.42,0.2,2.94-0.14,4.3,0.22c1.02,0.27,2.35,1.14,2.59,2c0.19,0.69-0.84,2.25-1.68,2.61
			c-2.28,0.96-4.75,1.42-7.12,2.19C1102.08,376.85,1100.85,377.52,1099.58,378.07z M992.88,219.15c-6.21-3.39-11.98-4.42-17.9-5
			c-3.85-0.38-7.69-1.44-11.53-1.4c-5.59,0.06-11.18,1.28-16.76,1.19c-6.5-0.1-12.41,2.16-18.3,4.02
			c-9.38,2.96-18.42,6.97-27.68,10.57c0.16,0.41,0.3,0.68,0.36,0.97c0.85,4.15,3.94,7.45,7.31,7.79c2.99,0.31,7.19-2.44,8.41-5.96
			c0.88-2.54,2.43-3.43,4.96-3.76c3.2-0.42,4.43,0.46,3.78,3.58c-0.5,2.37,0.39,3.81,2.45,4.8c4.15,1.99,7.91,0.22,9.36-4.96
			c1.17-4.16,4.76-4.53,7.73-4.96c1.16-0.17,2.83,2.96,4.21,4.64c0.33,0.4,0.34,1.04,0.62,1.5c1.35,2.2,3.04,2.95,5.12,0.93
			c0.93-0.91,1.96-1.88,2.5-3.03c1.44-3.03,4.54-3.27,6.93-3.35c2.26-0.07,2.69,2.63,2.87,4.91c0.11,1.38,1.09,3.82,1.75,3.84
			c3.16,0.1,7.3,0.69,9.33-1.01C983.56,230.14,987.79,224.69,992.88,219.15z M825.85,565.32c-2.3-1.78-1.43-4.23-0.55-6.87
			c0.79-2.37,1.93-5.05,1.45-7.28c-0.45-2.14-2.5-4.32-4.43-5.57c-0.86-0.56-3.25,1-4.8,1.87c-0.8,0.45-1.5,1.4-1.84,2.27
			c-1.25,3.13-3.16,5.19-6.81,4.93c-1.2-0.08-3.08,0.21-3.45-0.39c-0.75-1.25-1.9-2.34-1.06-4.59c3.4-9.07-2.38-13.43-10.34-13.21
			c-2.19,0.06-4.36,1.81-6.46,2.93c-0.31,0.17-0.47,1.33-0.22,1.72c2.52,3.97,4.74,8.24,7.83,11.72
			c5.59,6.3,11.93,11.87,18.88,16.68c0.99,0.68,2.06,1.35,3.2,1.7c7.9,2.44,15.77,5,23.76,7.13c6.22,1.65,12.59,2.81,18.93,3.97
			c0.87,0.16,2.74-0.87,2.87-1.57c0.97-5.49,1.38-10.99-2.21-15.88c-3.79-5.17-5.99-5.27-8.72,0.48c-1.62,3.43-3.2,4.62-6.93,3.81
			c-2.79-0.61-3.89-1.4-3.31-4.2c0.23-1.07,0.9-2.09,0.97-3.15c0.16-2.47,1.02-5.37-2.8-6.35
			C836.28,560.02,832.6,564.38,825.85,565.32z M1161.46,118.47c-5.75-0.73-11.26-2.75-16.15-1.75c-7.47,1.53-15.05,4-21.3,8.83
			c-4.57,3.54-9.6,6.77-12.12,12.36c3.02,2.98,6.85,2.12,7.83-1.95c0.88-3.65,2.56-5.79,6.58-6.15c2.91-0.26,4.74,1.06,4.03,3.97
			c-0.68,2.79,1.35,3.88,3.06,4.7c0.59,0.29,2.39-1.37,3.26-2.44c0.62-0.76,0.77-2.02,0.85-3.08c0.29-3.89,3.42-3.09,5.68-3.34
			c2.53-0.28,3.9,1.04,4.12,3.79c0.08,0.97,1.3,2.55,2.09,2.61c1.27,0.1,3.22-0.45,3.84-1.4c2.57-3.93,4.8-8.1,7.06-12.24
			C1160.79,121.51,1160.91,120.4,1161.46,118.47z M1162.91,223.53c-2.72-4.41-6.97-5.74-11.5-6.4c-0.83-0.12-2.41,0.61-2.63,1.27
			c-1.17,3.59-3.11,5.56-7.02,6.77c-2.68,0.83-3.3,0.17-4.29-1.54c-1.15-2-2.14-4.11-3.43-6c-1.57-2.3-3.34-2.05-5.21-0.1
			c-2.36,2.46-3.84,5.59-7.24,7.28c-2.79,1.39-3.89,1.74-5.59-1.1c-0.68-1.12-1.12-2.63-2.12-3.26c-1.15-0.72-3.05-1.25-4.14-0.77
			c-1.2,0.53-2.32,2.2-2.59,3.55c-0.16,0.77,1.28,2.16,2.3,2.8c1.65,1.04,3.48,1.96,5.35,2.48c5.4,1.5,10.81,3.32,16.33,3.94
			c3.96,0.44,8.1-1.19,12.17-1.3C1150.84,230.97,1156.91,227.48,1162.91,223.53z"/>
		<path class="st6" d="M619.3,591.14c-7.74,0-14.43,0.04-21.11-0.04c-1.04-0.01-2.04-0.74-3.09-0.85
			c-6.18-0.65-12.37-1.15-18.54-1.84c-1.37-0.15-2.66-0.98-4.02-1.34c-3.29-0.86-6.69-1.37-9.88-2.47
			c-8.31-2.87-16.67-6.07-23.39-11.78c-7.26-6.17-14.76-12.22-19.54-20.94c-3.88-7.08-8.6-13.76-10.22-21.8
			c-3.04-15.08-3.47-30.24-0.82-45.48c2.13-12.24,3.71-24.59,6.04-36.79c1.85-9.72,4.44-19.29,6.75-28.92
			c1.81-7.53,3.42-15.13,5.61-22.55c2.2-7.46,5-14.74,7.53-22.1c1.42-4.14,2.73-8.32,4.28-12.41c1.82-4.81,3.89-9.51,5.75-14.31
			c2.57-6.61,4.89-13.32,7.62-19.87c1.49-3.58,3.67-6.87,5.44-10.34c1.46-2.86,2.64-5.87,4.16-8.7c3.31-6.17,6.72-12.28,10.16-18.38
			c4.39-7.79,8.74-15.6,13.31-23.28c2.98-5,6.17-9.9,9.58-14.62c3.14-4.33,7.04-7.89,11.63-10.83c3.62-2.32,6.58-5.63,10.01-8.28
			c4.76-3.68,9.45-7.52,14.6-10.57c3.61-2.14,7.94-3.05,11.95-4.53c6.29-2.33,12.54-4.8,18.88-7c6.97-2.42,14.03-4.54,21.47-5.12
			c6.02-0.47,12.01-1.35,18.04-1.68c2.52-0.13,5.09,0.82,7.66,1.08c3.47,0.36,6.98,0.35,10.44,0.83c2.67,0.37,5.35,1.02,7.88,1.94
			c7.35,2.66,14.82,5.11,21.87,8.44c4.82,2.28,9.25,5.6,13.41,8.99c5.51,4.5,10.84,9.29,15.8,14.38
			c5.59,5.73,9.25,12.57,10.48,20.69c0.61,4.07,2.6,7.93,3.24,12c1.2,7.65,2.45,15.25,1.18,23.16c-1.25,7.82-1,15.87-2.07,23.74
			c-1.14,8.4-2.62,16.8-4.72,25c-3.42,13.41-7.27,26.72-11.33,39.95c-2.42,7.88-6.08,15.39-8.34,23.3
			c-4.3,15.03-11.07,29.01-17.58,43.1c-6.4,13.85-13.03,27.63-20.19,41.11c-5.79,10.88-12.15,21.5-18.97,31.76
			c-4.8,7.2-10.71,13.69-16.33,20.32c-3.42,4.04-7.05,7.94-10.9,11.57c-6.38,6-12.82,11.95-19.61,17.47
			c-3.15,2.56-7.07,4.24-10.79,6.01c-5.44,2.59-11.62,4.07-16.36,7.56C630.56,590.9,623.98,588.82,619.3,591.14z M571.16,544.58
			c6.21-0.64,11.35,0.72,14.67,6.32c0.29,0.49,0.98,1.03,1.5,1.04c2.31,0.05,4.7-0.47,6.92-0.06c2.5,0.46,5.25,1.19,7.2,2.71
			c4.32,3.34,6.26,8.34,6.7,13.6c0.4,4.69-0.11,9.46-0.22,14.07c2.26,0,4.98,0.24,7.64-0.05c4.58-0.51,9.12-1.35,13.69-2.03
			c4.32-0.64,6.98-4.58,11.6-5.26c3.44-0.5,6.57-3.56,9.7-5.68c3.95-2.68,7.82-5.48,11.61-8.38c3.29-2.51,6.49-5.15,9.57-7.9
			c0.73-0.65,1.42-2.17,1.16-2.96c-1.46-4.32-3.12-8.56-4.89-12.76c-1.63-3.87-2.94-8.02-5.33-11.38
			c-5.35-7.51-10.94-14.93-17.07-21.81c-9.82-11.03-20.55-21.1-34.29-27.31c-2.1-0.95-4.05-2.24-6.15-3.18
			c-5.3-2.38-10.5-5.16-16.03-6.82c-5.87-1.77-12.03-2.64-18.13-3.51c-6.76-0.97-13.61-2.26-20.37-2.03
			c-9.21,0.32-18.44,1.55-27.21,4.96c-2.12,0.83-2.75,2.24-3,4.18c-0.52,4.05-0.78,8.15-1.66,12.11c-1.9,8.54-1.79,17.16-1.46,25.78
			c0.2,5.29,0.92,10.58,1.65,15.84c0.42,3.05,1.32,6.03,2.07,9.34c4.93-3.77,9.04-7.39,14.71-7.4c6.19-0.02,11.12,2.68,14.69,7.86
			c0.48,0.69,1.95,1.35,2.66,1.11C561.75,532.1,570.41,536.79,571.16,544.58z M595.19,582.16c1.48-6.7,3.21-13.38-0.29-19.9
			c-0.89-1.65-2.71-3.42-4.41-3.79c-1.02-0.23-3.3,1.91-3.8,3.4c-1.23,3.63-3.37,4.52-6.92,4.1c-3.2-0.38-3.94-1.03-3.24-4.35
			c0.11-0.54,0.28-1.07,0.44-1.61c1.43-4.89,0.85-6.29-3.69-8.87c-1.21,1.07-2.81,1.93-3.6,3.28c-1.94,3.28-3.63,6.1-8.42,5.21
			c-2.48-0.46-3.9-0.91-3.28-3.48c0.51-2.11,1.43-4.15,2.32-6.14c1.58-3.52,1.26-5.73-1.32-7.67c-2.74-2.07-4.87-0.18-6.67,1.42
			c-1.68,1.49-2.85,3.57-4.26,5.38c-0.62,0.79-6.6,1.64-6.92,0.83c-0.57-1.48-0.74-3.21-0.67-4.82c0.05-1.16,0.73-2.31,1.22-3.42
			c1.3-2.99,0.18-5.4-2.04-7.23c-2.47-2.03-5.13-1.66-7.72,0.65c-1.65,1.47-3.41,2.85-4.82,4.52c-0.61,0.72-0.91,2.24-0.59,3.11
			c0.68,1.81,1.72,3.54,2.87,5.12c5.49,7.6,12.22,13.87,19.81,19.41c3.24,2.36,6.46,4.32,10.23,5.52c4.5,1.43,8.9,3.25,13.46,4.41
			C580.06,579.02,587.36,580.44,595.19,582.16z M732.68,219.07c-5.09-1.52-9.99-3.24-15.02-4.38c-3-0.68-7,0.65-9.13-0.88
			c-2.62-1.89-5.02-0.76-7.16-0.88c-5.65-0.33-11.39,1.1-17.08,1.04c-6.5-0.06-12.33,2.35-18.26,4.15
			c-7.72,2.34-15.13,5.67-23.46,8.88c0.49,2.1,0.32,4.78,1.58,6.16c4.43,4.84,13.31,2.84,15.85-3.15c0.46-1.09,1.57-2.55,2.54-2.68
			c4.07-0.56,5.76,0.74,7.33,4.83c0.32,0.82,0.67,1.66,1.16,2.38c1.46,2.13,3.76,2.28,5.25,0.26c0.9-1.23,2.02-2.7,2.07-4.09
			c0.13-3.81,3.02-3.95,5.48-4.56c2.68-0.66,2.44,2,3.28,3.34c2.6,4.16,4.71,5.82,7.74,4.49c2.08-0.91,4.36-3.12,4.98-5.22
			c1.12-3.75,3.99-3.53,6.45-3.6c0.99-0.03,2.36,2.14,3.02,3.56c1.55,3.29,3.29,6.26,6.95,7.34
			C722.91,231.89,729.21,227.44,732.68,219.07z"/>
		<path class="st6" d="M927.36,122.1c-1.38,1.6-2.34,3.07-3.64,4.14c-2.68,2.22-5.48,4.31-8.36,6.25c-0.92,0.62-2.31,0.48-3.42,0.86
			c-2.96,1-5.8,2.56-8.83,3.06c-6.13,1.02-12.11-0.24-17.52-3.17c-2.41-1.31-4.26-3.66-6.53-5.69c-1.64,1.54-4.01,2.8-4.79,4.71
			c-2.03,4.96-6.65,7.21-10.04,10.73c-2.43,2.53-4.9,5.14-7.77,7.1c-2.99,2.04-6.47,3.37-9.75,4.97c-1.18,0.57-2.43,0.99-3.61,1.56
			c-5.34,2.59-10.75,5.35-16.65,5.94c-3.94,0.39-7.92,2.32-12.1,0.39c-1.25-0.57-3.41-0.22-4.69,0.52
			c-4.9,2.83-9.92,1.16-14.86,0.66c-1.7-0.17-4.45-0.87-3.66-3.37c0.42-1.33,2.73-2.77,4.3-2.9c10-0.82,19.92-2.11,29.67-4.45
			c5.38-1.29,10.57-3.42,15.98-4.54c6.3-1.3,10.55-5.43,14.84-9.55c4.63-4.45,9.16-9.02,13.46-13.78c2.12-2.34,3.37-5.47,5.49-7.79
			c2.66-2.91,3.8-7.13,7.69-8.94c0.98-0.45,2.44-1.25,3.03-0.87c1.03,0.66,2,2.04,2.18,3.24c0.31,2.05,0,4.2-0.06,6.31
			c-0.15,5.39,3.08,9.19,8.53,9.38c7.07,0.25,14.54,0.24,19.73-5.2c3.97-4.15,8.85-7.82,10.8-13.73c1.16-3.5,3.45-6.24,7.26-7.03
			c0.98-0.2,2.72,0.28,3.14,1.01c0.63,1.1,0.77,2.76,0.49,4.05c-0.62,2.81-2.02,5.49-2.39,8.32c-0.38,2.92,1.33,5.3,4.29,5.85
			c2.15,0.41,4.57,0.32,6.68-0.25c3.84-1.04,7.84-2.24,10.12-5.89c2.14-3.43,3.95-7.07,5.85-10.64c1.4-2.62,3.99-3.26,6.49-3.47
			c0.63-0.05,2.11,2.35,2.07,3.58c-0.08,2.25-1.12,4.45-1.58,6.71c-0.75,3.65,0.93,6.68,4.51,7.07c2.98,0.32,6.1,0.98,8.8-2.1
			c2.11-2.41,5.55-3.59,8.18-5.61c1.58-1.22,2.55-3.2,4.1-4.47c2.22-1.82,4.51-3.89,7.13-4.81c5.62-1.96,11.47-3.23,17.22-4.83
			c3.31-0.92,6.58-2.6,9.92-2.75c8.01-0.37,15.27-3.34,22.7-5.69c5.99-1.9,11.82-4.35,17.67-6.66c0.8-0.31,1.72-1.14,1.96-1.91
			c2.07-6.88,3.88-13.83,6.01-20.68c1.03-3.3,3.1-6.16,6.17-7.84c2.38-1.3,6.09,1.53,8.47,5.86c2.15,3.91,4.45,7.73,7.01,12.14
			c2.16-7.04,3.81-13.45,6.17-19.59c1.05-2.75,3.27-5.22,5.45-7.29c0.98-0.92,3.21-1.71,4.58,0.74c3.36,6.04,6.9,11.98,10.42,17.92
			c1.56,2.64,3.27,5.19,4.57,7.26c3.78-1.04,7.03-1.79,10.2-2.83c3.62-1.19,7.1-2.82,10.74-3.95c8.24-2.54,16.52-4.94,24.82-7.28
			c2.73-0.77,5.58-1.08,8.32-1.81c3.81-1.01,7.57-2.24,11.36-3.36c6.99-2.06,13.96-4.21,20.99-6.13
			c10.19-2.78,20.45-5.32,30.64-8.11c5.17-1.41,7.16-0.57,9.16,4.4c-1.79,2.12-3.27,4.56-5.38,6.17c-1.71,1.3-4.14,1.77-6.32,2.31
			c-3.91,0.97-7.99,1.38-11.8,2.64c-3.33,1.1-7.01,2.08-10.12,2.28c-4.37,0.29-8.03,2.71-12.4,2.61c-2.26-0.05-4.54,1.41-6.82,2.19
			c-0.31,0.11-0.64,0.34-0.93,0.29c-4.08-0.67-7.15,2.4-11,2.89c-5.64,0.71-11.21,2.09-16.76,3.36c-3.27,0.75-6.48,1.82-9.71,2.77
			c-5.48,1.6-10.94,3.22-16.42,4.82c-4.66,1.36-9.31,2.78-14.01,4c-3.25,0.85-6.57,1.87-9.87,1.91c-1.5,0.02-3.43-1.9-4.44-3.42
			c-3.18-4.75-6.02-9.73-9.34-15.19c-0.83,1.63-1.75,2.87-2.13,4.26c-1.94,6.98-5.56,13.06-9.82,18.82
			c-1.61,2.18-3.65,1.24-4.75-0.24c-2.28-3.08-4.12-6.48-6.1-9.78c-0.88-1.48-1.67-3.01-2.85-5.16c-2.49,6.65-4.29,12.71-7.05,18.3
			c-1.22,2.45-2.31,5.65-6.72,6.04c-4.28,0.39-8.29,3.15-12.54,4.51c-6.7,2.13-13.49,4-20.26,5.9c-5.24,1.47-10.48,2.92-15.77,4.18
			c-2.83,0.67-5.85,0.65-8.65,1.41c-3.7,1-7.58,1.94-10.83,3.85c-4,2.35-7.22,6.01-11.16,8.48c-4.08,2.56-7.71,5.66-12.55,7.37
			c-4.54,1.61-8.37,2.13-12.49,0.1c-2.12-1.04-3.96-2.63-6.16-4.14c-3.09,1.96-6.49,4.32-10.08,6.35
			c-4.98,2.83-10.37,3.94-15.81,1.67c-2.02-0.84-3.6-2.8-5.32-4.32C929.25,124.3,928.57,123.42,927.36,122.1z"/>
		<path class="st6" d="M212.39,548.09c-3.96-7.3-6.19-14.45-7.23-22.05c-1.11-8.07-2.12-16.14-0.4-24.2
			c1.83-8.58,6.2-15.53,14.45-19.28c4.46-2.02,10.76-0.06,12.59,5.67c2.94,9.21,1.8,17.95-1.34,26.8c-2.5,7.03-5.11,13.92-9.46,20.1
			c-2.42,3.42-4.23,7.27-6.41,10.87C214.12,546.77,213.25,547.3,212.39,548.09z"/>
		<path class="st6" d="M743.04,133.65c9.36,0.82,18.82,1.92,28.31,2.39c5.26,0.26,10.57-0.5,15.86-0.85
			c2.38-0.16,4.79-0.23,7.12-0.69c4.81-0.97,9.6-2.11,14.36-3.31c4.45-1.12,8.98-2.09,13.25-3.74c3.27-1.26,6.18-3.47,9.24-5.27
			c2.67-1.58,5.52-2.96,7.96-4.84c3.79-2.93,7.17-6.39,10.99-9.28c2.15-1.63,4.8-2.67,7.33-3.7c0.4-0.16,1.96,1.09,1.98,1.71
			c0.06,1.8,0.2,4.07-0.77,5.34c-3.21,4.22-6.89,7.94-11.77,10.52c-5.23,2.76-9.74,7.07-15.14,9.3c-8.79,3.63-18.03,6.18-27.12,9.09
			c-3.01,0.96-6.1,2.24-9.18,2.31c-4.52,0.1-8.77,2-13.44,1.26c-3.47-0.54-7.1,0.06-10.66,0.02c-2.88-0.03-5.75-0.23-8.62-0.42
			c-2.49-0.16-4.99-0.35-7.47-0.66c-3.68-0.45-7.45-0.65-10.98-1.64C740.65,140.17,741.78,137.2,743.04,133.65z"/>
		<path class="st6" d="M430.66,153.3c3.87-1.33,7.73-2.7,11.61-3.98c1.11-0.37,2.3-0.55,3.47-0.73c5.83-0.91,11.76-1.38,17.43-2.88
			c2.4-0.63,4.47-2.01,6.57-0.15c1.19,1.05,2.32,2.66,2.52,4.14c0.11,0.79-1.82,1.87-2.86,2.79c-1.12,0.98-2.28,1.92-3.42,2.88
			c-0.34,0.28-0.75,0.87-0.99,0.81c-4.69-1.16-8.6,2.06-13.21,2.22c-5.71,0.2-11.33,2.44-17.04,3.55
			c-4.49,0.88-9.05,1.39-13.57,2.06c-2.24,0.33-4.51,0.52-6.71,1.01c-1.52,0.33-3.1,0.67-3.24-1.29c-0.1-1.38,0.38-3.69,1.28-4.1
			c5.83-2.68,11.85-4.95,17.81-7.35C430.42,152.62,430.54,152.96,430.66,153.3z"/>
		<path class="st6" d="M440.63,178.9c4.35,0,8.51,0.1,12.66-0.05c1.47-0.05,2.9-1,4.37-1.06c5.67-0.24,11.36-0.59,17-0.26
			c2.66,0.16,5.43,1.43,7.79,2.8c2.04,1.19,0.71,4.7-1.77,5.68c-1.61,0.64-3.01,1.8-4.56,2.63c-0.62,0.34-1.44,0.73-2.07,0.6
			c-6.31-1.29-12.57-0.8-18.9-0.02c-2.46,0.31-5.09-0.78-7.66-1.17c-0.94-0.14-2.02-0.37-2.85-0.07c-4.13,1.53-8.15,0.94-12.23-0.13
			c-1.03-0.27-2.18-0.13-3.27-0.07c-1.5,0.08-3.02,0.5-4.48,0.32c-0.89-0.11-2.36-1.05-2.37-1.64c-0.03-1.12,0.59-2.45,1.36-3.33
			c0.62-0.71,1.81-1.06,2.81-1.28C431.24,180.81,436.01,179.85,440.63,178.9z"/>
		<path class="st6" d="M446.79,119.26c-0.89,1.25-1.46,2.37-2.31,3.19c-7.5,7.22-15.5,13.75-24.64,18.86
			c-5.59,3.13-10.85,6.85-16.41,10.03c-1.49,0.85-3.58,1.01-5.34,0.88c-0.62-0.04-1.35-1.84-1.58-2.92
			c-0.14-0.65,0.37-1.77,0.94-2.2c5.4-4.06,10.86-8.05,16.34-12c4.61-3.32,9.63-6.18,13.81-9.96c4.01-3.63,8.44-6.43,13.07-9.01
			c0.89-0.5,2.49-0.78,3.2-0.32C445.06,116.59,445.82,118.05,446.79,119.26z"/>
		<path class="st6" d="M951.35,159c-0.36-4.97,2.12-7.55,5.05-9.19c6-3.36,12.46-5.06,19.29-2.41c3.88,1.51,6.34,4.68,8.25,8.16
			c0.4,0.73-0.35,2.52-1.1,3.34c-1.06,1.18-2.5,2.28-3.98,2.72c-1,0.3-2.82-0.22-3.48-1.03c-3.07-3.73-7.05-5.33-11.65-5.04
			c-1.74,0.11-3.48,1.38-5.07,2.37c-1.03,0.64-1.66,1.9-2.67,2.57c-0.81,0.53-2.23,1.08-2.84,0.71
			C952.13,160.62,951.57,159.28,951.35,159z"/>
		<path class="st6" d="M694.98,165.25c-1.73-6.9-0.55-9.98,5.08-12.81c5-2.51,10.41-4.17,15.97-2.23c2.58,0.9,4.97,2.72,7.05,4.56
			c2.45,2.17,2.42,4.53-0.1,6.7c-4.26,3.68-5.02,4.69-9.42-0.04c-3.8-4.08-9.29-3.56-12.65,0.68
			C699.69,163.64,697.18,164.13,694.98,165.25z"/>
		<path class="st6" d="M906.01,166.01c0.03-8.45,3.5-12.35,10.85-15.31c3.57-1.44,6.8-2.69,10.55-1.91
			c3.46,0.71,6.61,2.05,8.46,5.36c0.26,0.47,0.74,1.28,0.57,1.47c-1.67,1.92-3.29,3.95-5.28,5.49c-0.66,0.51-2.41-0.17-3.57-0.57
			c-2.33-0.8-4.53-2.16-6.91-2.56c-2.16-0.36-4.28,0.25-5.66,2.65c-1.35,2.34-3.27,4.38-5.07,6.44c-0.53,0.61-1.87,1.38-2.17,1.16
			C906.9,167.57,906.35,166.46,906.01,166.01z"/>
		<path class="st6" d="M677.17,158.3c-3.85,0.91-6.84,3.53-10.31,1.12c-0.35-0.24-0.83-0.28-1.21-0.49
			c-4.57-2.54-8.66-1.05-9.3,4.04c-0.47,3.64-2.74,3.65-4.8,3.18c-2.11-0.49-2.87-2.77-2.2-4.88c0.89-2.78,1.85-5.61,3.34-8.08
			c0.77-1.27,2.73-1.84,4.2-2.65c1.32-0.73,2.67-1.43,4.07-2.02c3.09-1.29,13.28,2.21,14.93,5.26
			C676.6,155.09,676.74,156.7,677.17,158.3z"/>
		<path class="st6" d="M940.54,184.6c-0.05,3.12-4.41,8.39-7.03,8.21c-5.4-0.38-7.72-3.68-8.14-9.32c-0.18-2.46,6.51-7.08,9.83-6.97
			C938.14,176.61,940.61,180.36,940.54,184.6z"/>
		<path class="st6" d="M960.64,183.8c-0.3-4.44,4.15-6.83,8.54-7.42c3.22-0.43,6.81,3.72,6.7,7.17c-0.11,3.62-4.67,8.5-7.93,8.5
			C963.36,192.05,960.61,188.95,960.64,183.8z"/>
		<path class="st6" d="M683.21,184.12c0.04,3.59-4.9,7.68-9.47,7.86c-2.63,0.1-5.49-3.28-5.56-6.32c-0.12-5.51,5.02-8.83,8.51-9.05
			C680.52,176.36,683.16,179.57,683.21,184.12z"/>
		<path class="st6" d="M716.69,182.77c-0.26,4.8-4.71,9.11-9.01,8.72c-3.18-0.29-5.11-2.67-4.96-6.11c0.2-4.55,4.83-8.29,9.82-7.93
			C715.32,177.66,716.86,179.62,716.69,182.77z"/>
		<path class="st6" d="M1113.17,100.66c0.19-3.54,4.02-6.48,7.99-6.13c3.07,0.27,5.42,3.23,5.18,6.54
			c-0.22,2.97-4.92,7.05-7.87,6.85C1115.63,107.72,1112.99,104.1,1113.17,100.66z"/>
		<path class="st6" d="M1150.49,95.76c0.04,2.71-5.01,7.2-8.03,7.15c-2.01-0.03-5.13-3.3-5.1-5.33c0.06-3.76,4.59-8.08,8.34-7.96
			C1148.38,89.69,1150.45,92.35,1150.49,95.76z"/>
		<path class="st6" d="M343.7,229.32c-1.41,3.86-2,8.38-4.43,11.43c-3.92,4.94-8.36,9.79-14.88,11.76c-1.98,0.6-3.82,1.67-5.78,2.37
			c-4.49,1.62-8.92,3.48-13.53,4.6c-3.45,0.84-7.13,0.68-10.71,0.97c-4.31,0.34-8.61,0.88-12.93,0.96
			c-4.88,0.09-10.06,0.77-14.57-0.61c-6.19-1.9-12.43-4.74-17.54-8.63c-2.89-2.2-4.52-7.19-5.04-11.15
			c-1.01-7.72,0.91-15.04,7-20.56c4.66-4.22,9.26-8.59,14.34-12.27c5.56-4.03,12.06-6.07,18.94-6.93c3.17-0.4,6.24-1.66,9.41-1.93
			c5.55-0.47,11.16-0.8,16.72-0.56c3.93,0.17,8.04,0.81,11.65,2.28c4.73,1.93,9.54,4.31,13.37,7.61c2.45,2.11,3.26,6.17,4.67,9.42
			c0.84,1.94,1.54,3.97,2.07,6.01c0.41,1.59,0.46,3.27,0.68,4.91C343.33,229.1,343.51,229.21,343.7,229.32z M254.11,237.01
			c0.68,2.05,0.75,4.87,2.16,6.01c3.91,3.12,8.21,5.89,12.68,8.14c4.16,2.09,8.71,2.6,13.53,1.59c3.01-0.63,6.36,0.5,9.43,0.04
			c7.22-1.09,14.48-2.23,21.5-4.15c8.02-2.19,15.34-5.51,18.42-14.57c2.46-7.2-2.33-19.86-9.69-22.29
			c-5.4-1.78-11.06-3.09-16.7-3.73c-9.12-1.04-18.33,0.11-27.09,2.4c-6.38,1.67-12.71,4.44-16.93,10.49
			C257.99,225.85,254.36,230.5,254.11,237.01z"/>
		<path class="st6" d="M275.09,178.49c4.23,2.29,5.48,4.08,4.09,7.54c-0.66,1.65-2.72,3.37-4.46,3.8c-2.18,0.55-4.14-0.94-4.85-3.39
			C268.5,181.69,272.7,180.69,275.09,178.49z"/>
		<path class="st6" d="M258.62,191.33c-0.05,2.93-2.69,6.15-5.17,6.2c-2.1,0.05-4.16-2.38-4.04-4.76c0.16-3.37,2.68-5.88,6.12-5.72
			C257.97,187.17,258.85,188.89,258.62,191.33z"/>
	</g>
</g>
</svg>
