<?xml version="1.0" encoding="utf-8"?>
<!-- Generator: Adobe Illustrator 23.1.0, SVG Export Plug-In . SVG Version: 6.00 Build 0)  -->
<svg version="1.1" xmlns="http://www.w3.org/2000/svg" xmlns:xlink="http://www.w3.org/1999/xlink" x="0px" y="0px"
	 viewBox="0 0 1280 544.99" style="enable-background:new 0 0 1280 544.99;" xml:space="preserve">
<style type="text/css">
	.st0{display:none;}
	.st1{display:inline;fill:#989898;}
	.st2{fill:none;}
	.st3{fill:none;stroke:#231815;stroke-width:2;stroke-miterlimit:10;}
	.st4{fill:#FFFFFF;}
	.st5{fill:#040000;}
	.st6{fill-rule:evenodd;clip-rule:evenodd;}
	.st7{fill:#F7F7F7;}
</style>
<g id="BG" class="st0">
	<rect x="-2729.46" y="-217.34" class="st1" width="5423.46" height="2640.54"/>
</g>
<g id="圖層_2">
	<g>
		<path d="M1046.11,330.81c-0.38,0.3-0.57,0.56-0.74,0.56c-20.78-0.21-41.56-0.45-62.34-0.67c-2.99-0.03-5.94-0.31-8.82-1.09
			c-0.59-0.16-1.08-0.71-1.69-1.13c0.2-0.73,0.21-1.49,0.57-1.99c6.05-8.27,9.34-17.82,12.11-27.47c5.6-19.51,7.3-39.49,5.88-59.73
			c-0.01-0.14-0.23-0.27-0.65-0.75c-1.27,2.02-2.49,3.88-3.64,5.78c-8.21,13.49-18.65,24.82-32.11,33.25
			c-15.15,9.48-31.72,12.95-49.28,10.54c-15.12-2.08-28.21-8.99-39.51-19.22c-9.8-8.88-17.13-19.56-22.88-31.42
			c-0.97-2-1.41-4.33-3.3-5.96c-1.31,2.42-1.65,4.89-1.91,7.4c-0.62,5.9-1.22,11.81-1.81,17.71c-0.83,8.23-0.85,16.44-0.77,24.66
			c0.05,5.24,1.35,10.32,2.18,15.13c2.07,1.45,3.89,0.8,5.68,0.67c18.29-1.3,34.82,3.38,47.27,17.07
			c18.34,20.17,10.61,42.95-4.48,54.95c-10.96,8.72-23.7,12.51-37.62,12.7c-10.28,0.14-19.94-2.36-29.07-6.88
			c-9.95-4.93-17.57-12.22-21.86-22.67c-0.16-0.39-0.57-0.68-0.89-1.04c-1.45-0.3-1.85,1.04-2.54,1.8
			c-6.68,7.28-12.23,15.4-17.32,23.82c-10.65,17.61-21.35,35.18-31.7,52.97c-10.02,17.22-21.17,33.66-32.89,49.72
			c-14,19.21-31.85,33.81-53.34,44.1c-9.76,4.67-19.83,8.24-30.37,10.48c-17.14,3.64-34.39,4.24-51.73,1.35
			c-16.46-2.74-31.73-8.53-45.66-17.68c-10.63-6.98-19.54-15.77-26.69-26.31c-3.59-5.28-7.6-10.24-10.48-16.05
			c-5.16-10.45-7.87-21.34-7.87-33c0.01-10.99,0.04-21.93,2.76-32.71c2.7-10.69,5.79-21.16,12.23-30.33
			c0.51-0.72,0.73-1.63,1.22-2.75c-2.64-0.67-5.05-1.25-7.44-1.91c-10.66-2.92-20.74-7.21-29.84-13.5
			c-12.71-8.78-23.21-19.81-32.39-32.22c-6.47-8.75-10.82-18.54-15.04-28.41c-3.05-7.14-5.84-14.4-8.3-21.77
			c-2.41-7.23-5.92-13.89-9.75-20.37c-4.64-7.86-9.35-15.72-15.66-22.45c-2.18-2.32-4.35-4.6-6.92-6.3
			c-1.69,0.68-1.34,1.97-1.3,2.99c0.26,6.62,0.43,13.26,0.52,19.87c0.13,9.78-0.71,19.57-2.24,29.31
			c-2.17,13.85-6.55,27.05-11.05,40.23c-0.66,1.94-1.34,3.91-2.96,5.34c-0.42,0.17-0.84,0.47-1.27,0.49
			c-13.02,0.48-26.03,0.98-39.05,1.35c-7.32,0.21-14.64,0.19-21.96,0.22c-2.02,0.01-4.19,0.21-5.35-1.96
			c0.14-1.37,0.86-2.23,1.87-2.84c6.43-3.89,10.92-9.51,14.84-15.84c6.38-10.33,12.44-20.82,16.92-32.1
			c4.89-12.32,9.21-24.83,11.11-38.07c1.14-7.91,2.51-15.76,2.53-23.8c0.02-6.22-1-12.32-1.81-18.4c-1.05-7.9-3.04-15.68-4.68-23.5
			c-1.03-4.95-2.69-9.68-5.24-14.08c-0.31-0.53-0.29-1.26-0.41-1.82c1.24-1.48,2.91-1.61,4.45-1.8
			c12.69-1.56,23.43-7.33,33.14-15.31c2.82-2.32,5.52-4.8,8.27-7.21c0.7-0.62,1.44-1.09,2.66-0.43c0.85,2.13-0.29,4.34-0.7,6.46
			c-0.75,3.85-1.09,7.69-1.07,11.58c0.07,17.38,0.14,34.77,0.25,52.15c0.01,1.77-0.3,3.64,0.81,5.35c0.75,0,1.47,0.18,2.06-0.03
			c20.63-7.39,33.31-22.04,38.22-43.16c2.36-10.16,0.63-19.99-5.85-28.65c-3.99-5.33-9.3-8.69-15.36-11.05
			c-8.33-3.24-17.08-3.89-25.68-2.33c-24.14,4.38-42.45,17.3-54.18,39.04c-4.83,8.94-6.06,18.64-4.75,28.63
			c0.83,6.32,3.83,11.7,8.24,16.24c3.68,3.79,7.76,7.06,12.75,9.07c1.21,0.49,2.62,0.89,3.28,2.19c0.25,1.17-0.42,1.8-1.26,2.19
			c-3.35,1.55-6.83,2.38-10.56,2.66c-12.46,0.93-23.43-2.83-33.44-10.02c-1.45-1.04-2.5-2.7-4.58-3.12
			c-1.18,1.58-0.71,3.41-0.64,5.11c0.38,9.66-0.53,19.21-2.93,28.54c-5.03,19.63-14.39,36.81-28.59,51.5
			c-14.98,15.48-32.87,26.07-52.94,33.25c-7.75,2.77-15.89,4.18-23.96,5.72c-11.1,2.13-22.33,1.86-33.51,1.13
			c-11.2-0.74-22.18-3.03-32.83-6.67c-11.95-4.09-23.26-9.5-33.62-16.77c-9.79-6.87-18.23-15.12-25.99-24.25
			c-10.34-12.16-18.13-25.81-24.67-40.2c-4.25-9.35-7.37-19.1-9.31-29.3c-1.59-8.34-2.44-16.72-3.2-25.12
			c-0.43-4.76-0.36-9.56,0.26-14.37c0.79-6.11,0.89-12.28,1.77-18.41c2.09-14.55,5.82-28.62,10.96-42.37
			c3.85-10.31,8.42-20.25,14.02-29.72c9.25-15.63,20.02-29.91,33.83-41.97c21.06-18.39,45.47-29.35,72.55-35.18
			c12.2-2.63,24.51-3.3,36.83-2.33c16.84,1.34,32.73,6.08,47.06,15.41c9.27,6.03,17.59,13.03,24.34,21.88
			c6.1,7.99,10.02,16.98,11.99,26.67c5.02,24.62-0.97,46.68-16.63,66.17c-10.41,12.95-23.73,21.41-40.12,24.45
			c-23.46,4.34-44.7-6.6-55.35-25.53c-5.28-9.39-7.88-19.5-8.58-30.07c-0.56-8.49,0.92-16.86,3.92-24.87
			c0.61-1.62,0.98-3.57,2.9-4.32c1.32,0.16,1.17,1.22,1.39,2.03c1.62,5.99,3.59,11.75,7.92,16.5c4.99,5.48,11.14,8.94,18.3,10.03
			c11.79,1.81,23.3,0.78,33.78-5.68c6.14-3.78,11.61-8.4,14.3-15.26c6.54-16.67,2.77-35.97-14.4-46.01
			c-9.42-5.5-19.64-8.45-30.52-9.48c-8.24-0.78-16.41-0.28-24.59,0.37c-4.56,0.36-9.06,1.3-13.35,2.9
			c-17.6,6.57-33.25,16.33-46.55,29.57c-19.21,19.13-31.39,42.14-35.04,69.07c-3.4,25.08,1.16,48.72,15.6,69.98
			c12.71,18.7,29.92,31.11,51.73,37.27c17.33,4.9,34.73,5.03,52.22,1.35c24.73-5.2,45.29-17.79,62.81-35.73
			c3.85-3.94,7.21-8.25,10.54-12.62c2.53-3.32,3.59-6.68,1.81-10.83c-1.07-2.48-1.45-5.28-1.99-7.96
			c-2.56-12.75-0.36-25.06,4.06-36.98c7.04-18.99,19.04-34.45,35.6-45.93c18.58-12.87,38.76-22.54,61.39-25.86
			c9.91-1.45,19.87-1.98,30.03-0.92c15.73,1.64,30.57,5.72,44.25,13.48c16.87,9.57,29.46,23.03,35.52,41.86
			c4.58,14.24,3.86,28.36-1.53,42.24c-5.7,14.67-15.33,26.33-27.69,35.92c-10.79,8.37-22.83,14.29-35.69,18.65
			c-1.72,0.58-3.55,0.83-5.31,1.26c-0.89,0.22-1.78,0.49-2.25,1.54c0.26,1.96,2.09,2.78,3.41,3.88c7.11,5.9,12.63,13.18,18.02,20.57
			c6.88,9.43,12.71,19.5,18.27,29.77c5.12,9.44,10.84,18.53,18.72,26.1c6.26,6.02,13.4,10.85,21.66,12.69
			c12.75,2.84,24.79,1.65,34.56-9.14c6.98-7.7,11.19-16.4,11.46-26.43c0.3-11.14-4.21-20.39-14.36-26.3
			c-4.17-2.43-8.52-3.07-13.18-2.71c-6.88,0.52-12.84,3.08-17.72,8c-3.52,3.54-5.5,7.8-5.91,12.8c-0.12,1.52,0.38,3.17-1.11,4.78
			c-3.38-3.31-2.39-7.74-3.19-11.52c-0.86-4.07,0.24-8.19,1.19-12.2c0.95-4.04,2.7-7.76,4.6-11.42c1.81-3.48,4.13-6.58,6.87-9.37
			c2.91-2.96,6.42-5.11,9.84-7.41c3.45-2.32,7.53-3.17,11.07-4.9c0.51-1.58-0.48-2.31-1.25-3.11c-13.5-14-17.46-30.77-13.58-49.39
			c5.01-24.05,19.04-41.64,40.3-53.57c3.36-1.88,7.09-3.1,11-4.77c-7.12-2.56-13.54-5.63-18.91-10.66
			c-13.13-12.28-18.23-35.02-6.11-52.63c10.05-14.6,23.72-23.89,40.85-28.08c5.76-1.41,11.66-2.44,17.6-2.56
			c11.8-0.25,23.21,1.93,34.04,6.65c8.22,3.58,15.96,8.04,22.34,14.45c6.78,6.81,13.02,14.01,17.58,22.62
			c2.78,5.26,5.55,10.49,7.73,16.03c3.89,9.88,5.81,20.2,6.82,30.67c0.92,9.54,1.27,19.15,1.98,28.7
			c0.74,9.99,1.89,19.98,3.25,29.94c1.4,10.28,3.89,20.17,7.26,29.91c2.4,6.95,5.45,13.57,10.09,19.35c2.7,3.35,5.37,6.77,9.3,8.49
			c1.17-0.61,1.84-1.24,2-2.2c0.6-3.6,1.53-7.2,1.65-10.82c0.27-8.22,0.32-16.43-0.82-24.64c-1.01-7.23-1.63-14.51-2.75-21.74
			c-0.81-5.22-2.09-10.29-3.56-15.34c-0.44-1.53-0.83-3.09-1.08-4.66c-0.14-0.86,0.07-1.78,0.12-2.54c2.06-2.09,4.44-1.64,6.61-1.22
			c9.85,1.92,19.55,0.67,29.23-1.19c3.36-0.65,6.7-1.42,10.06-2.06c7.96-1.5,15.24-4.72,22.3-8.57c1.5-0.82,2.84-2.35,4.8-1.8
			c0.91,0.86,0.63,1.77,0.3,2.61c-7.18,18.85-12.34,38.25-16.02,58.07c-3.41,18.3-4.78,36.76-3.42,55.29
			c0.95,12.99,5.25,25,13.65,35.24c5.78,7.04,13.06,10.28,22.35,9.17c5.21-0.62,9.01-3.18,12.12-6.97c2.46-3,4.37-6.37,5.22-10.3
			c1.68-7.82,3.24-15.62,4.19-23.59c1.1-9.13,1.15-18.25,1.03-27.39c-0.12-9.18-1.48-18.22-3.8-27.09c-0.79-3.04-1.99-5.97-2.92-8.7
			c0.71-1.57,1.8-1.96,2.96-1.69c3.6,0.83,7.25,0.78,10.9,1.02c9.25,0.63,18.17-1.28,26.65-2.94c1.72-1.24,1.72-2.66,1.85-4.01
			c1.28-13.52,4.44-26.59,9.88-39.04c8.34-19.07,20.57-35,38.13-46.56c15.37-10.12,32.29-13.63,50.4-11.56
			c6.83,0.78,13.36,3.01,19.61,5.95c14,6.59,25.12,16.53,33.88,29.21c9.64,13.96,15.54,29.43,18.66,46.04
			c0.42,2.25,0.88,4.49,1.37,6.72c0.14,0.65,0.42,1.27,0.71,2.1c5.24,1.91,10.69,1.67,16.14,1.3c3.19-0.22,6.37-0.54,9.56-0.72
			c3.2-0.18,6.39-0.21,9.5-1.18c1.06-0.33,2.25-0.25,3.38-0.25c0.4,0,0.81,0.34,1.23,0.53c1.48,1.54,0.96,3.42,0.73,5.19
			c-1.13,8.58-2.31,17.16-3.49,25.83c1.5,0.39,1.67-1,2.21-1.75c2.91-4.1,5.8-8.22,8.64-12.37c1.7-2.48,3.68-4.73,6.03-6.53
			c4.89-3.76,9.96-7.29,15.67-9.79c6.36-2.79,12.9-4.2,19.93-4.31c10.24-0.16,20.02,1.31,29.41,5.42
			c4.4,1.92,14.47,9.16,17.61,12.78c1.65,1.9,3.39,3.71,5.04,5.61c4.09,4.71,7.19,9.94,9.17,15.93c4.12,12.47,6.36,25.24,6.51,38.36
			c0.17,14.87,0.05,29.74,0.35,44.6c0.28,13.55,2.43,26.84,6.81,39.7c0.81,2.37,1.99,4.61,3,6.92c3.82,8.74,11.18,12.47,20.05,13.35
			c6.87,0.69,13.62-0.66,20.2-2.91c5.76-1.97,9.83-5.84,12.67-10.95c5.86-10.55,7.76-21.81,5.61-33.77
			c-1.57-8.72-4.9-16.64-10.17-23.72c-3.31-4.45-7.33-8.11-12.28-10.77c-4.94-2.66-10.09-4.14-15.75-3.99
			c-2.21,0.06-4.54,0.85-6.63-0.31c-0.78-1.29-0.24-2.33,0.5-3.18c1.84-2.09,4.21-3.48,6.69-4.7c7.34-3.61,15.2-4.95,23.27-4.91
			c6.19,0.03,12.24,1.15,18.09,3.39c14.96,5.74,25.64,16.06,31.11,30.95c5.58,15.18,3.91,30.13-4.66,44.06
			c-8.68,14.12-21.54,22.02-37.59,25.13c-1.12,0.22-2.27,0.29-3.4,0.39c-15.05,1.32-30.12,1.66-45.22,1.42
			c-5.03-0.08-10.02-0.19-15.03-0.95c-4.12-0.63-7.97-1.82-11.86-3.17c-8.52-2.97-16.14-7.51-23.32-12.86
			c-4.7-3.5-7.77-8.36-10.4-13.46c-5.17-10.03-8.56-20.66-10.33-31.8c-0.32-2.03-0.69-4.06-0.82-6.1
			c-0.88-14.2,0.49-28.29,2.05-42.39c0.7-6.34,1.99-12.66,1.56-19.1c-0.4-5.93-0.74-11.87-2.44-17.61
			c-1.75-5.93-5.3-10.59-10.43-13.99c-3.75-2.48-7.83-3.32-12.39-2.67c-13.02,1.86-22.81,8.73-30.44,19.08
			c-3.67,4.97-6.89,10.17-9.14,16.02c-2.92,7.6-4.21,15.44-4.31,23.46c-0.2,15.78-0.35,31.57-0.08,47.35
			c0.16,9.59,1.6,19.11,4.08,28.42c0.65,2.43,1.41,4.8,2.76,6.98C1045.09,326.56,1046.12,328.59,1046.11,330.81z M625.39,403.22
			c-0.99-2.98-1.65-5.14-2.42-7.28c-1.1-3.03-2.49-5.94-4.82-8.22c-8.37-8.2-18.31-10.8-29.63-8c-8.94,2.21-15.18,7.81-19.89,15.63
			c-6.28,10.43-6.07,20.81-0.57,31.26c5.17,9.84,13.5,16.02,24.05,19.01c7.26,2.06,14.64,2.75,22.33,2.02
			c7.18-0.68,14.06-2.09,20.5-5.03c12.23-5.58,22.47-13.94,31.34-23.99c5.29-5.99,10.52-12.03,15.72-18.1
			c5.95-6.94,11.91-13.87,17.72-20.92c12.08-14.68,24.83-28.67,40.13-40.13c2.38-1.78,4.64-3.72,7.12-5.34
			c7.66-5.01,15.6-9.52,23.86-13.5c4.29-2.06,8.37-4.55,12.15-6.62c0-4.47,0.03-8.34-0.01-12.21c-0.04-3.78,2.11-7.46,0.58-11.57
			c-3.28,1.04-5.6,3.38-8.36,4.92c-12.68,7.04-25.98,10.64-40.7,8.71c-8.86-1.16-16.75-4.48-24.26-8.85
			c-4.93-2.88-9.2-6.75-12.49-11.54c-7.85-11.45-12.09-23.98-11.51-38c0.12-2.95,0.02-5.91,0.02-8.64c-2.36-2.2-5.05-1.59-7.47-1.72
			c-10.97-0.6-21.14-3.85-30.47-9.44c-12.52-7.49-22.32-17.41-26.37-31.98c-0.3-1.1-0.6-2.21-1.83-3.05
			c-2.27,8.22-5.93,15.65-10.97,22.49c-5.24,7.11-11.66,12.82-18.94,17.68c-7.09,4.74-15.17,7.14-23.78,9.5
			c2.34,2.87,4.67,5.09,6.24,7.76c9.3,15.75,16.06,32.32,15.47,51.08c-0.11,3.65,0.01,7.34-0.45,10.95
			c-1.28,10.16-5.99,19.11-10.39,28.14c-0.69,1.41-1.83,2.61-2.77,3.9c-0.64,0.89-1.57,1.69-0.75,3.06
			c3.33,0.26,6.84,0.08,10.1,0.89c7.79,1.91,15.19,4.82,22.07,9.13c15.18,9.52,21.54,23.59,21.83,40.97
			C627.81,398.54,627.5,400.73,625.39,403.22z M950.36,180.03c0.24-20.03-1.51-32.81-5.82-47.35c-2.35-7.93-5.77-15.32-10.9-21.97
			c-5.05-6.54-17.25-10.44-24.98-1.11c-1.31,1.58-2.67,3.13-3.88,4.78c-4.38,5.97-7.03,12.8-9.44,19.71
			c-5.39,15.48-7.04,31.59-7.94,47.82c-0.51,9.16,0.41,18.29,1.42,27.35c1.28,11.39,3.75,22.58,8.69,33
			c2.84,5.98,6.19,11.69,11.96,15.57c5.23,3.51,10.33,3.22,15.38-0.04c3.49-2.25,6.23-5.27,8.6-8.73
			c6.44-9.42,9.83-20.08,12.57-30.96C949.34,204.98,950.61,191.57,950.36,180.03z M583.86,90.57c4.32-1.69,7.24-3.29,10.04-5.16
			c3.09-2.07,5.41-4.73,7.44-7.87c4.5-6.94,5.49-14.59,4.3-22.37c-1.41-9.23-6.3-16.55-14.72-21.1c-7.32-3.95-15.22-4.72-23.28-3.59
			c-4.06,0.57-8.04,1.86-11.53,4.13c-7.17,4.67-11.5,10.9-10.76,19.94c0.46,5.62,3.1,10.01,7.27,13.47
			c7.55,6.27,16.27,8.91,26.09,7.69c2.26-0.28,4.59-0.27,6.79-0.81c2.14-0.52,4.16-1.58,5.92-2.27c1.04,0.49,1.51,1.04,1.45,1.76
			C592.34,80.59,587.88,84.75,583.86,90.57z M593.64,118.62c-8.38,3.24-16.8,6.62-25.32,9.75c-4.77,1.76-9.02,4.39-13.21,7.14
			c-6.2,4.07-10.13,9.82-11.71,17.05c-1.4,6.4,3.14,13.33,9.55,14.39c7.09,1.18,13.66-0.15,19.14-5.12
			c2.36-2.14,4.68-4.37,6.79-6.76c8.53-9.66,13.83-20.85,15.45-33.7C594.44,120.48,594.49,119.56,593.64,118.62z M842.66,328.78
			c0.1,0.66,0.34,1.76,0.44,2.88c0.75,8.7,5.3,15.46,11.21,21.4c6.37,6.41,19.99,8.29,28.04-3.4c2.11-3.07,2.93-6.52,2.07-10.42
			c-1.42-6.39-5.43-10.5-11.05-13.09c-7.82-3.59-16.1-2.83-24.25-1.55C846.83,324.96,844.06,325.55,842.66,328.78z"/>
	</g>
	<rect x="-7.09" y="-119.79" class="st2" width="1320.56" height="792.28"/>
	<rect x="-7.09" y="-119.78" class="st2" width="1320.56" height="792.27"/>
</g>
</svg>
