<?xml version="1.0" encoding="utf-8"?>
<!-- Generator: Adobe Illustrator 23.1.0, SVG Export Plug-In . SVG Version: 6.00 Build 0)  -->
<svg version="1.1" xmlns="http://www.w3.org/2000/svg" xmlns:xlink="http://www.w3.org/1999/xlink" x="0px" y="0px"
	 viewBox="0 0 843.12 800" style="enable-background:new 0 0 843.12 800;" xml:space="preserve">
<style type="text/css">
	.st0{display:none;}
	.st1{display:inline;fill:#989898;}
	.st2{fill:none;}
	.st3{fill:none;stroke:#231815;stroke-width:2;stroke-miterlimit:10;}
	.st4{fill:#FFFFFF;}
	.st5{fill:#040000;}
	.st6{fill-rule:evenodd;clip-rule:evenodd;}
	.st7{fill:#F7F7F7;}
</style>
<g id="BG" class="st0">
	<rect x="-1639.55" y="-89.83" class="st1" width="5423.46" height="2640.54"/>
</g>
<g id="圖層_2">
	<g>
		<path d="M71.96,381.65c0.66-5.23,0.66-5.23,4.75-6.57c1.76-4.14,3.1-7.29,4.6-10.81c1.66,0.93,2.65,1.48,3.87,2.16
			c1.75-1.59,3.58-3.24,5.68-5.15c-1.19-1.12-2.22-2.08-3.68-3.45c1.58-2.75,3.09-5.73,4.93-8.49c4.74-7.1,9.55-14.16,14.55-21.08
			c0.82-1.14,2.76-1.48,4.03-2.11c1.73-3.03,3.56-6.23,5.39-9.43c-0.4-2.1-0.95-4.34,3.75-4.41c-0.6-0.33-1.2-0.65-0.73-0.4
			c4.3-5.3,8.66-10.68,13.02-16.05c-0.68-0.62-1.35-1.24-2.03-1.85c-1.77,1.02-3.54,2.05-5.3,3.08c0.63,0.59,1.27,1.18,1.9,1.78
			c-0.17-4.03,4.52-9.98,8.27-10.86c0.95-0.22,1.85-1.26,2.48-2.15c1.56-2.19,2.95-4.51,4.65-7.14c-0.5-0.69-1.3-1.8-1.77-2.45
			c2.3-2.02,4.21-4.08,6.51-5.52c0.85-0.53,2.61,0.41,4.41,0.77c1.62-1.61,3.79-3.75,6.7-6.63c-3.1,0.03-5.22,0.05-7.34,0.07
			c-0.03-0.21-0.07-0.42-0.1-0.63c2.28-1,4.55-2,7.15-3.14c-1.16-0.86-2.36-1.76-3.56-2.65c0.11-0.35,0.22-0.7,0.32-1.06
			c1.47,0.42,2.94,0.85,4.49,1.29c3.76-5.05,3.28-7.42-2.89-9.34c1.95-1.02,3.35-1.76,4.41-2.3c0.21-1.74-0.12-3.69,0.67-4.89
			c6.13-9.17,12.64-18.08,18.68-27.3c2.17-3.32,3.36-7.28,4.73-10.33c3.93,0.63,7.36,1.18,10.78,1.72c0.22-0.43,0.44-0.86,0.65-1.28
			c-1.03-0.71-2.05-1.45-3.1-2.13c-0.67-0.44-1.4-0.8-2.1-1.2c0.46-0.8,0.73-1.86,1.41-2.35c1.89-1.36,3.95-2.47,6.31-3.91
			c-1.36-0.26-2.42-0.46-4.38-0.83c1.94-0.91,3.08-1.76,4.33-1.95c3.49-0.52,4.86-2,4.61-5.84c-0.32-4.99,5.93-9.95,11.01-9.59
			c0.77,0.05,1.77-0.75,2.39-1.41c1.22-1.31,2.04-3.06,3.41-4.15c3.34-2.66,1.29-3.65-1.35-4.63l0.35-1.28
			c2.02,0.35,4.03,0.7,6.09,1.05c1.29-4.11,6.52-9.78,8.88-9.75c0.28-2.01,0.56-3.97,0.86-6.14c-0.63-0.15-1.43-0.34-2.22-0.52
			c-0.16-0.4-0.31-0.81-0.47-1.21c3.09-1.22,6.18-2.45,9.27-3.68l-0.1-1.42c-1.41,0.11-3.11-0.25-4.16,0.42
			c-2.73,1.72-3.96,0.39-3.6-1.95c0.7-4.54,1.63-9.16,3.3-13.42c1.33-3.4,2.94,0.79,5.02,0.51c1.45-1.74,4.75-3.57-0.94-4.77
			c-1.27-0.27-2.27-1.79-4.26-3.45c4.11-0.33,8.25,3.16,10.06-2.97c-2.42,0.27-4.08,0.47-6.7,0.76c1.2-2.42,2.15-4.35,3.06-6.18
			c1.44,0.36,3.24,1.26,3.65,0.84c2.38-2.48,4.43-5.28,6.59-7.97c-0.31-0.42-0.62-0.85-0.94-1.27c1.83,0.21,3.67,0.41,5.91,0.67
			c0.42-1.33,0.88-2.77,1.37-4.3c-2.23-1.23-7.19,1.94-5.39-3.96c0.88,0.93,1.74,1.83,2.6,2.74c3.18-4.29,3.78-5.5,3.25-6.61
			c8.41-6.65,17.28-4.35,26.96-2.2c1.97-2.22,8.46-2.06,10.94,0.64c2.15-0.36,3.78-0.64,5.62-0.95c-0.38,1.12-0.69,2.06-1.3,3.85
			c1.69-0.99,2.59-1.66,3.59-2.06c1.54-0.63,3.15-1.5,4.75-1.53c5.4-0.11,10.8,0.09,16.21,0.2c10.18,0.2,20.35,0.38,30.53,0.67
			c3.77,0.11,7.52,0.51,12.03,0.83c0.01,0.03,0.44,0.95,1.02,2.23c2.91-2.48,5.46-2.57,9.17-2.07c7.58,1.02,15.44-0.25,23.19-0.26
			c2.38,0,4.74,1.17,7.15,1.52c1.06,0.15,2.23-0.41,3.35-0.66c0.92-0.2,1.84-0.59,2.76-0.58c2.84,0.02,5.7-0.01,8.49,0.4
			c0.96,0.14,1.66,1.61,2.6,2.31c1.85,1.37,3.79,2.62,6.56,3.33c-0.52-1.52-1.04-3.04-1.87-5.43c3.3,0.14,6.26,0.35,9.21,0.37
			c4.68,0.02,9.7-1.17,13.97,0.13c4.75,1.45,8.55,1.27,13.26,0c4.07-1.11,8.88,0.01,13.23,0.84c1.2,0.23,1.94,2.92,3.14,4.89
			c0.28-0.12,1.65-0.72,3.09-1.36c-0.16-0.9-0.33-1.85-0.69-3.85c1.82,1.08,2.97,1.76,4.28,2.53c2.1-5.93,5.94,2.25,9-1.24
			c0.02,1.64,0.02,2.53,0.03,3.56c2.61-1.47,5-2.82,7.93-4.48c0.61,2.5,0.94,3.85,1.45,5.96c1.31-0.99,2.25-1.66,3.16-2.39
			c0.59-0.48,1.18-1.53,1.67-1.48c4.83,0.5,9.64,1.21,14.46,1.8c1,0.12,2.04,0.07,3.04-0.04c0.88-0.1,2.05-0.85,2.55-0.51
			c4.86,3.3,9.9,0.31,14.82,0.66c2.18,0.15,4.33,0.72,7.27,1.23c3.9-1.17,9.02-2.71,14.22-4.27c0.14,3.36,4.05,6.14,7.53,4.08
			c3.6-2.13,6.93-1,10.28-1.78c2.27-0.53,4.48-1.35,6.71-2.05c0.41-0.13,0.83-0.48,1.2-0.42c5.3,0.89,10.59,1.82,15.87,2.82
			c0.49,0.09,0.86,0.76,1.2,1.07c-0.56,0.9-1.78,2.23-1.54,2.59c0.65,0.98,1.92,2.18,2.94,2.17c4.89-0.01,4.23,4.45,5.81,7.04
			c0.06,0.1-1.99,2.13-3.09,2.17c-1.91,0.08-3.86-0.7-5.79-1.12c-0.11,0.63-0.22,1.27-0.32,1.9c3.86,0.6,7.72,1.2,12.02,1.87
			c-1.04,0.93-2.25,2.02-3.5,3.15c1.6,2.65,3.36,5.56,5.31,8.8c-2.57,1.65-3.49,3.88-0.35,5.81c4.45,2.73,5.92,7,6.69,11.71
			c0.18,1.11-0.08,2.28-0.15,3.64c3.46,2.32,5.91,5.69,7.01,10.29c0.41,1.69,2.57,2.91,3.75,4.48c1.02,1.36,1.89,2.85,2.65,4.37
			c1.3,2.6,2.18,5.44,3.76,7.84c1.47,2.23,3.61,4.01,5.67,6.21c0.11-0.1,0.81-0.72,0.8-0.72c0.98,1.79,3.19,4.16,2.68,5.22
			c-1.67,3.5,1.5,4.27,2.55,6.23c3.7,6.92,7.2,13.95,11.06,20.77c0.8,1.41,3.2,1.82,4.26,3.17c2.36,2.99,4.35,6.28,6.47,9.46
			c0.42,0.63,0.74,1.33,1.11,1.99c0.78,1.38,1.56,2.75,1.95,4.42c4.43,2.87,8,7.53,4.94,13.53c1.67,0.08,3.09,0.15,4.88,0.24
			c0.82,2.03,1.82,4.47,2.82,6.91c-1.79-1.46-3.58-2.91-5.36-4.37c-0.38,0.38-0.76,0.76-1.14,1.14c1.65,2.01,3.29,4.02,5.79,7.05
			c0.27-2.02,0.41-3.02,0.55-4.03c4.03,2.37,1.76,4.75-0.2,7.24c2.6,1.07,5.09,2.09,8.49,3.49c-1.72,0.84-2.32,1.14-3.02,1.48
			c0.27,0.47,0.36,0.89,0.56,0.95c6.33,1.93,7.18,8.31,9.96,12.87c6.95,11.43,13.23,23.27,19.69,34.99
			c1.08,1.95,1.75,4.13,2.63,6.25c-0.46,0.28-1.3,0.78-3.22,1.94c2.43,0.27,3.59,0.41,3.9,0.44c2.19,3.93,4.22,7.57,6.24,11.2
			c-0.34,0.25-0.69,0.51-1.03,0.77c-0.77-0.24-1.55-0.48-2.75-0.86c-0.41,1.36-0.79,2.65-1.37,4.58c3.09-0.65,5.59-1.18,8.25-1.75
			c0.98,2.26,1.96,4.52,3.24,7.47c-0.75,0.62-1.87,1.52-3.23,2.64c2.87,1.59,5.69,3.15,8.52,4.71c-0.59,0.81-1.18,1.61-1.77,2.41
			c0.37-0.58,0.74-1.17,1.82-2.85c2.64,5.94,5.02,11.3,7.47,16.81c-0.37,0.12,0.43-0.15,1.43-0.48c-0.5,2.01-0.95,3.82-1.24,4.99
			c8.45,2.21,8.22,10.6,13.47,15.4c-4.28-0.03-4.62,2.5-2.1,9.39c-3.51,0.21-6.86,0.4-10.22,0.6c0.03,0.64,0.06,1.28,0.08,1.92
			c2.24,0.12,4.48,0.25,6.72,0.38c0.09-0.45,0.18-0.9,0.28-1.35c1.54,2.36,3.07,4.72,4.83,7.41c-1.15,0.59-3.02,1.55-5.63,2.89
			c4.97,1.07,8.9,1.92,12.13-2.28c-3.63,9.54-5.91,12.49-9.41,13.48c0.17,1,0.83,2.28,0.44,2.9c-4.22,6.75-8.78,13.29-12.89,20.1
			c-2.55,4.21-4.31,8.89-6.76,13.17c-5.82,10.15-11.89,20.16-17.78,30.27c-2.27,3.89-4.23,7.96-6.52,11.83
			c-0.62,1.04-2.09,1.53-2.91,2.5c-1.26,1.5-3.25,3.19-3.26,4.81c-0.04,6.25-6.12,6.89-9.17,10.51c0.35,1.96,0.69,3.93,0.99,5.64
			c-3.56,1.77-7.07,3.53-11.02,5.5c0.63,0.71,1.78,2,3.3,3.73c-1.08,1.79-2.62,3.96-3.7,6.34c-0.4,0.88,0.31,2.25,0.51,3.4
			c0.63,0.11,1.27,0.22,1.9,0.33c-4.87,7.12-9.74,14.23-14.6,21.36c-0.49,0.71-0.87,1.5-1.29,2.26
			c-6.65,12.3-13.27,24.61-19.95,36.88c-4.12,7.55-8.22,15.12-12.57,22.54c-2.16,3.69-5.14,6.9-7.27,10.6
			c-1.9,3.31-2.59,7.4-6.69,9.05c1.29,4.94-3.29,7.03-5.19,10.38c-1.57,2.77-3.89,5.12-5.97,7.76c0.36-7.68-5.9-1.45-8.15-4.63
			c-0.47,4.71-4.14,8.58-0.42,12.69c-1.4,2.24-2.79,4.47-4.18,6.7c0.38,0.32,0.77,0.64,1.15,0.97c1.74-0.52,3.48-1.05,5.27-1.58
			c-0.21,2.37-0.18,4.45-3.85,3.67c-2.1-0.44-5.1-0.58-4.57,3.75c0.14,1.16-2.91,2.71-5.33,4.82c0.68,0.43,2.06,1.31,4.27,2.7
			c0.28,2.41-1.87,4.25-4.82,5.21c-0.39,0.12-1.51-2-2.52-3.4c-0.96,1.61-2,3.36-3.05,5.12c-0.39-0.03-0.78-0.06-1.17-0.09
			c-0.02-1.65-0.03-3.3-0.06-5.86c-1.18,1.1-2.91,2.15-2.77,2.68c0.53,1.96,1.29,4.27,2.76,5.41c1.01,0.78,3.34-0.16,5.3-0.36
			c-0.91,1.42-2.04,3.17-3.28,5.1c-1.28-0.95-2.29-1.71-3.64-2.72c-1.83,3.78-4.9,3.86-8.47,3.61c-9.5-0.67-19.02-1.15-28.54-1.37
			c-10.15-0.24-20.31-0.01-30.46-0.17c-5.47-0.09-10.94-0.6-16.77-0.94c-0.26-0.85-0.62-2.01-0.95-3.07
			c-1.89,1.21-3.61,3.16-5.21,3.07c-1.51-0.09-2.89-2.34-4.35-3.67c-3.91,3.89-6.04,4.22-12.61,2.64c-2.92-0.7-5.79-1.49-9.13-0.32
			c-1.92,0.67-5.11,1.5-7.38-1.46c-2.12-2.76-7.1-2.59-8.25-0.33c-2.24-3.71-5.93-2.29-7.62-0.63c-3.2,3.15-6.81,2.35-9.56,2.8
			c-1.13-1.91-1.75-4.31-2.91-4.62c-1.97-0.51-4.28,0.31-6.44,0.57c0.02,0.42,0.04,0.83,0.06,1.25c1.19,0.45,2.39,0.9,3.58,1.35
			c-0.24,0.4-0.48,0.8-0.72,1.2c-1.33-1.17-2.66-2.34-4.21-3.69c-3.03,4.94-7.39,4.77-12.63,3.14c-2.51-0.78-5.61,0.44-8.44,0.51
			c-2.18,0.05-4.37-0.38-6.56-0.41c-2.18-0.03-4.37,0.37-6.54,0.25c-4.4-0.25-8.79-0.72-13.18-1.11c0.66-1.45,1.33-2.9,2.35-5.13
			c-0.09,0.03,0.92-0.29,1.99-0.62c-3.47-6.19-3.91-6.3-10.6-3.02c2,2.84,4.01,5.7,6.02,8.56c-7.34,1.06-14.72,2.84-20.27-0.34
			c-5.83,0.06-10.26,0.1-14.67,0.14c-0.08-0.4-0.15-0.79-0.23-1.19c1-0.52,2-1.04,4.17-2.16c-1.46-0.95-2.37-1.82-3.45-2.16
			c-1.09-0.35-2.53-0.59-3.5-0.16c-2.66,1.17-3.52-0.36-4.58-2.27c-0.37-0.66-1.55-0.88-2.36-1.3c0.05,0.96,0.09,1.92,0.14,2.88
			l0.17-0.1c-1.52,0.33-3.24,0.33-4.45,1.12c-0.55,0.36-0.07,2.29-0.06,3.5l0.12-0.18c-2.19-0.69-4.37-1.37-6.98-2.2
			c-0.18,0.36-0.49,1.48-1.18,2.25c-0.56,0.63-1.59,1.16-2.39,1.15c-0.67-0.01-1.33-0.89-1.99-1.38c0.57-0.72,1.18-1.41,1.71-2.16
			c0.89-1.26,1.73-2.56,2.6-3.84l-0.83-0.81c-0.77,0.2-1.54,0.39-2.35,0.6c0.23-0.76,0.46-1.52,1.02-3.36
			c-5.13,2.26-9.34,4.12-13.48,5.94c-0.62-0.9-1.94-2.8-3.26-4.7c-0.49,0.28-0.98,0.56-1.47,0.83c0.64,2.43,1.29,4.85,1.88,7.09
			c-2.36-0.57-7.34,4.81-9.13-2.99c-1.86,2.87-10.88,2.98-16.14,0.5c-0.92,1.69-1.84,3.4-2.86,5.29c-2.15,0.02-4.68,0.35-7.11-0.02
			c-1.96-0.3-3.74-1.68-5.71-2.15c-3.43-0.81-6.95-1.28-10.42-1.9c-1.73-0.31-3.45-0.66-5.01-2.01c-4.57,0.81-9.14,1.62-14.69,2.61
			c2.42-3.47,3.91-5.61,5.4-7.74c-0.21-0.45-0.42-0.91-0.63-1.36c-2.69-0.13-5.39-0.27-8.53-0.43c0.57,2.47,1.18,4.18,1.26,5.9
			c0.03,0.62-1.26,1.89-1.87,1.84c-1.71-0.13-4.17-0.24-4.94-1.33c-2.6-3.73-4.59-7.87-6.78-11.79c1.82-0.71,3.43-1.33,5.98-2.32
			c-2.11-1.09-3.17-2.05-4.33-2.17c-5.05-0.55-6.62-4.41-8.66-8.18c-5.4-10-11.21-19.77-16.6-29.77
			c-4.25-7.89-7.94-16.09-12.25-23.94c-3.16-5.75-7.17-11.02-10.34-16.76c-2.38-4.3-4.05-9-6.03-13.52c-0.12-0.26-0.13-0.6-0.31-0.8
			c-12.89-14.23-19.51-32.32-29.59-48.27c-0.61-0.96-0.37-2.45-0.49-3.4c-1.12-1.2-2.55-2.3-3.42-3.75
			c-3.56-5.91-7.45-11.7-10.28-17.95c-3.78-8.35-9.62-15.4-13.76-23.54c-4.21-8.28-9.48-16.03-14.15-24.09
			c-0.67-1.15-0.59-2.74-0.67-3.17c-3.04-4.42-5.95-8.16-8.34-12.2c-5.92-10.02-11.42-20.3-17.48-30.24
			c-2.26-3.72-2.9-6.13,1.85-7.83c1.22-0.44,2.3-1.26,3.51-1.94c-0.94-3.19,2.49-7.5-1.99-9.47c-2.38-1.04-5.46-0.49-8.82-0.69
			c-0.09-1.43-0.22-3.34-0.38-5.84c-2.47,0.64-4.58,1.18-6.75,1.74c-1.55-4.62-0.59-6.11,5.68-6.39c-1.33-1.52-2.55-2.55-3.25-3.86
			c-0.33-0.62,0.31-1.76,0.51-2.67c2.21,1.81,4.97,3.26,6.5,5.53c3.52,5.22,3.68,5.49,9.16,2.58c0.43-2.88,0.81-5.44,1.19-8
			c-0.04-0.7-0.08-1.39-0.13-2.08c-1.49-0.54-2.98-1.08-4.33-1.57c0.74-0.83,1.44-1.61,2.14-2.39c-1.15-0.03-2.41-0.4-3.41-0.03
			c-2.68,0.98-2.17,3-1.21,5.01l0.15-0.12L71.96,381.65z M350.53,669.64c0.92-2.76,1.08-5.38,2.46-6.87
			c1.85-1.98,4.56-3.27,7.06-4.52c9.84-4.91,19.77-9.63,29.62-14.52c11.35-5.63,22.75-11.16,33.92-17.12
			c12.9-6.89,25.64-14.07,39.44-19.12c1.85-0.68,3.5-1.9,5.29-2.76c1.92-0.93,4.07-1.5,5.81-2.68c1.9-1.29,3.46-1.74,5.19,0.01
			c1.08-1.42,2.15-2.85,3.27-4.24c0.14-0.17,0.57-0.09,0.85-0.19c2.44-0.87,4.91-1.67,7.3-2.65c16.02-6.53,31.99-13.17,48.05-19.59
			c5.38-2.15,10.98-3.72,16.45-5.65c8.09-2.85,16.16-5.78,24.21-8.66c-4.69,8.6-9.41,16.92-13.8,25.41
			c-2.98,5.77-5.44,11.82-8.21,17.71c-2.01,4.28-0.9,7.94,2.62,11.87c-3.88,1.03-7.32,1.94-10.75,2.85l0.22,0.86
			c2.09,0.48,4.17,0.96,6.26,1.43c2.23-1.25,5.17-2.76,7.18-1.95c8.73,3.51,17.21,2.8,25.17-1.29c9.56-4.91,18.66-10.69,27.94-16.13
			c9.7-5.68,19.31-11.4,27.93-18.79c6.33-5.42,4.81-11.09,1.73-16.64c-1.95-3.52-3.97-7.15-4.99-11c-1.45-5.46-4.24-10.29-7.24-14.7
			c-6.69-9.85-17.44-13.4-28.58-15.24c-2.77-0.46-6.22,1.01-8.87,2.48c-3.63,2.01-6.46,5.59-10.2,7.21
			c-12.04,5.24-25.19,7.21-37.33,12.41c-6.88,2.94-14.4,4.38-21.61,6.56c-10.53,3.19-21.01,6.55-31.59,9.59
			c-3.2,0.92-6.65,0.99-9.98,1.45c-0.8-0.14-1.26,1.51-2.17,1.81c-3.25,1.07-6.61,2.02-10,2.39c-4.18,0.46-8.45,0.12-12.64,0.47
			c-3.47,0.3-6.89,1.11-10.33,1.7c-0.21-0.49-0.42-0.98-0.63-1.47c5.95-5.43,11.7-11.11,17.9-16.24
			c8.39-6.94,16.86-13.83,25.79-20.03c7.68-5.33,14.57-12.22,24.25-14.22c2.55-0.53,5.1-1.12,7.68-1.45
			c9.07-1.17,18.14-2.41,27.25-3.3c10.8-1.06,21.71,1.66,32.52-1.31c8.21-2.26,16.49-3.76,23.5-9.35
			c8.72-6.94,18.07-13.08,26.94-19.82c3.76-2.85,8.83-4.94,8.85-12.03c-3.35-0.32-6.75-1.13-10.06-0.86
			c-19.53,1.55-39.04,3.33-58.55,5.08c-9.79,0.87-19.56,2.17-29.37,2.68c-16.56,0.85-33.14,1.23-49.71,1.78
			c-10.5,0.35-21,0.68-31.51,0.94c-19.54,0.49-39.09,0.92-58.63,1.41c-11.73,0.29-23.46,0.63-35.19,0.99
			c-16.67,0.5-33.35,1.48-50.02,1.41c-11.49-0.05-22.98-1.39-34.45-2.45c-4.75-0.44-9.42-1.64-14.57-2.58
			c-2.25-0.29-6.57,0.25-7.36-1.18c-1.6-2.87-2.79-1.7-4.53-1.09c-1.1,0.39-2.32,1.09-3.34,0.89c-4.25-0.83-8.43-2.03-12.66-2.93
			c-11.82-2.51-23.62-5.17-35.51-7.34c-9.43-1.72-18.95-3.59-28.47-3.89c-5.32-0.17-11.23-0.35-16.46,2.73
			c-2.28,1.35-5.36,1.35-8.56,2.07c-1.25,8.87,0.2,12.15,8.73,16.21c7.85,3.74,13.93,9.43,19.16,16.19
			c6.69,8.67,14.88,15.29,25.13,19.46c2.7,1.09,5.24,3.18,7.16,5.41c3.53,4.09,6.4,4.65,10.88,1.26c1.94-1.47,6.58-0.1,7.28,2.3
			c0.6,2.06,0.83,4.23,1.22,6.38c2.36-0.66,4.64-1.29,5.88-1.64c1.67-2.4,2.91-4.19,4.15-5.96c3.17,0.41,6.33,1.04,9.51,1.19
			c12.29,0.6,24.59,1.25,36.89,1.47c7.89,0.14,15.81-0.19,23.68-0.78c9.81-0.73,19.57-2.02,29.36-2.9
			c9.74-0.88,19.51-1.46,29.25-2.35c5.8-0.53,11.57-1.39,17.36-2.1c0.19,0.52,0.38,1.03,0.58,1.55c-6.61,4.51-13.03,9.35-19.9,13.43
			c-9.13,5.43-19,9.67-27.85,15.5c-9.74,6.42-20.55,7.84-31.54,8.95c-6.87,0.69-13.74,0.75-20.04,4.18
			c-4.47,2.43-5.95,5.26-3.61,9.68c7.39,13.96,10.96,29.14,14.63,44.3c3.04,12.55,7.22,24.75,13.59,35.93
			c4.69,8.23,13.05,15.92,24.39,10.14C344.04,666.35,348.3,663.21,350.53,669.64 M537.45,316.86c5.05-4.61,9.79-9.04,14.67-13.32
			c1.95-1.7,4.19-4.27,6.33-4.3c5.23-0.08,10.65,0.47,15.68,1.9c9.16,2.6,18.1,6,27.12,9.1c6.24,2.15,12.86,3.62,18.58,6.73
			c6.66,3.63,13.46,5.44,20.85,5.4c1.38-0.01,3.86-1.13,3.96-1.95c0.42-3.74,3.32-4.12,5.84-5.17c6.39-2.67,8.93-7.84,7.03-13.43
			c-1.91-5.62-6.08-9.3-11.25-10.57c-11.17-2.74-22.55-4.83-33.94-6.45c-8.38-1.19-16.94-1.08-25.4-1.79
			c-7.13-0.59-14.21-1.93-21.34-2.19c-7.29-0.27-14.46-3.22-21.85-1.03c-0.13,0.04-0.3-0.01-0.44-0.02
			c-10.1-0.44-20.2-0.81-30.29-1.33c-12.58-0.65-25.15-1.55-37.73-2.1c-12.19-0.54-24.44-1.62-36.58-0.95
			c-17.62,0.97-35.18,3.24-52.74,5.16c-1.72,0.19-3.29,1.79-5.23,2.9c3.73,3.02,7.74,4.73,9.07,7.67c2.99,6.6,9.07,8.84,14.56,9.9
			c9.53,1.84,19.45,1.95,29.22,2.13c16.83,0.31,33.71,0.81,50.49-0.09c11.83-0.63,23.54-3.46,35.31-5.21
			c0.65-0.1,1.43,0.65,2.42,1.14c-2.56,2.83-4.41,6.13-7.23,7.77c-13.45,7.8-27.15,15.15-40.78,22.63
			c-1.63,0.89-3.24,1.92-4.98,2.46c-5.6,1.74-8.24,7.89-5.43,12.98c1.24,2.24,2.84,4.35,3.63,6.74c1.76,5.27,4.59,10.75,4.32,16
			c-0.56,10.65-4.15,20.79-9.76,30.59c-3.26-2.68-6.58-5.18-9.64-7.98c-9.56-8.73-19.23-17.34-28.42-26.44
			c-5.17-5.12-9.59-11.02-14.16-16.72c-7.69-9.59-15.7-18.98-22.68-29.07c-6.66-9.64-12.37-19.96-18.11-30.2
			c-3.5-6.23-6.15-12.94-9.42-19.3c-2.2-4.28-4.46-8.67-10.34-8.94c-2.53-0.12-5.02-1.05-7.55-1.13c-2.39-0.07-5.28-0.21-7.02,1.01
			c-1.2,0.84-1.28,4-1.06,6.03c0.61,5.57,1.64,11.1,2.51,16.65c1.18,7.58,2.55,15.14,3.45,22.75c0.62,5.21,5.65,10.84-1.01,15.66
			c-0.26,0.19-0.02,1.06-0.01,2.26c2.08-0.92,3.73-1.65,5.71-2.52c1.01,3.14,1.66,6.11,2.89,8.83c4.53,10.02,9.25,19.95,13.91,29.91
			c2.97,6.35,5.55,12.94,9.05,18.99c6.11,10.55,11.82,21.41,20.43,30.33c3,3.1,5.38,6.8,8.73,11.12
			c-13.44-0.84-25.55-1.52-37.65-2.37c-10.95-0.77-21.89-1.6-32.81-2.65c-6.75-0.65-13.73-0.87-20.14-2.8
			c-17.03-5.13-34.25-8.73-51.61-9.37c0.84-1.8,1.65-3.54,2.46-5.29c-2.17-0.76-4.34-1.51-6.09-2.12c-0.47,3.17-0.81,5.46-1.14,7.75
			l-1.8,0.05c-0.59-1.63-1.17-3.26-1.87-5.19c-2.69,1.36-7.18,0.81-5.43,6.16c-4.05,0.66-8.54,4.65-9.24,8.61
			c-0.23,1.29,0.01,3.15,0.81,4.06c2,2.25,4.27,4.39,6.77,6.07c7.44,5.02,14.66,9.77,18.2,18.95c2.42,6.29,8.69,11.21,15.03,11.86
			c17.26,1.76,34.68,2.25,52.05,2.58c11.82,0.22,23.67-0.73,35.5-1.03c9.83-0.25,19.67-0.42,29.51-0.46
			c13.46-0.06,26.92,0.16,40.37,0.02c15.74-0.17,31.48-0.63,47.22-0.9c3.37-0.06,6.75,0.31,10.11,0.21
			c6.85-0.21,13.7-0.76,20.55-0.87c6.51-0.11,10.82,4.51,15.83,7.73c3.44,2.21,7.3,4.85,11.15,5.16
			c9.66,0.78,17.16-4.67,23.78-10.97c3.27-3.11,5.9-6.82,10.94-7.04c-0.05-5-0.6-9.8-0.05-14.47c1.41-11.98,2.9-23.98,5.2-35.8
			c0.91-4.7,1-10.33,4.95-12.97c-0.02-2.07-0.41-3.58,0.02-4.82c1.65-4.8,3.6-9.5,5.34-14.26c2.61-7.13,3.82-14.32,0.56-21.63
			c-0.84-1.89-1.84-3.76-2.31-5.74c-2.24-9.38-9.95-16.63-19.38-17.79C556.72,318.93,547.76,318.01,537.45,316.86 M655.62,235.66
			c-4.01-5.6-7.84-11.43-12.18-16.85c-3.08-3.84-6.4-7.81-10.42-10.5c-8.44-5.63-18.45-4.37-27.93-4.47
			c-10.2-0.1-20.31,3.21-30.63,1.12c-3.6-0.73-7.23-1.67-10.87-1.78c-2.7-0.08-2.58-0.59-2.36-3.02
			c1.06-11.61,1.97-23.25,2.37-34.89c0.23-6.54-1.48-12.82-6.11-17.9c-2.85-3.13-8.5-3.63-11.09-0.7c-2.99,3.38-5.78,6.95-8.45,10.6
			c-8.76,11.97-17.27,24.12-26.2,35.96c-4.28,5.68-9.86,9.4-17.63,7.79c-1.39-0.29-2.88-0.17-4.32-0.14
			c-18.9,0.43-37.81,1.09-56.71,1.25c-9.07,0.08-9.09-0.33-12.2-8.93c-0.36-1-0.21-2.17-0.49-3.21
			c-3.47-12.92-6.92-25.85-10.51-38.74c-1.05-3.77-1.44-8.57-3.97-10.91c-6.8-6.29-13.52-13.18-22.82-15.89
			c-2.18-0.63-5.49-0.32-7.18,0.99c-3.3,2.55-6.21,5.85-8.53,9.34c-1.53,2.3-2.36,5.46-2.45,8.27c-0.3,9.67,0.15,19.38-0.24,29.05
			c-0.38,9.41-1.59,18.79-2.13,28.2c-0.17,3.03-1.28,3.87-4.09,3.65c-14.45-1.12-28.9-2.36-43.36-3.17
			c-19.83-1.11-39.67-1.83-59.51-2.78c-5.59-0.27-11.21-0.5-16.76-1.16c-8.68-1.05-17.39-2.66-25.86,0.63
			c-1.97,0.77-4.89,3.43-4.65,4.69c0.53,2.79,2.37,5.67,4.46,7.74c3.64,3.61,8.07,6.42,11.72,10.01c1.27,1.25,1.58,3.82,1.7,5.82
			c0.35,6.11,4.54,9.12,12.95,8.87c18.5-0.56,37-1.07,55.49-1.76c10.71-0.4,21.39-1.28,32.09-1.67c8.89-0.32,17.79-0.22,26.45-0.31
			c1.85,2.08,3.5,3.95,5.15,5.81c0.32-0.25,0.65-0.5,0.98-0.75c-0.78-1.63-1.55-3.26-2.34-4.9c2.66,0.14,5.11,0.26,7.72,0.4
			c-0.29,2.45-0.54,4.86-0.87,7.27c-1.41,10.19,4.3,17.63,14.27,18.16c10.29,0.55,20.59,0.89,30.89,1.12
			c9.12,0.2,15.71-4.07,18.95-12.85c1.67-4.54,2.16-9.51,3.01-13.46c19.98-1.61,39.73-3.19,58.86-4.73
			c-1.37,9.67-2.9,18.5-3.8,27.39c-0.6,5.86,4.11,9.18,7.6,12.99c4.43,4.84,6.85,5.96,12.04,2.31
			c13.03-9.16,25.54-19.07,38.43-28.44c2.95-2.14,4.11-6.46,8.74-6.6c9.54-0.27,19.12-1.55,28.6-1.01
			c5.84,0.33,12.64,0.3,16.51,6.99c1.6,2.78,4.51,4.99,7.23,6.89c6.32,4.43,12.71,8.83,19.4,12.66c5.99,3.43,15.16,4.75,22.08-0.63
			c3.24-2.52,6.74-4.69,10.15-6.99c6.36-4.28,6.84-8.67,1.58-14.56c0.64-1.03,1.29-2.06,2.29-3.67
			C658.68,234.83,657.43,235.17,655.62,235.66 M219.78,349.32c-1.56,1.42-2.69,2.67-4.03,3.63c-5.68,4.08-13.57,4.17-18.24,10.12
			c-0.26,0.33-0.71,0.56-1.12,0.71c-10.55,3.69-18.78,11.16-27.89,17.18c-2.41,1.6-4.74,3.61-6.42,5.94
			c-1.24,1.72-2.4,4.73-1.68,6.28c0.82,1.76,3.64,3.11,5.82,3.58c2.33,0.5,4.93-0.22,7.41-0.43c4.96-0.43,9.98-1.58,14.84-1.1
			c4.67,0.47,9.24,2.44,13.73,4.08c10.06,3.69,19.51,1.69,28.51-3.09c8.48-4.51,16.39-9.82,23.07-16.96
			c8.63-9.23,17.7-18.05,26.67-26.95c0.96-0.96,2.48-1.78,3.8-1.87c3.18-0.23,4.77-2.06,4.43-5.27c-0.14-1.26,0.1-2.91,0.84-3.87
			c3.49-4.53,7.2-8.89,10.84-13.31c5.16-6.26,2.9-13.8-4.82-16.11c-1.59-0.47-3.76-0.29-3.16-3.12c0.09-0.41-0.81-1.47-1.24-1.46
			c-0.75,0.02-2.01,0.49-2.15,1.01c-1.03,3.79-3.91,3.65-6.97,3.92c-2.81,0.24-5.76,0.84-8.26,2.07c-3.44,1.69-8.01,3.42-9.38,6.39
			c-1.65,3.59-3.7,4.5-6.81,5.07C258.08,330.6,224.34,351.01,219.78,349.32 M314.92,295.07c-0.23,0.3-0.84,0.89-1.18,1.61
			c-0.42,0.88-0.61,1.86-0.9,2.8c-0.94-0.35-1.86-0.77-2.83-1.02c-1-0.27-2.04-0.38-3.7-0.68c3.3,3.99,5.92,7.2,8.6,10.36
			c0.36,0.42,0.96,0.77,1.51,0.89c0.9,0.19,1.85,0.16,2.78,0.23c-0.2-0.9-0.33-1.81-0.6-2.69
			C317.48,303.01,316.32,299.45,314.92,295.07 M278.77,691.38c-0.23-0.84-0.46-1.69-0.69-2.53c-6.99,0.07-13.98,0.14-21.2,0.21
			c0.86,1.32,1.76,2.73,3.1,4.79c0.47-1.53,0.71-2.32,1.22-3.99c2,1.88,3.63,3.4,5.78,5.42
			C269.3,690.56,273.68,690.07,278.77,691.38 M415.49,108.22c-2.48,1.99-4.84,3.89-7.15,5.75c3.02,5.45,3.44,5.44,8.99,0.62
			C416.77,112.64,416.29,110.98,415.49,108.22 M341.14,368.24c0.79,2.08,1.42,3.75,1.97,5.21c3.02-1.41,5.75-2.69,8.48-3.96
			l-0.49-0.84C347.91,368.52,344.73,368.39,341.14,368.24 M194.29,332.87c0.28,0.12,2,1.23,2.26,0.95c1.99-2.12,3.76-4.45,5.39-6.86
			c0.17-0.26-1-1.42-1.55-2.17c-0.7,0.55-1.58,0.96-2.07,1.66C197.07,328.24,195.99,330.15,194.29,332.87 M593.88,366.61
			c0.49,0.22,0.98,0.44,1.48,0.66c0.87-1.28,2.63-2.74,2.41-3.81c-0.35-1.75-1.67-3.67-3.15-4.72c-1.01-0.72-2.98-0.11-4.52-0.1
			l-0.42,1.13C593.92,360.35,595.64,362.43,593.88,366.61 M457.99,98.69c4.27,5.08,5.56,5.56,9.2,4.04
			c-0.18-1.77-0.35-3.4-0.56-5.37c-1.51,0.88-3.03,1.78-4.68,2.75c-0.49-1.32-0.85-2.3-1.47-3.98
			C459.33,97.31,458.64,98.02,457.99,98.69 M146.3,357.51c3.15,2.7,8.94,1.82,11.69-2.1C153.69,356.18,150.2,356.81,146.3,357.51
			 M278.98,277.15c-0.17,0.4-0.34,0.79-0.51,1.19c0.98,0.62,2.19,1.96,2.91,1.73c2.48-0.77,4.78-2.09,7.15-3.19
			c-0.18-0.42-0.37-0.84-0.55-1.27C284.98,276.12,281.98,276.64,278.98,277.15 M187.95,599.49c0.4,0.21,0.81,0.42,1.21,0.63
			c1.35-0.79,2.7-1.57,4.22-2.47c-0.54-1.71-1.03-3.31-1.53-4.9c-0.42-0.08-0.83-0.16-1.25-0.24
			C189.72,594.84,188.83,597.17,187.95,599.49 M100.31,348.63c2.66-0.67,5.33-1.34,8.48-2.13
			C104.49,341.99,104.25,342.05,100.31,348.63 M596.19,351.27c3.19-0.56,6.83-0.38,7.2-1.4c1.62-4.44-3.44-1.18-4.07-3.65
			C598.35,347.77,597.68,348.87,596.19,351.27 M398.19,109.9c-4.84-2.99-7-0.96-8.66,2.7C393.31,115.1,395.06,111.65,398.19,109.9
			 M709,512.15c-0.1,0.51-0.2,1.02-0.31,1.54c1.56,0.2,3.22,0.83,4.64,0.48c1.36-0.34,2.47-1.69,3.69-2.6
			c-0.27-0.43-0.54-0.86-0.81-1.29C713.81,510.9,711.41,511.52,709,512.15 M258.61,289.62c0.73-2.04,1.25-3.49,2.22-6.2
			c-2.57,0.57-4.44,0.99-6.3,1.41c-0.06,0.48-0.12,0.97-0.18,1.45C255.71,287.35,257.08,288.43,258.61,289.62 M455.94,94.45
			c-2.73,0.03-5.1-0.18-7.37,0.23c-0.59,0.11-0.82,2.15-1.22,3.29c0.19,0.34,0.38,0.69,0.57,1.03c3.42-4.45,5.09-1.14,7.63,2.03
			C455.72,98.38,455.8,96.92,455.94,94.45 M280,292.89c2.02-2.55,3.2-4.06,4.46-5.65c-2.4-2.33-4.2-0.78-5.27,1.23
			C278.71,289.38,279.61,291.04,280,292.89 M334.97,111.95c-2.75,1.28-5.13,2.4-7.52,3.51c0.14,0.25,0.28,0.5,0.42,0.74
			c2.16,0.12,4.32,0.25,6.49,0.37C334.56,115.09,334.72,113.83,334.97,111.95 M413,144.53c0.94,0.74,1.88,1.49,3.4,2.69
			c1.2-2.34,2.16-4.21,3.12-6.08c-0.37-0.15-0.75-0.3-1.13-0.45C416.68,141.91,414.97,143.13,413,144.53 M249.1,275.23
			c-2.84,1.17-4.78,1.97-6.72,2.78c0.31,0.57,0.59,1.62,0.93,1.64C245.54,279.77,248.19,280.51,249.1,275.23 M386.91,110.3
			l0.57-1.36l-5.99-3.95c-0.12,2.01-0.24,4.01-0.37,6.22C383.47,110.84,385.19,110.57,386.91,110.3 M97.96,356.89
			c-0.22-0.54-0.44-1.08-0.67-1.62c-1.29,0.59-3.31,0.89-3.69,1.85c-0.49,1.22,0.34,2.96,0.61,4.48c0.42-0.12,0.84-0.24,1.25-0.36
			C96.29,359.8,97.13,358.35,97.96,356.89 M276.35,143.51c-3.29-1.02-5.65-1.75-8.34-2.59
			C268.61,146.18,270.72,146.91,276.35,143.51 M310.08,312.38c0.52,0.02,1.03,0.03,1.55,0.04c0.21-1.69,0.73-3.42,0.47-5.03
			c-0.08-0.54-2.12-0.78-3.09-1.09C309.46,308.83,309.77,310.61,310.08,312.38 M205.82,181.66c0.28,1.82,0.53,3.44,0.78,5.05
			c0.43,0.03,0.85,0.06,1.28,0.08c0.8-1.91,1.6-3.83,2.64-6.33C208.53,180.97,207.29,181.28,205.82,181.66"/>
		<path d="M398.88,752.39c2.88,0.34,5.75,0.68,8.63,1.02c0.04,0.33,0.09,0.66,0.13,0.98c-2.16,0.2-4.32,0.39-6.47,0.61
			c-1.8,0.18-4.03-0.22-5.29,0.7c-2.43,1.77-4.32,3.19-7.22,0.85c-0.52-0.42-2.31,0.66-3.48,1.12c-1.42,0.56-2.8,1.21-3.68,1.6
			c-1.36-1.8-2.4-3.19-3.43-4.56c2.06-1.67,6-0.31,9.21-0.96c-0.23-0.72-0.47-1.43-0.7-2.14c-1.4,0.11-2.79,0.22-4.41,0.35
			c-0.17-1.17-0.32-2.15-0.53-3.58c-4.06,4.54-10.73-0.84-14.5,4.45c-0.22,0.32-0.71,0.81-0.87,0.74c-3.1-1.32-6.17-2.72-8.37-3.71
			c-3.06,0.03-5.45,0.05-8.31,0.08c0.73-1.12,1.08-1.68,1.72-2.66c-2.23-0.13-3.96-0.47-5.63-0.29c-3.87,0.41-7.71,1.03-11.56,1.63
			c-2.72,0.42-5.68,0.49-5.51,4.64c0.02,0.57-2.01,1.68-3.13,1.72c-1.21,0.05-2.55-1.37-3.67-1.18c-0.98,0.17-1.82,1.61-2.59,2.6
			c-1.28,1.65-2.44,3.38-3.81,5.3c2.27-0.87,5.08,1.61,6.98-2.7c0.68-1.56,6.12-1.03,9.39-1.44l-0.01,0
			c-1.27,0.86-2.54,1.71-4.66,3.14c2.77,0.14,4.55,0.23,6.32,0.32c-0.01,0.51-0.02,1.01-0.04,1.51c-1.62-0.15-3.24-0.29-4.97-0.45
			c-1.82,4.27-5.81,5.34-10.66,3.81c-2.18-0.68-5.08,0.67-7.58,1.36c-1.5,0.41-2.87,1.3-4.3,1.98c-1.98-1.81-3.96-3.62-5.85-5.34
			c1.91-0.86,4.34-1.94,6.76-3.03c-1.56,2.76-0.83,4.29,2.11,4.62c-1.21-1.39-2.42-2.78-3.63-4.17c2.43-0.19,4.86-0.38,7.29-0.57
			c-0.01-0.3-0.02-0.6-0.03-0.91c-1.95,0.37-3.9,0.75-5.85,1.13c-0.85-0.63-1.99-1.99-2.5-1.79c-3.76,1.51-7.4,3.33-11.08,5.05
			c0.09,0.37,0.18,0.75,0.27,1.12c1.3,0.27,2.59,0.55,4.24,0.9c-2.43,3.02-6.43,1.65-7.12,0.62c-2.09-3.09-4.74-2.6-7.1-1.93
			c-1.21,0.34-1.83,2.75-3.04,4.77c-0.73,0.2-2.25,0.61-3.83,1.03c0.87-3.13,1.72-6.19,2.8-10.08c-0.23,0.09,0.78-0.32,1.81-0.74
			c0.56,2.18,0.07,4.61,3.69,1.63c2.46-2.03,6.98-1.59,10.59-2.18c2.28-0.37,4.61-0.47,6.84-1c0.56-0.13,0.81-1.51,1.35-2.61
			c3.62,4.96,8.21,2.09,12.46,2.35c0.08-0.51,0.17-1.02,0.25-1.53c-1.32-0.23-2.64-0.46-3.69-0.64c3.34-2.95,6.87-6.08,10.7-9.46
			c-0.73-0.81-1.56-1.73-2.37-2.62c-4.03,1.9-7.92,3.74-11.82,5.59c-0.12-0.24-0.23-0.49-0.35-0.73c1.01-0.49,2.01-0.97,4.03-1.95
			c-2.78-0.13-4.49-0.22-6.21-0.3c0-0.35-0.01-0.7-0.01-1.06c1.36-0.22,2.71-0.45,4.35-0.72c-2-1.66-3.67-3.06-6.34-5.28
			c1.57,8.19-5.49,5.63-9.42,9.17c4.35-0.04,7.36-0.07,11.54-0.12c-1.26,1.06-1.74,1.8-2.3,1.88c-2.72,0.35-5.47,0.65-8.21,0.69
			c-0.83,0.01-2.25-0.68-2.43-1.33c-1.25-4.35-4.44-3.76-7.63-3.26c-7.07,1.12-14.12,2.43-21.22,3.28
			c-1.45,0.17-3.11-1.31-4.92-2.15c-2.11,4.09-3.6,1.18-5.24-1.03c0.48-0.66,1.06-1.45,1.68-2.3c-1.39-1.56-2.72-3.06-3.39-3.81
			c-2.81,1.35-5.37,2.58-9.16,4.39c0.97-2.09,1.34-2.89,2.08-4.48c-2.76,0.92-4.94,1.64-7.22,2.4c-0.88-0.72-2.07-1.69-3.71-3.03
			c0.38,3.36,0.67,5.91,0.96,8.47l0.15-0.16c-1.11-0.29-2.22-0.59-3.33-0.88c-2.17-0.29-5.87,1.01-8.92-1.59
			c-1.29-2.36-2.59-4.73-4.13-7.54c0.29-1.16,0.82-3.25,1.44-5.7c-3.39-0.31-6.64-0.05-5.94-4.4c0.08-0.5-0.65-1.37-1.21-1.69
			c-5.97-3.37-7.04-9.33-8.17-15.26c-0.7-3.72-2.31-6.74-5.56-8.99c-1.78-1.24-2.95-3.34-4.6-4.83c-0.76-0.68-2.01-0.81-2.96-1.16
			c-0.85-2.72-1.77-5.66-2.83-9.04c-1.92,2.11-3.49,3.83-5.62,6.17c-0.24-1.99,0.02-3.34-0.53-3.87c-3-2.92-2.7-6.26-2.75-10.13
			c-0.05-3.24-2.94-6.43-4.58-9.67c3.24-3.04,3.5-6.14-0.32-9.66c-3.91-3.6-6.23-7.5-7.92-12.67c-1.39-4.26-3.18-9.53-8.82-11.57
			c-1.72-0.62-4.82-3-1.32-6.42c0.93-0.91-0.53-4.89-1.63-7.1c-1.53-3.09-4.73-5.63-5.42-8.8c-0.98-4.51-0.33-9.37-0.38-14.26
			c-6.83-2.65-9.18-9.49-12.42-15.66c-0.56-1.06-1.88-1.7-2.63-2.69c-1.27-1.68-2.36-3.49-3.74-5.56c2.13-1.03,3.37-1.63,4.61-2.22
			c-1.53-1.32-2.9-2.5-4.33-3.73c-0.71,0.96-1.67,2.27-2.64,3.58c-0.33-0.17-0.65-0.33-0.98-0.5c1.26-2.65,2.52-5.3,3.75-7.88
			c-4.75-0.02-5.42-2.28-2.7-10.2c-2.66-1.93-5.32-3.99-8.11-5.86c-5.04-3.39-4.87-8.98-5.72-13.96
			c-1.01-5.95-5.14-11.06-11.78-12.57c4.09-7.86-1.75-11.78-5.92-15.87c0.25-1.09,0.44-2.01,0.67-2.93
			c0.25-0.98,0.52-1.96,0.81-2.94c0.2-0.67,0.42-1.33,0.64-2c-3.73-0.23-2.71-4-4.33-5.74c-2.07-2.23-2.22-2.1,0.51-4.65
			c-1.72-0.22-3.49-0.27-5.12-0.75c-0.85-0.25-1.88-1.18-2.1-2c-0.64-2.39-0.86-4.89-1.34-7.32c-0.76-3.78-1.39-7.59-2.51-11.26
			c-0.39-1.27-2.07-2.15-3.73-3.76c0.33-1.07,0.97-3.09,1.6-5.12c1,0.93,2,1.87,3.19,2.99c0.35-0.55,1.01-1.58,1.68-2.63
			c-0.7-0.5-1.88-1.07-2.56-2c-0.19-0.27,1.07-1.59,1.67-2.43c0.07-0.06,0.14-0.12,0.2-0.18c0.59-0.13,1.61-0.51,1.69-0.37
			c3.62,6.68,7.01,13.48,10.74,20.1c2.07,3.67,4.79,6.96,6.99,10.55c0.93,1.52,1.29,3.4,1.91,5.11c1.34,2.09,2.77,4.29,4.16,6.53
			c0.44,0.71,0.69,1.52,1.13,2.23c3.66,6,7.42,11.94,10.95,18.01c0.62,1.06,0.4,2.62,0.46,3.96c0.04,0.94-0.4,2-0.09,2.8
			c0.6,1.57,1.57,2.99,2.43,4.55c0.34-0.25,0.83-0.6,1.32-0.95c-0.11,0.62-0.12,1.28-0.34,1.87c-0.85,2.32-1.77,4.61-2.66,6.91
			c0.47,0.19,0.94,0.39,1.41,0.58c0.66-0.98,1.32-1.97,1.99-2.97c2.01,1.02,3.94,2,7.06,3.58c-3.54,0.81-6.2,1.41-9.39,2.14
			c4.31,2.62,7.89,4.8,11.74,7.15c0.3-1.05,0.51-1.78,1.03-3.61c1.07,3.94,3.44,8.03,2.34,9.46c-2.74,3.58-1.76,7.04-1.74,10.61
			c0.03,3.92,0.19,7.85,0.54,11.75c0.07,0.81,1.33,2.16,1.95,2.11c1.11-0.09,2.15-1.06,3.83-2c1.69,3.61,3.47,7.41,5.33,11.4
			c0.78-0.66,1.53-1.3,2.29-1.95c0.23,0.15,0.47,0.3,0.7,0.45c-0.67,1.62-1.34,3.25-2.14,5.19c-1.83-0.97-3.74-4.37-5.51,0.8
			c1.85,0.58,3.65,1.14,5.46,1.7c0.16-0.39,0.31-0.78,0.47-1.17c0.13,1.27,0.27,2.54,0.46,4.43c4.2-3.7,5.26-0.41,7.09,2.23
			c2.4,3.46,5.34,6.55,7.44,10.21l-2.31-1.56c-0.18,0.8-0.68,1.68-0.5,2.38c0.9,3.43,1.98,6.81,3.09,10.52
			c2.1,1.57,4.95,3.7,7.71,5.77c-1.39,2.54-2.45,4.47-3.5,6.4c0.34,0.28,0.68,0.57,1.02,0.86c2.03-1.81,4.06-3.61,6.09-5.42
			l0.37,0.21c-0.92,1.13-1.85,2.25-2.92,3.55c0.28,1.03,0.69,2.53,1.18,4.34c1.05,0.09,2.35,0.2,2.93,0.25
			c0.97,1.68,1.77,3.05,3.02,5.22c-0.6,1.78,1.97,6.81,4.72,7.43c-0.49,1.64-0.98,3.29-1.42,4.74c3.04,1.53,5.56,2.8,8.09,4.07
			l-0.03-0.06c-2.59,2.58,1.22,3.77,1.43,5.81c0.05,0.52,2.48,0.8,2.76,0.88c1.76,1.83,2.93,3.09,4.14,4.31
			c2.95,2.97-0.04,4.41-2.16,6.42c1.33,0.59,2.25,1.01,3.17,1.42c-0.35,0.77-1.2,1.91-0.95,2.25c0.68,0.92,1.82,1.51,3.09,2.46
			c-1.03,1.96-4.33,4.82,1.19,5.78c-0.07,3.56,3.2,3.7,5.04,5.4c2.11,1.95,5.09,4.45,3.71,8.66c-0.73,2.22-0.39,4.25,2.88,5.81
			c2.65,1.26,3.99,5.31,5.81,8.19c0.1,0.16-0.8,0.96-0.46,0.57c0.93,2.3,2.08,3.91,2.19,5.6c0.4,6.01,4.33,9.13,8.86,12.02
			c1.2,0.76,1.81,2.41,2.97,3.28c1.48,1.1,3.35,2.69,4.88,2.52c4.66-0.5,9.21-1.94,13.86-2.63c5.5-0.81,11.08-1.1,16.6-1.81
			c5.36-0.69,10.69-1.62,16.03-2.47c0.58-0.09,1.3-0.57,1.7-0.37c4.81,2.37,9.51-0.77,14.25-0.22c4.04,0.47,8.07,1.15,12.12,1.45
			c1.08,0.08,2.2-1.04,3.37-1.37c3.04-0.87,6.19-2.86,8.81,0.64c3.92-3.01,16.4-2.72,18.16-0.1c2.97-0.25,5.77-0.48,8.56-0.71
			c-0.03-0.2-0.07-0.4-0.11-0.6c2.95,0.91,5.87,2.01,8.89,2.62c0.81,0.16,1.93-1.2,3.26-2.1c2.2,0.16,5.01,0.36,8.6,0.61
			c-0.1-0.24,0.23,0.6,0.69,1.75c5.75-4,10.61-12.2,18.36-3.43c1.38-0.64,2.75-1.29,5.31-2.48c-0.96,1.68-1.3,2.27-1.85,3.22
			c1.08,0.16,2.1,0.3,3.19,0.46c0.56-2.13,1.06-4.03,1.56-5.93c-1.7,3.73,1.18,4.66,3.5,4.72c2.53,0.07,5.08-1.11,7.66-1.53
			c0.81-0.13,1.74,0.43,3.24,0.84c0.35-0.92,0.96-2.51,1.67-4.34c1.97,0.83,6.42-0.33,4.41,5.12c-0.12,0.32,2.22,2.3,3.13,2.11
			c3.61-0.74,3.57-0.95,5.66,0.91c1.34-1.36,2.66-2.69,3.98-4.03c0.33,0.91,0.66,1.82,0.9,2.49c3.8,0.55,7.44,1.07,11.88,1.71
			c-2.91-4.33,0.24-4.94,2.69-5.93c2.52,4.2,6.61,3.52,10.65,3.05c0.74,1.29,1.34,3.56,2.25,3.69c2.42,0.36,4.97-0.2,7.47-0.39
			l0.15-1.28c-3.18-0.77-6.36-1.53-9.54-2.3c0.6-1.3,1.2-2.6,2.02-4.37c2.31,5.8,5.96,1.63,8.67,0.87c2.72-0.77,4.9-3.44,7.11-5.12
			c-0.01,0.1-0.13,1.06-0.32,2.63c1.81-0.29,3.36-0.55,6.19-1c-1.93-1.11-2.67-1.54-3.96-2.29c2.04-0.02,3.45-0.03,4.85-0.04
			c0.81,1.42,1.61,2.84,2.93,5.16c0.62-2.58,0.99-4.06,1.33-5.47c3.81,1.51,7.34,3.92,10.95,4.03c3.25,0.1,6.57-2.33,9.45-3.48
			c2.61,0.99,5.57,2.25,8.65,3c0.27,0.06,1.37-3.31,2.3-5.63c3.99,3.6,9.15-2.12,13.32-0.2c5.55,2.55,8.82-3.5,13.32-2.35
			c-0.36,2.07-1.25,3.98-0.75,5.41c0.32,0.91,2.99,1.85,4.09,1.43c1.77-0.68,3.12-2.47,4.9-4.02c2.35,0.22,5.7,0.53,9.31,0.87
			c0.15-1.23,0.29-2.31,0.46-3.64c2.22,0.88,4.35,1.74,6.71,2.67c1.75-2.14,3.76-4.91,5.78,0.35c1.76-1.46,3.24-2.7,4.72-3.93
			c2.49,2.63,4.07,5.17,7.89,1.43c3.17-3.11,9.54-2.49,12.11-0.37c2.21-1.14,4.39-2.26,6.75-3.48c2.04,3.31,1.3,6.41-1.4,7.92
			c-6.16,3.44-12.23,7.92-20.14,5.73c-0.51,0.72-1.09,1.52-1.86,2.6c-1.29-1.14-2.4-2.31-3.72-3.2c-0.8-0.54-2.09-1.13-2.82-0.84
			c-3.03,1.19-5.81,3.07-8.9,3.98c-2.88,0.85-6.02,0.98-9.06,1.08c-3.95,0.14-7.93-0.19-11.88-0.02c-1.16,0.05-2.72,0.82-3.35,1.77
			c-1.84,2.76-3.47,2.89-6.08,0.86c-2.23-1.74-4.61-2.37-7.28,0.34c-3.79,3.85-8.54,1.87-11.23-4.28c-0.2-0.46-0.18-1.02-0.34-1.98
			c-2.67,4.18-5.04,7.92-7.47,11.62c-0.19,0.29-0.84,0.55-1.17,0.46c-4.12-1.12-8.06,3.25-12.27,0.41
			c-0.27-0.18-1.11,0.57-1.72,0.76c-0.92,0.29-2.36,0.97-2.74,0.61c-2.94-2.77-5.58-4.27-10.2-2.93c-3.98,1.16-8.66-0.24-13.02-0.13
			c-3.46,0.09-6.91,0.76-10.37,1.14c-1.32,0.15-2.71,0-3.94,0.38c-1.09,0.33-2.01,1.21-3.01,1.85c0.16,0.36,0.32,0.71,0.48,1.07
			c1.31-0.01,2.61-0.03,4.3-0.04c-2.45,1.3-4.51,2.39-6.83,3.63c-0.27-0.38-1.2-1.67-2.11-2.94c4.81,2.68,2.8-1.14,3.1-2.72
			c-5.16-2.73-9.55-1.67-13.67,1.72c1.78,0.55,3.49,1.08,5.14,1.6c1.34-0.52,2.76-1.15,4.24-1.56c0.29-0.08,0.82,0.67,1.23,1.03
			c-2.77,1.56-6.04,2.61-8.19,4.78c-3.42,3.46-3.09,3.76-5.93-0.58c-0.2-0.31-0.85-0.33-1.3-0.49l0.05,0.11
			c0.03-0.86-0.14-1.8,0.13-2.58c1.25-3.5,0.18-4.14-3.52-4.75c-3.22-0.53-6.13-1.73-9.3-0.22c-0.89,0.42-1.84,0.79-2.61,1.38
			c-2.66,2.03-2.55,1.78-6.41,0.71c-1.57-0.43-3.57,0.69-5.37,1.11c-3.79,0.88-7.58,1.75-11.36,2.63c-0.23,0.08-0.46,0.17-0.68,0.25
			c-3.86,2.47-1.6,6.71-2.88,9.91c-1.57-1.18-3.14-2.35-4.7-3.52l0.06,1.75l-5.44,2.24c0.13,0.43,0.26,0.85,0.39,1.28
			C392.44,753.63,395.66,753.01,398.88,752.39 M386.65,742.65c-0.14-0.35-0.28-0.7-0.42-1.05c-7.88,0.08-15.75,0.16-24.88,0.25
			c-0.14,1.04-1.15,3.5-0.43,4.2c1.7,1.66,4.22,2.48,5.43,3.13c2.49-1.6,4.3-3.41,6.45-3.99c3.43-0.92,7.09-0.97,10.63-1.5
			C384.53,743.52,385.58,743.01,386.65,742.65 M352.74,745.62c-3.5-3.28-23.41-2.48-26.89,1.53
			C334.55,746.66,343.25,746.16,352.74,745.62 M298.33,743.19c0.13-0.43,0.26-0.86,0.39-1.3c-3.36-1.97-6.83-6.59-9.97,0.86
			c1.56-0.76,2.81-1.37,3.49-1.7C294.52,741.85,296.43,742.52,298.33,743.19"/>
		<path d="M805.72,311.44c-1.75,0.68-3.46,1.59-5.28,1.91c-0.79,0.14-2.11-0.72-2.65-1.49c-1.22-1.76-1.82-4-3.19-5.59
			c-1.84-2.13-4.14-3.88-6.33-5.69c-2.68-2.21-3.75-4.65-1.07-7.84c-1.06-0.7-1.84-1.3-2.69-1.76c-6.62-3.56-6.74-3.62-3.46-10.47
			c1.34-2.8,2.24-4.65-1.85-5.96c-1.83-0.59-3.04-3.11-4.53-4.76c-0.51,0.4-1.01,0.8-1.52,1.21c0.86,1.24,2.35,2.46,2.39,3.72
			c0.04,1.15-1.5,2.35-2.6,3.89c-1.04-1.92-1.77-3.26-2.48-4.57c-2.49,0.66-4.89,1.29-6.97,1.83c-0.42-2.61-0.83-5.12-1.19-7.34
			c0.63,0.3,1.74,0.84,2.84,1.37c0.37-0.26,0.74-0.52,1.12-0.79c-1.57-2.69-3.1-5.41-4.73-8.06c-1.95-3.17-4.02-6.27-5.95-9.46
			c-0.28-0.46-0.2-1.7-0.01-1.77c0.83-0.28,1.86-0.56,2.63-0.3c1.67,0.58,3.23,1.5,4.9,2.3c-0.02-2.25-0.04-3.98-0.05-5.46
			c-1.96-1.61-4.13-3.38-6.3-5.15l-0.15-0.14c-2.08-3.56-4.16-7.12-6.36-10.89c-4.02,3.97,0.55,6.86,0.01,10.04l0.12,0.03
			c-1.11-0.76-2.4-1.35-3.29-2.32c-2.6-2.85-5.04-5.86-8.21-9.59c-0.11,1.97-0.44,2.84-0.14,3.34c1.72,2.9,3.38,5.89,5.47,8.51
			c1.44,1.79,3.56,3.03,5.38,4.52c-0.17,0.87-0.64,1.81-0.45,2.6c0.41,1.67,1.17,3.26,1.78,4.88c-0.38,0.17-0.76,0.35-1.14,0.52
			c-1.13-1.78-2.27-3.55-2.78-4.36c-2.7-0.15-5.01,0.09-6.99-0.61c-0.61-0.21-0.33-2.97-0.51-5.16c-6.12-2.37-3.61-9.92-6.64-14.78
			c-4.94,1.76-8.82-0.71-9.8-6.33c-1.56,0.86-3.17,1.74-4.8,2.63c-1.95-6.39-8.9-11.04-4.47-19.26c-2.05,0.97-4.1,1.93-6.62,3.12
			c0.98-5.55-2.81-7.55-5.97-10.22c-3.4-2.87-6.38-6.24-9.33-9.19c1.96-1.86,3.07-2.92,4.18-3.98c-0.22-0.22-0.45-0.43-0.67-0.65
			c-2.1,0.59-4.2,1.17-6.3,1.76c-0.25-0.46-0.51-0.92-0.76-1.37c1.5-1.87,3-3.73,5.22-6.49c-5.23-1.53-10.07-2.96-14.74-4.33
			c0.04-0.99,0.11-2.56,0.18-4.25c1.89-0.94,5.78-0.14,4.36-4.52c-0.46-0.17-0.86-0.44-1.27-0.44c-5.86-0.04-8.51-1.64-10.41-6.84
			c-0.36-0.97,0.74-2.39,0.79-3.62c0.05-1.23-0.36-2.49-0.57-3.73c-1.2,0.47-2.39,0.93-3.76,1.46c-2.88-2.59-5.44-7.08-11.13-7.45
			c-0.38-3.88,1.19-5.79,5.72-6.71c2.82-0.58,5.59-1.38,8.64-2.15c-0.67-2.79-1.26-5.06-5.02-2.31c-3.44,2.52-5.27,1.66-7.24-2.14
			c-1.65-3.18-3.53-6.32-5.79-9.07c-0.77-0.94-3.04-0.66-4.62-0.93c-0.19,1.19-0.43,2.38-0.56,3.58c-0.17,1.68-0.26,3.37-0.42,5.59
			c-1.78-0.59-3.1-1.03-5.13-1.7c0.93-3.04,1.85-5.87,2.64-8.73c0.33-1.19,0.95-3.08,0.43-3.56c-0.91-0.85-2.62-1.22-3.96-1.16
			c-2.81,0.13-10.58-5.03-10.4-7.65c0.14-1.98,1.54-3.87,2.44-5.94c-2.36-0.68-4.3-1.24-6.76-1.95c0.1-0.95-3.53-3.09,0.65-5.21
			c0.74,1.06,1.21,2.26,2.09,2.87c1.22,0.85,2.75,1.26,4.14,1.85c0.26-1.38,0.73-2.77,0.68-4.13c-0.03-0.62-1.1-1.19-1.7-1.79
			c-0.51,0.73-1.02,1.46-2.09,2.97c-0.37-2.19-0.68-4.02-1-5.91c-0.91,0.72-2.09,1.65-3.38,2.66c-0.57-4.44,4.95-6.31,11.22-4.11
			c0.72-1.26,1.45-2.53,2.21-3.86c1.36,0.07,2.65,0.14,3.94,0.2l-0.08-0.09c0,0.71-0.29,1.63,0.05,2.1
			c2.64,3.61,3.52,7.41,1.68,11.64c-2.12-0.59-3.37,0.06-2.69,1.42c1.11,2.25,2.44,4.91,6.45,2.59c-1.44-1.54-2.67-2.85-3.9-4.17
			c2.89-0.54,5.79-1.09,8.67-1.63c-1.06-1.55-2.15-3.14-3.86-5.66c2.98,1.9,4.85,3.1,6.72,4.3c0.5-0.26,1.01-0.53,1.51-0.79
			c-3.66-2.9-6.44-5.92-2.24-9.72c-3.44-1.99-3.14-3.42,0.3-4.58c4.43,3.96,2.44,7.06-1.09,10.26c1.95-0.68,3.97-2.01,5.85-1.85
			c1.66,0.15,3.18,1.97,4.76,3.05c0.38-0.35,0.76-0.7,1.14-1.06c1.51,4.92,3.01,9.84,4.57,14.93c5.78,1.31,6.41,3.15,2.73,8.15
			c1.11,0.88,2.14,1.87,3.33,2.59c1.22,0.74,2.6,1.22,4.55,2.11c-1.61,0.92-3.12,1.79-4.87,2.79c1.29,2.56,2.17,5.46,5.66,1.69
			c0.67-0.72,2.42-0.76,3.56-0.54c0.42,0.08,0.45,1.85,0.78,2.8c1.18,3.45,2.01,7.1,3.73,10.26c1.42,2.61,2.1,4.52-0.41,7.12
			c2.76-0.89,5.53-1.78,8.33-2.68c2.7,3.52,2.7,3.52,2.15,5.27c0.63,3.07,1.55,6.11,1.8,9.21c0.26,3.15,1.49,4.14,4.11,3
			c1.55,1.97,3.02,3.84,4.65,5.91c-0.56,0.37-1.31,0.85-1.19,0.78c1.97,2.42,3.69,4.76,5.65,6.89c1.75,1.9,3.5,4.06,5.71,5.22
			c2.92,1.53,3.19,3.2,1.42,5.75c2.51,1.71,4.8,3.27,6.38,4.35c0.57,2.73,0.79,5,1.54,7.08c1.11,3.09,3.7,5.54,4.07,9.03
			c0.06,0.52,0.91,1.25,1.5,1.36c4.33,0.83,5.77,3.56,5.2,8.05c-0.19,1.46,1.71,3.36,2.95,4.8c2.26,2.62,6.5,4.86,6.79,7.59
			c0.58,5.56,7.69,7.1,6.86,13.18c-0.14,1.01,3.23,2.18,4.32,3.74c2.62,3.77,4.78,7.85,7.29,11.7c0.74,1.14,1.87,2.36,3.09,2.8
			c3.13,1.13,4.59,3.12,4.42,6.4c-0.13,2.5,0.43,4.48,3.08,5.63c1.06,0.46,2.25,1.89,2.38,2.99c0.63,5.6,3.72,8.97,8.81,10.87
			c0.35,0.13,0.5,0.96,0.61,1.5c0.84,4.13,2.11,7.92,6.75,9.34c0.47,0.14,0.91,0.78,1.12,1.29c1.44,3.56,2.76,7.18,4.26,10.72
			c0.38,0.89,1.27,1.56,1.29,1.59c-0.16,2.36-0.27,4.01-0.37,5.67L805.72,311.44z M668.8,114.68c-1.99-0.53-4.24-0.64-5.92-1.68
			c-3.7-2.29-3.76,0.14-3.44,2.51c0.23,1.75,1.25,3.39,2.03,5.36c3.3-1.38,6.41-2.68,10-4.18c-3.28,4.66-3.31,5.93-0.54,6.74
			c1.38-7.43,1.38-7.43-2.26-8.87c1.3-0.87,2.59-1.73,4.4-2.94c-2.14-1.7-3.79-3-5.45-4.31c-0.49,0.37-0.98,0.75-1.47,1.13
			C667.04,110.52,667.92,112.6,668.8,114.68 M685.59,155.03c3.36-0.25,4.26,2.48,5.67,4.64c1.91,2.93,3.89,5.81,5.84,8.71
			c0.52-0.29,1.04-0.58,1.57-0.88c-1.75-3.8-3.5-7.6-4.78-10.36c2.08,0.2,4.23,0.41,6.84,0.66c-2.17-6.38-3.98-7.6-8.98-6.87
			c1.38-0.23,2.76-0.46,3.7-0.62c1.17-5.33-2.27-5.81-5.54-6.78c0.13,2.39,0.25,4.42,0.37,6.44c-1.64-0.52-3.28-1.04-4.66-1.48
			c0.02,2.15,0.04,4.38,0.09,6.65c-1.38,1.21-2.76,2.43-4.29,3.77c0.89,1.46,1.67,2.73,2.68,4.39
			C685.91,160.39,687.46,158.02,685.59,155.03 M651.57,100.48c2.6,3.18,4.91,6.01,7.22,8.85c0.45-0.25,0.9-0.51,1.36-0.77
			c0.33-2.43,0.67-4.85,1-7.28c-0.25-0.08-0.49-0.16-0.74-0.24c-0.7,0.93-1.4,1.87-2.08,2.78c-1.68-1.93-3.16-3.63-4.82-5.55
			C652.66,99.23,652.1,99.88,651.57,100.48 M725.07,201.07c2,2.05,3.86,3.96,5.72,5.87c0.43-0.3,0.85-0.59,1.28-0.89
			c-1.28-3.53-2.55-7.05-3.83-10.57c-0.4,0.12-0.8,0.25-1.19,0.37C726.35,197.7,725.66,199.53,725.07,201.07 M712.14,185.3
			c-0.49,0.23-0.98,0.45-1.47,0.68c-1.2,2.71,0.93,6.35,5.74,7.44L712.14,185.3z M729.87,214.15c-2.2,3.83,0.34,5.39,2.9,6.45
			c0.94,0.39,2.48-0.66,3.74-1.04C733.94,217.46,732.11,215.97,729.87,214.15 M700.73,180.45c-0.22-0.75-0.44-1.5-0.66-2.25
			c-1.76,0.47-3.51,0.93-5.27,1.4c0.31,0.86,0.81,2.49,0.91,2.46C697.41,181.64,699.07,181.02,700.73,180.45"/>
		<path d="M584.54,36.68c-2.53-0.44-5.09-1.34-7.58-1.18c-2.01,0.12-3.94,1.51-6.14,2.44c-0.54-0.81-1.46-2.2-2.39-3.59
			c-1.24,0.43-2.67,1.49-3.74,1.21c-5.01-1.31-8.45,1.92-11.28,4.62c-3.69,3.53-6.99,0.69-10.35,1.66c-0.09-0.35-0.19-0.7-0.28-1.05
			c1.25-0.72,2.49-1.45,3.74-2.17c-0.21-0.38-0.42-0.77-0.63-1.15c-2.34,1.39-4.67,2.78-7.03,4.18c-0.71-1.39-1.26-2.46-1.81-3.54
			c-0.8,0.98-1.51,2.06-2.43,2.92c-1.77,1.66-3.65,3.18-6.17,4.02c0.23-0.62,0.47-1.25,0.71-1.89c-2.1-0.08-4.12-0.15-6.14-0.23
			c-1.96-0.08-3.92-0.18-6.83-0.31c1.41-1.15,2.12-1.73,2.9-2.37c-3.97-1.7-4.89-1.16-5.53,2.42c-2.8,0.3-5.31,0.58-8.58,0.93
			c3.34-1.7,5.98-3.05,8.63-4.4c-0.27-0.56-0.54-1.12-0.81-1.68c-3.68,1.6-7.37,3.21-11.18,4.86c-0.84-1.26-7.88-2.1-8.48-0.21
			c-1.28,4.05-4.87,1.65-7.08,3.02c-1.02,0.63-2.89-0.11-4.02-0.19c1.18-0.73,2.63-1.61,4.07-2.5c-0.14-0.37-0.28-0.75-0.42-1.12
			c-3.39,0.24-6.83,0.25-10.16,0.83c-1.51,0.27-2.71,2.05-4.24,2.52c-3.21,0.97-6.55,1.53-9.84,2.26l0,0.01
			c-6.65-0.04-13.29-0.02-19.94-0.16c-2.31-0.05-4.63-0.41-6.92-0.8c-3.15-0.54-6.28-1.23-9.22-1.82c0.75-1.01,1.84-2.5,2.2-2.98
			c2.15,0.83,4.23,1.65,6.59,2.56c-0.31-6.23,0.71-6.62,6.6-6.51c5.59,0.11,11.2-1.14,16.82-1.5c4.28-0.27,8.59,0,12.88-0.13
			c2.13-0.07,4.25-0.6,6.38-0.75c6.11-0.43,12.22-0.96,18.35-1.12c7.44-0.2,14.9,0.18,22.32-0.2c4.13-0.21,8.19-1.96,12.32-2.12
			c8.9-0.34,17.83,0.19,26.72-0.21c5.29-0.23,10.51-1.69,15.79-2.27c1.32-0.15,2.78,0.99,4.18,1.54c0.08,0.53,0.15,1.06,0.23,1.59
			c0.79-0.91,1.57-1.82,3.13-3.63c11.16-0.58,23.97-1.26,36.78-1.93c0.03,0.19,0.07,0.38,0.11,0.56
			c-5.17,1.55-10.36,3.01-15.47,4.73c-0.76,0.26-1.34,1.66-1.61,2.64c-0.5,1.89-1.57,2.3-3.55,1.39c-0.46-0.21-1.63,0.25-1.95,0.74
			c-2.28,3.45-3.42,3.35-5.84-0.34c-0.39-0.6-1.74-0.56-2.64-0.82c0.16-1.65,0.32-3.29,0.48-4.94c-2.5,0.9-5,1.79-7.5,2.68
			c1.63,1.25,3.03,1.3,4.29,1.74C583.61,35.16,584.02,36.08,584.54,36.68 M522.52,39.52c-0.03,0.3-0.06,0.6-0.09,0.9
			c1.85,0.18,3.69,0.35,4.87,0.47c2.41-2.25,4.29-3.99,6.16-5.74c-0.22-0.31-0.44-0.63-0.67-0.94
			C529.37,35.98,525.94,37.75,522.52,39.52"/>
		<path d="M210.8,68.06c1.68-0.22,1.68-0.22,1,3.06c-1.96-0.53-3.9-1.06-6.4-1.74c0.06,0.55-0.15,1.69,0.27,2.02
			c1.32,1.04,2.88,1.77,4.45,2.68c-0.87,0.71-2.48,2.02-4.24,3.47c0.99,0.71,1.61,1.16,3.15,2.27c-3.31,1.1-5.81,1.94-9.53,3.17
			c2,0.5,3.15,0.71,4.26,1.09c0.74,0.26,1.4,0.76,2.1,1.15c-0.49,0.76-0.81,1.91-1.5,2.23c-3.17,1.47-5.22,3.26-2.77,7.32
			c-4.55,1.46-7.1,3.89-8.08,8.98c-0.78,4.07-4.44,7.58-6.85,11.37c1.14,0.86,1.81,1.37,2.65,2c-0.37,0.55-0.65,1.03-1,1.46
			c-1.68,2.09-3.6,4.02-5.01,6.28c-1.84,2.93-3.91,4.65-8.39,2.47c0.04,3.74,0.05,6.78,0.1,9.82c0.06,3.44,0.17,6.44-3.87,8.5
			c-2.03,1.03-2.78,4.59-3.18,7.56c-2.31,1.1-4.88,1.88-6.79,3.46c-0.78,0.64-0.1,3.04-0.08,4.91c-2.82,0.27-5.52,1.25-4.13,6.09
			c1.63-1.92,2.99-3.52,4.35-5.12c-2.39,1.68,1.13,6.89-3.75,7.14c-2.77,0.14-5.51,0.72-8.26,1.09c-0.3-0.59-0.59-1.18-0.88-1.77
			c1.32-1.24,3.08-2.26,3.84-3.79c1.05-2.11,1.53-4.57,1.83-6.94c0.07-0.55-1.56-1.31-2.86-2.33c0.79-2.24,1.72-5.2,2.88-8.07
			c1.56-3.87,2.25-8.05,8.02-8.88c2.62-0.38,4.74-4.19,7.08-6.45c-0.42-0.53-0.84-1.06-1.25-1.58l-6.13,3.68
			c-0.12-0.23-0.23-0.46-0.35-0.68c1.93-3.34,4.21-6.53,5.69-10.06c1.46-3.51,3.28-5.04,7.7-3.75c-0.47-0.86-0.81-1.85-1.45-2.55
			c-0.6-0.65-2.27-1.27-2.21-1.43c0.67-1.8,1.21-3.95,2.55-5.1c1.1-0.94,3.25-0.66,5.77-1.06c0.62-1,1.9-3.09,3.48-5.64
			c0.99,1.37,1.63,2.26,2.27,3.14c0.88-1.72,1.75-3.43,2.9-5.71c-3.74,0.79-6.89,1.46-10.98,2.33c2.64-4.69,4.96-9.33,7.86-13.58
			c0.74-1.09,3.4-0.72,5.01-1.41c1.18-0.5,2.1-1.64,2.54-3.18c-1.84,0.26-3.67,0.52-5.92,0.84c2.2-3.92,3.93-7.01,5.59-9.96
			c0.7,1.1,1.43,2.25,2.15,3.4c1-1,1.87-2.22,3.04-2.95c4.48-2.79,5.51-7.75,7.31-12.3c2.19,1.41,3.87,2.49,5.54,3.57
			C210.46,68.37,210.63,68.22,210.8,68.06 M166,129.39c5.27,0.03,6.64-2.14,4.87-7.63C169.17,124.42,167.77,126.61,166,129.39"/>
		<path d="M744.2,564.47c2.79-4.51,0.65-8.67-0.48-13.46c0.34-0.48,1.13-1.53,1.85-2.62c1.45-2.23,1.48-3.41-1.8-3.87
			c-2.4-0.34-4.92-1.8-3.53-5.06c2.14,1.15,4.21,2.35,6.38,3.35c0.53,0.24,1.88-0.05,2.01-0.41c1.92-5.27,3.69-10.59,5.5-15.88
			c-2.94,0.89-5.58,1.68-9.36,2.82c2.87-2.87,5.04-5.04,7.21-7.21c-0.28-0.3-0.57-0.61-0.85-0.91c-0.52,0.41-1.04,0.82-1.65,1.31
			c-0.21-2.21-0.4-4.22-0.62-6.48c-2.88-0.01-4.55,0.46-5.41,3.73c-0.78,2.95-3.33,5.35-3.42,8.78c-0.02,0.78-1.16,1.66-1.95,2.26
			c-1.05,0.81-2.27,1.39-4.08,2.46c-2.17-1.08-0.78-3.08,0.29-5.07c0.66-1.24,1.25-2.52,2.28-4.6c1.93-0.25,2.65-1.74,2.01-4.96
			c-0.36-1.8,1.6-4.05,3.26-5.75c-2-7.19,3.88-10.05,8.07-13.77c1.8-1.6,2.99-2.96,1.49-5.59c-3.01-5.25-2.79-5.5,3.45-6.32
			c-0.73,0.2-1.47,0.39-3.3,0.88c2.29,1.21,3.84,2.02,4.7,2.48c0.27,1.95,0.92,3.68,0.62,5.22c-0.28,1.44-1.57,2.68-2.87,4.73
			c0.06,0.22,0.44,1.58,0.84,2.99c2.21-1.64,4.26-2.86,3.89-6.3c-0.17-1.63,2.06-3.5,3.95-4.88c-1.09,1.84-2.18,3.68-3.39,5.71
			c5.48,0.74,2.58,6.06,4.58,9.16c2.85-1.26,5.66-2.51,8.46-3.75c0.86,1.12,2.18,2.84,4.13,5.37c-0.58,1.68-1.48,4.27-2.4,6.86
			c-0.15,0.42-0.31,1.08-0.6,1.16c-7.27,2.05-4.82,9.68-8.07,14.04c-2.12,2.85-4.01,5.87-6,8.82c-0.24,0.35-0.66,0.7-0.68,1.06
			c-0.27,6.13-5.06,10.1-7.21,15.3c-0.51,1.22-0.17,2.79-0.21,3.69c-2.54,4.84-4.96,9.45-7.49,14.29c-2.53-0.7-3.45-2.56-3.2-5.21
			c0.22-0.45,0.46-0.93,0.7-1.4C742.27,566.47,743.23,565.47,744.2,564.47 M758.04,512.83c0.41,1.99,0.66,3.21,0.84,4.12
			c2.21-0.95,4.45-1.91,6.93-2.98c-2.98-1.25-5.59-2.34-8.86-3.71c-0.98,1.71-2.23,3.87-3.47,6.04c0.48,0.3,0.96,0.61,1.44,0.92
			C755.71,516.11,756.49,515,758.04,512.83"/>
		<path d="M116.92,220.24c0.02-3.66,1.22-6.52,4.86-8.11c0.84-0.37,1.72-1.68,1.8-2.63c0.71-9.23,4.4-9.99,10.38-12.4
			c0.48-0.2,1.57,1.11,2.38,1.72c-0.04,0.07-0.07,0.15-0.09,0.22c-0.1,2.14-0.2,4.27-0.33,7.24c1.89-1.78,2.81-2.65,4.6-4.32
			c-0.53,2.99-0.81,4.53-0.99,5.58c-2.24,2.19-4.3,4.2-6.37,6.23c3.7,3.45,2.17,7.1-3.56,9.55c-5.55,2.38-7.22,6.5-4.55,12.06
			c-2.85,1.75-6.3,0.74-9.59,2.65c-5.28,3.07,2.22,7.26-2.86,9.23c0.09-1.37,0.17-2.48,0.27-3.83c-0.55-0.03-1.56-0.18-1.59-0.08
			c-0.6,2.25-1.09,4.54-1.81,7.72c2.63-0.61,3.86-0.89,5.29-1.22c-0.05,0.37,0.01,0.8-0.17,1.09c-0.29,0.48-0.65,1.12-1.12,1.26
			c-2.3,0.69-3.52,2.21-2.09,4.2c0.52,0.72,2.92,0.09,5.56,0.06c-2.62,1.34-4.79,2.45-6.96,3.55c0.18,0.11,0.37,0.22,0.55,0.33
			c-1.79,1.73-3.77,3.3-5.28,5.24c-0.81,1.03-0.79,2.7-1.2,4.07c-0.41,1.34-0.89,2.67-1.99,3.64c0.03,3.04,0.56,6.19-0.14,9.05
			c-0.3,1.23-3.12,1.86-5.52,3.15c-0.86,2.96-2.01,6.91-3.19,10.99c-1.87,0.02-3.72,0.04-5.87,0.06c-0.01-1.05-0.02-2.28-0.04-3.88
			c-1.53,0.22-2.8,0.4-4.93,0.71c1.25-2.25,1.82-4.8,3.38-5.8c4.89-3.15,4.64-8.31,5.66-12.93c0.19-0.87-1.58-2.17-2.93-3.9
			c1.26-0.01,2.39-0.02,3.9-0.04c-1.05-6.15,0.14-12.09,6.95-15.83c-1.53-7.15,3.13-10.2,9.85-11.77c-0.22-0.32-0.43-0.64-0.64-0.96
			c-0.99-0.35-1.98-0.69-3.95-1.37c2.88-4.57,5.64-8.97,8.41-13.36c-1.42,3.85-2.84,7.7-4.25,11.55c7.25-4.7,8.23-13.91,14.39-19.66
			c-0.84-1.26-1.69-2.53-2.9-4.36C118.9,217.07,117.91,218.65,116.92,220.24 M99.45,268.41c-0.72-3.66-1.23-6.25-1.73-8.83
			c-0.44,0.1-0.89,0.19-1.33,0.29c-0.66,2.07-1.31,4.15-2.04,6.44C95.77,266.89,96.96,267.38,99.45,268.41"/>
		<path d="M378.6,51.91c-0.64-1.23-1.27-2.47-1.74-3.38c-10.71,0.11-21.74,0.22-32.77,0.32c-0.02,0.58-0.03,1.15-0.05,1.73
			c1.06,0.12,2.14,0.37,3.2,0.32c0.93-0.04,1.84-0.43,2.75-0.66c0.17,0.42,0.33,0.83,0.5,1.25c-1.43,0.58-2.86,1.16-4.72,1.91
			c1.07,3.35,2.04,7.17-2.2,9.28c-0.96,0.48-2.63-0.46-4.55-0.86c-2.55,1.34-5.73,3-9.23,4.84c0.93,1.41,1.59,2.42,2.1,3.19
			c-1.68-0.26-3.35-0.52-5.85-0.9c-0.37-1.28-0.96-3.29-1.59-5.46c-0.96-0.15-2.46-0.37-3.95-0.6c3.13-2.55,10.16,3.03,8.41-6.92
			c4.85,5.11,5.96-0.29,9.14-1.81c-2.65-1.41-4.68-2.49-7.39-3.94c-0.47-1.72-1.19-4.39-1.93-7.13c0.09-0.08,0.34-0.44,0.48-0.4
			c5.69,1.58,11.25-2.4,16.43-1.14c5.26,1.28,9.79,0.4,14.65-0.59c1.87-0.38,3.81-0.65,5.71-0.6c1.36,0.03,2.71,0.67,3.77,0.96
			c2.03-0.52,4.06-1.41,6.13-1.5c8.06-0.32,16.33-1.5,24.14-0.14c5.43,0.94,9.89-1.14,14.81-1.06c1.15,0.02,2.28,1.05,3.43,1.61
			c-0.81,0.93-1.55,1.95-2.45,2.77c-1.09,0.99-2.33,1.81-3.5,2.7c0.63,0.77,1.26,1.55,1.9,2.32c-0.1,0.32-0.2,0.64-0.3,0.96
			c-1.96-0.87-3.92-1.75-6.08-2.71c-1.52,4.04-4.96,4.93-9.51,3.53c-1.73-0.53-3.66-0.38-5.86-0.57c0.55-2.28,1.06-4.37,1.51-6.22
			c-2.56,0.02-5.57-0.77-7.47,0.34c-1.46,0.85-1.53,4.09-2.17,6.14c-1.76,0.77-3.8,1.66-5.84,2.54L378.6,51.91z"/>
		<path d="M741.31,567.46c-0.24,0.48-0.47,0.95-0.7,1.4c-4.39,4.13-0.39,6.39,2.32,9.42c-1.65,1.26-3.3,2.52-5.72,4.37
			c-0.25-2.48-0.38-3.68-0.48-4.67c-1.63,0.96-3.16,1.92-4.73,2.79c-4.82,2.67-5.05,3.73-1.05,9.03c1.56-1.84,2.99-3.52,4.96-5.84
			c0.15-0.02,1.41-0.24,2.81-0.47c0,0.4,0.15,0.86-0.01,1.17c-3.16,6.14-6.4,12.25-9.51,18.42c-0.71,1.41-0.68,3.26-1.55,4.52
			c-1.3,1.86-2.82,3.97-4.76,4.9c-2.66,1.28-6.85,0.79-7.21,4.5c-0.21,2.17,2.06,4.58,2.96,6.4c-1.85,4.17-3.7,8.51-5.72,12.77
			c-0.46,0.97-1.49,1.68-2.26,2.51l0.13,0.19c2.77-3.35-1.94-5.87-1.05-9.06c0.16-0.55-0.83-1.6-0.6-1.92
			c3.23-4.41,1.05-9.7,2.41-14.42c0.47-1.61-0.11-3.51-0.22-5.54c-2.14,1.01-3.63,1.42-4.74,2.31c-1.54,1.22-4.22,2.15-1.68,5.12
			c0.72,0.84-0.03,2.96-0.12,4.49c-0.69-0.04-1.38-0.08-2.07-0.12c0.2-3.73,0.03-7.54,0.78-11.15c0.29-1.4,2.55-2.54,4.11-3.48
			c1.47-0.89,3.2-1.36,5.4-2.25c-5.46-4.13-3.47-7.34-0.97-11.85c1.48-2.66,3.43-3.89,7.38-1.29c-2.53,0.03-3.97,0.04-5.44,0.05
			c0.06,5.49,0.11,10.67,0.17,16.69c2.43,0.7,5.22,1.51,8.54,2.47c-2.18-5.32-2.18-5.32,2.21-22.32c-1.63,0.02-3.21,0.03-4.78,0.05
			c-0.06-0.26-0.13-0.51-0.19-0.77l7.79-3.01c-0.14-0.46-0.28-0.92-0.42-1.39c-0.84-0.07-1.69-0.14-2.53-0.21
			c-0.08-0.28-0.15-0.56-0.23-0.84c2.62-0.86,5.24-1.72,8.19-2.69c-0.73-1.23-1.38-2.31-1.71-2.86c2.2-2.4,4.03-4.59,6.09-6.54
			c0.89-0.84,2.29-1.15,3.45-1.7C740.82,566.91,741.06,567.19,741.31,567.46"/>
		<path d="M643.19,706.36c-3.84-3.47-0.75-7.72,0.58-9.58c2.83-3.96,4.74-10,10.76-9.83c2.09-4.65,4.19-9.05,6.04-13.55
			c0.96-2.34,1.3-4.94,2.25-7.29c0.62-1.52,1.62-3.02,2.8-4.14c2.58-2.45,6.69-3.32,6.18-8.51c-0.34-3.51,3.7-4.97,8.63-3.09
			c-1.92,1-3.36,1.76-5.01,2.61c-0.01,4.05-0.93,7.63-3.71,11.19c-2.41,3.09-2.93,7.64-4.3,11.54c-0.19,0.55-0.32,1.23-0.72,1.58
			c-4.78,4.27-5.33,10.52-7.6,15.96c-0.44,1.04-1.36,1.89-2.06,2.82c-1.22,1.64-2.88,3.12-3.58,4.96c-1.66,4.39-1.48,4.46-5.53,5.73
			c0.86,0.6,1.45,1.01,2.71,1.9c-2.82,3.13-5.97,5.98-8.28,9.39c-1.71,2.53-2.62,2.08-4.39,0.42c-0.67-0.63-1.9-0.66-3.51-1.16
			C637.38,713.65,640.31,709.97,643.19,706.36"/>
		<path d="M708.01,592.69c-2.59,5.12-5.16,10.25-7.78,15.35c-1.26,2.44-2.83,4.74-3.91,7.26c-1.7,3.94-3.06,8.03-4.65,12.02
			c-0.55,1.37-1.17,2.8-2.12,3.9c-3.32,3.84-5.95,7.95-7.12,13.01c-0.22,0.98-2.23,1.55-2.82,1.93c-2.04-1.46-3.6-2.56-5.76-4.1
			c-0.02-0.12-0.27-1.48-0.47-2.59c2.05-0.43,4.48-0.3,5.88-1.44c1.47-1.2,1.85-3.67,2.9-5.48c1.04-1.81,2.3-3.48,3.88-5.81
			c-0.92-1.01-2.23-2.47-3.89-4.3c-0.15-4.03,6.55-6.73,3.73-12.35c2.8-0.55,5.73-0.72,8.26-1.79c1.37-0.58,4.02-1.46,2.4-4.6
			c-1.08-2.1-1.35-4.83-1.27-7.26c0.08-2.31-0.61-5.35,3.49-5.94c1.05-0.15,2.84-3.92,2.3-4.87c-2.28-3.94,1.28-4.67,2.99-5.95
			c3.16-2.35,6.71-4.17,9.89-6.08c0.27,6.48-2.2,12.97-5.91,19.11c-0.97-0.3-1.93-0.61-2.47-0.77c1.17-3.25,2.13-5.89,3.28-9.1
			c-6.64,3.24-7.07,4.4-4.8,11.6C705.35,593.84,706.68,593.26,708.01,592.69"/>
		<path d="M601.03,68.66c-2.63-1.29-5.04-3.35-7.47-3.37c-1.63-0.02-3.28,2.85-5.57,5.06c1.94-6.28,6.67-9.77,12.22-10.41
			c4.45-0.51,8.84-1.61,13.49-2.5c-0.1,3.18,2.24,3.42,5.4,3.19c2.96-0.22,6.09-0.13,8.92,0.65c2.22,0.61,4.08,2.5,6.35,3.98
			c-3.68-0.37-6.64-0.66-9.78-0.97c-2.48,4.36,1.36,6.26,4.5,8.52c-1.16,1.57-2.18,2.94-3.82,5.15c-2.4-3.85-4.43-7.1-6.46-10.34
			c0.83-0.71,1.62-1.38,2.4-2.05c-0.13-0.34-0.25-0.67-0.38-1.01C614.04,65.96,607.24,67.37,601.03,68.66"/>
		<path d="M791.05,336.43c0.01,1.75-0.29,3.58,0.12,5.24c0.36,1.45,1.19,3.27,2.37,3.93c3.18,1.77,7.36,1.81,8.74,6.38
			c0.3,1,2.88,1.24,4.33,1.97c0.94,0.47,2.37,1.1,2.48,1.83c0.18,1.11-0.38,2.5-1.01,3.54c-0.78,1.28-1.9,2.37-2.99,3.43
			c-1.62,1.58-3.35,3.07-5.79,5.28c0.19-3.73-0.57-4.77-3.87-5.42c-5.37-1.06-5.74-3.1-3.89-9.1c-1.51,0.27-2.86,0.52-4.94,0.89
			c1.3-2.29,2.34-4.1,3.57-6.26c-1.33-2.86-2.81-6.04-4.03-8.66c1.36-0.84,3.14-1.94,4.92-3.04
			C791.07,336.43,791.05,336.43,791.05,336.43"/>
		<path d="M263.98,58.88c-1.48,2.17-2.95,4.33-4.57,6.72c0.65,0.15,1.58,0.28,2.45,0.6c3.74,1.37,7.46,2.79,12.43,4.66
			c-1.94,0.13-2.74,0.22-3.55,0.24c-1.44,0.03-3.71-0.55-4.2,0.14c-2.95,4.17-5.68,2.12-8.44-0.16c-2.4,7.52-7.47,9.68-15.6,7.25
			c-2.11-0.63-4.5-0.32-7.06-0.45c0.4-1.73,6.36-0.01,2.11-4.24c7.7-0.5,15.12-0.47,13.9-10.95c5.13,1.1,9.18,0.19,11.32-5.29
			C263.17,57.89,263.58,58.39,263.98,58.88"/>
		<path d="M785.63,483.04c0.77,0.96,1.54,1.91,2.51,3.13c-2.74,0.51-4.92,0.91-7.86,1.45c1.34,0.63,2.18,0.95,2.95,1.4
			c0.7,0.41,1.32,0.95,1.98,1.43c-0.46,0.58-1.12,1.1-1.34,1.77c-0.76,2.28-1.37,4.61-2.14,7.29c-2.93,0.14-6.11,0.61-2.52,5.14
			c-6.77-2.76-8.81-10.25-4.65-15.28c0.64-0.78,1.19-1.72,1.51-2.68c1.6-4.74,4.6-5.83,9.67-3.44
			C785.73,483.24,785.63,483.04,785.63,483.04"/>
		<path d="M765.82,458.05c7.01-5.42,12.34-13.04,17.83-22.01c0.54,5.42-7.05,19.58-9.72,20.11c0.07,1.28,0.14,2.57,0.19,3.51
			c-1.84,0.88-4.48,1.42-4.63,2.37c-0.38,2.32,0.38,4.82,0.83,8.42c-1.09,0.62-3.27,1.85-6.33,3.57
			C764.68,467.96,765.23,463.21,765.82,458.05"/>
		<path d="M728.47,540.78c-0.82,2.46-1.62,4.86-2.41,7.26c0.34,0.18,0.68,0.36,1.01,0.54c1.01-1.56,2.03-3.12,3.35-5.16
			c0.02,1.53,0.13,2.73,0.01,3.91c-0.12,1.22-0.46,2.42-0.7,3.64c-3.04-0.69-4.71,1.35-4.66,5.92c0.06,5.73-1.9,6.94-7.15,4.18
			c-0.67,0.88-1.22,1.99-2.11,2.62c-0.48,0.34-1.6,0.04-2.29-0.29c-0.27-0.13-0.38-1.26-0.13-1.68c1.5-2.56,3.21-5,4.66-7.58
			c0.98-1.75,1.53-3.72,2.47-5.49c1.41-2.66,2.78-5.4,4.64-7.73C725.71,540.23,727.83,540.79,728.47,540.78"/>
		<path d="M64.24,429.18c6.7-4.07-0.31-10.11,3.26-14.73c1.28,2.36,2.37,4.56,3.62,6.66c2.72,4.58,5.69,9.01,8.16,13.72
			c0.68,1.3-0.02,3.34-0.07,4.52c-4.31-2.52-7.83-4.58-11.74-6.87c1.22-0.53,2.19-0.96,3.15-1.39c0.07-0.4,0.13-0.79,0.19-1.19
			C68.62,429.66,66.43,429.42,64.24,429.18"/>
		<path d="M440.87,743.94c-1.44,5.06-6.75,5.43-10.06,6.09c-5.1,1.01-10.75-0.73-16.16-1.3c0.02-0.44,0.04-0.88,0.05-1.32
			c2.84-0.3,5.69-0.54,8.52-0.93c0.63-0.09,1.38-0.59,1.76-1.13c4.4-6.22,9.8-6.69,15.94-1.31
			C440.93,744.05,440.87,743.94,440.87,743.94"/>
		<path d="M807.47,431.75c0.25,0.39,0.65,1.02,1.06,1.65c1.66-1.48,3.33-2.97,5.65-5.04c-0.14,1.32-0.05,2.63-0.5,3.72
			c-0.27,0.66-1.32,1.24-2.11,1.41c-6.47,1.39-8.45,6.07-8.65,11.56c1.1,0.71,2.86,1.24,3.18,2.24c0.34,1.04-0.39,3.29-1.22,3.64
			c-1.14,0.48-2.82-0.33-4.27-0.59c-1.86-0.34-3.73-0.68-6.12-1.11C796.9,441.85,800.81,435.81,807.47,431.75"/>
		<path d="M710.8,638.87l-0.13-0.19c-4.28,4.85-8.55,9.7-12.83,14.56c-0.39-0.32-0.77-0.64-1.16-0.95c0.7-1.18,1.41-2.35,2.1-3.53
			c-1.08-0.67-2.12-1.31-3.92-2.42c2.75-0.36,4.66-0.61,6.58-0.86c-0.14-9.82,1.97-16.87,4.42-17.71
			C707.55,631.56,709.17,635.22,710.8,638.87"/>
		<path d="M57.01,455.87c4.99-1.48,7.2,0.59,9.39,9.01c-1.54,0.88-3.14,1.8-4.74,2.72c0.4,0.17,0.8,0.34,1.21,0.51
			c-0.73,2.12-1.46,4.25-2.6,7.55c-1.45-3.81-1.16-8.6-6.29-5.77c10.37-5.71,0.41-8.27-2.16-11.93c5.43-0.16,5.43-0.16,5.33-2.21
			L57.01,455.87z"/>
		<path d="M87.37,453.06c-0.06,0.06-0.13,0.12-0.2,0.18c-2.33,0.31-4.66,0.61-6.99,0.92c0.01,0.3,0.02,0.6,0.02,0.9
			c0.66,0.17,1.32,0.35,2.47,0.65c-0.83,0.35-1.35,0.74-1.54,0.62c-3.02-1.85-3.51-4.3-1.58-7.26c0.22-0.33,0.35-0.72,0.52-1.08
			c-0.39-0.25-0.79-0.51-1.18-0.76c-0.88,1.51-1.77,3.01-2.62,4.46c-0.71-2.21-1.48-4.6-2.46-7.67c4.37,2.01,7.07,0.52,9.17-3.19
			C83.03,445.64,89.61,447.67,87.37,453.06"/>
		<path d="M46.11,349.88c0.84-0.2,1.69-0.35,2.51-0.6c1.66-0.52,4.19-0.61,4.78-1.72c2.01-3.82,4.52-2.4,7.02-1.21
			c1.47,0.7,2.72,1.88,4.13,2.88c-3.04,3.69-4.5-2.04-7.03-1.26c0.94,4.2,3.48,5.46,7.65,3.8c-2.16,5.2-4.56,7.05-11.15,7.76
			c2.06-1.33,4.12-2.67,6.17-4c-0.41-0.62-0.81-1.25-1.22-1.88c-1.3-0.11-2.6-0.22-3.97-0.33c0.21-0.57,0.44-1.19,0.82-2.23
			c-3.29-0.18-6.39-0.34-9.49-0.51C46.26,350.35,46.19,350.11,46.11,349.88"/>
		<path d="M679.14,679.53c3.43-5.37,4.69-12.15,10.15-16.29c-0.94-0.77,1.43-7.05,5.62-12.12c-1.16,4.06-3.18,7.03-1.66,10.99
			c1.15,3-1.38,4.83-4.73,4.37c0.54,3.59,1.08,7.23,1.72,11.52c-1.58-2.67-2.74-4.63-4.11-6.94c-1.82,3.18-3.64,6.35-5.46,9.52
			C680.16,680.22,679.65,679.87,679.14,679.53"/>
		<path d="M144.38,188.77c0.76-2.08,1.52-4.16,2.36-6.49c-3.1-0.34-6.19-0.68-9.27-1.01c-0.17-0.43-0.33-0.87-0.5-1.3
			c4.44,0.18,7.87-0.73,7.12-6.09c-1,0.19-2.27,0.43-3.54,0.67l-0.26-1.29c3.46-0.75,6.93-1.51,10.39-2.26
			c0.12,0.41,0.24,0.81,0.36,1.22c-1.03,0.5-2.05,0.99-3.53,1.71c1.37,0.65,2.36,1.11,3.41,1.61c-1.35,0.95-4.85,1.76-0.85,2.54
			c-0.92,2.99-2.41,5.88-2.58,8.86c-0.19,3.33-1.68,2.15-3.28,1.71C144.21,188.65,144.38,188.77,144.38,188.77"/>
		<path d="M38.55,379.34c0.27,1.05,0.95,2.23,0.77,3.26c-0.68,3.89-1.49,7.57,3.43,9.55c0.49,0.2,0.18,2.84-0.07,4.29
			c-0.44,2.65-2.07,3.71-4.63,2.89c0.54-1.5,3.49-2.6-0.42-4.67c-1.83-0.97-1.77-5.51-2.46-8.05c-0.27,0.29-1.37,1.48-2.48,2.67
			c-0.39-0.32-0.77-0.64-1.16-0.96C33.72,385.53,35.91,382.73,38.55,379.34"/>
		<path d="M57.15,455.75c-1.89-0.07-3.78-0.13-6.65-0.24c1.09-4.06,1.71-8.14,3.29-11.81c1.64-3.83,3.83-1.45,5.69,0.37
			c-1.04,1.17-2.08,2.34-2.82,3.17c1.8,1.6,3.49,3.1,5.58,4.95c-2.65,1.21-6.57-0.89-5.23,3.68
			C57.01,455.87,57.15,455.75,57.15,455.75"/>
		<path d="M805.6,311.56c2.8,0.87,6.51-2.48,8.57,1.96c1.04,2.23,2.4,4.31,3.82,6.84c-3,0.32-5.87,3.47-8.28-1.45
			c-0.68-1.4-3.68-1.67-5.93-2.58c0.67-1.68,1.3-3.27,1.93-4.87C805.72,311.44,805.6,311.56,805.6,311.56"/>
		<path d="M401.8,742.58c0.23-0.08,0.46-0.17,0.68-0.25c6.45-0.06,12.91-0.13,19.37-0.19c0.06,0.11,0.13,0.22,0.19,0.33
			c-1.54,0.37-3.08,0.79-4.63,1.1c-2.51,0.5-4.95,0.86-5.08,4.32c-0.03,0.73-1.3,1.81-2.17,2.02c-2.04,0.48-4.18,0.53-6.4-0.21
			l5.2-0.57c0.02-0.18,0.04-0.37,0.06-0.55c-1.29-0.27-2.58-0.54-4.45-0.93c0.74-0.92,1.3-1.61,1.92-2.38
			C404.93,744.38,403.37,743.48,401.8,742.58"/>
		<path d="M263.39,765.61c0.6,0.99,0.98,2.41,1.86,2.86c1.68,0.86,3.64,1.17,5.49,1.7c-0.1,0.5-0.2,0.99-0.3,1.48
			c-4.72-0.28-9.45-0.57-14.53-0.88c0.01-0.06-0.11,0.97-0.3,2.66c-1.5-0.86-2.68-1.53-3.84-2.2c1.09-1.55,1.99-2.82,2.78-3.94
			c2.91-0.55,5.86-1.12,8.82-1.68L263.39,765.61z"/>
		<path d="M144.38,188.77c0,0-0.18-0.12-0.18-0.12c0.61,1.12,1.22,2.25,2.15,3.97c-1.6-0.22-2.62-0.36-4.88-0.67
			c1.21,2.19,2.07,3.72,2.95,5.31c-1.57,0.77-3.62,1.92-5.8,2.73c-0.59,0.22-1.57-0.6-2.37-0.94c0.03-0.07,0.06-0.15,0.1-0.22
			c0.16-1.71,0.32-3.43,0.48-5.09c1.15-0.16,2.27-0.32,3.39-0.48c-0.42-0.99-1.2-1.99-1.18-2.98c0.04-1.94,0.52-3.87,0.81-5.81
			l-0.02,0C142.05,185.15,140.24,190.1,144.38,188.77"/>
		<path d="M568.11,70.03c1.26-3.48,4.21-4.59,7.01-2.9c1.87,1.13,3.9,2.05,4.87-1.26c0.25-0.85,1.13-1.9,1.93-2.12
			c1.29-0.36,2.82-0.37,4.12-0.03c0.66,0.17,1.02,1.45,1.52,2.23c-1.11,0.36-2.48,0.42-3.28,1.13
			C579.44,71.35,573.52,69.14,568.11,70.03"/>
		<path d="M643.74,84.82c0.33-2.62,0.41-5.31,1.09-7.83c0.42-1.56,2.21-4.19,2.63-4.05c2.34,0.78,4.55,2.13,6.58,3.58
			c0.42,0.3-0.06,1.86-1.1,2.86c-0.16-0.96-0.32-1.92-0.57-3.43c-2.68,1.89-4.94,3.49-7.39,5.22c2.17,1.7,3.45,2.7,4.73,3.7
			l-0.2,1.04c-1.94-0.38-3.88-0.76-5.84-1.16C643.66,84.73,643.74,84.82,643.74,84.82"/>
		<path d="M781.1,324.42c2.22,1.37,4.43,2.74,6.41,3.97c-0.52,1.96-0.99,3.74-1.5,5.69c2.63,0.1,4.46,0.16,6.29,0.23
			c0.01,0.2,0.03,0.41,0.04,0.61c-0.79,0.01-1.57,0.02-3.45,0.03c1.21,0.84,1.68,1.16,2.15,1.49c0,0,0.03,0,0.03,0
			c-3.6,0.24-7.2,0.47-10.8,0.71c-0.08-0.23-0.17-0.46-0.26-0.69c1.66-0.47,3.32-0.94,5.69-1.61c-1.4-0.91-2.63-1.72-4.14-2.7
			c0.27-2.45,1.23-5.22-0.17-7.88L781.1,324.42z"/>
		<path d="M764.77,317.68c0.68-1.92,1.18-3.31,1.68-4.72c1.78,0.83,3.53,1.64,5.69,2.64c0.06,0.78,0.16,2.06,0.22,2.87
			c1.19,0.37,2.01,0.62,2.84,0.87c-1.07,1.33-1.91,3.22-3.3,3.83c-1.26,0.56-3.14-0.28-5.41-0.6c0.69-1.46,1.42-2.99,2.13-4.49
			C767.63,317.98,766.39,317.85,764.77,317.68"/>
		<path d="M65.1,319.63c1.5-0.58,3-1.17,4.73-1.84c-0.02-1.67-0.03-3.42-0.06-5.82c2.75-0.18,5.39-0.35,8.02-0.52
			c0.02,0.48,0.03,0.96,0.04,1.44c-1.18-0.07-2.36-0.13-4.33-0.24c-0.13,1.54-0.52,3.18-0.26,4.71c0.09,0.55,1.77,0.83,2.72,1.23
			c-0.12,0.42-0.24,0.83-0.35,1.25c-1.16-0.22-2.31-0.44-2.83-0.54c-1.59,2.01-2.86,3.63-4.23,5.35c-1.6-2.38-2.53-3.77-3.46-5.16
			C65.11,319.49,65.1,319.63,65.1,319.63"/>
		<path d="M236.07,748.15c1.28-1.1,3.05-2.14,3.38,0.34c0.42,3.15,4.03,6.85-1.43,9.43c-1.83-0.48-4.23-1.12-7.63-2.01
			c2.38-0.34,3.84-0.56,6.35-0.92c-1.98-0.95-3.05-1.46-5.28-2.54c2.1-0.02,3.02-0.03,3.9-0.04c0.31-1.62,0.58-3.02,0.85-4.42
			C236.21,747.99,236.07,748.15,236.07,748.15"/>
		<path d="M674.61,677.91c-1.77,3.94-3.53,7.85-5.29,11.75c-1.59-0.55-3.29-1.13-6.08-2.1c1.88-1.61,3.41-2.93,5.22-4.48
			c-0.13-1.93-1.82-5.86,3.68-3.22C672.54,680.05,673.72,678.63,674.61,677.91"/>
		<path d="M34.34,405.56c-2.14,1.01-3.73,1.98-5.45,2.48c-1.16,0.34-2.5,0.01-3.77-0.02c0.37-1.96,0.1-5,1.24-5.67
			C30.35,400,33.35,401.71,34.34,405.56"/>
		<path d="M789.18,467.83c-0.35-1.02-0.63-1.85-0.52-1.52c2.17-2.62,3.95-4.77,6.1-7.36c0.82-0.22,2.62-0.69,4.76-1.26
			c2.74,3.51-1.71,4.89-3.13,6.56C794.84,466.08,791.79,466.63,789.18,467.83"/>
		<path d="M353.28,756.36c-3,0.96-6.12,2.94-8.97,2.62c-3.93-0.45-4.42,5.68-8.86,2.85c0.66-0.52,1.46-1.14,2.48-1.95
			c-2.13-0.8-4.14-1.56-6.15-2.32c0,0,0.01,0,0.01,0c7.17-0.4,14.34-0.8,21.51-1.2L353.28,756.36z"/>
		<path d="M66.72,480.35c3.08,2.6,6.29,5.07,9.13,7.9c0.56,0.56,0.16,3.06-0.61,3.72c-0.92,0.78-2.71,0.53-3.97,0.71
			c-1.55-4.36-2.96-8.32-4.38-12.27C66.89,480.42,66.72,480.35,66.72,480.35"/>
		<path d="M785.63,483.04c0,0,0.1,0.2,0.1,0.21c-0.1-1.36-0.21-2.73-0.36-4.62c-3.18,0.94-6.27,1.85-9.36,2.77
			c3.08-1.63,5.02-5.34,9.77-3.88c1.68,0.51,4.28-1.96,6.5-3.1C792.66,478.72,787.94,480.06,785.63,483.04"/>
		<path d="M551.16,70.71c-6.05,0.48-10.92,0.87-15.8,1.26c-0.15-0.41-0.3-0.82-0.45-1.24c1.63-0.82,3.22-1.78,4.92-2.41
			c1.71-0.63,3.55-0.94,4.78-1.25C546.55,68.16,548.35,69.15,551.16,70.71"/>
		<path d="M233.52,77.35c-2.22,4.33-3.89,8.13-6.06,11.62c-1.29,2.08-3.03,1.92-4.1-1C229.03,86.84,226.36,78.49,233.52,77.35"/>
		<path d="M555.02,69.34c0.55-5.5,6.19-2.79,9.32-4.84c0.74,1.23,1.46,2.43,2.84,4.72C562.66,69.27,558.95,69.31,555.02,69.34"/>
		<path d="M353.3,756.36c5.05-0.14,10.15,0.1,15.11-0.63c2.01-0.3,3.53-1.67,4.92,1.38c-1.45-0.18-2.64-0.49-3.82-0.44
			c-1.85,0.07-4.64-1.42-4.38,2.68c0.05,0.77-2.26,1.7-3.49,2.56c-0.3-0.44-0.6-0.88-0.9-1.32c0.81-0.65,1.61-1.31,3.6-2.91
			C359.92,757.15,356.61,756.75,353.3,756.36C353.28,756.36,353.3,756.36,353.3,756.36"/>
		<path d="M623.8,83.84c-6.07-4.44-2.37,3.26-4.65,4.8c-0.26-2.87-0.49-5.44-0.73-8.03c11.51-0.94,13.06-0.43,11.43,3.75
			c-1.12-0.93-2.06-2.13-3.26-2.51C626,81.66,624.93,82.99,623.8,83.84"/>
		<path d="M378.48,52.02c0.7,0.21,1.9,0.25,2.03,0.65c1.24,3.69,3.93,3.09,6.73,2.55c0.75-0.15,1.6,0.2,2.67,1.37
			c-3.07,1.01-6.13,2.03-9.19,3.05c-0.71-2.57-1.42-5.14-2.12-7.71C378.6,51.91,378.48,52.02,378.48,52.02"/>
		<path d="M39.95,376.79c2.34-1.81,3.4-2.63,4.46-3.45c-1.09-0.95-2.18-1.9-3.62-3.15c1.68-2.27,3.78-5.09,5.41-7.28
			c-0.13,2.65-0.1,5.43-0.47,8.15c-0.25,1.87-0.84,3.79-1.74,5.42C43.71,377,41.9,376.68,39.95,376.79"/>
		<path d="M318.7,45.84c2.48-1.12,4.77-2.15,7.05-3.18l0.56,1.26c-2.26,0.91-4.65,1.61-6.76,2.79c-1.47,0.83-2.56,2.32-4.26,3.93
			c-0.74-0.42-2.01-1.16-3.39-1.95c2.17-2.11,3.89-3.79,5.88-5.73C318,43.63,318.25,44.4,318.7,45.84"/>
		<path d="M426.23,53.85c-1.24-0.07-2.5-0.01-3.7-0.24c-1.69-0.32-3.33-0.84-5-1.28c-0.13,0.41-0.26,0.82-0.39,1.23
			c-0.55-0.68-1.1-1.36-1.8-2.22c3.28-1.78,6.44-3.5,9.61-5.22c0.32,0.37,0.64,0.73,0.96,1.1c-3.48,2.54-1.73,4.63,0.22,6.7
			L426.23,53.85z"/>
		<path d="M218.32,96.16c0.18,0.01,1.43,0.07,2.52,0.13c1.1-1.38,2.27-2.85,3.43-4.31c0.43,0.28,0.87,0.57,1.3,0.85
			c-2.47,4.26-4.95,8.52-7.16,12.33C218.39,102.63,218.36,99.57,218.32,96.16"/>
		<path d="M299.05,52.07c-2.95,6.01-8.57,2.55-13.16,3.11c3.6-0.86,7.21-1.72,10.81-2.59c-0.11-0.53-0.22-1.07-0.34-1.6
			c-2.6,0.54-5.21,1.07-7.9,1.63c4.22-3.84,7.04-3.95,10.6-0.48L299.05,52.07z"/>
		<path d="M299.06,52.15c0.69-0.75,1.89-1.45,1.98-2.26c0.42-4.2,2.72-5.5,6.63-4.79c-1.98,2.36-3.96,4.73-6.39,7.62
			c2.67,0.26,4.52,0.44,6.36,0.62c-3.14,1.18-6.33,2.7-8.59-1.24C299.05,52.07,299.06,52.15,299.06,52.15"/>
		<path d="M306.65,70.52c-2.03,0.6-4.03,1.41-6.1,1.7c-0.8,0.11-2.57-1.06-2.51-1.46c0.15-1.15,0.97-3.1,1.6-3.13
			c2.3-0.11,4.63,0.44,6.96,0.74C306.61,69.08,306.63,69.8,306.65,70.52"/>
		<path d="M426.13,53.93c1.86-0.14,3.72-0.28,6.27-0.48c1.57,1.59,2.54,3.84-0.92,5.7c-2.26-0.9-4.46-1.78-6.98-2.78
			c0.35-0.51,1.02-1.5,1.71-2.51C426.23,53.85,426.13,53.93,426.13,53.93"/>
		<path d="M195.99,655.21c-0.87-3.06-1.75-6.12-2.62-9.18c0.66-0.2,1.31-0.39,1.97-0.59c0.47,2.13,0.94,4.26,1.54,6.98
			c0.44-0.82,0.67-1.24,0.96-1.79c0.21,0.77,0.42,1.54,0.63,2.32c0.5-0.51,1-1.02,1.51-1.53c0.63,0.65,1.26,1.29,1.69,1.73
			c-2.28,0.79-4,1.39-5.71,2C195.96,655.16,195.99,655.21,195.99,655.21"/>
		<path d="M139.84,184.45c-1.72,1.99-3.44,3.98-5.16,5.96c-1.29,1.49-2.59,2.97-4.18,4.18c0.74-8.39,3.87-11.56,9.31-10.14
			C139.82,184.45,139.84,184.45,139.84,184.45"/>
		<path d="M373.32,51.33c-6.5,0.07-13,0.13-19.5,0.19c-0.01-0.38-0.01-0.77-0.02-1.15l19.53-0.19
			C373.33,50.56,373.33,50.94,373.32,51.33"/>
		<path d="M791.19,425.08c-1.49,2.44-2.94,4.81-4.67,7.64c-0.31-0.25,0.4,0.33,2.12,1.72c-2.28-0.11-3.32-0.17-4.58-0.23
			c0.22-1.07,0.14-2.65,0.67-2.9C787.65,429.93,784.51,422.96,791.19,425.08"/>
		<path d="M749.38,244.71c0.33-1.47,0.66-2.94,0.99-4.41c0.01,0-0.11-0.03-0.11-0.03c2.12,0.28,4.23,0.56,6.35,0.84l0.14,0.14
			c-0.48,1.31-0.59,3.14-1.53,3.8C753.45,246.29,751.17,247.32,749.38,244.71"/>
		<path d="M755.94,483.82c3.18-3.14,6.11-6.03,9.04-8.91c0.37,0.41,0.74,0.82,1.11,1.24C761.81,477.61,763.41,485.61,755.94,483.82"
			/>
		<path d="M210.8,68.06c-0.17,0.16-0.34,0.31-0.51,0.47c-0.44-2.62-0.88-5.24-1.38-8.24c0.42-0.17,1.54-0.94,2.7-0.99
			c0.72-0.03,1.7,0.88,2.17,1.62c0.35,0.55,0.11,2.18,0.06,2.18C210.43,63.34,211.97,66.54,210.8,68.06"/>
		<path d="M800.43,431.6c-2.75,2.74-4.69,4.69-6.69,6.68c-0.77-1.65-1.54-3.28-2.34-4.98C794.37,432.74,797.01,432.24,800.43,431.6"
			/>
		<path d="M758.16,262.31c-1.64-0.8-3.34-1.51-4.9-2.44c-0.68-0.4-1.3-1.21-1.51-1.96c-0.11-0.39,0.6-1.34,1.12-1.52
			c0.57-0.2,1.6-0.03,1.98,0.39c1.49,1.64,2.79,3.43,4.17,5.17C758.74,262.07,758.45,262.19,758.16,262.31"/>
		<path d="M83.44,296.14c-1.2,2.84-2.39,5.67-4.16,9.86c-0.92-2.05-2.06-3.46-1.73-4.04c1.26-2.23,2.99-4.2,4.55-6.26
			C82.55,295.84,82.99,295.99,83.44,296.14"/>
		<path d="M741.31,567.46c-0.24-0.27-0.49-0.55-0.73-0.82c-0.3-0.72-1.07-1.7-0.83-2.11c1.07-1.9,2.43-3.64,4.12-6.08
			c0.14,2.4,0.24,4.19,0.34,6C743.23,565.47,742.27,566.46,741.31,567.46"/>
		<path d="M682.72,650.14c2.92,5.25,0.36,7.3-4.63,9.08C679.82,655.83,681.16,653.2,682.72,650.14"/>
		<path d="M574.41,753.35c-2.91,0.03-5.72,0.06-8.9,0.09C568.77,749.58,572.91,749.7,574.41,753.35"/>
		<path d="M619.78,75.68c-2.14,0.41-4.71,0.9-8.66,1.66c2.15-2.44,3.76-4.26,5.57-6.31C617.88,72.83,618.93,74.4,619.78,75.68"/>
		<path d="M670.63,706.04c0.81-2.27,1.23-3.46,1.75-4.91c1.23,2.23,5.29-0.26,4.9,3.25C677.22,705.06,673.58,705.35,670.63,706.04"
			/>
		<path d="M66.72,480.35c0,0,0.17,0.06,0.18,0.06c-0.59-0.34-1.56-0.57-1.7-1.05c-0.49-1.61-0.69-3.32-1.04-5.25
			c1.78,0.89,3.25,1.62,5.4,2.69C68.69,477.88,67.71,479.12,66.72,480.35"/>
		<path d="M326.7,50.08c-1.2-0.08-2.4-0.17-3.74-0.26c0.3,1.12,0.49,1.86,0.82,3.13c-1.67-0.54-2.85-0.93-4.23-1.38
			c0.51-0.91,0.87-2.38,1.47-2.48c1.92-0.33,3.92-0.15,5.89-0.17C326.83,49.3,326.76,49.69,326.7,50.08"/>
		<path d="M487.06,740.17c-2.73,0.03-5.45,0.05-8.18,0.08c-0.05-0.42-0.11-0.83-0.16-1.24c2.74-0.34,5.48-0.68,8.23-1.03
			C486.99,738.71,487.03,739.44,487.06,740.17"/>
		<path d="M781.1,324.42l0.28-0.17c-2.16,0.02-4.32,0.04-6.86,0.07c1.24-1.76,2.28-3.24,3.07-4.35c1.22,1.06,2.85,2.47,4.52,3.93
			C782.23,323.84,781.67,324.13,781.1,324.42"/>
		<path d="M306.43,62.7c2.11-0.02,4.22-0.04,6.33-0.06c-0.1,0.7-0.12,1.97-0.31,2c-1.96,0.27-3.95,0.33-5.94,0.45
			C306.49,64.29,306.46,63.49,306.43,62.7"/>
		<path d="M206.46,127.71c-1.46,2.92-2.93,5.85-4.39,8.77C200.41,132.1,204.01,130.11,206.46,127.71"/>
		<path d="M461.45,46.98c0.78,1.37,1.56,2.73,2.56,4.49c-1.52,1.11-3.26,2.37-5.79,4.22c1.36-3.66,2.3-6.18,3.23-8.7
			C461.44,46.99,461.45,46.98,461.45,46.98"/>
		<path d="M65.1,319.63c0,0,0.01-0.15,0.01-0.15c-0.23,0.75-0.46,1.5-0.78,2.55c-2.05-3.55-1.94-4.02,2.59-9.25
			C66.32,315.07,65.71,317.35,65.1,319.63"/>
		<path d="M723.97,573.09l-1.26-3.33c0.63-0.01,1.26-0.01,1.9-0.02c0.2-2.07,0.4-4.24,0.61-6.42c0.41,0.05,0.82,0.09,1.23,0.14
			c-0.27,3.14-0.54,6.27-0.81,9.4C725.08,572.94,724.53,573.01,723.97,573.09"/>
		<path d="M184.12,629.7c2.48,1.19,3.72,1.79,5,2.4c-0.38,1-0.9,2.37-1.86,4.93C186.15,634.46,185.35,632.58,184.12,629.7"/>
		<path d="M452.16,76.74c-3.11,0.37-6.23,0.73-10.36,1.22c3.31-4.2,7.19-1.35,10.07-2.86C451.97,75.64,452.06,76.19,452.16,76.74"/>
		<path d="M680,682.9c-0.48,1.66-0.87,3.37-1.57,4.94c-0.09,0.21-1.77-0.29-2.71-0.47c0.71-1.71,1.41-3.41,2.11-5.12
			C678.56,682.46,679.28,682.68,680,682.9"/>
		<path d="M263.37,765.63c-1.35-1.09-2.7-2.17-4.54-3.67c3.14-0.03,5.83-0.06,8.38-0.08c-1.4,1.36-2.61,2.55-3.82,3.73
			C263.39,765.61,263.37,765.63,263.37,765.63"/>
		<path d="M354.72,56.86c-0.94,2.26-1.7,4.07-2.48,5.94c-0.67-1.81-1.32-3.59-2.03-5.52C351.69,57.14,353.12,57.01,354.72,56.86"/>
		<path d="M807.6,437.39c4.1,3.54,0.82,5.04-0.21,7c-0.46-0.1-0.92-0.2-1.38-0.3C806.5,442.02,806.99,439.95,807.6,437.39"/>
		<path d="M350.59,694.37c0.58,1.27,1.61,2.55,1.56,3.79c-0.02,0.74-1.68,1.9-2.69,2c-0.98,0.1-2.06-0.92-3.1-1.45l-0.12,0.18
			c1.52,0.23,3.03,0.45,4.83,0.72c-0.12-1.95-0.21-3.65-0.31-5.35L350.59,694.37z"/>
		<path d="M74.75,407.42c0.23-1.56,0.2-3.29,0.54-3.37c1.46-0.33,3.03-0.16,4.55-0.18c0.05,0.38,0.1,0.76,0.15,1.13
			C78.61,405.64,77.23,406.28,74.75,407.42"/>
		<path d="M88.94,381.65c-4.25,5.07-5.81,5.45-9.3,2.18c0.83-1.11,1.66-2.24,2.5-3.37L82,380.59c2.38,0.36,4.92,1.83,6.81-1.02
			C88.86,380.26,88.9,380.95,88.94,381.65"/>
		<path d="M506.97,347.65c0.36-1.17,0.34-2.78,1.13-3.45c4.47-3.84,9.12-7.46,13.71-11.17c0.32-0.26,0.65-0.57,0.85-0.93
			c2.66-4.87,6.59-4.48,10.93-2.57c-1.21,9.59-2.42,19.24-3.63,28.88c-7.6-0.6-15.36-1.2-23.13-1.85c-0.53-0.04-1.19-0.37-1.51-0.78
			c-1.03-1.32,1.04-6.51,2.88-7.36C507.78,348.16,507.37,347.9,506.97,347.65"/>
		<path d="M498.67,415.7c2.58-8.17,0.49-16.38,4.26-24.26c-0.08-0.06-0.96-0.63-1.74-1.16c0.63-3.58,1.23-7.03,1.83-10.48
			c5.89,2.94,11.53,5.65,17.02,8.62c0.97,0.53,1.98,2.22,1.89,3.29c-0.49,5.56-1.23,11.1-2.12,16.61c-0.18,1.11-1.17,2.74-2.09,2.99
			C511.7,412.88,505.61,414.14,498.67,415.7"/>
	</g>
</g>
</svg>
