<?xml version="1.0" encoding="utf-8"?>
<!-- Generator: Adobe Illustrator 23.1.0, SVG Export Plug-In . SVG Version: 6.00 Build 0)  -->
<svg version="1.1" xmlns="http://www.w3.org/2000/svg" xmlns:xlink="http://www.w3.org/1999/xlink" x="0px" y="0px"
	 viewBox="0 0 957.34 800" style="enable-background:new 0 0 957.34 800;" xml:space="preserve">
<style type="text/css">
	.st0{display:none;}
	.st1{display:inline;fill:#989898;}
	.st2{fill:none;}
	.st3{fill:none;stroke:#231815;stroke-width:2;stroke-miterlimit:10;}
	.st4{fill:#FFFFFF;}
	.st5{fill:#040000;}
	.st6{fill-rule:evenodd;clip-rule:evenodd;}
	.st7{fill:#F7F7F7;}
</style>
<g id="BG" class="st0">
	<rect x="-2890.79" y="-918.18" class="st1" width="5423.46" height="2640.54"/>
</g>
<g id="圖層_2">
	<g>
		<path class="st2" d="M704.75,546.01l0.09-16.93l-96.87-0.5l-0.08,16.43C642.18,543.11,674.69,543.75,704.75,546.01z"/>
		
			<rect x="564.27" y="325.62" transform="matrix(5.127462e-03 -1 1 5.127462e-03 160.7794 999.4177)" class="st2" width="36.79" height="186.56"/>
		
			<rect x="564.55" y="270.84" transform="matrix(5.125828e-03 -1 1 5.125828e-03 215.8416 945.1975)" class="st2" width="36.79" height="186.56"/>
		<path class="st2" d="M197.03,639.97l0.93-182.2C87.59,540.68,173.49,620.96,197.03,639.97z"/>
		<path class="st2" d="M662.33,95.14c-62.17,32.45-55.81,60.67-41.26,77.82l72.88,0.37C735.55,128.29,662.33,95.14,662.33,95.14z"/>
		<path d="M713.5,272.66c-3.33,20.19-17.67,46.18-37.08,55.56l-186.56-0.96l0.25-49.36l-0.06,11.67l80.86,0.41
			c-2.75-5.68-4.71-11.76-5.88-18.02l-74.89-0.38l0.09-17.09c0.08-16.37-20.72-29.75-46.46-29.88
			c-25.75-0.13-46.68,13.03-46.77,29.4l-1.02,199.23c0,0,0,0,0,0.01c0,0,0,0,0,0.01l-0.01,1.09l0.04,0
			c0.83,15.87,21.26,28.66,46.43,28.79c25.17,0.13,45.73-12.45,46.72-28.31l0.04,0l417.24,2.14l0.09-17.99l-137.44-0.7l0.19-36.79
			l137.44,0.7l0.09-17.99l-137.44-0.7l0.19-36.79l137.44,0.7l0.09-17.99l-137.44-0.7l0.19-37.75l137.44,0.7l0.09-17.99l-139.57-0.72
			L713.5,272.66z M675.85,437.78l-186.56-0.96l0.19-36.79l186.56,0.96L675.85,437.78z M676.14,383l-186.56-0.96l0.19-36.79
			l186.56,0.96L676.14,383z"/>
		<path d="M908.08,107.91c-1.7-15.35-21.76-27.54-46.33-27.67c-24.57-0.13-44.76,11.87-46.61,27.19l-0.14,0l-0.43,84.5l93.23,0.48
			l0.43-84.5L908.08,107.91z"/>
		<path d="M735.46,173.54c18.76-28.26,34.89-86.29-100.85-130.29c0,0,12.51,28.04-30.28,48.53c-37.09,17.76-66.8,44.03-34.01,80.91
			l-79.67-0.41l0.34-66.51c0.08-16.37-20.72-29.75-46.46-29.88c-25.75-0.13-46.68,13.03-46.77,29.4l-0.43,84.5l93.23,0.48
			l224.19,1.15v0l99.81,0.51l0.09-17.99L735.46,173.54z M693.95,173.33l-72.88-0.37c-14.55-17.14-20.91-45.37,41.26-77.82
			C662.33,95.14,735.55,128.29,693.95,173.33z"/>
		<path d="M350.17,191.21c0.29,0.02,0.59,0.04,0.88,0.04c7.53,0.04,13.66-4.49,13.68-10.12c0.03-5.63-6.05-10.23-13.58-10.26
			c-0.3,0-0.59,0.02-0.88,0.03l0-0.03l-57.61-0.3l0.39-75.37l-0.05,0c-0.97-17.88-21.33-32.24-46.4-32.37
			c-25.07-0.13-45.58,14.02-46.73,31.89l-0.05,0l-0.01,1.45c0,0,0,0,0,0s0,0,0,0l-0.38,73.91l-93.33-0.48
			c-7.53-0.04-13.66,4.49-13.68,10.13c-0.03,5.63,6.05,10.23,13.58,10.26l93.33,0.48l-0.86,167.77
			c-41.83,22.48-298.42,174.24-25.01,380.94c21.66,16.38,56.05,16.14,82.22,4.44c18.26-8.16,34.17-22.78,34.31-48.95l2.58-503.73
			l57.61,0.3L350.17,191.21z M197.03,639.97c-23.54-19.01-109.44-99.29,0.93-182.2L197.03,639.97z"/>
		<path d="M400.4,518.52c-0.03,4.97,6.12,9.03,13.72,9.07l96.97,0.5l-0.15,29.09c-34.34,6.79-69.71,16.51-105.59,29.93
			C174.67,673.44,578.4,837.21,905.14,710.13l0.22-43.02c0,0-232.51,143.84-456.04,16.3c-39.74-22.67-36.58-50.18-16.18-69.4
			c9.53-8.98,35.66-23.4,77.69-33.96l-0.44,85.23l96.87,0.5l0.51-98.7c28.9-0.99,61.21,0.15,96.85,4.39l-0.49,94.81l96.87,0.5
			l0.4-77.51c32.69,8.03,67.43,18.52,104.19,31.95l0.16-31.55c0,0-39.5-16.9-104.2-30.17l0.15-29.93l104.35,0.53l0.09-17.99
			l-491.94-2.52C406.61,509.56,400.43,513.55,400.4,518.52z M607.96,528.58l96.87,0.5l-0.09,16.93c-30.06-2.26-62.57-2.9-96.87-0.99
			L607.96,528.58z"/>
		<path class="st5" d="M648.64,325.99c31.62-5.15,53.08-34.96,47.93-66.59c-5.15-31.62-34.96-53.08-66.59-47.93
			c-31.62,5.15-53.08,34.96-47.93,66.59C587.21,309.69,617.02,331.14,648.64,325.99z"/>
	</g>
</g>
</svg>
