<?xml version="1.0" encoding="utf-8"?>
<!-- Generator: Adobe Illustrator 23.1.0, SVG Export Plug-In . SVG Version: 6.00 Build 0)  -->
<svg version="1.1" xmlns="http://www.w3.org/2000/svg" xmlns:xlink="http://www.w3.org/1999/xlink" x="0px" y="0px"
	 viewBox="0 0 911.18 800" style="enable-background:new 0 0 911.18 800;" xml:space="preserve">
<style type="text/css">
	.st0{display:none;}
	.st1{display:inline;fill:#989898;}
	.st2{fill:none;}
	.st3{fill:none;stroke:#231815;stroke-width:2;stroke-miterlimit:10;}
	.st4{fill:#FFFFFF;}
	.st5{fill:#040000;}
	.st6{fill-rule:evenodd;clip-rule:evenodd;}
	.st7{fill:#F7F7F7;}
</style>
<g id="BG" class="st0">
	<rect x="-297.17" y="-1746.52" class="st1" width="5423.46" height="2640.54"/>
</g>
<g id="圖層_2">
	<g>
		<g>
			<path d="M641.4,49.88L494.84,347.26c-7.86,15.94,3.75,34.6,21.53,34.6h294.97c17.83,0,29.43-18.76,21.47-34.71L684.39,49.77
				C675.53,32.01,650.17,32.08,641.4,49.88"/>
		</g>
		<g>
			<polygon class="st7" points="660.51,76.36 656.28,74.28 663.58,59.45 670.96,74.24 666.75,76.34 663.61,70.06 			"/>
		</g>
		<g>
			<path class="st7" d="M538.71,323.49l-4.22-2.08l10.15-20.59l4.23,2.08L538.71,323.49z M559.01,282.3l-4.23-2.08l10.15-20.59
				l4.23,2.08L559.01,282.3z M579.31,241.11l-4.22-2.08l10.15-20.59l4.23,2.08L579.31,241.11z M599.61,199.92l-4.23-2.08
				l10.15-20.59l4.23,2.08L599.61,199.92z M619.91,158.74l-4.22-2.08l10.15-20.59l4.23,2.08L619.91,158.74z M640.21,117.55
				l-4.23-2.08l10.15-20.59l4.23,2.08L640.21,117.55z"/>
		</g>
		<g>
			<polygon class="st7" points="533.03,355.95 517.46,355.95 524.34,341.99 528.56,344.07 525.04,351.24 533.03,351.24 			"/>
		</g>
		<g>
			<path class="st7" d="M772.08,355.95h-23.91v-4.71h23.91V355.95z M724.27,355.95h-23.91v-4.71h23.91V355.95z M676.46,355.95
				h-23.91v-4.71h23.91V355.95z M628.65,355.95h-23.91v-4.71h23.91V355.95z M580.84,355.95h-23.91v-4.71h23.91V355.95z"/>
		</g>
		<g>
			<polygon class="st7" points="811.55,355.95 795.97,355.95 795.97,351.24 803.94,351.24 800.38,344.11 804.59,342 			"/>
		</g>
		<g>
			<path class="st7" d="M790.1,323.51l-10.28-20.6l4.21-2.11l10.28,20.6L790.1,323.51z M769.54,282.32l-10.28-20.6l4.21-2.11
				l10.28,20.6L769.54,282.32z M748.98,241.12l-10.28-20.6l4.21-2.11l10.28,20.6L748.98,241.12z M728.42,199.93l-10.28-20.6
				l4.21-2.11l10.28,20.6L728.42,199.93z M707.86,158.73l-10.28-20.6l4.21-2.11l10.28,20.6L707.86,158.73z M687.3,117.54
				l-10.28-20.6l4.21-2.11l10.28,20.6L687.3,117.54z"/>
		</g>
		<g>
			<path d="M493.29,434.07l2.76,311.76c0.06,6.68,5.52,12.04,12.2,11.98l315.46-2.79c10.72-0.09,16.02-13.06,8.44-20.64
				l-78.06-78.02c-4.87-4.87-4.7-12.81,0.37-17.46l46.55-42.73c5.26-4.83,5.21-13.15-0.11-17.91l-46.85-41.96
				c-5.1-4.57-5.39-12.45-0.65-17.39l76.26-79.37c7.42-7.72,1.88-20.57-8.82-20.47l-315.56,2.79
				C498.59,421.94,493.23,427.4,493.29,434.07"/>
		</g>
		<g>
			<polygon class="st7" points="518.65,457.78 518.53,443.64 532.66,443.52 532.7,448.24 523.28,448.32 523.36,457.74 			"/>
		</g>
		<g>
			<path class="st7" d="M520.8,700.84l-0.21-24.3l4.71-0.05l0.21,24.3L520.8,700.84z M520.37,652.23l-0.22-24.3l4.71-0.05l0.22,24.3
				L520.37,652.23z M519.94,603.62l-0.22-24.31l4.71-0.05l0.22,24.31L519.94,603.62z M519.51,555.01l-0.22-24.31l4.71-0.05
				l0.22,24.31L519.51,555.01z M519.08,506.4l-0.22-24.31l4.71-0.05l0.22,24.31L519.08,506.4z"/>
		</g>
		<g>
			<polygon class="st7" points="521.14,739.29 521.02,725.16 525.73,725.12 525.81,734.54 535.24,734.45 535.28,739.17 			"/>
		</g>
		<g>
			<path class="st7" d="M561.06,738.94l-0.04-4.71l25.78-0.23l0.04,4.71L561.06,738.94z M612.61,738.48l-0.04-4.71l25.78-0.23
				l0.04,4.71L612.61,738.48z M664.16,738.03l-0.04-4.71l25.78-0.23l0.04,4.71L664.16,738.03z M715.71,737.57l-0.04-4.71l25.78-0.23
				l0.04,4.71L715.71,737.57z"/>
		</g>
		<g>
			<polygon class="st7" points="767.28,737.11 767.24,732.4 773.5,732.35 769.13,727.86 772.51,724.58 784.57,736.97 			"/>
		</g>
		<g>
			
				<rect x="736.64" y="678.33" transform="matrix(0.7163 -0.6977 0.6977 0.7163 -274.2923 712.3469)" class="st7" width="4.71" height="30.41"/>
		</g>
		<g>
			<polygon class="st7" points="705.48,662.5 695.54,652.3 706.18,642.83 709.32,646.34 702.36,652.54 708.86,659.21 			"/>
		</g>
		<g>
			
				<rect x="722.53" y="618.48" transform="matrix(0.7465 -0.6654 0.6654 0.7465 -226.9163 646.0768)" class="st7" width="23.81" height="4.71"/>
		</g>
		<g>
			<polygon class="st7" points="762.69,598.85 759.56,595.33 766.39,589.25 759.57,583.17 762.71,579.66 773.47,589.26 			"/>
		</g>
		<g>
			
				<rect x="731.74" y="545.18" transform="matrix(0.6661 -0.7459 0.7459 0.6661 -170.5173 733.662)" class="st7" width="4.71" height="24.17"/>
		</g>
		<g>
			<polygon class="st7" points="705.48,534.88 694.85,525.39 704.84,515.22 708.2,518.53 701.67,525.17 708.62,531.36 			"/>
		</g>
		<g>
			
				<rect x="723.21" y="482.14" transform="matrix(0.7012 -0.7129 0.7129 0.7012 -124.8152 671.1492)" class="st7" width="30.27" height="4.71"/>
		</g>
		<g>
			<polygon class="st7" points="771.84,453.76 768.48,450.45 772.75,446.11 766.66,446.16 766.62,441.45 784.08,441.3 			"/>
		</g>
		<g>
			<path class="st7" d="M558.69,448.01l-0.04-4.71l26-0.23l0.04,4.71L558.69,448.01z M610.68,447.54l-0.04-4.71l26-0.23l0.04,4.71
				L610.68,447.54z M662.68,447.08l-0.04-4.71l26-0.23l0.04,4.71L662.68,447.08z M714.67,446.62l-0.04-4.71l26-0.23l0.04,4.71
				L714.67,446.62z"/>
		</g>
		<g>
			<path d="M75.47,431.5v311.04c0,15.56,16.37,25.68,30.29,18.73l311.52-155.52c15.44-7.71,15.44-29.75,0-37.46L105.76,412.78
				C91.84,405.83,75.47,415.95,75.47,431.5"/>
		</g>
		<g>
			<polygon class="st7" points="102.59,452.2 97.88,452.2 97.88,436.61 111.82,443.57 109.72,447.79 102.59,444.23 			"/>
		</g>
		<g>
			<path class="st7" d="M102.59,697.34h-4.71v-24.51h4.71V697.34z M102.59,648.31h-4.71V623.8h4.71V648.31z M102.59,599.28h-4.71
				v-24.51h4.71V599.28z M102.59,550.26h-4.71v-24.51h4.71V550.26z M102.59,501.23h-4.71v-24.51h4.71V501.23z"/>
		</g>
		<g>
			<polygon class="st7" points="97.88,737.44 97.88,721.85 102.59,721.85 102.59,729.82 109.72,726.26 111.82,730.48 			"/>
		</g>
		<g>
			<path class="st7" d="M132.79,720.01l-2.1-4.21l20.97-10.47l2.1,4.21L132.79,720.01z M174.72,699.08l-2.1-4.21l20.97-10.47
				l2.1,4.21L174.72,699.08z M216.66,678.14l-2.1-4.21l20.97-10.47l2.1,4.21L216.66,678.14z M258.59,657.21l-2.1-4.21l20.97-10.47
				l2.1,4.21L258.59,657.21z M300.53,636.27l-2.1-4.21l20.97-10.47l2.1,4.21L300.53,636.27z M342.46,615.34l-2.1-4.21l20.97-10.47
				l2.1,4.21L342.46,615.34z"/>
		</g>
		<g>
			<polygon class="st7" points="384.41,594.4 382.3,590.18 388.62,587.03 382.3,583.87 384.41,579.66 399.17,587.03 			"/>
		</g>
		<g>
			<path class="st7" d="M361.34,573.41l-20.97-10.47l2.1-4.21l20.97,10.47L361.34,573.41z M319.4,552.47L298.44,542l2.1-4.21
				l20.97,10.47L319.4,552.47z M277.47,531.54l-20.97-10.47l2.1-4.21l20.97,10.47L277.47,531.54z M235.53,510.6l-20.97-10.47
				l2.1-4.21l20.97,10.47L235.53,510.6z M193.6,489.67l-20.97-10.47l2.1-4.21l20.97,10.47L193.6,489.67z M151.66,468.73
				l-20.97-10.47l2.1-4.21l20.97,10.47L151.66,468.73z"/>
		</g>
		<g>
			<path d="M75.47,50.48v318.38c0,6.94,5.63,12.56,12.56,12.56h335.22c6.94,0,12.57-5.62,12.57-12.56V50.48
				c0-10.41-11.94-16.3-20.2-9.97L263.29,157.22c-4.51,3.45-10.77,3.45-15.28,0L95.67,40.5C87.41,34.18,75.47,40.07,75.47,50.48"/>
		</g>
		<g>
			<polygon class="st7" points="96.72,87.06 96.61,70.37 109.7,80.71 106.78,84.41 101.39,80.14 101.43,87.02 			"/>
		</g>
		<g>
			<path class="st7" d="M98.27,318.71l-0.15-23.17l4.71-0.03l0.15,23.17L98.27,318.71z M97.96,272.38l-0.15-23.17l4.71-0.03
				l0.15,23.17L97.96,272.38z M97.65,226.04l-0.15-23.16l4.71-0.03l0.15,23.16L97.65,226.04z M97.34,179.72l-0.15-23.17l4.71-0.03
				l0.15,23.17L97.34,179.72z M97.03,133.38l-0.15-23.17l4.71-0.03l0.15,23.17L97.03,133.38z"/>
		</g>
		<g>
			<polygon class="st7" points="98.52,356.03 98.43,341.9 103.14,341.86 103.2,351.28 112.63,351.22 112.66,355.93 			"/>
		</g>
		<g>
			<path class="st7" d="M134.93,355.77l-0.03-4.71l22.28-0.16l0.03,4.71L134.93,355.77z M179.48,355.46l-0.03-4.71l22.28-0.16
				l0.03,4.71L179.48,355.46z M224.03,355.15l-0.03-4.71l22.28-0.16l0.03,4.71L224.03,355.15z M268.58,354.83l-0.03-4.71l22.28-0.16
				l0.03,4.71L268.58,354.83z M313.14,354.52l-0.03-4.71l22.27-0.16l0.03,4.71L313.14,354.52z M357.69,354.2l-0.03-4.71l22.28-0.16
				l0.03,4.71L357.69,354.2z"/>
		</g>
		<g>
			<polygon class="st7" points="402.24,353.89 402.2,349.18 411.63,349.11 411.56,339.68 416.28,339.65 416.37,353.78 			"/>
		</g>
		<g>
			<path class="st7" d="M411.41,316.6l-0.15-23.08l4.71-0.03l0.15,23.08L411.41,316.6z M411.1,270.43l-0.15-23.08l4.71-0.03
				l0.15,23.08L411.1,270.43z M410.79,224.25l-0.15-23.08l4.71-0.03l0.15,23.08L410.79,224.25z M410.48,178.08L410.32,155l4.71-0.03
				l0.15,23.08L410.48,178.08z M410.17,131.91l-0.15-23.08l4.71-0.03l0.15,23.08L410.17,131.91z"/>
		</g>
		<g>
			<polygon class="st7" points="409.86,85.73 409.81,78.82 404.44,83.15 401.48,79.48 414.45,69.03 414.57,85.69 			"/>
		</g>
		<g>
			<path class="st7" d="M286.58,178.06l-2.95-3.67l19.64-15.82l2.95,3.67L286.58,178.06z M325.86,146.43l-2.95-3.67l19.64-15.82
				l2.95,3.67L325.86,146.43z M365.15,114.79l-2.95-3.67l19.64-15.82l2.95,3.67L365.15,114.79z"/>
		</g>
		<g>
			<polygon class="st7" points="256.31,202.45 245.59,193.98 248.51,190.29 256.28,196.42 263.99,190.21 266.94,193.88 			"/>
		</g>
		<g>
			<path class="st7" d="M225.76,178.33l-19.83-15.65l2.92-3.7l19.83,15.65L225.76,178.33z M186.1,147.03l-19.83-15.66l2.92-3.7
				l19.83,15.66L186.1,147.03z M146.44,115.72l-19.83-15.65l2.92-3.7l19.83,15.65L146.44,115.72z"/>
		</g>
	</g>
</g>
</svg>
