<?xml version="1.0" encoding="utf-8"?>
<!-- Generator: Adobe Illustrator 23.1.0, SVG Export Plug-In . SVG Version: 6.00 Build 0)  -->
<svg version="1.1" id="圖層_1" xmlns="http://www.w3.org/2000/svg" xmlns:xlink="http://www.w3.org/1999/xlink" x="0px" y="0px"
	 viewBox="0 0 716.15 55.55" style="enable-background:new 0 0 716.15 55.55;" xml:space="preserve">
<style type="text/css">
	.st0{fill:#F00000;}
	.st1{clip-path:url(#SVGID_2_);}
	.st2{clip-path:url(#SVGID_6_);fill:#706F6F;}
	.st3{clip-path:url(#SVGID_8_);}
	.st4{clip-path:url(#SVGID_8_);fill:#3E3A39;}
	.st5{fill:#3E3A39;}
	.st6{clip-path:url(#SVGID_10_);}
	.st7{clip-path:url(#SVGID_12_);}
	.st8{clip-path:url(#SVGID_14_);}
	.st9{clip-path:url(#SVGID_16_);}
	.st10{clip-path:url(#SVGID_16_);fill:#E61F19;}
	.st11{fill:none;}
	.st12{fill:#706F6F;}
</style>
<g>
	<defs>
		<rect id="SVGID_5_" x="-818.79" y="-1114.12" width="720" height="1190.55"/>
	</defs>
	<clipPath id="SVGID_2_">
		<use xlink:href="#SVGID_5_"  style="overflow:visible;"/>
	</clipPath>
	<path style="clip-path:url(#SVGID_2_);fill:#706F6F;" d="M-96-434.74c84.34-139.14,166.39-310.58,239.68-513.93
		C73.77-784.95-9.39-640.43-96.24-525.05c-0.5-225.62-0.67-577.74-0.67-577.74c-4.18,45.47-31.79,127.29-51.15,198.94
		c-20.76-53.1-50.13-91.78-88.24-113.1c-2.38-1.34-4.83-2.71-7.32-3.96c-5.71-2.93-11.52-5.25-17.57-7.15l-0.26-0.11
		c-136.36-45.63-347.17,94.57-547.06,415.36c-0.21-0.87-0.41-1.73-0.61-2.59c-8.35-36.23-12.86-62.38-13.38-65.57
		c0.21,11.24,0.39,44.02,0.54,90.02c-84.34,139.14-166.39,310.59-239.68,513.94c69.91-163.71,153.06-308.23,239.92-423.61v0.01
		c0.5,225.62,0.67,577.72,0.67,577.72c4.18-45.47,31.79-127.29,51.15-198.94c20.76,53.1,50.13,91.78,88.24,113.1
		c2.38,1.34,4.83,2.71,7.32,3.96c5.71,2.93,11.52,5.25,17.57,7.15l0.26,0.11c136.36,45.63,347.17-94.57,547.06-415.36
		c0.21,0.87,0.41,1.73,0.61,2.59c8.35,36.23,12.86,62.38,13.38,65.57c-0.21-11.24-0.39-44.02-0.54-90.02V-434.74z M-666.51-366.08
		c-34.07-5.58-65.1-30.55-89.99-83.24c-4.65-10.66-13.13-32.31-13.13-32.31c-7.5-19.51-14.21-39.95-20.15-59.93
		c114.2-140.95,232.7-230.3,334.35-245.98c0,0,0.06-0.01,0.16-0.03c3.32-0.63,55.76-10.36,77.79-0.5c0.02,0.01,0.03,0.01,0.05,0.02
		c8.32,2.61,15.76,6.75,22.35,12.3c7.94,6.54,14.66,15.18,20.13,25.66c-64.62,48.32-128.96,116.02-255.97,370.23
		C-616.93-367.61-642.48-362.05-666.51-366.08 M-340.16-639.11c-52.45,77.34-146.71,202.44-237.64,252.54
		C-525.35-463.91-431.09-589.01-340.16-639.11 M-418.18-249.25c-0.01,0-0.01,0.01-0.02,0.01c-21.27,9.13-45.89,12.91-66.48,14.32
		c-41.72,4.7-56.07-2.77-56.07-2.77c-8.23-2.63-15.6-6.74-22.13-12.24c-7.94-6.54-14.66-15.18-20.13-25.66
		c64.62-48.32,128.96-116.02,255.97-370.23c26.01-12.25,51.56-17.81,75.59-13.78c34.07,5.58,65.1,30.55,90,83.24
		c4.64,10.66,13.12,32.31,13.12,32.31c7.5,19.51,14.21,39.94,20.15,59.92C-226.13-363.24-327.24-280.3-418.18-249.25"/>
</g>
<g>
	<path d="M16.83,9.47c-0.09,0.8-0.2,1.59-0.29,2.24h6.76V21.8c0,0.67-0.18,0.96-0.67,1.1c-0.52,0.14-1.52,0.14-3,0.14
		c-0.07-0.25-0.18-0.58-0.33-0.85c1.28,0.05,2.39,0.05,2.69,0.04c0.34-0.02,0.42-0.11,0.42-0.42v-9.29H10.65v10.49H9.8v-11.3h5.93
		c0.09-0.63,0.18-1.45,0.25-2.24H8.62V8.64h7.43c0.05-0.72,0.11-1.43,0.13-2.02l0.92,0.11c-0.05,0.6-0.13,1.27-0.18,1.92h7.5v0.83
		H16.83z M16.87,19.27v3.49h-0.83v-3.49h-4.21v-0.76h4.21v-2.22H12.2v-0.76h5.51c0.43-0.8,0.98-1.88,1.23-2.64l0.8,0.22
		c-0.36,0.81-0.81,1.7-1.23,2.42h2.48v0.76h-4.12v2.22h4.39v0.76H16.87z M13.92,12.94c0.52,0.71,0.99,1.61,1.19,2.24l-0.72,0.25
		c-0.18-0.63-0.65-1.57-1.16-2.26L13.92,12.94z"/>
	<path d="M42.54,21.86v0.72H26.65v-0.72h7.48v-1.17h-5.75v-0.69h5.75v-1.12c-3.83,0.09-4.32,0.15-4.65,0.25
		c-0.05-0.18-0.14-0.58-0.22-0.78c0.25-0.02,0.6-0.09,0.98-0.24c0.31-0.15,1.19-0.56,2.08-1.1h-3.47v-0.65H40.3v0.65h-2.51
		c1.08,0.61,2.24,1.43,2.87,2.01l-0.56,0.51c-0.22-0.22-0.54-0.49-0.89-0.76L35,18.86v1.14h5.86v0.69H35v1.17H42.54z M34.13,8.5
		h-7.39V7.81h7.39V6.62H35v1.19h7.45V8.5H35v1.16h6.2v0.67h-13.2V9.65h6.13V8.5z M41.18,17.23v-1.81h-13.2v1.81h-0.81v-2.5H42v2.5
		H41.18z M40.3,13.81H28.91v-2.57H40.3V13.81z M39.45,11.88h-9.71v1.3h9.71V11.88z M33.55,17.01c-0.8,0.52-1.57,0.94-2.33,1.27
		l7.12-0.11c-0.52-0.36-1.1-0.69-1.61-0.96l0.24-0.2H33.55z"/>
	<path d="M48.63,13c0.58,0.67,2.22,2.86,2.62,3.42l-0.58,0.69c-0.34-0.65-1.36-2.17-2.04-3.13v9h-0.85V14.1
		c-0.81,2.06-1.95,4.19-3.02,5.41c-0.09-0.24-0.33-0.56-0.49-0.74c1.23-1.34,2.62-3.94,3.38-6.2h-3.09v-0.83h3.22V8.59
		c-0.92,0.2-1.9,0.36-2.77,0.51c-0.05-0.2-0.18-0.49-0.29-0.69c2.02-0.34,4.45-0.85,5.75-1.46l0.58,0.7
		c-0.67,0.27-1.5,0.52-2.42,0.74v3.34h2.86v0.83h-2.86V13z M58.49,18.17V23h-0.85v-4.7l-6.18,0.96l-0.15-0.81l6.33-0.98V6.63h0.85
		v10.7l2.31-0.36l0.13,0.8L58.49,18.17z M55.6,15.78c-0.72-0.78-2.17-1.88-3.4-2.59l0.52-0.52c1.23,0.69,2.71,1.75,3.42,2.51
		L55.6,15.78z M55.96,11.01c-0.6-0.74-1.92-1.79-3.02-2.48l0.54-0.54c1.14,0.65,2.44,1.66,3.06,2.4L55.96,11.01z"/>
	<path d="M68.36,15.51c-0.78,0.24-1.56,0.49-2.31,0.74v5.57c0,0.63-0.18,0.87-0.56,1.03C65.09,23,64.4,23.01,63.17,23
		c-0.04-0.22-0.18-0.56-0.29-0.8c0.94,0.02,1.74,0.02,1.95,0c0.25,0,0.36-0.09,0.36-0.36v-5.32c-0.87,0.25-1.68,0.53-2.4,0.74
		l-0.29-0.85c0.74-0.2,1.68-0.47,2.69-0.78v-4.39h-2.48v-0.83h2.48V6.63h0.85v3.78h2.13v0.83h-2.13v4.14
		c0.72-0.22,1.48-0.45,2.21-0.67L68.36,15.51z M77.8,13.74c-0.78,2.44-2.15,4.41-3.83,5.93c1.37,1.19,3.04,2.1,4.97,2.62
		c-0.22,0.18-0.43,0.51-0.58,0.74c-1.95-0.58-3.63-1.54-5.03-2.82c-1.66,1.32-3.54,2.24-5.42,2.82c-0.09-0.25-0.33-0.6-0.47-0.8
		c1.83-0.49,3.67-1.36,5.26-2.62c-1.39-1.43-2.46-3.22-3.2-5.28h-0.65V13.5h4.09v-3.04h-4.46V9.63h4.46v-3h0.87v3h4.5v0.83h-4.5
		v3.04h3.27l0.18-0.04L77.8,13.74z M70.37,14.34c0.67,1.83,1.68,3.44,3,4.75c1.41-1.27,2.6-2.86,3.33-4.75H70.37z"/>
	<path d="M89.64,12.87c1.3,4.27,3.8,7.77,7.34,9.31c-0.24,0.2-0.49,0.56-0.65,0.81c-3.63-1.74-6.13-5.33-7.52-9.87
		c-0.76,3.76-2.68,7.74-7.48,9.89c-0.15-0.24-0.42-0.54-0.65-0.7c4.7-2.01,6.54-5.84,7.3-9.44H81V12h7.12
		c0.33-2.06,0.33-3.98,0.34-5.35h0.9c-0.02,1.41-0.04,3.31-0.34,5.35h7.7v0.87H89.64z"/>
	<path d="M114.94,19.32h-7.45v2.59c0,0.56-0.14,0.78-0.6,0.92c-0.47,0.14-1.34,0.13-2.82,0.13c-0.05-0.24-0.2-0.51-0.31-0.74
		c1.23,0.04,2.24,0.04,2.49,0.02c0.31-0.02,0.38-0.09,0.38-0.33v-2.59h-7.7v-0.78h7.7v-0.96c1.18-0.36,2.48-0.96,3.45-1.54h-7.88
		v-0.72h8.88l0.2-0.05l0.56,0.43c-1.14,0.9-2.84,1.72-4.36,2.26v0.58h7.45V19.32z M100.22,16.14h-0.83v-3.07h1.48l-0.36-5.41
		c1.01-0.16,2.53-0.58,3.42-0.81l0.43,0.58c-0.83,0.31-2.01,0.54-2.98,0.71l0.07,1.12h2.82v0.69h-2.77l0.07,1.21h2.8v0.69h-2.75
		l0.07,1.23h10.5c0.05-0.38,0.09-0.78,0.14-1.23h-2.91v-0.69h2.96c0.04-0.4,0.07-0.8,0.09-1.21h-2.96V9.26h3.02
		c0.02-0.4,0.05-0.8,0.07-1.17h-3.16V7.38h4.01c-0.09,1.77-0.25,4.12-0.42,5.69h1.45v3.07h-0.87v-2.33h-13.41V16.14z M108.45,12.87
		c-0.36-0.34-0.87-0.74-1.45-1.14c-0.63,0.51-1.28,0.92-1.9,1.27c-0.11-0.13-0.4-0.4-0.56-0.51c0.63-0.31,1.26-0.69,1.84-1.12
		c-0.47-0.31-0.98-0.58-1.46-0.81l0.49-0.43c0.49,0.22,1.01,0.49,1.54,0.8c0.38-0.34,0.74-0.69,1.01-1.05l0.69,0.22
		c-0.33,0.42-0.69,0.81-1.12,1.19c0.56,0.36,1.08,0.74,1.43,1.08L108.45,12.87z M108.43,9.67c-0.34-0.31-0.87-0.69-1.43-1.03
		c-0.6,0.47-1.21,0.89-1.79,1.21c-0.11-0.13-0.4-0.36-0.58-0.49c0.61-0.31,1.21-0.67,1.75-1.07c-0.47-0.27-0.96-0.52-1.43-0.7
		l0.47-0.47c0.49,0.22,0.99,0.47,1.52,0.72c0.36-0.31,0.69-0.65,0.96-0.99l0.67,0.18c-0.31,0.4-0.65,0.78-1.07,1.16
		c0.56,0.33,1.07,0.69,1.43,0.97L108.43,9.67z"/>
	<path d="M121.74,21.98c-3.36,0-5.1-1.41-5.21-4.23h1.1c0.08,2.17,1.45,3.26,4.1,3.26c1.16,0,2.05-0.24,2.68-0.72
		c0.63-0.47,0.94-1.14,0.94-1.98c0-0.7-0.25-1.25-0.75-1.65c-0.5-0.4-1.35-0.73-2.56-0.99l-1.27-0.25
		c-1.29-0.26-2.25-0.68-2.87-1.25c-0.63-0.57-0.94-1.35-0.94-2.35c0-1.01,0.39-1.81,1.17-2.4c0.78-0.59,1.83-0.89,3.17-0.89
		c1.58,0,2.77,0.34,3.56,1.02c0.8,0.68,1.2,1.61,1.23,2.78h-1.1c-0.1-1.88-1.33-2.82-3.69-2.82c-1.04,0-1.83,0.21-2.4,0.62
		c-0.56,0.42-0.84,0.98-0.84,1.69c0,0.72,0.24,1.28,0.71,1.68c0.47,0.4,1.3,0.72,2.48,0.98l1.27,0.25c1.41,0.29,2.42,0.72,3.03,1.29
		c0.61,0.57,0.91,1.33,0.91,2.29c0,1.13-0.41,2.03-1.24,2.69C124.39,21.65,123.23,21.98,121.74,21.98"/>
	<path d="M132.19,21.91c-1.29,0-2.33-0.45-3.13-1.36c-0.81-0.88-1.21-2.06-1.21-3.53c0-1.47,0.4-2.65,1.21-3.54
		c0.8-0.89,1.84-1.34,3.13-1.34s2.34,0.45,3.16,1.34c0.8,0.9,1.19,2.08,1.19,3.54c0,1.47-0.4,2.65-1.19,3.53
		C134.53,21.46,133.48,21.91,132.19,21.91 M129.8,19.9c0.59,0.72,1.39,1.08,2.39,1.08c1,0,1.8-0.36,2.4-1.08
		c0.59-0.7,0.89-1.66,0.89-2.87c0-1.22-0.3-2.18-0.89-2.89c-0.6-0.71-1.4-1.07-2.4-1.07c-0.99,0-1.78,0.36-2.39,1.07
		c-0.59,0.71-0.89,1.68-0.89,2.89C128.91,18.25,129.21,19.2,129.8,19.9"/>
	<path d="M144.43,17.59v-5.23h1.03v9.33h-0.98v-1.74c-0.3,0.61-0.72,1.09-1.27,1.44c-0.54,0.34-1.16,0.51-1.84,0.51
		c-1.05,0-1.86-0.29-2.44-0.89c-0.58-0.59-0.87-1.43-0.87-2.51v-6.15h1.03v6.06c0,1.71,0.83,2.57,2.48,2.57
		c0.82,0,1.5-0.3,2.03-0.89C144.14,19.51,144.42,18.67,144.43,17.59"/>
	<path d="M151.55,12.36v0.9h-2.17v6.47c0,0.74,0.44,1.1,1.32,1.1c0.46,0,0.74-0.01,0.85-0.02v0.87c-0.35,0.04-0.67,0.05-0.98,0.05
		c-1.47,0-2.21-0.64-2.21-1.92v-6.56h-1.59v-0.9h1.59V9.72h1.01v2.64H151.55z"/>
	<path d="M157.14,12.15c1.05,0,1.86,0.29,2.44,0.89c0.58,0.59,0.87,1.43,0.87,2.51v6.15h-1.03v-6.06c0-1.71-0.83-2.57-2.48-2.57
		c-0.76,0-1.42,0.29-1.99,0.87c-0.56,0.58-0.84,1.42-0.87,2.53v5.23h-1.03V8.82h1.03v5.17c0.3-0.58,0.72-1.03,1.25-1.36
		C155.86,12.31,156.46,12.15,157.14,12.15"/>
	<path d="M170.57,17.01v0.36h-7.32c0.05,1.16,0.35,2.05,0.91,2.67c0.56,0.62,1.33,0.93,2.31,0.93c0.75,0,1.37-0.2,1.86-0.6
		c0.49-0.4,0.82-0.96,0.98-1.65h1.07c-0.22,0.99-0.67,1.77-1.36,2.34c-0.69,0.57-1.55,0.86-2.59,0.86c-1.3,0-2.33-0.45-3.09-1.34
		c-0.76-0.89-1.14-2.07-1.14-3.54c0-1.46,0.38-2.64,1.14-3.54c0.75-0.89,1.77-1.34,3.06-1.34c1.31,0,2.34,0.46,3.07,1.37
		C170.2,14.44,170.57,15.6,170.57,17.01 M166.39,13.09c-0.89,0-1.62,0.3-2.17,0.89c-0.56,0.59-0.87,1.42-0.96,2.48h6.2
		c-0.06-1.02-0.36-1.84-0.9-2.45C168.04,13.39,167.31,13.09,166.39,13.09"/>
	<path d="M176.5,12.24c0.26,0,0.44,0.01,0.52,0.02v0.98h-0.43c-1.02,0-1.82,0.29-2.4,0.87c-0.57,0.58-0.86,1.37-0.86,2.37v5.23
		h-1.03v-9.33h0.98v1.95C173.91,12.93,174.98,12.24,176.5,12.24"/>
	<path d="M182.49,12.15c1.05,0,1.86,0.29,2.44,0.89c0.58,0.59,0.87,1.43,0.87,2.51v6.15h-1.03v-6.06c0-1.71-0.83-2.57-2.48-2.57
		c-0.76,0-1.42,0.29-1.99,0.87c-0.56,0.58-0.84,1.42-0.87,2.53v5.23h-1.03v-9.33h0.98v1.74c0.3-0.61,0.72-1.09,1.27-1.44
		C181.18,12.32,181.8,12.15,182.49,12.15"/>
	<polygon points="191.09,8.82 201.33,8.82 201.33,9.8 196.75,9.8 196.75,21.69 195.65,21.69 195.65,9.8 191.09,9.8 	"/>
	<path d="M208.23,20.86h0.49v0.83c-0.21,0.04-0.43,0.06-0.67,0.06c-0.51,0-0.87-0.12-1.1-0.37s-0.34-0.63-0.34-1.15V20.1
		c-0.63,1.21-1.75,1.81-3.38,1.81c-1,0-1.78-0.24-2.32-0.71c-0.55-0.48-0.82-1.13-0.82-1.96c0-1.61,1.11-2.56,3.33-2.82l1.45-0.16
		c0.64-0.08,1.08-0.24,1.34-0.47s0.38-0.58,0.38-1.05c0-1.13-0.8-1.7-2.41-1.7c-0.93,0-1.6,0.16-2.02,0.49
		c-0.42,0.33-0.64,0.87-0.68,1.65h-0.99c0.06-2.01,1.29-3.02,3.69-3.02c1.13,0,1.98,0.23,2.55,0.68c0.57,0.45,0.85,1.09,0.85,1.91
		v5.46C207.57,20.64,207.79,20.86,208.23,20.86 M203.28,21.04c0.93,0,1.71-0.26,2.35-0.8c0.63-0.52,0.94-1.3,0.94-2.33V16.5
		c-0.3,0.3-0.82,0.5-1.56,0.58l-1.45,0.18c-0.86,0.11-1.47,0.32-1.85,0.62c-0.38,0.31-0.57,0.75-0.57,1.33
		c0,0.57,0.18,1.01,0.54,1.34C202.05,20.88,202.58,21.04,203.28,21.04"/>
	<path d="M210.91,10.95h-1.08v-1.7h1.08V10.95z M210.89,21.69h-1.03v-9.33h1.03V21.69z"/>
	<path d="M223.06,17.5l1.81-5.14h1.08l-3.27,9.33h-1.1l-1.79-5.5c-0.29-0.84-0.55-1.7-0.78-2.57c-0.23,0.87-0.49,1.72-0.78,2.57
		l-1.79,5.5h-1.08l-3.29-9.33h1.1l1.77,5.14c0.06,0.17,0.38,1.18,0.96,3.02c0.26-0.94,0.57-1.95,0.92-3.02l1.65-5.14h1.08l1.66,5.14
		c0.2,0.64,0.51,1.64,0.9,3c0.19-0.59,0.39-1.21,0.6-1.87C222.92,17.97,223.04,17.6,223.06,17.5"/>
	<path d="M234.38,20.86h0.49v0.83c-0.21,0.04-0.43,0.06-0.67,0.06c-0.51,0-0.87-0.12-1.1-0.37c-0.23-0.25-0.34-0.63-0.34-1.15V20.1
		c-0.63,1.21-1.75,1.81-3.38,1.81c-1,0-1.78-0.24-2.32-0.71c-0.55-0.48-0.82-1.13-0.82-1.96c0-1.61,1.11-2.56,3.33-2.82l1.45-0.16
		c0.64-0.08,1.08-0.24,1.34-0.47c0.25-0.23,0.38-0.58,0.38-1.05c0-1.13-0.8-1.7-2.41-1.7c-0.93,0-1.6,0.16-2.02,0.49
		c-0.42,0.33-0.64,0.87-0.68,1.65h-0.99c0.06-2.01,1.29-3.02,3.69-3.02c1.13,0,1.98,0.23,2.55,0.68c0.57,0.45,0.85,1.09,0.85,1.91
		v5.46C233.71,20.64,233.93,20.86,234.38,20.86 M229.42,21.04c0.93,0,1.71-0.26,2.35-0.8c0.63-0.52,0.94-1.3,0.94-2.33V16.5
		c-0.3,0.3-0.82,0.5-1.56,0.58l-1.45,0.18c-0.86,0.11-1.47,0.32-1.85,0.62c-0.38,0.31-0.57,0.75-0.57,1.33
		c0,0.57,0.18,1.01,0.54,1.34C228.19,20.88,228.72,21.04,229.42,21.04"/>
	<path d="M240.18,12.15c1.05,0,1.86,0.29,2.44,0.89c0.58,0.59,0.87,1.43,0.87,2.51v6.15h-1.03v-6.06c0-1.71-0.83-2.57-2.48-2.57
		c-0.76,0-1.42,0.29-1.99,0.87c-0.56,0.58-0.84,1.42-0.87,2.53v5.23h-1.03v-9.33h0.98v1.74c0.3-0.61,0.72-1.09,1.27-1.44
		C238.88,12.32,239.49,12.15,240.18,12.15"/>
	<path d="M257.9,20.7c-0.86,0.84-2.06,1.27-3.62,1.27c-1.56,0-2.75-0.42-3.6-1.27c-0.87-0.85-1.3-2.08-1.3-3.69V8.82h1.07v8.19
		c0,1.33,0.33,2.32,0.99,2.99c0.66,0.67,1.61,1,2.84,1c1.24,0,2.19-0.33,2.86-1c0.66-0.67,0.99-1.67,0.99-2.99V8.82h1.07v8.19
		C259.2,18.61,258.77,19.84,257.9,20.7"/>
	<path d="M265.37,12.15c1.05,0,1.86,0.29,2.44,0.89c0.58,0.59,0.87,1.43,0.87,2.51v6.15h-1.03v-6.06c0-1.71-0.83-2.57-2.48-2.57
		c-0.76,0-1.42,0.29-1.99,0.87c-0.56,0.58-0.84,1.42-0.87,2.53v5.23h-1.03v-9.33h0.98v1.74c0.3-0.61,0.72-1.09,1.27-1.44
		C264.07,12.32,264.68,12.15,265.37,12.15"/>
	<path d="M271.89,10.95h-1.08v-1.7h1.08V10.95z M271.88,21.69h-1.03v-9.33h1.03V21.69z"/>
	<path d="M278.69,17.01l1.83-4.65h1.1l-3.74,9.33h-1.08l-3.74-9.33h1.12l1.81,4.66c0.46,1.12,0.91,2.32,1.36,3.6
		C277.49,20.19,277.95,18.99,278.69,17.01"/>
	<path d="M290.3,17.01v0.36h-7.32c0.05,1.16,0.35,2.05,0.91,2.67c0.56,0.62,1.33,0.93,2.31,0.93c0.75,0,1.37-0.2,1.86-0.6
		c0.49-0.4,0.82-0.96,0.98-1.65h1.07c-0.22,0.99-0.67,1.77-1.36,2.34c-0.69,0.57-1.55,0.86-2.59,0.86c-1.3,0-2.33-0.45-3.09-1.34
		c-0.76-0.89-1.14-2.07-1.14-3.54c0-1.46,0.38-2.64,1.14-3.54c0.75-0.89,1.77-1.34,3.06-1.34c1.31,0,2.34,0.46,3.07,1.37
		C289.93,14.44,290.3,15.6,290.3,17.01 M286.12,13.09c-0.89,0-1.62,0.3-2.17,0.89c-0.56,0.59-0.87,1.42-0.96,2.48h6.2
		c-0.06-1.02-0.36-1.84-0.9-2.45C287.77,13.39,287.04,13.09,286.12,13.09"/>
	<path d="M296.23,12.24c0.26,0,0.44,0.01,0.52,0.02v0.98h-0.43c-1.02,0-1.82,0.29-2.4,0.87c-0.57,0.58-0.86,1.37-0.86,2.37v5.23
		h-1.03v-9.33h0.98v1.95C293.64,12.93,294.71,12.24,296.23,12.24"/>
	<path d="M300.95,21.91c-1.19,0-2.12-0.26-2.78-0.8c-0.66-0.53-1.03-1.3-1.09-2.31h1.05c0.12,1.48,1.06,2.22,2.82,2.22
		c1.74,0,2.6-0.59,2.6-1.77c0-0.48-0.17-0.86-0.52-1.12c-0.35-0.27-0.94-0.48-1.77-0.63l-0.96-0.16c-1-0.18-1.74-0.49-2.21-0.91
		c-0.48-0.43-0.71-1-0.71-1.73c0-0.8,0.29-1.42,0.89-1.87c0.59-0.45,1.41-0.68,2.46-0.68c2.37,0,3.6,0.96,3.69,2.89h-1.05
		c-0.05-0.69-0.28-1.19-0.71-1.52c-0.42-0.33-1.07-0.49-1.93-0.49c-0.74,0-1.31,0.14-1.71,0.43c-0.4,0.29-0.61,0.69-0.61,1.21
		c0,0.48,0.17,0.86,0.52,1.12c0.34,0.27,0.91,0.47,1.69,0.61l0.94,0.16c1.07,0.19,1.85,0.5,2.32,0.91c0.48,0.42,0.71,0.99,0.71,1.71
		c0,0.88-0.32,1.55-0.97,2.02C302.97,21.68,302.08,21.91,300.95,21.91"/>
	<path d="M307.17,10.95h-1.08v-1.7h1.08V10.95z M307.15,21.69h-1.03v-9.33h1.03V21.69z"/>
	<path d="M313.24,12.36v0.9h-2.17v6.47c0,0.74,0.44,1.1,1.32,1.1c0.46,0,0.74-0.01,0.85-0.02v0.87c-0.35,0.04-0.67,0.05-0.98,0.05
		c-1.47,0-2.21-0.64-2.21-1.92v-6.56h-1.59v-0.9h1.59V9.72h1.01v2.64H313.24z"/>
	<path d="M319.34,16.88l1.63-4.52h1.1l-3.96,10.67c-0.29,0.8-0.66,1.37-1.1,1.73c-0.45,0.35-1.02,0.53-1.72,0.53
		c-0.23,0-0.49-0.02-0.78-0.05v-0.85h0.76c0.86,0,1.48-0.52,1.88-1.57c0.11-0.27,0.22-0.56,0.33-0.87l-3.67-9.58h1.12l1.7,4.52
		c0.1,0.24,0.41,1.12,0.94,2.64c0.16,0.45,0.3,0.85,0.43,1.21C318.49,19.26,318.94,17.98,319.34,16.88"/>
	<path d="M331.07,21.91c-1.29,0-2.33-0.45-3.13-1.36c-0.81-0.88-1.21-2.06-1.21-3.53c0-1.47,0.4-2.65,1.21-3.54
		c0.8-0.89,1.84-1.34,3.13-1.34s2.34,0.45,3.16,1.34c0.8,0.9,1.19,2.08,1.19,3.54c0,1.47-0.4,2.65-1.19,3.53
		C333.42,21.46,332.36,21.91,331.07,21.91 M328.69,19.9c0.59,0.72,1.39,1.08,2.39,1.08c1,0,1.8-0.36,2.4-1.08
		c0.59-0.7,0.89-1.66,0.89-2.87c0-1.22-0.3-2.18-0.89-2.89c-0.6-0.71-1.4-1.07-2.4-1.07c-0.99,0-1.78,0.36-2.39,1.07
		c-0.59,0.71-0.89,1.68-0.89,2.89C327.8,18.25,328.09,19.2,328.69,19.9"/>
	<path d="M340.71,9.69h-0.76c-0.95,0-1.43,0.48-1.43,1.45v1.23h2.1v0.9h-2.1v8.43h-1.01v-8.43h-1.59v-0.9h1.59v-1.19
		c0-1.59,0.79-2.39,2.37-2.39c0.17,0,0.45,0.01,0.83,0.04V9.69z"/>
	<path d="M350.73,21.98c-3.36,0-5.1-1.41-5.21-4.23h1.1c0.08,2.17,1.45,3.26,4.1,3.26c1.16,0,2.05-0.24,2.68-0.72
		c0.63-0.47,0.94-1.14,0.94-1.98c0-0.7-0.25-1.25-0.75-1.65c-0.5-0.4-1.35-0.73-2.56-0.99l-1.27-0.25
		c-1.29-0.26-2.25-0.68-2.87-1.25c-0.63-0.57-0.94-1.35-0.94-2.35c0-1.01,0.39-1.81,1.17-2.4c0.78-0.59,1.83-0.89,3.17-0.89
		c1.58,0,2.77,0.34,3.56,1.02c0.8,0.68,1.2,1.61,1.23,2.78h-1.1c-0.1-1.88-1.33-2.82-3.69-2.82c-1.04,0-1.83,0.21-2.4,0.62
		c-0.56,0.42-0.84,0.98-0.84,1.69c0,0.72,0.24,1.28,0.71,1.68c0.47,0.4,1.3,0.72,2.48,0.98l1.27,0.25c1.41,0.29,2.42,0.72,3.03,1.29
		c0.61,0.57,0.91,1.33,0.91,2.29c0,1.13-0.41,2.03-1.24,2.69C353.38,21.65,352.22,21.98,350.73,21.98"/>
	<path d="M361.05,21.91c-1.28,0-2.3-0.44-3.06-1.32c-0.77-0.88-1.16-2.07-1.16-3.56s0.39-2.68,1.16-3.56
		c0.76-0.88,1.78-1.32,3.06-1.32c1.05,0,1.92,0.3,2.62,0.9c0.7,0.6,1.12,1.4,1.27,2.39h-1.05c-0.15-0.74-0.47-1.31-0.99-1.74
		c-0.51-0.42-1.13-0.63-1.85-0.63c-0.95,0-1.72,0.35-2.29,1.05c-0.57,0.7-0.86,1.67-0.86,2.91c0,1.24,0.29,2.21,0.86,2.91
		c0.57,0.7,1.33,1.05,2.29,1.05c0.74,0,1.37-0.23,1.89-0.68c0.52-0.45,0.85-1.06,0.97-1.82h1.05c-0.12,0.99-0.54,1.81-1.27,2.46
		C362.95,21.59,362.07,21.91,361.05,21.91"/>
	<path d="M367.58,10.95h-1.08v-1.7h1.08V10.95z M367.56,21.69h-1.03v-9.33h1.03V21.69z"/>
	<path d="M377.68,17.01v0.36h-7.32c0.05,1.16,0.35,2.05,0.91,2.67c0.56,0.62,1.33,0.93,2.31,0.93c0.75,0,1.37-0.2,1.86-0.6
		c0.49-0.4,0.82-0.96,0.98-1.65h1.07c-0.22,0.99-0.67,1.77-1.36,2.34c-0.69,0.57-1.55,0.86-2.59,0.86c-1.3,0-2.33-0.45-3.09-1.34
		c-0.76-0.89-1.14-2.07-1.14-3.54c0-1.46,0.38-2.64,1.14-3.54c0.75-0.89,1.77-1.34,3.06-1.34c1.31,0,2.34,0.46,3.07,1.37
		C377.32,14.44,377.68,15.6,377.68,17.01 M373.51,13.09c-0.89,0-1.62,0.3-2.17,0.89c-0.55,0.59-0.87,1.42-0.96,2.48h6.2
		c-0.06-1.02-0.36-1.84-0.9-2.45C375.15,13.39,374.42,13.09,373.51,13.09"/>
	<path d="M383.5,12.15c1.05,0,1.86,0.29,2.44,0.89c0.58,0.59,0.87,1.43,0.87,2.51v6.15h-1.03v-6.06c0-1.71-0.83-2.57-2.48-2.57
		c-0.76,0-1.42,0.29-1.99,0.87c-0.56,0.58-0.84,1.42-0.87,2.53v5.23h-1.03v-9.33h0.98v1.74c0.3-0.61,0.72-1.09,1.27-1.44
		C382.2,12.32,382.82,12.15,383.5,12.15"/>
	<path d="M392.78,21.91c-1.28,0-2.3-0.44-3.05-1.32c-0.77-0.88-1.16-2.07-1.16-3.56s0.39-2.68,1.16-3.56
		c0.76-0.88,1.78-1.32,3.05-1.32c1.05,0,1.92,0.3,2.62,0.9s1.12,1.4,1.27,2.39h-1.05c-0.15-0.74-0.47-1.31-0.99-1.74
		c-0.51-0.42-1.13-0.63-1.85-0.63c-0.95,0-1.71,0.35-2.29,1.05c-0.57,0.7-0.86,1.67-0.86,2.91c0,1.24,0.29,2.21,0.86,2.91
		c0.57,0.7,1.33,1.05,2.29,1.05c0.74,0,1.37-0.23,1.89-0.68c0.52-0.45,0.85-1.06,0.97-1.82h1.05c-0.12,0.99-0.54,1.81-1.27,2.46
		C394.68,21.59,393.8,21.91,392.78,21.91"/>
	<path d="M406.21,17.01v0.36h-7.32c0.05,1.16,0.35,2.05,0.91,2.67c0.56,0.62,1.33,0.93,2.31,0.93c0.75,0,1.37-0.2,1.86-0.6
		c0.49-0.4,0.82-0.96,0.98-1.65h1.07c-0.22,0.99-0.67,1.77-1.36,2.34c-0.69,0.57-1.55,0.86-2.58,0.86c-1.3,0-2.33-0.45-3.09-1.34
		c-0.76-0.89-1.14-2.07-1.14-3.54c0-1.46,0.38-2.64,1.14-3.54c0.75-0.89,1.77-1.34,3.06-1.34c1.31,0,2.34,0.46,3.07,1.37
		C405.85,14.44,406.21,15.6,406.21,17.01 M402.04,13.09c-0.89,0-1.62,0.3-2.17,0.89c-0.55,0.59-0.87,1.42-0.96,2.48h6.2
		c-0.06-1.02-0.36-1.84-0.9-2.45C403.68,13.39,402.95,13.09,402.04,13.09"/>
	<path d="M419.38,20.86h0.49v0.83c-0.2,0.04-0.43,0.06-0.67,0.06c-0.51,0-0.87-0.12-1.1-0.37c-0.23-0.25-0.34-0.63-0.34-1.15V20.1
		c-0.63,1.21-1.75,1.81-3.38,1.81c-1,0-1.78-0.24-2.32-0.71c-0.55-0.48-0.82-1.13-0.82-1.96c0-1.61,1.11-2.56,3.33-2.82l1.45-0.16
		c0.64-0.08,1.08-0.24,1.34-0.47c0.25-0.23,0.38-0.58,0.38-1.05c0-1.13-0.8-1.7-2.4-1.7c-0.93,0-1.6,0.16-2.02,0.49
		c-0.42,0.33-0.64,0.87-0.68,1.65h-0.99c0.06-2.01,1.29-3.02,3.69-3.02c1.13,0,1.98,0.23,2.55,0.68c0.57,0.45,0.85,1.09,0.85,1.91
		v5.46C418.71,20.64,418.93,20.86,419.38,20.86 M414.42,21.04c0.93,0,1.71-0.26,2.35-0.8c0.63-0.52,0.94-1.3,0.94-2.33V16.5
		c-0.3,0.3-0.82,0.5-1.56,0.58l-1.45,0.18c-0.86,0.11-1.47,0.32-1.85,0.62c-0.38,0.31-0.57,0.75-0.57,1.33
		c0,0.57,0.18,1.01,0.54,1.34C413.19,20.88,413.72,21.04,414.42,21.04"/>
	<path d="M425.18,12.15c1.05,0,1.86,0.29,2.44,0.89c0.58,0.59,0.87,1.43,0.87,2.51v6.15h-1.03v-6.06c0-1.71-0.83-2.57-2.48-2.57
		c-0.76,0-1.42,0.29-1.99,0.87c-0.56,0.58-0.84,1.42-0.87,2.53v5.23h-1.03v-9.33h0.98v1.74c0.3-0.61,0.72-1.09,1.27-1.44
		C423.88,12.32,424.49,12.15,425.18,12.15"/>
	<path d="M437.82,14.08V8.82h1.03v12.87h-0.98v-1.83c-0.71,1.36-1.84,2.04-3.4,2.04c-1.29,0-2.31-0.45-3.07-1.34
		c-0.77-0.88-1.16-2.06-1.16-3.54c0-1.48,0.38-2.66,1.16-3.54c0.76-0.89,1.78-1.34,3.07-1.34
		C435.99,12.15,437.11,12.79,437.82,14.08 M432.2,19.94c0.59,0.7,1.39,1.05,2.39,1.05c0.99,0,1.78-0.35,2.39-1.07
		c0.59-0.7,0.89-1.66,0.89-2.89s-0.29-2.19-0.89-2.89c-0.6-0.71-1.4-1.07-2.39-1.07c-1,0-1.8,0.36-2.39,1.08
		c-0.59,0.74-0.89,1.71-0.89,2.93C431.31,18.29,431.6,19.24,432.2,19.94"/>
	<polygon points="444.15,8.82 454.38,8.82 454.38,9.8 449.81,9.8 449.81,21.69 448.7,21.69 448.7,9.8 444.15,9.8 	"/>
	<path d="M461.63,17.01v0.36h-7.32c0.05,1.16,0.35,2.05,0.91,2.67c0.56,0.62,1.33,0.93,2.31,0.93c0.75,0,1.37-0.2,1.86-0.6
		c0.49-0.4,0.82-0.96,0.98-1.65h1.07c-0.22,0.99-0.67,1.77-1.36,2.34c-0.69,0.57-1.55,0.86-2.58,0.86c-1.3,0-2.33-0.45-3.09-1.34
		c-0.76-0.89-1.14-2.07-1.14-3.54c0-1.46,0.38-2.64,1.14-3.54c0.75-0.89,1.77-1.34,3.06-1.34c1.31,0,2.34,0.46,3.07,1.37
		C461.26,14.44,461.63,15.6,461.63,17.01 M457.45,13.09c-0.89,0-1.62,0.3-2.17,0.89c-0.55,0.59-0.87,1.42-0.96,2.48h6.2
		c-0.06-1.02-0.36-1.84-0.9-2.45C459.1,13.39,458.37,13.09,457.45,13.09"/>
	<path d="M467.16,21.91c-1.28,0-2.3-0.44-3.05-1.32c-0.77-0.88-1.16-2.07-1.16-3.56s0.39-2.68,1.16-3.56
		c0.76-0.88,1.78-1.32,3.05-1.32c1.05,0,1.92,0.3,2.62,0.9s1.12,1.4,1.27,2.39H470c-0.14-0.74-0.47-1.31-0.99-1.74
		c-0.51-0.42-1.13-0.63-1.85-0.63c-0.95,0-1.71,0.35-2.29,1.05c-0.57,0.7-0.86,1.67-0.86,2.91c0,1.24,0.29,2.21,0.86,2.91
		c0.57,0.7,1.34,1.05,2.29,1.05c0.74,0,1.37-0.23,1.89-0.68c0.52-0.45,0.85-1.06,0.97-1.82h1.05c-0.12,0.99-0.54,1.81-1.26,2.46
		C469.07,21.59,468.19,21.91,467.16,21.91"/>
	<path d="M476.73,12.15c1.05,0,1.86,0.29,2.44,0.89c0.58,0.59,0.87,1.43,0.87,2.51v6.15h-1.03v-6.06c0-1.71-0.83-2.57-2.48-2.57
		c-0.76,0-1.42,0.29-1.99,0.87c-0.56,0.58-0.84,1.42-0.87,2.53v5.23h-1.03V8.82h1.03v5.17c0.3-0.58,0.72-1.03,1.25-1.36
		C475.45,12.31,476.05,12.15,476.73,12.15"/>
	<path d="M486.29,12.15c1.05,0,1.86,0.29,2.44,0.89c0.58,0.59,0.87,1.43,0.87,2.51v6.15h-1.03v-6.06c0-1.71-0.83-2.57-2.48-2.57
		c-0.76,0-1.42,0.29-1.99,0.87c-0.56,0.58-0.84,1.42-0.87,2.53v5.23h-1.03v-9.33h0.98v1.74c0.3-0.61,0.72-1.09,1.27-1.44
		C484.99,12.32,485.61,12.15,486.29,12.15"/>
	<path d="M495.69,21.91c-1.29,0-2.33-0.45-3.13-1.36c-0.81-0.88-1.21-2.06-1.21-3.53c0-1.47,0.4-2.65,1.21-3.54
		c0.8-0.89,1.84-1.34,3.13-1.34s2.34,0.45,3.16,1.34c0.8,0.9,1.19,2.08,1.19,3.54c0,1.47-0.4,2.65-1.19,3.53
		C498.04,21.46,496.98,21.91,495.69,21.91 M493.31,19.9c0.59,0.72,1.39,1.08,2.39,1.08c1,0,1.8-0.36,2.4-1.08
		c0.59-0.7,0.89-1.66,0.89-2.87c0-1.22-0.3-2.18-0.89-2.89c-0.6-0.71-1.4-1.07-2.4-1.07c-0.99,0-1.78,0.36-2.39,1.07
		c-0.59,0.71-0.89,1.68-0.89,2.89C492.42,18.25,492.72,19.2,493.31,19.9"/>
	<rect x="501.81" y="8.82" width="1.03" height="12.87"/>
	<path d="M508.93,21.91c-1.29,0-2.33-0.45-3.13-1.36c-0.81-0.88-1.21-2.06-1.21-3.53c0-1.47,0.4-2.65,1.21-3.54
		c0.8-0.89,1.84-1.34,3.13-1.34c1.29,0,2.34,0.45,3.16,1.34c0.8,0.9,1.19,2.08,1.19,3.54c0,1.47-0.4,2.65-1.19,3.53
		C511.27,21.46,510.22,21.91,508.93,21.91 M506.54,19.9c0.59,0.72,1.39,1.08,2.39,1.08c1,0,1.8-0.36,2.4-1.08
		c0.59-0.7,0.89-1.66,0.89-2.87c0-1.22-0.3-2.18-0.89-2.89c-0.6-0.71-1.4-1.07-2.4-1.07c-0.99,0-1.78,0.36-2.39,1.07
		c-0.59,0.71-0.89,1.68-0.89,2.89C505.66,18.25,505.95,19.2,506.54,19.9"/>
	<path d="M522.15,14.1v-1.74h0.98v8.97c0,1.33-0.35,2.34-1.05,3.06c-0.7,0.71-1.73,1.07-3.09,1.07c-1.11,0-1.99-0.26-2.63-0.78
		c-0.65-0.52-1.02-1.23-1.11-2.13h1.01c0.2,1.36,1.12,2.04,2.73,2.04c2.07,0,3.11-1.09,3.11-3.25v-1.27
		c-0.75,1.23-1.85,1.84-3.31,1.84c-1.28,0-2.29-0.44-3.04-1.34c-0.75-0.89-1.12-2.07-1.12-3.54c0-1.47,0.37-2.65,1.12-3.54
		c0.75-0.89,1.76-1.34,3.04-1.34C520.31,12.15,521.43,12.8,522.15,14.1 M515.69,17.03c0,1.19,0.29,2.15,0.87,2.87
		c0.58,0.72,1.36,1.08,2.35,1.08c0.99,0,1.77-0.35,2.35-1.07c0.58-0.7,0.87-1.66,0.87-2.89c0-1.23-0.29-2.19-0.87-2.89
		c-0.58-0.71-1.36-1.07-2.35-1.07c-0.99,0-1.77,0.36-2.35,1.08C515.98,14.88,515.69,15.83,515.69,17.03"/>
	<path d="M529.83,16.88l1.63-4.52h1.1l-3.96,10.67c-0.29,0.8-0.66,1.37-1.1,1.73c-0.45,0.35-1.02,0.53-1.72,0.53
		c-0.23,0-0.49-0.02-0.78-0.05v-0.85h0.76c0.86,0,1.48-0.52,1.88-1.57c0.11-0.27,0.22-0.56,0.33-0.87l-3.67-9.58h1.12l1.7,4.52
		c0.1,0.24,0.41,1.12,0.94,2.64c0.16,0.45,0.3,0.85,0.43,1.21C528.99,19.26,529.43,17.98,529.83,16.88"/>
	<path d="M589.32,17.35c-0.43-0.56-1.5-1.74-2.24-2.53V23h-0.85v-7.83c-0.9,0.92-1.86,1.74-2.77,2.35c-0.11-0.2-0.34-0.61-0.47-0.76
		c2.08-1.32,4.39-3.71,5.57-6.15h-5.13V9.8h5.6l0.18-0.04l0.47,0.33c-0.58,1.37-1.43,2.71-2.4,3.9c0.69,0.65,2.19,2.21,2.6,2.66
		L589.32,17.35z M587.16,9.44c-0.33-0.65-1.05-1.63-1.72-2.31l0.61-0.43c0.7,0.69,1.45,1.63,1.77,2.26L587.16,9.44z M598.37,22.14
		c0.43,0,0.51-0.25,0.56-2.35c0.2,0.15,0.51,0.27,0.76,0.34c-0.07,2.28-0.31,2.8-1.23,2.8h-1.7c-1.01,0-1.28-0.24-1.28-1.25v-4.66
		h-1.88c-0.29,3.04-1.16,4.97-4.16,6.07c-0.11-0.2-0.36-0.52-0.54-0.67c2.86-0.94,3.63-2.73,3.91-5.41h-1.92V7.48h7.72v9.55h-2.31
		v4.66c0,0.38,0.09,0.45,0.54,0.45H598.37z M591.72,10.39h6.06V8.24h-6.06V10.39z M591.72,13.34h6.06v-2.19h-6.06V13.34z
		 M591.72,16.27h6.06v-2.19h-6.06V16.27z"/>
	<path d="M615.87,22.02c0.76,0,0.89-0.22,0.96-2.06c0.2,0.15,0.52,0.27,0.76,0.33c-0.11,2.04-0.38,2.49-1.65,2.49h-3.34
		c-1.46,0-1.86-0.2-1.86-1.21v-1.72h-3.06c-0.7,1.86-2.39,2.73-6,3.16c-0.07-0.2-0.29-0.54-0.42-0.67c3.36-0.36,4.88-1.03,5.51-2.49
		h-2.3v-5.77h9.94v5.77h-2.84v1.72c0,0.4,0.16,0.45,1.03,0.45H615.87z M602.79,14.81h-0.8v-2.5h1.7l-0.22-4.37l-0.02-0.02
		c0.96-0.31,2.33-0.89,3.09-1.26l0.54,0.43c-0.8,0.45-1.9,0.83-2.78,1.12l0.04,0.85h2.6v0.65h-2.57l0.04,0.98h2.67v0.65h-2.64
		l0.04,0.98h3.33c-0.13-0.13-0.33-0.31-0.45-0.4c0.6-0.29,1.19-0.69,1.74-1.1c-0.36-0.25-0.76-0.51-1.12-0.71l0.45-0.42
		c0.38,0.22,0.78,0.47,1.18,0.72c0.33-0.31,0.65-0.65,0.9-0.99l0.65,0.18c-0.31,0.42-0.65,0.8-1.07,1.18
		c0.42,0.31,0.78,0.61,1.03,0.9l-0.47,0.43c-0.25-0.29-0.63-0.6-1.05-0.92c-0.52,0.43-1.07,0.8-1.59,1.12h6.47
		c0.02-0.31,0.06-0.61,0.07-0.98h-2.64v-0.65h2.68l0.05-0.98h-2.57V9.06h2.6l0.04-0.98h-2.87V7.39h3.69
		c-0.05,1.56-0.14,3.58-0.25,4.92h1.68v2.5h-0.83V13h-13.34V14.81z M605.32,15.76h8.26v-1.05h-8.26V15.76z M605.32,17.46h8.26V16.4
		h-8.26V17.46z M605.32,19.2h8.26v-1.1h-8.26V19.2z M610.32,9.27c-0.22-0.25-0.56-0.54-0.94-0.85c-0.45,0.4-0.94,0.72-1.43,0.98
		c-0.09-0.09-0.34-0.34-0.51-0.43c0.49-0.27,0.99-0.58,1.43-0.92c-0.38-0.25-0.74-0.49-1.12-0.69l0.47-0.4
		c0.36,0.2,0.78,0.43,1.16,0.7c0.33-0.31,0.63-0.63,0.89-0.94l0.63,0.18c-0.27,0.36-0.61,0.76-1.01,1.1c0.36,0.27,0.67,0.56,0.9,0.8
		L610.32,9.27z"/>
	<path d="M624.41,6.94c-0.54,1.37-1.21,2.73-1.95,3.98v12.06h-0.83V12.2c-0.7,1.03-1.44,1.93-2.2,2.71
		c-0.09-0.16-0.36-0.6-0.53-0.78c1.86-1.81,3.62-4.59,4.68-7.43L624.41,6.94z M633.03,18.15h2.71v0.76h-2.71v3.02
		c0,0.56-0.13,0.83-0.62,0.96c-0.45,0.15-1.34,0.13-2.77,0.13c-0.05-0.24-0.2-0.54-0.31-0.8c1.27,0.04,2.17,0.04,2.49,0.02
		c0.31-0.02,0.36-0.09,0.36-0.33v-3h-8.55v-0.76h8.55v-1.41c-3,0.09-5.97,0.2-8.12,0.24l-0.09-0.78c1.43-0.02,3.31-0.04,5.35-0.07
		v-1.34h-4.39v-4.7h4.39V8.86h-5.13V8.12h5.13V6.78h0.85v1.34h5.35v0.74h-5.35v1.23h4.52v4.7h-1.75c1.05,0.69,2.22,1.64,2.84,2.31
		l-0.67,0.47c-0.24-0.27-0.54-0.6-0.92-0.92v0.04l-1.17,0.03V18.15z M625.77,12.11h3.58v-1.37h-3.58V12.11z M629.34,12.74h-3.58
		v1.37h3.58V12.74z M626.4,19.16c0.87,0.67,1.9,1.68,2.39,2.33l-0.67,0.52c-0.47-0.67-1.46-1.72-2.35-2.44L626.4,19.16z
		 M630.19,12.11h3.69v-1.37h-3.69V12.11z M633.88,12.74h-3.69v1.37h3.69V12.74z M630.19,16.11c1.07-0.04,2.17-0.05,3.27-0.09
		c-0.45-0.36-0.92-0.7-1.37-1.01l0.34-0.22h-2.24V16.11z"/>
	<path d="M641.5,15.42c-0.34,1.56-0.9,3.36-1.56,4.68c0.42,0.18,0.83,0.58,1.66,1.08c1.3,0.78,2.91,0.92,5.08,0.92
		c2.48,0,5.26-0.16,7.27-0.33c-0.11,0.24-0.24,0.65-0.25,0.92c-1.28,0.07-4.86,0.18-7.03,0.18c-2.39,0-4-0.2-5.33-1.01
		c-0.72-0.43-1.43-1.09-1.84-1.09c-0.4,0-0.99,1.09-1.56,2.3l-0.65-0.71c0.67-1.05,1.25-1.93,1.81-2.24c0.6-1.12,1.1-2.73,1.43-4.1
		h-2.44c0.54-1.08,1.19-2.69,1.7-4.12h-2.24V11.1h3.4c-0.49,1.32-1.14,2.93-1.66,4.16h1.59l0.16-0.04L641.5,15.42z M639.36,9.91
		c-0.2-0.76-0.58-1.99-0.87-2.89l0.76-0.2c0.31,0.92,0.7,2.08,0.92,2.84L639.36,9.91z M641.93,11.28v-0.72h5.32V8.93h-4.23V8.21
		h4.23V6.65h0.85v1.55h4.25v0.72h-4.25v1.63h5.5v0.72H641.93z M649.2,13.34c0.33-0.56,0.76-1.48,0.98-2.06l0.83,0.31
		c-0.36,0.69-0.74,1.43-1.1,1.97h3.42v0.72h-5.22v1.43h4.52v0.72h-4.52v1.65h5.37v0.74h-5.37v2.06h-0.85v-2.06h-5.15v-0.74h5.15
		v-1.65h-4.3v-0.72h4.3v-1.43h-4.86v-0.72h2.78c-0.13-0.56-0.51-1.36-0.96-1.95l0.78-0.24c0.43,0.58,0.85,1.39,0.98,1.95l-0.74,0.24
		h4.5L649.2,13.34z"/>
	<path d="M662.38,10.52h-6.72V9.74h6.72V10.52z M657.15,21.87v0.9h-0.8v-6.04h5.26v5.13H657.15z M661.6,12.8h-5.21v-0.74h5.21V12.8z
		 M656.41,14.39h5.22v0.76h-5.22V14.39z M657.15,21.1h3.65v-3.58h-3.65V21.1z M659.09,9.29c-0.27-0.65-0.89-1.65-1.41-2.37
		l0.71-0.36c0.54,0.72,1.14,1.64,1.43,2.3L659.09,9.29z M670.79,14.91c-0.71,2.15-1.9,3.85-3.4,5.17c1.3,0.99,2.84,1.74,4.57,2.15
		c-0.18,0.16-0.43,0.52-0.56,0.78c-1.79-0.49-3.34-1.28-4.68-2.37c-1.41,1.1-3,1.88-4.65,2.4c-0.09-0.23-0.31-0.6-0.49-0.78
		c1.56-0.43,3.13-1.17,4.48-2.21c-1.27-1.21-2.24-2.68-2.91-4.37l0.52-0.18h-1.45v-0.83h7.83l0.16-0.05L670.79,14.91z M664.95,9.35
		c0,1.55-0.45,3.43-2.53,4.75c-0.11-0.18-0.42-0.51-0.56-0.63c1.92-1.21,2.28-2.78,2.28-4.12V7.34h5.15v4.34
		c0,0.51,0.04,0.65,0.31,0.65h1.28c0.22,0,0.52-0.04,0.72-0.07c0.02,0.22,0.07,0.58,0.09,0.78c-0.18,0.06-0.51,0.07-0.81,0.07h-1.32
		c-0.89,0-1.08-0.36-1.08-1.46V8.15h-3.53V9.35z M663.92,15.51c0.63,1.56,1.59,2.91,2.82,4.01c1.25-1.07,2.28-2.4,2.91-4.01H663.92z
		"/>
	<path d="M681.36,10.52h-7.36V9.74h7.36V10.52z M674.8,12.06h5.78v0.74h-5.78V12.06z M680.51,15.15h-5.71v-0.76h5.71V15.15z
		 M680.59,21.87h-4.83v0.9h-0.78v-6.04h5.6V21.87z M675.76,21.1h4.01v-3.58h-4.01V21.1z M677.62,9.29
		c-0.29-0.65-0.89-1.65-1.41-2.35l0.7-0.36c0.52,0.72,1.12,1.65,1.41,2.28L677.62,9.29z M689.92,13.88h-3.94v9.13h-0.87v-9.13h-3.78
		v-0.85h3.78V6.98h0.87v6.06h3.94V13.88z"/>
	<path d="M697.35,18.35c-1.1,1.48-2.69,2.95-4.1,3.92c-0.16-0.13-0.53-0.43-0.74-0.56c1.45-0.92,3-2.3,3.99-3.65L697.35,18.35z
		 M704.38,7.41c-2.78,1.34-7.47,2.53-11.53,3.38c-0.06-0.22-0.18-0.52-0.29-0.72c4.01-0.85,8.71-2.1,11.19-3.35L704.38,7.41z
		 M700.51,16.87v4.9c0,0.6-0.14,0.85-0.6,1.01c-0.49,0.15-1.34,0.16-2.66,0.16c-0.04-0.27-0.2-0.61-0.34-0.87
		c1.17,0.04,2.1,0.04,2.37,0c0.29-0.02,0.36-0.09,0.36-0.29v-4.85c-5.46,0.38-6.11,0.47-6.56,0.63c-0.04-0.2-0.15-0.63-0.25-0.87
		c0.51-0.07,1.37-0.36,2.46-0.87c0.76-0.33,2.66-1.25,4.72-2.44c-4.88,0.31-5.46,0.38-5.8,0.49c-0.04-0.18-0.18-0.63-0.29-0.87
		c0.38-0.04,0.87-0.24,1.45-0.54c0.62-0.31,2.69-1.56,4.25-2.89l0.8,0.49c-1.41,1.1-2.87,2.04-4.3,2.78l5.28-0.27
		c0.72-0.45,1.45-0.94,2.15-1.41l0.69,0.58c-2.86,1.92-5.71,3.45-8.51,4.66l9.45-0.65c-0.67-0.72-1.43-1.45-2.12-2.06l0.71-0.36
		c1.43,1.23,3.02,2.87,3.78,3.94l-0.72,0.43c-0.25-0.36-0.58-0.76-0.98-1.23L700.51,16.87z M703.19,17.95
		c1.46,1.12,3.27,2.71,4.21,3.69l-0.69,0.53c-0.9-1-2.71-2.64-4.18-3.78L703.19,17.95z"/>
	<path d="M8.64,30.52h4.07c1.99,0,3.54,0.57,4.65,1.72c1.1,1.13,1.65,2.71,1.65,4.72c0,2-0.55,3.58-1.66,4.72
		c-1.12,1.15-2.69,1.72-4.72,1.72H8.64V30.52z M9.71,42.41h2.91c1.71,0,3.02-0.48,3.91-1.43c0.9-0.95,1.35-2.3,1.35-4.03
		c0-1.74-0.44-3.08-1.33-4.03c-0.89-0.95-2.17-1.43-3.84-1.43h-3V42.41z"/>
	<path d="M28.76,38.71v0.36h-7.32c0.05,1.16,0.35,2.05,0.91,2.67c0.56,0.62,1.33,0.93,2.31,0.93c0.75,0,1.37-0.2,1.86-0.61
		c0.49-0.4,0.82-0.96,0.98-1.65h1.07c-0.22,0.99-0.67,1.77-1.36,2.34c-0.69,0.57-1.55,0.86-2.59,0.86c-1.3,0-2.33-0.45-3.09-1.34
		c-0.76-0.89-1.14-2.07-1.14-3.54c0-1.46,0.38-2.64,1.14-3.54c0.75-0.89,1.77-1.34,3.06-1.34c1.31,0,2.34,0.46,3.07,1.37
		C28.4,36.13,28.76,37.3,28.76,38.71 M24.59,34.78c-0.89,0-1.62,0.3-2.17,0.89c-0.56,0.59-0.87,1.42-0.96,2.48h6.2
		c-0.06-1.02-0.36-1.84-0.9-2.45C26.23,35.09,25.5,34.78,24.59,34.78"/>
	<path d="M34.87,33.84c1.28,0,2.31,0.45,3.09,1.34c0.76,0.89,1.14,2.07,1.14,3.54c0,1.47-0.38,2.65-1.14,3.54
		c-0.78,0.89-1.81,1.34-3.09,1.34c-1.52,0-2.63-0.65-3.34-1.94v5.26H30.5V34.06h0.98v1.83C32.19,34.52,33.32,33.84,34.87,33.84
		 M32.36,41.62c0.6,0.71,1.4,1.07,2.39,1.07c1.01,0,1.81-0.37,2.4-1.1c0.59-0.71,0.89-1.68,0.89-2.91c0-1.2-0.3-2.16-0.9-2.86
		c-0.6-0.7-1.4-1.05-2.4-1.05c-0.99,0-1.78,0.36-2.39,1.07c-0.59,0.7-0.89,1.66-0.89,2.89C31.48,39.95,31.77,40.92,32.36,41.62"/>
	<path d="M48.33,42.56h0.49v0.83c-0.21,0.04-0.43,0.06-0.67,0.06c-0.51,0-0.87-0.12-1.1-0.37c-0.23-0.25-0.34-0.63-0.34-1.15V41.8
		c-0.63,1.21-1.75,1.81-3.38,1.81c-1,0-1.78-0.24-2.32-0.72c-0.55-0.48-0.82-1.13-0.82-1.96c0-1.61,1.11-2.56,3.33-2.82l1.45-0.16
		c0.64-0.08,1.08-0.24,1.34-0.47c0.25-0.23,0.38-0.58,0.38-1.05c0-1.13-0.8-1.7-2.41-1.7c-0.93,0-1.6,0.16-2.02,0.49
		c-0.42,0.33-0.64,0.87-0.68,1.65h-0.99c0.06-2.01,1.29-3.02,3.69-3.02c1.13,0,1.98,0.23,2.55,0.68c0.57,0.45,0.85,1.09,0.85,1.91
		v5.46C47.66,42.34,47.88,42.56,48.33,42.56 M43.37,42.74c0.93,0,1.71-0.26,2.35-0.8c0.63-0.52,0.94-1.3,0.94-2.33V38.2
		c-0.3,0.3-0.82,0.49-1.56,0.58l-1.45,0.18c-0.86,0.11-1.47,0.32-1.85,0.62c-0.38,0.31-0.57,0.75-0.57,1.33
		c0,0.57,0.18,1.01,0.54,1.34C42.14,42.58,42.67,42.74,43.37,42.74"/>
	<path d="M54.24,33.93c0.26,0,0.44,0.01,0.52,0.02v0.98h-0.43c-1.02,0-1.82,0.29-2.4,0.87c-0.57,0.58-0.86,1.37-0.86,2.37v5.23
		h-1.03v-9.33h0.98v1.95C51.65,34.63,52.72,33.93,54.24,33.93"/>
	<path d="M60.17,34.06v0.9H58v6.47c0,0.74,0.44,1.1,1.32,1.1c0.46,0,0.74-0.01,0.85-0.02v0.87c-0.35,0.04-0.67,0.05-0.98,0.05
		c-1.47,0-2.21-0.64-2.21-1.92v-6.56H55.4v-0.9h1.59v-2.64H58v2.64H60.17z"/>
	<path d="M71.52,33.84c1.02,0,1.81,0.3,2.36,0.9c0.55,0.6,0.82,1.42,0.82,2.49v6.17h-1.01v-6.06c0-1.71-0.77-2.57-2.3-2.57
		c-0.78,0-1.42,0.31-1.92,0.91c-0.5,0.61-0.76,1.47-0.77,2.6v5.12h-1.03v-6.06c0-1.71-0.77-2.57-2.3-2.57
		c-0.77,0-1.41,0.31-1.91,0.91c-0.5,0.61-0.76,1.47-0.77,2.6v5.12h-1.03v-9.33h0.98v1.72c0.58-1.29,1.54-1.94,2.89-1.94
		c1.52,0,2.51,0.68,2.96,2.04C69.14,34.52,70.15,33.84,71.52,33.84"/>
	<path d="M84.83,38.71v0.36h-7.32c0.05,1.16,0.35,2.05,0.91,2.67c0.56,0.62,1.33,0.93,2.31,0.93c0.75,0,1.37-0.2,1.86-0.61
		c0.49-0.4,0.82-0.96,0.98-1.65h1.07c-0.22,0.99-0.67,1.77-1.36,2.34c-0.69,0.57-1.55,0.86-2.59,0.86c-1.3,0-2.33-0.45-3.09-1.34
		c-0.76-0.89-1.14-2.07-1.14-3.54c0-1.46,0.38-2.64,1.14-3.54c0.75-0.89,1.77-1.34,3.06-1.34c1.31,0,2.34,0.46,3.07,1.37
		C84.46,36.13,84.83,37.3,84.83,38.71 M80.66,34.78c-0.89,0-1.62,0.3-2.17,0.89c-0.56,0.59-0.87,1.42-0.96,2.48h6.2
		c-0.06-1.02-0.36-1.84-0.9-2.45C82.3,35.09,81.57,34.78,80.66,34.78"/>
	<path d="M90.65,33.84c1.05,0,1.86,0.3,2.44,0.89c0.58,0.59,0.87,1.43,0.87,2.51v6.15h-1.03v-6.06c0-1.71-0.83-2.57-2.48-2.57
		c-0.76,0-1.42,0.29-1.99,0.87c-0.56,0.58-0.84,1.42-0.87,2.53v5.23h-1.03v-9.33h0.98v1.74c0.3-0.61,0.72-1.09,1.27-1.44
		C89.35,34.01,89.97,33.84,90.65,33.84"/>
	<path d="M99.69,34.06v0.9h-2.17v6.47c0,0.74,0.44,1.1,1.32,1.1c0.46,0,0.74-0.01,0.85-0.02v0.87c-0.35,0.04-0.67,0.05-0.98,0.05
		c-1.47,0-2.21-0.64-2.21-1.92v-6.56h-1.59v-0.9h1.59v-2.64h1.01v2.64H99.69z"/>
	<path d="M108.93,43.61c-1.29,0-2.33-0.45-3.13-1.36c-0.81-0.88-1.21-2.06-1.21-3.53s0.4-2.65,1.21-3.54
		c0.8-0.89,1.84-1.34,3.13-1.34c1.29,0,2.34,0.45,3.16,1.34c0.8,0.9,1.19,2.09,1.19,3.54c0,1.47-0.4,2.65-1.19,3.53
		C111.28,43.15,110.22,43.61,108.93,43.61 M106.55,41.6c0.59,0.72,1.39,1.08,2.39,1.08c1,0,1.8-0.36,2.4-1.08
		c0.59-0.7,0.89-1.66,0.89-2.87c0-1.22-0.3-2.18-0.89-2.89c-0.6-0.71-1.4-1.07-2.4-1.07c-0.99,0-1.78,0.36-2.39,1.07
		c-0.59,0.71-0.89,1.68-0.89,2.89C105.66,39.94,105.96,40.9,106.55,41.6"/>
	<path d="M118.57,31.38h-0.76c-0.95,0-1.43,0.48-1.43,1.45v1.23h2.1v0.9h-2.1v8.43h-1.01v-8.43h-1.59v-0.9h1.59v-1.19
		c0-1.59,0.79-2.39,2.37-2.39c0.17,0,0.45,0.01,0.83,0.04V31.38z"/>
	<path d="M129.58,39.47l3.33-8.95h1.12l-4.86,12.87h-1.21l-4.92-12.87h1.14l3.38,8.95c0.45,1.21,0.78,2.16,1.01,2.86
		C128.8,41.62,129.14,40.67,129.58,39.47"/>
	<path d="M136,32.65h-1.08v-1.7H136V32.65z M135.98,43.39h-1.03v-9.33h1.03V43.39z"/>
	<path d="M141.42,43.61c-1.19,0-2.12-0.27-2.78-0.8c-0.66-0.53-1.03-1.3-1.09-2.31h1.05c0.12,1.48,1.06,2.22,2.82,2.22
		c1.74,0,2.6-0.59,2.6-1.77c0-0.48-0.17-0.86-0.52-1.12c-0.35-0.27-0.94-0.48-1.77-0.63l-0.96-0.16c-1-0.18-1.74-0.49-2.21-0.91
		c-0.48-0.43-0.71-1-0.71-1.73c0-0.8,0.29-1.42,0.89-1.87c0.59-0.45,1.41-0.68,2.46-0.68c2.37,0,3.6,0.96,3.69,2.89h-1.05
		c-0.05-0.69-0.28-1.19-0.71-1.52c-0.42-0.33-1.07-0.49-1.93-0.49c-0.74,0-1.31,0.15-1.71,0.43c-0.4,0.29-0.61,0.69-0.61,1.21
		c0,0.48,0.17,0.86,0.52,1.12c0.34,0.26,0.91,0.47,1.69,0.61l0.94,0.16c1.07,0.19,1.85,0.5,2.32,0.91c0.48,0.42,0.71,0.99,0.71,1.71
		c0,0.88-0.32,1.55-0.97,2.01C143.45,43.38,142.56,43.61,141.42,43.61"/>
	<path d="M152.92,39.29v-5.23h1.03v9.33h-0.98v-1.74c-0.3,0.61-0.72,1.09-1.27,1.44c-0.54,0.34-1.16,0.52-1.84,0.52
		c-1.05,0-1.86-0.3-2.44-0.89c-0.58-0.59-0.87-1.43-0.87-2.51v-6.15h1.03v6.06c0,1.71,0.83,2.57,2.48,2.57
		c0.82,0,1.5-0.29,2.03-0.89C152.64,41.21,152.91,40.37,152.92,39.29"/>
	<path d="M163.74,42.56h0.49v0.83c-0.21,0.04-0.43,0.06-0.67,0.06c-0.51,0-0.87-0.12-1.1-0.37c-0.23-0.25-0.34-0.63-0.34-1.15V41.8
		c-0.63,1.21-1.75,1.81-3.38,1.81c-1,0-1.78-0.24-2.32-0.72c-0.55-0.48-0.82-1.13-0.82-1.96c0-1.61,1.11-2.56,3.33-2.82l1.45-0.16
		c0.64-0.08,1.08-0.24,1.34-0.47c0.25-0.23,0.38-0.58,0.38-1.05c0-1.13-0.8-1.7-2.41-1.7c-0.93,0-1.6,0.16-2.02,0.49
		c-0.42,0.33-0.64,0.87-0.68,1.65h-0.99c0.06-2.01,1.29-3.02,3.69-3.02c1.13,0,1.98,0.23,2.55,0.68c0.57,0.45,0.85,1.09,0.85,1.91
		v5.46C163.07,42.34,163.29,42.56,163.74,42.56 M158.78,42.74c0.93,0,1.71-0.26,2.35-0.8c0.63-0.52,0.94-1.3,0.94-2.33V38.2
		c-0.3,0.3-0.82,0.49-1.56,0.58l-1.45,0.18c-0.86,0.11-1.47,0.32-1.85,0.62c-0.38,0.31-0.57,0.75-0.57,1.33
		c0,0.57,0.18,1.01,0.54,1.34C157.55,42.58,158.08,42.74,158.78,42.74"/>
	<rect x="165.36" y="30.52" width="1.03" height="12.87"/>
	<path d="M177.78,43.68c-1.75,0-3.15-0.61-4.21-1.84c-1.07-1.22-1.61-2.84-1.61-4.88c0-2.02,0.54-3.66,1.61-4.9
		c1.07-1.22,2.48-1.83,4.21-1.83c1.4,0,2.57,0.4,3.53,1.18c0.95,0.79,1.57,1.91,1.84,3.37h-1.08c-0.25-1.14-0.76-2.03-1.51-2.65
		c-0.75-0.62-1.68-0.93-2.78-0.93c-1.43,0-2.58,0.52-3.44,1.55c-0.84,1.04-1.27,2.44-1.27,4.19c0,1.76,0.42,3.15,1.27,4.18
		c0.84,1.05,1.99,1.57,3.44,1.57c1.12,0,2.09-0.35,2.91-1.07c0.82-0.71,1.31-1.69,1.47-2.95h1.07c-0.16,1.54-0.75,2.76-1.77,3.65
		C180.43,43.23,179.21,43.68,177.78,43.68"/>
	<path d="M188.85,43.61c-1.29,0-2.33-0.45-3.13-1.36c-0.81-0.88-1.21-2.06-1.21-3.53s0.4-2.65,1.21-3.54
		c0.8-0.89,1.84-1.34,3.13-1.34s2.34,0.45,3.16,1.34c0.8,0.9,1.19,2.09,1.19,3.54c0,1.47-0.4,2.65-1.19,3.53
		C191.19,43.15,190.14,43.61,188.85,43.61 M186.46,41.6c0.59,0.72,1.39,1.08,2.39,1.08c1,0,1.8-0.36,2.4-1.08
		c0.59-0.7,0.89-1.66,0.89-2.87c0-1.22-0.3-2.18-0.89-2.89c-0.6-0.71-1.4-1.07-2.4-1.07c-0.99,0-1.78,0.36-2.39,1.07
		c-0.59,0.71-0.89,1.68-0.89,2.89C185.58,39.94,185.87,40.9,186.46,41.6"/>
	<path d="M204.81,33.84c1.02,0,1.81,0.3,2.36,0.9c0.55,0.6,0.82,1.42,0.82,2.49v6.17h-1.01v-6.06c0-1.71-0.77-2.57-2.3-2.57
		c-0.78,0-1.42,0.31-1.92,0.91c-0.5,0.61-0.76,1.47-0.77,2.6v5.12h-1.03v-6.06c0-1.71-0.77-2.57-2.3-2.57
		c-0.77,0-1.41,0.31-1.91,0.91c-0.5,0.61-0.76,1.47-0.77,2.6v5.12h-1.03v-9.33h0.98v1.72c0.58-1.29,1.54-1.94,2.89-1.94
		c1.52,0,2.51,0.68,2.96,2.04C202.43,34.52,203.44,33.84,204.81,33.84"/>
	<path d="M220.02,33.84c1.02,0,1.81,0.3,2.36,0.9c0.55,0.6,0.82,1.42,0.82,2.49v6.17h-1.01v-6.06c0-1.71-0.77-2.57-2.3-2.57
		c-0.78,0-1.42,0.31-1.92,0.91c-0.5,0.61-0.76,1.47-0.77,2.6v5.12h-1.03v-6.06c0-1.71-0.77-2.57-2.3-2.57
		c-0.77,0-1.41,0.31-1.91,0.91c-0.5,0.61-0.76,1.47-0.77,2.6v5.12h-1.03v-9.33h0.98v1.72c0.58-1.29,1.54-1.94,2.89-1.94
		c1.52,0,2.51,0.68,2.96,2.04C217.64,34.52,218.65,33.84,220.02,33.84"/>
	<path d="M231.41,39.29v-5.23h1.03v9.33h-0.98v-1.74c-0.3,0.61-0.72,1.09-1.27,1.44c-0.54,0.34-1.16,0.52-1.84,0.52
		c-1.05,0-1.86-0.3-2.44-0.89c-0.58-0.59-0.87-1.43-0.87-2.51v-6.15h1.03v6.06c0,1.71,0.83,2.57,2.48,2.57
		c0.82,0,1.5-0.29,2.03-0.89C231.12,41.21,231.4,40.37,231.41,39.29"/>
	<path d="M238.7,33.84c1.05,0,1.86,0.3,2.44,0.89c0.58,0.59,0.87,1.43,0.87,2.51v6.15h-1.03v-6.06c0-1.71-0.83-2.57-2.48-2.57
		c-0.76,0-1.42,0.29-1.99,0.87c-0.56,0.58-0.84,1.42-0.87,2.53v5.23h-1.03v-9.33h0.98v1.74c0.3-0.61,0.72-1.09,1.27-1.44
		C237.4,34.01,238.01,33.84,238.7,33.84"/>
	<path d="M245.22,32.65h-1.08v-1.7h1.08V32.65z M245.21,43.39h-1.03v-9.33h1.03V43.39z"/>
	<path d="M251.17,43.61c-1.28,0-2.3-0.44-3.06-1.32c-0.77-0.88-1.16-2.07-1.16-3.56c0-1.49,0.39-2.68,1.16-3.56
		c0.76-0.88,1.78-1.32,3.06-1.32c1.05,0,1.92,0.3,2.62,0.9c0.7,0.6,1.12,1.4,1.27,2.39h-1.05c-0.15-0.74-0.47-1.31-0.99-1.74
		c-0.51-0.42-1.13-0.63-1.85-0.63c-0.95,0-1.72,0.35-2.29,1.05c-0.57,0.7-0.86,1.67-0.86,2.91c0,1.24,0.29,2.21,0.86,2.91
		c0.57,0.7,1.33,1.05,2.29,1.05c0.74,0,1.37-0.23,1.89-0.68c0.52-0.45,0.85-1.06,0.97-1.82h1.05c-0.12,0.99-0.54,1.81-1.27,2.46
		C253.08,43.29,252.2,43.61,251.17,43.61"/>
	<path d="M264.26,42.56h0.49v0.83c-0.21,0.04-0.43,0.06-0.67,0.06c-0.51,0-0.87-0.12-1.1-0.37c-0.23-0.25-0.34-0.63-0.34-1.15V41.8
		c-0.63,1.21-1.75,1.81-3.38,1.81c-1,0-1.78-0.24-2.32-0.72c-0.55-0.48-0.82-1.13-0.82-1.96c0-1.61,1.11-2.56,3.33-2.82l1.45-0.16
		c0.64-0.08,1.08-0.24,1.34-0.47c0.25-0.23,0.38-0.58,0.38-1.05c0-1.13-0.8-1.7-2.41-1.7c-0.93,0-1.6,0.16-2.02,0.49
		c-0.42,0.33-0.64,0.87-0.68,1.65h-0.99c0.06-2.01,1.29-3.02,3.69-3.02c1.13,0,1.98,0.23,2.55,0.68c0.57,0.45,0.85,1.09,0.85,1.91
		v5.46C263.59,42.34,263.82,42.56,264.26,42.56 M259.31,42.74c0.93,0,1.71-0.26,2.35-0.8c0.63-0.52,0.94-1.3,0.94-2.33V38.2
		c-0.3,0.3-0.82,0.49-1.56,0.58l-1.45,0.18c-0.86,0.11-1.47,0.32-1.85,0.62c-0.38,0.31-0.57,0.75-0.57,1.33
		c0,0.57,0.18,1.01,0.54,1.34C258.08,42.58,258.61,42.74,259.31,42.74"/>
	<path d="M269.51,34.06v0.9h-2.17v6.47c0,0.74,0.44,1.1,1.32,1.1c0.46,0,0.74-0.01,0.85-0.02v0.87c-0.35,0.04-0.67,0.05-0.98,0.05
		c-1.47,0-2.21-0.64-2.21-1.92v-6.56h-1.59v-0.9h1.59v-2.64h1.01v2.64H269.51z"/>
	<path d="M272.05,32.65h-1.08v-1.7h1.08V32.65z M272.04,43.39h-1.03v-9.33h1.03V43.39z"/>
	<path d="M278.13,43.61c-1.29,0-2.33-0.45-3.13-1.36c-0.81-0.88-1.21-2.06-1.21-3.53s0.4-2.65,1.21-3.54
		c0.8-0.89,1.84-1.34,3.13-1.34s2.34,0.45,3.16,1.34c0.8,0.9,1.19,2.09,1.19,3.54c0,1.47-0.4,2.65-1.19,3.53
		C280.47,43.15,279.42,43.61,278.13,43.61 M275.74,41.6c0.59,0.72,1.39,1.08,2.39,1.08c1,0,1.8-0.36,2.4-1.08
		c0.59-0.7,0.89-1.66,0.89-2.87c0-1.22-0.3-2.18-0.89-2.89c-0.6-0.71-1.4-1.07-2.4-1.07c-0.99,0-1.78,0.36-2.39,1.07
		c-0.59,0.71-0.89,1.68-0.89,2.89C274.86,39.94,275.15,40.9,275.74,41.6"/>
	<path d="M288.33,33.84c1.05,0,1.86,0.3,2.44,0.89c0.58,0.59,0.87,1.43,0.87,2.51v6.15h-1.03v-6.06c0-1.71-0.83-2.57-2.48-2.57
		c-0.76,0-1.42,0.29-1.99,0.87c-0.56,0.58-0.84,1.42-0.87,2.53v5.23h-1.03v-9.33h0.98v1.74c0.3-0.61,0.72-1.09,1.27-1.44
		C287.03,34.01,287.64,33.84,288.33,33.84"/>
	<path d="M297.71,30.52h4.07c1.99,0,3.54,0.57,4.65,1.72c1.1,1.13,1.65,2.71,1.65,4.72c0,2-0.55,3.58-1.66,4.72
		c-1.12,1.15-2.69,1.72-4.72,1.72h-3.98V30.52z M298.78,42.41h2.91c1.71,0,3.02-0.48,3.91-1.43c0.9-0.95,1.35-2.3,1.35-4.03
		c0-1.74-0.44-3.08-1.33-4.03c-0.89-0.95-2.17-1.43-3.84-1.43h-3V42.41z"/>
	<path d="M317.83,38.71v0.36h-7.32c0.05,1.16,0.35,2.05,0.91,2.67c0.56,0.62,1.33,0.93,2.31,0.93c0.75,0,1.37-0.2,1.86-0.61
		c0.49-0.4,0.82-0.96,0.98-1.65h1.07c-0.22,0.99-0.67,1.77-1.36,2.34c-0.69,0.57-1.55,0.86-2.59,0.86c-1.3,0-2.33-0.45-3.09-1.34
		c-0.76-0.89-1.14-2.07-1.14-3.54c0-1.46,0.38-2.64,1.14-3.54c0.75-0.89,1.77-1.34,3.06-1.34c1.31,0,2.34,0.46,3.07,1.37
		C317.47,36.13,317.83,37.3,317.83,38.71 M313.66,34.78c-0.89,0-1.62,0.3-2.17,0.89c-0.56,0.59-0.87,1.42-0.96,2.48h6.2
		c-0.06-1.02-0.36-1.84-0.9-2.45C315.3,35.09,314.57,34.78,313.66,34.78"/>
	<path d="M322.79,43.61c-1.19,0-2.12-0.27-2.78-0.8c-0.66-0.53-1.03-1.3-1.09-2.31h1.05c0.12,1.48,1.06,2.22,2.82,2.22
		c1.74,0,2.6-0.59,2.6-1.77c0-0.48-0.17-0.86-0.52-1.12c-0.35-0.27-0.94-0.48-1.77-0.63l-0.96-0.16c-1-0.18-1.74-0.49-2.21-0.91
		c-0.48-0.43-0.71-1-0.71-1.73c0-0.8,0.29-1.42,0.89-1.87c0.59-0.45,1.41-0.68,2.46-0.68c2.37,0,3.6,0.96,3.69,2.89h-1.05
		c-0.05-0.69-0.28-1.19-0.71-1.52c-0.42-0.33-1.07-0.49-1.93-0.49c-0.74,0-1.31,0.15-1.71,0.43c-0.4,0.29-0.61,0.69-0.61,1.21
		c0,0.48,0.17,0.86,0.52,1.12c0.34,0.26,0.91,0.47,1.69,0.61l0.94,0.16c1.07,0.19,1.85,0.5,2.32,0.91c0.48,0.42,0.71,0.99,0.71,1.71
		c0,0.88-0.32,1.55-0.97,2.01C324.81,43.38,323.92,43.61,322.79,43.61"/>
	<path d="M329.01,32.65h-1.08v-1.7h1.08V32.65z M328.99,43.39h-1.03v-9.33h1.03V43.39z"/>
	<path d="M338.27,35.8v-1.74h0.98v8.97c0,1.33-0.35,2.34-1.05,3.06c-0.7,0.71-1.73,1.07-3.09,1.07c-1.11,0-1.99-0.26-2.63-0.78
		c-0.65-0.52-1.02-1.23-1.11-2.13h1.01c0.2,1.36,1.11,2.04,2.73,2.04c2.07,0,3.11-1.09,3.11-3.25v-1.27
		c-0.75,1.23-1.85,1.84-3.31,1.84c-1.28,0-2.29-0.45-3.04-1.34c-0.75-0.89-1.12-2.07-1.12-3.54c0-1.47,0.37-2.65,1.12-3.54
		c0.75-0.89,1.76-1.34,3.04-1.34C336.43,33.84,337.55,34.49,338.27,35.8 M331.81,38.72c0,1.19,0.29,2.15,0.87,2.87
		c0.58,0.72,1.36,1.08,2.35,1.08c0.99,0,1.77-0.35,2.35-1.07c0.58-0.7,0.87-1.66,0.87-2.89c0-1.23-0.29-2.19-0.87-2.89
		c-0.58-0.71-1.36-1.07-2.35-1.07c-0.99,0-1.77,0.36-2.35,1.08C332.1,36.57,331.81,37.53,331.81,38.72"/>
	<path d="M345.5,33.84c1.05,0,1.86,0.3,2.44,0.89c0.58,0.59,0.87,1.43,0.87,2.51v6.15h-1.03v-6.06c0-1.71-0.83-2.57-2.48-2.57
		c-0.76,0-1.42,0.29-1.99,0.87c-0.56,0.58-0.84,1.42-0.87,2.53v5.23h-1.03v-9.33h0.98v1.74c0.3-0.61,0.72-1.09,1.27-1.44
		C344.2,34.01,344.81,33.84,345.5,33.84"/>
	<path d="M398.09,42.47h2.98V31.75h-2.3v-0.71c1.07-0.18,1.88-0.47,2.51-0.83h0.85v12.26h2.75v0.92h-6.8V42.47z"/>
	<path d="M407.77,42.47h2.98V31.75h-2.3v-0.71c1.07-0.18,1.88-0.47,2.51-0.83h0.85v12.26h2.75v0.92h-6.8V42.47z"/>
	<path d="M416.34,41.82l0.6-0.71c0.76,0.81,1.79,1.61,3.47,1.61c1.7,0,2.93-1.12,2.93-2.82c0-1.77-1.23-2.96-4.38-2.96v-0.89
		c2.89,0,3.91-1.25,3.91-2.82c0-1.43-0.98-2.37-2.49-2.39c-1.14,0.02-2.17,0.61-2.89,1.39l-0.61-0.72c0.9-0.85,2.02-1.54,3.52-1.56
		c2.03,0.02,3.56,1.16,3.56,3.2c0,1.7-1.01,2.78-2.42,3.25v0.09c1.59,0.34,2.89,1.54,2.89,3.4c0,2.3-1.74,3.72-3.98,3.72
		C418.4,43.63,417.17,42.7,416.34,41.82"/>
	<path d="M428.27,39.88c-0.25,1.54-0.61,3.24-0.99,4.36c-0.16-0.07-0.54-0.22-0.74-0.29c0.43-1.14,0.74-2.75,0.96-4.21L428.27,39.88
		z M432.5,39.03c-0.07-0.34-0.18-0.72-0.31-1.17c-4.41,0.67-4.92,0.8-5.24,0.96c-0.06-0.2-0.2-0.61-0.27-0.87
		c0.33-0.05,0.74-0.52,1.27-1.21c0.33-0.34,0.99-1.25,1.74-2.39c-2.22,0.29-2.6,0.38-2.84,0.49c-0.05-0.2-0.18-0.65-0.29-0.87
		c0.27-0.07,0.6-0.47,0.99-1.01c0.38-0.56,1.72-2.66,2.51-4.67l0.83,0.38c-0.87,1.83-1.92,3.67-3,5.12l2.3-0.22
		c0.51-0.8,0.99-1.65,1.41-2.5l0.8,0.43c-1.27,2.24-2.73,4.45-4.23,6.17l3.8-0.52c-0.24-0.65-0.51-1.34-0.76-1.92l0.71-0.22
		c0.56,1.21,1.16,2.78,1.35,3.72L432.5,39.03z M430.1,39.68c0.2,1.16,0.42,2.64,0.47,3.63l-0.74,0.14
		c-0.04-0.99-0.23-2.49-0.45-3.63L430.1,39.68z M432.28,42.5c-0.16-0.81-0.56-2.06-0.9-3.02l0.67-0.2c0.36,0.96,0.8,2.19,0.94,2.96
		L432.28,42.5z M442.04,34.62c-0.51,2.57-1.44,4.68-2.66,6.38c0.92,1.26,2.06,2.28,3.4,2.87c-0.2,0.18-0.47,0.51-0.61,0.72
		c-1.3-0.65-2.4-1.64-3.33-2.89c-1.07,1.3-2.31,2.31-3.58,3c-0.13-0.2-0.38-0.52-0.58-0.69c1.3-0.65,2.59-1.68,3.65-3.06
		c-0.98-1.63-1.72-3.56-2.21-5.71h-0.31c-0.31,3.91-1.05,6.91-2.87,9.29c-0.14-0.13-0.58-0.4-0.78-0.51
		c2.57-3.07,2.96-7.77,3.04-13.96h-1.95v-0.83h6.58l0.14-0.05l0.6,0.11c-0.2,1.41-0.54,3.51-0.85,5.13h1.61l0.16-0.04L442.04,34.62z
		 M436.06,30.08c-0.04,1.56-0.09,3.02-0.18,4.36h3c0.27-1.36,0.56-3.13,0.74-4.36H436.06z M436.89,35.25
		c0.45,1.83,1.1,3.54,1.99,4.97c0.96-1.37,1.72-3.06,2.15-4.97H436.89z"/>
	<path d="M452.95,39.97v1.68h5.95v0.78h-5.95v2.28h-0.87v-2.28h-5.73v-0.78h5.73v-1.68h-7.56v-0.76h3.52V37.3h-2.48v-0.76h2.48
		v-1.08h0.81v1.08h3.22v-1.21h0.87v1.21h3.34v-1.08h0.81v1.08h2.35v0.76h-2.35v1.92h3.43v0.76H452.95z M459.04,34.84H446.1V29.2
		h12.94V34.84z M446.93,31.68h5.15V29.9h-5.15V31.68z M446.93,34.13h5.15v-1.77h-5.15V34.13z M452.08,37.3h-3.22v1.92h3.22V37.3z
		 M458.17,29.9h-5.23v1.77h5.23V29.9z M458.17,32.36h-5.23v1.77h5.23V32.36z M452.95,39.21h3.35V37.3h-3.35V39.21z"/>
	<path d="M469.02,41.74c-1.3,0.96-3.81,1.86-5.71,2.28c-0.13-0.22-0.38-0.52-0.58-0.67c1.92-0.34,4.37-1.1,5.6-1.95L469.02,41.74z
		 M478.5,39.52v0.78h-7.45v4.43h-0.85V40.3h-7.36v-0.78h7.36v-1.66h-5.64v-0.74h5.64v-1.63h-6.54v-0.74h4.27
		c-0.18-0.58-0.63-1.41-1.07-2.04l0.78-0.22c0.47,0.63,0.94,1.5,1.12,2.06l-0.61,0.2h5.06l-0.61-0.2c0.4-0.56,0.9-1.48,1.18-2.08
		l0.85,0.25c-0.4,0.72-0.89,1.48-1.28,2.03h4.45v0.74h-6.73v1.63h5.84v0.74h-5.84v1.66H478.5z M478.42,32.47h-15.49v-0.76h5.55v-3.4
		h0.83v3.4h2.64v-3.4h0.83v3.4h5.64V32.47z M466.11,31.62c-0.27-0.74-0.96-1.92-1.61-2.78l0.74-0.25c0.67,0.83,1.36,1.99,1.65,2.73
		L466.11,31.62z M472.91,41.33c1.84,0.56,4.27,1.43,5.57,2.01l-0.45,0.65c-1.26-0.6-3.71-1.5-5.57-2.11L472.91,41.33z M477.01,28.87
		c-0.51,0.98-1.14,2.1-1.68,2.84l-0.7-0.27c0.51-0.78,1.17-1.99,1.52-2.84L477.01,28.87z"/>
	<path d="M483.23,33.07v1.45c0,3-0.23,7.25-2.11,10.2c-0.13-0.14-0.53-0.36-0.74-0.45c1.83-2.87,1.99-6.85,1.99-9.74v-5.26h13.23
		v3.81H483.23z M483.23,32.29h11.52v-2.24h-11.52V32.29z M495.62,39.88c-0.92,0.74-2.17,1.5-3.2,2.06c1.23,0.99,2.77,1.7,4.52,2.08
		c-0.18,0.18-0.42,0.49-0.52,0.74c-3.31-0.81-5.8-2.8-7.03-5.66h-2.87v4.23l4.39-1.05c-0.02,0.24-0.02,0.58,0.02,0.76
		c-4.88,1.26-5.39,1.41-5.69,1.63c-0.07-0.22-0.27-0.6-0.42-0.78c0.31-0.15,0.85-0.51,0.85-1.23v-3.56h-2.24v-0.78h3.52v-2.3h-2.96
		v-0.78h2.96v-1.79h0.83v1.79h4.18v-1.79h0.83v1.79h3.31v0.78h-3.31v2.3h4v0.78h-6.58c0.43,0.89,0.99,1.68,1.7,2.35
		c0.99-0.56,2.3-1.41,3.06-2.04L495.62,39.88z M487.77,38.33h4.18v-2.3h-4.18V38.33z"/>
	<path d="M504.72,37.88V36.9h5.37v6.49h-0.89L509,41c-0.92,1.78-2.45,2.68-4.59,2.68c-1.81,0-3.26-0.62-4.34-1.86
		c-1.09-1.24-1.63-2.86-1.63-4.86c0-2,0.54-3.63,1.63-4.88c1.07-1.23,2.52-1.84,4.34-1.84c1.51,0,2.75,0.41,3.74,1.23
		c0.98,0.83,1.57,1.92,1.79,3.27h-1.12c-0.18-1.06-0.67-1.91-1.47-2.56c-0.8-0.65-1.78-0.97-2.94-0.97c-1.48,0-2.66,0.52-3.53,1.55
		c-0.88,1.04-1.32,2.44-1.32,4.19c0,1.75,0.44,3.14,1.32,4.18c0.89,1.05,2.07,1.57,3.54,1.57c1.39,0,2.51-0.46,3.38-1.37
		c0.87-0.9,1.3-2.05,1.3-3.45H504.72z"/>
	<path d="M516.45,33.93c0.26,0,0.44,0.01,0.52,0.02v0.98h-0.43c-1.02,0-1.82,0.29-2.4,0.87c-0.57,0.58-0.86,1.37-0.86,2.37v5.23
		h-1.03v-9.33h0.98v1.95C513.86,34.63,514.93,33.93,516.45,33.93"/>
	<path d="M525.29,42.56h0.49v0.83c-0.2,0.04-0.43,0.06-0.67,0.06c-0.51,0-0.87-0.12-1.1-0.37s-0.34-0.63-0.34-1.15V41.8
		c-0.63,1.21-1.75,1.81-3.38,1.81c-1,0-1.78-0.24-2.32-0.72c-0.55-0.48-0.82-1.13-0.82-1.96c0-1.61,1.11-2.56,3.33-2.82l1.45-0.16
		c0.64-0.08,1.08-0.24,1.34-0.47c0.25-0.23,0.38-0.58,0.38-1.05c0-1.13-0.8-1.7-2.4-1.7c-0.93,0-1.6,0.16-2.02,0.49
		c-0.42,0.33-0.64,0.87-0.68,1.65h-0.99c0.06-2.01,1.29-3.02,3.69-3.02c1.13,0,1.98,0.23,2.55,0.68c0.57,0.45,0.85,1.09,0.85,1.91
		v5.46C524.62,42.34,524.85,42.56,525.29,42.56 M520.34,42.74c0.93,0,1.71-0.26,2.35-0.8c0.63-0.52,0.94-1.3,0.94-2.33V38.2
		c-0.3,0.3-0.82,0.49-1.56,0.58l-1.45,0.18c-0.86,0.11-1.47,0.32-1.85,0.62c-0.38,0.31-0.57,0.75-0.57,1.33
		c0,0.57,0.18,1.01,0.54,1.34C519.11,42.58,519.64,42.74,520.34,42.74"/>
	<path d="M534.02,35.78v-5.26h1.03v12.87h-0.98v-1.83c-0.71,1.36-1.84,2.04-3.4,2.04c-1.29,0-2.31-0.45-3.07-1.34
		c-0.77-0.88-1.16-2.06-1.16-3.54c0-1.48,0.38-2.66,1.16-3.54c0.76-0.89,1.78-1.34,3.07-1.34C532.2,33.84,533.31,34.49,534.02,35.78
		 M528.4,41.64c0.59,0.7,1.39,1.05,2.39,1.05c0.99,0,1.78-0.36,2.39-1.07c0.59-0.7,0.89-1.66,0.89-2.89s-0.29-2.19-0.89-2.89
		c-0.6-0.71-1.4-1.07-2.39-1.07c-1,0-1.8,0.36-2.39,1.08c-0.59,0.74-0.89,1.71-0.89,2.93C527.52,39.98,527.81,40.94,528.4,41.64"/>
	<path d="M543.59,39.29v-5.23h1.03v9.33h-0.98v-1.74c-0.3,0.61-0.72,1.09-1.27,1.44c-0.54,0.34-1.16,0.52-1.84,0.52
		c-1.05,0-1.86-0.3-2.44-0.89c-0.58-0.59-0.87-1.43-0.87-2.51v-6.15h1.03v6.06c0,1.71,0.83,2.57,2.48,2.57
		c0.82,0,1.5-0.29,2.03-0.89C543.3,41.21,543.57,40.37,543.59,39.29"/>
	<path d="M554.4,42.56h0.49v0.83c-0.2,0.04-0.43,0.06-0.67,0.06c-0.51,0-0.87-0.12-1.1-0.37s-0.34-0.63-0.34-1.15V41.8
		c-0.63,1.21-1.75,1.81-3.38,1.81c-1,0-1.78-0.24-2.32-0.72c-0.55-0.48-0.82-1.13-0.82-1.96c0-1.61,1.11-2.56,3.33-2.82l1.45-0.16
		c0.64-0.08,1.08-0.24,1.34-0.47c0.25-0.23,0.38-0.58,0.38-1.05c0-1.13-0.8-1.7-2.4-1.7c-0.93,0-1.6,0.16-2.02,0.49
		c-0.42,0.33-0.64,0.87-0.68,1.65h-0.99c0.06-2.01,1.29-3.02,3.69-3.02c1.13,0,1.98,0.23,2.55,0.68c0.57,0.45,0.85,1.09,0.85,1.91
		v5.46C553.73,42.34,553.95,42.56,554.4,42.56 M549.45,42.74c0.93,0,1.71-0.26,2.35-0.8c0.63-0.52,0.94-1.3,0.94-2.33V38.2
		c-0.3,0.3-0.82,0.49-1.56,0.58l-1.45,0.18c-0.86,0.11-1.47,0.32-1.85,0.62c-0.38,0.31-0.57,0.75-0.57,1.33
		c0,0.57,0.18,1.01,0.54,1.34C548.22,42.58,548.75,42.74,549.45,42.74"/>
	<path d="M559.64,34.06v0.9h-2.17v6.47c0,0.74,0.44,1.1,1.32,1.1c0.46,0,0.74-0.01,0.85-0.02v0.87c-0.35,0.04-0.68,0.05-0.98,0.05
		c-1.47,0-2.21-0.64-2.21-1.92v-6.56h-1.59v-0.9h1.59v-2.64h1.01v2.64H559.64z"/>
	<path d="M562.19,32.65h-1.08v-1.7h1.08V32.65z M562.17,43.39h-1.03v-9.33h1.03V43.39z"/>
	<path d="M568.27,43.61c-1.29,0-2.33-0.45-3.13-1.36c-0.81-0.88-1.21-2.06-1.21-3.53s0.4-2.65,1.21-3.54
		c0.8-0.89,1.84-1.34,3.13-1.34c1.29,0,2.34,0.45,3.16,1.34c0.8,0.9,1.19,2.09,1.19,3.54c0,1.47-0.4,2.65-1.19,3.53
		C570.61,43.15,569.56,43.61,568.27,43.61 M565.88,41.6c0.59,0.72,1.39,1.08,2.39,1.08c1,0,1.8-0.36,2.4-1.08
		c0.59-0.7,0.89-1.66,0.89-2.87c0-1.22-0.3-2.18-0.89-2.89c-0.6-0.71-1.4-1.07-2.4-1.07c-0.99,0-1.78,0.36-2.39,1.07
		c-0.59,0.71-0.89,1.68-0.89,2.89C565,39.94,565.29,40.9,565.88,41.6"/>
	<path d="M578.46,33.84c1.05,0,1.86,0.3,2.44,0.89c0.58,0.59,0.87,1.43,0.87,2.51v6.15h-1.03v-6.06c0-1.71-0.83-2.57-2.48-2.57
		c-0.76,0-1.42,0.29-1.99,0.87c-0.56,0.58-0.84,1.42-0.87,2.53v5.23h-1.03v-9.33h0.98v1.74c0.3-0.61,0.72-1.09,1.27-1.44
		C577.16,34.01,577.78,33.84,578.46,33.84"/>
	<polygon points="596.53,30.52 596.53,31.49 588.92,31.49 588.92,36.18 595.8,36.18 595.8,37.15 588.92,37.15 588.92,42.41 
		596.53,42.41 596.53,43.39 587.85,43.39 587.85,30.52 	"/>
	<path d="M605.46,34.06l-3.42,4.54l3.62,4.79h-1.21l-1.14-1.52c-1.17-1.59-1.79-2.44-1.86-2.53c-1.19,1.63-1.81,2.48-1.86,2.55
		l-1.14,1.5h-1.19l3.6-4.79l-3.4-4.54h1.19l1.23,1.63c0.28,0.37,0.53,0.72,0.76,1.04c0.23,0.32,0.43,0.59,0.6,0.81l0.24,0.34
		l1.59-2.19l1.21-1.63H605.46z"/>
	<path d="M610.78,33.84c1.05,0,1.86,0.3,2.44,0.89c0.58,0.59,0.87,1.43,0.87,2.51v6.15h-1.03v-6.06c0-1.71-0.83-2.57-2.48-2.57
		c-0.76,0-1.42,0.29-1.99,0.87c-0.56,0.58-0.84,1.42-0.87,2.53v5.23h-1.03V30.52h1.03v5.17c0.3-0.58,0.72-1.03,1.25-1.36
		C609.5,34.01,610.1,33.84,610.78,33.84"/>
	<path d="M617.3,32.65h-1.08v-1.7h1.08V32.65z M617.28,43.39h-1.03v-9.33h1.03V43.39z"/>
	<path d="M623.83,33.84c1.28,0,2.31,0.45,3.09,1.34c0.76,0.89,1.14,2.07,1.14,3.54c0,1.47-0.38,2.65-1.14,3.54
		c-0.78,0.89-1.82,1.34-3.09,1.34c-1.55,0-2.69-0.68-3.4-2.04v1.83h-0.98V30.52h1.03v5.26C621.2,34.49,622.31,33.84,623.83,33.84
		 M621.32,41.62c0.6,0.71,1.4,1.07,2.39,1.07c1.01,0,1.81-0.37,2.4-1.1c0.59-0.71,0.89-1.68,0.89-2.91c0-1.2-0.3-2.16-0.89-2.86
		s-1.4-1.05-2.4-1.05c-0.99,0-1.78,0.36-2.39,1.07c-0.59,0.7-0.89,1.66-0.89,2.89C620.43,39.95,620.73,40.92,621.32,41.62"/>
	<path d="M630.86,32.65h-1.08v-1.7h1.08V32.65z M630.85,43.39h-1.03v-9.33h1.03V43.39z"/>
	<path d="M636.94,34.06v0.9h-2.17v6.47c0,0.74,0.44,1.1,1.32,1.1c0.46,0,0.74-0.01,0.85-0.02v0.87c-0.35,0.04-0.68,0.05-0.98,0.05
		c-1.47,0-2.21-0.64-2.21-1.92v-6.56h-1.59v-0.9h1.59v-2.64h1.01v2.64H636.94z"/>
	<path d="M639.49,32.65h-1.08v-1.7h1.08V32.65z M639.47,43.39h-1.03v-9.33h1.03V43.39z"/>
	<path d="M645.56,43.61c-1.29,0-2.33-0.45-3.13-1.36c-0.81-0.88-1.21-2.06-1.21-3.53s0.4-2.65,1.21-3.54
		c0.8-0.89,1.84-1.34,3.13-1.34c1.29,0,2.34,0.45,3.16,1.34c0.8,0.9,1.19,2.09,1.19,3.54c0,1.47-0.4,2.65-1.19,3.53
		C647.91,43.15,646.85,43.61,645.56,43.61 M643.18,41.6c0.59,0.72,1.39,1.08,2.39,1.08c1,0,1.8-0.36,2.4-1.08
		c0.59-0.7,0.89-1.66,0.89-2.87c0-1.22-0.3-2.18-0.89-2.89c-0.6-0.71-1.4-1.07-2.4-1.07c-0.99,0-1.78,0.36-2.39,1.07
		c-0.59,0.71-0.89,1.68-0.89,2.89C642.29,39.94,642.58,40.9,643.18,41.6"/>
	<path d="M655.76,33.84c1.05,0,1.86,0.3,2.44,0.89c0.58,0.59,0.87,1.43,0.87,2.51v6.15h-1.03v-6.06c0-1.71-0.83-2.57-2.48-2.57
		c-0.76,0-1.42,0.29-1.99,0.87c-0.56,0.58-0.84,1.42-0.87,2.53v5.23h-1.03v-9.33h0.98v1.74c0.3-0.61,0.72-1.09,1.27-1.44
		C654.46,34.01,655.07,33.84,655.76,33.84"/>
	<path d="M385.72,27.25c0.07,0.22-0.08,0.34-0.17,0.46c-1.4,2.04-2.81,4.08-4.22,6.12c-0.27,0.39-0.32,0.78-0.13,1.24
		c1.1,2.65,0.67,5.08-1.2,7.21c-1.68,1.91-4.79,2.56-7.14,1.57c-0.67-0.28-1.21-0.28-1.83,0.16c-1.76,1.27-3.57,2.47-5.36,3.71
		c-0.28,0.2-0.55,0.43-0.92,0.56c-0.05-0.27,0.11-0.4,0.22-0.56c1.38-2.02,2.77-4.03,4.16-6.04c0.28-0.41,0.29-0.81,0.11-1.25
		c-1.04-2.58-0.71-4.98,1.12-7.06c1.5-1.71,3.49-2.36,5.75-2.11c0.63,0.07,1.23,0.25,1.8,0.53c0.46,0.22,0.85,0.16,1.25-0.12
		c2.03-1.4,4.05-2.8,6.08-4.19C385.39,27.38,385.52,27.25,385.72,27.25 M375.26,42.34c2.24,0.13,4.68-1.95,4.59-4.74
		c-0.07-2.28-2.1-4.52-4.72-4.46c-2.32,0.05-4.63,2.05-4.51,4.79C370.73,40.4,372.71,42.36,375.26,42.34"/>
	<path d="M363.22,37.89c0.03-2.48,0.66-4.67,1.96-6.66c0.26-0.39,0.27-0.37,0.55,0.01c0.51,0.68,0.54,1.27,0.14,2.1
		c-1.58,3.33-1.37,6.64,0.5,9.82c0.17,0.3,0.21,0.51-0.03,0.77c-0.17,0.19-0.31,0.42-0.45,0.64c-0.19,0.3-0.34,0.29-0.54,0.01
		c-0.67-0.96-1.18-2.01-1.55-3.11C363.42,40.27,363.26,39.03,363.22,37.89"/>
	<path d="M382.28,28.23c-0.02,0.03-0.05,0.09-0.1,0.12c-0.34,0.24-0.67,0.48-1.02,0.7c-0.17,0.11-0.32,0-0.47-0.09
		c-3.48-2.03-7.01-2.1-10.57-0.22c-0.23,0.12-0.42,0.13-0.64-0.01c-0.27-0.17-0.55-0.34-0.83-0.49c-0.34-0.18-0.28-0.34,0-0.52
		c1.5-0.93,3.1-1.58,4.86-1.82c2.69-0.36,5.24,0.11,7.62,1.43c0.32,0.18,0.62,0.38,0.93,0.58
		C382.17,27.99,382.27,28.06,382.28,28.23"/>
	<path d="M375.26,49.72c-2.5,0.03-4.73-0.71-6.78-2.04c-0.4-0.26-0.37-0.35-0.01-0.66c0.61-0.52,1.1-0.56,1.88-0.15
		c3.26,1.75,6.57,1.67,9.85-0.01c0.37-0.19,0.64-0.21,0.96,0.03c0.17,0.13,0.37,0.22,0.55,0.33c0.42,0.26,0.43,0.35,0,0.62
		C379.73,49.08,377.58,49.74,375.26,49.72"/>
	<path d="M387.22,37.73c0,2.35-0.63,4.52-1.9,6.51c-0.3,0.47-0.31,0.44-0.63-0.01c-0.49-0.67-0.49-1.22-0.11-2.02
		c1.58-3.33,1.39-6.63-0.48-9.82c-0.2-0.34-0.2-0.57,0.05-0.85c0.12-0.13,0.22-0.29,0.33-0.44c0.35-0.5,0.38-0.5,0.73,0.02
		C386.51,33.05,387.21,35.37,387.22,37.73"/>
	<path d="M367.88,33.78c0.12-0.48-0.05-0.91-0.3-1.33c-0.95-1.61-1.88-3.22-2.81-4.83c-0.07-0.11-0.22-0.22-0.09-0.36
		c0.13-0.14,0.26-0.01,0.37,0.06c1.44,0.83,2.9,1.64,4.33,2.5c0.77,0.47,1.55,0.75,2.45,0.67c0.18-0.02,0.49-0.03,0.52,0.16
		c0.04,0.22-0.26,0.24-0.44,0.32c-1.59,0.77-2.74,1.97-3.53,3.53c-0.04,0.08-0.07,0.17-0.12,0.25c-0.04,0.07-0.08,0.14-0.17,0.13
		c-0.09-0.01-0.11-0.1-0.13-0.17c-0.02-0.07-0.04-0.15-0.04-0.23C367.91,34.26,367.9,34.03,367.88,33.78"/>
	<path d="M382.51,41.64c-0.18,0.95,0.49,1.58,0.88,2.3c0.75,1.37,1.57,2.7,2.35,4.04c0.05,0.09,0.15,0.19,0.06,0.29
		c-0.13,0.15-0.25,0.01-0.36-0.06c-1.5-0.86-3-1.72-4.49-2.6c-0.61-0.36-1.22-0.67-1.98-0.56c-0.28,0.04-0.76,0.1-0.83-0.18
		c-0.08-0.28,0.39-0.34,0.63-0.46c1.51-0.79,2.59-1.98,3.32-3.5c0.06-0.12,0.08-0.32,0.24-0.3c0.19,0.02,0.15,0.24,0.17,0.38
		C382.52,41.22,382.51,41.43,382.51,41.64"/>
	<path d="M372.37,37.77c0-1.58,1.31-2.89,2.86-2.87c1.58,0.02,2.86,1.31,2.86,2.88c0,1.55-1.32,2.85-2.9,2.83
		C373.65,40.6,372.37,39.31,372.37,37.77"/>
	<path d="M575.59,12.12c-1.96,1.94-8.07,7.96-9.83,9.15c-1.52,1.02-4.39,2.14-6.81,0.52c1.78,2.22,4.52,3.64,7.59,3.64
		c5.37,0,9.73-4.36,9.73-9.73C576.27,14.44,576.02,13.23,575.59,12.12"/>
	<path d="M558.19,9.25l-5.3-3.18c-0.54-0.32-1.42-0.32-1.96,0L544.4,10c-0.54,0.33-0.98,1.12-0.98,1.76v6.64
		c2.53-2.49,7.32-7.14,8.83-8.17C553.59,9.33,555.98,8.36,558.19,9.25"/>
	<path class="st5" d="M558.19,9.25c-2.21-0.89-4.6,0.08-5.94,0.98c-1.52,1.03-6.31,5.68-8.83,8.17v1.21c0,0.65,0.44,1.44,0.98,1.76
		l2.1,1.26c2.31-2.28,7.12-7.04,9.32-9.28c1.24-1.27,2.46-1.54,3.45-1.42c1.35,0.15,2.28,1.02,2.28,1.02
		C560.65,10.88,559.45,9.76,558.19,9.25"/>
	<path d="M556.46,18.55c0,0,0.38,0.35,1,0.65c0.48,0.23,1.1,0.42,1.82,0.4v-7.67c-0.99-0.11-2.2,0.15-3.45,1.42
		c-2.2,2.24-7.02,7.01-9.32,9.28l4.44,2.66c0.54,0.32,1.42,0.32,1.96,0l5.96-3.58C557.96,21.1,557.13,20.09,556.46,18.55"/>
	<path class="st5" d="M572.43,7.96c-1.55,1.53-7.68,7.58-10.24,10.19c-1.03,1.05-2.04,1.42-2.92,1.45c-0.71,0.02-1.33-0.17-1.81-0.4
		c-0.62-0.3-1-0.65-1-0.65c0.67,1.54,1.5,2.55,2.4,3.18c0.03,0.02,0.06,0.05,0.1,0.07c2.42,1.61,5.29,0.5,6.81-0.52
		c1.75-1.19,7.87-7.2,9.83-9.15C574.93,10.46,573.83,9.03,572.43,7.96"/>
	<path d="M566.54,5.97c-3.08,0-5.82,1.43-7.6,3.67c0.98,0.61,1.89,1.66,2.62,3.32c0,0-0.93-0.87-2.28-1.03v7.67
		c0.88-0.03,1.89-0.39,2.92-1.45c2.56-2.61,8.7-8.66,10.24-10.19C570.8,6.71,568.75,5.97,566.54,5.97"/>
	<path d="M707.26,46.53c-13.42,1.81-24.93-0.56-27.66-5.53c-0.5-0.58-0.68-1.19-0.58-1.78c0.05-0.3,0.16-0.6,0.34-0.89
		c2.35,0.97,5.25,1.59,15.08,0.74c0,0-12.4,0.04-14.05-4.2c-0.37-0.94-0.21-2.1,0.75-3.52c0.2-0.28,0.62-0.82,0.62-0.82
		c0.53-0.68,1.13-1.34,1.71-1.94c0.38-0.39,0.74-0.75,1.07-1.07c0.79-0.75,1.38-1.26,1.45-1.32c-1.52,0.95-19.09,11.43-19.09,11.43
		c1.21-0.58,3.69-1.11,5.78-1.7c-1.03,1.32-1.56,2.64-1.53,3.92c0,0.08,0,0.16,0.01,0.24c0.01,0.19,0.04,0.37,0.08,0.55l0,0.01
		C672.54,46.61,685.97,50.66,707.26,46.53"/>
	<path d="M667.16,29.24c13.42-1.81,24.93,0.56,27.66,5.53c0.5,0.58,0.68,1.19,0.58,1.78c-0.05,0.3-0.16,0.6-0.34,0.89
		c-2.35-0.97-5.25-1.59-15.08-0.74c0,0,12.4-0.04,14.05,4.2c0.37,0.94,0.21,2.1-0.75,3.52c-0.2,0.28-0.62,0.82-0.62,0.82
		c-0.53,0.68-1.13,1.34-1.71,1.94c-0.38,0.39-0.74,0.75-1.07,1.07c-0.79,0.75-1.38,1.26-1.45,1.32
		c1.52-0.95,19.09-11.43,19.09-11.43c-1.21,0.58-3.69,1.11-5.78,1.7c1.03-1.32,1.56-2.64,1.53-3.92c0-0.08,0-0.16-0.01-0.24
		c-0.01-0.19-0.04-0.37-0.08-0.55l0-0.01C701.87,29.16,688.44,25.11,667.16,29.24"/>
</g>
</svg>
