<?xml version="1.0" encoding="utf-8"?>
<!-- Generator: Adobe Illustrator 23.1.0, SVG Export Plug-In . SVG Version: 6.00 Build 0)  -->
<svg version="1.1" id="圖層_1" xmlns="http://www.w3.org/2000/svg" xmlns:xlink="http://www.w3.org/1999/xlink" x="0px" y="0px"
	 viewBox="0 0 530.43 506.97" style="enable-background:new 0 0 530.43 506.97;" xml:space="preserve">
<style type="text/css">
	.st0{fill:#F00000;}
	.st1{clip-path:url(#SVGID_2_);}
	.st2{clip-path:url(#SVGID_6_);fill:#706F6F;}
	.st3{clip-path:url(#SVGID_8_);}
	.st4{clip-path:url(#SVGID_8_);fill:#3E3A39;}
	.st5{fill:#3E3A39;}
	.st6{clip-path:url(#SVGID_10_);}
	.st7{clip-path:url(#SVGID_12_);}
	.st8{clip-path:url(#SVGID_14_);}
	.st9{clip-path:url(#SVGID_16_);}
	.st10{clip-path:url(#SVGID_16_);fill:#E61F19;}
	.st11{fill:none;}
	.st12{fill:#706F6F;}
</style>
<g>
	<defs>
		<rect id="SVGID_5_" x="-911.65" y="-580.73" width="720" height="1190.55"/>
	</defs>
	<clipPath id="SVGID_2_">
		<use xlink:href="#SVGID_5_"  style="overflow:visible;"/>
	</clipPath>
	<path style="clip-path:url(#SVGID_2_);fill:#706F6F;" d="M-188.86,98.65C-104.52-40.49-22.47-211.93,50.82-415.28
		C-19.09-251.56-102.25-107.04-189.1,8.34c-0.5-225.62-0.67-577.74-0.67-577.74c-4.18,45.47-31.79,127.29-51.15,198.94
		c-20.76-53.1-50.13-91.78-88.24-113.1c-2.38-1.34-4.83-2.71-7.32-3.96c-5.71-2.93-11.52-5.25-17.57-7.15l-0.26-0.11
		c-136.36-45.63-347.17,94.57-547.06,415.36c-0.21-0.87-0.41-1.73-0.61-2.59c-8.35-36.23-12.86-62.38-13.38-65.57
		c0.21,11.24,0.39,44.02,0.54,90.02c-84.34,139.14-166.39,310.59-239.68,513.94c69.91-163.71,153.06-308.23,239.92-423.61v0.01
		c0.5,225.62,0.67,577.72,0.67,577.72c4.18-45.47,31.79-127.29,51.15-198.94c20.76,53.1,50.13,91.78,88.24,113.1
		c2.38,1.34,4.83,2.71,7.32,3.96c5.71,2.93,11.52,5.25,17.57,7.15l0.26,0.11c136.36,45.63,347.17-94.57,547.06-415.36
		c0.21,0.87,0.41,1.73,0.61,2.59c8.35,36.23,12.86,62.38,13.38,65.57c-0.21-11.24-0.39-44.02-0.54-90.02V98.65z M-759.37,167.31
		c-34.07-5.58-65.1-30.55-89.99-83.24c-4.65-10.66-13.13-32.31-13.13-32.31c-7.5-19.51-14.21-39.95-20.15-59.93
		c114.2-140.95,232.7-230.3,334.35-245.98c0,0,0.06-0.01,0.16-0.03c3.32-0.63,55.76-10.36,77.79-0.5c0.02,0.01,0.03,0.01,0.05,0.02
		c8.32,2.61,15.76,6.75,22.35,12.3c7.94,6.54,14.66,15.18,20.13,25.66c-64.62,48.32-128.96,116.02-255.97,370.23
		C-709.79,165.78-735.34,171.34-759.37,167.31 M-433.02-105.72c-52.45,77.34-146.71,202.44-237.64,252.54
		C-618.21,69.48-523.95-55.62-433.02-105.72 M-511.04,284.14c-0.01,0-0.01,0.01-0.02,0.01c-21.27,9.13-45.89,12.91-66.48,14.32
		c-41.72,4.7-56.07-2.77-56.07-2.77c-8.23-2.63-15.6-6.74-22.13-12.24c-7.94-6.54-14.66-15.18-20.13-25.66
		c64.62-48.32,128.96-116.02,255.97-370.23c26.01-12.25,51.56-17.81,75.59-13.78c34.07,5.58,65.1,30.55,90,83.24
		c4.64,10.66,13.12,32.31,13.12,32.31c7.5,19.51,14.21,39.94,20.15,59.92C-318.99,170.15-420.1,253.09-511.04,284.14"/>
</g>
<path class="st12" d="M418.78,285.11c34.16-56.35,67.39-125.79,97.07-208.15c-28.31,66.31-62,124.84-97.17,171.57
	c-0.2-91.38-0.27-233.99-0.27-233.99c-1.69,18.42-12.88,51.55-20.72,80.57c-8.41-21.51-20.3-37.17-35.74-45.81
	c-0.96-0.54-1.96-1.1-2.96-1.6c-2.31-1.19-4.67-2.13-7.12-2.9l-0.11-0.04c-55.23-18.48-140.61,38.3-221.57,168.23
	c-0.09-0.35-0.17-0.7-0.25-1.05c-3.38-14.67-5.21-25.26-5.42-26.56c0.09,4.55,0.16,17.83,0.22,36.46
	C90.6,278.2,57.36,347.64,27.68,430C56,363.7,89.67,305.16,124.85,258.43v0c0.2,91.38,0.27,233.98,0.27,233.98
	c1.69-18.42,12.88-51.55,20.72-80.57c8.41,21.51,20.3,37.17,35.74,45.81c0.96,0.54,1.96,1.1,2.96,1.6c2.31,1.19,4.67,2.13,7.12,2.9
	l0.11,0.04c55.23,18.48,140.61-38.3,221.57-168.23c0.09,0.35,0.17,0.7,0.25,1.05c3.38,14.67,5.21,25.26,5.42,26.56
	C418.91,317.03,418.84,303.75,418.78,285.11L418.78,285.11z M187.71,312.92c-13.8-2.26-26.37-12.37-36.45-33.71
	c-1.88-4.32-5.32-13.09-5.32-13.09c-3.04-7.9-5.76-16.18-8.16-24.27c46.25-57.09,94.25-93.27,135.42-99.63c0,0,0.02,0,0.06-0.01
	c1.34-0.26,22.58-4.2,31.51-0.2c0.01,0,0.01,0,0.02,0.01c3.37,1.06,6.38,2.73,9.05,4.98c3.22,2.65,5.94,6.15,8.15,10.39
	c-26.17,19.57-52.23,46.99-103.67,149.95C207.79,312.3,197.45,314.56,187.71,312.92 M319.89,202.34
	c-21.24,31.32-59.42,81.99-96.25,102.28C244.89,273.3,283.06,222.63,319.89,202.34 M288.29,360.24
	C288.29,360.24,288.29,360.24,288.29,360.24c-8.62,3.7-18.59,5.23-26.93,5.8c-16.9,1.9-22.71-1.12-22.71-1.12
	c-3.33-1.07-6.32-2.73-8.96-4.96c-3.22-2.65-5.94-6.15-8.15-10.39C247.7,330,273.76,302.58,325.2,199.62
	c10.53-4.96,20.88-7.21,30.61-5.58c13.8,2.26,26.37,12.37,36.45,33.71c1.88,4.32,5.31,13.09,5.31,13.09
	c3.04,7.9,5.76,16.18,8.16,24.27C366.07,314.07,325.12,347.67,288.29,360.24"/>
</svg>
